<svg width="24" height="24" viewBox="0 0 24 24" fill="none" xmlns="http://www.w3.org/2000/svg">
<path d="M21 12C21 7.03125 16.9688 3 12 3C7.03125 3 3 7.03125 3 12C3 16.9688 7.03125 21 12 21C16.9688 21 21 16.9688 21 12Z" stroke="#c8cbd9" stroke-width="2" stroke-miterlimit="10" fill="#f1f2f5"/>
<path d="M11.7347 7.78517L12.0037 13.5016L12.2723 7.78517C12.274 7.74863 12.2682 7.71213 12.2552 7.6779C12.2423 7.64368 12.2225 7.61245 12.1971 7.58613C12.1717 7.55981 12.1412 7.53894 12.1075 7.5248C12.0738 7.51067 12.0375 7.50356 12.0009 7.50392V7.50392C11.9648 7.50426 11.929 7.51188 11.8959 7.52633C11.8628 7.54077 11.8329 7.56174 11.808 7.588C11.7832 7.61425 11.7639 7.64523 11.7513 7.67911C11.7387 7.71299 11.733 7.74906 11.7347 7.78517V7.78517Z" stroke="#c8cbd9" stroke-width="2" stroke-linecap="round" stroke-linejoin="round"/>
<path d="M12 17.2461C11.8146 17.2461 11.6333 17.1911 11.4792 17.0881C11.325 16.9851 11.2048 16.8387 11.1339 16.6674C11.0629 16.4961 11.0443 16.3076 11.0805 16.1257C11.1167 15.9438 11.206 15.7768 11.3371 15.6457C11.4682 15.5146 11.6352 15.4253 11.8171 15.3891C11.999 15.3529 12.1875 15.3715 12.3588 15.4425C12.5301 15.5134 12.6765 15.6336 12.7795 15.7877C12.8825 15.9419 12.9375 16.1232 12.9375 16.3086C12.9375 16.5572 12.8387 16.7957 12.6629 16.9715C12.4871 17.1473 12.2486 17.2461 12 17.2461Z" fill="#c8cbd9"/>
</svg>
