<svg width="314" height="288" viewBox="0 0 314 288" fill="none" xmlns="http://www.w3.org/2000/svg">
<g filter="url(#filter0_d_2810_120709)">
<path fill-rule="evenodd" clip-rule="evenodd" d="M78.863 58.3664V58.3664L79.8756 57.7527L80.8636 57.1212L81.8279 56.4709L82.769 55.8005L83.6878 55.1093L84.5852 54.3964L85.4622 53.6612L86.32 52.9031L87.1599 52.1218L87.9833 51.3171L88.7916 50.4892L89.5866 49.6381L90.3697 48.7642L91.1428 47.8681L91.9075 46.9505L92.6658 46.0123L93.4193 45.0545L94.1698 44.0782L94.9193 43.0847L95.6695 42.0756L96.4221 41.0523L97.1789 40.0165L97.9416 38.9701L98.7117 37.9149L99.4909 36.8528L100.281 35.786L101.082 34.7165L101.897 33.6464L102.726 32.578L103.571 31.5135L104.433 30.4551L105.312 29.4051L106.209 28.3655L107.125 27.3388L108.061 26.3269L109.017 25.3321L109.993 24.3563L110.989 23.4016L112.006 22.4697L113.044 21.5625L114.102 20.6817L115.181 19.8287L116.279 19.005L117.397 18.2119L118.534 17.4504L119.69 16.7215L120.863 16.0261L122.053 15.3651L123.259 14.7392L124.481 14.149L125.718 13.5951L126.969 13.0781L128.232 12.5982L129.508 12.1559L130.795 11.7512L132.092 11.3844L133.398 11.0555L134.713 10.7645L136.035 10.5112L137.364 10.2956L138.698 10.1172L140.037 9.97585L141.379 9.87102L142.724 9.80225L144.07 9.769L145.418 9.77067L146.765 9.80658L148.112 9.87599L149.457 9.97816L150.8 10.1122L152.14 10.2773L153.476 10.4726L154.807 10.6971L156.134 10.9497L157.455 11.2296L158.769 11.5356L160.077 11.8668L161.378 12.222L162.671 12.6002L163.956 13.0003L165.233 13.4213L166.502 13.8619L167.762 14.3212L169.012 14.798L170.254 15.2913L171.486 15.8L172.709 16.3231L173.922 16.8595L175.127 17.4082L176.321 17.9683L177.506 18.5387L178.683 19.1186L179.849 19.707L181.007 20.3031L182.157 20.906L183.297 21.515L184.429 22.1291L185.554 22.7477L186.67 23.3702L187.779 23.9957L188.88 24.6237L189.975 25.2537L191.063 25.8849L192.145 26.517L193.222 27.1495L194.292 27.7818L195.358 28.4138L196.419 29.0453L197.475 29.6762L198.528 30.3065L199.576 30.9363L200.62 31.5659L201.66 32.1954L202.697 32.8251L203.731 33.4556L204.76 34.0871L205.787 34.7202L206.809 35.3553L207.828 35.9929L208.844 36.6336L209.855 37.2778L210.862 37.9262L211.865 38.5792L212.863 39.2375L213.856 39.9014L214.844 40.5715L215.827 41.2483L216.804 41.9321L217.776 42.6235L218.741 43.3227L219.699 44.0301L220.651 44.746L221.595 45.4706L222.532 46.2042L223.462 46.9469L224.383 47.6989L225.297 48.4601L226.202 49.2307L227.099 50.0107L227.987 50.8L228.866 51.5985L229.737 52.406L230.599 53.2226L231.452 54.0479L232.297 54.8817L233.132 55.7238L233.959 56.574L234.778 57.4319L235.588 58.2973L236.39 59.1698L237.184 60.0492L237.971 60.935L238.75 61.8269L239.522 62.7247L240.288 63.6279L241.048 64.5362L241.802 65.4493L242.55 66.3668L243.294 67.2885L244.033 68.2141L244.769 69.1432L245.501 70.0756L246.23 71.0112L246.958 71.9496L247.683 72.8907L248.407 73.8343L249.131 74.7803L249.855 75.7287L250.579 76.6793L251.305 77.6322L252.031 78.5872L252.76 79.5446L253.491 80.5042L254.225 81.4663L254.963 82.431L255.704 83.3984L256.449 84.3687L257.198 85.3422L257.952 86.3192L258.711 87.2998L259.475 88.2844L260.244 89.2734L261.019 90.2671L261.798 91.2659L262.583 92.2702L263.374 93.2804L264.169 94.2969L264.969 95.3202L265.775 96.3507L266.585 97.3889L267.399 98.4351L268.217 99.49L269.038 100.554L269.863 101.627L270.69 102.711L271.519 103.804L272.35 104.909L273.182 106.024L274.014 107.151L274.845 108.291L275.675 109.442L276.503 110.606L277.329 111.783L278.151 112.974L278.968 114.177L279.781 115.395L280.588 116.626L281.389 117.872L282.183 119.131L282.97 120.404L283.75 121.692L284.522 122.994L285.286 124.311L286.043 125.641L286.791 126.987L287.53 128.346L288.261 129.72L288.983 131.109L289.697 132.512L290.401 133.929L291.097 135.361L291.784 136.808L292.463 138.269L293.132 139.745L293.792 141.236L294.443 142.742L295.085 144.262L295.717 145.797L296.34 147.348L296.953 148.913L297.555 150.493L298.148 152.089L298.729 153.699L299.299 155.325L299.857 156.966L300.402 158.621L300.935 160.292L301.453 161.977L301.956 163.677L302.444 165.391L302.915 167.12L303.368 168.862L303.802 170.618L304.215 172.386L304.607 174.167L304.976 175.961L305.321 177.765L305.64 179.58L305.934 181.406L306.199 183.24L306.436 185.083L306.643 186.934L306.819 188.792L306.963 190.656L307.074 192.525L307.15 194.397L307.192 196.273L307.197 198.151L307.165 200.03L307.096 201.909L306.988 203.786L306.84 205.661L306.653 207.532L306.425 209.398L306.155 211.258L305.844 213.111L305.491 214.955L305.095 216.79L304.656 218.613L304.174 220.424L303.649 222.221L303.08 224.004L302.467 225.77L301.811 227.519L301.112 229.25L300.369 230.961L299.583 232.652L298.754 234.32L297.883 235.965L296.969 237.586L296.014 239.181L295.017 240.751L293.98 242.293L292.903 243.806L291.786 245.291L290.631 246.745L289.438 248.169L288.208 249.561L286.942 250.921L285.641 252.247L284.305 253.54L282.936 254.798L281.535 256.022L280.103 257.21L278.641 258.363L277.15 259.479L275.631 260.559L274.086 261.602L272.515 262.608L270.92 263.577L269.302 264.509L267.662 265.403L266.001 266.26L264.321 267.08L262.623 267.862L260.908 268.608L259.178 269.316L257.433 269.988L255.674 270.624L253.904 271.223L252.122 271.787L250.331 272.315L248.532 272.809L246.724 273.268L244.911 273.693L243.092 274.085L241.269 274.444L239.443 274.771L237.614 275.066L235.784 275.33L233.954 275.564L232.124 275.769L230.296 275.944L228.47 276.092L226.648 276.213L224.829 276.306L223.015 276.375L221.207 276.418L219.404 276.438L217.608 276.435L215.82 276.41L214.04 276.363L212.268 276.297L210.505 276.211L208.752 276.108L207.009 275.987L205.276 275.85L203.554 275.698L201.844 275.532L200.144 275.353L198.457 275.162L196.781 274.961L195.117 274.75L193.466 274.531L191.827 274.304L190.2 274.07L188.585 273.831L186.983 273.588L185.393 273.341L183.815 273.092L182.249 272.84L180.695 272.588L179.152 272.336L177.621 272.085L176.1 271.835L174.59 271.588L173.09 271.343L171.599 271.103L170.119 270.866L168.647 270.634L167.183 270.408L165.728 270.187L164.28 269.973L162.839 269.766L161.405 269.565L159.977 269.372L158.553 269.186L157.135 269.009L155.721 268.839L154.311 268.678L152.903 268.525L151.498 268.38L150.095 268.243L148.694 268.115L147.293 267.994L145.892 267.882L144.491 267.777L143.089 267.681L141.686 267.591L140.281 267.508L138.873 267.432L137.462 267.362L136.048 267.298L134.63 267.239L133.208 267.185L131.781 267.135L130.349 267.088L128.911 267.045L127.468 267.003L126.019 266.963L124.564 266.924L123.103 266.885L121.635 266.845L120.16 266.803L118.678 266.759L117.19 266.711L115.694 266.659L114.192 266.601L112.683 266.538L111.167 266.467L109.645 266.388L108.116 266.299L106.581 266.201L105.041 266.091L103.495 265.969L101.945 265.833L100.389 265.683L98.8302 265.516L97.2678 265.333L95.7027 265.132L94.1357 264.911L92.5675 264.67L90.999 264.407L89.4311 264.121L87.8647 263.812L86.3007 263.477L84.7403 263.117L83.1845 262.729L81.6345 262.314L80.0913 261.869L78.5562 261.394L77.0305 260.889L75.5154 260.352L74.0121 259.783L72.5221 259.181L71.0465 258.546L69.5868 257.876L68.1443 257.172L66.7203 256.433L65.3161 255.659L63.933 254.85L62.5724 254.005L61.2355 253.124L59.9236 252.208L58.6378 251.257L57.3794 250.27L56.1495 249.249L54.9491 248.194L53.7792 247.104L52.6409 245.982L51.5349 244.826L50.462 243.639L49.423 242.421L48.4185 241.173L47.4491 239.896L46.5152 238.59L45.6171 237.258L44.7551 235.9L43.9294 234.518L43.1399 233.113L42.3868 231.686L41.6697 230.238L40.9885 228.772L40.3427 227.288L39.7318 225.789L39.1554 224.274L38.6126 222.747L38.1028 221.209L37.6249 219.66L37.178 218.103L36.761 216.539L36.3727 214.97L36.0119 213.397L35.6771 211.821L35.3671 210.244L35.0801 208.666L34.8148 207.091L34.5695 205.517L34.3424 203.948L34.1319 202.383L33.9362 200.824L33.7534 199.272L33.5818 197.727L33.4196 196.191L33.2648 194.663L33.1156 193.146L32.9702 191.638L32.8269 190.141L32.6836 188.655L32.5388 187.18L32.3907 185.717L32.2376 184.265L32.0779 182.824L31.9101 181.395L31.7326 179.976L31.5442 178.568L31.3435 177.171L31.1292 175.784L30.9004 174.406L30.6559 173.037L30.395 171.676L30.1168 170.323L29.8207 168.976L29.5062 167.635L29.1729 166.3L28.8205 164.968L28.449 163.64L28.0584 162.314L27.6487 160.989L27.2205 159.665L26.7741 158.34L26.3103 157.013L25.8301 155.684L25.3347 154.351L24.8255 153.013L24.3041 151.67L23.7723 150.32L23.2321 148.963L22.6856 147.598L22.135 146.224L21.5828 144.841L21.0315 143.448L20.4837 142.045L19.9422 140.631L19.4098 139.207L18.8893 137.772L18.3836 136.327L17.8957 134.87L17.4284 133.404L16.9847 131.928L16.5675 130.443L16.1796 128.949L15.8239 127.447L15.5029 125.938L15.2194 124.423L14.9759 122.903L14.7747 121.379L14.6181 119.853L14.5081 118.325L14.4468 116.798L14.4357 115.273L14.4765 113.75L14.5706 112.232L14.719 110.721L14.9226 109.217L15.182 107.723L15.4978 106.24L15.8701 104.77L16.2987 103.314L16.7835 101.873L17.324 100.45L17.9198 99.0448L18.5701 97.6597L19.274 96.2959L20.0307 94.9545L20.8388 93.6368L21.6971 92.3438L22.6043 91.0766L23.5587 89.8362L24.5588 88.6233L25.6026 87.4388L26.6884 86.2832L27.814 85.1572L28.9775 84.0611L30.1767 82.9953L31.4093 81.96L32.673 80.9554L33.9654 79.9813L35.2841 79.0377L36.6267 78.1242L37.9906 77.2407L39.3734 76.3864L40.7724 75.5609L42.1854 74.7635L43.6096 73.9933L45.0426 73.2495L46.4821 72.5309L47.9254 71.8364L49.3703 71.165L50.8145 70.5151L52.2556 69.8855L53.6915 69.2746L55.1202 68.6811L56.5395 68.1031L57.9476 67.5391L59.3426 66.9874L60.7229 66.4462L62.0867 65.9138L63.4327 65.3883L64.7595 64.8679L66.0658 64.3507L67.3506 63.835L68.6128 63.3188L69.8516 62.8004L71.0662 62.278L72.2562 61.7498L73.4211 61.2141L74.5606 60.6692L75.6745 60.1135L76.7628 59.5454L77.8255 58.9635L78.863 58.3664" fill="black" fill-opacity="0.025" shape-rendering="crispEdges"/>
</g>
<defs>
<filter id="filter0_d_2810_120709" x="0.4375" y="0.769043" width="312.758" height="286.669" filterUnits="userSpaceOnUse" color-interpolation-filters="sRGB">
<feFlood flood-opacity="0" result="BackgroundImageFix"/>
<feColorMatrix in="SourceAlpha" type="matrix" values="0 0 0 0 0 0 0 0 0 0 0 0 0 0 0 0 0 0 127 0" result="hardAlpha"/>
<feOffset dx="-4" dy="1"/>
<feGaussianBlur stdDeviation="5"/>
<feComposite in2="hardAlpha" operator="out"/>
<feColorMatrix type="matrix" values="0 0 0 0 0 0 0 0 0 0 0 0 0 0 0 0 0 0 0.2 0"/>
<feBlend mode="normal" in2="BackgroundImageFix" result="effect1_dropShadow_2810_120709"/>
<feBlend mode="normal" in="SourceGraphic" in2="effect1_dropShadow_2810_120709" result="shape"/>
</filter>
</defs>
</svg>
