<svg width="16" height="19" viewBox="0 0 16 19" fill="none" xmlns="http://www.w3.org/2000/svg">
<path d="M15.8108 13.9023C15.3796 14.8602 15.1718 15.2883 14.6171 16.1336C13.8405 17.3148 12.7452 18.7898 11.3921 18.7992C10.1874 18.8102 9.87646 18.0133 8.24052 18.0273C6.60614 18.0352 6.26552 18.8148 5.05927 18.8023C3.70458 18.7898 2.66864 17.4617 1.89208 16.282C-0.279793 12.9742 -0.50948 9.09609 0.832707 7.03359C1.78271 5.57109 3.28427 4.71172 4.69521 4.71172C6.13271 4.71172 7.03583 5.50078 8.22333 5.50078C9.37646 5.50078 10.078 4.71016 11.7405 4.71016C12.9968 4.71016 14.3249 5.39453 15.2749 6.57578C12.1686 8.27891 12.6733 12.7148 15.8108 13.9023ZM10.478 3.38984C11.0827 2.61328 11.5421 1.51797 11.3749 0.402344C10.389 0.469531 9.23583 1.09922 8.5624 1.91484C7.95146 2.65859 7.44521 3.76172 7.64208 4.82891C8.71865 4.86328 9.83271 4.22109 10.478 3.38984Z" fill="black"/>
</svg>
