<svg width="20" height="20" viewBox="0 0 20 20" fill="none" xmlns="http://www.w3.org/2000/svg">
<path fill-rule="evenodd" clip-rule="evenodd" d="M19.2 10.218C19.2 9.53849 19.139 8.88509 19.0258 8.25781H10V11.9648H15.1576C14.9354 13.1627 14.2602 14.1777 13.2453 14.8572V17.2618H16.3424C18.1545 15.5934 19.2 13.1366 19.2 10.218Z" fill="#4285F4"/>
<path fill-rule="evenodd" clip-rule="evenodd" d="M9.9937 19.5828C12.5812 19.5828 14.7505 18.7247 16.3361 17.261L13.239 14.8565C12.3808 15.4315 11.2831 15.7713 9.9937 15.7713C7.49768 15.7713 5.38499 14.0855 4.63139 11.8203H1.42969V14.3033C3.00658 17.4353 6.24749 19.5828 9.9937 19.5828Z" fill="#34A853"/>
<path fill-rule="evenodd" clip-rule="evenodd" d="M4.63509 11.8238C4.44342 11.2488 4.33452 10.6346 4.33452 10.003C4.33452 9.37138 4.44342 8.75717 4.63509 8.18217V5.69922H1.43338C0.784328 6.99297 0.414062 8.4566 0.414062 10.003C0.414062 11.5494 0.784328 13.013 1.43338 14.3068L4.63509 11.8238Z" fill="#FBBC05"/>
<path fill-rule="evenodd" clip-rule="evenodd" d="M9.9937 4.22952C11.4007 4.22952 12.664 4.71304 13.6571 5.66267L16.4058 2.91399C14.7462 1.36759 12.5768 0.417969 9.9937 0.417969C6.24749 0.417969 3.00658 2.56551 1.42969 5.69751L4.63139 8.18047C5.38499 5.91532 7.49768 4.22952 9.9937 4.22952Z" fill="#EA4335"/>
</svg>
