<svg width="400" height="86" viewBox="0 0 400 86" fill="none" xmlns="http://www.w3.org/2000/svg">
<path fill-rule="evenodd" clip-rule="evenodd" d="M290.395 55.9937V47.3658C290.395 44.1125 289.209 41.5025 287.38 39.6607C285.354 37.622 282.543 36.5215 279.679 36.5215C276.926 36.5215 274.121 37.5416 271.918 39.7296C269.798 41.8364 268.758 44.3798 268.758 47.3658C268.758 50.3479 269.75 52.9257 271.836 55.0693C273.88 57.1677 276.343 58.2276 279.276 58.2276C281.53 58.2276 283.487 57.4534 285.193 55.9929L285.664 55.5878L285.752 56.2027C285.831 56.7534 286.078 57.2236 286.456 57.6272C286.841 58.0354 287.302 58.2276 287.861 58.2276C288.543 58.2276 289.122 57.9879 289.632 57.5407C290.099 57.1317 290.395 56.6247 290.395 55.9937ZM260.716 55.8221V45.4343C260.716 44.1891 261.158 43.1001 262.044 42.2285C262.937 41.3509 264.048 40.9282 265.309 40.9282H267.019C268.047 40.9282 268.858 40.2412 268.964 39.2081C269.086 38.0195 268.318 37.2384 267.261 36.8493C266.758 36.6655 265.889 36.5897 265.353 36.5897C262.74 36.5897 260.531 37.5171 258.683 39.3658C256.844 41.2046 255.907 43.3972 255.907 45.9911V55.8221C255.907 56.4892 256.151 57.0421 256.621 57.5116C257.093 57.9833 257.642 58.2276 258.313 58.2276C258.983 58.2276 259.529 57.9841 260.002 57.5116C260.474 57.0406 260.716 56.4907 260.716 55.8221ZM242.421 36.5897C240.201 36.5897 238.186 37.2054 236.563 38.7677L235.984 39.3245V30.4086C235.984 29.7385 235.741 29.1894 235.269 28.7177C234.798 28.2467 234.247 28.0039 233.578 28.0039C232.911 28.0039 232.359 28.2474 231.888 28.7177C231.416 29.1902 231.174 29.7378 231.174 30.4086V55.9937C231.174 56.6286 231.413 57.1386 231.878 57.5667C232.362 58.0124 232.922 58.2276 233.578 58.2276C234.236 58.2276 234.795 58.0124 235.28 57.5667C235.743 57.1401 235.984 56.627 235.984 55.9937V47.1935C235.984 45.5247 236.471 43.9907 237.596 42.7371C238.723 41.4819 240.194 40.9282 241.864 40.9282C243.598 40.9282 245.086 41.5515 246.276 42.8175C247.47 44.088 248.043 45.6281 248.043 47.3658V55.8221C248.043 56.4922 248.286 57.0406 248.759 57.5131C249.23 57.9841 249.78 58.2276 250.449 58.2276C251.12 58.2276 251.669 57.9841 252.141 57.5116C252.61 57.0429 252.854 56.4884 252.854 55.8221V47.3658C252.854 44.4089 251.865 41.851 249.797 39.7258C247.774 37.6481 245.325 36.5897 242.421 36.5897ZM177.179 47.3658V55.8221C177.179 56.4938 177.42 57.039 177.894 57.5131C178.366 57.9848 178.915 58.2276 179.585 58.2276C180.257 58.2276 180.801 57.9848 181.275 57.5116C181.747 57.0383 181.989 56.4945 181.989 55.8221V47.3658C181.989 44.3691 180.926 41.828 178.787 39.7311C176.639 37.6243 174.058 36.5897 171.042 36.5897C168.02 36.5897 165.424 37.6029 163.275 39.7105C161.135 41.8096 160.095 44.3576 160.095 47.3658V55.8221C160.095 56.4945 160.337 57.0383 160.81 57.5116C161.283 57.9848 161.828 58.2276 162.5 58.2276C163.17 58.2276 163.718 57.9848 164.191 57.5131C164.667 57.036 164.905 56.4716 164.905 55.8221V47.3658C164.905 45.6212 165.47 44.0918 166.65 42.8198C167.828 41.55 169.306 40.9282 171.042 40.9282C172.779 40.9282 174.256 41.55 175.435 42.8198C176.598 44.0727 177.179 45.589 177.179 47.3658ZM225.844 53.8447H223.355C222.628 53.8447 221.937 53.5568 221.423 53.0429C220.91 52.5298 220.62 51.8398 220.62 51.1122V41.3999H226.36C226.965 41.3999 227.468 41.1893 227.903 40.7681C228.344 40.3392 228.551 39.8231 228.551 39.2104C228.551 38.5954 228.345 38.0808 227.903 37.6511C227.468 37.2299 226.965 37.0186 226.36 37.0186H220.62V30.3657C220.62 29.7025 220.369 29.1573 219.89 28.7023C219.417 28.2551 218.87 28.0039 218.214 28.0039C217.546 28.0039 216.98 28.2451 216.496 28.7023C216.015 29.158 215.767 29.7018 215.767 30.3657V37.0186H212.255C211.643 37.0186 211.146 37.2376 210.715 37.6688C210.285 38.0992 210.065 38.5992 210.065 39.2104C210.065 39.8215 210.261 40.3362 210.694 40.7704C211.127 41.2031 211.646 41.3999 212.255 41.3999H215.767V51.0487C215.767 53.0245 216.573 54.8204 217.873 56.12C219.173 57.4204 220.969 58.2276 222.945 58.2276H225.844C226.454 58.2276 226.973 58.0316 227.406 57.5989C227.838 57.1662 228.035 56.6462 228.035 56.0373C228.035 55.4162 227.824 54.8947 227.406 54.4766C226.973 54.0439 226.454 53.8447 225.844 53.8447ZM198.547 32.3853C199.154 32.3853 199.676 32.1892 200.108 31.7565C200.542 31.3223 200.738 30.8061 200.738 30.1942C200.738 29.5869 200.542 29.0646 200.109 28.6334C199.676 28.2007 199.157 28.0039 198.547 28.0039H195.862C193.886 28.0039 192.091 28.8103 190.79 30.1107C189.49 31.4111 188.684 33.2062 188.684 35.1829V37.0186H185.302C184.692 37.0186 184.174 37.2154 183.74 37.6488C183.321 38.0678 183.111 38.5885 183.111 39.2104C183.111 39.82 183.307 40.3385 183.74 40.7727C184.174 41.2039 184.693 41.3999 185.302 41.3999H188.684V55.8221C188.684 56.4945 188.926 57.0383 189.399 57.5116C189.872 57.9848 190.419 58.2276 191.089 58.2276C191.761 58.2276 192.307 57.9848 192.781 57.5116C193.252 57.0413 193.494 56.4899 193.494 55.8221V41.3999H199.19C199.802 41.3999 200.317 41.2046 200.752 40.7704C201.186 40.3369 201.382 39.82 201.382 39.2104C201.382 38.5977 201.186 38.0831 200.752 37.6488C200.318 37.2146 199.8 37.0186 199.19 37.0186H193.494V35.1193C193.494 34.3672 193.802 33.6841 194.296 33.1886C194.81 32.6747 195.5 32.3853 196.229 32.3853H198.547ZM153.607 28.0039C151.947 28.0039 150.602 29.3502 150.602 31.0098C150.602 32.6701 151.947 34.0157 153.607 34.0157C155.268 34.0157 156.614 32.6701 156.614 31.0098C156.614 29.3502 155.268 28.0039 153.607 28.0039ZM156.012 55.8221V39.424C156.012 38.7532 155.77 38.2056 155.298 37.7331C154.826 37.2621 154.277 37.0186 153.607 37.0186C152.936 37.0186 152.391 37.2606 151.918 37.7339C151.446 38.2071 151.202 38.7539 151.202 39.424V55.8221C151.202 56.4945 151.445 57.0383 151.918 57.5116C152.391 57.9848 152.936 58.2276 153.607 58.2276C154.277 58.2276 154.826 57.9848 155.298 57.5131C155.775 57.036 156.012 56.4716 156.012 55.8221ZM205.508 28.0039C203.849 28.0039 202.503 29.3502 202.503 31.0098C202.503 32.6701 203.849 34.0157 205.508 34.0157C207.169 34.0157 208.515 32.6701 208.515 31.0098C208.515 29.3502 207.169 28.0039 205.508 28.0039ZM207.914 55.8221V39.424C207.914 38.7532 207.672 38.2056 207.199 37.7331C206.727 37.2621 206.179 37.0186 205.508 37.0186C204.837 37.0186 204.292 37.2606 203.819 37.7339C203.348 38.2071 203.104 38.7539 203.104 39.424V55.8221C203.104 56.4945 203.345 57.0383 203.819 57.5116C204.292 57.9848 204.837 58.2276 205.508 58.2276C206.179 58.2276 206.727 57.9848 207.199 57.5131C207.675 57.036 207.914 56.4716 207.914 55.8221ZM284.202 52.0427C282.992 53.3301 281.462 53.9313 279.705 53.9313C277.913 53.9313 276.373 53.2841 275.142 51.9784C273.929 50.688 273.31 49.1371 273.31 47.3658C273.31 45.6097 273.944 44.0903 275.168 42.8351C276.407 41.5661 277.932 40.9282 279.705 40.9282C281.443 40.9282 282.976 41.4949 284.199 42.7493C285.439 44.0214 285.971 45.6074 285.971 47.3658C285.971 49.1394 285.427 50.7385 284.202 52.0427Z" fill="#482083"/>
<mask id="mask0_3226_121500" style="mask-type:luminance" maskUnits="userSpaceOnUse" x="120" y="48" width="15" height="19">
<path d="M120.195 48.0352H134.703V66.6603H120.195V48.0352Z" fill="white"/>
</mask>
<g mask="url(#mask0_3226_121500)">
<mask id="mask1_3226_121500" style="mask-type:luminance" maskUnits="userSpaceOnUse" x="120" y="48" width="15" height="19">
<path d="M125.152 51.4906C122.069 53.2689 120.305 56.3238 120.305 59.8849V66.6396L131.001 60.4631L131.075 60.4203C133.327 59.1206 134.617 56.8875 134.617 54.2882C134.617 51.6867 133.327 49.4558 131.075 48.1546L131.003 48.1133L125.152 51.4906Z" fill="white"/>
</mask>
<g mask="url(#mask1_3226_121500)">
<path d="M120.305 48.1133V66.6396H134.617V48.1133H120.305Z" fill="url(#paint0_linear_3226_121500)"/>
<path d="M120.305 48.1133V66.6396H134.617V48.1133H120.305Z" fill="url(#paint1_linear_3226_121500)"/>
</g>
</g>
<mask id="mask2_3226_121500" style="mask-type:luminance" maskUnits="userSpaceOnUse" x="109" y="19" width="33" height="42">
<path d="M109.406 19.6055H141.755V60.5807H109.406V19.6055Z" fill="white"/>
</mask>
<g mask="url(#mask2_3226_121500)">
<mask id="mask3_3226_121500" style="mask-type:luminance" maskUnits="userSpaceOnUse" x="109" y="19" width="33" height="42">
<path d="M128.183 26.3601C128.183 30.0905 131.207 33.1148 134.938 33.1148C138.667 33.1148 141.692 30.0905 141.692 26.3601C141.692 22.629 138.667 19.6055 134.938 19.6055C131.207 19.6055 128.183 22.629 128.183 26.3601ZM109.602 30.1648C109.602 33.7237 111.365 36.7786 114.447 38.5584L130.997 48.1129L131.069 48.1543C133.321 49.4555 134.611 51.6863 134.611 54.2879C134.611 56.8565 133.352 59.0667 131.15 60.3732L136.34 57.378C139.769 55.3976 141.724 51.9819 141.692 48.0226C141.661 44.1329 139.717 40.7969 136.342 38.8471L109.602 23.4086V30.1648ZM130.995 60.4628L131.069 60.4199C131.097 60.4046 131.124 60.3885 131.15 60.3732L130.995 60.4628Z" fill="white"/>
</mask>
<g mask="url(#mask3_3226_121500)">
<path d="M109.602 19.6055V60.4628H141.724V19.6055H109.602Z" fill="url(#paint2_linear_3226_121500)"/>
</g>
</g>
<mask id="mask4_3226_121500" style="mask-type:luminance" maskUnits="userSpaceOnUse" x="109" y="19" width="33" height="42">
<path d="M109.406 19.6055H141.755V60.5807H109.406V19.6055Z" fill="white"/>
</mask>
<g mask="url(#mask4_3226_121500)">
<mask id="mask5_3226_121500" style="mask-type:luminance" maskUnits="userSpaceOnUse" x="109" y="19" width="33" height="42">
<path d="M128.183 26.3601C128.183 30.0905 131.207 33.1148 134.938 33.1148C138.667 33.1148 141.692 30.0905 141.692 26.3601C141.692 22.629 138.667 19.6055 134.938 19.6055C131.207 19.6055 128.183 22.629 128.183 26.3601ZM109.602 30.1648C109.602 33.7237 111.365 36.7786 114.447 38.5584L130.997 48.1129L131.069 48.1543C133.321 49.4555 134.611 51.6863 134.611 54.2879C134.611 56.8565 133.352 59.0667 131.15 60.3732L136.34 57.378C139.769 55.3976 141.724 51.9819 141.692 48.0226C141.661 44.1329 139.717 40.7969 136.342 38.8471L109.602 23.4086V30.1648ZM130.995 60.4628L131.069 60.4199C131.097 60.4046 131.123 60.3885 131.15 60.3732L130.995 60.4628Z" fill="white"/>
</mask>
<g mask="url(#mask5_3226_121500)">
<path d="M109.602 19.6055V60.4628H141.724V19.6055H109.602Z" fill="url(#paint3_linear_3226_121500)"/>
</g>
</g>
<defs>
<linearGradient id="paint0_linear_3226_121500" x1="120.305" y1="57.3764" x2="134.617" y2="57.3764" gradientUnits="userSpaceOnUse">
<stop stop-color="#3A86FF"/>
<stop offset="0.0078125" stop-color="#3A86FF"/>
<stop offset="0.015625" stop-color="#3A85FE"/>
<stop offset="0.0234375" stop-color="#3A84FD"/>
<stop offset="0.03125" stop-color="#3A83FC"/>
<stop offset="0.0390625" stop-color="#3A82FB"/>
<stop offset="0.046875" stop-color="#3B82FA"/>
<stop offset="0.0546875" stop-color="#3B81F9"/>
<stop offset="0.0625" stop-color="#3B80F8"/>
<stop offset="0.0703125" stop-color="#3B7FF7"/>
<stop offset="0.078125" stop-color="#3B7EF6"/>
<stop offset="0.0859375" stop-color="#3B7EF5"/>
<stop offset="0.09375" stop-color="#3B7DF4"/>
<stop offset="0.101562" stop-color="#3B7CF3"/>
<stop offset="0.109375" stop-color="#3B7BF2"/>
<stop offset="0.117188" stop-color="#3C7AF1"/>
<stop offset="0.125" stop-color="#3C7AF0"/>
<stop offset="0.132812" stop-color="#3C79EF"/>
<stop offset="0.140625" stop-color="#3C78EE"/>
<stop offset="0.148438" stop-color="#3C77ED"/>
<stop offset="0.15625" stop-color="#3C76EC"/>
<stop offset="0.164062" stop-color="#3C76EB"/>
<stop offset="0.171875" stop-color="#3C75EA"/>
<stop offset="0.179688" stop-color="#3C74E9"/>
<stop offset="0.1875" stop-color="#3D73E8"/>
<stop offset="0.195312" stop-color="#3D72E7"/>
<stop offset="0.203125" stop-color="#3D72E6"/>
<stop offset="0.210938" stop-color="#3D71E6"/>
<stop offset="0.21875" stop-color="#3D70E5"/>
<stop offset="0.226562" stop-color="#3D6FE4"/>
<stop offset="0.234375" stop-color="#3D6EE3"/>
<stop offset="0.242188" stop-color="#3D6EE2"/>
<stop offset="0.25" stop-color="#3D6DE1"/>
<stop offset="0.257812" stop-color="#3E6CE0"/>
<stop offset="0.265625" stop-color="#3E6BDF"/>
<stop offset="0.273437" stop-color="#3E6BDE"/>
<stop offset="0.28125" stop-color="#3E6ADD"/>
<stop offset="0.289063" stop-color="#3E69DC"/>
<stop offset="0.296875" stop-color="#3E68DB"/>
<stop offset="0.304688" stop-color="#3E67DA"/>
<stop offset="0.3125" stop-color="#3E67D9"/>
<stop offset="0.320312" stop-color="#3E66D8"/>
<stop offset="0.328125" stop-color="#3F65D7"/>
<stop offset="0.335937" stop-color="#3F64D6"/>
<stop offset="0.34375" stop-color="#3F63D5"/>
<stop offset="0.351563" stop-color="#3F63D4"/>
<stop offset="0.359375" stop-color="#3F62D3"/>
<stop offset="0.367188" stop-color="#3F61D2"/>
<stop offset="0.375" stop-color="#3F60D1"/>
<stop offset="0.382812" stop-color="#3F5FD0"/>
<stop offset="0.390625" stop-color="#3F5FCF"/>
<stop offset="0.398437" stop-color="#405ECE"/>
<stop offset="0.40625" stop-color="#405DCE"/>
<stop offset="0.414063" stop-color="#405CCD"/>
<stop offset="0.421875" stop-color="#405BCC"/>
<stop offset="0.429688" stop-color="#405BCB"/>
<stop offset="0.4375" stop-color="#405ACA"/>
<stop offset="0.445312" stop-color="#4059C9"/>
<stop offset="0.453125" stop-color="#4058C8"/>
<stop offset="0.460937" stop-color="#4057C7"/>
<stop offset="0.46875" stop-color="#4157C6"/>
<stop offset="0.476563" stop-color="#4156C5"/>
<stop offset="0.484375" stop-color="#4155C4"/>
<stop offset="0.492188" stop-color="#4154C3"/>
<stop offset="0.5" stop-color="#4153C2"/>
<stop offset="0.507812" stop-color="#4153C1"/>
<stop offset="0.515625" stop-color="#4152C0"/>
<stop offset="0.523438" stop-color="#4151BF"/>
<stop offset="0.53125" stop-color="#4150BE"/>
<stop offset="0.539062" stop-color="#414FBD"/>
<stop offset="0.546875" stop-color="#424FBC"/>
<stop offset="0.554687" stop-color="#424EBB"/>
<stop offset="0.5625" stop-color="#424DBA"/>
<stop offset="0.570313" stop-color="#424CB9"/>
<stop offset="0.578125" stop-color="#424BB8"/>
<stop offset="0.585938" stop-color="#424BB7"/>
<stop offset="0.59375" stop-color="#424AB6"/>
<stop offset="0.601562" stop-color="#4249B5"/>
<stop offset="0.609375" stop-color="#4248B5"/>
<stop offset="0.617188" stop-color="#4347B4"/>
<stop offset="0.625" stop-color="#4347B3"/>
<stop offset="0.632812" stop-color="#4346B2"/>
<stop offset="0.640625" stop-color="#4345B1"/>
<stop offset="0.648438" stop-color="#4344B0"/>
<stop offset="0.65625" stop-color="#4343AF"/>
<stop offset="0.664062" stop-color="#4343AE"/>
<stop offset="0.671875" stop-color="#4342AD"/>
<stop offset="0.679687" stop-color="#4341AC"/>
<stop offset="0.6875" stop-color="#4440AB"/>
<stop offset="0.695313" stop-color="#443FAA"/>
<stop offset="0.703125" stop-color="#443FA9"/>
<stop offset="0.710938" stop-color="#443EA8"/>
<stop offset="0.71875" stop-color="#443DA7"/>
<stop offset="0.726562" stop-color="#443CA6"/>
<stop offset="0.734375" stop-color="#443BA5"/>
<stop offset="0.742188" stop-color="#443BA4"/>
<stop offset="0.75" stop-color="#443AA3"/>
<stop offset="0.757812" stop-color="#4539A2"/>
<stop offset="0.765625" stop-color="#4538A1"/>
<stop offset="0.773438" stop-color="#4538A0"/>
<stop offset="0.78125" stop-color="#45379F"/>
<stop offset="0.789062" stop-color="#45369E"/>
<stop offset="0.796875" stop-color="#45359D"/>
<stop offset="0.804687" stop-color="#45349C"/>
<stop offset="0.8125" stop-color="#45349C"/>
<stop offset="0.820313" stop-color="#45339B"/>
<stop offset="0.828125" stop-color="#46329A"/>
<stop offset="0.835938" stop-color="#463199"/>
<stop offset="0.84375" stop-color="#463098"/>
<stop offset="0.851562" stop-color="#463097"/>
<stop offset="0.859375" stop-color="#462F96"/>
<stop offset="0.867188" stop-color="#462E95"/>
<stop offset="0.875" stop-color="#462D94"/>
<stop offset="0.882812" stop-color="#462C93"/>
<stop offset="0.890625" stop-color="#462C92"/>
<stop offset="0.898438" stop-color="#472B91"/>
<stop offset="0.90625" stop-color="#472A90"/>
<stop offset="0.914062" stop-color="#47298F"/>
<stop offset="0.921875" stop-color="#47288E"/>
<stop offset="0.929687" stop-color="#47288D"/>
<stop offset="0.9375" stop-color="#47278C"/>
<stop offset="0.945313" stop-color="#47268B"/>
<stop offset="0.953125" stop-color="#47258A"/>
<stop offset="0.960938" stop-color="#472489"/>
<stop offset="0.96875" stop-color="#482488"/>
<stop offset="0.976562" stop-color="#482387"/>
<stop offset="0.984375" stop-color="#482286"/>
<stop offset="0.992188" stop-color="#482185"/>
<stop offset="1" stop-color="#482084"/>
</linearGradient>
<linearGradient id="paint1_linear_3226_121500" x1="120.305" y1="57.3764" x2="134.617" y2="57.3764" gradientUnits="userSpaceOnUse">
<stop stop-color="#3A86FF"/>
<stop offset="0.0078125" stop-color="#3A86FF"/>
<stop offset="0.015625" stop-color="#3A85FE"/>
<stop offset="0.0234375" stop-color="#3A84FD"/>
<stop offset="0.03125" stop-color="#3A83FC"/>
<stop offset="0.0390625" stop-color="#3A82FB"/>
<stop offset="0.046875" stop-color="#3B82FA"/>
<stop offset="0.0546875" stop-color="#3B81F9"/>
<stop offset="0.0625" stop-color="#3B80F8"/>
<stop offset="0.0703125" stop-color="#3B7FF7"/>
<stop offset="0.078125" stop-color="#3B7EF6"/>
<stop offset="0.0859375" stop-color="#3B7EF5"/>
<stop offset="0.09375" stop-color="#3B7DF4"/>
<stop offset="0.101562" stop-color="#3B7CF3"/>
<stop offset="0.109375" stop-color="#3B7BF2"/>
<stop offset="0.117188" stop-color="#3C7AF1"/>
<stop offset="0.125" stop-color="#3C7AF0"/>
<stop offset="0.132812" stop-color="#3C79EF"/>
<stop offset="0.140625" stop-color="#3C78EE"/>
<stop offset="0.148438" stop-color="#3C77ED"/>
<stop offset="0.15625" stop-color="#3C76EC"/>
<stop offset="0.164062" stop-color="#3C76EB"/>
<stop offset="0.171875" stop-color="#3C75EA"/>
<stop offset="0.179688" stop-color="#3C74E9"/>
<stop offset="0.1875" stop-color="#3D73E8"/>
<stop offset="0.195312" stop-color="#3D72E7"/>
<stop offset="0.203125" stop-color="#3D72E6"/>
<stop offset="0.210938" stop-color="#3D71E6"/>
<stop offset="0.21875" stop-color="#3D70E5"/>
<stop offset="0.226562" stop-color="#3D6FE4"/>
<stop offset="0.234375" stop-color="#3D6EE3"/>
<stop offset="0.242188" stop-color="#3D6EE2"/>
<stop offset="0.25" stop-color="#3D6DE1"/>
<stop offset="0.257812" stop-color="#3E6CE0"/>
<stop offset="0.265625" stop-color="#3E6BDF"/>
<stop offset="0.273437" stop-color="#3E6BDE"/>
<stop offset="0.28125" stop-color="#3E6ADD"/>
<stop offset="0.289063" stop-color="#3E69DC"/>
<stop offset="0.296875" stop-color="#3E68DB"/>
<stop offset="0.304688" stop-color="#3E67DA"/>
<stop offset="0.3125" stop-color="#3E67D9"/>
<stop offset="0.320312" stop-color="#3E66D8"/>
<stop offset="0.328125" stop-color="#3F65D7"/>
<stop offset="0.335937" stop-color="#3F64D6"/>
<stop offset="0.34375" stop-color="#3F63D5"/>
<stop offset="0.351563" stop-color="#3F63D4"/>
<stop offset="0.359375" stop-color="#3F62D3"/>
<stop offset="0.367188" stop-color="#3F61D2"/>
<stop offset="0.375" stop-color="#3F60D1"/>
<stop offset="0.382812" stop-color="#3F5FD0"/>
<stop offset="0.390625" stop-color="#3F5FCF"/>
<stop offset="0.398437" stop-color="#405ECE"/>
<stop offset="0.40625" stop-color="#405DCE"/>
<stop offset="0.414063" stop-color="#405CCD"/>
<stop offset="0.421875" stop-color="#405BCC"/>
<stop offset="0.429688" stop-color="#405BCB"/>
<stop offset="0.4375" stop-color="#405ACA"/>
<stop offset="0.445312" stop-color="#4059C9"/>
<stop offset="0.453125" stop-color="#4058C8"/>
<stop offset="0.460937" stop-color="#4057C7"/>
<stop offset="0.46875" stop-color="#4157C6"/>
<stop offset="0.476563" stop-color="#4156C5"/>
<stop offset="0.484375" stop-color="#4155C4"/>
<stop offset="0.492188" stop-color="#4154C3"/>
<stop offset="0.5" stop-color="#4153C2"/>
<stop offset="0.507812" stop-color="#4153C1"/>
<stop offset="0.515625" stop-color="#4152C0"/>
<stop offset="0.523438" stop-color="#4151BF"/>
<stop offset="0.53125" stop-color="#4150BE"/>
<stop offset="0.539062" stop-color="#414FBD"/>
<stop offset="0.546875" stop-color="#424FBC"/>
<stop offset="0.554687" stop-color="#424EBB"/>
<stop offset="0.5625" stop-color="#424DBA"/>
<stop offset="0.570313" stop-color="#424CB9"/>
<stop offset="0.578125" stop-color="#424BB8"/>
<stop offset="0.585938" stop-color="#424BB7"/>
<stop offset="0.59375" stop-color="#424AB6"/>
<stop offset="0.601562" stop-color="#4249B5"/>
<stop offset="0.609375" stop-color="#4248B5"/>
<stop offset="0.617188" stop-color="#4347B4"/>
<stop offset="0.625" stop-color="#4347B3"/>
<stop offset="0.632812" stop-color="#4346B2"/>
<stop offset="0.640625" stop-color="#4345B1"/>
<stop offset="0.648438" stop-color="#4344B0"/>
<stop offset="0.65625" stop-color="#4343AF"/>
<stop offset="0.664062" stop-color="#4343AE"/>
<stop offset="0.671875" stop-color="#4342AD"/>
<stop offset="0.679687" stop-color="#4341AC"/>
<stop offset="0.6875" stop-color="#4440AB"/>
<stop offset="0.695313" stop-color="#443FAA"/>
<stop offset="0.703125" stop-color="#443FA9"/>
<stop offset="0.710938" stop-color="#443EA8"/>
<stop offset="0.71875" stop-color="#443DA7"/>
<stop offset="0.726562" stop-color="#443CA6"/>
<stop offset="0.734375" stop-color="#443BA5"/>
<stop offset="0.742188" stop-color="#443BA4"/>
<stop offset="0.75" stop-color="#443AA3"/>
<stop offset="0.757812" stop-color="#4539A2"/>
<stop offset="0.765625" stop-color="#4538A1"/>
<stop offset="0.773438" stop-color="#4538A0"/>
<stop offset="0.78125" stop-color="#45379F"/>
<stop offset="0.789062" stop-color="#45369E"/>
<stop offset="0.796875" stop-color="#45359D"/>
<stop offset="0.804687" stop-color="#45349C"/>
<stop offset="0.8125" stop-color="#45349C"/>
<stop offset="0.820313" stop-color="#45339B"/>
<stop offset="0.828125" stop-color="#46329A"/>
<stop offset="0.835938" stop-color="#463199"/>
<stop offset="0.84375" stop-color="#463098"/>
<stop offset="0.851562" stop-color="#463097"/>
<stop offset="0.859375" stop-color="#462F96"/>
<stop offset="0.867188" stop-color="#462E95"/>
<stop offset="0.875" stop-color="#462D94"/>
<stop offset="0.882812" stop-color="#462C93"/>
<stop offset="0.890625" stop-color="#462C92"/>
<stop offset="0.898438" stop-color="#472B91"/>
<stop offset="0.90625" stop-color="#472A90"/>
<stop offset="0.914062" stop-color="#47298F"/>
<stop offset="0.921875" stop-color="#47288E"/>
<stop offset="0.929687" stop-color="#47288D"/>
<stop offset="0.9375" stop-color="#47278C"/>
<stop offset="0.945313" stop-color="#47268B"/>
<stop offset="0.953125" stop-color="#47258A"/>
<stop offset="0.960938" stop-color="#472489"/>
<stop offset="0.96875" stop-color="#482488"/>
<stop offset="0.976562" stop-color="#482387"/>
<stop offset="0.984375" stop-color="#482286"/>
<stop offset="0.992188" stop-color="#482185"/>
<stop offset="1" stop-color="#482084"/>
</linearGradient>
<linearGradient id="paint2_linear_3226_121500" x1="109.602" y1="40.0338" x2="141.723" y2="40.0338" gradientUnits="userSpaceOnUse">
<stop stop-color="#FC1777"/>
<stop offset="0.0078125" stop-color="#FC1777"/>
<stop offset="0.015625" stop-color="#FC1876"/>
<stop offset="0.0234375" stop-color="#FC1975"/>
<stop offset="0.03125" stop-color="#FC1A74"/>
<stop offset="0.0390625" stop-color="#FC1B73"/>
<stop offset="0.046875" stop-color="#FC1C72"/>
<stop offset="0.0546875" stop-color="#FC1C71"/>
<stop offset="0.0625" stop-color="#FC1D70"/>
<stop offset="0.0703125" stop-color="#FC1E6F"/>
<stop offset="0.078125" stop-color="#FC1F6E"/>
<stop offset="0.0859375" stop-color="#FC206D"/>
<stop offset="0.09375" stop-color="#FC216C"/>
<stop offset="0.101562" stop-color="#FC216B"/>
<stop offset="0.109375" stop-color="#FC226A"/>
<stop offset="0.117187" stop-color="#FC236A"/>
<stop offset="0.125" stop-color="#FC2469"/>
<stop offset="0.132812" stop-color="#FC2568"/>
<stop offset="0.140625" stop-color="#FC2667"/>
<stop offset="0.148437" stop-color="#FC2666"/>
<stop offset="0.15625" stop-color="#FC2765"/>
<stop offset="0.164062" stop-color="#FC2864"/>
<stop offset="0.171875" stop-color="#FD2963"/>
<stop offset="0.179687" stop-color="#FD2A62"/>
<stop offset="0.1875" stop-color="#FD2A61"/>
<stop offset="0.195312" stop-color="#FD2B60"/>
<stop offset="0.203125" stop-color="#FD2C5F"/>
<stop offset="0.210937" stop-color="#FD2D5E"/>
<stop offset="0.21875" stop-color="#FD2E5D"/>
<stop offset="0.226562" stop-color="#FD2F5C"/>
<stop offset="0.234375" stop-color="#FD2F5C"/>
<stop offset="0.242187" stop-color="#FD305B"/>
<stop offset="0.25" stop-color="#FD315A"/>
<stop offset="0.257812" stop-color="#FD3259"/>
<stop offset="0.265625" stop-color="#FD3358"/>
<stop offset="0.273437" stop-color="#FD3457"/>
<stop offset="0.28125" stop-color="#FD3456"/>
<stop offset="0.289062" stop-color="#FD3555"/>
<stop offset="0.296875" stop-color="#FD3654"/>
<stop offset="0.304687" stop-color="#FD3753"/>
<stop offset="0.3125" stop-color="#FD3852"/>
<stop offset="0.320312" stop-color="#FD3951"/>
<stop offset="0.328125" stop-color="#FD3950"/>
<stop offset="0.335937" stop-color="#FD3A4F"/>
<stop offset="0.34375" stop-color="#FD3B4F"/>
<stop offset="0.351562" stop-color="#FD3C4E"/>
<stop offset="0.359375" stop-color="#FD3D4D"/>
<stop offset="0.367187" stop-color="#FD3E4C"/>
<stop offset="0.375" stop-color="#FD3E4B"/>
<stop offset="0.382812" stop-color="#FD3F4A"/>
<stop offset="0.390625" stop-color="#FD4049"/>
<stop offset="0.398438" stop-color="#FD4148"/>
<stop offset="0.40625" stop-color="#FD4247"/>
<stop offset="0.414062" stop-color="#FD4346"/>
<stop offset="0.421875" stop-color="#FD4345"/>
<stop offset="0.429687" stop-color="#FD4444"/>
<stop offset="0.4375" stop-color="#FD4543"/>
<stop offset="0.445312" stop-color="#FD4642"/>
<stop offset="0.453125" stop-color="#FD4741"/>
<stop offset="0.460937" stop-color="#FD4741"/>
<stop offset="0.46875" stop-color="#FD4840"/>
<stop offset="0.476562" stop-color="#FD493F"/>
<stop offset="0.484375" stop-color="#FD4A3E"/>
<stop offset="0.492187" stop-color="#FD4B3D"/>
<stop offset="0.5" stop-color="#FD4C3C"/>
<stop offset="0.507812" stop-color="#FE4C3B"/>
<stop offset="0.515625" stop-color="#FE4D3A"/>
<stop offset="0.523437" stop-color="#FE4E39"/>
<stop offset="0.53125" stop-color="#FE4F38"/>
<stop offset="0.539062" stop-color="#FE5037"/>
<stop offset="0.546875" stop-color="#FE5136"/>
<stop offset="0.554687" stop-color="#FE5135"/>
<stop offset="0.5625" stop-color="#FE5234"/>
<stop offset="0.570312" stop-color="#FE5334"/>
<stop offset="0.578125" stop-color="#FE5433"/>
<stop offset="0.585937" stop-color="#FE5532"/>
<stop offset="0.59375" stop-color="#FE5631"/>
<stop offset="0.601562" stop-color="#FE5630"/>
<stop offset="0.609375" stop-color="#FE572F"/>
<stop offset="0.617188" stop-color="#FE582E"/>
<stop offset="0.625" stop-color="#FE592D"/>
<stop offset="0.632812" stop-color="#FE5A2C"/>
<stop offset="0.640625" stop-color="#FE5B2B"/>
<stop offset="0.648437" stop-color="#FE5B2A"/>
<stop offset="0.65625" stop-color="#FE5C29"/>
<stop offset="0.664062" stop-color="#FE5D28"/>
<stop offset="0.671875" stop-color="#FE5E27"/>
<stop offset="0.679688" stop-color="#FE5F27"/>
<stop offset="0.6875" stop-color="#FE6026"/>
<stop offset="0.695312" stop-color="#FE6025"/>
<stop offset="0.703125" stop-color="#FE6124"/>
<stop offset="0.710937" stop-color="#FE6223"/>
<stop offset="0.71875" stop-color="#FE6322"/>
<stop offset="0.726562" stop-color="#FE6421"/>
<stop offset="0.734375" stop-color="#FE6520"/>
<stop offset="0.742187" stop-color="#FE651F"/>
<stop offset="0.75" stop-color="#FE661E"/>
<stop offset="0.757812" stop-color="#FE671D"/>
<stop offset="0.765625" stop-color="#FE681C"/>
<stop offset="0.773437" stop-color="#FE691B"/>
<stop offset="0.78125" stop-color="#FE691A"/>
<stop offset="0.789062" stop-color="#FE6A19"/>
<stop offset="0.796875" stop-color="#FE6B19"/>
<stop offset="0.804687" stop-color="#FE6C18"/>
<stop offset="0.8125" stop-color="#FE6D17"/>
<stop offset="0.820312" stop-color="#FE6E16"/>
<stop offset="0.828125" stop-color="#FE6E15"/>
<stop offset="0.835937" stop-color="#FE6F14"/>
<stop offset="0.84375" stop-color="#FF7013"/>
<stop offset="0.851562" stop-color="#FF7112"/>
<stop offset="0.859375" stop-color="#FF7211"/>
<stop offset="0.867187" stop-color="#FF7310"/>
<stop offset="0.875" stop-color="#FF730F"/>
<stop offset="0.882812" stop-color="#FF740E"/>
<stop offset="0.890625" stop-color="#FF750D"/>
<stop offset="0.898437" stop-color="#FF760C"/>
<stop offset="0.90625" stop-color="#FF770C"/>
<stop offset="0.914062" stop-color="#FF780B"/>
<stop offset="0.921875" stop-color="#FF780A"/>
<stop offset="0.929687" stop-color="#FF7909"/>
<stop offset="0.9375" stop-color="#FF7A08"/>
<stop offset="0.945312" stop-color="#FF7B07"/>
<stop offset="0.953125" stop-color="#FF7C06"/>
<stop offset="0.960937" stop-color="#FF7D05"/>
<stop offset="0.96875" stop-color="#FF7D04"/>
<stop offset="0.976562" stop-color="#FF7E03"/>
<stop offset="0.984375" stop-color="#FF7F02"/>
<stop offset="0.992187" stop-color="#FF8001"/>
<stop offset="1" stop-color="#FF8100"/>
</linearGradient>
<linearGradient id="paint3_linear_3226_121500" x1="109.602" y1="40.0338" x2="141.723" y2="40.0338" gradientUnits="userSpaceOnUse">
<stop stop-color="#FC1777"/>
<stop offset="0.0078125" stop-color="#FC1777"/>
<stop offset="0.015625" stop-color="#FC1876"/>
<stop offset="0.0234375" stop-color="#FC1975"/>
<stop offset="0.03125" stop-color="#FC1A74"/>
<stop offset="0.0390625" stop-color="#FC1B73"/>
<stop offset="0.046875" stop-color="#FC1C72"/>
<stop offset="0.0546875" stop-color="#FC1C71"/>
<stop offset="0.0625" stop-color="#FC1D70"/>
<stop offset="0.0703125" stop-color="#FC1E6F"/>
<stop offset="0.078125" stop-color="#FC1F6E"/>
<stop offset="0.0859375" stop-color="#FC206D"/>
<stop offset="0.09375" stop-color="#FC216C"/>
<stop offset="0.101563" stop-color="#FC216B"/>
<stop offset="0.109375" stop-color="#FC226A"/>
<stop offset="0.117188" stop-color="#FC236A"/>
<stop offset="0.125" stop-color="#FC2469"/>
<stop offset="0.132813" stop-color="#FC2568"/>
<stop offset="0.140625" stop-color="#FC2567"/>
<stop offset="0.148438" stop-color="#FC2666"/>
<stop offset="0.15625" stop-color="#FC2765"/>
<stop offset="0.164063" stop-color="#FC2864"/>
<stop offset="0.171875" stop-color="#FD2963"/>
<stop offset="0.179688" stop-color="#FD2A62"/>
<stop offset="0.1875" stop-color="#FD2A61"/>
<stop offset="0.195313" stop-color="#FD2B60"/>
<stop offset="0.203125" stop-color="#FD2C5F"/>
<stop offset="0.210938" stop-color="#FD2D5E"/>
<stop offset="0.21875" stop-color="#FD2E5D"/>
<stop offset="0.226563" stop-color="#FD2F5D"/>
<stop offset="0.234375" stop-color="#FD2F5C"/>
<stop offset="0.242188" stop-color="#FD305B"/>
<stop offset="0.25" stop-color="#FD315A"/>
<stop offset="0.257813" stop-color="#FD3259"/>
<stop offset="0.265625" stop-color="#FD3358"/>
<stop offset="0.273438" stop-color="#FD3457"/>
<stop offset="0.28125" stop-color="#FD3456"/>
<stop offset="0.289062" stop-color="#FD3555"/>
<stop offset="0.296875" stop-color="#FD3654"/>
<stop offset="0.304688" stop-color="#FD3753"/>
<stop offset="0.3125" stop-color="#FD3852"/>
<stop offset="0.320312" stop-color="#FD3951"/>
<stop offset="0.328125" stop-color="#FD3950"/>
<stop offset="0.335938" stop-color="#FD3A4F"/>
<stop offset="0.34375" stop-color="#FD3B4F"/>
<stop offset="0.351562" stop-color="#FD3C4E"/>
<stop offset="0.359375" stop-color="#FD3D4D"/>
<stop offset="0.367188" stop-color="#FD3E4C"/>
<stop offset="0.375" stop-color="#FD3E4B"/>
<stop offset="0.382813" stop-color="#FD3F4A"/>
<stop offset="0.390625" stop-color="#FD4049"/>
<stop offset="0.398438" stop-color="#FD4148"/>
<stop offset="0.40625" stop-color="#FD4247"/>
<stop offset="0.414063" stop-color="#FD4246"/>
<stop offset="0.421875" stop-color="#FD4345"/>
<stop offset="0.429688" stop-color="#FD4444"/>
<stop offset="0.4375" stop-color="#FD4543"/>
<stop offset="0.445313" stop-color="#FD4642"/>
<stop offset="0.453125" stop-color="#FD4742"/>
<stop offset="0.460938" stop-color="#FD4741"/>
<stop offset="0.46875" stop-color="#FD4840"/>
<stop offset="0.476563" stop-color="#FD493F"/>
<stop offset="0.484375" stop-color="#FD4A3E"/>
<stop offset="0.492188" stop-color="#FD4B3D"/>
<stop offset="0.5" stop-color="#FD4C3C"/>
<stop offset="0.507813" stop-color="#FE4C3B"/>
<stop offset="0.515625" stop-color="#FE4D3A"/>
<stop offset="0.523438" stop-color="#FE4E39"/>
<stop offset="0.53125" stop-color="#FE4F38"/>
<stop offset="0.539063" stop-color="#FE5037"/>
<stop offset="0.546875" stop-color="#FE5136"/>
<stop offset="0.554688" stop-color="#FE5135"/>
<stop offset="0.5625" stop-color="#FE5235"/>
<stop offset="0.570313" stop-color="#FE5334"/>
<stop offset="0.578125" stop-color="#FE5433"/>
<stop offset="0.585938" stop-color="#FE5532"/>
<stop offset="0.59375" stop-color="#FE5631"/>
<stop offset="0.601563" stop-color="#FE5630"/>
<stop offset="0.609375" stop-color="#FE572F"/>
<stop offset="0.617188" stop-color="#FE582E"/>
<stop offset="0.625" stop-color="#FE592D"/>
<stop offset="0.632813" stop-color="#FE5A2C"/>
<stop offset="0.640625" stop-color="#FE5A2B"/>
<stop offset="0.648438" stop-color="#FE5B2A"/>
<stop offset="0.65625" stop-color="#FE5C29"/>
<stop offset="0.664063" stop-color="#FE5D28"/>
<stop offset="0.671875" stop-color="#FE5E28"/>
<stop offset="0.679688" stop-color="#FE5F27"/>
<stop offset="0.6875" stop-color="#FE5F26"/>
<stop offset="0.695313" stop-color="#FE6025"/>
<stop offset="0.703125" stop-color="#FE6124"/>
<stop offset="0.710938" stop-color="#FE6223"/>
<stop offset="0.71875" stop-color="#FE6322"/>
<stop offset="0.726563" stop-color="#FE6421"/>
<stop offset="0.734375" stop-color="#FE6420"/>
<stop offset="0.742188" stop-color="#FE651F"/>
<stop offset="0.75" stop-color="#FE661E"/>
<stop offset="0.757813" stop-color="#FE671D"/>
<stop offset="0.765625" stop-color="#FE681C"/>
<stop offset="0.773438" stop-color="#FE691B"/>
<stop offset="0.78125" stop-color="#FE691A"/>
<stop offset="0.789063" stop-color="#FE6A1A"/>
<stop offset="0.796875" stop-color="#FE6B19"/>
<stop offset="0.804688" stop-color="#FE6C18"/>
<stop offset="0.8125" stop-color="#FE6D17"/>
<stop offset="0.820312" stop-color="#FE6E16"/>
<stop offset="0.828125" stop-color="#FE6E15"/>
<stop offset="0.835938" stop-color="#FE6F14"/>
<stop offset="0.84375" stop-color="#FF7013"/>
<stop offset="0.851562" stop-color="#FF7112"/>
<stop offset="0.859375" stop-color="#FF7211"/>
<stop offset="0.867188" stop-color="#FF7310"/>
<stop offset="0.875" stop-color="#FF730F"/>
<stop offset="0.882812" stop-color="#FF740E"/>
<stop offset="0.890625" stop-color="#FF750D"/>
<stop offset="0.898438" stop-color="#FF760D"/>
<stop offset="0.90625" stop-color="#FF770C"/>
<stop offset="0.914062" stop-color="#FF770B"/>
<stop offset="0.921875" stop-color="#FF780A"/>
<stop offset="0.929688" stop-color="#FF7909"/>
<stop offset="0.9375" stop-color="#FF7A08"/>
<stop offset="0.945313" stop-color="#FF7B07"/>
<stop offset="0.953125" stop-color="#FF7C06"/>
<stop offset="0.960938" stop-color="#FF7C05"/>
<stop offset="0.96875" stop-color="#FF7D04"/>
<stop offset="0.976563" stop-color="#FF7E03"/>
<stop offset="0.984375" stop-color="#FF7F02"/>
<stop offset="0.992188" stop-color="#FF8001"/>
<stop offset="1" stop-color="#FF8100"/>
</linearGradient>
</defs>
</svg>
