<svg width="28" height="29" viewBox="0 0 28 29" fill="none" xmlns="http://www.w3.org/2000/svg">
<g clip-path="url(#clip0_3327_121632)">
<g filter="url(#filter0_d_3327_121632)">
<mask id="path-1-inside-1_3327_121632" fill="white">
<path fill-rule="evenodd" clip-rule="evenodd" d="M1 -2C-1.20914 -2 -3 -0.209139 -3 2V32H-75C-79.4183 32 -83 35.5817 -83 40V124C-83 128.418 -79.4183 132 -75 132H23C27.4183 132 31 128.418 31 124V32V2C31 -0.209139 29.2091 -2 27 -2H1Z"/>
</mask>
<path fill-rule="evenodd" clip-rule="evenodd" d="M1 -2C-1.20914 -2 -3 -0.209139 -3 2V32H-75C-79.4183 32 -83 35.5817 -83 40V124C-83 128.418 -79.4183 132 -75 132H23C27.4183 132 31 128.418 31 124V32V2C31 -0.209139 29.2091 -2 27 -2H1Z" fill="white"/>
<path d="M-3 32V32.5H-2.5V32H-3ZM-2.5 2C-2.5 0.0670033 -0.932991 -1.5 1 -1.5V-2.5C-1.48528 -2.5 -3.5 -0.485282 -3.5 2H-2.5ZM-2.5 32V2H-3.5V32H-2.5ZM-75 32.5H-3V31.5H-75V32.5ZM-82.5 40C-82.5 35.8579 -79.1421 32.5 -75 32.5V31.5C-79.6944 31.5 -83.5 35.3056 -83.5 40H-82.5ZM-82.5 124V40H-83.5V124H-82.5ZM-75 131.5C-79.1421 131.5 -82.5 128.142 -82.5 124H-83.5C-83.5 128.694 -79.6944 132.5 -75 132.5V131.5ZM23 131.5H-75V132.5H23V131.5ZM30.5 124C30.5 128.142 27.1421 131.5 23 131.5V132.5C27.6944 132.5 31.5 128.694 31.5 124H30.5ZM30.5 32V124H31.5V32H30.5ZM30.5 2V32H31.5V2H30.5ZM27 -1.5C28.933 -1.5 30.5 0.0670037 30.5 2H31.5C31.5 -0.485281 29.4853 -2.5 27 -2.5V-1.5ZM1 -1.5H27V-2.5H1V-1.5Z" fill="black" fill-opacity="0.1" mask="url(#path-1-inside-1_3327_121632)"/>
</g>
<path d="M14 3.125C7.71805 3.125 2.625 8.21805 2.625 14.5C2.625 20.782 7.71805 25.875 14 25.875C20.282 25.875 25.375 20.782 25.375 14.5C25.375 8.21805 20.282 3.125 14 3.125Z" stroke="#4D4D4D" stroke-width="1.5" stroke-miterlimit="10"/>
<path d="M14.0015 3.125C10.8258 3.125 7.83984 8.21805 7.83984 14.5C7.83984 20.782 10.8258 25.875 14.0015 25.875C17.1772 25.875 20.1631 20.782 20.1631 14.5C20.1631 8.21805 17.1772 3.125 14.0015 3.125Z" stroke="#4D4D4D" stroke-width="1.5" stroke-miterlimit="10"/>
<path d="M6.41797 6.91602C8.50922 8.40078 11.1419 9.28617 14.0015 9.28617C16.8611 9.28617 19.4938 8.40078 21.585 6.91602" stroke="#4D4D4D" stroke-width="1.5" stroke-linecap="round" stroke-linejoin="round"/>
<path d="M21.585 22.083C19.4938 20.5983 16.8611 19.7129 14.0015 19.7129C11.1419 19.7129 8.50922 20.5983 6.41797 22.083" stroke="#4D4D4D" stroke-width="1.5" stroke-linecap="round" stroke-linejoin="round"/>
<path d="M14 3.125V25.875" stroke="#4D4D4D" stroke-width="1.5" stroke-miterlimit="10"/>
<path d="M25.375 14.5H2.625" stroke="#4D4D4D" stroke-width="1.5" stroke-miterlimit="10"/>
</g>
<defs>
<filter id="filter0_d_3327_121632" x="-93" y="-8" width="134" height="154" filterUnits="userSpaceOnUse" color-interpolation-filters="sRGB">
<feFlood flood-opacity="0" result="BackgroundImageFix"/>
<feColorMatrix in="SourceAlpha" type="matrix" values="0 0 0 0 0 0 0 0 0 0 0 0 0 0 0 0 0 0 127 0" result="hardAlpha"/>
<feOffset dy="4"/>
<feGaussianBlur stdDeviation="5"/>
<feComposite in2="hardAlpha" operator="out"/>
<feColorMatrix type="matrix" values="0 0 0 0 0 0 0 0 0 0 0 0 0 0 0 0 0 0 0.07 0"/>
<feBlend mode="normal" in2="BackgroundImageFix" result="effect1_dropShadow_3327_121632"/>
<feBlend mode="normal" in="SourceGraphic" in2="effect1_dropShadow_3327_121632" result="shape"/>
</filter>
<clipPath id="clip0_3327_121632">
<rect width="28" height="28" fill="white" transform="translate(0 0.5)"/>
</clipPath>
</defs>
</svg>
