<svg width="48" height="48" viewBox="0 0 48 48" fill="none" xmlns="http://www.w3.org/2000/svg">
<g clip-path="url(#clip0_2512_114857)">
<rect width="48" height="48" rx="4" fill="#F64E60"/>
<g filter="url(#filter0_d_2512_114857)">
<path fill-rule="evenodd" clip-rule="evenodd" d="M39.9113 12.3615V12.3615L39.9183 12.6288L39.9393 12.8966L39.9742 13.1653L40.0227 13.4354L40.0845 13.7074L40.1593 13.9816L40.2466 14.2586L40.3458 14.5387L40.4563 14.8222L40.5771 15.1095L40.7076 15.4008L40.8466 15.6964L40.9929 15.9965L41.1455 16.3011L41.3029 16.6105L41.4635 16.9244L41.6258 17.2428L41.788 17.5656L41.9484 17.8924L42.1048 18.223L42.2554 18.5567L42.398 18.8931L42.5305 19.2315L42.6507 19.5712L42.7565 19.9112L42.8458 20.2508L42.9166 20.5888L42.967 20.9242L42.9953 21.256L43 21.583L42.9798 21.9042L42.9337 22.2185L42.861 22.5248L42.7614 22.8222L42.6346 23.1099L42.4811 23.387L42.3015 23.653L42.0966 23.9075L41.8679 24.15L41.6168 24.3805L41.3452 24.599L41.0551 24.8056L40.7487 25.0008L40.4284 25.1851L40.0966 25.3592L39.7558 25.5238L39.4086 25.68L39.0574 25.8287L38.7048 25.9712L38.3531 26.1086L38.0048 26.2423L37.6619 26.3736L37.3267 26.504L37.001 26.6349L36.6868 26.768L36.3859 26.9046L36.0999 27.0465L35.8304 27.1953L35.579 27.3526L35.347 27.5204L35.1358 27.7004L34.947 27.8945L34.7818 28.1049L34.6407 28.333L34.5215 28.5783L34.4219 28.8402L34.3396 29.118L34.2725 29.4107L34.2185 29.7176L34.1753 30.0378L34.1411 30.3702L34.1138 30.7137L34.0913 31.0671L34.0716 31.4289L34.0527 31.7978L34.0326 32.172L34.0093 32.55L33.9808 32.9297L33.9453 33.3094L33.9009 33.687L33.8458 34.0603L33.7785 34.4273L33.6974 34.7858L33.6012 35.1337L33.4887 35.469L33.359 35.7898L33.2113 36.0941L33.045 36.3803L32.86 36.647L32.6562 36.8929L32.4339 37.1172L32.1935 37.319L31.9357 37.498L31.6614 37.6541L31.3717 37.7874L31.0678 37.8985L30.7512 37.9879L30.4233 38.0566L30.0855 38.106L29.7396 38.1371L29.3871 38.1517L29.0294 38.1513L28.6682 38.1377L28.3049 38.1127L27.9408 38.078L27.5771 38.0355L27.2151 37.987L26.8557 37.9343L26.4998 37.8791L26.1484 37.823L25.8019 37.7677L25.4611 37.7145L25.1263 37.6649L24.7978 37.6202L24.4759 37.5815L24.1608 37.55L23.8526 37.5267L23.5511 37.5124L23.2563 37.508L22.9681 37.5142L22.6863 37.5317L22.4105 37.5609L22.1406 37.6024L21.876 37.6566L21.6165 37.7238L21.3616 37.8042L21.1109 37.898L20.8639 38.0052L20.6202 38.1259L20.3791 38.26L20.1402 38.4073L19.903 38.5675L19.6669 38.7403L19.4313 38.9252L19.1957 39.1216L18.9596 39.329L18.7225 39.5463L18.4837 39.7728L18.2427 40.0073L17.9992 40.2487L17.7525 40.4957L17.5024 40.7466L17.2483 41L16.99 41.2541L16.7272 41.5069L16.4595 41.7566L16.187 42.0009L15.9094 42.2377L15.6268 42.4647L15.3393 42.6797L15.047 42.8803L14.7502 43.0643L14.4493 43.2295L14.1446 43.3739L13.8368 43.4955L13.5265 43.5926L13.2142 43.6638L12.9008 43.7079L12.5869 43.7239L12.2735 43.7113L11.9612 43.67L11.651 43.6001L11.3435 43.5021L11.0395 43.3769L10.7396 43.2257L10.4445 43.0501L10.1546 42.8519L9.87029 42.6332L9.59197 42.3963L9.31977 42.1436L9.05378 41.8776L8.79395 41.6011L8.54014 41.3168L8.29208 41.0274L8.0494 40.7356L7.81165 40.444L7.57826 40.1552L7.34857 39.8718L7.12187 39.5961L6.89733 39.3305L6.67406 39.0772L6.4511 38.8383L6.22743 38.6159L6.00191 38.412L5.77338 38.2286L5.54056 38.0675L5.3021 37.9307L5.05652 37.8202L4.8023 37.7377L4.53855 37.683L4.26513 37.6538L3.98201 37.6474L3.68922 37.6617L3.38686 37.6942L3.07511 37.7428L2.75425 37.8051L2.42466 37.8789L2.0868 37.9618L1.74128 38.0517L1.38881 38.146L1.0302 38.2424L0.666416 38.3386L0.298518 38.432L-0.0723067 38.5203L-0.444769 38.6011L-0.817479 38.6719L-1.18897 38.7306L-1.5577 38.7749L-1.92209 38.8029L-2.28056 38.8126L-2.63151 38.8023L-2.9734 38.7707L-3.30476 38.7165L-3.62419 38.6389L-3.93045 38.5372L-4.22242 38.4112L-4.49919 38.2609L-4.76 38.0866L-5.00434 37.889L-5.23187 37.6689L-5.44251 37.4276L-5.63637 37.1664L-5.81376 36.8869L-5.97522 36.591L-6.12143 36.2803L-6.25325 35.9569L-6.37168 35.6227L-6.47784 35.2797L-6.57293 34.9299L-6.65822 34.5751L-6.73506 34.2172L-6.80478 33.858L-6.86877 33.4989L-6.92838 33.1415L-6.98496 32.7872L-7.03981 32.4372L-7.0942 32.0925L-7.14936 31.7541L-7.20643 31.4228L-7.26653 31.0993L-7.3307 30.7841L-7.39991 30.4777L-7.47507 30.1804L-7.55703 29.8924L-7.64657 29.6139L-7.74439 29.345L-7.85116 29.0855L-7.96747 28.8354L-8.09383 28.5946L-8.2307 28.3627L-8.3785 28.1396L-8.53754 27.9248L-8.7081 27.718L-8.89037 27.5187L-9.08448 27.3265L-9.29049 27.1408L-9.50835 26.961L-9.73797 26.7866L-9.97912 26.617L-10.2315 26.4514L-10.4947 26.2891L-10.7682 26.1294L-11.0514 25.9715L-11.3435 25.8146L-11.6436 25.6579L-11.9507 25.5006L-12.2636 25.3417L-12.5809 25.1805L-12.9012 25.0159L-13.223 24.8473L-13.5443 24.6737L-13.8635 24.4942L-14.1784 24.3082L-14.487 24.1149L-14.7872 23.9135L-15.0766 23.7035L-15.3532 23.4844L-15.6145 23.2557L-15.8586 23.0173L-16.0833 22.7688L-16.2867 22.5102L-16.4671 22.2418L-16.6228 21.9635L-16.7528 21.6759L-16.8559 21.3795L-16.9315 21.0748L-16.9793 20.7627L-16.9994 20.4438L-16.9921 20.1193L-16.9581 19.79L-16.8985 19.4569L-16.8148 19.1212L-16.7085 18.7838L-16.5816 18.4457L-16.4364 18.108L-16.275 17.7716L-16.0999 17.4372L-15.9139 17.1057L-15.7194 16.7777L-15.5191 16.4538L-15.3158 16.1344L-15.1121 15.8198L-14.9107 15.5103L-14.714 15.2061L-14.5245 14.907L-14.3449 14.6131L-14.1773 14.3241L-14.0241 14.0398L-13.8876 13.7597L-13.77 13.4835L-13.6735 13.2105L-13.6003 12.9401L-13.5528 12.6715L-13.5332 12.4041L-13.5434 12.1367L-13.5823 11.8687L-13.6475 11.5989L-13.7368 11.3268L-13.8479 11.0517L-13.9787 10.7729L-14.1268 10.49L-14.29 10.2025L-14.4661 9.91017L-14.6527 9.61277L-14.8474 9.31016L-15.0476 9.00234L-15.2509 8.68938L-15.4546 8.37147L-15.6561 8.04893L-15.8527 7.72217L-16.0417 7.39171L-16.2206 7.05818L-16.3866 6.72231L-16.5373 6.38491L-16.6702 6.04688L-16.7833 5.70916L-16.8744 5.37278L-16.9418 5.03876L-16.9841 4.70815L-17 4.38197L-16.9887 4.06122L-16.9498 3.74683L-16.883 3.43969L-16.7886 3.14055L-16.6671 2.85009L-16.5194 2.56884L-16.3467 2.29721L-16.1505 2.03548L-15.9324 1.78379L-15.6943 1.54214L-15.4382 1.31039L-15.1662 1.08829L-14.8807 0.875445L-14.5837 0.671392L-14.2775 0.475551L-13.9644 0.287265L-13.6463 0.105818L-13.3255 -0.0695681L-13.0036 -0.239707L-12.6827 -0.405445L-12.3642 -0.567644L-12.0498 -0.727176L-11.7407 -0.884912L-11.4383 -1.04172L-11.1435 -1.19844L-10.8574 -1.35592L-10.5808 -1.51496L-10.3142 -1.67634L-10.0583 -1.84082L-9.81354 -2.00912L-9.58023 -2.18192L-9.3586 -2.35988L-9.14881 -2.54362L-8.95091 -2.73371L-8.76488 -2.93068L-8.59061 -3.13504L-8.42792 -3.34725L-8.27658 -3.56769L-8.13626 -3.79674L-8.0066 -4.0347L-7.88715 -4.28182L-7.7774 -4.53828L-7.67679 -4.80423L-7.58469 -5.07969L-7.5004 -5.36465L-7.42316 -5.65901L-7.35215 -5.96255L-7.28648 -6.27499L-7.2252 -6.59591L-7.16727 -6.9248L-7.11163 -7.26101L-7.05713 -7.60379L-7.00256 -7.95222L-6.94667 -8.30529L-6.88817 -8.66181L-6.82572 -9.02048L-6.75797 -9.37985L-6.68355 -9.73835L-6.6011 -10.0943L-6.50927 -10.4459L-6.40677 -10.7913L-6.29238 -11.1285L-6.16493 -11.4555L-6.02341 -11.7705L-5.86689 -12.0714L-5.69464 -12.3563L-5.50607 -12.6235L-5.3008 -12.8713L-5.07865 -13.0982L-4.83964 -13.3031L-4.58403 -13.4849L-4.31227 -13.643L-4.02505 -13.7767L-3.72323 -13.8861L-3.40786 -13.9714L-3.08016 -14.0329L-2.74147 -14.0716L-2.39324 -14.0885L-2.03699 -14.085L-1.67431 -14.0627L-1.30679 -14.0234L-0.936014 -13.969L-0.56353 -13.9018L-0.190834 -13.824L0.180657 -13.7378L0.549622 -13.6458L0.914839 -13.5502L1.2752 -13.4536L1.62973 -13.3583L1.97754 -13.2668L2.31791 -13.1814L2.65019 -13.1044L2.97388 -13.0382L3.28857 -12.985L3.59394 -12.9471L3.8898 -12.9268L4.176 -12.9264L4.45251 -12.9481L4.71933 -12.9944L4.97656 -13.0678L5.22472 -13.1696L5.46528 -13.2982L5.69975 -13.4518L5.92951 -13.6283L6.15585 -13.8259L6.37999 -14.0426L6.60305 -14.2764L6.82612 -14.5253L7.05015 -14.7873L7.27608 -15.06L7.50473 -15.3412L7.73686 -15.6286L7.97316 -15.9195L8.21421 -16.2116L8.46052 -16.5021L8.71246 -16.7883L8.97035 -17.0676L9.23437 -17.3372L9.5046 -17.5944L9.78098 -17.8366L10.0634 -18.0614L10.3515 -18.2663L10.645 -18.4493L10.9435 -18.6085L11.2462 -18.7421L11.5527 -18.8489L11.8622 -18.9278L12.1739 -18.9783L12.487 -19L12.8008 -18.993L13.1145 -18.9578L13.4272 -18.8952L13.7382 -18.8062L14.0469 -18.6922L14.3526 -18.5549L14.6548 -18.3961L14.9529 -18.2178L15.2467 -18.0222L15.5358 -17.8116L15.8199 -17.5882L16.0991 -17.3542L16.3733 -17.1121L16.6424 -16.8639L16.9068 -16.6119L17.1665 -16.358L17.4219 -16.1042L17.6733 -15.8522L17.921 -15.6039L18.1655 -15.3605L18.4072 -15.1237L18.6466 -14.8945L18.8842 -14.6741L19.1206 -14.4635L19.3563 -14.2635L19.5918 -14.0749L19.8277 -13.8982L20.0645 -13.7339L20.3028 -13.5825L20.5431 -13.4442L20.786 -13.3192L21.0319 -13.2077L21.2813 -13.1096L21.5348 -13.025L21.7928 -12.9536L22.0557 -12.8953L22.3239 -12.8498L22.5978 -12.8167L22.8777 -12.7955L23.1638 -12.7858L23.4565 -12.7869L23.7558 -12.7981L24.0619 -12.8186L24.3748 -12.8476L24.6945 -12.8841L25.0209 -12.9271L25.3538 -12.9752L25.6927 -13.0274L26.0375 -13.0822L26.3874 -13.1382L26.7419 -13.1939L27.1002 -13.2476L27.4616 -13.2976L27.8248 -13.3422L28.1889 -13.3796L28.5527 -13.4079L28.9147 -13.4254L29.2736 -13.4301L29.628 -13.4205L29.9762 -13.3948L30.3167 -13.3514L30.6479 -13.289L30.9683 -13.2062L31.2764 -13.1022L31.5707 -12.976L31.85 -12.8272L32.1132 -12.6555L32.3592 -12.4609L32.5874 -12.2438L32.7971 -12.0046L32.9881 -11.7444L33.1603 -11.4643L33.3139 -11.1655L33.4493 -10.8499L33.5672 -10.519L33.6685 -10.1749L33.7543 -9.8195L33.8258 -9.45497L33.8846 -9.08343L33.9322 -8.707L33.9703 -8.32778L34.0008 -7.94783L34.0256 -7.56911L34.0465 -7.19348L34.0656 -6.82273L34.0848 -6.45848L34.1062 -6.10227L34.1318 -5.75549L34.1636 -5.41942L34.2036 -5.09523L34.254 -4.78397L34.3167 -4.48661L34.3939 -4.20401L34.4878 -3.937L34.6004 -3.68631L34.7343 -3.45267L34.8917 -3.23668L35.0732 -3.03758L35.2774 -2.8533L35.5029 -2.68186L35.7483 -2.52138L36.0122 -2.37005L36.2931 -2.22616L36.5894 -2.08802L36.8996 -1.95401L37.2218 -1.82257L37.5542 -1.69216L37.8949 -1.56129L38.2417 -1.4285L38.5926 -1.29243L38.9451 -1.15172L39.297 -1.00512L39.6458 -0.85145L39.9889 -0.689622L40.3238 -0.518656L40.6481 -0.337696L40.9592 -0.146019L41.2547 0.0569517L41.5325 0.271635L41.7903 0.498283L42.0263 0.736981L42.2389 0.98764L42.4267 1.25001L42.5886 1.52367L42.7239 1.80805L42.8322 2.10244L42.9135 2.40602L42.968 2.71787L42.9963 3.03697L42.9994 3.36227L42.9785 3.69266L42.9349 4.02706L42.8704 4.36436L42.7868 4.70351L42.686 5.04349L42.5702 5.38337L42.4414 5.72226L42.3018 6.05938L42.1535 6.39405L41.9987 6.72566L41.8394 7.05372L41.6776 7.37782L41.5151 7.69767L41.3537 8.01305L41.1952 8.32384L41.0409 8.62998L40.8924 8.93151L40.751 9.22853L40.6177 9.52121L40.4937 9.80975L40.3798 10.0944L40.277 10.3755L40.1858 10.6534L40.107 10.9285L40.0409 11.2012L39.9882 11.4718L39.9489 11.741L39.9235 12.009L39.912 12.2764L39.9113 12.3615Z" fill="#F64E60"/>
</g>
</g>
<defs>
<filter id="filter0_d_2512_114857" x="-19" y="-21" width="68" height="70.7236" filterUnits="userSpaceOnUse" color-interpolation-filters="sRGB">
<feFlood flood-opacity="0" result="BackgroundImageFix"/>
<feColorMatrix in="SourceAlpha" type="matrix" values="0 0 0 0 0 0 0 0 0 0 0 0 0 0 0 0 0 0 127 0" result="hardAlpha"/>
<feOffset dx="2" dy="2"/>
<feGaussianBlur stdDeviation="2"/>
<feComposite in2="hardAlpha" operator="out"/>
<feColorMatrix type="matrix" values="0 0 0 0 0 0 0 0 0 0 0 0 0 0 0 0 0 0 0.1 0"/>
<feBlend mode="normal" in2="BackgroundImageFix" result="effect1_dropShadow_2512_114857"/>
<feBlend mode="normal" in="SourceGraphic" in2="effect1_dropShadow_2512_114857" result="shape"/>
</filter>
<clipPath id="clip0_2512_114857">
<rect width="48" height="48" rx="4" fill="white"/>
</clipPath>
</defs>
</svg>
