<svg width="48" height="48" viewBox="0 0 48 48" fill="none" xmlns="http://www.w3.org/2000/svg">
<g clip-path="url(#clip0_2512_114869)">
<rect width="48" height="48" rx="4" fill="#4D4E8D"/>
<g filter="url(#filter0_d_2512_114869)">
<path fill-rule="evenodd" clip-rule="evenodd" d="M45.912 6.90701C62.206 5.78969 82.4271 -9.66567 92.8725 2.8897C103.573 15.7524 83.5344 33.2259 81.6383 49.8502C80.1704 62.7196 91.89 77.5385 83.2567 87.1949C74.6105 96.8659 58.8542 88.9253 45.912 89.8106C31.0724 90.8256 12.9046 103.85 3.08333 92.6788C-6.87291 81.3544 10.4385 64.9251 10.7796 49.8502C11.1037 35.5278 -4.0927 20.0049 4.97865 8.91679C13.9711 -2.07484 31.7439 7.87856 45.912 6.90701Z" fill="#4D4E8D"/>
</g>
</g>
<defs>
<filter id="filter0_d_2512_114869" x="-10" y="-12" width="112" height="115.178" filterUnits="userSpaceOnUse" color-interpolation-filters="sRGB">
<feFlood flood-opacity="0" result="BackgroundImageFix"/>
<feColorMatrix in="SourceAlpha" type="matrix" values="0 0 0 0 0 0 0 0 0 0 0 0 0 0 0 0 0 0 127 0" result="hardAlpha"/>
<feOffset dx="-2" dy="-2"/>
<feGaussianBlur stdDeviation="4"/>
<feComposite in2="hardAlpha" operator="out"/>
<feColorMatrix type="matrix" values="0 0 0 0 0 0 0 0 0 0 0 0 0 0 0 0 0 0 0.2 0"/>
<feBlend mode="normal" in2="BackgroundImageFix" result="effect1_dropShadow_2512_114869"/>
<feBlend mode="normal" in="SourceGraphic" in2="effect1_dropShadow_2512_114869" result="shape"/>
</filter>
<clipPath id="clip0_2512_114869">
<rect width="48" height="48" rx="4" fill="white"/>
</clipPath>
</defs>
</svg>
