<svg width="41" height="40" viewBox="0 0 41 40" fill="none" xmlns="http://www.w3.org/2000/svg">
<g filter="url(#filter0_d_4149_242284)">
<rect x="4.88062" y="4" width="32" height="32" rx="6" fill="white"/>
<path d="M26.1306 10.25H15.6306C14.388 10.25 13.3806 11.2574 13.3806 12.5V27.5C13.3806 28.7426 14.388 29.75 15.6306 29.75H26.1306C27.3733 29.75 28.3806 28.7426 28.3806 27.5V12.5C28.3806 11.2574 27.3733 10.25 26.1306 10.25Z" stroke="#8838FF" stroke-width="1.5" stroke-linejoin="round"/>
<path d="M21.6306 14H24.6306" stroke="#8838FF" stroke-linecap="round" stroke-linejoin="round"/>
<path d="M21.6306 17.75H24.6306" stroke="#8838FF" stroke-linecap="round" stroke-linejoin="round"/>
<path d="M21.6306 21.5H24.6306" stroke="#8838FF" stroke-linecap="round" stroke-linejoin="round"/>
<path d="M19.3806 12.7998L17.2806 15.1998L16.3806 14.2998" stroke="#8838FF" stroke-width="0.5" stroke-linecap="round" stroke-linejoin="round"/>
<path d="M19.3806 16.5488L17.2806 18.9488L16.3806 18.0488" stroke="#8838FF" stroke-width="0.5" stroke-linecap="round" stroke-linejoin="round"/>
<path d="M19.3806 20.2998L17.2806 22.6998L16.3806 21.7998" stroke="#8838FF" stroke-width="0.5" stroke-linecap="round" stroke-linejoin="round"/>
</g>
<defs>
<filter id="filter0_d_4149_242284" x="0.880615" y="0" width="40" height="40" filterUnits="userSpaceOnUse" color-interpolation-filters="sRGB">
<feFlood flood-opacity="0" result="BackgroundImageFix"/>
<feColorMatrix in="SourceAlpha" type="matrix" values="0 0 0 0 0 0 0 0 0 0 0 0 0 0 0 0 0 0 127 0" result="hardAlpha"/>
<feOffset/>
<feGaussianBlur stdDeviation="2"/>
<feComposite in2="hardAlpha" operator="out"/>
<feColorMatrix type="matrix" values="0 0 0 0 0 0 0 0 0 0 0 0 0 0 0 0 0 0 0.25 0"/>
<feBlend mode="normal" in2="BackgroundImageFix" result="effect1_dropShadow_4149_242284"/>
<feBlend mode="normal" in="SourceGraphic" in2="effect1_dropShadow_4149_242284" result="shape"/>
</filter>
</defs>
</svg>
