<svg width="18" height="18" viewBox="0 0 18 18" fill="none" xmlns="http://www.w3.org/2000/svg">
<path d="M13.5 7.875V14.3438C13.5 14.5284 13.4636 14.7113 13.393 14.8819C13.3223 15.0525 13.2187 15.2075 13.0881 15.3381C12.9575 15.4687 12.8025 15.5723 12.6319 15.643C12.4613 15.7136 12.2784 15.75 12.0938 15.75H3.65625C3.28329 15.75 2.9256 15.6018 2.66188 15.3381C2.39816 15.0744 2.25 14.7167 2.25 14.3438V5.90625C2.25 5.53329 2.39816 5.1756 2.66188 4.91188C2.9256 4.64816 3.28329 4.5 3.65625 4.5H9.54422" stroke="black" stroke-linecap="round" stroke-linejoin="round" fill="white"/>
<path fill-rule="evenodd" clip-rule="evenodd" d="M8.09552 9.9034C7.87239 9.68028 7.87255 9.31847 8.09587 9.09554L14.0378 3.16414C14.0971 3.10499 14.1775 3.07178 14.2612 3.07178C14.345 3.07178 14.4253 3.10499 14.4846 3.16414L14.8345 3.5157C14.8931 3.57494 14.9259 3.6549 14.9259 3.73824C14.9259 3.82157 14.8931 3.90154 14.8345 3.96078L8.9034 9.90302C8.68048 10.1264 8.31865 10.1265 8.09552 9.9034Z" fill="black"/>
<path d="M13.1114 2.85295H15.2089V4.95044" stroke="black" stroke-linecap="round" stroke-linejoin="round"/>
</svg>
