<svg width="41" height="40" viewBox="0 0 41 40" fill="none" xmlns="http://www.w3.org/2000/svg">
<g filter="url(#filter0_d_4149_242296)">
<rect x="4.16211" y="4" width="32" height="32" rx="6" fill="white"/>
<path d="M25.4114 30.5059H14.9114C13.2572 30.5059 11.9114 29.1601 11.9114 27.5059V12.5059C11.9114 10.8516 13.2572 9.50586 14.9114 9.50586H19.5403C20.1412 9.50595 20.706 9.73995 21.1309 10.1647L27.7525 16.7863C28.1773 17.2113 28.4113 17.7761 28.4114 18.3769V18.377V27.5059C28.4114 29.1601 27.0656 30.5059 25.4114 30.5059ZM14.9114 11.0059C14.0843 11.0059 13.4114 11.6788 13.4114 12.5059V27.5059C13.4114 28.333 14.0843 29.0059 14.9114 29.0059H25.4114C26.2385 29.0059 26.9114 28.333 26.9114 27.5059V18.377C26.9114 18.1768 26.8334 17.9885 26.6917 17.8469L20.0703 11.2254C19.9287 11.0839 19.7404 11.0059 19.5401 11.0059H14.9114Z" fill="#8838FF"/>
<path d="M27.2849 18.5H21.6599C20.4192 18.5 19.4099 17.4906 19.4099 16.25V10.625C19.4099 10.2108 19.7457 9.875 20.1599 9.875C20.5741 9.875 20.9099 10.2108 20.9099 10.625V16.25C20.9099 16.6635 21.2464 17 21.6599 17H27.2849C27.6991 17 28.0349 17.3358 28.0349 17.75C28.0349 18.1642 27.6991 18.5 27.2849 18.5Z" fill="#8838FF"/>
<path d="M23.9106 22.2539H16.4106C15.9965 22.2539 15.6606 21.9181 15.6606 21.5039C15.6606 21.0897 15.9965 20.7539 16.4106 20.7539H23.9106C24.3249 20.7539 24.6606 21.0897 24.6606 21.5039C24.6606 21.9181 24.3249 22.2539 23.9106 22.2539Z" fill="#8838FF"/>
<path d="M23.9106 26.0029H16.4106C15.9965 26.0029 15.6606 25.6672 15.6606 25.2529C15.6606 24.8387 15.9965 24.5029 16.4106 24.5029H23.9106C24.3249 24.5029 24.6606 24.8387 24.6606 25.2529C24.6606 25.6672 24.3249 26.0029 23.9106 26.0029Z" fill="#8838FF"/>
</g>
<defs>
<filter id="filter0_d_4149_242296" x="0.162109" y="0" width="40" height="40" filterUnits="userSpaceOnUse" color-interpolation-filters="sRGB">
<feFlood flood-opacity="0" result="BackgroundImageFix"/>
<feColorMatrix in="SourceAlpha" type="matrix" values="0 0 0 0 0 0 0 0 0 0 0 0 0 0 0 0 0 0 127 0" result="hardAlpha"/>
<feOffset/>
<feGaussianBlur stdDeviation="2"/>
<feComposite in2="hardAlpha" operator="out"/>
<feColorMatrix type="matrix" values="0 0 0 0 0 0 0 0 0 0 0 0 0 0 0 0 0 0 0.25 0"/>
<feBlend mode="normal" in2="BackgroundImageFix" result="effect1_dropShadow_4149_242296"/>
<feBlend mode="normal" in="SourceGraphic" in2="effect1_dropShadow_4149_242296" result="shape"/>
</filter>
</defs>
</svg>
