<svg width="1232" height="72" viewBox="0 0 1232 72" fill="none" xmlns="http://www.w3.org/2000/svg">
<g clip-path="url(#clip0_5152_228736)">
<rect width="1232" height="72" rx="12" fill="white"/>
<path d="M35.2188 31.8099V40.1432C35.2188 40.6035 35.5918 40.9766 36.0521 40.9766C36.5123 40.9766 36.8854 40.6035 36.8854 40.1432V31.8099C36.8854 31.3497 36.5123 30.9766 36.0521 30.9766C35.5918 30.9766 35.2188 31.3497 35.2188 31.8099Z" fill="black"/>
<path d="M40.319 35.2461H31.9857C31.5254 35.2461 31.1523 35.6192 31.1523 36.0794C31.1523 36.5397 31.5254 36.9128 31.9857 36.9128H40.319C40.7792 36.9128 41.1523 36.5397 41.1523 36.0794C41.1523 35.6192 40.7792 35.2461 40.319 35.2461Z" fill="black"/>
<rect x="23.9805" y="36" width="17" height="17" rx="3.5" transform="rotate(-45 23.9805 36)" stroke="black" stroke-opacity="0.1"/>
<path d="M57.512 42V28.878H62.966C63.662 28.878 64.298 28.974 64.874 29.166C65.45 29.346 65.936 29.622 66.332 29.994C66.74 30.354 67.052 30.798 67.268 31.326C67.496 31.842 67.61 32.436 67.61 33.108C67.61 33.96 67.424 34.71 67.052 35.358C66.68 35.994 66.146 36.492 65.45 36.852C64.766 37.212 63.938 37.392 62.966 37.392L59.654 37.374V35.502L62.57 35.52C63.074 35.52 63.518 35.442 63.902 35.286C64.298 35.13 64.61 34.884 64.838 34.548C65.066 34.2 65.18 33.75 65.18 33.198C65.18 32.646 65.06 32.202 64.82 31.866C64.592 31.53 64.286 31.29 63.902 31.146C63.518 30.99 63.074 30.912 62.57 30.912H59.546L59.888 30.57V42H57.512ZM72.3995 42.162C71.8235 42.162 71.2955 42.06 70.8155 41.856C70.3475 41.64 69.9395 41.322 69.5915 40.902C69.2555 40.482 68.9975 39.966 68.8175 39.354C68.6375 38.73 68.5475 38.016 68.5475 37.212C68.5475 36.12 68.7035 35.208 69.0155 34.476C69.3395 33.732 69.7895 33.174 70.3655 32.802C70.9535 32.43 71.6315 32.244 72.3995 32.244C72.9275 32.244 73.3955 32.328 73.8035 32.496C74.2235 32.652 74.5835 32.874 74.8835 33.162C75.1835 33.45 75.4115 33.792 75.5675 34.188H75.6935L75.7835 32.424H77.9435V42H75.6935V40.218H75.5675C75.3395 40.806 74.9495 41.28 74.3975 41.64C73.8455 41.988 73.1795 42.162 72.3995 42.162ZM73.2455 40.326C73.7855 40.326 74.2295 40.2 74.5775 39.948C74.9375 39.696 75.2075 39.372 75.3875 38.976C75.5675 38.568 75.6575 38.142 75.6575 37.698V36.708C75.6575 36.252 75.5675 35.826 75.3875 35.43C75.2075 35.022 74.9375 34.698 74.5775 34.458C74.2295 34.206 73.7855 34.08 73.2455 34.08C72.7655 34.08 72.3455 34.194 71.9855 34.422C71.6255 34.65 71.3435 34.998 71.1395 35.466C70.9355 35.922 70.8335 36.504 70.8335 37.212C70.8335 37.896 70.9355 38.472 71.1395 38.94C71.3435 39.408 71.6255 39.756 71.9855 39.984C72.3455 40.212 72.7655 40.326 73.2455 40.326ZM79.9064 45.006V43.152H80.9684C81.2564 43.152 81.4964 43.116 81.6884 43.044C81.8804 42.972 82.0424 42.858 82.1744 42.702C82.3064 42.546 82.4144 42.348 82.4984 42.108L83.0204 40.758V41.766L79.1144 32.424H81.5804L83.5424 37.896L83.9024 38.976H83.9924L84.3164 37.896L86.1704 32.424H88.5644L84.6944 42.63C84.4784 43.242 84.2084 43.722 83.8844 44.07C83.5724 44.418 83.2064 44.658 82.7864 44.79C82.3784 44.934 81.9104 45.006 81.3824 45.006H79.9064ZM89.7431 42V32.424H91.7771L91.8851 34.026H91.9571C92.1731 33.414 92.5211 32.976 93.0011 32.712C93.4931 32.436 94.0511 32.298 94.6751 32.298C94.7831 32.298 94.8791 32.298 94.9631 32.298C95.0591 32.298 95.1491 32.298 95.2331 32.298V34.422C95.1611 34.422 95.0711 34.422 94.9631 34.422C94.8671 34.41 94.7591 34.404 94.6391 34.404C94.0631 34.404 93.5831 34.5 93.1991 34.692C92.8151 34.872 92.5211 35.136 92.3171 35.484C92.1251 35.832 92.0171 36.258 91.9931 36.762V42H89.7431ZM100.616 42.162C99.896 42.162 99.248 42.054 98.672 41.838C98.096 41.61 97.592 41.28 97.16 40.848C96.74 40.416 96.416 39.894 96.188 39.282C95.972 38.67 95.864 37.98 95.864 37.212C95.864 36.228 96.05 35.364 96.422 34.62C96.806 33.876 97.352 33.294 98.06 32.874C98.768 32.454 99.62 32.244 100.616 32.244C101.324 32.244 101.966 32.358 102.542 32.586C103.118 32.814 103.61 33.144 104.018 33.576C104.438 34.008 104.762 34.53 104.99 35.142C105.218 35.742 105.332 36.432 105.332 37.212C105.332 38.184 105.14 39.042 104.756 39.786C104.384 40.53 103.844 41.112 103.136 41.532C102.44 41.952 101.6 42.162 100.616 42.162ZM100.598 40.308C101.09 40.308 101.522 40.194 101.894 39.966C102.266 39.726 102.554 39.378 102.758 38.922C102.962 38.454 103.064 37.884 103.064 37.212C103.064 36.708 103.004 36.264 102.884 35.88C102.776 35.484 102.614 35.154 102.398 34.89C102.182 34.626 101.924 34.428 101.624 34.296C101.324 34.164 100.988 34.098 100.616 34.098C100.124 34.098 99.686 34.218 99.302 34.458C98.93 34.686 98.642 35.034 98.438 35.502C98.234 35.958 98.132 36.528 98.132 37.212C98.132 37.716 98.186 38.166 98.294 38.562C98.414 38.946 98.582 39.27 98.798 39.534C99.014 39.786 99.272 39.978 99.572 40.11C99.884 40.242 100.226 40.308 100.598 40.308ZM107.145 42V28.878H109.395V42H107.145ZM111.821 42V28.878H114.071V42H111.821ZM120.723 42V28.878H127.023C127.755 28.878 128.397 28.962 128.949 29.13C129.513 29.286 129.981 29.526 130.353 29.85C130.725 30.162 131.001 30.546 131.181 31.002C131.373 31.446 131.469 31.968 131.469 32.568C131.469 33.348 131.265 34.02 130.857 34.584C130.461 35.148 129.903 35.526 129.183 35.718V35.844C129.867 35.976 130.365 36.252 130.677 36.672C131.001 37.092 131.163 37.668 131.163 38.4V40.524C131.163 40.764 131.169 41.01 131.181 41.262C131.205 41.502 131.271 41.748 131.379 42H128.985C128.913 41.832 128.859 41.622 128.823 41.37C128.787 41.118 128.769 40.83 128.769 40.506V38.814C128.769 38.406 128.709 38.064 128.589 37.788C128.469 37.512 128.253 37.302 127.941 37.158C127.629 37.002 127.185 36.924 126.609 36.924H123.099V42H120.723ZM123.099 35.016H126.681C127.533 35.016 128.139 34.818 128.499 34.422C128.859 34.026 129.039 33.516 129.039 32.892C129.039 32.4 128.937 32.01 128.733 31.722C128.541 31.422 128.265 31.206 127.905 31.074C127.557 30.93 127.149 30.858 126.681 30.858H123.099V35.016ZM137.406 42.162C136.422 42.162 135.582 41.958 134.886 41.55C134.19 41.142 133.65 40.572 133.266 39.84C132.894 39.108 132.708 38.25 132.708 37.266C132.708 36.246 132.894 35.364 133.266 34.62C133.638 33.864 134.172 33.282 134.868 32.874C135.564 32.454 136.38 32.244 137.316 32.244C138.408 32.244 139.302 32.484 139.998 32.964C140.694 33.444 141.192 34.092 141.492 34.908C141.804 35.724 141.906 36.654 141.798 37.698H134.922C134.922 38.274 135.024 38.766 135.228 39.174C135.444 39.582 135.738 39.894 136.11 40.11C136.482 40.326 136.914 40.434 137.406 40.434C137.982 40.434 138.468 40.308 138.864 40.056C139.26 39.792 139.512 39.444 139.62 39.012H141.762C141.678 39.636 141.438 40.188 141.042 40.668C140.646 41.136 140.136 41.502 139.512 41.766C138.888 42.03 138.186 42.162 137.406 42.162ZM134.922 36.474L134.724 36.186H139.818L139.602 36.474C139.626 35.898 139.536 35.43 139.332 35.07C139.14 34.698 138.864 34.422 138.504 34.242C138.156 34.062 137.76 33.972 137.316 33.972C136.836 33.972 136.416 34.074 136.056 34.278C135.708 34.482 135.432 34.77 135.228 35.142C135.036 35.514 134.934 35.958 134.922 36.474ZM143.655 45.006L143.673 32.424H145.833L145.905 34.188H146.049C146.277 33.612 146.661 33.144 147.201 32.784C147.753 32.424 148.419 32.244 149.199 32.244C149.775 32.244 150.297 32.352 150.765 32.568C151.245 32.772 151.653 33.084 151.989 33.504C152.337 33.924 152.601 34.446 152.781 35.07C152.973 35.682 153.069 36.396 153.069 37.212C153.069 38.292 152.907 39.204 152.583 39.948C152.259 40.68 151.803 41.238 151.215 41.622C150.639 41.994 149.967 42.18 149.199 42.18C148.683 42.18 148.215 42.102 147.795 41.946C147.375 41.778 147.015 41.55 146.715 41.262C146.427 40.962 146.205 40.62 146.049 40.236H145.905V45.006H143.655ZM148.371 40.344C148.851 40.344 149.271 40.23 149.631 40.002C149.991 39.762 150.267 39.414 150.459 38.958C150.663 38.49 150.765 37.908 150.765 37.212C150.765 36.504 150.663 35.922 150.459 35.466C150.267 34.998 149.991 34.65 149.631 34.422C149.271 34.194 148.851 34.08 148.371 34.08C147.831 34.08 147.381 34.206 147.021 34.458C146.661 34.71 146.391 35.034 146.211 35.43C146.031 35.826 145.941 36.252 145.941 36.708V37.716C145.941 38.052 145.989 38.376 146.085 38.688C146.193 39 146.343 39.282 146.535 39.534C146.739 39.774 146.991 39.972 147.291 40.128C147.603 40.272 147.963 40.344 148.371 40.344ZM159.204 42.162C158.484 42.162 157.836 42.054 157.26 41.838C156.684 41.61 156.18 41.28 155.748 40.848C155.328 40.416 155.004 39.894 154.776 39.282C154.56 38.67 154.452 37.98 154.452 37.212C154.452 36.228 154.638 35.364 155.01 34.62C155.394 33.876 155.94 33.294 156.648 32.874C157.356 32.454 158.208 32.244 159.204 32.244C159.912 32.244 160.554 32.358 161.13 32.586C161.706 32.814 162.198 33.144 162.606 33.576C163.026 34.008 163.35 34.53 163.578 35.142C163.806 35.742 163.92 36.432 163.92 37.212C163.92 38.184 163.728 39.042 163.344 39.786C162.972 40.53 162.432 41.112 161.724 41.532C161.028 41.952 160.188 42.162 159.204 42.162ZM159.186 40.308C159.678 40.308 160.11 40.194 160.482 39.966C160.854 39.726 161.142 39.378 161.346 38.922C161.55 38.454 161.652 37.884 161.652 37.212C161.652 36.708 161.592 36.264 161.472 35.88C161.364 35.484 161.202 35.154 160.986 34.89C160.77 34.626 160.512 34.428 160.212 34.296C159.912 34.164 159.576 34.098 159.204 34.098C158.712 34.098 158.274 34.218 157.89 34.458C157.518 34.686 157.23 35.034 157.026 35.502C156.822 35.958 156.72 36.528 156.72 37.212C156.72 37.716 156.774 38.166 156.882 38.562C157.002 38.946 157.17 39.27 157.386 39.534C157.602 39.786 157.86 39.978 158.16 40.11C158.472 40.242 158.814 40.308 159.186 40.308ZM165.733 42V32.424H167.767L167.875 34.026H167.947C168.163 33.414 168.511 32.976 168.991 32.712C169.483 32.436 170.041 32.298 170.665 32.298C170.773 32.298 170.869 32.298 170.953 32.298C171.049 32.298 171.139 32.298 171.223 32.298V34.422C171.151 34.422 171.061 34.422 170.953 34.422C170.857 34.41 170.749 34.404 170.629 34.404C170.053 34.404 169.573 34.5 169.189 34.692C168.805 34.872 168.511 35.136 168.307 35.484C168.115 35.832 168.007 36.258 167.983 36.762V42H165.733ZM176.069 42C175.481 42 175.019 41.916 174.683 41.748C174.359 41.568 174.131 41.316 173.999 40.992C173.867 40.668 173.801 40.278 173.801 39.822V34.242H172.037V32.424H173.801V29.724L176.033 29.49V32.424H178.067V34.242H176.033V39.408C176.033 39.708 176.099 39.912 176.231 40.02C176.363 40.116 176.567 40.164 176.843 40.164H178.067V42H176.069Z" fill="#181C32"/>
</g>
<path d="M1061.18 40V29.794H1065.42C1065.96 29.794 1066.45 29.8687 1066.9 30.018C1067.35 30.158 1067.73 30.3727 1068.04 30.662C1068.35 30.942 1068.6 31.2873 1068.76 31.698C1068.94 32.0993 1069.03 32.5613 1069.03 33.084C1069.03 33.7467 1068.89 34.33 1068.6 34.834C1068.31 35.3287 1067.89 35.716 1067.35 35.996C1066.82 36.276 1066.17 36.416 1065.42 36.416L1062.84 36.402V34.946L1065.11 34.96C1065.5 34.96 1065.85 34.8993 1066.15 34.778C1066.45 34.6567 1066.7 34.4653 1066.87 34.204C1067.05 33.9333 1067.14 33.5833 1067.14 33.154C1067.14 32.7247 1067.05 32.3793 1066.86 32.118C1066.68 31.8567 1066.44 31.67 1066.15 31.558C1065.85 31.4367 1065.5 31.376 1065.11 31.376H1062.76L1063.02 31.11V40H1061.18ZM1070.3 40V32.552H1071.89L1071.97 33.798H1072.03C1072.19 33.322 1072.46 32.9813 1072.84 32.776C1073.22 32.5613 1073.65 32.454 1074.14 32.454C1074.22 32.454 1074.3 32.454 1074.36 32.454C1074.44 32.454 1074.51 32.454 1074.57 32.454V34.106C1074.52 34.106 1074.45 34.106 1074.36 34.106C1074.29 34.0967 1074.2 34.092 1074.11 34.092C1073.66 34.092 1073.29 34.1667 1072.99 34.316C1072.69 34.456 1072.46 34.6613 1072.31 34.932C1072.16 35.2027 1072.07 35.534 1072.05 35.926V40H1070.3ZM1078.72 40.126C1077.95 40.126 1077.3 39.9673 1076.76 39.65C1076.22 39.3327 1075.8 38.8893 1075.5 38.32C1075.21 37.7507 1075.06 37.0833 1075.06 36.318C1075.06 35.5247 1075.21 34.8387 1075.5 34.26C1075.79 33.672 1076.2 33.2193 1076.74 32.902C1077.29 32.5753 1077.92 32.412 1078.65 32.412C1079.5 32.412 1080.19 32.5987 1080.73 32.972C1081.28 33.3453 1081.66 33.8493 1081.9 34.484C1082.14 35.1187 1082.22 35.842 1082.13 36.654H1076.79C1076.79 37.102 1076.87 37.4847 1077.02 37.802C1077.19 38.1193 1077.42 38.362 1077.71 38.53C1078 38.698 1078.34 38.782 1078.72 38.782C1079.17 38.782 1079.54 38.684 1079.85 38.488C1080.16 38.2827 1080.36 38.012 1080.44 37.676H1082.11C1082.04 38.1613 1081.85 38.5907 1081.55 38.964C1081.24 39.328 1080.84 39.6127 1080.36 39.818C1079.87 40.0233 1079.32 40.126 1078.72 40.126ZM1076.79 35.702L1076.63 35.478H1080.59L1080.43 35.702C1080.44 35.254 1080.37 34.89 1080.22 34.61C1080.07 34.3207 1079.85 34.106 1079.57 33.966C1079.3 33.826 1078.99 33.756 1078.65 33.756C1078.27 33.756 1077.95 33.8353 1077.67 33.994C1077.4 34.1527 1077.18 34.3767 1077.02 34.666C1076.87 34.9553 1076.8 35.3007 1076.79 35.702ZM1085.01 40L1082.41 32.538H1084.3L1085.6 36.822L1086.06 38.53H1086.12L1086.58 36.836L1087.88 32.538H1089.77L1087.18 40H1085.01ZM1090.69 40V32.552H1092.44V40H1090.69ZM1090.69 31.502V29.794H1092.44V31.502H1090.69ZM1097.52 40.126C1096.75 40.126 1096.1 39.9673 1095.56 39.65C1095.02 39.3327 1094.6 38.8893 1094.3 38.32C1094.01 37.7507 1093.86 37.0833 1093.86 36.318C1093.86 35.5247 1094.01 34.8387 1094.3 34.26C1094.59 33.672 1095 33.2193 1095.54 32.902C1096.08 32.5753 1096.72 32.412 1097.45 32.412C1098.3 32.412 1098.99 32.5987 1099.53 32.972C1100.07 33.3453 1100.46 33.8493 1100.69 34.484C1100.94 35.1187 1101.02 35.842 1100.93 36.654H1095.58C1095.58 37.102 1095.66 37.4847 1095.82 37.802C1095.99 38.1193 1096.22 38.362 1096.51 38.53C1096.8 38.698 1097.13 38.782 1097.52 38.782C1097.96 38.782 1098.34 38.684 1098.65 38.488C1098.96 38.2827 1099.15 38.012 1099.24 37.676H1100.9C1100.84 38.1613 1100.65 38.5907 1100.34 38.964C1100.04 39.328 1099.64 39.6127 1099.15 39.818C1098.67 40.0233 1098.12 40.126 1097.52 40.126ZM1095.58 35.702L1095.43 35.478H1099.39L1099.22 35.702C1099.24 35.254 1099.17 34.89 1099.01 34.61C1098.87 34.3207 1098.65 34.106 1098.37 33.966C1098.1 33.826 1097.79 33.756 1097.45 33.756C1097.07 33.756 1096.75 33.8353 1096.47 33.994C1096.2 34.1527 1095.98 34.3767 1095.82 34.666C1095.67 34.9553 1095.59 35.3007 1095.58 35.702ZM1103.22 40L1101.39 32.552H1103.18L1104.49 38.25H1104.56L1105.8 32.552H1107.71L1108.95 38.264H1109L1110.3 32.552H1112.04L1110.19 40H1107.91L1106.71 34.778H1106.64L1105.47 40H1103.22ZM1116.36 40V29.794H1121.26C1121.83 29.794 1122.32 29.8593 1122.75 29.99C1123.19 30.1113 1123.56 30.298 1123.85 30.55C1124.14 30.7927 1124.35 31.0913 1124.49 31.446C1124.64 31.7913 1124.71 32.1973 1124.71 32.664C1124.71 33.2707 1124.56 33.7933 1124.24 34.232C1123.93 34.6707 1123.5 34.9647 1122.94 35.114V35.212C1123.47 35.3147 1123.86 35.5293 1124.1 35.856C1124.35 36.1827 1124.48 36.6307 1124.48 37.2V38.852C1124.48 39.0387 1124.48 39.23 1124.49 39.426C1124.51 39.6127 1124.56 39.804 1124.64 40H1122.78C1122.73 39.8693 1122.68 39.706 1122.66 39.51C1122.63 39.314 1122.61 39.09 1122.61 38.838V37.522C1122.61 37.2047 1122.57 36.9387 1122.47 36.724C1122.38 36.5093 1122.21 36.346 1121.97 36.234C1121.73 36.1127 1121.38 36.052 1120.93 36.052H1118.2V40H1116.36ZM1118.2 34.568H1120.99C1121.65 34.568 1122.12 34.414 1122.4 34.106C1122.68 33.798 1122.82 33.4013 1122.82 32.916C1122.82 32.5333 1122.74 32.23 1122.59 32.006C1122.44 31.7727 1122.22 31.6047 1121.94 31.502C1121.67 31.39 1121.35 31.334 1120.99 31.334H1118.2V34.568ZM1129.33 40.126C1128.57 40.126 1127.91 39.9673 1127.37 39.65C1126.83 39.3327 1126.41 38.8893 1126.11 38.32C1125.82 37.7507 1125.68 37.0833 1125.68 36.318C1125.68 35.5247 1125.82 34.8387 1126.11 34.26C1126.4 33.672 1126.82 33.2193 1127.36 32.902C1127.9 32.5753 1128.53 32.412 1129.26 32.412C1130.11 32.412 1130.81 32.5987 1131.35 32.972C1131.89 33.3453 1132.28 33.8493 1132.51 34.484C1132.75 35.1187 1132.83 35.842 1132.75 36.654H1127.4C1127.4 37.102 1127.48 37.4847 1127.64 37.802C1127.81 38.1193 1128.03 38.362 1128.32 38.53C1128.61 38.698 1128.95 38.782 1129.33 38.782C1129.78 38.782 1130.16 38.684 1130.47 38.488C1130.77 38.2827 1130.97 38.012 1131.05 37.676H1132.72C1132.65 38.1613 1132.47 38.5907 1132.16 38.964C1131.85 39.328 1131.45 39.6127 1130.97 39.818C1130.48 40.0233 1129.94 40.126 1129.33 40.126ZM1127.4 35.702L1127.25 35.478H1131.21L1131.04 35.702C1131.06 35.254 1130.99 34.89 1130.83 34.61C1130.68 34.3207 1130.47 34.106 1130.19 33.966C1129.91 33.826 1129.61 33.756 1129.26 33.756C1128.89 33.756 1128.56 33.8353 1128.28 33.994C1128.01 34.1527 1127.8 34.3767 1127.64 34.666C1127.49 34.9553 1127.41 35.3007 1127.4 35.702ZM1134.19 42.338L1134.21 32.552H1135.89L1135.94 33.924H1136.05C1136.23 33.476 1136.53 33.112 1136.95 32.832C1137.38 32.552 1137.9 32.412 1138.5 32.412C1138.95 32.412 1139.36 32.496 1139.72 32.664C1140.1 32.8227 1140.41 33.0653 1140.67 33.392C1140.94 33.7187 1141.15 34.1247 1141.29 34.61C1141.44 35.086 1141.51 35.6413 1141.51 36.276C1141.51 37.116 1141.39 37.8253 1141.14 38.404C1140.88 38.9733 1140.53 39.4073 1140.07 39.706C1139.62 39.9953 1139.1 40.14 1138.5 40.14C1138.1 40.14 1137.74 40.0793 1137.41 39.958C1137.09 39.8273 1136.81 39.65 1136.57 39.426C1136.35 39.1927 1136.18 38.9267 1136.05 38.628H1135.94V42.338H1134.19ZM1137.86 38.712C1138.23 38.712 1138.56 38.6233 1138.84 38.446C1139.12 38.2593 1139.33 37.9887 1139.48 37.634C1139.64 37.27 1139.72 36.8173 1139.72 36.276C1139.72 35.7253 1139.64 35.2727 1139.48 34.918C1139.33 34.554 1139.12 34.2833 1138.84 34.106C1138.56 33.9287 1138.23 33.84 1137.86 33.84C1137.44 33.84 1137.09 33.938 1136.81 34.134C1136.53 34.33 1136.32 34.582 1136.18 34.89C1136.04 35.198 1135.97 35.5293 1135.97 35.884V36.668C1135.97 36.9293 1136.01 37.1813 1136.08 37.424C1136.17 37.6667 1136.28 37.886 1136.43 38.082C1136.59 38.2687 1136.79 38.4227 1137.02 38.544C1137.26 38.656 1137.54 38.712 1137.86 38.712ZM1146.29 40.126C1145.73 40.126 1145.22 40.042 1144.77 39.874C1144.33 39.6967 1143.93 39.44 1143.6 39.104C1143.27 38.768 1143.02 38.362 1142.84 37.886C1142.67 37.41 1142.59 36.8733 1142.59 36.276C1142.59 35.5107 1142.73 34.8387 1143.02 34.26C1143.32 33.6813 1143.75 33.2287 1144.3 32.902C1144.85 32.5753 1145.51 32.412 1146.29 32.412C1146.84 32.412 1147.34 32.5007 1147.78 32.678C1148.23 32.8553 1148.61 33.112 1148.93 33.448C1149.26 33.784 1149.51 34.19 1149.69 34.666C1149.86 35.1327 1149.95 35.6693 1149.95 36.276C1149.95 37.032 1149.8 37.6993 1149.51 38.278C1149.22 38.8567 1148.8 39.3093 1148.25 39.636C1147.7 39.9627 1147.05 40.126 1146.29 40.126ZM1146.27 38.684C1146.65 38.684 1146.99 38.5953 1147.28 38.418C1147.57 38.2313 1147.79 37.9607 1147.95 37.606C1148.11 37.242 1148.19 36.7987 1148.19 36.276C1148.19 35.884 1148.14 35.5387 1148.05 35.24C1147.97 34.932 1147.84 34.6753 1147.67 34.47C1147.5 34.2647 1147.3 34.1107 1147.07 34.008C1146.84 33.9053 1146.57 33.854 1146.29 33.854C1145.9 33.854 1145.56 33.9473 1145.26 34.134C1144.97 34.3113 1144.75 34.582 1144.59 34.946C1144.43 35.3007 1144.35 35.744 1144.35 36.276C1144.35 36.668 1144.4 37.018 1144.48 37.326C1144.57 37.6247 1144.7 37.8767 1144.87 38.082C1145.04 38.278 1145.24 38.4273 1145.47 38.53C1145.72 38.6327 1145.98 38.684 1146.27 38.684ZM1151.36 40V32.552H1152.95L1153.03 33.798H1153.09C1153.25 33.322 1153.52 32.9813 1153.9 32.776C1154.28 32.5613 1154.71 32.454 1155.2 32.454C1155.28 32.454 1155.36 32.454 1155.42 32.454C1155.5 32.454 1155.57 32.454 1155.63 32.454V34.106C1155.58 34.106 1155.51 34.106 1155.42 34.106C1155.35 34.0967 1155.27 34.092 1155.17 34.092C1154.72 34.092 1154.35 34.1667 1154.05 34.316C1153.75 34.456 1153.52 34.6613 1153.37 34.932C1153.22 35.2027 1153.13 35.534 1153.11 35.926V40H1151.36ZM1159.4 40C1158.94 40 1158.59 39.9347 1158.32 39.804C1158.07 39.664 1157.89 39.468 1157.79 39.216C1157.69 38.964 1157.64 38.6607 1157.64 38.306V33.966H1156.27V32.552H1157.64V30.452L1159.37 30.27V32.552H1160.96V33.966H1159.37V37.984C1159.37 38.2173 1159.43 38.376 1159.53 38.46C1159.63 38.5347 1159.79 38.572 1160 38.572H1160.96V40H1159.4Z" fill="black"/>
<path d="M1060 41.75H1161.36V42.45H1060V41.75Z" fill="black"/>
<path d="M1179.5 33.875V40.3438C1179.5 40.5284 1179.46 40.7113 1179.39 40.8819C1179.32 41.0525 1179.22 41.2075 1179.09 41.3381C1178.96 41.4687 1178.8 41.5723 1178.63 41.643C1178.46 41.7136 1178.28 41.75 1178.09 41.75H1169.66C1169.28 41.75 1168.93 41.6018 1168.66 41.3381C1168.4 41.0744 1168.25 40.7167 1168.25 40.3438V31.9062C1168.25 31.5333 1168.4 31.1756 1168.66 30.9119C1168.93 30.6482 1169.28 30.5 1169.66 30.5H1175.54" stroke="black" stroke-linecap="round" stroke-linejoin="round"/>
<path fill-rule="evenodd" clip-rule="evenodd" d="M1174.1 35.9034C1173.87 35.6803 1173.87 35.3185 1174.1 35.0955L1180.04 29.1641C1180.1 29.105 1180.18 29.0718 1180.26 29.0718C1180.34 29.0718 1180.43 29.105 1180.48 29.1641L1180.83 29.5157C1180.89 29.5749 1180.93 29.6549 1180.93 29.7382C1180.93 29.8216 1180.89 29.9015 1180.83 29.9608L1174.9 35.903C1174.68 36.1264 1174.32 36.1265 1174.1 35.9034Z" fill="black"/>
<path d="M1179.11 28.8529H1181.21V30.9504" stroke="black" stroke-linecap="round" stroke-linejoin="round"/>
<defs>
<clipPath id="clip0_5152_228736">
<rect width="1232" height="72" rx="12" fill="white"/>
</clipPath>
</defs>
</svg>
