<svg width="41" height="40" viewBox="0 0 41 40" fill="none" xmlns="http://www.w3.org/2000/svg">
<g filter="url(#filter0_d_4149_242290)">
<rect x="4.16211" y="4" width="32" height="32" rx="6" fill="white"/>
<path d="M27.375 24.8447C27.2092 24.8447 27.0503 24.9006 26.9331 25C26.8158 25.0994 26.75 25.2343 26.75 25.3749V28.0255C26.75 28.1661 26.6841 28.301 26.5669 28.4004C26.4497 28.4998 26.2908 28.5557 26.125 28.5557H14.875C14.7092 28.5557 14.5503 28.4998 14.4331 28.4004C14.3158 28.301 14.25 28.1661 14.25 28.0255V25.3749C14.25 25.2343 14.1842 25.0994 14.0669 25C13.9497 24.9006 13.7908 24.8447 13.625 24.8447C13.4592 24.8447 13.3003 24.9006 13.1831 25C13.0658 25.0994 13 25.2343 13 25.3749V28.0255C13.0006 28.4472 13.1983 28.8514 13.5498 29.1496C13.9013 29.4477 14.3779 29.6154 14.875 29.6159H26.125C26.6221 29.6154 27.0987 29.4477 27.4502 29.1496C27.8017 28.8514 27.9994 28.4472 28 28.0255V25.3749C28 25.2343 27.9341 25.0994 27.8169 25C27.6997 24.9006 27.5408 24.8447 27.375 24.8447Z" fill="#8838FF"/>
<path d="M24.4331 10.466C24.2594 10.3178 24.0528 10.2003 23.8252 10.1203C23.5976 10.0403 23.3535 9.99943 23.1072 10H14.875C14.3779 10.0005 13.9013 10.1682 13.5498 10.4664C13.1983 10.7645 13.0006 11.1688 13 11.5904V18.4821C13 18.6227 13.0658 18.7576 13.1831 18.857C13.3003 18.9564 13.4592 19.0123 13.625 19.0123C13.7908 19.0123 13.9497 18.9564 14.0669 18.857C14.1842 18.7576 14.25 18.6227 14.25 18.4821V11.5904C14.25 11.4498 14.3158 11.315 14.4331 11.2155C14.5503 11.1161 14.7092 11.0603 14.875 11.0603H22.375V13.1808C22.3756 13.6025 22.5733 14.0067 22.9248 14.3048C23.2763 14.603 23.7529 14.7707 24.25 14.7712H26.75V18.4821C26.75 18.6227 26.8158 18.7576 26.9331 18.857C27.0503 18.9564 27.2092 19.0123 27.375 19.0123C27.5408 19.0123 27.6997 18.9564 27.8169 18.857C27.9341 18.7576 28 18.6227 28 18.4821V14.1501C28.0007 13.9412 27.9525 13.7342 27.8582 13.5411C27.7639 13.3481 27.6253 13.1728 27.4506 13.0255L24.4331 10.466ZM24.25 13.7109C24.0842 13.7109 23.9253 13.6551 23.8081 13.5557C23.6908 13.4562 23.625 13.3214 23.625 13.1808V11.2797L26.4912 13.7109H24.25Z" fill="#8838FF"/>
<path d="M25.5002 22.9884H24.2502C24.0845 22.9884 23.9255 23.0443 23.8083 23.1437C23.6911 23.2431 23.6252 23.3779 23.6252 23.5185C23.6252 23.6591 23.6911 23.794 23.8083 23.8934C23.9255 23.9928 24.0845 24.0487 24.2502 24.0487H25.5002C25.9146 24.0487 26.3121 23.909 26.6051 23.6605C26.8981 23.412 27.0627 23.0748 27.0627 22.7233C27.0627 22.3718 26.8981 22.0347 26.6051 21.7862C26.3121 21.5376 25.9146 21.398 25.5002 21.398H25.1877C25.1049 21.398 25.0254 21.3701 24.9668 21.3204C24.9082 21.2707 24.8752 21.2032 24.8752 21.1329C24.8752 21.0626 24.9082 20.9952 24.9668 20.9455C25.0254 20.8958 25.1049 20.8679 25.1877 20.8679H26.4377C26.6035 20.8679 26.7625 20.812 26.8797 20.7126C26.9969 20.6132 27.0627 20.4783 27.0627 20.3377C27.0627 20.1971 26.9969 20.0623 26.8797 19.9629C26.7625 19.8635 26.6035 19.8076 26.4377 19.8076H25.1877C24.7733 19.8076 24.3759 19.9472 24.0829 20.1958C23.7899 20.4443 23.6252 20.7814 23.6252 21.1329C23.6252 21.4844 23.7899 21.8216 24.0829 22.0701C24.3759 22.3186 24.7733 22.4583 25.1877 22.4583H25.5002C25.5831 22.4583 25.6626 22.4862 25.7212 22.5359C25.7798 22.5856 25.8127 22.653 25.8127 22.7233C25.8127 22.7936 25.7798 22.8611 25.7212 22.9108C25.6626 22.9605 25.5831 22.9884 25.5002 22.9884Z" fill="#8838FF"/>
<path d="M20.8127 23.5185V22.4583H21.4377C21.8521 22.4583 22.2496 22.3186 22.5426 22.0701C22.8356 21.8216 23.0002 21.4844 23.0002 21.1329C23.0002 20.7814 22.8356 20.4443 22.5426 20.1958C22.2496 19.9472 21.8521 19.8076 21.4377 19.8076H20.1877C20.022 19.8076 19.863 19.8635 19.7458 19.9629C19.6286 20.0623 19.5627 20.1971 19.5627 20.3377V23.5185C19.5627 23.6591 19.6286 23.794 19.7458 23.8934C19.863 23.9928 20.022 24.0487 20.1877 24.0487C20.3535 24.0487 20.5125 23.9928 20.6297 23.8934C20.7469 23.794 20.8127 23.6591 20.8127 23.5185ZM20.8127 20.8679H21.4377C21.5206 20.8679 21.6001 20.8958 21.6587 20.9455C21.7173 20.9952 21.7502 21.0626 21.7502 21.1329C21.7502 21.2032 21.7173 21.2707 21.6587 21.3204C21.6001 21.3701 21.5206 21.398 21.4377 21.398H20.8127V20.8679Z" fill="#8838FF"/>
<path d="M15.1203 24.045C15.2559 24.0572 15.3924 24.0316 15.5093 23.972C15.6261 23.9125 15.7169 23.8223 15.7678 23.715L16.4375 22.2948L17.1072 23.715C17.1579 23.8225 17.2486 23.9129 17.3655 23.9726C17.4824 24.0322 17.6191 24.0578 17.7547 24.0453C17.8904 24.0329 18.0175 23.9831 18.1167 23.9037C18.2159 23.8242 18.2817 23.7194 18.3041 23.6053L18.9291 20.4245C18.9535 20.2869 18.9132 20.1467 18.8168 20.0341C18.7204 19.9215 18.5757 19.8455 18.4139 19.8227C18.2521 19.7998 18.0861 19.8318 17.9519 19.9117C17.8176 19.9917 17.7258 20.1132 17.6963 20.2501L17.4385 21.5622L17.0182 20.6705C16.9718 20.572 16.8917 20.4876 16.7883 20.4281C16.6848 20.3687 16.5627 20.3369 16.4377 20.3369C16.3127 20.3369 16.1906 20.3687 16.0871 20.4281C15.9836 20.4876 15.9036 20.572 15.8572 20.6705L15.4375 21.5622L15.1797 20.2501C15.1502 20.1132 15.0584 19.9917 14.9241 19.9117C14.7899 19.8318 14.6239 19.7998 14.4621 19.8227C14.3003 19.8455 14.1556 19.9215 14.0592 20.0341C13.9628 20.1467 13.9225 20.2869 13.9469 20.4245L14.5719 23.6053C14.5943 23.7193 14.66 23.8239 14.759 23.9033C14.858 23.9827 14.9849 24.0325 15.1203 24.045Z" fill="#8838FF"/>
</g>
<defs>
<filter id="filter0_d_4149_242290" x="0.162109" y="0" width="40" height="40" filterUnits="userSpaceOnUse" color-interpolation-filters="sRGB">
<feFlood flood-opacity="0" result="BackgroundImageFix"/>
<feColorMatrix in="SourceAlpha" type="matrix" values="0 0 0 0 0 0 0 0 0 0 0 0 0 0 0 0 0 0 127 0" result="hardAlpha"/>
<feOffset/>
<feGaussianBlur stdDeviation="2"/>
<feComposite in2="hardAlpha" operator="out"/>
<feColorMatrix type="matrix" values="0 0 0 0 0 0 0 0 0 0 0 0 0 0 0 0 0 0 0.25 0"/>
<feBlend mode="normal" in2="BackgroundImageFix" result="effect1_dropShadow_4149_242290"/>
<feBlend mode="normal" in="SourceGraphic" in2="effect1_dropShadow_4149_242290" result="shape"/>
</filter>
</defs>
</svg>
