<svg width="173" height="45" viewBox="0 0 173 45" fill="none" xmlns="http://www.w3.org/2000/svg">
<g clip-path="url(#clip0_111_304)">
<path fill-rule="evenodd" clip-rule="evenodd" d="M172.674 34.8167V26.5619C172.674 23.4493 171.542 20.9522 169.795 19.19C167.86 17.2395 165.175 16.1865 162.44 16.1865C159.81 16.1865 157.131 17.1625 155.027 19.2559C153.002 21.2716 152.008 23.705 152.008 26.5619C152.008 29.4151 152.956 31.8814 154.949 33.9323C156.9 35.9399 159.254 36.954 162.054 36.954C164.207 36.954 166.077 36.2132 167.706 34.816L168.156 34.4283L168.239 35.0167C168.315 35.5435 168.551 35.9934 168.912 36.3796C169.28 36.7701 169.72 36.954 170.254 36.954C170.906 36.954 171.459 36.7247 171.946 36.2968C172.391 35.9055 172.674 35.4204 172.674 34.8167ZM144.328 34.6526V24.7139C144.328 23.5225 144.749 22.4806 145.596 21.6468C146.449 20.8071 147.51 20.4026 148.715 20.4026H150.347C151.33 20.4026 152.104 19.7454 152.205 18.7569C152.322 17.6197 151.589 16.8724 150.578 16.5001C150.099 16.3243 149.268 16.2518 148.756 16.2518C146.261 16.2518 144.151 17.1391 142.386 18.9079C140.629 20.6671 139.735 22.7649 139.735 25.2466V34.6526C139.735 35.2908 139.967 35.8198 140.416 36.2689C140.868 36.7203 141.392 36.954 142.032 36.954C142.672 36.954 143.194 36.721 143.646 36.2689C144.096 35.8183 144.328 35.2922 144.328 34.6526ZM126.854 16.2518C124.733 16.2518 122.809 16.8409 121.259 18.3356L120.706 18.8683V10.338C120.706 9.69684 120.474 9.17148 120.023 8.72013C119.573 8.2695 119.047 8.03723 118.408 8.03723C117.771 8.03723 117.244 8.27024 116.794 8.72013C116.343 9.17222 116.112 9.69611 116.112 10.338V34.8167C116.112 35.4241 116.34 35.9121 116.784 36.3217C117.247 36.7481 117.781 36.954 118.408 36.954C119.037 36.954 119.57 36.7481 120.034 36.3217C120.475 35.9136 120.706 35.4226 120.706 34.8167V26.397C120.706 24.8004 121.171 23.3328 122.245 22.1333C123.322 20.9324 124.727 20.4026 126.322 20.4026C127.978 20.4026 129.399 20.999 130.536 22.2102C131.676 23.4258 132.224 24.8993 132.224 26.5619V34.6526C132.224 35.2937 132.456 35.8183 132.907 36.2704C133.357 36.721 133.883 36.954 134.521 36.954C135.162 36.954 135.687 36.721 136.137 36.2689C136.586 35.8205 136.819 35.29 136.819 34.6526V26.5619C136.819 23.7328 135.874 21.2855 133.899 19.2522C131.967 17.2644 129.628 16.2518 126.854 16.2518ZM64.5408 26.5619V34.6526C64.5408 35.2952 64.7712 35.8168 65.2239 36.2704C65.6745 36.7218 66.1982 36.954 66.8383 36.954C67.4805 36.954 67.9998 36.7218 68.4526 36.2689C68.9039 35.8161 69.135 35.2959 69.135 34.6526V26.5619C69.135 23.6947 68.1198 21.2636 66.0768 19.2574C64.0251 17.2417 61.5593 16.2518 58.6796 16.2518C55.7925 16.2518 53.3136 17.2211 51.2611 19.2376C49.2167 21.246 48.2234 23.6837 48.2234 26.5619V34.6526C48.2234 35.2959 48.4545 35.8161 48.9066 36.2689C49.3586 36.7218 49.8787 36.954 50.5202 36.954C51.1602 36.954 51.6839 36.7218 52.1352 36.2704C52.5902 35.8139 52.8177 35.2739 52.8177 34.6526V26.5619C52.8177 24.8927 53.3575 23.4295 54.4839 22.2124C55.6097 20.9976 57.0214 20.4026 58.6796 20.4026C60.3385 20.4026 61.7488 20.9976 62.8745 22.2124C63.9856 23.4112 64.5408 24.8619 64.5408 26.5619ZM111.021 32.7607H108.644C107.949 32.7607 107.289 32.4852 106.799 31.9935C106.308 31.5026 106.031 30.8424 106.031 30.1463V20.854H111.513C112.092 20.854 112.573 20.6525 112.987 20.2495C113.409 19.8392 113.606 19.3453 113.606 18.7591C113.606 18.1707 113.409 17.6784 112.987 17.2673C112.572 16.8643 112.092 16.6621 111.513 16.6621H106.031V10.2969C106.031 9.66241 105.792 9.14071 105.334 8.70547C104.883 8.27756 104.36 8.03723 103.734 8.03723C103.096 8.03723 102.555 8.26804 102.093 8.70547C101.634 9.14144 101.396 9.66167 101.396 10.2969V16.6621H98.0422C97.4578 16.6621 96.9831 16.8716 96.5713 17.2842C96.1609 17.6959 95.9503 18.1744 95.9503 18.7591C95.9503 19.3438 96.1375 19.8362 96.5515 20.2517C96.9648 20.6657 97.4607 20.854 98.0422 20.854H101.396V30.0855C101.396 31.9759 102.166 33.6942 103.408 34.9376C104.649 36.1817 106.365 36.954 108.252 36.954H111.021C111.603 36.954 112.099 36.7665 112.513 36.3525C112.925 35.9385 113.114 35.441 113.114 34.8584C113.114 34.2642 112.912 33.7652 112.513 33.3652C112.099 32.9512 111.603 32.7607 111.021 32.7607ZM84.9491 12.2291C85.5292 12.2291 86.0273 12.0415 86.4406 11.6276C86.8553 11.2121 87.0418 10.7183 87.0418 10.1328C87.0418 9.55176 86.8546 9.05205 86.4413 8.63953C86.0273 8.22554 85.5321 8.03723 84.9491 8.03723H82.3854C80.4975 8.03723 78.783 8.80879 77.5409 10.0529C76.2989 11.2971 75.5287 13.0146 75.5287 14.9057V16.6621H72.2986C71.7163 16.6621 71.2212 16.8504 70.8071 17.2651C70.407 17.6659 70.2059 18.1642 70.2059 18.7591C70.2059 19.3424 70.3931 19.8384 70.8071 20.2539C71.2212 20.6664 71.7171 20.854 72.2986 20.854H75.5287V34.6526C75.5287 35.2959 75.7606 35.8161 76.2119 36.2689C76.6639 36.7218 77.1862 36.954 77.8262 36.954C78.4677 36.954 78.99 36.7218 79.442 36.2689C79.8926 35.819 80.123 35.2915 80.123 34.6526V20.854H85.5636C86.148 20.854 86.6403 20.6671 87.055 20.2517C87.4697 19.837 87.657 19.3424 87.657 18.7591C87.657 18.1729 87.4697 17.6806 87.055 17.2651C86.641 16.8497 86.1465 16.6621 85.5636 16.6621H80.123V14.8449C80.123 14.1254 80.417 13.4718 80.8888 12.9977C81.3804 12.5061 82.0394 12.2291 82.735 12.2291H84.9491ZM42.0272 8.03723C40.4414 8.03723 39.1562 9.32535 39.1562 10.9132C39.1562 12.5017 40.4414 13.7891 42.0272 13.7891C43.613 13.7891 44.8989 12.5017 44.8989 10.9132C44.8989 9.32535 43.613 8.03723 42.0272 8.03723ZM44.324 34.6526V18.9636C44.324 18.3217 44.0929 17.7978 43.6423 17.3457C43.191 16.8951 42.6665 16.6621 42.0272 16.6621C41.3857 16.6621 40.8649 16.8936 40.4136 17.3464C39.963 17.7993 39.7297 18.3224 39.7297 18.9636V34.6526C39.7297 35.2959 39.9616 35.8161 40.4136 36.2689C40.8649 36.7218 41.3857 36.954 42.0272 36.954C42.6665 36.954 43.191 36.7218 43.6423 36.2704C44.0972 35.8139 44.324 35.2739 44.324 34.6526ZM91.5981 8.03723C90.013 8.03723 88.7279 9.32535 88.7279 10.9132C88.7279 12.5017 90.013 13.7891 91.5981 13.7891C93.1846 13.7891 94.4698 12.5017 94.4698 10.9132C94.4698 9.32535 93.1846 8.03723 91.5981 8.03723ZM93.8956 34.6526V18.9636C93.8956 18.3217 93.6652 17.7978 93.2132 17.3457C92.7626 16.8951 92.2389 16.6621 91.5981 16.6621C90.9566 16.6621 90.4365 16.8936 89.9845 17.3464C89.5347 17.7993 89.302 18.3224 89.302 18.9636V34.6526C89.302 35.2959 89.5325 35.8161 89.9845 36.2689C90.4365 36.7218 90.9566 36.954 91.5981 36.954C92.2389 36.954 92.7626 36.7218 93.2132 36.2704C93.6681 35.8139 93.8956 35.2739 93.8956 34.6526ZM166.76 31.0366C165.603 32.2683 164.143 32.8435 162.465 32.8435C160.752 32.8435 159.282 32.2243 158.106 30.975C156.947 29.7404 156.356 28.2566 156.356 26.5619C156.356 24.8817 156.962 23.428 158.131 22.2271C159.314 21.013 160.771 20.4026 162.465 20.4026C164.124 20.4026 165.588 20.9448 166.756 22.145C167.941 23.3621 168.449 24.8795 168.449 26.5619C168.449 28.2588 167.929 29.7888 166.76 31.0366Z" fill="white"/>
<mask id="mask0_111_304" style="mask-type:luminance" maskUnits="userSpaceOnUse" x="10" y="27" width="14" height="19">
<path d="M10.1123 27.1986H23.969V45.0184H10.1123V27.1986Z" fill="white"/>
</mask>
<g mask="url(#mask0_111_304)">
<mask id="mask1_111_304" style="mask-type:luminance" maskUnits="userSpaceOnUse" x="10" y="27" width="14" height="18">
<path d="M14.8462 30.5061C11.9021 32.2075 10.2168 35.1303 10.2168 38.5374V45L20.4331 39.0906L20.504 39.0496C22.6545 37.8062 23.8863 35.6696 23.887 33.1827C23.887 30.6937 22.6545 28.5592 20.504 27.3143L20.4353 27.2748L14.8462 30.5061Z" fill="white"/>
</mask>
<g mask="url(#mask1_111_304)">
<path d="M10.2168 27.2748V45H23.887V27.2748H10.2168Z" fill="url(#paint0_linear_111_304)"/>
<path d="M10.2168 27.2748V45H23.887V27.2748H10.2168Z" fill="url(#paint1_linear_111_304)"/>
</g>
</g>
<mask id="mask2_111_304" style="mask-type:luminance" maskUnits="userSpaceOnUse" x="-1" y="0" width="32" height="40">
<path d="M-0.186523 0H30.7102V39.2034H-0.186523V0Z" fill="white"/>
</mask>
<g mask="url(#mask2_111_304)">
<mask id="mask3_111_304" style="mask-type:luminance" maskUnits="userSpaceOnUse" x="0" y="0" width="31" height="40">
<path d="M17.7474 6.46259C17.7474 10.0317 20.6351 12.9252 24.1988 12.9252C27.761 12.9252 30.6503 10.0317 30.6503 6.46259C30.6503 2.89278 27.761 0 24.1988 0C20.6351 0 17.7474 2.89278 17.7474 6.46259ZM0 10.1027C0 13.5077 1.68455 16.4305 4.62793 18.1334L20.4355 27.2748L20.5042 27.3143C22.6547 28.5592 23.8872 30.6936 23.8872 33.1827C23.8865 35.6402 22.684 37.7549 20.581 39.0049L25.5381 36.1392C28.8136 34.2444 30.6803 30.9765 30.6495 27.1883C30.6203 23.4668 28.7638 20.2751 25.5403 18.4096L0 3.63869V10.1027ZM20.4333 39.0906L20.5042 39.0496C20.5305 39.0349 20.5562 39.0195 20.581 39.0049L20.4333 39.0906Z" fill="white"/>
</mask>
<g mask="url(#mask3_111_304)">
<path d="M0 0V39.0906H30.6803V0H0Z" fill="url(#paint2_linear_111_304)"/>
</g>
</g>
<mask id="mask4_111_304" style="mask-type:luminance" maskUnits="userSpaceOnUse" x="-1" y="0" width="32" height="40">
<path d="M-0.186523 0H30.7102V39.2034H-0.186523V0Z" fill="white"/>
</mask>
<g mask="url(#mask4_111_304)">
<mask id="mask5_111_304" style="mask-type:luminance" maskUnits="userSpaceOnUse" x="0" y="0" width="31" height="40">
<path d="M17.7474 6.46259C17.7474 10.0317 20.6351 12.9252 24.1988 12.9252C27.761 12.9252 30.6503 10.0317 30.6503 6.46259C30.6503 2.89278 27.761 0 24.1988 0C20.6351 0 17.7474 2.89278 17.7474 6.46259ZM0 10.1027C0 13.5077 1.68455 16.4305 4.62793 18.1334L20.4355 27.2748L20.5042 27.3143C22.6547 28.5592 23.8872 30.6936 23.8872 33.1827C23.8865 35.6402 22.684 37.7549 20.581 39.0049L25.5381 36.1392C28.8136 34.2444 30.6803 30.9765 30.6495 27.1883C30.6203 23.4668 28.7638 20.2751 25.5403 18.4096L0 3.63869V10.1027ZM20.4333 39.0906L20.5042 39.0496C20.5305 39.0349 20.5554 39.0195 20.581 39.0049L20.4333 39.0906Z" fill="white"/>
</mask>
<g mask="url(#mask5_111_304)">
<path d="M0 0V39.0906H30.6803V0H0Z" fill="url(#paint3_linear_111_304)"/>
</g>
</g>
</g>
<defs>
<linearGradient id="paint0_linear_111_304" x1="10.2169" y1="36.1373" x2="23.8867" y2="36.1373" gradientUnits="userSpaceOnUse">
<stop stop-color="#3A86FF"/>
<stop offset="0.0078125" stop-color="#3A86FF"/>
<stop offset="0.015625" stop-color="#3A85FE"/>
<stop offset="0.0234375" stop-color="#3A84FD"/>
<stop offset="0.03125" stop-color="#3A83FC"/>
<stop offset="0.0390625" stop-color="#3A82FB"/>
<stop offset="0.046875" stop-color="#3B82FA"/>
<stop offset="0.0546875" stop-color="#3B81F9"/>
<stop offset="0.0625" stop-color="#3B80F8"/>
<stop offset="0.0703125" stop-color="#3B7FF7"/>
<stop offset="0.078125" stop-color="#3B7EF6"/>
<stop offset="0.0859375" stop-color="#3B7EF5"/>
<stop offset="0.09375" stop-color="#3B7DF4"/>
<stop offset="0.101562" stop-color="#3B7CF3"/>
<stop offset="0.109375" stop-color="#3B7BF2"/>
<stop offset="0.117188" stop-color="#3C7AF1"/>
<stop offset="0.125" stop-color="#3C7AF0"/>
<stop offset="0.132812" stop-color="#3C79EF"/>
<stop offset="0.140625" stop-color="#3C78EE"/>
<stop offset="0.148438" stop-color="#3C77ED"/>
<stop offset="0.15625" stop-color="#3C76EC"/>
<stop offset="0.164062" stop-color="#3C76EB"/>
<stop offset="0.171875" stop-color="#3C75EA"/>
<stop offset="0.179688" stop-color="#3C74E9"/>
<stop offset="0.1875" stop-color="#3D73E8"/>
<stop offset="0.195312" stop-color="#3D72E7"/>
<stop offset="0.203125" stop-color="#3D72E6"/>
<stop offset="0.210938" stop-color="#3D71E6"/>
<stop offset="0.21875" stop-color="#3D70E5"/>
<stop offset="0.226562" stop-color="#3D6FE4"/>
<stop offset="0.234375" stop-color="#3D6EE3"/>
<stop offset="0.242188" stop-color="#3D6EE2"/>
<stop offset="0.25" stop-color="#3D6DE1"/>
<stop offset="0.257812" stop-color="#3E6CE0"/>
<stop offset="0.265625" stop-color="#3E6BDF"/>
<stop offset="0.273437" stop-color="#3E6BDE"/>
<stop offset="0.28125" stop-color="#3E6ADD"/>
<stop offset="0.289063" stop-color="#3E69DC"/>
<stop offset="0.296875" stop-color="#3E68DB"/>
<stop offset="0.304688" stop-color="#3E67DA"/>
<stop offset="0.3125" stop-color="#3E67D9"/>
<stop offset="0.320312" stop-color="#3E66D8"/>
<stop offset="0.328125" stop-color="#3F65D7"/>
<stop offset="0.335937" stop-color="#3F64D6"/>
<stop offset="0.34375" stop-color="#3F63D5"/>
<stop offset="0.351563" stop-color="#3F63D4"/>
<stop offset="0.359375" stop-color="#3F62D3"/>
<stop offset="0.367188" stop-color="#3F61D2"/>
<stop offset="0.375" stop-color="#3F60D1"/>
<stop offset="0.382812" stop-color="#3F5FD0"/>
<stop offset="0.390625" stop-color="#3F5FCF"/>
<stop offset="0.398437" stop-color="#405ECE"/>
<stop offset="0.40625" stop-color="#405DCE"/>
<stop offset="0.414063" stop-color="#405CCD"/>
<stop offset="0.421875" stop-color="#405BCC"/>
<stop offset="0.429688" stop-color="#405BCB"/>
<stop offset="0.4375" stop-color="#405ACA"/>
<stop offset="0.445312" stop-color="#4059C9"/>
<stop offset="0.453125" stop-color="#4058C8"/>
<stop offset="0.460937" stop-color="#4057C7"/>
<stop offset="0.46875" stop-color="#4157C6"/>
<stop offset="0.476563" stop-color="#4156C5"/>
<stop offset="0.484375" stop-color="#4155C4"/>
<stop offset="0.492188" stop-color="#4154C3"/>
<stop offset="0.5" stop-color="#4153C2"/>
<stop offset="0.507812" stop-color="#4153C1"/>
<stop offset="0.515625" stop-color="#4152C0"/>
<stop offset="0.523438" stop-color="#4151BF"/>
<stop offset="0.53125" stop-color="#4150BE"/>
<stop offset="0.539062" stop-color="#414FBD"/>
<stop offset="0.546875" stop-color="#424FBC"/>
<stop offset="0.554687" stop-color="#424EBB"/>
<stop offset="0.5625" stop-color="#424DBA"/>
<stop offset="0.570313" stop-color="#424CB9"/>
<stop offset="0.578125" stop-color="#424BB8"/>
<stop offset="0.585938" stop-color="#424BB7"/>
<stop offset="0.59375" stop-color="#424AB6"/>
<stop offset="0.601562" stop-color="#4249B5"/>
<stop offset="0.609375" stop-color="#4248B5"/>
<stop offset="0.617188" stop-color="#4347B4"/>
<stop offset="0.625" stop-color="#4347B3"/>
<stop offset="0.632812" stop-color="#4346B2"/>
<stop offset="0.640625" stop-color="#4345B1"/>
<stop offset="0.648438" stop-color="#4344B0"/>
<stop offset="0.65625" stop-color="#4343AF"/>
<stop offset="0.664062" stop-color="#4343AE"/>
<stop offset="0.671875" stop-color="#4342AD"/>
<stop offset="0.679687" stop-color="#4341AC"/>
<stop offset="0.6875" stop-color="#4440AB"/>
<stop offset="0.695313" stop-color="#443FAA"/>
<stop offset="0.703125" stop-color="#443FA9"/>
<stop offset="0.710938" stop-color="#443EA8"/>
<stop offset="0.71875" stop-color="#443DA7"/>
<stop offset="0.726562" stop-color="#443CA6"/>
<stop offset="0.734375" stop-color="#443BA5"/>
<stop offset="0.742188" stop-color="#443BA4"/>
<stop offset="0.75" stop-color="#443AA3"/>
<stop offset="0.757812" stop-color="#4539A2"/>
<stop offset="0.765625" stop-color="#4538A1"/>
<stop offset="0.773438" stop-color="#4538A0"/>
<stop offset="0.78125" stop-color="#45379F"/>
<stop offset="0.789062" stop-color="#45369E"/>
<stop offset="0.796875" stop-color="#45359D"/>
<stop offset="0.804687" stop-color="#45349C"/>
<stop offset="0.8125" stop-color="#45349C"/>
<stop offset="0.820313" stop-color="#45339B"/>
<stop offset="0.828125" stop-color="#46329A"/>
<stop offset="0.835938" stop-color="#463199"/>
<stop offset="0.84375" stop-color="#463098"/>
<stop offset="0.851562" stop-color="#463097"/>
<stop offset="0.859375" stop-color="#462F96"/>
<stop offset="0.867188" stop-color="#462E95"/>
<stop offset="0.875" stop-color="#462D94"/>
<stop offset="0.882812" stop-color="#462C93"/>
<stop offset="0.890625" stop-color="#462C92"/>
<stop offset="0.898438" stop-color="#472B91"/>
<stop offset="0.90625" stop-color="#472A90"/>
<stop offset="0.914062" stop-color="#47298F"/>
<stop offset="0.921875" stop-color="#47288E"/>
<stop offset="0.929687" stop-color="#47288D"/>
<stop offset="0.9375" stop-color="#47278C"/>
<stop offset="0.945313" stop-color="#47268B"/>
<stop offset="0.953125" stop-color="#47258A"/>
<stop offset="0.960938" stop-color="#472489"/>
<stop offset="0.96875" stop-color="#482488"/>
<stop offset="0.976562" stop-color="#482387"/>
<stop offset="0.984375" stop-color="#482286"/>
<stop offset="0.992188" stop-color="#482185"/>
<stop offset="1" stop-color="#482084"/>
</linearGradient>
<linearGradient id="paint1_linear_111_304" x1="10.2169" y1="36.1373" x2="23.8867" y2="36.1373" gradientUnits="userSpaceOnUse">
<stop stop-color="#3A86FF"/>
<stop offset="0.0078125" stop-color="#3A86FF"/>
<stop offset="0.015625" stop-color="#3A85FE"/>
<stop offset="0.0234375" stop-color="#3A84FD"/>
<stop offset="0.03125" stop-color="#3A83FC"/>
<stop offset="0.0390625" stop-color="#3A82FB"/>
<stop offset="0.046875" stop-color="#3B82FA"/>
<stop offset="0.0546875" stop-color="#3B81F9"/>
<stop offset="0.0625" stop-color="#3B80F8"/>
<stop offset="0.0703125" stop-color="#3B7FF7"/>
<stop offset="0.078125" stop-color="#3B7EF6"/>
<stop offset="0.0859375" stop-color="#3B7EF5"/>
<stop offset="0.09375" stop-color="#3B7DF4"/>
<stop offset="0.101562" stop-color="#3B7CF3"/>
<stop offset="0.109375" stop-color="#3B7BF2"/>
<stop offset="0.117188" stop-color="#3C7AF1"/>
<stop offset="0.125" stop-color="#3C7AF0"/>
<stop offset="0.132812" stop-color="#3C79EF"/>
<stop offset="0.140625" stop-color="#3C78EE"/>
<stop offset="0.148438" stop-color="#3C77ED"/>
<stop offset="0.15625" stop-color="#3C76EC"/>
<stop offset="0.164062" stop-color="#3C76EB"/>
<stop offset="0.171875" stop-color="#3C75EA"/>
<stop offset="0.179688" stop-color="#3C74E9"/>
<stop offset="0.1875" stop-color="#3D73E8"/>
<stop offset="0.195312" stop-color="#3D72E7"/>
<stop offset="0.203125" stop-color="#3D72E6"/>
<stop offset="0.210938" stop-color="#3D71E6"/>
<stop offset="0.21875" stop-color="#3D70E5"/>
<stop offset="0.226562" stop-color="#3D6FE4"/>
<stop offset="0.234375" stop-color="#3D6EE3"/>
<stop offset="0.242188" stop-color="#3D6EE2"/>
<stop offset="0.25" stop-color="#3D6DE1"/>
<stop offset="0.257812" stop-color="#3E6CE0"/>
<stop offset="0.265625" stop-color="#3E6BDF"/>
<stop offset="0.273437" stop-color="#3E6BDE"/>
<stop offset="0.28125" stop-color="#3E6ADD"/>
<stop offset="0.289063" stop-color="#3E69DC"/>
<stop offset="0.296875" stop-color="#3E68DB"/>
<stop offset="0.304688" stop-color="#3E67DA"/>
<stop offset="0.3125" stop-color="#3E67D9"/>
<stop offset="0.320312" stop-color="#3E66D8"/>
<stop offset="0.328125" stop-color="#3F65D7"/>
<stop offset="0.335937" stop-color="#3F64D6"/>
<stop offset="0.34375" stop-color="#3F63D5"/>
<stop offset="0.351563" stop-color="#3F63D4"/>
<stop offset="0.359375" stop-color="#3F62D3"/>
<stop offset="0.367188" stop-color="#3F61D2"/>
<stop offset="0.375" stop-color="#3F60D1"/>
<stop offset="0.382812" stop-color="#3F5FD0"/>
<stop offset="0.390625" stop-color="#3F5FCF"/>
<stop offset="0.398437" stop-color="#405ECE"/>
<stop offset="0.40625" stop-color="#405DCE"/>
<stop offset="0.414063" stop-color="#405CCD"/>
<stop offset="0.421875" stop-color="#405BCC"/>
<stop offset="0.429688" stop-color="#405BCB"/>
<stop offset="0.4375" stop-color="#405ACA"/>
<stop offset="0.445312" stop-color="#4059C9"/>
<stop offset="0.453125" stop-color="#4058C8"/>
<stop offset="0.460937" stop-color="#4057C7"/>
<stop offset="0.46875" stop-color="#4157C6"/>
<stop offset="0.476563" stop-color="#4156C5"/>
<stop offset="0.484375" stop-color="#4155C4"/>
<stop offset="0.492188" stop-color="#4154C3"/>
<stop offset="0.5" stop-color="#4153C2"/>
<stop offset="0.507812" stop-color="#4153C1"/>
<stop offset="0.515625" stop-color="#4152C0"/>
<stop offset="0.523438" stop-color="#4151BF"/>
<stop offset="0.53125" stop-color="#4150BE"/>
<stop offset="0.539062" stop-color="#414FBD"/>
<stop offset="0.546875" stop-color="#424FBC"/>
<stop offset="0.554687" stop-color="#424EBB"/>
<stop offset="0.5625" stop-color="#424DBA"/>
<stop offset="0.570313" stop-color="#424CB9"/>
<stop offset="0.578125" stop-color="#424BB8"/>
<stop offset="0.585938" stop-color="#424BB7"/>
<stop offset="0.59375" stop-color="#424AB6"/>
<stop offset="0.601562" stop-color="#4249B5"/>
<stop offset="0.609375" stop-color="#4248B5"/>
<stop offset="0.617188" stop-color="#4347B4"/>
<stop offset="0.625" stop-color="#4347B3"/>
<stop offset="0.632812" stop-color="#4346B2"/>
<stop offset="0.640625" stop-color="#4345B1"/>
<stop offset="0.648438" stop-color="#4344B0"/>
<stop offset="0.65625" stop-color="#4343AF"/>
<stop offset="0.664062" stop-color="#4343AE"/>
<stop offset="0.671875" stop-color="#4342AD"/>
<stop offset="0.679687" stop-color="#4341AC"/>
<stop offset="0.6875" stop-color="#4440AB"/>
<stop offset="0.695313" stop-color="#443FAA"/>
<stop offset="0.703125" stop-color="#443FA9"/>
<stop offset="0.710938" stop-color="#443EA8"/>
<stop offset="0.71875" stop-color="#443DA7"/>
<stop offset="0.726562" stop-color="#443CA6"/>
<stop offset="0.734375" stop-color="#443BA5"/>
<stop offset="0.742188" stop-color="#443BA4"/>
<stop offset="0.75" stop-color="#443AA3"/>
<stop offset="0.757812" stop-color="#4539A2"/>
<stop offset="0.765625" stop-color="#4538A1"/>
<stop offset="0.773438" stop-color="#4538A0"/>
<stop offset="0.78125" stop-color="#45379F"/>
<stop offset="0.789062" stop-color="#45369E"/>
<stop offset="0.796875" stop-color="#45359D"/>
<stop offset="0.804687" stop-color="#45349C"/>
<stop offset="0.8125" stop-color="#45349C"/>
<stop offset="0.820313" stop-color="#45339B"/>
<stop offset="0.828125" stop-color="#46329A"/>
<stop offset="0.835938" stop-color="#463199"/>
<stop offset="0.84375" stop-color="#463098"/>
<stop offset="0.851562" stop-color="#463097"/>
<stop offset="0.859375" stop-color="#462F96"/>
<stop offset="0.867188" stop-color="#462E95"/>
<stop offset="0.875" stop-color="#462D94"/>
<stop offset="0.882812" stop-color="#462C93"/>
<stop offset="0.890625" stop-color="#462C92"/>
<stop offset="0.898438" stop-color="#472B91"/>
<stop offset="0.90625" stop-color="#472A90"/>
<stop offset="0.914062" stop-color="#47298F"/>
<stop offset="0.921875" stop-color="#47288E"/>
<stop offset="0.929687" stop-color="#47288D"/>
<stop offset="0.9375" stop-color="#47278C"/>
<stop offset="0.945313" stop-color="#47268B"/>
<stop offset="0.953125" stop-color="#47258A"/>
<stop offset="0.960938" stop-color="#472489"/>
<stop offset="0.96875" stop-color="#482488"/>
<stop offset="0.976562" stop-color="#482387"/>
<stop offset="0.984375" stop-color="#482286"/>
<stop offset="0.992188" stop-color="#482185"/>
<stop offset="1" stop-color="#482084"/>
</linearGradient>
<linearGradient id="paint2_linear_111_304" x1="0.000356867" y1="19.545" x2="30.6799" y2="19.545" gradientUnits="userSpaceOnUse">
<stop stop-color="#FC1777"/>
<stop offset="0.0078125" stop-color="#FC1777"/>
<stop offset="0.015625" stop-color="#FC1876"/>
<stop offset="0.0234375" stop-color="#FC1975"/>
<stop offset="0.03125" stop-color="#FC1A74"/>
<stop offset="0.0390625" stop-color="#FC1B73"/>
<stop offset="0.046875" stop-color="#FC1C72"/>
<stop offset="0.0546875" stop-color="#FC1C71"/>
<stop offset="0.0625" stop-color="#FC1D70"/>
<stop offset="0.0703125" stop-color="#FC1E6F"/>
<stop offset="0.078125" stop-color="#FC1F6E"/>
<stop offset="0.0859375" stop-color="#FC206D"/>
<stop offset="0.09375" stop-color="#FC216C"/>
<stop offset="0.101562" stop-color="#FC216B"/>
<stop offset="0.109375" stop-color="#FC226A"/>
<stop offset="0.117187" stop-color="#FC236A"/>
<stop offset="0.125" stop-color="#FC2469"/>
<stop offset="0.132812" stop-color="#FC2568"/>
<stop offset="0.140625" stop-color="#FC2667"/>
<stop offset="0.148437" stop-color="#FC2666"/>
<stop offset="0.15625" stop-color="#FC2765"/>
<stop offset="0.164062" stop-color="#FC2864"/>
<stop offset="0.171875" stop-color="#FD2963"/>
<stop offset="0.179687" stop-color="#FD2A62"/>
<stop offset="0.1875" stop-color="#FD2A61"/>
<stop offset="0.195312" stop-color="#FD2B60"/>
<stop offset="0.203125" stop-color="#FD2C5F"/>
<stop offset="0.210937" stop-color="#FD2D5E"/>
<stop offset="0.21875" stop-color="#FD2E5D"/>
<stop offset="0.226562" stop-color="#FD2F5C"/>
<stop offset="0.234375" stop-color="#FD2F5C"/>
<stop offset="0.242187" stop-color="#FD305B"/>
<stop offset="0.25" stop-color="#FD315A"/>
<stop offset="0.257812" stop-color="#FD3259"/>
<stop offset="0.265625" stop-color="#FD3358"/>
<stop offset="0.273437" stop-color="#FD3457"/>
<stop offset="0.28125" stop-color="#FD3456"/>
<stop offset="0.289062" stop-color="#FD3555"/>
<stop offset="0.296875" stop-color="#FD3654"/>
<stop offset="0.304687" stop-color="#FD3753"/>
<stop offset="0.3125" stop-color="#FD3852"/>
<stop offset="0.320312" stop-color="#FD3951"/>
<stop offset="0.328125" stop-color="#FD3950"/>
<stop offset="0.335937" stop-color="#FD3A4F"/>
<stop offset="0.34375" stop-color="#FD3B4F"/>
<stop offset="0.351562" stop-color="#FD3C4E"/>
<stop offset="0.359375" stop-color="#FD3D4D"/>
<stop offset="0.367187" stop-color="#FD3E4C"/>
<stop offset="0.375" stop-color="#FD3E4B"/>
<stop offset="0.382812" stop-color="#FD3F4A"/>
<stop offset="0.390625" stop-color="#FD4049"/>
<stop offset="0.398438" stop-color="#FD4148"/>
<stop offset="0.40625" stop-color="#FD4247"/>
<stop offset="0.414062" stop-color="#FD4346"/>
<stop offset="0.421875" stop-color="#FD4345"/>
<stop offset="0.429687" stop-color="#FD4444"/>
<stop offset="0.4375" stop-color="#FD4543"/>
<stop offset="0.445312" stop-color="#FD4642"/>
<stop offset="0.453125" stop-color="#FD4741"/>
<stop offset="0.460937" stop-color="#FD4741"/>
<stop offset="0.46875" stop-color="#FD4840"/>
<stop offset="0.476562" stop-color="#FD493F"/>
<stop offset="0.484375" stop-color="#FD4A3E"/>
<stop offset="0.492187" stop-color="#FD4B3D"/>
<stop offset="0.5" stop-color="#FD4C3C"/>
<stop offset="0.507812" stop-color="#FE4C3B"/>
<stop offset="0.515625" stop-color="#FE4D3A"/>
<stop offset="0.523437" stop-color="#FE4E39"/>
<stop offset="0.53125" stop-color="#FE4F38"/>
<stop offset="0.539062" stop-color="#FE5037"/>
<stop offset="0.546875" stop-color="#FE5136"/>
<stop offset="0.554687" stop-color="#FE5135"/>
<stop offset="0.5625" stop-color="#FE5234"/>
<stop offset="0.570312" stop-color="#FE5334"/>
<stop offset="0.578125" stop-color="#FE5433"/>
<stop offset="0.585937" stop-color="#FE5532"/>
<stop offset="0.59375" stop-color="#FE5631"/>
<stop offset="0.601562" stop-color="#FE5630"/>
<stop offset="0.609375" stop-color="#FE572F"/>
<stop offset="0.617188" stop-color="#FE582E"/>
<stop offset="0.625" stop-color="#FE592D"/>
<stop offset="0.632812" stop-color="#FE5A2C"/>
<stop offset="0.640625" stop-color="#FE5B2B"/>
<stop offset="0.648437" stop-color="#FE5B2A"/>
<stop offset="0.65625" stop-color="#FE5C29"/>
<stop offset="0.664062" stop-color="#FE5D28"/>
<stop offset="0.671875" stop-color="#FE5E27"/>
<stop offset="0.679688" stop-color="#FE5F27"/>
<stop offset="0.6875" stop-color="#FE6026"/>
<stop offset="0.695312" stop-color="#FE6025"/>
<stop offset="0.703125" stop-color="#FE6124"/>
<stop offset="0.710937" stop-color="#FE6223"/>
<stop offset="0.71875" stop-color="#FE6322"/>
<stop offset="0.726562" stop-color="#FE6421"/>
<stop offset="0.734375" stop-color="#FE6520"/>
<stop offset="0.742187" stop-color="#FE651F"/>
<stop offset="0.75" stop-color="#FE661E"/>
<stop offset="0.757812" stop-color="#FE671D"/>
<stop offset="0.765625" stop-color="#FE681C"/>
<stop offset="0.773437" stop-color="#FE691B"/>
<stop offset="0.78125" stop-color="#FE691A"/>
<stop offset="0.789062" stop-color="#FE6A19"/>
<stop offset="0.796875" stop-color="#FE6B19"/>
<stop offset="0.804687" stop-color="#FE6C18"/>
<stop offset="0.8125" stop-color="#FE6D17"/>
<stop offset="0.820312" stop-color="#FE6E16"/>
<stop offset="0.828125" stop-color="#FE6E15"/>
<stop offset="0.835937" stop-color="#FE6F14"/>
<stop offset="0.84375" stop-color="#FF7013"/>
<stop offset="0.851562" stop-color="#FF7112"/>
<stop offset="0.859375" stop-color="#FF7211"/>
<stop offset="0.867187" stop-color="#FF7310"/>
<stop offset="0.875" stop-color="#FF730F"/>
<stop offset="0.882812" stop-color="#FF740E"/>
<stop offset="0.890625" stop-color="#FF750D"/>
<stop offset="0.898437" stop-color="#FF760C"/>
<stop offset="0.90625" stop-color="#FF770C"/>
<stop offset="0.914062" stop-color="#FF780B"/>
<stop offset="0.921875" stop-color="#FF780A"/>
<stop offset="0.929687" stop-color="#FF7909"/>
<stop offset="0.9375" stop-color="#FF7A08"/>
<stop offset="0.945312" stop-color="#FF7B07"/>
<stop offset="0.953125" stop-color="#FF7C06"/>
<stop offset="0.960937" stop-color="#FF7D05"/>
<stop offset="0.96875" stop-color="#FF7D04"/>
<stop offset="0.976562" stop-color="#FF7E03"/>
<stop offset="0.984375" stop-color="#FF7F02"/>
<stop offset="0.992187" stop-color="#FF8001"/>
<stop offset="1" stop-color="#FF8100"/>
</linearGradient>
<linearGradient id="paint3_linear_111_304" x1="0.000356867" y1="19.545" x2="30.6799" y2="19.545" gradientUnits="userSpaceOnUse">
<stop stop-color="#FC1777"/>
<stop offset="0.0078125" stop-color="#FC1777"/>
<stop offset="0.015625" stop-color="#FC1876"/>
<stop offset="0.0234375" stop-color="#FC1975"/>
<stop offset="0.03125" stop-color="#FC1A74"/>
<stop offset="0.0390625" stop-color="#FC1B73"/>
<stop offset="0.046875" stop-color="#FC1C72"/>
<stop offset="0.0546875" stop-color="#FC1C71"/>
<stop offset="0.0625" stop-color="#FC1D70"/>
<stop offset="0.0703125" stop-color="#FC1E6F"/>
<stop offset="0.078125" stop-color="#FC1F6E"/>
<stop offset="0.0859375" stop-color="#FC206D"/>
<stop offset="0.09375" stop-color="#FC216C"/>
<stop offset="0.101563" stop-color="#FC216B"/>
<stop offset="0.109375" stop-color="#FC226A"/>
<stop offset="0.117188" stop-color="#FC236A"/>
<stop offset="0.125" stop-color="#FC2469"/>
<stop offset="0.132813" stop-color="#FC2568"/>
<stop offset="0.140625" stop-color="#FC2567"/>
<stop offset="0.148438" stop-color="#FC2666"/>
<stop offset="0.15625" stop-color="#FC2765"/>
<stop offset="0.164063" stop-color="#FC2864"/>
<stop offset="0.171875" stop-color="#FD2963"/>
<stop offset="0.179688" stop-color="#FD2A62"/>
<stop offset="0.1875" stop-color="#FD2A61"/>
<stop offset="0.195313" stop-color="#FD2B60"/>
<stop offset="0.203125" stop-color="#FD2C5F"/>
<stop offset="0.210938" stop-color="#FD2D5E"/>
<stop offset="0.21875" stop-color="#FD2E5D"/>
<stop offset="0.226563" stop-color="#FD2F5D"/>
<stop offset="0.234375" stop-color="#FD2F5C"/>
<stop offset="0.242188" stop-color="#FD305B"/>
<stop offset="0.25" stop-color="#FD315A"/>
<stop offset="0.257813" stop-color="#FD3259"/>
<stop offset="0.265625" stop-color="#FD3358"/>
<stop offset="0.273438" stop-color="#FD3457"/>
<stop offset="0.28125" stop-color="#FD3456"/>
<stop offset="0.289062" stop-color="#FD3555"/>
<stop offset="0.296875" stop-color="#FD3654"/>
<stop offset="0.304688" stop-color="#FD3753"/>
<stop offset="0.3125" stop-color="#FD3852"/>
<stop offset="0.320312" stop-color="#FD3951"/>
<stop offset="0.328125" stop-color="#FD3950"/>
<stop offset="0.335938" stop-color="#FD3A4F"/>
<stop offset="0.34375" stop-color="#FD3B4F"/>
<stop offset="0.351562" stop-color="#FD3C4E"/>
<stop offset="0.359375" stop-color="#FD3D4D"/>
<stop offset="0.367188" stop-color="#FD3E4C"/>
<stop offset="0.375" stop-color="#FD3E4B"/>
<stop offset="0.382813" stop-color="#FD3F4A"/>
<stop offset="0.390625" stop-color="#FD4049"/>
<stop offset="0.398438" stop-color="#FD4148"/>
<stop offset="0.40625" stop-color="#FD4247"/>
<stop offset="0.414063" stop-color="#FD4246"/>
<stop offset="0.421875" stop-color="#FD4345"/>
<stop offset="0.429688" stop-color="#FD4444"/>
<stop offset="0.4375" stop-color="#FD4543"/>
<stop offset="0.445313" stop-color="#FD4642"/>
<stop offset="0.453125" stop-color="#FD4742"/>
<stop offset="0.460938" stop-color="#FD4741"/>
<stop offset="0.46875" stop-color="#FD4840"/>
<stop offset="0.476563" stop-color="#FD493F"/>
<stop offset="0.484375" stop-color="#FD4A3E"/>
<stop offset="0.492188" stop-color="#FD4B3D"/>
<stop offset="0.5" stop-color="#FD4C3C"/>
<stop offset="0.507813" stop-color="#FE4C3B"/>
<stop offset="0.515625" stop-color="#FE4D3A"/>
<stop offset="0.523438" stop-color="#FE4E39"/>
<stop offset="0.53125" stop-color="#FE4F38"/>
<stop offset="0.539063" stop-color="#FE5037"/>
<stop offset="0.546875" stop-color="#FE5136"/>
<stop offset="0.554688" stop-color="#FE5135"/>
<stop offset="0.5625" stop-color="#FE5235"/>
<stop offset="0.570313" stop-color="#FE5334"/>
<stop offset="0.578125" stop-color="#FE5433"/>
<stop offset="0.585938" stop-color="#FE5532"/>
<stop offset="0.59375" stop-color="#FE5631"/>
<stop offset="0.601563" stop-color="#FE5630"/>
<stop offset="0.609375" stop-color="#FE572F"/>
<stop offset="0.617188" stop-color="#FE582E"/>
<stop offset="0.625" stop-color="#FE592D"/>
<stop offset="0.632813" stop-color="#FE5A2C"/>
<stop offset="0.640625" stop-color="#FE5A2B"/>
<stop offset="0.648438" stop-color="#FE5B2A"/>
<stop offset="0.65625" stop-color="#FE5C29"/>
<stop offset="0.664063" stop-color="#FE5D28"/>
<stop offset="0.671875" stop-color="#FE5E28"/>
<stop offset="0.679688" stop-color="#FE5F27"/>
<stop offset="0.6875" stop-color="#FE5F26"/>
<stop offset="0.695313" stop-color="#FE6025"/>
<stop offset="0.703125" stop-color="#FE6124"/>
<stop offset="0.710938" stop-color="#FE6223"/>
<stop offset="0.71875" stop-color="#FE6322"/>
<stop offset="0.726563" stop-color="#FE6421"/>
<stop offset="0.734375" stop-color="#FE6420"/>
<stop offset="0.742188" stop-color="#FE651F"/>
<stop offset="0.75" stop-color="#FE661E"/>
<stop offset="0.757813" stop-color="#FE671D"/>
<stop offset="0.765625" stop-color="#FE681C"/>
<stop offset="0.773438" stop-color="#FE691B"/>
<stop offset="0.78125" stop-color="#FE691A"/>
<stop offset="0.789063" stop-color="#FE6A1A"/>
<stop offset="0.796875" stop-color="#FE6B19"/>
<stop offset="0.804688" stop-color="#FE6C18"/>
<stop offset="0.8125" stop-color="#FE6D17"/>
<stop offset="0.820312" stop-color="#FE6E16"/>
<stop offset="0.828125" stop-color="#FE6E15"/>
<stop offset="0.835938" stop-color="#FE6F14"/>
<stop offset="0.84375" stop-color="#FF7013"/>
<stop offset="0.851562" stop-color="#FF7112"/>
<stop offset="0.859375" stop-color="#FF7211"/>
<stop offset="0.867188" stop-color="#FF7310"/>
<stop offset="0.875" stop-color="#FF730F"/>
<stop offset="0.882812" stop-color="#FF740E"/>
<stop offset="0.890625" stop-color="#FF750D"/>
<stop offset="0.898438" stop-color="#FF760D"/>
<stop offset="0.90625" stop-color="#FF770C"/>
<stop offset="0.914062" stop-color="#FF770B"/>
<stop offset="0.921875" stop-color="#FF780A"/>
<stop offset="0.929688" stop-color="#FF7909"/>
<stop offset="0.9375" stop-color="#FF7A08"/>
<stop offset="0.945313" stop-color="#FF7B07"/>
<stop offset="0.953125" stop-color="#FF7C06"/>
<stop offset="0.960938" stop-color="#FF7C05"/>
<stop offset="0.96875" stop-color="#FF7D04"/>
<stop offset="0.976563" stop-color="#FF7E03"/>
<stop offset="0.984375" stop-color="#FF7F02"/>
<stop offset="0.992188" stop-color="#FF8001"/>
<stop offset="1" stop-color="#FF8100"/>
</linearGradient>
<clipPath id="clip0_111_304">
<rect width="172.674" height="45" fill="white"/>
</clipPath>
</defs>
</svg>
