<?xml version="1.0" encoding="iso-8859-1"?>
<!-- Generator: Adobe Illustrator 24.3.0, SVG Export Plug-In . SVG Version: 6.00 Build 0)  -->
<svg version="1.1" id="Layer_1" xmlns="http://www.w3.org/2000/svg" xmlns:xlink="http://www.w3.org/1999/xlink" x="0px" y="0px"
	 viewBox="0 0 512 512" style="enable-background:new 0 0 512 512;" xml:space="preserve">
<path d="M256,112c-30.878,0-56-25.122-56-56s25.122-56,56-56c30.879,0,56,25.122,56,56S286.879,112,256,112z M256,32
	c-13.234,0-24,10.766-24,24s10.766,24,24,24c13.233,0,24-10.766,24-24S269.233,32,256,32z"/>
<path d="M327.682,512.005c-17.575,0.002-32.975-11.94-38.821-30.913l-32.839-101.358l-32.773,101.293
	c-6.707,21.411-25.446,33.902-45.604,30.374c-10.865-1.899-20.636-8.389-26.807-17.806c-5.815-8.872-7.808-19.561-5.476-29.345
	l37.32-163.522l5.798-29.12c1.177-7.332,4.472-28.345,0.341-38.952c-1.273-3.304-3.873-7.125-13.6-10.857l-92.147-29.816
	c-0.044-0.015-0.089-0.029-0.134-0.044c-27.52-9.173-34.175-25.818-34.912-38.166c-0.768-13.049,4.385-25.09,14.137-33.048
	c9.65-7.876,22.718-10.63,34.958-7.365c0.41,0.109,0.815,0.235,1.215,0.376c0.852,0.301,86.375,30.223,157.663,30.223
	c71.266,0,155.788-29.772,156.634-30.073c0.355-0.126,0.72-0.242,1.084-0.343c12.479-3.466,24.667-1.341,34.309,5.988
	C458.028,127.134,464,139.552,464,152.75c0,26.412-23.321,34.898-34.529,38.976l-87.927,31.884
	c-11.511,4.328-16.411,8.838-17.493,10.824c-0.026,0.048-0.053,0.097-0.08,0.145c-1.135,2.035-4.502,10.701-0.319,36.965
	l5.797,29.113l37.36,163.683c0.018,0.076,0.034,0.152,0.051,0.229c2.208,10.372,0.152,20.933-5.788,29.737
	c-6.054,8.97-15.711,15.201-26.495,17.094C332.253,511.807,329.948,512.005,327.682,512.005z M256,304
	c7.369,0,13.784,5.031,15.539,12.188l5.76,23.479c1.297,5.289,2.803,10.582,4.478,15.736l37.564,115.943
	c0.028,0.088,0.057,0.176,0.083,0.264c0.295,0.968,3.062,9.415,9.619,8.27c2.275-0.399,4.281-1.667,5.502-3.477
	c0.726-1.074,1.488-2.826,1.033-5.091l-37.377-163.753c-0.033-0.146-0.064-0.29-0.094-0.437l-5.899-29.631
	c-0.038-0.194-0.073-0.391-0.105-0.587c-4.322-26.914-3.086-45.303,3.89-57.859c5.735-10.467,17.306-19.022,34.39-25.429
	c0.055-0.02,0.109-0.041,0.164-0.06l88-31.91C432,156.753,432,155.161,432,152.75c0-3.162-1.311-6.201-3.338-7.742
	c-0.954-0.724-2.596-1.573-5.942-0.746c-8.857,3.106-92.434,31.698-166.72,31.698c-73.959,0-158.022-28.468-167.564-31.785
	c-2.224-0.468-4.405,0.01-6.039,1.343c-1.219,0.995-2.628,2.906-2.425,6.363c0.088,1.477,0.325,5.433,13.023,9.679l92.46,29.917
	c0.242,0.079,0.482,0.163,0.72,0.252c16.665,6.285,27.291,15.891,32.484,29.367c6.487,16.659,4.14,38.617,1.368,55.88
	c-0.032,0.196-0.067,0.393-0.106,0.588l-5.9,29.63c-0.029,0.146-0.06,0.29-0.093,0.436l-37.39,163.829
	c-0.016,0.068-0.032,0.136-0.048,0.203c-0.299,1.234,0.116,2.876,1.11,4.392c1.323,2.019,3.399,3.448,5.554,3.825
	c6.106,1.07,8.867-6.202,9.568-8.455c0.018-0.057,0.036-0.113,0.054-0.169l36.9-114.05c2.056-6.349,3.898-12.854,5.478-19.341
	l5.305-21.669c1.752-7.158,8.167-12.193,15.537-12.195C255.997,304,256,304,256,304z"/>
</svg>
