<?xml version="1.0" encoding="iso-8859-1"?>
<!-- Generator: Adobe Illustrator 24.3.0, SVG Export Plug-In . SVG Version: 6.00 Build 0)  -->
<svg version="1.1" id="Layer_1" xmlns="http://www.w3.org/2000/svg" xmlns:xlink="http://www.w3.org/1999/xlink" x="0px" y="0px"
	 viewBox="0 0 512 512" style="enable-background:new 0 0 512 512;" xml:space="preserve">
<path d="M448,112c-66.82,17.92-119.55,32-192,32s-125.18-14.08-192-32l-16,51c48,20.53,96.71,35.16,147.2,53.2L144,496l56.4,16
	L246,336h20l45.6,176l56.4-16l-51.2-279.8C367.26,199.93,416,183.53,464,164L448,112z"/>
<path d="M256,112c-30.928,0-56-25.072-56-56s25.072-56,56-56s56,25.072,56,56C311.967,86.914,286.914,111.967,256,112z"/>
</svg>
