<?xml version="1.0" encoding="iso-8859-1"?>
<!-- Generator: Adobe Illustrator 24.3.0, SVG Export Plug-In . SVG Version: 6.00 Build 0)  -->
<svg version="1.1" id="Layer_1" xmlns="http://www.w3.org/2000/svg" xmlns:xlink="http://www.w3.org/1999/xlink" x="0px" y="0px"
	 viewBox="0 0 512 512" style="enable-background:new 0 0 512 512;" xml:space="preserve">
<path d="M256,112c-30.928,0-56-25.072-56-56s25.072-56,56-56s56,25.072,56,56C311.967,86.914,286.914,111.967,256,112z"/>
<path d="M432,112.8l-0.45,0.12l0,0l-0.42,0.13c-1,0.28-2,0.58-3,0.89c-18.61,5.46-108.93,30.92-172.56,30.92
	c-59.13,0-141.28-22-167.56-29.47c-2.615-1.011-5.286-1.873-8-2.58c-19-5-32,14.3-32,31.94c0,17.47,15.7,25.79,31.55,31.76v0.28
	l95.22,29.74c9.73,3.73,12.33,7.54,13.6,10.84c4.13,10.59,0.83,31.56-0.34,38.88l-5.8,45l-32.19,176.19
	c-0.1,0.48-0.19,0.97-0.27,1.47l-0.23,1.27l0,0c-2.32,16.15,9.54,31.82,32,31.82c19.6,0,28.25-13.53,32-31.94l0,0
	c0,0,28-157.57,42-157.57c14,0,42.84,157.57,42.84,157.57l0,0c3.75,18.41,12.4,31.94,32,31.94c22.52,0,34.38-15.74,32-31.94
	c-0.21-1.38-0.46-2.74-0.76-4.06L329,301.27l-5.79-45c-4.19-26.21-0.82-34.87,0.32-36.9c0.031-0.048,0.057-0.098,0.08-0.15
	c1.08-2,6-6.48,17.48-10.79l89.28-31.21c0.548-0.146,1.089-0.32,1.62-0.52c16-6,32-14.3,32-31.93S451,107.81,432,112.8z"/>
</svg>
