<?xml version="1.0" encoding="UTF-8"?>
<svg width="513px" height="478px" viewBox="0 0 513 478" version="1.1" xmlns="http://www.w3.org/2000/svg" xmlns:xlink="http://www.w3.org/1999/xlink">
    <title>Group</title>
    <g id="Page-1" stroke="none" stroke-width="1"  fill-rule="evenodd">
        <g id="Group" transform="translate(0.499982, -0.000645)"  fill-rule="nonzero">
            <path d="M487.299069,1.82471676 C498.64682,-3.85086139 511.999983,4.40073987 511.999983,17.0886727 L511.999983,256.021715 L477.866691,256.021715 L477.866691,44.7025057 L468.444554,49.4192745 C464.601,51.341628 460.212825,51.726533 456.151128,50.5738851 L453.179681,49.4211063 L426.598487,36.1350495 L399.816139,49.4464767 C395.976989,51.3494952 391.601283,51.7223467 387.552767,50.5668872 L384.591225,49.4137633 L358.161237,36.1691828 L331.939801,49.3998805 C328.072965,51.3461437 323.651028,51.7331119 319.563714,50.5613421 L316.574872,49.3902601 L290.37252,36.1691828 L263.498884,49.4549991 C259.662839,51.3511028 255.293148,51.7207215 251.250149,50.5661486 L248.292596,49.4144688 L221.83287,36.1691828 L195.366147,49.4201907 C191.522363,51.3420827 187.134143,51.7264611 183.072584,50.5733259 L180.101275,49.4201907 L170.667065,44.7025057 L170.667065,324.288299 L136.533773,324.288299 L136.533773,17.0886727 C136.533773,4.40163497 149.885224,-3.85001522 161.232855,1.82380054 L187.733711,15.0406752 L214.234567,1.82380054 C218.08157,-0.0997011945 222.473754,-0.483044591 226.537907,0.673443281 L229.510872,1.82952244 L255.966161,15.0748085 L282.901919,1.78899213 C286.75156,-0.113831339 291.137927,-0.479048028 295.191833,0.689653265 L298.156344,1.85373122 L324.266878,15.0406752 L350.501968,1.84411082 C354.355643,-0.0955279828 358.761339,-0.486750097 362.838068,0.67124291 L365.820168,1.83022798 L392.294529,15.0748085 L419.087117,1.79751456 C422.92213,-0.103453196 427.292757,-0.477635966 431.337943,0.673530029 L434.297358,1.82288498 L460.800045,15.0406752 L487.299069,1.82471676 Z" id="Path"></path>
            <path d="M102.401164,477.888112 C22.2951912,477.888112 0,436.764223 0,341.501353 C-0.037454416,336.989648 0.822293131,332.513781 2.5273135,328.347025 C4.23486882,324.167215 6.75744994,320.37352 9.95963052,317.167911 C13.1513711,313.978914 16.9466035,311.456529 21.1237272,309.749482 C25.3012815,308.042259 29.7771072,307.181222 34.1345808,307.221653 L324.266895,307.221653 C333.692543,307.221653 341.333541,314.862651 341.333541,324.288299 L341.333541,375.488237 C341.333541,393.592677 348.526445,410.956945 361.330629,423.761129 C374.13177,436.56227 391.496191,443.75482 409.600125,443.75482 C427.706038,443.75482 445.068192,436.563206 457.871713,423.762416 C470.674135,410.957263 477.866708,393.592085 477.866708,375.488237 L477.866708,256.021715 L512,256.021715 L512,375.488237 C512,402.643998 501.211924,428.689873 482.007595,447.898298 C462.800927,467.100869 436.758128,477.888112 409.600125,477.888112 L102.401164,477.888112 Z M307.200232,341.354945 L34.1338981,341.320811 C34.1338981,417.781256 45.9568482,442.137027 96.9817618,443.675827 L102.401164,443.75482 L333.312201,443.75482 L332.570141,442.956495 C317.748388,426.035154 308.908424,404.694775 307.423652,382.251117 L307.200249,375.488237 L307.200232,341.354945 Z" id="Path"></path>
            <path d="M426.666754,102.421902 C436.092402,102.421902 443.7334,110.0629 443.7334,119.488548 C443.7334,128.914196 436.092402,136.555194 426.666754,136.555194 L221.867003,136.555194 C212.441355,136.555194 204.800357,128.914196 204.800357,119.488548 C204.800357,110.0629 212.441355,102.421902 221.867003,102.421902 L426.666754,102.421902 Z" id="Path"></path>
            <path d="M426.666754,187.755132 C436.092402,187.755132 443.7334,195.396129 443.7334,204.821778 C443.7334,214.247426 436.092402,221.888423 426.666754,221.888423 L290.133587,221.888423 C280.707938,221.888423 273.066941,214.247426 273.066941,204.821778 C273.066941,195.396129 280.707938,187.755132 290.133587,187.755132 L426.666754,187.755132 Z" id="Path"></path>
        </g>
    </g>
</svg>