<svg width="38" height="38" viewBox="0 0 38 38"  xmlns="http://www.w3.org/2000/svg">
  <circle cx="19" cy="19" r="19" fill="url(#paint0_linear_644_20853)"/>
  <g opacity="0.8" fill="url(#paint0_linear_644_20853)">
    <path d="M26.112 17.5C25.9526 17.5 25.4187 17.5047 25.2682 17.5141L22.2261 17.5938C22.2102 17.5947 22.1945 17.5913 22.1805 17.5838C22.1665 17.5764 22.1549 17.5652 22.1468 17.5516L16.0728 10.1669C16.0359 10.1181 15.9889 10.0779 15.935 10.0491C15.8811 10.0203 15.8216 10.0035 15.7606 10H14.5001L17.922 17.5469C17.9302 17.5642 17.9337 17.5833 17.9322 17.6023C17.9308 17.6214 17.9244 17.6397 17.9137 17.6555C17.903 17.6714 17.8884 17.6842 17.8713 17.6926C17.8542 17.7011 17.8351 17.705 17.8161 17.7039L12.1118 17.7883C12.0525 17.7901 11.9935 17.7779 11.9398 17.7526C11.886 17.7274 11.839 17.6898 11.8025 17.643L10.0681 15.5336C9.92746 15.3508 9.66403 15.2523 9.43481 15.2523H8.55075C8.49028 15.2523 8.49918 15.3091 8.51559 15.3662L9.44559 18.7141C9.51589 18.8934 9.51589 19.0926 9.44559 19.2719L8.51465 22.6094C8.487 22.7008 8.49028 22.75 8.59762 22.75H9.43762C9.81918 22.75 9.87121 22.7003 10.0662 22.4547L11.8334 20.3125C11.8702 20.266 11.9173 20.2287 11.971 20.2035C12.0247 20.1783 12.0835 20.1659 12.1428 20.1672L17.7997 20.2938C17.8202 20.2942 17.8404 20.2997 17.8584 20.3097C17.8764 20.3198 17.8917 20.334 17.9029 20.3513C17.9141 20.3686 17.921 20.3884 17.9228 20.4089C17.9247 20.4294 17.9215 20.4501 17.9136 20.4691L14.5001 28H15.7489C15.8098 27.9964 15.8692 27.9797 15.923 27.951C15.9768 27.9223 16.0238 27.8822 16.0606 27.8336L22.1473 20.4531C22.1656 20.425 22.2411 20.4109 22.2734 20.4109L25.2687 20.4906C25.4234 20.5 25.9526 20.5047 26.1125 20.5047C28.1876 20.5047 29.5001 19.9342 29.5001 19C29.5001 18.0658 28.1932 17.5 26.112 17.5Z" stroke="#482084" stroke-width="1.5" stroke-linecap="round" stroke-linejoin="round"/>
  </g>
  <defs>
    <linearGradient id="paint0_linear_644_20853" x1="6" y1="-6" x2="34.5" y2="43" gradientUnits="userSpaceOnUse">
      <stop stop-color="#FF9A33"/>
      <stop offset="1" stop-color="#FFF2E6"/>
    </linearGradient>
  </defs>
</svg>
