<?xml version="1.0" encoding="iso-8859-1"?>
<!-- Generator: Adobe Illustrator 24.3.0, SVG Export Plug-In . SVG Version: 6.00 Build 0)  -->
<svg version="1.1" id="Layer_1" xmlns="http://www.w3.org/2000/svg" xmlns:xlink="http://www.w3.org/1999/xlink" x="0px" y="0px"
	 viewBox="0 0 512 512" style="enable-background:new 0 0 512 512;" xml:space="preserve">
<path d="M186.64,464H160c-5.437,0-10.502-2.761-13.448-7.331c-2.946-4.569-3.37-10.322-1.125-15.274l64.475-142.249l-96.759-2.165
	l-35.3,42.79C71.242,348.057,65.653,352,52,352H34.08c-8.243,0-12.75-4.415-14.703-7.047c-2.377-3.202-4.717-8.636-2.443-16.381
	l19.824-71.071c0.146-0.522,0.318-1.037,0.516-1.542c0.027-0.07,0.027-0.147,0-0.218c-0.2-0.51-0.374-1.031-0.521-1.559
	l-19.827-71.374c-2.155-7.609,0.195-12.932,2.552-16.061c3.207-4.256,8.164-6.698,13.601-6.698h18.86
	c10.232,0,20.16,4.588,25.997,11.994l34.577,42.052l97.322-1.439l-64.408-142.05c-2.245-4.952-1.822-10.706,1.124-15.276
	S154.562,48,160,48h26.89c0.309,0,0.618,0.009,0.927,0.027c7.193,0.417,13.82,3.896,18.248,9.562l125.218,152.237l57.769-1.513
	c4.239-0.23,15.956-0.312,18.668-0.312c55.278,0,88.28,17.944,88.28,48c0,9.459-3.776,26.993-29.071,38.161
	c-14.728,6.503-35.198,9.939-59.198,9.939c-2.69,0-14.375-0.082-18.664-0.312l-57.765-1.537L205.792,454.437
	c-4.426,5.648-11.043,9.118-18.221,9.536C187.261,463.992,186.951,464,186.64,464z M109.539,264.898c0.175,0,0.35,0.002,0.525,0.006
	l120.685,2.7c10.317,0.236,18.512,8.815,18.275,19.123c-0.05,2.329-0.536,4.619-1.443,6.787c-0.06,0.145-0.123,0.288-0.188,0.432
	l-60.132,132.667l123.273-149.476c5.019-6.508,12.898-7.037,15.296-7.037c0.142,0,0.284,0.002,0.426,0.006l63.9,1.7
	c0.181,0.005,0.362,0.013,0.543,0.023c2.53,0.153,12.838,0.271,17.031,0.271c39.764,0,56.27-10.486,56.27-16.1
	c0-5.579-16.509-16-56.28-16c-4.231,0-14.553,0.116-17.004,0.269c-0.192,0.012-0.385,0.021-0.577,0.026l-64.75,1.696
	c-5.946,0.227-11.539-2.482-15.028-7.229l-123.379-150l60.565,133.576c4.193,9.113,0.259,19.962-8.832,24.258
	c-2.501,1.183-5.273,1.811-8.035,1.757l-121.302,1.794c-7.483,0.183-14.71-3.193-19.382-9.052L53.188,192.33
	c-0.123-0.053-0.279-0.107-0.448-0.154l14.663,52.781c2.533,7.064,2.532,14.732-0.003,21.794l-14.852,53.247
	c0.046-0.001,0.092-0.001,0.136-0.002c0.076-0.095,0.142-0.178,0.195-0.245c0.062-0.078,0.125-0.156,0.189-0.233l37.626-45.61
	C95.266,268.238,102.264,264.898,109.539,264.898z M336.553,295.724c-0.005,0.007-0.009,0.013-0.013,0.02
	C336.544,295.737,336.548,295.731,336.553,295.724z M389.72,224.3h0.01H389.72z M336.915,216.978
	C336.915,216.978,336.915,216.978,336.915,216.978L336.915,216.978z M108.583,214.157c-0.006,0-0.013,0-0.019,0
	C108.57,214.157,108.576,214.157,108.583,214.157z M231.63,212.375c0.009,0,0.017,0.001,0.025,0.001
	C231.647,212.376,231.639,212.375,231.63,212.375z M52.768,191.805c0.002,0.002,0.004,0.005,0.006,0.008
	C52.772,191.81,52.77,191.808,52.768,191.805z M47.709,174.066c0.001,0.003,0.002,0.007,0.003,0.011
	C47.711,174.073,47.71,174.069,47.709,174.066z"/>
</svg>
