<?xml version="1.0" encoding="iso-8859-1"?>
<!-- Generator: Adobe Illustrator 24.3.0, SVG Export Plug-In . SVG Version: 6.00 Build 0)  -->
<svg version="1.1" id="Layer_1" xmlns="http://www.w3.org/2000/svg" xmlns:xlink="http://www.w3.org/1999/xlink" x="0px" y="0px"
	 viewBox="0 0 512 512" style="enable-background:new 0 0 512 512;" xml:space="preserve">
<path d="M407.72,208c-2.72,0-14.44,0.08-18.67,0.31l-57.77,1.52L198.06,48h-62.81l74.59,164.61l-97.31,1.44L68.25,160H16.14
	l20.61,94.18c0.15,0.54,0.33,1.07,0.53,1.59c0.015,0.049,0.015,0.101,0,0.15c-0.205,0.517-0.382,1.044-0.53,1.58L15.86,352h51.78
	l45.45-55l96.77,2.17L135.24,464h63l133-161.75l57.77,1.54c4.29,0.23,16,0.31,18.66,0.31c24.35,0,44.27-3.34,59.21-9.94
	C492.22,283,496,265.46,496,256C496,225.94,463,208,407.72,208z M336.43,295.9L336.43,295.9z"/>
</svg>
