<?xml version="1.0" encoding="iso-8859-1"?>
<!-- Generator: Adobe Illustrator 24.3.0, SVG Export Plug-In . SVG Version: 6.00 Build 0)  -->
<svg version="1.1" id="Layer_1" xmlns="http://www.w3.org/2000/svg" xmlns:xlink="http://www.w3.org/1999/xlink" x="0px" y="0px"
	 viewBox="0 0 512 512" style="enable-background:new 0 0 512 512;" xml:space="preserve">
<path d="M186.62,464H160c-8.837-0.003-15.998-7.169-15.995-16.005c0.001-2.275,0.486-4.523,1.425-6.595l64.46-142.25L113.1,297
	l-35.3,42.77C71.07,348.23,65.7,352,52,352H34.08c-5.758,0.185-11.245-2.45-14.7-7.06c-2.38-3.21-4.72-8.65-2.44-16.41l19.82-71
	c0.15-0.53,0.33-1.06,0.53-1.58c0.01-0.049,0.01-0.1,0-0.15c-0.207-0.52-0.383-1.05-0.53-1.59l-19.84-71.45
	c-2.15-7.61,0.2-12.93,2.56-16.06c3.214-4.264,8.26-6.751,13.6-6.7H52c10.23,0,20.16,4.59,26,12l34.57,42.05l97.32-1.44l-64.44-142
	c-3.651-8.047-0.086-17.53,7.961-21.181c2.07-0.939,4.316-1.426,6.589-1.429h26.91c7.605,0.153,14.727,3.76,19.35,9.8l125.05,152
	l57.77-1.52c4.23-0.23,15.95-0.31,18.66-0.31C463,208,496,225.94,496,256c0,9.46-3.78,27-29.07,38.16
	c-14.93,6.6-34.85,9.94-59.21,9.94c-2.68,0-14.37-0.08-18.66-0.31l-57.76-1.54l-125.36,152
	C201.313,460.263,194.206,463.85,186.62,464z"/>
</svg>
