<?xml version="1.0" encoding="iso-8859-1"?>
<!-- Generator: Adobe Illustrator 24.3.0, SVG Export Plug-In . SVG Version: 6.00 Build 0)  -->
<svg version="1.1" id="Layer_1" xmlns="http://www.w3.org/2000/svg" xmlns:xlink="http://www.w3.org/1999/xlink" x="0px" y="0px"
	 viewBox="0 0 512 512" style="enable-background:new 0 0 512 512;" xml:space="preserve">
<path d="M153.59,110.46c8.405-8.317,8.476-21.873,0.159-30.278c-0.407-0.411-0.83-0.805-1.269-1.182l0,0
	c-11.291-9.636-25.636-14.952-40.48-15l-3.27,0.09h-0.48C74.4,66.15,48,95.55,48.07,131c0,19,8,29.06,14.32,37.11
	c3.586,4.551,8.921,7.382,14.7,7.8c0.26,0,0.7,0.05,2,0.05c5.194-0.008,10.161-2.135,13.75-5.89L153.59,110.46z"/>
<path d="M403.79,64.11l-3.27-0.1H400c-14.858,0.039-29.218,5.355-40.52,15c-8.965,7.71-9.982,21.228-2.272,30.193
	c0.371,0.431,0.758,0.847,1.162,1.247l60.77,59.65c3.597,3.769,8.58,5.901,13.79,5.9c1.28,0,1.72,0,2-0.05
	c5.775-0.421,11.106-3.252,14.69-7.8c6.36-8.05,14.28-18.08,14.32-37.11C464,95.55,437.6,66.15,403.79,64.11z"/>
<path d="M256.07,96c-97,0-176,78.95-176,176c-0.034,41.148,14.413,80.995,40.81,112.56l-36.12,36.13
	c-6.338,6.158-6.484,16.287-0.326,22.625c6.158,6.338,16.287,6.484,22.625,0.326c0.112-0.109,0.222-0.219,0.331-0.331l36.12-36.12
	c65.175,54.415,159.945,54.415,225.12,0l36.13,36.12c6.155,6.34,16.285,6.491,22.625,0.336c6.34-6.155,6.491-16.285,0.336-22.625
	c-0.109-0.112-0.219-0.222-0.331-0.331l-36.13-36.13c26.402-31.562,40.849-71.411,40.81-112.56C432.07,175,353.12,96,256.07,96z
	 M272.07,272c0,8.837-7.163,16-16,16h-80c-8.837,0-16-7.163-16-16s7.163-16,16-16h64v-96c0-8.837,7.163-16,16-16
	c8.837,0,16,7.163,16,16V272z"/>
</svg>
