<?xml version="1.0" encoding="iso-8859-1"?>
<!-- Generator: Adobe Illustrator 24.3.0, SVG Export Plug-In . SVG Version: 6.00 Build 0)  -->
<svg version="1.1" id="Layer_1" xmlns="http://www.w3.org/2000/svg" xmlns:xlink="http://www.w3.org/1999/xlink" x="0px" y="0px"
	 viewBox="0 0 512 512" style="enable-background:new 0 0 512 512;" xml:space="preserve">
<path d="M403.79,64.11l-3.27-0.1H400c-14.73,0-28.55,5.91-40.52,15S344,96,344,96l88,86c0,0,11.25-5.71,17.61-13.85
	s14.28-18.08,14.32-37.11C464,95.55,437.6,66.15,403.79,64.11z"/>
<path d="M108.21,64.11l3.27-0.1H112c14.73,0,28.55,5.91,40.52,15S168,96,168,96l-88,86c0,0-11.25-5.71-17.61-13.85
	S48.11,150.07,48.07,131C48,95.55,74.4,66.15,108.21,64.11z"/>
<path d="M391.3,384.6c-0.02-0.023-0.02-0.057,0-0.08C425,344,441,288.24,427,229.23c-13.64-57.52-72.67-115.69-130.34-128.66
	C182,74.79,80.07,161.71,80.07,272c-0.04,41.132,14.396,80.965,40.78,112.52c0.02,0.023,0.02,0.057,0,0.08L73,432
	c-0.02,0.023-0.02,0.057,0,0.08l23,22.51c0.023,0.02,0.057,0.02,0.08,0l47.43-47.37c0.023-0.02,0.057-0.02,0.08,0
	c65.165,54.372,159.885,54.372,225.05,0 M368.71,407.22L416,454.59c0.023,0.02,0.057,0.02,0.08,0L440,432L368.71,407.22z
	 M272.07,288h-112 M160,288v-31.9 M160.05,256.05h80 M240.05,256V144h32L240.05,256z"/>
</svg>
