<?xml version="1.0" encoding="iso-8859-1"?>
<!-- Generator: Adobe Illustrator 24.3.0, SVG Export Plug-In . SVG Version: 6.00 Build 0)  -->
<svg version="1.1" id="Layer_1" xmlns="http://www.w3.org/2000/svg" xmlns:xlink="http://www.w3.org/1999/xlink" x="0px" y="0px"
	 viewBox="0 0 512 512" style="enable-background:new 0 0 512 512;" xml:space="preserve">
<path d="M256.07,448c-97.047,0-176-78.953-176-176s78.954-176,176-176s176,78.954,176,176S353.117,448,256.07,448z M256.07,128
	c-79.402,0-144,64.598-144,144c0,79.401,64.598,144,144,144c79.401,0,144-64.599,144-144C400.07,192.598,335.472,128,256.07,128z"/>
<path d="M79.214,176h-1.681l-0.655-0.054c-5.719-0.471-11.002-3.33-14.526-7.853C55.975,160.035,48.07,149.996,48.07,131
	c-0.092-35.451,26.341-64.852,60.178-66.891l0.503-0.022l3.058-0.087L112.077,64c14.821,0.072,29.185,5.417,40.445,15.053
	l0.083,0.072c4.442,3.854,7.108,9.436,7.314,15.313c0.234,5.819-2.011,11.613-6.164,15.812l-0.165,0.164l-60.263,59.192
	c-3.541,3.936-8.64,6.294-13.971,6.391L79.214,176z M109.948,96.065c-16.82,1.143-29.926,16.422-29.878,34.893
	c0,2.469,0.209,4.436,0.655,6.174l40.392-39.674c-2.877-0.92-5.894-1.418-8.953-1.457L109.948,96.065z"/>
<path d="M434.455,175.99l-1.813-0.002c-5.327-0.096-10.426-2.453-13.967-6.387l-60.431-59.35c-4.155-4.201-6.4-9.996-6.161-15.9
	c0.201-5.786,2.867-11.37,7.311-15.226l0.084-0.072c11.261-9.635,25.625-14.981,40.445-15.053l0.269-0.001l3.562,0.11
	c33.836,2.04,60.27,31.44,60.177,66.933c0,18.965-7.914,29.005-14.293,37.066c-3.53,4.517-8.819,7.368-14.538,7.83L434.455,175.99z
	 M390.885,97.458l40.395,39.67c0.442-1.727,0.65-3.681,0.65-6.128c0.048-18.513-13.058-33.792-29.878-34.935l-2.215-0.063
	C396.778,96.04,393.762,96.538,390.885,97.458z"/>
<path d="M256.07,288h-80c-8.836,0-16-7.163-16-16s7.164-16,16-16h64V160c0-8.836,7.164-16,16-16c8.837,0,16,7.164,16,16V272
	C272.07,280.837,264.907,288,256.07,288z"/>
<path d="M416.07,448c-4.095,0-8.189-1.562-11.313-4.687l-40-40c-6.249-6.248-6.249-16.379,0-22.627
	c6.248-6.248,16.379-6.248,22.627,0l40,40c6.249,6.248,6.249,16.379,0,22.627C424.26,446.438,420.165,448,416.07,448z"/>
<path d="M96.07,448c-4.095,0-8.189-1.562-11.313-4.687c-6.249-6.248-6.249-16.379,0-22.627l40-40c6.248-6.248,16.379-6.248,22.627,0
	c6.249,6.248,6.249,16.379,0,22.627l-40,40C104.259,446.438,100.165,448,96.07,448z"/>
</svg>
