<?xml version="1.0" encoding="iso-8859-1"?>
<!-- Generator: Adobe Illustrator 24.3.0, SVG Export Plug-In . SVG Version: 6.00 Build 0)  -->
<svg version="1.1" id="Layer_1" xmlns="http://www.w3.org/2000/svg" xmlns:xlink="http://www.w3.org/1999/xlink" x="0px" y="0px"
	 viewBox="0 0 512 512" style="enable-background:new 0 0 512 512;" xml:space="preserve">
<path d="M419.13,448H92.87C68.128,448,48,427.872,48,403.13V204.87C48,180.129,68.128,160,92.87,160h326.26
	c24.741,0,44.87,20.129,44.87,44.87v198.26C464,427.872,443.871,448,419.13,448z M92.87,192C85.773,192,80,197.773,80,204.87v198.26
	c0,7.097,5.773,12.87,12.87,12.87h326.26c7.097,0,12.87-5.773,12.87-12.87V204.87c0-7.097-5.773-12.87-12.87-12.87H92.87z"/>
<path d="M368,96H144c-8.836,0-16-7.164-16-16s7.164-16,16-16h224c8.837,0,16,7.164,16,16S376.837,96,368,96z"/>
<path d="M400,144H112c-8.836,0-16-7.164-16-16s7.164-16,16-16h288c8.837,0,16,7.164,16,16S408.837,144,400,144z"/>
</svg>
