<?xml version="1.0" encoding="iso-8859-1"?>
<!-- Generator: Adobe Illustrator 24.3.0, SVG Export Plug-In . SVG Version: 6.00 Build 0)  -->
<svg version="1.1" id="Layer_1" xmlns="http://www.w3.org/2000/svg" xmlns:xlink="http://www.w3.org/1999/xlink" x="0px" y="0px"
	 viewBox="0 0 512 512" style="enable-background:new 0 0 512 512;" xml:space="preserve">
<path d="M368,96H144c-8.837,0-16-7.163-16-16s7.163-16,16-16h224c8.837,0,16,7.163,16,16S376.837,96,368,96z"/>
<path d="M400,144H112c-8.837,0-16-7.163-16-16c0-8.837,7.163-16,16-16h288c8.837,0,16,7.163,16,16C416,136.837,408.837,144,400,144z
	"/>
<path d="M419.13,448H92.87C68.1,447.973,48.028,427.9,48,403.13V204.87c0.028-24.77,20.1-44.842,44.87-44.87h326.26
	c24.77,0.028,44.842,20.1,44.87,44.87v198.26C463.972,427.9,443.9,447.973,419.13,448z"/>
</svg>
