<?xml version="1.0" encoding="iso-8859-1"?>
<!-- Generator: Adobe Illustrator 24.3.0, SVG Export Plug-In . SVG Version: 6.00 Build 0)  -->
<svg version="1.1" id="Layer_1" xmlns="http://www.w3.org/2000/svg" xmlns:xlink="http://www.w3.org/1999/xlink" x="0px" y="0px"
	 viewBox="0 0 512 512" style="enable-background:new 0 0 512 512;" xml:space="preserve">
<path d="M256,48C141.31,48,48,141.31,48,256s93.31,208,208,208s208-93.31,208-208S370.69,48,256,48z M256,367.91
	c-11.046,0-20-8.954-20-20s8.954-20,20-20c11.046,0,20,8.954,20,20S267.046,367.91,256,367.91z M277.72,166.76l-5.74,122
	c0,8.837-7.163,16-16,16c-8.837,0-16-7.163-16-16l-5.74-121.94v-0.05c-0.515-11.996,8.792-22.137,20.788-22.652
	s22.137,8.792,22.652,20.788c0.027,0.621,0.027,1.244,0,1.865L277.72,166.76z"/>
</svg>
