<?xml version="1.0" encoding="iso-8859-1"?>
<!-- Generator: Adobe Illustrator 24.3.0, SVG Export Plug-In . SVG Version: 6.00 Build 0)  -->
<svg version="1.1" id="Layer_1" xmlns="http://www.w3.org/2000/svg" xmlns:xlink="http://www.w3.org/1999/xlink" x="0px" y="0px"
	 viewBox="0 0 512 512" style="enable-background:new 0 0 512 512;" xml:space="preserve">
<path d="M256,336c-13.108,0-23.796-10.564-23.997-23.626l-7.985-215.588c-0.473-8.226,2.47-16.178,8.307-22.42
	C238.486,67.778,247.115,64,256,64c8.885,0,17.514,3.778,23.675,10.366c5.837,6.242,8.78,14.194,8.307,22.42l-7.984,215.588
	C279.796,325.436,269.108,336,256,336z"/>
<path d="M256,448c-17.645,0-32-14.355-32-32s14.355-32,32-32c17.645,0,32,14.355,32,32S273.645,448,256,448z M256,416
	c-0.014,0-0.02,0.001-0.02,0.001L256,416z"/>
</svg>
