<?xml version="1.0" encoding="iso-8859-1"?>
<!-- Generator: Adobe Illustrator 24.3.0, SVG Export Plug-In . SVG Version: 6.00 Build 0)  -->
<svg version="1.1" id="Layer_1" xmlns="http://www.w3.org/2000/svg" xmlns:xlink="http://www.w3.org/1999/xlink" x="0px" y="0px"
	 viewBox="0 0 512 512" style="enable-background:new 0 0 512 512;" xml:space="preserve">
<path d="M256,464C141.309,464,48,370.692,48,256c0-114.691,93.309-208,208-208s208,93.309,208,208C464,370.692,370.691,464,256,464z
	 M256,80c-97.047,0-176,78.953-176,176C80,353.047,158.953,432,256,432S432,353.047,432,256C432,158.953,353.047,80,256,80z"/>
<path d="M256.001,304c-8.544,0-15.582-6.713-15.983-15.248l-5.74-121.95c-0.001-0.024-0.002-0.048-0.003-0.072
	c-0.011-0.258-0.018-0.516-0.02-0.773c-0.054-5.77,2.156-11.25,6.223-15.395c4.067-4.145,9.505-6.457,15.312-6.512
	c0.408-0.003,0.804,0.004,1.207,0.022c11.961,0.544,21.261,10.729,20.718,22.702l-5.731,121.977
	C271.581,297.287,264.545,304,256.001,304z"/>
<circle cx="256" cy="347.91" r="20"/>
</svg>
