<?xml version="1.0" encoding="iso-8859-1"?>
<!-- Generator: Adobe Illustrator 24.3.0, SVG Export Plug-In . SVG Version: 6.00 Build 0)  -->
<svg version="1.1" id="Layer_1" xmlns="http://www.w3.org/2000/svg" xmlns:xlink="http://www.w3.org/1999/xlink" x="0px" y="0px"
	 viewBox="0 0 512 512" style="enable-background:new 0 0 512 512;" xml:space="preserve">
<path d="M120.9,120.51c-44.75,44.56-67.29,101.05-78.64,145.9l202.31,201.44c45.05-11.3,101.78-33.74,146.53-78.3
	s67.29-101.05,78.64-145.91L267.43,42.21C222.38,53.51,165.65,76,120.9,120.51z M379.9,378.34L379.9,378.34z M334.9,154.14
	l22.52,22.42l-33.78,33.63l22.52,22.42L323.55,255L301,232.61L278.52,255L301,277.45l-22.51,22.42L256,277.45l-22.52,22.42
	L256,322.29l-22.52,22.42L211,322.29l-33.78,33.63l-22.55-22.42l33.78-33.63l-22.52-22.42L188.45,255L211,277.45L233.48,255
	L211,232.61l22.51-22.42L256,232.61l22.52-22.42L256,187.77l22.52-22.42L301,187.77L334.9,154.14z"/>
<path d="M478.48,198.41C485.85,143.65,464,48.05,464,48.05s-96.14-21.88-151.14-14.54c-2.54,0.33-5.21,0.72-8,1.14l172.47,171.71
	C477.76,203.6,478.14,200.94,478.48,198.41z"/>
<path d="M33.52,311.65C26.15,366.41,48.05,464,48.05,464s60,16,99.86,16c17.134-0.029,34.247-1.181,51.23-3.45
	c2.54-0.33,5.21-0.72,8-1.15L34.67,303.7C34.24,306.46,33.86,309.12,33.52,311.65z"/>
</svg>
