<?xml version="1.0" encoding="iso-8859-1"?>
<!-- Generator: Adobe Illustrator 24.3.0, SVG Export Plug-In . SVG Version: 6.00 Build 0)  -->
<svg version="1.1" id="Layer_1" xmlns="http://www.w3.org/2000/svg" xmlns:xlink="http://www.w3.org/1999/xlink" x="0px" y="0px"
	 viewBox="0 0 512 512" style="enable-background:new 0 0 512 512;" xml:space="preserve">
<path d="M122.06,122.06c-44.37,44.37-66.71,100.61-78,145.28l200.6,200.56c44.67-11.25,100.91-33.59,145.28-78
	s66.71-100.61,78-145.28L267.34,44.1C222.67,55.35,166.43,77.69,122.06,122.06z M378.79,378.78L378.79,378.78z M300.65,189
	L323,166.71c6.454-5.856,16.434-5.371,22.29,1.083c5.458,6.015,5.458,15.192,0,21.207L323,211.35l11.16,11.17
	c6.163,6.163,6.163,16.157,0,22.32c-6.164,6.163-16.157,6.163-22.32,0l-11.16-11.16L278.32,256l11.16,11.16
	c6.164,6.164,6.164,16.156,0,22.32s-16.156,6.164-22.32,0l0,0L256,278.32l-22.32,22.33l11.16,11.16
	c6.163,6.164,6.163,16.156,0,22.32s-16.157,6.164-22.32,0l0,0L211.35,323L189,345.29c-6.454,5.856-16.434,5.371-22.29-1.083
	c-5.458-6.016-5.458-15.192,0-21.207L189,300.65l-11.16-11.17c-6.163-6.164-6.163-16.156,0-22.32s16.157-6.164,22.32,0l0,0
	l11.16,11.16L233.68,256l-11.16-11.16c-6.163-6.163-6.163-16.157,0-22.32s16.157-6.163,22.32,0l0,0L256,233.68l22.32-22.33
	l-11.16-11.16c-6.163-6.163-6.163-16.157,0-22.32c6.164-6.163,16.157-6.163,22.32,0L300.65,189z"/>
<path d="M476.57,199.63c7.31-54.53,4-120.26-20-144.21s-89.68-27.3-144.21-20c-2.51,0.34-5.16,0.72-7.91,1.15l171,171
	C475.85,204.79,476.23,202.14,476.57,199.63z"/>
<path d="M35.43,312.37c-7.31,54.53-4,120.26,20,144.21C72.17,473.33,109.34,480,148.84,480c16.987-0.027,33.954-1.173,50.79-3.43
	c2.51-0.34,5.16-0.72,7.91-1.15l-171-171C36.15,307.21,35.77,309.86,35.43,312.37z"/>
</svg>
