<?xml version="1.0" encoding="iso-8859-1"?>
<!-- Generator: Adobe Illustrator 24.3.0, SVG Export Plug-In . SVG Version: 6.00 Build 0)  -->
<svg version="1.1" id="Layer_1" xmlns="http://www.w3.org/2000/svg" xmlns:xlink="http://www.w3.org/1999/xlink" x="0px" y="0px"
	 viewBox="0 0 512 512" style="enable-background:new 0 0 512 512;" xml:space="preserve">
<path d="M163.407,497.56c-43.531,0-80.868-13.991-107.922-41.046c-36.724-36.724-49.38-92.405-35.638-156.789
	c13.208-61.883,49.503-124.984,102.198-177.679c52.695-52.695,115.796-88.99,177.679-102.198
	c64.386-13.745,120.065-1.086,156.789,35.638c36.724,36.724,49.381,92.406,35.639,156.79
	c-13.209,61.883-49.503,124.984-102.198,177.68s-115.797,88.989-177.68,102.198C195.321,495.771,178.965,497.56,163.407,497.56z
	 M348.436,46.459c-13.28,0-27.349,1.549-42.032,4.683c-55.915,11.935-113.352,45.151-161.732,93.53
	c-48.379,48.38-81.596,105.817-93.53,161.732c-11.401,53.415-1.822,98.689,26.971,127.482
	c28.793,28.793,74.068,38.371,127.482,26.971c55.915-11.935,113.353-45.151,161.732-93.53
	c48.379-48.38,81.596-105.817,93.53-161.732c11.4-53.415,1.822-98.689-26.971-127.482C413.008,57.235,383.464,46.459,348.436,46.459
	z"/>
<path d="M177.96,350.04c-4.095,0-8.189-1.562-11.313-4.687c-6.249-6.248-6.249-16.379,0-22.627l156.08-156.081
	c6.248-6.249,16.379-6.249,22.627,0c6.249,6.249,6.249,16.379,0,22.627l-156.08,156.081
	C186.149,348.478,182.055,350.04,177.96,350.04z"/>
<path d="M278.3,294.3c-4.096,0-8.189-1.562-11.313-4.687l-44.6-44.6c-6.248-6.248-6.248-16.379,0-22.627
	c6.248-6.248,16.378-6.249,22.627,0l44.599,44.6c6.249,6.248,6.249,16.379,0,22.627C286.489,292.738,282.395,294.3,278.3,294.3z"/>
<path d="M322.89,249.7c-4.095,0-8.189-1.562-11.313-4.687l-44.59-44.59c-6.249-6.248-6.249-16.379,0-22.627
	c6.248-6.249,16.379-6.249,22.627,0l44.59,44.59c6.249,6.248,6.249,16.379,0,22.627C331.079,248.138,326.984,249.7,322.89,249.7z"/>
<path d="M456.68,227.4c-4.095,0-8.189-1.562-11.313-4.687L289.286,66.634c-6.249-6.249-6.249-16.379,0-22.627
	c6.248-6.249,16.379-6.249,22.627,0l156.08,156.08c6.249,6.248,6.249,16.379,0,22.627C464.869,225.838,460.774,227.4,456.68,227.4z"
	/>
<path d="M211.4,472.68c-4.095,0-8.189-1.562-11.313-4.687l-156.08-156.08c-6.249-6.248-6.249-16.379,0-22.627
	c6.248-6.248,16.379-6.248,22.627,0l156.08,156.08c6.249,6.248,6.249,16.379,0,22.627C219.589,471.118,215.495,472.68,211.4,472.68z
	"/>
<path d="M233.7,338.89c-4.095,0-8.189-1.562-11.313-4.687l-44.59-44.59c-6.249-6.248-6.249-16.379,0-22.627
	c6.249-6.248,16.379-6.248,22.627,0l44.59,44.59c6.249,6.248,6.249,16.379,0,22.627C241.89,337.328,237.795,338.89,233.7,338.89z"/>
</svg>
