<?xml version="1.0" encoding="iso-8859-1"?>
<!-- Generator: Adobe Illustrator 24.3.0, SVG Export Plug-In . SVG Version: 6.00 Build 0)  -->
<svg version="1.1" id="Layer_1" xmlns="http://www.w3.org/2000/svg" xmlns:xlink="http://www.w3.org/1999/xlink" x="0px" y="0px"
	 viewBox="0 0 512 512" style="enable-background:new 0 0 512 512;" xml:space="preserve">
<path d="M450,128c-25.405,0.008-45.993,20.61-45.985,46.015c0.001,4.396,0.633,8.769,1.875,12.985l-71.37,71.36
	c-9.412-3.135-19.588-3.135-29,0l-52.91-52.91c6.307-24.61-8.531-49.673-33.14-55.98s-49.673,8.531-55.98,33.14
	c-1.92,7.492-1.92,15.347,0,22.839L75,293.88c-24.403-7.223-50.041,6.703-57.264,31.106s6.703,50.041,31.106,57.264
	c24.403,7.223,50.041-6.703,57.264-31.106c2.525-8.531,2.527-17.612,0.004-26.144l87.37-87.36c9.412,3.138,19.588,3.138,29,0
	l52.92,52.92c-6.307,24.61,8.531,49.673,33.14,55.98c24.61,6.307,49.673-8.531,55.98-33.14c1.92-7.492,1.92-15.347,0-22.839
	L437,218.12c24.367,7.189,49.948-6.737,57.136-31.104c7.189-24.367-6.737-49.948-31.104-57.136
	C458.801,128.632,454.412,127.998,450,128z"/>
</svg>
