<?xml version="1.0" encoding="iso-8859-1"?>
<!-- Generator: Adobe Illustrator 24.3.0, SVG Export Plug-In . SVG Version: 6.00 Build 0)  -->
<svg version="1.1" id="Layer_1" xmlns="http://www.w3.org/2000/svg" xmlns:xlink="http://www.w3.org/1999/xlink" x="0px" y="0px"
	 viewBox="0 0 512 512" style="enable-background:new 0 0 512 512;" xml:space="preserve">
<path d="M456,128c-22.091,0.006-39.995,17.919-39.99,40.01c0.001,4.993,0.937,9.941,2.76,14.59l-84.17,84.17
	c-9.383-3.693-19.817-3.693-29.2,0l-60.17-60.17c8.078-20.562-2.042-43.778-22.604-51.856s-43.778,2.042-51.856,22.604
	c-3.693,9.401-3.693,19.851,0,29.252L70.6,306.77c-20.566-8.067-43.777,2.064-51.845,22.63s2.064,43.777,22.63,51.845
	s43.777-2.064,51.845-22.63c3.683-9.39,3.683-19.825,0-29.215L193.4,229.23c9.383,3.693,19.817,3.693,29.2,0l60.17,60.17
	c-8.078,20.562,2.042,43.778,22.604,51.856c20.562,8.078,43.778-2.042,51.856-22.604c3.693-9.401,3.693-19.851,0-29.253l84.17-84.17
	c20.562,8.078,43.778-2.042,51.856-22.604s-2.042-43.778-22.604-51.856C465.985,128.936,461.015,127.997,456,128z"/>
</svg>
