<?xml version="1.0" encoding="iso-8859-1"?>
<!-- Generator: Adobe Illustrator 24.3.0, SVG Export Plug-In . SVG Version: 6.00 Build 0)  -->
<svg version="1.1" id="Layer_1" xmlns="http://www.w3.org/2000/svg" xmlns:xlink="http://www.w3.org/1999/xlink" x="0px" y="0px"
	 viewBox="0 0 512 512" style="enable-background:new 0 0 512 512;" xml:space="preserve">
<path d="M344,296c-4.095,0-8.189-1.562-11.313-4.687c-6.249-6.248-6.249-16.379,0-22.627l88-88.001
	c6.248-6.249,16.379-6.249,22.627,0c6.249,6.249,6.249,16.379,0,22.627l-88,88.001C352.189,294.438,348.095,296,344,296z"/>
<path d="M296,296c-4.096,0-8.189-1.562-11.313-4.687l-64-64.001c-6.248-6.248-6.248-16.379,0-22.627
	c6.248-6.248,16.378-6.249,22.627,0l64,64.001c6.249,6.248,6.249,16.379,0,22.627C304.189,294.438,300.095,296,296,296z"/>
<path d="M80,336c-4.095,0-8.189-1.562-11.313-4.687c-6.249-6.248-6.249-16.379,0-22.627l104-104.001
	c6.249-6.249,16.379-6.249,22.627,0c6.249,6.249,6.249,16.379,0,22.627l-104,104.001C88.189,334.438,84.095,336,80,336z"/>
<path d="M456,208c-22.056,0-40-17.944-40-40s17.944-40,40-40s40,17.944,40,40S478.056,208,456,208z M456,160c-4.411,0-8,3.589-8,8
	s3.589,8,8,8s8-3.589,8-8S460.411,160,456,160z"/>
<path d="M320,344c-22.056,0-40-17.944-40-40s17.944-40,40-40s40,17.944,40,40S342.056,344,320,344z M320,296c-4.411,0-8,3.589-8,8
	s3.589,8,8,8s8-3.589,8-8S324.411,296,320,296z"/>
<path d="M208,232c-22.056,0-40-17.944-40-40s17.944-40,40-40s40,17.944,40,40S230.056,232,208,232z M208,184c-4.411,0-8,3.589-8,8
	s3.589,8,8,8s8-3.589,8-8S212.411,184,208,184z"/>
<path d="M56,384c-22.056,0-40-17.944-40-40s17.944-40,40-40s40,17.944,40,40S78.056,384,56,384z M56,336c-4.411,0-8,3.589-8,8
	s3.589,8,8,8s8-3.589,8-8S60.411,336,56,336z"/>
</svg>
