<?xml version="1.0" encoding="iso-8859-1"?>
<!-- Generator: Adobe Illustrator 24.3.0, SVG Export Plug-In . SVG Version: 6.00 Build 0)  -->
<svg version="1.1" id="Layer_1" xmlns="http://www.w3.org/2000/svg" xmlns:xlink="http://www.w3.org/1999/xlink" x="0px" y="0px"
	 viewBox="0 0 512 512" style="enable-background:new 0 0 512 512;" xml:space="preserve">
<path d="M256,464C141.309,464,48,370.692,48,256c0-114.691,93.309-208,208-208s208,93.309,208,208C464,370.692,370.691,464,256,464z
	 M256,80c-97.047,0-176,78.953-176,176C80,353.047,158.953,432,256,432S432,353.047,432,256C432,158.953,353.047,80,256,80z"/>
<path d="M360,312c-8.837,0-16-7.163-16-16V94.59c0-8.836,7.163-16,16-16s16,7.164,16,16V296C376,304.837,368.837,312,360,312z"/>
<path d="M296,376c-4.095,0-8.189-1.562-11.313-4.687c-6.249-6.248-6.249-16.379,0-22.627l147.13-147.13
	c6.248-6.249,16.379-6.249,22.627,0c6.249,6.249,6.249,16.379,0,22.627l-147.13,147.13C304.189,374.438,300.095,376,296,376z"/>
<path d="M417.41,376H216c-8.836,0-16-7.163-16-16s7.164-16,16-16h201.41c8.837,0,16,7.163,16,16S426.247,376,417.41,376z"/>
<path d="M299.13,459.13c-4.095,0-8.189-1.562-11.313-4.687l-144-144c-6.249-6.248-6.249-16.379,0-22.627
	c6.248-6.248,16.379-6.248,22.627,0l144,144c6.249,6.248,6.249,16.379,0,22.627C307.319,457.568,303.225,459.13,299.13,459.13z"/>
<path d="M152,432c-8.836,0-16-7.163-16-16V216c0-8.836,7.164-16,16-16s16,7.164,16,16V416C168,424.837,160.836,432,152,432z"/>
<path d="M68.87,315.13c-4.095,0-8.189-1.562-11.313-4.687c-6.249-6.248-6.249-16.379,0-22.627l144-144
	c6.248-6.249,16.379-6.249,22.627,0c6.249,6.248,6.249,16.379,0,22.627l-144,144C77.06,313.568,72.965,315.13,68.87,315.13z"/>
<path d="M288,168H94.59c-8.836,0-16-7.164-16-16s7.164-16,16-16H288c8.837,0,16,7.164,16,16S296.837,168,288,168z"/>
<path d="M360,232c-4.095,0-8.189-1.562-11.313-4.687l-147.13-147.13c-6.249-6.248-6.249-16.379,0-22.627
	c6.248-6.249,16.379-6.249,22.627,0l147.13,147.13c6.249,6.248,6.249,16.379,0,22.627C368.189,230.438,364.095,232,360,232z"/>
</svg>
