<?xml version="1.0" encoding="iso-8859-1"?>
<!-- Generator: Adobe Illustrator 24.3.0, SVG Export Plug-In . SVG Version: 6.00 Build 0)  -->
<svg version="1.1" id="Layer_1" xmlns="http://www.w3.org/2000/svg" xmlns:xlink="http://www.w3.org/1999/xlink" x="0px" y="0px"
	 viewBox="0 0 512 512" style="enable-background:new 0 0 512 512;" xml:space="preserve">
<path d="M250.54,129.17l-67.8-67.8c-38.824,14.775-72.383,40.75-96.42,74.63h161.4c2.209-0.004,3.997-1.798,3.993-4.007
	C251.711,130.934,251.289,129.919,250.54,129.17z"/>
<path d="M167.72,168H67.63c-18.413,39.246-24.061,83.277-16.15,125.9l119.06-119.07c1.563-1.561,1.564-4.094,0.003-5.657
	C169.795,168.424,168.779,168.002,167.72,168z"/>
<path d="M344,167.72V67.56c-39.26-18.356-83.277-23.978-125.89-16.08l119.06,119.06c1.561,1.563,4.094,1.564,5.657,0.003
	C343.576,169.795,343.998,168.779,344,167.72z"/>
<path d="M460.52,218.1L341.46,337.17c-1.563,1.561-1.564,4.094-0.003,5.657c0.749,0.749,1.764,1.171,2.823,1.173h100.09
	C462.783,304.754,468.431,260.723,460.52,218.1z"/>
<path d="M382.83,250.54l67.83-67.82c-14.735-38.881-40.729-72.486-74.66-96.52v161.52c0.004,2.209,1.798,3.997,4.007,3.993
	C381.066,251.711,382.081,251.289,382.83,250.54z"/>
<path d="M221.68,341.77c1.49,1.431,3.475,2.23,5.54,2.23h59.66c2.143-0.001,4.197-0.862,5.7-2.39l49.18-50
	c1.475-1.498,2.302-3.517,2.3-5.62L344,225.18c-0.001-2.139-0.858-4.188-2.38-5.69l-50-49.25c-1.501-1.478-3.524-2.304-5.63-2.3
	L225.15,168c-2.139,0.001-4.188,0.858-5.69,2.38l-49.25,50c-1.478,1.501-2.304,3.524-2.3,5.63l0.06,60.78
	c0,2.173,0.885,4.252,2.45,5.76L221.68,341.77z"/>
<path d="M261.46,382.83l67.8,67.8c38.824-14.775,72.383-40.75,96.42-74.63h-161.4c-2.209,0.004-3.997,1.798-3.993,4.007
	C260.289,381.066,260.711,382.081,261.46,382.83z"/>
<path d="M168,344.28v100.16c39.26,18.356,83.277,23.978,125.89,16.08L174.83,341.46c-1.561-1.563-4.094-1.564-5.657-0.003
	C168.424,342.205,168.002,343.221,168,344.28z"/>
<path d="M129.17,261.46l-67.83,67.83c14.738,38.877,40.732,72.478,74.66,96.51V264.28c-0.004-2.209-1.798-3.997-4.007-3.993
	C130.934,260.289,129.919,260.711,129.17,261.46z"/>
</svg>
