<?xml version="1.0" encoding="iso-8859-1"?>
<!-- Generator: Adobe Illustrator 24.3.0, SVG Export Plug-In . SVG Version: 6.00 Build 0)  -->
<svg version="1.1" id="Layer_1" xmlns="http://www.w3.org/2000/svg" xmlns:xlink="http://www.w3.org/1999/xlink" x="0px" y="0px"
	 viewBox="0 0 512 512" style="enable-background:new 0 0 512 512;" xml:space="preserve">
<polygon points="216,48 345.49,176.18 345.49,48 "/>
<polygon points="181.47,58.38 80,134 256,134 "/>
<polygon points="336,344 464,344 464,216 "/>
<polygon points="454,182 378,80 378,256 "/>
<polygon points="48,166 48,294 176,166 "/>
<polygon points="330,454 432,378 256,378 "/>
<polygon points="58,330 134,432 134,256 "/>
<path d="M345.49,222.12l-55.55-55.46h-67.88l-55.55,55.46v67.76l55.62,55.52c0.44,0,0.88-0.06,1.33-0.06h66.48l55.55-55.46V222.12z"
	/>
<polygon points="165.98,336.09 166,464 294,464 "/>
</svg>
