<?xml version="1.0" encoding="iso-8859-1"?>
<!-- Generator: Adobe Illustrator 24.3.0, SVG Export Plug-In . SVG Version: 6.00 Build 0)  -->
<svg version="1.1" id="Layer_1" xmlns="http://www.w3.org/2000/svg" xmlns:xlink="http://www.w3.org/1999/xlink" x="0px" y="0px"
	 viewBox="0 0 512 512" style="enable-background:new 0 0 512 512;" xml:space="preserve">
<path d="M104,160c-30.928,0-56-25.072-56-56s25.072-56,56-56s56,25.072,56,56C159.967,134.914,134.914,159.967,104,160z"/>
<path d="M256,160c-30.928,0-56-25.072-56-56s25.072-56,56-56s56,25.072,56,56C311.967,134.914,286.914,159.967,256,160z"/>
<path d="M408,160c-30.928,0-56-25.072-56-56s25.072-56,56-56s56,25.072,56,56C463.967,134.914,438.914,159.967,408,160z"/>
<path d="M104,312c-30.928,0-56-25.072-56-56s25.072-56,56-56s56,25.072,56,56C159.967,286.914,134.914,311.967,104,312z"/>
<path d="M256,312c-30.928,0-56-25.072-56-56s25.072-56,56-56s56,25.072,56,56C311.967,286.914,286.914,311.967,256,312z"/>
<path d="M408,312c-30.928,0-56-25.072-56-56s25.072-56,56-56s56,25.072,56,56C463.967,286.914,438.914,311.967,408,312z"/>
<path d="M104,464c-30.928,0-56-25.072-56-56s25.072-56,56-56s56,25.072,56,56C159.967,438.914,134.914,463.967,104,464z"/>
<path d="M256,464c-30.928,0-56-25.072-56-56s25.072-56,56-56s56,25.072,56,56C311.967,438.914,286.914,463.967,256,464z"/>
<path d="M408,464c-30.928,0-56-25.072-56-56s25.072-56,56-56s56,25.072,56,56C463.967,438.914,438.914,463.967,408,464z"/>
</svg>
