<?xml version="1.0" encoding="iso-8859-1"?>
<!-- Generator: Adobe Illustrator 24.3.0, SVG Export Plug-In . SVG Version: 6.00 Build 0)  -->
<svg version="1.1" id="Layer_1" xmlns="http://www.w3.org/2000/svg" xmlns:xlink="http://www.w3.org/1999/xlink" x="0px" y="0px"
	 viewBox="0 0 512 512" style="enable-background:new 0 0 512 512;" xml:space="preserve">
<path d="M104,160c-30.878,0-56-25.122-56-56s25.122-56,56-56s56,25.122,56,56S134.878,160,104,160z M104,80
	c-13.234,0-24,10.766-24,24s10.766,24,24,24s24-10.766,24-24S117.234,80,104,80z"/>
<path d="M256,160c-30.878,0-56-25.122-56-56s25.122-56,56-56c30.879,0,56,25.122,56,56S286.879,160,256,160z M256,80
	c-13.234,0-24,10.766-24,24s10.766,24,24,24c13.233,0,24-10.766,24-24S269.233,80,256,80z"/>
<path d="M408,160c-30.879,0-56-25.122-56-56s25.121-56,56-56s56,25.122,56,56S438.879,160,408,160z M408,80
	c-13.233,0-24,10.766-24,24s10.767,24,24,24s24-10.766,24-24S421.233,80,408,80z"/>
<path d="M104,312C73.122,312,48,286.878,48,256s25.122-56,56-56s56,25.122,56,56S134.878,312,104,312z M104,232
	c-13.234,0-24,10.766-24,24C80,269.234,90.766,280,104,280s24-10.767,24-24.001C128,242.766,117.234,232,104,232z"/>
<path d="M256,312c-30.878,0-56-25.122-56-56.001s25.122-56,56-56c30.879,0,56,25.122,56,56S286.879,312,256,312z M256,232
	c-13.234,0-24,10.766-24,24C232,269.234,242.766,280,256,280c13.233,0,24-10.767,24-24.001C280,242.766,269.233,232,256,232z"/>
<path d="M408,312c-30.879,0-56-25.122-56-56.001s25.121-56,56-56s56,25.122,56,56S438.879,312,408,312z M408,232
	c-13.233,0-24,10.766-24,24C384,269.234,394.767,280,408,280s24-10.767,24-24.001C432,242.766,421.233,232,408,232z"/>
<path d="M104,464c-30.878,0-56-25.121-56-56s25.122-56,56-56s56,25.121,56,56S134.878,464,104,464z M104,384
	c-13.234,0-24,10.767-24,24s10.766,24,24,24s24-10.767,24-24S117.234,384,104,384z"/>
<path d="M256,464c-30.878,0-56-25.121-56-56s25.122-56,56-56c30.879,0,56,25.121,56,56S286.879,464,256,464z M256,384
	c-13.234,0-24,10.767-24,24s10.766,24,24,24c13.233,0,24-10.767,24-24S269.233,384,256,384z"/>
<path d="M408,464c-30.879,0-56-25.121-56-56s25.121-56,56-56s56,25.121,56,56S438.879,464,408,464z M408,384
	c-13.233,0-24,10.767-24,24s10.767,24,24,24s24-10.767,24-24S421.233,384,408,384z"/>
</svg>
