<?xml version="1.0" encoding="iso-8859-1"?>
<!-- Generator: Adobe Illustrator 24.3.0, SVG Export Plug-In . SVG Version: 6.00 Build 0)  -->
<svg version="1.1" id="Layer_1" xmlns="http://www.w3.org/2000/svg" xmlns:xlink="http://www.w3.org/1999/xlink" x="0px" y="0px"
	 viewBox="0 0 512 512" style="enable-background:new 0 0 512 512;" xml:space="preserve">
<path d="M56,48h96c4.418,0,8,3.582,8,8v96c0,4.418-3.582,8-8,8H56c-4.418,0-8-3.582-8-8V56C48,51.582,51.582,48,56,48z"/>
<path d="M208,48h96c4.418,0,8,3.582,8,8v96c0,4.418-3.582,8-8,8h-96c-4.418,0-8-3.582-8-8V56C200,51.582,203.582,48,208,48z"/>
<path d="M360,48h96c4.418,0,8,3.582,8,8v96c0,4.418-3.582,8-8,8h-96c-4.418,0-8-3.582-8-8V56C352,51.582,355.582,48,360,48z"/>
<path d="M56,200h96c4.418,0,8,3.582,8,8v96c0,4.418-3.582,8-8,8H56c-4.418,0-8-3.582-8-8v-96C48,203.582,51.582,200,56,200z"/>
<path d="M208,200h96c4.418,0,8,3.582,8,8v96c0,4.418-3.582,8-8,8h-96c-4.418,0-8-3.582-8-8v-96C200,203.582,203.582,200,208,200z"/>
<path d="M360,200h96c4.418,0,8,3.582,8,8v96c0,4.418-3.582,8-8,8h-96c-4.418,0-8-3.582-8-8v-96C352,203.582,355.582,200,360,200z"/>
<path d="M56,352h96c4.418,0,8,3.582,8,8v96c0,4.418-3.582,8-8,8H56c-4.418,0-8-3.582-8-8v-96C48,355.582,51.582,352,56,352z"/>
<path d="M208,352h96c4.418,0,8,3.582,8,8v96c0,4.418-3.582,8-8,8h-96c-4.418,0-8-3.582-8-8v-96C200,355.582,203.582,352,208,352z"/>
<path d="M360,352h96c4.418,0,8,3.582,8,8v96c0,4.418-3.582,8-8,8h-96c-4.418,0-8-3.582-8-8v-96C352,355.582,355.582,352,360,352z"/>
</svg>
