<?xml version="1.0" encoding="iso-8859-1"?>
<!-- Generator: Adobe Illustrator 24.3.0, SVG Export Plug-In . SVG Version: 6.00 Build 0)  -->
<svg version="1.1" id="Layer_1" xmlns="http://www.w3.org/2000/svg" xmlns:xlink="http://www.w3.org/1999/xlink" x="0px" y="0px"
	 viewBox="0 0 512 512" style="enable-background:new 0 0 512 512;" xml:space="preserve">
<path d="M120,464c-30.808-0.093-55.908-25.192-56-55.952V152c0-8.836,7.164-16,16-16s16,7.164,16,16v256
	c0.04,13.173,10.828,23.96,24.048,24H392c13.173-0.04,23.961-10.827,24-24.048V152c0-8.836,7.163-16,16-16s16,7.164,16,16v256
	c-0.091,30.808-25.191,55.907-55.952,56H120z"/>
<path d="M436,160H76c-24.262,0-44-19.738-44-44V92c0-24.262,19.738-44,44-44h360c24.262,0,44,19.738,44,44v24
	C480,140.262,460.262,160,436,160z M76,80c-6.617,0-12,5.383-12,12v24c0,6.617,5.383,12,12,12h360c6.617,0,12-5.383,12-12V92
	c0-6.617-5.383-12-12-12H76z"/>
<path d="M256,384c-4.095,0-8.189-1.562-11.313-4.687l-64-64c-6.249-6.248-6.249-16.379,0-22.627c6.248-6.248,16.379-6.248,22.627,0
	L256,345.373l52.687-52.687c6.248-6.248,16.379-6.248,22.627,0c6.249,6.248,6.249,16.379,0,22.627l-64,64
	C264.189,382.438,260.095,384,256,384z"/>
<path d="M256,361.89c-8.836,0-16-7.163-16-16V224c0-8.836,7.164-16,16-16c8.837,0,16,7.164,16,16v121.89
	C272,354.727,264.837,361.89,256,361.89z"/>
</svg>
