<?xml version="1.0" encoding="iso-8859-1"?>
<!-- Generator: Adobe Illustrator 24.3.0, SVG Export Plug-In . SVG Version: 6.00 Build 0)  -->
<svg version="1.1" id="Layer_1" xmlns="http://www.w3.org/2000/svg" xmlns:xlink="http://www.w3.org/1999/xlink" x="0px" y="0px"
	 viewBox="0 0 512 512" style="enable-background:new 0 0 512 512;" xml:space="preserve">
<path d="M44,48h424c6.627,0,12,5.373,12,12v56c0,6.627-5.373,12-12,12H44c-6.627,0-12-5.373-12-12V60C32,53.373,37.373,48,44,48z"/>
<path d="M64,160v280c0,13.255,10.745,24,24,24l0,0h336c13.255,0,24-10.745,24-24l0,0V160H64z M256,390.63L169.32,304L192,281.32
	l48,48.05V208h32v121.37l48.07-48.07l22.61,22.64L256,390.63z"/>
</svg>
