<?xml version="1.0" encoding="iso-8859-1"?>
<!-- Generator: Adobe Illustrator 24.3.0, SVG Export Plug-In . SVG Version: 6.00 Build 0)  -->
<svg version="1.1" id="Layer_1" xmlns="http://www.w3.org/2000/svg" xmlns:xlink="http://www.w3.org/1999/xlink" x="0px" y="0px"
	 viewBox="0 0 512 512" style="enable-background:new 0 0 512 512;" xml:space="preserve">
<path d="M64,164v244c0,30.928,25.072,56,56,56h272c30.928,0,56-25.072,56-56V164c0-2.209-1.791-4-4-4H68
	C65.791,160,64,161.791,64,164z M331,315.63l-63.69,63.68c-6.248,6.243-16.372,6.243-22.62,0L181,315.63
	c-6.09-6.09-6.65-16-0.85-22.38c5.939-6.543,16.058-7.032,22.601-1.093c0.191,0.173,0.377,0.351,0.559,0.533L240,329.37V224.45
	c0-8.61,6.62-16,15.23-16.43c8.826-0.425,16.326,6.385,16.751,15.211c0.012,0.256,0.018,0.512,0.019,0.769v105.37l36.69-36.68
	c6.249-6.248,16.379-6.248,22.627,0.001c0.182,0.182,0.36,0.368,0.533,0.559C337.65,299.62,337.09,309.54,331,315.63z"/>
<path d="M64,48h384c17.673,0,32,14.327,32,32v16c0,17.673-14.327,32-32,32H64c-17.673,0-32-14.327-32-32V80
	C32,62.327,46.327,48,64,48z"/>
</svg>
