<?xml version="1.0" encoding="iso-8859-1"?>
<!-- Generator: Adobe Illustrator 24.3.0, SVG Export Plug-In . SVG Version: 6.00 Build 0)  -->
<svg version="1.1" id="Layer_1" xmlns="http://www.w3.org/2000/svg" xmlns:xlink="http://www.w3.org/1999/xlink" x="0px" y="0px"
	 viewBox="0 0 512 512" style="enable-background:new 0 0 512 512;" xml:space="preserve">
<path d="M400,267.999c-6.143,0-12.284-2.343-16.971-7.029L256,133.941L128.971,260.97c-9.373,9.373-24.568,9.373-33.941,0
	c-9.373-9.372-9.373-24.568,0-33.941l144-144c9.374-9.372,24.569-9.371,33.941,0l144,144c9.372,9.373,9.372,24.569,0,33.941
	C412.284,265.657,406.143,267.999,400,267.999z"/>
<path d="M256,436c-13.255,0-24-10.745-24-24V120c0-13.255,10.745-24,24-24s24,10.745,24,24v292C280,425.255,269.255,436,256,436z"/>
</svg>
