<?xml version="1.0" encoding="iso-8859-1"?>
<!-- Generator: Adobe Illustrator 24.3.0, SVG Export Plug-In . SVG Version: 6.00 Build 0)  -->
<svg version="1.1" id="Layer_1" xmlns="http://www.w3.org/2000/svg" xmlns:xlink="http://www.w3.org/1999/xlink" x="0px" y="0px"
	 viewBox="0 0 512 512" style="enable-background:new 0 0 512 512;" xml:space="preserve">
<path d="M63.997,440.001c-1.739,0-3.496-0.284-5.205-0.872C52.335,436.907,48,430.83,48,424c0-73.098,14.685-131.561,43.646-173.765
	c34.975-50.967,90.214-78.467,164.354-81.875V88c0-6.404,3.818-12.191,9.706-14.71c5.887-2.518,12.709-1.285,17.342,3.136l176,168
	C462.211,247.445,464,251.627,464,256c0,4.373-1.789,8.554-4.952,11.574l-176,168c-4.633,4.423-11.455,5.657-17.342,3.137
	c-5.888-2.52-9.706-8.307-9.706-14.71v-79.767c-45.02,1.356-79.006,8.646-106.073,22.64c-29.244,15.118-50.459,37.708-73.317,66.976
	C73.519,437.807,68.83,440.001,63.997,440.001z M272,312c8.837,0,16,7.163,16,16v58.608L424.827,256L288,125.392V184
	c0,8.836-7.163,16-16,16c-37.708,0-70.215,6.443-96.618,19.15c-23.377,11.251-42.673,27.802-57.351,49.192
	c-19.17,27.936-31.161,64.866-35.818,110.164c21.332-21.778,38.029-32.311,53.018-40.059C170.131,320.404,213.591,312,272,312z"/>
</svg>
