<?xml version="1.0" encoding="iso-8859-1"?>
<!-- Generator: Adobe Illustrator 24.3.0, SVG Export Plug-In . SVG Version: 6.00 Build 0)  -->
<svg version="1.1" id="Layer_1" xmlns="http://www.w3.org/2000/svg" xmlns:xlink="http://www.w3.org/1999/xlink" x="0px" y="0px"
	 viewBox="0 0 512 512" style="enable-background:new 0 0 512 512;" xml:space="preserve">
<path d="M58.79,439.13C52.333,436.906,47.999,430.829,48,424c0-73.1,14.68-131.56,43.65-173.77c35-51,90.21-78.46,164.35-81.87V88
	c0.001-8.837,7.165-15.999,16.001-15.999c4.115,0,8.072,1.586,11.049,4.429l176,168c6.39,6.104,6.622,16.232,0.519,22.621
	c-0.169,0.177-0.342,0.35-0.519,0.519l-176,168c-6.391,6.103-16.519,5.869-22.621-0.521C257.586,432.072,256,428.115,256,424v-79.77
	c-45,1.36-79,8.65-106.07,22.64c-29.25,15.12-50.46,37.71-73.32,67c-4.204,5.383-11.362,7.504-17.82,5.28L58.79,439.13z"/>
</svg>
