<?xml version="1.0" encoding="iso-8859-1"?>
<!-- Generator: Adobe Illustrator 24.3.0, SVG Export Plug-In . SVG Version: 6.00 Build 0)  -->
<svg version="1.1" id="Layer_1" xmlns="http://www.w3.org/2000/svg" xmlns:xlink="http://www.w3.org/1999/xlink" x="0px" y="0px"
	 viewBox="0 0 512 512" style="enable-background:new 0 0 512 512;" xml:space="preserve">
<path d="M336,265.38c-4.074,0-8.149-1.546-11.27-4.643L256,192.54l-68.73,68.198c-6.272,6.226-16.402,6.186-22.627-0.088
	c-6.224-6.272-6.185-16.403,0.088-22.627l80-79.38c6.238-6.19,16.301-6.19,22.539,0l80,79.38c6.272,6.224,6.312,16.354,0.088,22.627
	C344.23,263.802,340.115,265.38,336,265.38z"/>
<path d="M256,358c-8.836,0-16-7.163-16-16V181.03c0-8.836,7.164-16,16-16c8.837,0,16,7.164,16,16V342
	C272,350.837,264.837,358,256,358z"/>
<path d="M256,464C141.309,464,48,370.692,48,256c0-114.691,93.309-208,208-208s208,93.309,208,208C464,370.692,370.691,464,256,464z
	 M256,80c-97.047,0-176,78.953-176,176C80,353.047,158.953,432,256,432S432,353.047,432,256C432,158.953,353.047,80,256,80z"/>
</svg>
