<?xml version="1.0" encoding="iso-8859-1"?>
<!-- Generator: Adobe Illustrator 24.3.0, SVG Export Plug-In . SVG Version: 6.00 Build 0)  -->
<svg version="1.1" id="Layer_1" xmlns="http://www.w3.org/2000/svg" xmlns:xlink="http://www.w3.org/1999/xlink" x="0px" y="0px"
	 viewBox="0 0 512 512" style="enable-background:new 0 0 512 512;" xml:space="preserve">
<path d="M262.62,352c-4.074,0-8.149-1.546-11.27-4.643c-6.273-6.224-6.312-16.354-0.088-22.627L319.46,256l-68.197-68.73
	c-6.224-6.272-6.185-16.403,0.088-22.627c6.271-6.224,16.402-6.186,22.627,0.088l79.38,80c6.19,6.238,6.19,16.301,0,22.54l-79.38,80
	C270.851,350.422,266.735,352,262.62,352z"/>
<path d="M330.97,272H170c-8.836,0-16-7.164-16-16.001c0-8.836,7.164-16,16-16h160.97c8.837,0,16,7.164,16,16
	C346.97,264.836,339.807,272,330.97,272z"/>
<path d="M256,464C141.309,464,48,370.692,48,256c0-114.691,93.309-208,208-208s208,93.309,208,208C464,370.692,370.691,464,256,464z
	 M256,80c-97.047,0-176,78.953-176,176C80,353.047,158.953,432,256,432S432,353.047,432,256C432,158.953,353.047,80,256,80z"/>
</svg>
