<?xml version="1.0" encoding="iso-8859-1"?>
<!-- Generator: Adobe Illustrator 24.3.0, SVG Export Plug-In . SVG Version: 6.00 Build 0)  -->
<svg version="1.1" id="Layer_1" xmlns="http://www.w3.org/2000/svg" xmlns:xlink="http://www.w3.org/1999/xlink" x="0px" y="0px"
	 viewBox="0 0 512 512" style="enable-background:new 0 0 512 512;" xml:space="preserve">
<path d="M249.38,352c-4.116,0-8.23-1.578-11.358-4.73l-79.379-80c-6.19-6.238-6.19-16.301,0-22.54l79.38-80
	c6.225-6.273,16.355-6.312,22.627-0.088c6.272,6.224,6.312,16.354,0.088,22.627L192.54,256l68.197,68.731
	c6.225,6.272,6.185,16.403-0.088,22.627C257.529,350.455,253.454,352,249.38,352z"/>
<path d="M342,272H181.03c-8.836,0-16-7.164-16-16.001c0-8.836,7.164-16,16-16H342c8.837,0,16,7.164,16,16
	C358,264.836,350.837,272,342,272z"/>
<path d="M256,464C141.309,464,48,370.692,48,256c0-114.691,93.309-208,208-208s208,93.309,208,208C464,370.692,370.691,464,256,464z
	 M256,80c-97.047,0-176,78.953-176,176C80,353.047,158.953,432,256,432S432,353.047,432,256C432,158.953,353.047,80,256,80z"/>
</svg>
