<?xml version="1.0" encoding="iso-8859-1"?>
<!-- Generator: Adobe Illustrator 24.3.0, SVG Export Plug-In . SVG Version: 6.00 Build 0)  -->
<svg version="1.1" id="Layer_1" xmlns="http://www.w3.org/2000/svg" xmlns:xlink="http://www.w3.org/1999/xlink" x="0px" y="0px"
	 viewBox="0 0 512 512" style="enable-background:new 0 0 512 512;" xml:space="preserve">
<path d="M48,256c0,114.87,93.13,208,208,208s208-93.13,208-208S370.87,48,256,48S48,141.13,48,256z M144,322.67
	c5.45-61.45,34.14-117.09,122.87-117.09v-37.32c0.044-4.595,3.804-8.284,8.399-8.241c2.082,0.02,4.08,0.819,5.601,2.241L365.42,242
	c3.297,3.105,3.453,8.294,0.349,11.591c-0.113,0.12-0.229,0.236-0.349,0.349L281,333.71c-3.357,3.137-8.622,2.959-11.759-0.399
	c-1.421-1.521-2.221-3.52-2.241-5.601v-37.29c-57.07,0-84.51,13.47-108.58,38.68C152.93,334.75,143.35,330.42,144,322.67L144,322.67
	z"/>
</svg>
