<?xml version="1.0" encoding="iso-8859-1"?>
<!-- Generator: Adobe Illustrator 24.3.0, SVG Export Plug-In . SVG Version: 6.00 Build 0)  -->
<svg version="1.1" id="Layer_1" xmlns="http://www.w3.org/2000/svg" xmlns:xlink="http://www.w3.org/1999/xlink" x="0px" y="0px"
	 viewBox="0 0 512 512" style="enable-background:new 0 0 512 512;" xml:space="preserve">
<path d="M256,436c-6.142,0-12.284-2.343-16.971-7.029l-144-144c-9.373-9.373-9.373-24.568,0-33.941
	c9.373-9.372,24.568-9.372,33.941,0L256,378.059L383.029,251.03c9.373-9.372,24.568-9.372,33.941,0
	c9.372,9.373,9.372,24.568,0,33.941l-144,144C268.284,433.658,262.143,436,256,436z"/>
<path d="M256,416c-13.255,0-24-10.745-24-24V100c0-13.255,10.745-24,24-24s24,10.745,24,24v292C280,405.255,269.255,416,256,416z"/>
</svg>
