<?xml version="1.0" encoding="iso-8859-1"?>
<!-- Generator: Adobe Illustrator 24.3.0, SVG Export Plug-In . SVG Version: 6.00 Build 0)  -->
<svg version="1.1" id="Layer_1" xmlns="http://www.w3.org/2000/svg" xmlns:xlink="http://www.w3.org/1999/xlink" x="0px" y="0px"
	 viewBox="0 0 512 512" style="enable-background:new 0 0 512 512;" xml:space="preserve">
<path d="M256,464c114.87,0,208-93.13,208-208S370.87,48,256,48S48,141.13,48,256S141.13,464,256,464z M164.64,251.35
	c6.223-6.274,16.353-6.315,22.627-0.093c0.001,0.001,0.002,0.002,0.003,0.003L240,303.58V170c0-8.837,7.163-16,16-16
	c8.837,0,16,7.163,16,16v133.58l52.73-52.32c6.279-6.224,16.416-6.179,22.64,0.1c6.224,6.28,6.179,16.416-0.1,22.64l0,0l-80,79.39
	c-6.238,6.19-16.302,6.19-22.54,0l-80-79.39c-6.279-6.217-6.33-16.348-0.113-22.627C164.625,251.365,164.632,251.358,164.64,251.35z
	"/>
</svg>
