<?xml version="1.0" encoding="iso-8859-1"?>
<!-- Generator: Adobe Illustrator 24.3.0, SVG Export Plug-In . SVG Version: 6.00 Build 0)  -->
<svg version="1.1" id="Layer_1" xmlns="http://www.w3.org/2000/svg" xmlns:xlink="http://www.w3.org/1999/xlink" x="0px" y="0px"
	 viewBox="0 0 512 512" style="enable-background:new 0 0 512 512;" xml:space="preserve">
<path d="M266.91,327.74v-37.32c-57.07,0-84.51,13.47-108.58,38.68c-5.4,5.65-15,1.32-14.29-6.43
	c5.45-61.45,34.14-117.09,122.87-117.09v-37.32c0.044-4.595,3.804-8.284,8.399-8.241c2.082,0.02,4.08,0.819,5.601,2.241L365.42,242
	c3.297,3.105,3.453,8.294,0.349,11.591c-0.113,0.12-0.229,0.236-0.349,0.349L281,333.71c-3.31,3.187-8.577,3.086-11.764-0.224
	C267.749,331.942,266.916,329.883,266.91,327.74z"/>
<path d="M256,464C141.309,464,48,370.692,48,256c0-114.691,93.309-208,208-208s208,93.309,208,208C464,370.692,370.691,464,256,464z
	 M256,80c-97.047,0-176,78.953-176,176C80,353.047,158.953,432,256,432S432,353.047,432,256C432,158.953,353.047,80,256,80z"/>
</svg>
