<?xml version="1.0" encoding="iso-8859-1"?>
<!-- Generator: Adobe Illustrator 24.3.0, SVG Export Plug-In . SVG Version: 6.00 Build 0)  -->
<svg version="1.1" id="Layer_1" xmlns="http://www.w3.org/2000/svg" xmlns:xlink="http://www.w3.org/1999/xlink" x="0px" y="0px"
	 viewBox="0 0 512 512" style="enable-background:new 0 0 512 512;" xml:space="preserve">
<path d="M448,440c-4.926,0-9.577-2.268-12.61-6.15c-22.86-29.27-44.07-51.86-73.32-67C335,352.88,301,345.59,256,344.23V424
	c-0.027,8.837-7.212,15.978-16.049,15.951c-4.075-0.012-7.992-1.579-10.951-4.381l-176-168c-6.39-6.104-6.622-16.232-0.519-22.621
	c0.169-0.177,0.342-0.35,0.519-0.519l176-168c6.417-6.075,16.544-5.798,22.619,0.619c2.802,2.959,4.369,6.876,4.381,10.951v80.36
	c74.14,3.41,129.38,30.91,164.35,81.87C449.32,292.44,464,350.9,464,424C464,432.837,456.837,440,448,440z"/>
</svg>
