<?xml version="1.0" encoding="iso-8859-1"?>
<!-- Generator: Adobe Illustrator 24.3.0, SVG Export Plug-In . SVG Version: 6.00 Build 0)  -->
<svg version="1.1" id="Layer_1" xmlns="http://www.w3.org/2000/svg" xmlns:xlink="http://www.w3.org/1999/xlink" x="0px" y="0px"
	 viewBox="0 0 512 512" style="enable-background:new 0 0 512 512;" xml:space="preserve">
<path d="M448.003,440.001c-4.833,0-9.521-2.194-12.613-6.152c-22.857-29.268-44.073-51.857-73.316-66.976
	C335.007,352.88,301.021,345.59,256,344.234V424c0,6.403-3.818,12.19-9.706,14.71c-5.886,2.521-12.709,1.286-17.342-3.137l-176-168
	C49.79,264.554,48,260.372,48,256c0-4.373,1.79-8.555,4.952-11.574l176-168c4.633-4.421,11.456-5.654,17.342-3.136
	C252.182,75.809,256,81.596,256,88v80.361c74.14,3.407,129.379,30.907,164.354,81.875C449.315,292.44,464,350.903,464,424
	c0,6.829-4.335,12.906-10.792,15.129C451.499,439.717,449.741,440.001,448.003,440.001z M87.172,256L224,386.609V328
	c0-8.837,7.164-16,16-16c58.409,0,101.869,8.403,136.77,26.447c20.787,10.747,37.981,24.699,53.005,39.938
	c-4.666-45.243-16.652-82.134-35.806-110.044c-14.679-21.39-33.974-37.94-57.352-49.192C310.215,206.443,277.708,200,240,200
	c-8.836,0-16-7.164-16-16v-58.608L87.172,256z"/>
</svg>
