<?xml version="1.0" encoding="iso-8859-1"?>
<!-- Generator: Adobe Illustrator 24.3.0, SVG Export Plug-In . SVG Version: 6.00 Build 0)  -->
<svg version="1.1" id="Layer_1" xmlns="http://www.w3.org/2000/svg" xmlns:xlink="http://www.w3.org/1999/xlink" x="0px" y="0px"
	 viewBox="0 0 512 512" style="enable-background:new 0 0 512 512;" xml:space="preserve">
<path d="M256,358c-4.075,0-8.15-1.548-11.27-4.643l-80-79.381c-6.273-6.224-6.312-16.354-0.088-22.627
	c6.224-6.272,16.355-6.312,22.627-0.088L256,319.46l68.73-68.198c6.271-6.224,16.401-6.186,22.627,0.088
	c6.225,6.272,6.185,16.403-0.088,22.627l-80,79.381C264.15,356.453,260.075,358,256,358z"/>
<path d="M256,346.97c-8.836,0-16-7.163-16-16V170c0-8.836,7.164-16,16-16c8.837,0,16,7.164,16,16v160.97
	C272,339.807,264.837,346.97,256,346.97z"/>
<path d="M256,464C141.309,464,48,370.692,48,256c0-114.691,93.309-208,208-208s208,93.309,208,208C464,370.692,370.691,464,256,464z
	 M256,80c-97.047,0-176,78.953-176,176C80,353.047,158.953,432,256,432S432,353.047,432,256C432,158.953,353.047,80,256,80z"/>
</svg>
