<?xml version="1.0" encoding="iso-8859-1"?>
<!-- Generator: Adobe Illustrator 24.3.0, SVG Export Plug-In . SVG Version: 6.00 Build 0)  -->
<svg version="1.1" id="Layer_1" xmlns="http://www.w3.org/2000/svg" xmlns:xlink="http://www.w3.org/1999/xlink" x="0px" y="0px"
	 viewBox="0 0 512 512" style="enable-background:new 0 0 512 512;" xml:space="preserve">
<path d="M256,48C141.13,48,48,141.13,48,256s93.13,208,208,208s208-93.13,208-208S370.87,48,256,48z M353.67,329.1
	c-24.07-25.21-51.51-38.68-108.58-38.68v37.32c-0.018,4.595-3.757,8.305-8.352,8.288c-2.121-0.008-4.16-0.827-5.698-2.288
	L146.58,254c-3.297-3.105-3.453-8.294-0.349-11.591c0.113-0.12,0.229-0.236,0.349-0.349L231,162.29
	c3.332-3.165,8.598-3.029,11.762,0.302c1.461,1.538,2.279,3.576,2.288,5.698v37.32c88.73,0,117.42,55.64,122.87,117.09
	C368.65,330.42,359.07,334.75,353.67,329.1L353.67,329.1z"/>
</svg>
