<?xml version="1.0" encoding="iso-8859-1"?>
<!-- Generator: Adobe Illustrator 24.3.0, SVG Export Plug-In . SVG Version: 6.00 Build 0)  -->
<svg version="1.1" id="Layer_1" xmlns="http://www.w3.org/2000/svg" xmlns:xlink="http://www.w3.org/1999/xlink" x="0px" y="0px"
	 viewBox="0 0 512 512" style="enable-background:new 0 0 512 512;" xml:space="preserve">
<path d="M268,424c-6.143,0-12.284-2.343-16.971-7.029c-9.373-9.373-9.373-24.568,0-33.941L378.059,256L251.029,128.971
	c-9.373-9.373-9.373-24.569,0-33.941c9.373-9.372,24.568-9.372,33.941,0l144,144c9.372,9.373,9.372,24.569,0,33.941l-144,144.001
	C280.284,421.658,274.143,424,268,424z"/>
<path d="M392,280H100C86.745,280,76,269.254,76,256c0-13.255,10.745-24,24-24h292c13.255,0,24,10.745,24,24
	C416,269.254,405.255,280,392,280z"/>
</svg>
