<?xml version="1.0" encoding="iso-8859-1"?>
<!-- Generator: Adobe Illustrator 24.3.0, SVG Export Plug-In . SVG Version: 6.00 Build 0)  -->
<svg version="1.1" id="Layer_1" xmlns="http://www.w3.org/2000/svg" xmlns:xlink="http://www.w3.org/1999/xlink" x="0px" y="0px"
	 viewBox="0 0 512 512" style="enable-background:new 0 0 512 512;" xml:space="preserve">
<path d="M244,424c-6.143,0-12.284-2.343-16.971-7.029l-144-144.001c-9.373-9.372-9.373-24.568,0-33.941l144-144
	c9.373-9.372,24.568-9.372,33.941,0c9.372,9.373,9.372,24.569,0,33.941L133.941,256l127.03,127.03
	c9.372,9.373,9.372,24.568,0,33.941C256.285,421.657,250.142,424,244,424z"/>
<path d="M412,280H120c-13.255,0-24-10.746-24-24.001c0-13.255,10.745-24,24-24h292c13.255,0,24,10.745,24,24
	C436,269.254,425.255,280,412,280z"/>
</svg>
