<?xml version="1.0" encoding="iso-8859-1"?>
<!-- Generator: Adobe Illustrator 24.3.0, SVG Export Plug-In . SVG Version: 6.00 Build 0)  -->
<svg version="1.1" id="Layer_1" xmlns="http://www.w3.org/2000/svg" xmlns:xlink="http://www.w3.org/1999/xlink" x="0px" y="0px"
	 viewBox="0 0 512 512" style="enable-background:new 0 0 512 512;" xml:space="preserve">
<path d="M48,256c0,114.87,93.13,208,208,208s208-93.13,208-208S370.87,48,256,48S48,141.13,48,256z M260.65,164.64
	c6.274,6.223,6.315,16.353,0.093,22.627c-0.001,0.001-0.002,0.002-0.003,0.003L208.42,240H342c8.837,0,16,7.163,16,16
	c0,8.837-7.163,16-16,16H208.42l52.32,52.73c6.224,6.279,6.179,16.416-0.1,22.64s-16.416,6.179-22.64-0.1l-79.39-80
	c-6.19-6.238-6.19-16.302,0-22.54l79.39-80c6.217-6.279,16.348-6.33,22.627-0.113C260.635,164.625,260.642,164.632,260.65,164.64z"
	/>
</svg>
