<?xml version="1.0" encoding="UTF-8"?>
<svg width="12px" height="14px" viewBox="0 0 12 14" version="1.1" xmlns="http://www.w3.org/2000/svg" xmlns:xlink="http://www.w3.org/1999/xlink">
    <title>Group</title>
    <g id="Page-1" stroke="none" stroke-width="1"  fill-rule="evenodd">
        <g id="Group" transform="translate(0.500000, 0.000000)"  fill-rule="nonzero">
            <path d="M9,0 L2,0 C0.895427625,0 0,0.895427625 0,2 L0,12 C0,13.1045512 0.89543644,14 2,14 L9,14 C10.1045424,14 11,13.1045424 11,12 L11,2 C11,0.89543644 10.1045512,0 9,0 Z M9,1 C9.55226953,1 10,1.44772428 10,2 L10,12 C10,12.5522576 9.55225763,13 9,13 L2,13 C1.44772428,13 1,12.5522695 1,12 L1,2 C1,1.44771237 1.44771237,1 2,1 L9,1 Z" id="Path"></path>
            <path d="M8,2.5 C8.27614237,2.5 8.5,2.72385763 8.5,3 C8.5,3.27614237 8.27614237,3.5 8,3.5 L6,3.5 C5.72385763,3.5 5.5,3.27614237 5.5,3 C5.5,2.72385763 5.72385763,2.5 6,2.5 L8,2.5 Z" id="Path"></path>
            <path d="M8,5 C8.27614237,5 8.5,5.22385763 8.5,5.5 C8.5,5.77614237 8.27614237,6 8,6 L6,6 C5.72385763,6 5.5,5.77614237 5.5,5.5 C5.5,5.22385763 5.72385763,5 6,5 L8,5 Z" id="Path"></path>
            <path d="M8,7.5 C8.27614237,7.5 8.5,7.72385763 8.5,8 C8.5,8.27614237 8.27614237,8.5 8,8.5 L6,8.5 C5.72385763,8.5 5.5,8.27614237 5.5,8 C5.5,7.72385763 5.72385763,7.5 6,7.5 L8,7.5 Z" id="Path"></path>
            <path d="M4.31185583,2.03557385 C4.40277634,1.93166469 4.56071699,1.92113531 4.66462615,2.01205583 C4.76853531,2.10297634 4.77906469,2.26091699 4.68814417,2.36482615 L3.28814417,3.96482615 C3.19291385,4.0736608 3.02548228,4.07923567 2.9232233,3.9769767 L2.3232233,3.3769767 C2.22559223,3.27934562 2.22559223,3.12105438 2.3232233,3.0234233 C2.42085438,2.92579223 2.57914562,2.92579223 2.6767767,3.0234233 L3.087,3.434 L4.31185583,2.03557385 Z" id="Path"></path>
            <path d="M4.31185583,4.53459385 C4.40277634,4.43068469 4.56071699,4.42015531 4.66462615,4.51107583 C4.76853531,4.60199634 4.77906469,4.75993699 4.68814417,4.86384615 L3.28814417,6.46384615 C3.19291385,6.5726808 3.02548228,6.57825567 2.9232233,6.4759967 L2.3232233,5.8759967 C2.22559223,5.77836562 2.22559223,5.62007438 2.3232233,5.5224433 C2.42085438,5.42481223 2.57914562,5.42481223 2.6767767,5.5224433 L3.087,5.933 L4.31185583,4.53459385 Z" id="Path"></path>
            <path d="M4.31185583,7.03557385 C4.40277634,6.93166469 4.56071699,6.92113531 4.66462615,7.01205583 C4.76853531,7.10297634 4.77906469,7.26091699 4.68814417,7.36482615 L3.28814417,8.96482615 C3.19291385,9.0736608 3.02548228,9.07923567 2.9232233,8.9769767 L2.3232233,8.3769767 C2.22559223,8.27934562 2.22559223,8.12105438 2.3232233,8.0234233 C2.42085438,7.92579223 2.57914562,7.92579223 2.6767767,8.0234233 L3.087,8.434 L4.31185583,7.03557385 Z" id="Path"></path>
        </g>
    </g>
</svg>