<?xml version="1.0" encoding="iso-8859-1"?>
<!-- Generator: Adobe Illustrator 24.3.0, SVG Export Plug-In . SVG Version: 6.00 Build 0)  -->
<svg version="1.1" id="Layer_1" xmlns="http://www.w3.org/2000/svg" xmlns:xlink="http://www.w3.org/1999/xlink" x="0px" y="0px"
	 viewBox="0 0 512 512" style="enable-background:new 0 0 512 512;" xml:space="preserve">
<path d="M256.08,464.081c-114.691,0-208-93.309-208-208c0-114.691,93.309-208,208-208s208,93.309,208,208
	C464.08,370.772,370.771,464.081,256.08,464.081z M256.08,80.08c-97.047,0-176,78.953-176,176c0,97.047,78.953,176,176,176
	s176-78.953,176-176C432.08,159.033,353.127,80.08,256.08,80.08z"/>
<path d="M246.62,381.88c-33.275,0-63.566-13.056-85.294-36.763c-22.099-24.11-32.629-56.178-29.652-90.294
	c2.909-33.337,18.457-64.634,43.779-88.125c25.364-23.53,57.57-36.488,90.688-36.488c37.204,0,67.938,12.077,88.881,34.924
	c20.085,21.913,29.51,52.754,26.537,86.842c-2.865,32.62-16.786,49.683-27.96,58.253c-11.098,8.513-24.669,12.368-36.309,10.317
	c-9.68-1.738-19.896-7.188-26.887-17.249c-11.378,11.088-26.632,17.542-43.912,17.542c-14.897,0-28.578-5.975-38.523-16.824
	c-11.4-12.437-16.997-30.381-15.354-49.231c3.049-34.985,30.931-57.374,56.898-61.409c27.149-4.305,52.185,6.527,62.87,19.454
	l3.854,4.664l-6.34,50.384c-1.192,14.339,3.283,23.483,12.299,25.103c2.354,0.413,8.088-0.155,14.361-4.967
	c6.716-5.151,15.135-16.009,17.108-38.479c2.314-26.545-4.354-49.191-19.284-65.481c-15.497-16.907-39.095-25.844-68.24-25.844
	c-53.999,0-101.807,44.432-106.572,99.047c-2.287,26.203,5.668,50.687,22.4,68.942c16.361,17.85,39.321,27.681,64.653,27.681
	c19.044,0,30.607-2.051,49.491-8.778c7.288-2.594,15.292,1.206,17.887,8.49s-1.207,15.292-8.49,17.887
	C283.677,379.255,268.816,381.88,246.62,381.88z M261.532,220.434c-2.484,0-5.053,0.186-7.68,0.603
	c-14.86,2.309-31.567,15.769-33.345,36.178c-0.963,11.052,1.989,21.215,8.1,27.881c4.644,5.066,10.828,7.744,17.883,7.744
	c20.304,0,34.727-14.938,36.742-38.057c0.065-0.75,0.188-1.48,0.365-2.188l3.179-25.257
	C281.454,223.926,272.289,220.434,261.532,220.434z"/>
</svg>
