<?xml version="1.0" encoding="iso-8859-1"?>
<!-- Generator: Adobe Illustrator 24.3.0, SVG Export Plug-In . SVG Version: 6.00 Build 0)  -->
<svg version="1.1" id="Layer_1" xmlns="http://www.w3.org/2000/svg" xmlns:xlink="http://www.w3.org/1999/xlink" x="0px" y="0px"
	 viewBox="0 0 512 512" style="enable-background:new 0 0 512 512;" xml:space="preserve">
<path d="M255.46,48.74c-114.84,0-208,93.11-208,208s93.12,208,208,208s208-93.12,208-208S370.31,48.74,255.46,48.74z M380.28,252
	c-2.85,32.63-16.79,49.7-28,58.26S327.61,322.58,316,320.5c-10.866-1.945-20.514-8.129-26.82-17.19
	c-11.766,11.445-27.587,17.763-44,17.57c-14.656,0.112-28.669-6.006-38.55-16.83c-11.38-12.42-17-30.36-15.32-49.23
	c3-35,30.91-57.39,56.87-61.48c27.2-4.29,52.23,6.54,62.9,19.46l3.85,4.66l-6.34,50.38c-1.19,14.34,3.28,23.48,12.29,25.1
	c2.39,0.42,8.1-0.13,14.37-4.93c6.72-5.15,15.14-16,17.1-38.47c2.35-26.54-4.35-49.19-19.25-65.49
	c-15.49-16.9-39.09-25.84-68.23-25.84c-54,0-101.81,44.43-106.58,99c-2.28,26.2,5.67,50.68,22.4,68.93
	c16.36,17.86,39.31,27.74,64.66,27.74c19,0,30.61-2.05,49.48-8.78c7.285-2.596,15.294,1.205,17.89,8.49
	c2.596,7.285-1.205,15.294-8.49,17.89c-21.82,7.77-36.68,10.4-58.88,10.4c-33.28,0-63.57-13.06-85.3-36.77
	C138,321,127.42,288.94,130.4,254.82c2.91-33.33,18.45-64.63,43.77-88.12s57.57-36.49,90.7-36.49c37.2,0,67.93,12.08,88.87,34.93
	C373.83,187.05,383.25,217.89,380.28,252z"/>
<path d="M252.57,221c-14.83,2.33-31.56,15.84-33.34,36.26c-1,11.06,2,21.22,8.07,27.87c4.576,5.041,11.103,7.865,17.91,7.75
	c20.31,0,34.73-14.94,36.75-38.06c0.061-0.698,0.175-1.389,0.34-2.07l3.2-25.45C275.587,221.442,263.945,219.215,252.57,221
	L252.57,221z"/>
</svg>
