<?xml version="1.0" encoding="iso-8859-1"?>
<!-- Generator: Adobe Illustrator 24.3.0, SVG Export Plug-In . SVG Version: 6.00 Build 0)  -->
<svg version="1.1" id="Layer_1" xmlns="http://www.w3.org/2000/svg" xmlns:xlink="http://www.w3.org/1999/xlink" x="0px" y="0px"
	 viewBox="0 0 512 512" style="enable-background:new 0 0 512 512;" xml:space="preserve">
<path d="M256.41,48.74c-114.85,0-208,93.11-208,208s93.12,208,208,208s208-93.12,208-208S371.25,48.74,256.41,48.74z M381.22,252
	c-2.85,32.63-16.78,49.7-28,58.26s-24.69,12.34-36.33,10.26c-10.985-1.984-20.713-8.296-27-17.52
	c-11.567,11.612-27.33,18.066-43.72,17.9c-14.656,0.114-28.67-6.005-38.55-16.83c-11.39-12.42-17-30.36-15.33-49.23
	c3.05-35,30.92-57.39,56.87-61.48c27.21-4.29,52.24,6.54,62.91,19.46l3.84,4.66l-6.34,50.38c-1.19,14.34,3.29,23.48,12.29,25.1
	c2.39,0.42,8.11-0.13,14.38-4.93c6.72-5.15,15.14-16,17.1-38.47c2.32-26.55-4.35-49.19-19.28-65.49
	c-15.5-16.9-39.1-25.84-68.24-25.84c-54,0-101.81,44.43-106.57,99c-2.29,26.2,5.66,50.68,22.39,68.93
	C198,344,221,353.88,246.29,353.88c19,0,30.61-2.05,49.49-8.78l13.22-4.69l9.39,26.37l-13.19,4.7c-21.82,7.77-36.68,10.4-58.88,10.4
	c-33.28,0-63.57-13.06-85.3-36.77c-22.09-24.11-32.62-56.17-29.65-90.29c2.91-33.33,18.46-64.63,43.77-88.12s57.57-36.49,90.7-36.49
	c37.2,0,67.94,12.08,88.88,34.93C374.77,187.05,384.2,217.89,381.22,252z"/>
<path d="M253.51,221c-14.83,2.33-31.55,15.84-33.34,36.26c-1,11.06,2,21.22,8.08,27.87c4.575,5.043,11.102,7.868,17.91,7.75
	c19.7,0,33.8-14.79,36.8-38.59l1.75-13.89h0.09l1.65-13.11c-9.916-5.859-21.562-8.086-32.94-6.3L253.51,221z"/>
</svg>
