<?xml version="1.0" encoding="iso-8859-1"?>
<!-- Generator: Adobe Illustrator 24.3.0, SVG Export Plug-In . SVG Version: 6.00 Build 0)  -->
<svg version="1.1" id="Layer_1" xmlns="http://www.w3.org/2000/svg" xmlns:xlink="http://www.w3.org/1999/xlink" x="0px" y="0px"
	 viewBox="0 0 512 512" style="enable-background:new 0 0 512 512;" xml:space="preserve">
<path d="M407.6,115.78c-32.07-35-79.47-53.51-137.09-53.51c-51,0-100.69,19.8-139.82,55.76s-63.13,83.84-67.63,134.83
	c-4.55,51.67,11.41,100.29,44.94,136.9c33.37,36.44,80.07,56.51,131.49,56.51c32.52,0,53.61-2.36,85.48-15.75l14.75-6.2l-12.4-29.5
	L312.57,401c-27.15,11.4-43.78,13.25-73.08,13.25c-42.34,0-80.65-16.38-107.89-46.12c-27.4-29.92-40.42-69.86-36.66-112.48
	c7.84-89,86.6-161.4,175.57-161.4c48.4,0,87.65,14.91,113.49,43.13c24.61,26.87,35.6,63.92,31.79,107.15
	c-3.29,37.35-17.76,55.74-29.32,64.6c-11,8.44-22,10.18-28,9.11c-17.68-3.13-26.87-20.46-24.59-46.29l9.93-109.12L311.9,160
	l-2,22.29c-15.072-15.427-35.753-24.086-57.32-24c-23.8,0-46.54,10.07-64,28.37c-16.77,17.53-27.23,41.05-29.45,66.22
	c-2.45,27.87,5.75,54.34,22.51,72.64c14.584,15.957,35.263,24.962,56.88,24.77c27.422,0.302,53.58-11.514,71.48-32.29
	c8.528,16.729,24.397,28.501,42.88,31.81c16.89,3,36.73-2.69,53.08-15.21c30.19-23.13,39.36-60.19,41.74-87.2
	C452.22,195.7,438,149,407.6,115.78z M281.26,301.78c-11.641,10.766-26.955,16.679-42.81,16.53
	c-12.646,0.22-24.773-5.02-33.28-14.38c-10.71-11.7-15.9-29.27-14.23-48.22c3.23-36.68,30.29-65.4,61.61-65.4
	c13.663-0.055,26.705,5.696,35.88,15.82c10.87,11.87,16.2,28.87,14.63,46.73c-1.78,20.28-9.33,37.14-21.8,48.88V301.78z"/>
</svg>
