<?xml version="1.0" encoding="iso-8859-1"?>
<!-- Generator: Adobe Illustrator 24.3.0, SVG Export Plug-In . SVG Version: 6.00 Build 0)  -->
<svg version="1.1" id="Layer_1" xmlns="http://www.w3.org/2000/svg" xmlns:xlink="http://www.w3.org/1999/xlink" x="0px" y="0px"
	 viewBox="0 0 512 512" style="enable-background:new 0 0 512 512;" xml:space="preserve">
<path d="M239.45,350.27c-22.054,0-42.254-8.795-56.879-24.764c-16.759-18.299-24.963-44.775-22.51-72.64
	c2.216-25.167,12.674-48.686,29.449-66.223c17.5-18.297,40.244-28.374,64.04-28.374c22.876,0,43.999,9.31,59.479,26.215
	c16.919,18.477,25.269,44.424,22.909,71.19c0,0,0,0,0,0.001c-2.49,28.215-13.483,52.208-31.792,69.387
	C286.822,341.318,263.846,350.27,239.45,350.27z M253.55,190.27c-31.319,0-58.382,28.729-61.611,65.403
	c-1.668,18.947,3.519,36.523,14.232,48.221c8.613,9.405,20.121,14.376,33.28,14.376c16.231,0,31.431-5.875,42.801-16.543
	c12.481-11.711,20.023-28.608,21.811-48.863v0.001c1.574-17.848-3.76-34.894-14.633-46.769
	C280.084,195.891,267.342,190.27,253.55,190.27z M320,254.27h0.01H320z"/>
<path d="M240.49,446.27c-51.391,0-98.063-20.049-131.419-56.452c-33.551-36.616-49.536-85.251-45.01-136.943
	c4.464-50.993,28.475-98.878,67.61-134.836c39.14-35.963,88.802-55.769,139.839-55.769c57.605,0,105.004,18.508,137.069,53.524
	c30.405,33.203,44.643,79.943,40.09,131.61c-4.31,48.946-25.075,74.437-41.737,87.203c-16.344,12.522-36.19,18.207-53.084,15.218
	c-26.339-4.671-55.469-28.597-50.886-80.658l8.479-96.251c0.775-8.803,8.546-15.308,17.343-14.534
	c8.803,0.776,15.31,8.54,14.534,17.343l-8.479,96.25c-2.278,25.883,6.915,43.207,24.594,46.342c6.05,1.07,17.021-0.67,28.037-9.109
	c20.946-16.05,27.507-43.994,29.322-64.61c3.811-43.238-7.19-80.304-31.812-107.191C359.138,109.186,319.9,94.27,271.51,94.27
	c-89.019,0-167.779,72.402-175.571,161.396c-3.733,42.647,9.309,82.612,36.725,112.534c27.222,29.709,65.515,46.07,107.826,46.07
	c29.298,0,45.927-1.841,73.081-13.251c8.147-3.423,17.526,0.406,20.949,8.553c3.423,8.147-0.406,17.526-8.553,20.949
	C294.094,443.914,273.009,446.27,240.49,446.27z"/>
</svg>
