<?xml version="1.0" encoding="iso-8859-1"?>
<!-- Generator: Adobe Illustrator 24.3.0, SVG Export Plug-In . SVG Version: 6.00 Build 0)  -->
<svg version="1.1" id="Layer_1" xmlns="http://www.w3.org/2000/svg" xmlns:xlink="http://www.w3.org/1999/xlink" x="0px" y="0px"
	 viewBox="0 0 512 512" style="enable-background:new 0 0 512 512;" xml:space="preserve">
<path d="M256.014,450.012c-0.546,0-1.089-0.004-1.637-0.012c-61.439-0.89-110.708-51.567-109.886-112.992V147.393
	c-0.007-0.647-0.007-1.294,0.001-1.941c0.557-45.929,38.108-82.916,83.918-82.916c0.346,0,0.686,0.002,1.033,0.006
	c46.25,0.562,83.427,38.618,82.917,84.856l-0.132,188.705c-0.481,30.465-24.723,54.706-55.188,55.188
	c-14.996,0.238-29.151-5.374-39.909-15.798c-10.758-10.423-16.813-24.412-17.05-39.39l-0.002-0.253V192c0-8.836,7.164-16,16-16
	s16,7.164,16,16v143.708c0.266,13.097,11.004,23.59,24.069,23.59c0.129,0,0.257-0.001,0.386-0.003
	c13.047-0.206,23.435-10.559,23.695-23.591l0.131-188.597c0.348-28.638-22.668-52.219-51.306-52.567
	c-13.868-0.168-26.98,5.076-36.909,14.766c-9.929,9.69-15.489,22.666-15.657,36.539c-0.005,0.422-0.005,0.839,0,1.257l0.001,0.199
	l-0.001,190.051c-0.635,43.838,34.513,80.019,78.351,80.653c0.388,0.005,0.78,0.008,1.167,0.008
	c43.312,0,78.855-34.91,79.485-78.359c0.01-0.763,0.01-1.538,0-2.312l-0.002-0.221V159.74c0-8.836,7.163-16,16-16s16,7.164,16,16
	v177.273c0.013,1.03,0.013,2.062-0.002,3.092C366.606,401.047,316.753,450.01,256.014,450.012z"/>
</svg>
