<?xml version="1.0" encoding="iso-8859-1"?>
<!-- Generator: Adobe Illustrator 24.3.0, SVG Export Plug-In . SVG Version: 6.00 Build 0)  -->
<svg version="1.1" id="Layer_1" xmlns="http://www.w3.org/2000/svg" xmlns:xlink="http://www.w3.org/1999/xlink" x="0px" y="0px"
	 viewBox="0 0 512 512" style="enable-background:new 0 0 512 512;" xml:space="preserve">
<path d="M255.945,446.949c-29.169,0-56.688-11.159-77.655-31.528c-21.364-20.755-33.367-48.587-33.798-78.369l-0.001-0.231V147.093
	c-0.007-0.646-0.007-1.293,0.001-1.94c0.271-22.415,9.258-43.387,25.303-59.047s37.191-24.13,59.649-23.863
	c46.25,0.561,83.427,38.617,82.917,84.856l-0.132,188.706c-0.481,30.465-24.723,54.706-55.188,55.188
	c-0.299,0.005-0.6,0.007-0.896,0.007c-30.517,0.002-55.579-24.575-56.062-55.194l-0.002-0.253V176h32v159.408
	c0.266,13.097,11.005,23.59,24.071,23.59c0.128,0,0.256-0.001,0.385-0.003c13.046-0.206,23.434-10.559,23.694-23.591l0.131-188.598
	c0.348-28.638-22.668-52.219-51.306-52.566c-13.882-0.176-26.98,5.075-36.909,14.766s-15.489,22.667-15.657,36.54
	c-0.005,0.422-0.005,0.839,0,1.256L176.49,147v189.698c0.335,21.195,8.89,40.997,24.097,55.771
	c15.233,14.798,35.307,22.819,56.553,22.472c20.802-0.302,40.36-8.569,55.071-23.28c14.686-14.685,22.949-34.2,23.278-54.962V143.44
	h32l-0.002,193.611c-0.422,29.175-12.018,56.604-32.648,77.236c-20.632,20.631-48.062,32.227-77.236,32.648
	C257.051,446.944,256.497,446.949,255.945,446.949z"/>
</svg>
