<?xml version="1.0" encoding="iso-8859-1"?>
<!-- Generator: Adobe Illustrator 24.3.0, SVG Export Plug-In . SVG Version: 6.00 Build 0)  -->
<svg version="1.1" id="Layer_1" xmlns="http://www.w3.org/2000/svg" xmlns:xlink="http://www.w3.org/1999/xlink" x="0px" y="0px"
	 viewBox="0 0 512 512" style="enable-background:new 0 0 512 512;" xml:space="preserve">
<path d="M156.87,416c-12.939-0.006-25.232-5.598-33.735-15.34c-0.629-0.721-1.188-1.491-1.674-2.303L32.992,264.837
	c-3.549-5.356-3.549-12.316-0.001-17.673l88.87-134.16c0.395-0.597,0.83-1.166,1.301-1.705c8.503-9.711,20.784-15.288,33.692-15.3
	H403.13c24.663,0.11,44.76,20.207,44.87,44.798V371.13c-0.11,24.663-20.207,44.76-44.799,44.87H156.87z M147.883,380.299
	c2.385,2.361,5.613,3.699,8.994,3.701H403.13c7.033-0.031,12.839-5.837,12.87-12.941V140.87c-0.031-7.033-5.837-12.838-12.941-12.87
	H156.87c-3.395,0.003-6.648,1.361-9.043,3.752L65.523,255.999L147.883,380.299z"/>
<path d="M206.66,338.34c-4.095,0-8.189-1.562-11.313-4.687c-6.249-6.248-6.249-16.379,0-22.627l130.01-130.01
	c6.248-6.249,16.379-6.249,22.627,0c6.249,6.249,6.249,16.379,0,22.627l-130.009,130.01
	C214.85,336.778,210.755,338.34,206.66,338.34z"/>
<path d="M336.67,338.34c-4.096,0-8.189-1.562-11.313-4.687l-130.01-130.01c-6.248-6.248-6.248-16.379,0-22.627
	c6.248-6.248,16.378-6.249,22.627,0l130.009,130.01c6.249,6.248,6.249,16.379,0,22.627
	C344.859,336.778,340.765,338.34,336.67,338.34z"/>
<path d="M206.66,338.34c-4.095,0-8.189-1.562-11.313-4.687c-6.249-6.248-6.249-16.379,0-22.627l130.01-130.01
	c6.248-6.249,16.379-6.249,22.627,0c6.249,6.249,6.249,16.379,0,22.627l-130.009,130.01
	C214.85,336.778,210.755,338.34,206.66,338.34z"/>
<path d="M336.67,338.34c-4.096,0-8.189-1.562-11.313-4.687l-130.01-130.01c-6.248-6.248-6.248-16.379,0-22.627
	c6.248-6.248,16.378-6.249,22.627,0l130.009,130.01c6.249,6.248,6.249,16.379,0,22.627
	C344.859,336.778,340.765,338.34,336.67,338.34z"/>
</svg>
