<?xml version="1.0" encoding="iso-8859-1"?>
<!-- Generator: Adobe Illustrator 24.3.0, SVG Export Plug-In . SVG Version: 6.00 Build 0)  -->
<svg version="1.1" id="Layer_1" xmlns="http://www.w3.org/2000/svg" xmlns:xlink="http://www.w3.org/1999/xlink" x="0px" y="0px"
	 viewBox="0 0 512 512" style="enable-background:new 0 0 512 512;" xml:space="preserve">
<path d="M403.13,96H156.87c-12.899,0.016-25.168,5.578-33.68,15.27c-0.729,0.831-1.369,1.736-1.91,2.7L32,247.75
	c-3.055,5.076-3.055,11.424,0,16.5l89.15,133.57c0.561,1.029,1.231,1.995,2,2.88c8.51,9.709,20.789,15.284,33.7,15.3h246.28
	c24.77-0.028,44.842-20.1,44.87-44.87V140.87C447.972,116.1,427.9,96.028,403.13,96z M348,311
	c6.338,6.158,6.483,16.287,0.326,22.625s-16.287,6.483-22.625,0.326c-0.112-0.109-0.222-0.219-0.331-0.331L271.67,280L218,333.65
	c-6.255,6.255-16.395,6.255-22.65,0s-6.255-16.395,0-22.65L249,257.33l-53.69-53.69c-6.252-6.266-6.241-16.413,0.025-22.665
	S211.748,174.734,218,181l53.69,53.7l53.67-53.7c6.252-6.252,16.388-6.252,22.64,0c6.252,6.252,6.252,16.388,0,22.64l-53.7,53.69
	L348,311z"/>
</svg>
