<?xml version="1.0" encoding="iso-8859-1"?>
<!-- Generator: Adobe Illustrator 24.3.0, SVG Export Plug-In . SVG Version: 6.00 Build 0)  -->
<svg version="1.1" id="Layer_1" xmlns="http://www.w3.org/2000/svg" xmlns:xlink="http://www.w3.org/1999/xlink" x="0px" y="0px"
	 viewBox="0 0 512 512" style="enable-background:new 0 0 512 512;" xml:space="preserve">
<path d="M230.399,392c-4.671,0-9.114-2.042-12.157-5.599l-38.4-44.881c-5.745-6.714-4.959-16.814,1.755-22.559
	c6.714-5.745,16.814-4.96,22.559,1.756l25.829,30.188l77.52-96.9c5.521-6.9,15.59-8.018,22.489-2.499
	c6.9,5.521,8.019,15.589,2.499,22.489l-89.6,112c-2.979,3.724-7.463,5.924-12.23,6.003C230.576,391.999,230.487,392,230.399,392z"/>
<path d="M392,480H120c-39.028,0-72-32.972-72-72V192c0-17.645,14.355-32,32-32h352c17.645,0,32,14.355,32,32V409.25
	c0,18.919-7.644,36.747-21.523,50.202C428.809,472.704,410.883,480,392,480z M80,192c-0.014,0-0.02,0.001-0.02,0.001L80,408
	c0,21.309,18.691,40,40,40h272c21.683,0,40-17.745,40-38.75V192H80z"/>
<path d="M352,192c-8.837,0-16-7.164-16-16v-32c0-44.112-35.888-80-80-80s-80,35.888-80,80v32c0,8.836-7.164,16-16,16
	s-16-7.164-16-16v-32c0-61.757,50.243-112,112-112s112,50.243,112,112v32C368,184.836,360.837,192,352,192z"/>
</svg>
