<?xml version="1.0" encoding="iso-8859-1"?>
<!-- Generator: Adobe Illustrator 24.3.0, SVG Export Plug-In . SVG Version: 6.00 Build 0)  -->
<svg version="1.1" id="Layer_1" xmlns="http://www.w3.org/2000/svg" xmlns:xlink="http://www.w3.org/1999/xlink" x="0px" y="0px"
	 viewBox="0 0 512 512" style="enable-background:new 0 0 512 512;" xml:space="preserve">
<path d="M454.66,169.4c-5.996-6.032-14.155-9.417-22.66-9.4h-64v-16c0-61.856-50.144-112-112-112S144,82.144,144,144v16H80
	c-17.673,0-32,14.327-32,32v216c0,39,33,72,72,72h272c18.865,0.006,36.983-7.37,50.48-20.55c13.725-13.094,21.5-31.231,21.52-50.2
	V192C464.026,183.522,460.663,175.386,454.66,169.4z M320,336h-48v48c0,8.837-7.163,16-16,16c-8.837,0-16-7.163-16-16v-48h-48
	c-8.837,0-16-7.163-16-16s7.163-16,16-16h48v-48c0-8.837,7.163-16,16-16c8.837,0,16,7.163,16,16v48h48c8.837,0,16,7.163,16,16
	S328.837,336,320,336z M336,160H176v-16c0-44.183,35.817-80,80-80s80,35.817,80,80V160z"/>
</svg>
