<?xml version="1.0" encoding="iso-8859-1"?>
<!-- Generator: Adobe Illustrator 24.3.0, SVG Export Plug-In . SVG Version: 6.00 Build 0)  -->
<svg version="1.1" id="Layer_1" xmlns="http://www.w3.org/2000/svg" xmlns:xlink="http://www.w3.org/1999/xlink" x="0px" y="0px"
	 viewBox="0 0 512 512" style="enable-background:new 0 0 512 512;" xml:space="preserve">
<path d="M320,336H192c-8.836,0-16-7.163-16-16s7.164-16,16-16h128c8.837,0,16,7.163,16,16S328.837,336,320,336z"/>
<path d="M392,480H120c-39.028,0-72-32.972-72-72V192c0-17.645,14.355-32,32-32h352c17.645,0,32,14.355,32,32V409.25
	c0,18.919-7.644,36.747-21.523,50.202C428.809,472.704,410.883,480,392,480z M80,192c-0.014,0-0.02,0.001-0.02,0.001L80,408
	c0,21.309,18.691,40,40,40h272c21.683,0,40-17.745,40-38.75V192H80z"/>
<path d="M352,192c-8.837,0-16-7.164-16-16v-32c0-44.112-35.888-80-80-80s-80,35.888-80,80v32c0,8.836-7.164,16-16,16
	s-16-7.164-16-16v-32c0-61.757,50.243-112,112-112s112,50.243,112,112v32C368,184.836,360.837,192,352,192z"/>
</svg>
