<?xml version="1.0" encoding="iso-8859-1"?>
<!-- Generator: Adobe Illustrator 24.3.0, SVG Export Plug-In . SVG Version: 6.00 Build 0)  -->
<svg version="1.1" id="Layer_1" xmlns="http://www.w3.org/2000/svg" xmlns:xlink="http://www.w3.org/1999/xlink" x="0px" y="0px"
	 viewBox="0 0 512 512" style="enable-background:new 0 0 512 512;" xml:space="preserve">
<path d="M460,160h-88v-12c-0.049-62.925-50.206-114.364-113.11-116c-1,0-1.92,0-2.89,0s-1.93,0-2.89,0
	C190.206,33.636,140.049,85.075,140,148v12H52c-2.209,0-4,1.791-4,4v300c0,8.837,7.163,16,16,16h384c8.837,0,16-7.163,16-16V164
	C464,161.791,462.209,160,460,160z M180,149c0-41.84,33.41-76.56,75.25-77c42.016-0.37,76.377,33.391,76.747,75.407
	c0.002,0.198,0.003,0.395,0.003,0.593v12H180V149z M368,240c0,61.856-50.144,112-112,112s-112-50.144-112-112v-32h32v32
	c0,44.183,35.817,80,80,80s80-35.817,80-80v-32h32V240z"/>
</svg>
