<?xml version="1.0" encoding="iso-8859-1"?>
<!-- Generator: Adobe Illustrator 24.3.0, SVG Export Plug-In . SVG Version: 6.00 Build 0)  -->
<svg version="1.1" id="Layer_1" xmlns="http://www.w3.org/2000/svg" xmlns:xlink="http://www.w3.org/1999/xlink" x="0px" y="0px"
	 viewBox="0 0 512 512" style="enable-background:new 0 0 512 512;" xml:space="preserve">
<path d="M454.65,169.4c-5.991-6.034-14.147-9.419-22.65-9.4h-64v-16c0-61.856-50.144-112-112-112S144,82.144,144,144v16H80
	c-17.673,0-32,14.327-32,32v216c0,39,33,72,72,72h272c18.865,0.006,36.983-7.37,50.48-20.55c13.725-13.094,21.5-31.231,21.52-50.2
	V192C464.026,183.52,460.66,175.383,454.65,169.4z M176,144c0-44.183,35.817-80,80-80s80,35.817,80,80v16H176V144z"/>
</svg>
