<?xml version="1.0" encoding="iso-8859-1"?>
<!-- Generator: Adobe Illustrator 24.3.0, SVG Export Plug-In . SVG Version: 6.00 Build 0)  -->
<svg version="1.1" id="icons" xmlns="http://www.w3.org/2000/svg" xmlns:xlink="http://www.w3.org/1999/xlink" x="0px" y="0px"
	 viewBox="0 0 512 512" style="enable-background:new 0 0 512 512;" xml:space="preserve">
<path d="M270.908,382.784c-34.125,0-74.531-15.933-108.814-43.495c-44.254-35.579-72.807-84.85-80.397-138.736
	C68.202,104.543,135.329,15.46,231.333,1.966c90.13-12.667,174.153,45.713,195.269,132.339l0.852-0.208l2.501,17.495
	c7.6,54.043-6.247,109.33-38.988,155.676c-28.854,40.843-69.546,69.418-106.196,74.576
	C280.294,382.474,275.662,382.784,270.908,382.784z M255.901,32.243c-6.643,0-13.351,0.461-20.114,1.412
	c-78.531,11.038-133.441,83.908-122.403,162.439c6.451,45.795,30.87,87.794,68.76,118.256c31.908,25.653,70.437,39.71,98.167,35.808
	c27.774-3.909,60.95-27.991,84.519-61.353c27.255-38.579,39.234-84.233,33.927-128.976l-0.53-3.771
	C388.139,84.289,326.397,32.243,255.901,32.243z"/>
<path d="M236.056,324.054c-1.96,0-3.953-0.362-5.886-1.128c-41.263-16.339-76.301-52.716-91.44-94.935
	c-2.982-8.318,1.342-17.479,9.66-20.462c8.317-2.981,17.479,1.342,20.462,9.66c14.495,40.421,47.265,65.754,73.1,75.985
	c8.216,3.253,12.239,12.551,8.985,20.767C248.448,320.224,242.426,324.054,236.056,324.054z"/>
<path d="M367.695,511.784c-1.96,0-3.953-0.362-5.886-1.128c-41.124-16.284-72.259-48.916-87.67-91.885
	c-2.983-8.317,1.341-17.479,9.659-20.462c8.321-2.983,17.479,1.343,20.462,9.659c12.261,34.185,36.883,60.087,69.33,72.936
	c8.216,3.253,12.239,12.551,8.985,20.767C380.089,507.954,374.066,511.784,367.695,511.784z"/>
<path d="M257.539,433.82c-4.331,0-8.515-1.76-11.554-4.933c-3.559-3.716-5.113-8.916-4.178-13.976l9.17-49.609
	c1.251-6.768,6.69-11.978,13.506-12.936l31.65-4.45c6.812-0.959,13.482,2.55,16.55,8.711l22.489,45.16
	c2.294,4.605,2.232,10.033-0.164,14.586s-6.836,7.675-11.931,8.391l-63.31,8.899C259.023,433.769,258.279,433.82,257.539,433.82z
	 M280.349,382.45l-3.037,16.434l19.313-2.715l-7.449-14.959L280.349,382.45z"/>
</svg>
