<?xml version="1.0" encoding="iso-8859-1"?>
<!-- Generator: Adobe Illustrator 24.3.0, SVG Export Plug-In . SVG Version: 6.00 Build 0)  -->
<svg version="1.1" id="icons" xmlns="http://www.w3.org/2000/svg" xmlns:xlink="http://www.w3.org/1999/xlink" x="0px" y="0px"
	 viewBox="0 0 512 512" style="enable-background:new 0 0 512 512;" xml:space="preserve">
<path d="M391,307.27c32.75-46.35,46.59-101.63,39-155.68C416.462,55.436,327.539-11.538,231.385,1.999c-0.002,0-0.003,0-0.005,0.001
	c-96,13.49-163.14,102.58-149.65,198.58c7.57,53.89,36.12,103.16,80.37,138.74c24.58,19.68,52.31,33.5,78.62,39.68
	c4.131,0.993,6.765,5.041,6,9.22l-4.87,26.38c-0.708,3.59-0.186,7.313,1.48,10.57c2.757,5.294,8.231,8.613,14.2,8.61
	c0.746,0.001,1.492-0.052,2.23-0.16l17.81-2.5c0.872-0.121,1.72,0.342,2.09,1.14c16.72,36.31,45.46,63.85,82.15,78.36
	c8.218,3.247,17.513-0.783,20.76-9.002c0.085-0.214,0.165-0.431,0.24-0.648c2.83-8.18-1.64-17.07-9.68-20.28
	c-25.103-10.028-46.025-28.333-59.3-51.88c-0.562-0.951-0.248-2.177,0.703-2.74c0.229-0.136,0.483-0.224,0.747-0.26l7.4-1
	c3.872-0.499,7.443-2.352,10.08-5.23c4.366-4.885,5.313-11.937,2.39-17.8l-12.06-24.23c-1.904-3.823-0.469-8.467,3.26-10.55
	C349.94,353.83,372.8,333,391,307.27z M236.1,324.05c-2.013,0-4.008-0.38-5.88-1.12c-41.26-16.32-76.3-52.7-91.45-94.94
	c-3.082-8.282,1.134-17.494,9.416-20.575s17.494,1.134,20.575,9.416c0.044,0.119,0.087,0.239,0.129,0.359
	c14.5,40.44,47.27,65.77,73.1,76c8.218,3.248,12.247,12.543,8.999,20.761c-2.415,6.11-8.319,10.123-14.889,10.119L236.1,324.05z"/>
</svg>
