<?xml version="1.0" encoding="iso-8859-1"?>
<!-- Generator: Adobe Illustrator 24.3.0, SVG Export Plug-In . SVG Version: 6.00 Build 0)  -->
<svg version="1.1" id="icons" xmlns="http://www.w3.org/2000/svg" xmlns:xlink="http://www.w3.org/1999/xlink" x="0px" y="0px"
	 viewBox="0 0 512 512" style="enable-background:new 0 0 512 512;" xml:space="preserve">
<path d="M391,307.27c32.75-46.35,46.59-101.63,39-155.68l0,0C416.47,55.59,327.38-11.54,231.38,2S68.24,104.53,81.73,200.53
	c7.57,53.89,36.12,103.16,80.37,138.74c26.91,21.64,57.59,36.1,86.05,41.33l-8.36,45.23c-0.807,4.344,2.061,8.52,6.405,9.326
	c0.856,0.159,1.733,0.177,2.595,0.054L279,431c15.9,35.87,41.65,60.48,78.41,75l14.88,5.88l11.77-29.75l-14.88-5.89
	c-26.35-10.42-44.48-26.16-57-49.92l21.84-3.07c4.375-0.613,7.425-4.658,6.812-9.033c-0.12-0.855-0.377-1.684-0.762-2.457
	l-20.49-41.16C345.56,357.73,371.07,335.42,391,307.27z M230.18,322.93c-41.26-16.32-76.3-52.7-91.45-94.94l-5.4-15.06l30.12-10.8
	l5.4,15.06c14.5,40.44,47.27,65.77,73.1,76l14.88,5.88l-11.77,29.76L230.18,322.93z"/>
</svg>
