<?xml version="1.0" encoding="iso-8859-1"?>
<!-- Generator: Adobe Illustrator 24.3.0, SVG Export Plug-In . SVG Version: 6.00 Build 0)  -->
<svg version="1.1" id="Layer_1" xmlns="http://www.w3.org/2000/svg" xmlns:xlink="http://www.w3.org/1999/xlink" x="0px" y="0px"
	 viewBox="0 0 512 512" style="enable-background:new 0 0 512 512;" xml:space="preserve">
<path d="M256,480c-59.833,0-116.084-23.3-158.392-65.608C55.3,372.084,32,315.832,32,256S55.3,139.916,97.608,97.608
	S196.167,32,256,32c59.833,0,116.084,23.3,158.392,65.608C456.7,139.916,480,196.167,480,256s-23.3,116.084-65.608,158.392
	C372.084,456.701,315.833,480,256,480z M256,80c-97.047,0-176,78.953-176,176C80,353.047,158.953,432,256,432S432,353.047,432,256
	C432,158.953,353.047,80,256,80z"/>
<rect x="232" y="56.002" transform="matrix(0.7071 -0.7071 0.7071 0.7071 -106.0388 255.9997)" width="48" height="399.996"/>
</svg>
