<?xml version="1.0" encoding="iso-8859-1"?>
<!-- Generator: Adobe Illustrator 24.3.0, SVG Export Plug-In . SVG Version: 6.00 Build 0)  -->
<svg version="1.1" id="Layer_1" xmlns="http://www.w3.org/2000/svg" xmlns:xlink="http://www.w3.org/1999/xlink" x="0px" y="0px"
	 viewBox="0 0 512 512" style="enable-background:new 0 0 512 512;" xml:space="preserve">
<path d="M27.71,337.1c-15.602,15.618-15.602,40.922,0,56.54l90.65,90.65l0,0c15.618,15.602,40.922,15.602,56.54,0l75.1-75.1
	L102.81,262L27.71,337.1z"/>
<path d="M496,147.1c0.031-10.65-4.2-20.869-11.75-28.38l-91-91c-15.674-15.665-41.076-15.665-56.75,0L264,100.28L411.72,248
	l72.53-72.53C491.799,167.963,496.03,157.747,496,147.1z"/>
<path d="M273.06,386.19l116-116L241.77,123l-116,116L273.06,386.19z M292.69,244.69c6.246-6.25,16.377-6.254,22.627-0.007
	s6.254,16.377,0.007,22.627s-16.377,6.254-22.627,0.007c-0.002-0.002-0.005-0.005-0.007-0.007
	C286.447,261.063,286.447,250.938,292.69,244.69z M244.69,196.69c6.246-6.25,16.377-6.254,22.627-0.007s6.254,16.377,0.007,22.627
	s-16.377,6.254-22.627,0.007c-0.002-0.002-0.005-0.005-0.007-0.007C238.447,213.062,238.447,202.938,244.69,196.69z M244.69,292.69
	c6.246-6.25,16.377-6.254,22.627-0.007s6.254,16.377,0.007,22.627s-16.377,6.254-22.627,0.007c-0.002-0.002-0.005-0.005-0.007-0.007
	C238.447,309.063,238.447,298.938,244.69,292.69z M219.31,244.69c6.25,6.246,6.254,16.377,0.007,22.627s-16.377,6.254-22.627,0.007
	s-6.254-16.377-0.007-22.627c0.002-0.002,0.005-0.005,0.007-0.007C202.938,238.447,213.062,238.447,219.31,244.69z"/>
</svg>
