<?xml version="1.0" encoding="iso-8859-1"?>
<!-- Generator: Adobe Illustrator 24.3.0, SVG Export Plug-In . SVG Version: 6.00 Build 0)  -->
<svg version="1.1" id="Layer_1" xmlns="http://www.w3.org/2000/svg" xmlns:xlink="http://www.w3.org/1999/xlink" x="0px" y="0px"
	 viewBox="0 0 512 512" style="enable-background:new 0 0 512 512;" xml:space="preserve">
<path style="fill:none;" d="M275.8,157c-6.248-6.249-16.378-6.25-22.627-0.003c-0.001,0.001-0.002,0.002-0.003,0.003l-93.34,93.34
	c-6.249,6.248-6.25,16.378-0.003,22.627c0.001,0.001,0.002,0.002,0.003,0.003l79.2,79.2l0,0c6.248,6.249,16.378,6.25,22.627,0.003
	c0.001-0.001,0.002-0.002,0.003-0.003L355,258.83c6.249-6.248,6.25-16.378,0.003-22.627c-0.001-0.001-0.002-0.002-0.003-0.003
	L275.8,157z"/>
<path style="fill:none;" d="M137.21,295.6c-3.889-3.885-7.079-8.411-9.43-13.38L69,341c-28.125,28.184-28.125,73.816,0,102l0,0
	c28.222,28.032,73.778,28.032,102,0l58.77-58.76c-4.969-2.351-9.495-5.541-13.38-9.43L137.21,295.6z"/>
<path style="fill:none;" d="M392,48c-19.123-0.097-37.49,7.466-51,21l-55.92,55.91c4.961,2.363,9.48,5.559,13.36,9.45l79.19,79.19
	c3.891,3.88,7.087,8.399,9.45,13.36L443,171c28.167-28.069,28.246-73.657,0.177-101.823C429.624,55.577,411.2,47.953,392,48z"/>
<path d="M275.8,157c-6.248-6.249-16.378-6.25-22.627-0.003c-0.001,0.001-0.002,0.002-0.003,0.003l-93.34,93.34
	c-6.249,6.248-6.25,16.378-0.003,22.627c0.001,0.001,0.002,0.002,0.003,0.003l79.2,79.2l0,0c6.248,6.249,16.378,6.25,22.627,0.003
	c0.001-0.001,0.002-0.002,0.003-0.003L355,258.83c6.249-6.248,6.25-16.378,0.003-22.627c-0.001-0.001-0.002-0.002-0.003-0.003
	L275.8,157z M219.31,267.31c-6.246,6.25-16.377,6.254-22.627,0.007c-6.25-6.246-6.254-16.377-0.007-22.627
	s16.377-6.254,22.627-0.007c0.002,0.002,0.005,0.005,0.007,0.007C225.553,250.938,225.553,261.063,219.31,267.31z M267.31,315.31
	c-6.246,6.25-16.377,6.254-22.627,0.007c-6.25-6.246-6.254-16.377-0.007-22.627s16.377-6.254,22.627-0.007
	c0.002,0.002,0.005,0.005,0.007,0.007C273.553,298.938,273.553,309.063,267.31,315.31z M267.31,219.31
	c-6.246,6.25-16.377,6.254-22.627,0.007c-6.25-6.246-6.254-16.377-0.007-22.627s16.377-6.254,22.627-0.007
	c0.002,0.002,0.005,0.005,0.007,0.007C273.553,202.938,273.553,213.062,267.31,219.31z M315.31,267.31
	c-6.246,6.25-16.377,6.254-22.627,0.007s-6.254-16.377-0.007-22.627s16.377-6.254,22.627-0.007c0.002,0.002,0.005,0.005,0.007,0.007
	C321.553,250.938,321.553,261.063,315.31,267.31z"/>
<path d="M465.61,46.39c-40.721-40.52-106.529-40.52-147.25,0l-69.76,69.89c-1.557,1.567-1.549,4.1,0.019,5.657
	c1.098,1.091,2.726,1.45,4.181,0.923c3.726-1.497,7.678-2.356,11.69-2.54c12.737-0.033,24.958,5.03,33.94,14.06l79.19,79.19
	c9.03,8.982,14.093,21.203,14.06,33.94c-0.183,4.012-1.041,7.964-2.54,11.69c-0.752,2.077,0.322,4.371,2.399,5.123
	c1.455,0.527,3.084,0.168,4.181-0.923l69.89-69.76C506.13,152.919,506.13,87.111,465.61,46.39L465.61,46.39z"/>
<path d="M254.34,386.83c-12.724,0.025-24.934-5.012-33.94-14l-79.19-79.23c-3.889-3.885-7.079-8.411-9.43-13.38
	c-4.59-9.7-1.39-25,2.48-36.9c0.637-2.115-0.562-4.346-2.677-4.983c-1.401-0.422-2.921-0.045-3.963,0.983l-77.23,77.04
	c-40.662,40.662-40.662,106.588,0,147.25s106.588,40.662,147.25,0l0,0l72.75-72.88c1.56-1.564,1.557-4.097-0.007-5.657
	c-1.102-1.099-2.742-1.459-4.203-0.923C262,385.73,257.78,386.83,254.34,386.83z"/>
</svg>
