<?xml version="1.0" encoding="iso-8859-1"?>
<!-- Generator: Adobe Illustrator 24.3.0, SVG Export Plug-In . SVG Version: 6.00 Build 0)  -->
<svg version="1.1" id="Layer_1" xmlns="http://www.w3.org/2000/svg" xmlns:xlink="http://www.w3.org/1999/xlink" x="0px" y="0px"
	 viewBox="0 0 512 512" style="enable-background:new 0 0 512 512;" xml:space="preserve">
<path d="M120.022,496.062c-26.63,0-53.261-10.125-73.55-30.373c-0.027-0.027-0.055-0.054-0.082-0.081
	c-40.596-40.597-40.596-106.651,0-147.248L318.365,46.385c40.596-40.596,106.652-40.596,147.248,0
	c40.604,40.604,40.604,106.659,0.007,147.255L193.646,465.615C173.348,485.914,146.685,496.062,120.022,496.062z M68.961,442.923
	c0.021,0.021,0.043,0.043,0.064,0.064c28.121,28.119,73.875,28.119,101.993,0l271.975-271.975c28.119-28.12,28.119-73.874,0-101.993
	c-28.126-28.126-73.879-28.128-102.001-0.007L69.019,340.987C40.917,369.088,40.898,414.799,68.961,442.923z"/>
<path d="M250.333,388.856c-12.821,0-24.875-4.993-33.941-14.06l-79.195-79.195c-9.066-9.066-14.059-21.12-14.059-33.941
	c0-12.821,4.993-24.875,14.059-33.941l93.337-93.337c18.716-18.716,49.167-18.715,67.882,0l0,0l79.196,79.196
	c18.714,18.716,18.714,49.167,0.001,67.882l-93.34,93.338C275.208,383.863,263.154,388.856,250.333,388.856z M264.475,152.33
	c-4.097,0-8.194,1.559-11.313,4.678l-93.338,93.338c-3.022,3.022-4.686,7.041-4.686,11.314c0,4.274,1.664,8.292,4.686,11.314
	l79.196,79.195c3.022,3.022,7.04,4.687,11.314,4.687c4.273,0,8.291-1.664,11.312-4.687l93.34-93.338
	c6.237-6.238,6.237-16.39-0.001-22.628l-79.195-79.195C272.67,153.889,268.572,152.33,264.475,152.33z"/>
<circle cx="256" cy="208" r="16"/>
<circle cx="304" cy="256" r="16"/>
<circle cx="208" cy="256" r="16"/>
<circle cx="256" cy="304" r="16"/>
</svg>
