<svg width="38" height="38" viewBox="0 0 38 38"  xmlns="http://www.w3.org/2000/svg">
<path d="M10.5225 29.3249C10.4673 29.3249 10.4225 29.3696 10.4225 29.4249V29.6766C10.4225 29.7318 10.3777 29.7766 10.3225 29.7766H10.1937C10.1385 29.7766 10.0938 29.8213 10.0938 29.8766V30.1755C10.0938 30.2307 10.1385 30.2755 10.1938 30.2755H13.7207C13.776 30.2755 13.8207 30.2307 13.8207 30.1755V29.8766C13.8207 29.8213 13.776 29.7766 13.7207 29.7766H13.592C13.5368 29.7766 13.492 29.7318 13.492 29.6766V29.4249C13.492 29.3696 13.4472 29.3249 13.392 29.3249H13.2353C13.1801 29.3249 13.1353 29.2801 13.1353 29.2249V21.9595C13.1353 21.9042 13.1801 21.8595 13.2353 21.8595H13.392C13.4472 21.8595 13.492 21.8147 13.492 21.7595V21.3813C13.492 21.326 13.4472 21.2812 13.392 21.2812H10.5225C10.4673 21.2812 10.4225 21.326 10.4225 21.3813V21.7595C10.4225 21.8147 10.4673 21.8595 10.5225 21.8595H10.683C10.7383 21.8595 10.783 21.9042 10.783 21.9595V29.2249C10.783 29.2801 10.7383 29.3249 10.683 29.3249H10.5225Z" fill="#482084"/>
<path d="M6.28812 29.3288C6.23289 29.3288 6.18812 29.3736 6.18812 29.4288V29.6805C6.18812 29.7357 6.14335 29.7805 6.08812 29.7805H5.95937C5.90415 29.7805 5.85938 29.8252 5.85938 29.8805V30.1794C5.85938 30.2346 5.90415 30.2794 5.95937 30.2794H9.48607C9.5413 30.2794 9.58607 30.2346 9.58607 30.1794V29.8805C9.58607 29.8252 9.5413 29.7805 9.48607 29.7805H9.36147C9.30624 29.7805 9.26147 29.7357 9.26147 29.6805V29.4288C9.26147 29.3736 9.2167 29.3288 9.16147 29.3288H9.00095C8.94572 29.3288 8.90095 29.284 8.90095 29.2288V21.9634C8.90095 21.9081 8.94572 21.8634 9.00095 21.8634H9.16147C9.2167 21.8634 9.26147 21.8186 9.26147 21.7634V21.3852C9.26147 21.3299 9.2167 21.2852 9.16147 21.2852H6.2881C6.23288 21.2852 6.1881 21.3299 6.1881 21.3852V21.7634C6.1881 21.8186 6.23288 21.8634 6.2881 21.8634H6.44862C6.50385 21.8634 6.54862 21.9081 6.54862 21.9634V29.2288C6.54862 29.284 6.50385 29.3288 6.44862 29.3288H6.28812Z" fill="#482084"/>
<path d="M14.7566 29.3288C14.7014 29.3288 14.6566 29.3736 14.6566 29.4288V29.6805C14.6566 29.7357 14.6118 29.7805 14.5566 29.7805H14.4281C14.3729 29.7805 14.3281 29.8252 14.3281 29.8805V30.1794C14.3281 30.2346 14.3729 30.2794 14.4281 30.2794H17.9548C18.0101 30.2794 18.0548 30.2346 18.0548 30.1794V29.8805C18.0548 29.8252 18.0101 29.7805 17.9548 29.7805H17.8261C17.7708 29.7805 17.7261 29.7357 17.7261 29.6805V29.4288C17.7261 29.3736 17.6813 29.3288 17.6261 29.3288H17.4656C17.4103 29.3288 17.3656 29.284 17.3656 29.2288V21.9634C17.3656 21.9081 17.4103 21.8634 17.4656 21.8634H17.6261C17.6813 21.8634 17.7261 21.8186 17.7261 21.7634V21.3852C17.7261 21.3299 17.6813 21.2852 17.6261 21.2852H14.7566C14.7014 21.2852 14.6566 21.3299 14.6566 21.3852V21.7634C14.6566 21.8186 14.7014 21.8634 14.7566 21.8634H14.9133C14.9685 21.8634 15.0133 21.9081 15.0133 21.9634V29.2288C15.0133 29.284 14.9685 29.3288 14.9133 29.3288H14.7566Z" fill="#482084"/>
<path d="M24.6162 29.3288C24.561 29.3288 24.5162 29.3736 24.5162 29.4288V29.6805C24.5162 29.7357 24.4715 29.7805 24.4162 29.7805H24.2875C24.2323 29.7805 24.1875 29.8252 24.1875 29.8805V30.1794C24.1875 30.2346 24.2323 30.2794 24.2875 30.2794H27.8145C27.8697 30.2794 27.9145 30.2346 27.9145 30.1794V29.8805C27.9145 29.8252 27.8697 29.7805 27.8145 29.7805H27.6857C27.6305 29.7805 27.5857 29.7357 27.5857 29.6805V29.4288C27.5857 29.3736 27.541 29.3288 27.4857 29.3288H27.3252C27.27 29.3288 27.2252 29.284 27.2252 29.2288V21.9634C27.2252 21.9081 27.27 21.8634 27.3252 21.8634H27.4857C27.541 21.8634 27.5857 21.8186 27.5857 21.7634V21.3852C27.5857 21.3299 27.541 21.2852 27.4857 21.2852H24.6163C24.561 21.2852 24.5163 21.3299 24.5163 21.3852V21.7634C24.5163 21.8186 24.561 21.8634 24.6163 21.8634H24.7729C24.8281 21.8634 24.8729 21.9081 24.8729 21.9634V29.2288C24.8729 29.284 24.8281 29.3288 24.7729 29.3288H24.6162Z" fill="#482084"/>
<path d="M20.3819 29.3288C20.3266 29.3288 20.2819 29.3736 20.2819 29.4288V29.6805C20.2819 29.7357 20.2371 29.7805 20.1819 29.7805H20.0531C19.9979 29.7805 19.9531 29.8252 19.9531 29.8805V30.1794C19.9531 30.2346 19.9979 30.2794 20.0531 30.2794H23.5798C23.6351 30.2794 23.6798 30.2346 23.6798 30.1794V29.8805C23.6798 29.8252 23.6351 29.7805 23.5798 29.7805H23.4514C23.3961 29.7805 23.3514 29.7357 23.3514 29.6805V29.4288C23.3514 29.3736 23.3066 29.3288 23.2514 29.3288H23.0947C23.0395 29.3288 22.9947 29.284 22.9947 29.2288V21.9634C22.9947 21.9081 23.0395 21.8634 23.0947 21.8634H23.2514C23.3066 21.8634 23.3514 21.8186 23.3514 21.7634V21.3852C23.3514 21.3299 23.3066 21.2852 23.2514 21.2852H20.3819C20.3266 21.2852 20.2819 21.3299 20.2819 21.3852V21.7634C20.2819 21.8186 20.3266 21.8634 20.3819 21.8634H20.5424C20.5976 21.8634 20.6424 21.9081 20.6424 21.9634V29.2288C20.6424 29.284 20.5976 29.3288 20.5424 29.3288H20.3819Z" fill="#482084"/>
<path d="M28.8387 29.3249C28.7834 29.3249 28.7387 29.3696 28.7387 29.4249V29.6766C28.7387 29.7318 28.6939 29.7766 28.6387 29.7766H28.5141C28.4588 29.7766 28.4141 29.8213 28.4141 29.8766V30.1755C28.4141 30.2307 28.4588 30.2755 28.5141 30.2755H32.0369C32.0922 30.2755 32.1369 30.2307 32.1369 30.1755V29.8766C32.1369 29.8213 32.0922 29.7766 32.0369 29.7766H31.9121C31.8568 29.7766 31.8121 29.7318 31.8121 29.6766V29.4249C31.8121 29.3696 31.7673 29.3249 31.7121 29.3249H31.5515C31.4963 29.3249 31.4515 29.2801 31.4515 29.2249V21.9595C31.4515 21.9042 31.4963 21.8595 31.5515 21.8595H31.7121C31.7673 21.8595 31.8121 21.8147 31.8121 21.7595V21.3813C31.8121 21.326 31.7673 21.2812 31.7121 21.2812H28.8387C28.7835 21.2812 28.7387 21.326 28.7387 21.3813V21.7595C28.7387 21.8147 28.7835 21.8595 28.8387 21.8595H28.9992C29.0544 21.8595 29.0992 21.9042 29.0992 21.9595V29.2249C29.0992 29.2801 29.0544 29.3249 28.9992 29.3249H28.8387Z" fill="#482084"/>
<path d="M4.30318 18.6142C4.41561 18.6122 4.52639 18.5866 4.62806 18.5388L19.0002 11.5248L33.3723 18.5388C33.474 18.5866 33.5848 18.6122 33.6972 18.6142C34.0367 18.612 34.3318 18.3807 34.4149 18.0514C34.4978 17.7224 34.3475 17.3788 34.0497 17.2161L19.5983 9.12477C19.2295 8.91674 18.7787 8.91674 18.4101 9.12477L3.95031 17.2161C3.65251 17.3788 3.50223 17.7225 3.5851 18.0514C3.66825 18.3807 3.9633 18.612 4.30278 18.6142H4.30318Z" fill="#482084"/>
<path d="M19.945 13.1857C19.3442 12.8964 18.6447 12.8964 18.0438 13.1857C17.4526 13.4744 17.0247 14.0161 16.8808 14.6581C16.7366 15.2999 16.8921 15.9726 17.3032 16.4861C17.7143 16.9997 18.3367 17.2989 18.9944 17.2989C19.6522 17.2989 20.2746 16.9997 20.6857 16.4861C21.0968 15.9726 21.2523 15.2999 21.1081 14.6581C20.9642 14.0161 20.5362 13.4744 19.945 13.1857Z" fill="#482084"/>
<path d="M28.9439 8.88588H27.6328C27.6723 10.2561 28.821 11.0719 30.2901 11.1711V12.0938H30.9476L30.9479 11.1711C32.4369 11.0641 33.5696 10.2483 33.5696 8.85823C33.5696 7.64245 32.7775 7.02858 31.2606 6.68791L30.9476 6.61277L30.9479 4.47399C31.2515 4.48532 31.541 4.60494 31.764 4.8113C31.9872 5.01739 32.1289 5.29697 32.1637 5.59865H33.4706C33.4231 4.2997 32.4093 3.44021 30.9479 3.32147V2.375H30.2904V3.3057C28.8251 3.41261 27.7756 4.25628 27.7756 5.55912C27.7756 6.74732 28.5676 7.38877 30.0014 7.72137L30.2906 7.78878L30.2903 10.0184C29.4547 9.93528 29.0389 9.49962 28.9439 8.88575L28.9439 8.88588ZM30.9479 7.93941C31.9104 8.17312 32.2154 8.46623 32.2154 9.00081C32.2154 9.53537 31.8192 9.95527 30.9479 10.0345V7.93941ZM29.134 5.43649C29.134 4.95718 29.5302 4.54942 30.2905 4.45437V6.45418C29.4628 6.24422 29.134 5.91969 29.134 5.43649Z" fill="#482084"/>
<path d="M3.70783 10.6989C3.66529 11.1138 3.91475 11.5031 4.3098 11.6376C5.3231 11.8658 6.36017 11.9721 7.39894 11.9544C7.67243 11.9544 7.89399 11.7326 7.89399 11.4594C7.89399 11.1859 7.67243 10.9643 7.39894 10.9643C6.49256 10.974 5.58753 10.8917 4.69799 10.7187C4.82479 9.36809 5.64857 8.25535 6.7652 7.94651C6.97184 7.88158 7.11383 7.69179 7.1177 7.47521C7.12433 7.25862 6.98979 7.06276 6.78509 6.99203C6.24004 6.79976 5.81874 6.36051 5.64915 5.80801C5.47981 5.25549 5.58257 4.65545 5.92597 4.1908C6.26963 3.72614 6.81331 3.45211 7.39097 3.45211C7.96891 3.45211 8.51227 3.72616 8.85598 4.1908C9.19937 4.65547 9.30214 5.25553 9.13279 5.80801C8.96345 6.36052 8.54187 6.79974 7.99707 6.99203C7.79402 7.06358 7.66059 7.25807 7.66694 7.47328C7.67301 7.68848 7.81777 7.87496 8.02469 7.93462C8.50786 8.08159 8.93913 8.36338 9.26813 8.74651C9.4499 8.95094 9.76263 8.96945 9.96733 8.78795C10.0654 8.70065 10.1251 8.57827 10.1328 8.44705C10.1405 8.3161 10.0961 8.18709 10.0088 8.08902C9.77699 7.82713 9.5104 7.59783 9.21675 7.40777C9.80298 6.90553 10.1574 6.18477 10.1972 5.41376C10.237 4.64303 9.95849 3.88963 9.42666 3.32994C8.89514 2.77024 8.15698 2.45312 7.38512 2.45312C6.61298 2.45312 5.87507 2.77027 5.34331 3.32994C4.81179 3.88964 4.53333 4.64296 4.57279 5.41376C4.61257 6.18477 4.96701 6.90557 5.55321 7.40777C4.46225 8.16032 3.78078 9.37554 3.70779 10.6988L3.70783 10.6989Z" fill="#482084"/>
<path d="M8.61201 9.31733C8.41836 9.12367 8.10453 9.12367 7.91087 9.31733C7.71721 9.51099 7.71721 9.82482 7.91087 10.0182L9.26923 11.3766V11.3768C9.36343 11.4694 9.48968 11.5219 9.62173 11.5233C9.75268 11.5224 9.8781 11.4697 9.97037 11.3768L12.4813 8.86592C12.6749 8.67226 12.6749 8.35843 12.4813 8.16477C12.2876 7.97112 11.9738 7.97112 11.7801 8.16477L9.6217 10.327L8.61201 9.31733Z" fill="#482084"/>
<path d="M33.0084 19.4937C33.0064 19.1163 32.7009 18.8108 32.3232 18.8086H5.67731C5.29883 18.8086 4.99219 19.1152 4.99219 19.4937C4.99219 19.8722 5.29883 20.1788 5.67731 20.1788H32.3232C32.505 20.1788 32.6793 20.1067 32.8078 19.9783C32.9363 19.8498 33.0084 19.6755 33.0084 19.4937Z" fill="#482084"/>
<path d="M33.4775 32.6497H32.7885C32.8625 32.5303 32.9048 32.3941 32.9111 32.2538C32.9111 31.7886 32.5365 31.4106 32.0716 31.4062H5.93274C5.46476 31.4062 5.08521 31.7856 5.08521 32.2538C5.09184 32.3941 5.13411 32.5303 5.20815 32.6497H4.52689C4.0719 32.6497 3.70312 33.0185 3.70312 33.4734C3.70312 33.9284 4.07193 34.2972 4.52689 34.2972H33.4777C33.9327 34.2972 34.3014 33.9284 34.3014 33.4734C34.3014 33.0185 33.9326 32.6497 33.4777 32.6497H33.4775Z" fill="#482084"/>
</svg>
