<?xml version="1.0" encoding="UTF-8"?>
<svg width="482px" height="492px" viewBox="0 0 482 492" version="1.1" xmlns="http://www.w3.org/2000/svg" xmlns:xlink="http://www.w3.org/1999/xlink">
    <title>Group</title>
    <g id="Page-1" stroke="none" stroke-width="1"  fill-rule="evenodd">
        <g id="Group" transform="translate(0.000000, 0.000000)"  fill-rule="nonzero">
            <path d="M465.560976,459.512195 C474.397532,459.512195 481.560976,466.675639 481.560976,475.512195 C481.560976,484.348751 474.397532,491.512195 465.560976,491.512195 L16,491.512195 C7.163444,491.512195 0,484.348751 0,475.512195 C0,466.675639 7.163444,459.512195 16,459.512195 L465.560976,459.512195 Z" id="Path"></path>
            <path d="M90.9268293,204.780488 C99.7633853,204.780488 106.926829,211.943932 106.926829,220.780488 L106.926829,395.609756 C106.926829,404.446312 99.7633853,411.609756 90.9268293,411.609756 C82.0902733,411.609756 74.9268293,404.446312 74.9268293,395.609756 L74.9268293,220.780488 C74.9268293,211.943932 82.0902733,204.780488 90.9268293,204.780488 Z" id="Path"></path>
            <path d="M190.829268,204.780488 C199.665824,204.780488 206.829268,211.943932 206.829268,220.780488 L206.829268,395.609756 C206.829268,404.446312 199.665824,411.609756 190.829268,411.609756 C181.992712,411.609756 174.829268,404.446312 174.829268,395.609756 L174.829268,220.780488 C174.829268,211.943932 181.992712,204.780488 190.829268,204.780488 Z" id="Path"></path>
            <path d="M290.731707,204.780488 C299.568263,204.780488 306.731707,211.943932 306.731707,220.780488 L306.731707,395.609756 C306.731707,404.446312 299.568263,411.609756 290.731707,411.609756 C281.895151,411.609756 274.731707,404.446312 274.731707,395.609756 L274.731707,220.780488 C274.731707,211.943932 281.895151,204.780488 290.731707,204.780488 Z" id="Path"></path>
            <path d="M232.300505,2.43202714 L32.4956267,127.310076 C18.864025,135.829827 24.9005756,156.878049 40.9756098,156.878049 L440.585366,156.878049 C456.6604,156.878049 462.696951,135.829827 449.065349,127.310076 L249.260471,2.43202714 C244.072146,-0.810675713 237.488829,-0.810675713 232.300505,2.43202714 Z M240.78,34.867 L384.797,124.878 L96.763,124.878 L240.78,34.867 Z" id="Path"></path>
            <path d="M390.634146,204.780488 C399.470702,204.780488 406.634146,211.943932 406.634146,220.780488 L406.634146,395.609756 C406.634146,404.446312 399.470702,411.609756 390.634146,411.609756 C381.79759,411.609756 374.634146,404.446312 374.634146,395.609756 L374.634146,220.780488 C374.634146,211.943932 381.79759,204.780488 390.634146,204.780488 Z" id="Path"></path>
        </g>
    </g>
</svg>