<?xml version="1.0" encoding="iso-8859-1"?>
<!-- Generator: Adobe Illustrator 24.3.0, SVG Export Plug-In . SVG Version: 6.00 Build 0)  -->
<svg version="1.1" id="Layer_1" xmlns="http://www.w3.org/2000/svg" xmlns:xlink="http://www.w3.org/1999/xlink" x="0px" y="0px"
	 viewBox="0 0 512 512" style="enable-background:new 0 0 512 512;" xml:space="preserve">
<path d="M480,496H48c-17.645,0-32-14.355-32-32V32c0-8.836,7.164-16,16-16s16,7.164,16,16v432h432c8.837,0,16,7.163,16,16
	S488.837,496,480,496z"/>
<path d="M156,432h-40c-19.851,0-36-16.149-36-36V244c0-19.851,16.149-36,36-36h40c19.851,0,36,16.149,36,36V396
	C192,415.851,175.851,432,156,432z M116,240c-2.206,0-4,1.794-4,4V396c0,2.206,1.794,4,4,4h40c2.206,0,4-1.794,4-4V244
	c0-2.206-1.794-4-4-4H116z"/>
<path d="M300,432h-40c-19.851,0-36-16.149-36-36V196c0-19.851,16.149-36,36-36h40c19.851,0,36,16.149,36,36V396
	C336,415.851,319.851,432,300,432z M260,192c-2.206,0-4,1.794-4,4V396c0,2.206,1.794,4,4,4h40c2.206,0,4-1.794,4-4V196
	c0-2.206-1.794-4-4-4H260z"/>
<path d="M443.64,432h-40c-19.851,0-36-16.149-36-36V132c0-19.851,16.149-36,36-36h40c19.851,0,36,16.149,36,36v264
	C479.64,415.851,463.49,432,443.64,432z M403.64,128c-2.206,0-4,1.794-4,4v264c0,2.206,1.794,4,4,4h40c2.206,0,4-1.794,4-4V132
	c0-2.206-1.794-4-4-4H403.64z"/>
</svg>
