<?xml version="1.0" encoding="iso-8859-1"?>
<!-- Generator: Adobe Illustrator 24.3.0, SVG Export Plug-In . SVG Version: 6.00 Build 0)  -->
<svg version="1.1" id="Layer_1" xmlns="http://www.w3.org/2000/svg" xmlns:xlink="http://www.w3.org/1999/xlink" x="0px" y="0px"
	 viewBox="0 0 512 512" style="enable-background:new 0 0 512 512;" xml:space="preserve">
<path d="M467,176c-9.998-0.325-19.498,4.365-25.32,12.5c-0.632,0.906-1.879,1.128-2.785,0.495c-0.535-0.373-0.854-0.983-0.855-1.635
	v-36.65c0-20.75-16.34-38.21-37.08-38.7c-20.98-0.53-38.418,16.048-38.948,37.028C362.004,149.359,362,149.679,362,150v82
	c0,1.105-0.895,2-2,2H152c-1.105,0-2-0.895-2-2v-81.29c0-20.75-16.34-38.21-37.08-38.7c-20.981-0.508-38.401,16.088-38.909,37.069
	C74.004,149.386,74,149.693,74,150v37.38c-0.003,1.105-0.9,1.998-2.005,1.995c-0.652-0.002-1.262-0.321-1.635-0.855
	C64.535,180.365,55.016,175.666,45,176c-16.3,0.51-29,14.31-29,30.62v98.72c0,16.31,12.74,30.11,29,30.62
	c9.998,0.325,19.498-4.365,25.32-12.5c0.598-0.929,1.836-1.197,2.764-0.599c0.595,0.383,0.943,1.052,0.916,1.759v36.67
	C74,382,90.34,399.5,111.08,400c20.981,0.508,38.401-16.088,38.909-37.069c0.008-0.31,0.011-0.621,0.011-0.931v-82
	c0-1.105,0.895-2,2-2h208c1.105,0,2,0.895,2,2v81.29c0,20.75,16.34,38.21,37.08,38.7c20.981,0.508,38.401-16.088,38.909-37.069
	c0.007-0.307,0.011-0.614,0.011-0.921v-37.38c0.003-1.105,0.9-1.998,2.005-1.995c0.652,0.002,1.262,0.321,1.635,0.855
	c5.825,8.155,15.344,12.854,25.36,12.52c16.3-0.51,29-14.31,29-30.62v-98.74C496,190.33,483.26,176.53,467,176z"/>
</svg>
