<?xml version="1.0" encoding="iso-8859-1"?>
<!-- Generator: Adobe Illustrator 24.3.0, SVG Export Plug-In . SVG Version: 6.00 Build 0)  -->
<svg version="1.1" id="Layer_1" xmlns="http://www.w3.org/2000/svg" xmlns:xlink="http://www.w3.org/1999/xlink" x="0px" y="0px"
	 viewBox="0 0 512 512" style="enable-background:new 0 0 512 512;" xml:space="preserve">
<path d="M464,272H48c-8.836,0-16-7.164-16-16.001c0-8.836,7.164-16,16-16h416c8.837,0,16,7.164,16,16
	C480,264.836,472.837,272,464,272z"/>
<path d="M400,400c-17.645,0-32-14.355-32-32V144c0-17.645,14.355-32,32-32s32,14.355,32,32V368C432,385.645,417.645,400,400,400z
	 M400,144c-0.014,0-0.021,0.001-0.021,0.001L400,368V144z"/>
<path d="M112,400c-17.645,0-32-14.355-32-32V144c0-17.645,14.355-32,32-32s32,14.355,32,32V368C144,385.645,129.645,400,112,400z
	 M112,144c-0.014,0-0.02,0.001-0.02,0.001L112,368V144z"/>
<path d="M40,336c-13.234,0-24-10.767-24-24V200c0-13.233,10.766-24,24-24s24,10.767,24,24V312C64,325.234,53.234,336,40,336z"/>
<path d="M472,336c-13.233,0-24-10.767-24-24V200c0-13.233,10.767-24,24-24s24,10.767,24,24V312C496,325.234,485.233,336,472,336z"/>
</svg>
