<?xml version="1.0" encoding="iso-8859-1"?>
<!-- Generator: Adobe Illustrator 24.3.0, SVG Export Plug-In . SVG Version: 6.00 Build 0)  -->
<svg version="1.1" id="Layer_1" xmlns="http://www.w3.org/2000/svg" xmlns:xlink="http://www.w3.org/1999/xlink" x="0px" y="0px"
	 viewBox="0 0 512 512" style="enable-background:new 0 0 512 512;" xml:space="preserve">
<path d="M419.13,96H419l-35.05,0.33L128,96h-0.16L91.1,96.33C66.93,96.38,48,116.07,48,141.2v230.27c0,25.15,19,44.86,43.2,44.86
	h0.15l36.71-0.33l255.92,0.33h0.17l35.07-0.33c24.737-0.072,44.758-20.133,44.78-44.87V140.87C463.972,116.1,443.9,96.028,419.13,96
	z M144,320c0,8.837-7.163,16-16,16s-16-7.163-16-16V192c0-8.837,7.163-16,16-16s16,7.163,16,16V320z M208,352
	c0,8.837-7.163,16-16,16s-16-7.163-16-16V160c0-8.837,7.163-16,16-16s16,7.163,16,16V352z M272,336c0,8.837-7.163,16-16,16
	c-8.837,0-16-7.163-16-16V176c0-8.837,7.163-16,16-16c8.837,0,16,7.163,16,16V336z M336,352c0,8.837-7.163,16-16,16s-16-7.163-16-16
	V160c0-8.837,7.163-16,16-16s16,7.163,16,16V352z M400,320c0,8.837-7.163,16-16,16s-16-7.163-16-16V192c0-8.837,7.163-16,16-16
	s16,7.163,16,16V320z"/>
</svg>
