<?xml version="1.0" encoding="iso-8859-1"?>
<!-- Generator: Adobe Illustrator 24.3.0, SVG Export Plug-In . SVG Version: 6.00 Build 0)  -->
<svg version="1.1" id="Layer_1" xmlns="http://www.w3.org/2000/svg" xmlns:xlink="http://www.w3.org/1999/xlink" x="0px" y="0px"
	 viewBox="0 0 512 512" style="enable-background:new 0 0 512 512;" xml:space="preserve">
<path d="M383.997,416.331c-8.768,0-15.914-7.064-15.996-15.85c-0.083-8.836,7.013-16.066,15.849-16.149l35.13-0.33
	c7.183-0.032,12.989-5.838,13.021-12.942V140.87c-0.031-7.003-5.788-12.79-12.852-12.87l-34.998,0.329
	c-8.847,0.103-16.067-7.013-16.149-15.849c-0.083-8.836,7.013-16.067,15.849-16.15l35.13-0.33c0.074-0.001,0.15,0,0.222,0
	c24.592,0.11,44.688,20.207,44.799,44.798V371.13c-0.11,24.663-20.207,44.76-44.799,44.87l-35.051,0.329
	C384.1,416.331,384.048,416.331,383.997,416.331z"/>
<path d="M91.2,416.331c-24.225,0-43.2-19.705-43.2-44.86V141.2c0-25.135,18.938-44.829,43.126-44.87l36.73-0.33
	c0.048,0,0.098,0,0.146,0c8.77,0,15.917,7.069,15.997,15.856c0.079,8.836-7.02,16.063-15.856,16.143l-36.8,0.33
	c-0.048,0-0.096,0-0.144,0c-7.353,0-11.2,6.475-11.2,12.87v230.27c0,6.374,3.827,12.826,11.143,12.86l36.714-0.329
	c0.048-0.001,0.098-0.001,0.146-0.001c8.77,0,15.917,7.068,15.997,15.856c0.079,8.836-7.02,16.063-15.856,16.143l-36.8,0.33
	C91.296,416.331,91.248,416.331,91.2,416.331z"/>
<path d="M384,336c-8.837,0-16-7.163-16-16V192c0-8.836,7.163-16,16-16s16,7.164,16,16V320C400,328.837,392.837,336,384,336z"/>
<path d="M320,368c-8.837,0-16-7.163-16-16V160c0-8.836,7.163-16,16-16s16,7.164,16,16V352C336,360.837,328.837,368,320,368z"/>
<path d="M256,352c-8.836,0-16-7.163-16-16V176c0-8.836,7.164-16,16-16c8.837,0,16,7.164,16,16V336C272,344.837,264.837,352,256,352z
	"/>
<path d="M192,368c-8.836,0-16-7.163-16-16V160c0-8.836,7.164-16,16-16s16,7.164,16,16V352C208,360.837,200.836,368,192,368z"/>
<path d="M128,336c-8.836,0-16-7.163-16-16V192c0-8.836,7.164-16,16-16s16,7.164,16,16V320C144,328.837,136.836,336,128,336z"/>
</svg>
