<?xml version="1.0" encoding="iso-8859-1"?>
<!-- Generator: Adobe Illustrator 24.3.0, SVG Export Plug-In . SVG Version: 6.00 Build 0)  -->
<svg version="1.1" id="Layer_1" xmlns="http://www.w3.org/2000/svg" xmlns:xlink="http://www.w3.org/1999/xlink" x="0px" y="0px"
	 viewBox="0 0 512 512" style="enable-background:new 0 0 512 512;" xml:space="preserve">
<path d="M384.11,416.44l-0.22-31.999L432,384.11v-256l-47.89,0.33l-0.22-32L447.89,96c0.037,0,0.074,0,0.11,0
	c4.223,0,8.276,1.669,11.274,4.647c3.024,3.004,4.726,7.09,4.726,11.353v288c0,8.794-7.097,15.939-15.89,16L384.11,416.44z"/>
<path d="M64,416.331c-4.223,0-8.276-1.67-11.275-4.647c-3.024-3.004-4.725-7.09-4.725-11.353v-288c0-8.793,7.097-15.939,15.89-16
	l64-0.44l0.22,32L80,128.22v256l47.89-0.329l0.22,31.999l-64,0.44C64.074,416.331,64.037,416.331,64,416.331z"/>
<rect x="368" y="176" width="32" height="160"/>
<rect x="304" y="144" width="32" height="224"/>
<rect x="240" y="160" width="32" height="192"/>
<rect x="176" y="144" width="32" height="224"/>
<rect x="112" y="176" width="32" height="160"/>
</svg>
