<?xml version="1.0" encoding="iso-8859-1"?>
<!-- Generator: Adobe Illustrator 24.3.0, SVG Export Plug-In . SVG Version: 6.00 Build 0)  -->
<svg version="1.1" id="Layer_1" xmlns="http://www.w3.org/2000/svg" xmlns:xlink="http://www.w3.org/1999/xlink" x="0px" y="0px"
	 viewBox="0 0 512 512" style="enable-background:new 0 0 512 512;" xml:space="preserve">
<path d="M302.16,56.2c-0.051,3.281-1.263,6.438-3.42,8.91l-0.11,5.13l-27.71-0.57c0,1.3,0.09,2.61,0.16,3.91l0,0
	c0.491,8.844,1.645,17.638,3.45,26.31l24.72-7.18l7.81,26.88l-24.71,7.18c3.636,9.599,8.1,18.864,13.34,27.69l21.27-15l16.16,22.86
	l-21.29,15.05c3.5,4.22,7.203,8.283,11.11,12.19c3.91,3.91,8,7.6,12.2,11.1l15.71-22.22l22.86,16.16L358,216.75
	c8.827,5.226,18.088,9.682,27.68,13.32l7.49-25.8l26.89,7.81l-7.5,25.83c10.206,2.13,20.579,3.358,31,3.67l-0.41-24.67l17.41-0.29
	c-15.628-81.289-77.969-145.575-158.74-163.69C302.065,54.002,302.179,55.1,302.16,56.2z"/>
<path d="M214,441.64l27.91,0.49c-0.354-10.068-1.565-20.088-3.62-29.95l-24.14,7l-7.81-26.88l24.11-7
	c-3.637-9.594-8.097-18.855-13.33-27.68L196.79,372l-16.16-22.86L201,334.73c-3.49-4.22-7.19-8.3-11.09-12.2s-8-7.62-12.19-11.12
	l-13.91,19.68L141,314.93l13.9-19.66c-8.83-5.237-18.098-9.697-27.7-13.33l-6.37,21.94l-26.89-7.81l6.38-22
	c-8.676-1.789-17.474-2.926-26.32-3.4c-1.59-0.09-3.18-0.16-4.78-0.2l0.4,22.34l-17.71,0.32
	c15.039,83.248,79.024,149.08,161.81,166.48L214,441.64z"/>
<path d="M444.65,302.67l-0.55-33.06c-13.232-0.313-26.403-1.9-39.33-4.74L397,291.8l-26.94-7.8l7.83-27
	c-12.552-4.605-24.629-10.415-36.06-17.35l-16.36,23.15l-22.86-16.16l16.33-23.11c-11.014-8.931-21.069-18.986-30-30l-22.19,15.67
	l-16.16-22.87l22.17-15.67c-6.95-11.427-12.771-23.504-17.38-36.06l-25.75,7.48l-7.81-26.89l25.73-7.47
	c-1.333-6.14-2.393-12.353-3.18-18.64h-0.47l-0.78-14l0,0l-0.33-6l-17.94-0.32c-0.6-0.013-1.198-0.067-1.79-0.16l-6.35-0.13
	l0.06-2.47c-3.631-2.692-5.739-6.971-5.66-11.49c0.008-0.559,0.052-1.117,0.13-1.67C130.079,70.969,67.516,135.699,52.16,217.43
	l16.1-0.28l0.45,25.18l6.83,0.38l14,0.77v0.48c6.28,0.78,12.493,1.84,18.64,3.18l6.68-23L141.7,232l-6.7,23
	c12.557,4.605,24.635,10.426,36.06,17.38l14.53-20.56L208.47,268L194,288.5c11.018,8.927,21.073,18.982,30,30l21.3-15l16.16,22.86
	l-21.36,15.05c6.932,11.431,12.739,23.508,17.34,36.06l25.27-7.33l7.81,26.86l-25.24,7.33c2.769,12.591,4.349,25.414,4.72,38.3
	l29.42,0.53l-0.29,16.48c79.448-16.678,141.927-78.067,160-157.21L444.65,302.67z"/>
</svg>
