<?xml version="1.0" encoding="iso-8859-1"?>
<!-- Generator: Adobe Illustrator 24.3.0, SVG Export Plug-In . SVG Version: 6.00 Build 0)  -->
<svg version="1.1" id="Layer_1" xmlns="http://www.w3.org/2000/svg" xmlns:xlink="http://www.w3.org/1999/xlink" x="0px" y="0px"
	 viewBox="0 0 512 512" style="enable-background:new 0 0 512 512;" xml:space="preserve">
<path d="M444,295.67l-0.47-26.07c-13.212-0.31-26.363-1.894-39.27-4.73l-5,17.35c-1.975,7.475-9.636,11.935-17.112,9.959
	c-7.475-1.975-11.934-9.636-9.959-17.112c0.058-0.221,0.122-0.44,0.191-0.658l5-17.38c-12.55-4.603-24.623-10.413-36.05-17.35
	l-10.44,14.77c-4.462,6.315-13.2,7.817-19.515,3.355c-6.315-4.462-7.817-13.2-3.355-19.515l10.41-14.73
	c-11.012-8.934-21.066-18.988-30-30L273.71,204c-6.315,4.462-15.053,2.96-19.515-3.355c-4.462-6.315-2.96-15.053,3.355-19.515
	l14.74-10.42c-6.954-11.425-12.775-23.503-17.38-36.06l-17.32,5c-7.425,2.157-15.193-2.115-17.35-9.54
	c-2.157-7.425,2.115-15.193,9.54-17.35l17.3-5c-2.343-10.728-3.825-21.626-4.43-32.59l0,0c-0.113-2-0.193-4-0.24-6l-18.22-0.33
	c-7.63-0.142-13.741-6.368-13.74-14C135.324,71.492,75.529,128.26,55,202.42c8.314,0.519,14.839,7.331,15,15.66l0.44,24.43
	c1.58,0.05,3.16,0.11,4.73,0.2c10.964,0.605,21.862,2.087,32.59,4.43l5-17.3c2.157-7.425,9.925-11.697,17.35-9.54
	c7.425,2.157,11.697,9.925,9.54,17.35l0,0l-5,17.32c12.537,4.608,24.594,10.429,36,17.38L181,257.61
	c4.462-6.315,13.2-7.817,19.515-3.355s7.817,13.2,3.355,19.515l-10.39,14.73c5.505,4.468,10.775,9.218,15.79,14.23
	c5.015,5.012,9.765,10.283,14.23,15.79l14.73-10.41c6.321-4.462,15.063-2.956,19.525,3.365s2.956,15.063-3.365,19.525l0,0
	l-14.76,10.43c6.941,11.424,12.758,23.494,17.37,36.04l17.38-5.05c7.425-2.157,15.193,2.115,17.35,9.54
	c2.157,7.425-2.115,15.193-9.54,17.35l-17.35,5c2.761,12.585,4.335,25.401,4.7,38.28l18.27,0.33
	c8.833,0.159,15.866,7.447,15.71,16.28c-0.006,0.398-0.033,0.795-0.08,1.19c75.231-17.914,134.312-76.086,153.39-151.03
	C449.676,308.761,444.134,302.848,444,295.67z"/>
<path d="M301.49,56.2c-0.109,7.65-6.339,13.795-13.99,13.8h-0.25l-16.81-0.3c0.05,1.31,0.1,2.62,0.17,3.93l0,0
	c0.494,8.843,1.643,17.637,3.44,26.31l16.29-4.74c7.569-1.578,14.985,3.279,16.563,10.848c1.407,6.747-2.306,13.514-8.753,15.952
	l-16.27,4.73c3.637,9.597,8.097,18.861,13.33,27.69l13.84-9.78c6.315-4.462,15.053-2.96,19.515,3.355
	c4.462,6.315,2.96,15.053-3.355,19.515l0,0l-13.86,9.79c3.5,4.22,7.207,8.283,11.12,12.19c3.9,3.91,8,7.6,12.2,11.1l9.78-13.84
	c4.487-6.315,13.245-7.797,19.56-3.31s7.797,13.245,3.31,19.56l0,0l-9.76,13.8c8.827,5.229,18.088,9.689,27.68,13.33l4.76-16.28
	c2.157-7.425,9.925-11.697,17.35-9.54s11.697,9.925,9.54,17.35l-4.73,16.26c10.19,2.121,20.546,3.342,30.95,3.65l-0.16-9
	c-0.134-7.729,6.021-14.103,13.75-14.24h0.25c0.869,0.006,1.736,0.09,2.59,0.25c-15.58-81.014-77.567-145.163-158-163.51
	C301.48,55.47,301.5,55.83,301.49,56.2z"/>
<path d="M208.44,457.55c0.159-8.833,7.447-15.866,16.28-15.71l16.76,0.29c-0.359-10.068-1.57-20.087-3.62-29.95l-16.26,4.72
	c-7.428,2.157-15.198-2.117-17.355-9.545c-2.157-7.428,2.117-15.198,9.545-17.355l16.21-4.7c-3.637-9.594-8.097-18.855-13.33-27.68
	l-13.8,9.76c-6.315,4.462-15.053,2.96-19.515-3.355c-4.462-6.315-2.96-15.053,3.355-19.515l13.84-9.78c-3.5-4.22-7.19-8.3-11.1-12.2
	s-8-7.62-12.19-11.12l-9.79,13.86c-4.462,6.315-13.2,7.817-19.515,3.355c-6.315-4.462-7.817-13.2-3.355-19.515l9.78-13.84
	c-8.826-5.237-18.091-9.697-27.69-13.33L122,298.21c-2.157,7.428-9.927,11.702-17.355,9.545c-7.428-2.157-11.702-9.927-9.545-17.355
	l0,0l4.73-16.29c-8.672-1.802-17.466-2.952-26.31-3.44c-0.89-0.05-1.79-0.08-2.68-0.12L71,281.14
	c0.156,8.833-6.877,16.121-15.71,16.28H55c-1.329-0.006-2.653-0.177-3.94-0.51c15.399,81.056,77.25,145.348,157.65,163.87
	C208.509,459.716,208.418,458.633,208.44,457.55z"/>
</svg>
