<?xml version="1.0" encoding="iso-8859-1"?>
<!-- Generator: Adobe Illustrator 24.3.0, SVG Export Plug-In . SVG Version: 6.00 Build 0)  -->
<svg version="1.1" id="Layer_1" xmlns="http://www.w3.org/2000/svg" xmlns:xlink="http://www.w3.org/1999/xlink" x="0px" y="0px"
	 viewBox="0 0 512 512" style="enable-background:new 0 0 512 512;" xml:space="preserve">
<path d="M233.673,142.194c-6.937,0-13.326-4.546-15.358-11.542c-2.464-8.486,2.417-17.363,10.903-19.827l60.57-17.59
	c8.479-2.463,17.362,2.417,19.827,10.903c2.464,8.486-2.417,17.363-10.903,19.827l-60.57,17.59
	C236.653,141.988,235.15,142.194,233.673,142.194z"/>
<path d="M265.644,208.512c-5.02,0-9.962-2.355-13.08-6.767c-5.1-7.216-3.385-17.201,3.831-22.301l51.5-36.4
	c7.216-5.101,17.2-3.386,22.301,3.831c5.101,7.216,3.386,17.201-3.83,22.301l-51.5,36.4
	C272.06,207.559,268.836,208.512,265.644,208.512z"/>
<path d="M319.477,262.372c-3.192,0-6.416-0.952-9.221-2.936c-7.217-5.1-8.932-15.084-3.832-22.301l36.399-51.5
	c5.102-7.216,15.086-8.932,22.301-3.831c7.217,5.1,8.932,15.084,3.832,22.301l-36.399,51.5
	C329.438,260.015,324.496,262.372,319.477,262.372z"/>
<path d="M385.817,294.324c-1.479,0-2.979-0.206-4.47-0.639c-8.486-2.465-13.368-11.342-10.903-19.827l17.591-60.57
	c2.464-8.486,11.347-13.364,19.827-10.903c8.486,2.465,13.368,11.342,10.903,19.828l-17.591,60.569
	C399.144,289.778,392.753,294.324,385.817,294.324z"/>
<path d="M256,464C141.309,464,48,370.692,48,256c0-114.691,93.309-208,208-208s208,93.309,208,208C464,370.692,370.691,464,256,464z
	 M256,80c-97.047,0-176,78.953-176,176C80,353.047,158.953,432,256,432S432,353.047,432,256C432,158.953,353.047,80,256,80z"/>
<path d="M432.958,271.051c-0.431,0-0.864-0.018-1.301-0.053c-50.129-4.031-97.079-26.076-132.2-62.072
	c-35.121-35.996-56.004-83.473-58.802-133.687c-0.492-8.823,6.262-16.374,15.085-16.865c8.8-0.508,16.374,6.262,16.866,15.085
	c2.367,42.488,20.037,82.662,49.755,113.12c29.719,30.458,69.445,49.11,111.863,52.522c8.808,0.708,15.374,8.423,14.665,17.231
	C448.216,264.705,441.213,271.051,432.958,271.051z"/>
<path d="M108.547,310.314c-1.478,0-2.979-0.206-4.469-0.639c-8.486-2.465-13.368-11.342-10.903-19.827l17.59-60.57
	c2.465-8.486,11.343-13.367,19.827-10.903c8.486,2.464,13.368,11.341,10.903,19.827l-17.59,60.57
	C121.874,305.768,115.483,310.314,108.547,310.314z"/>
<path d="M156.036,333.191c-3.193,0-6.416-0.952-9.221-2.936c-7.216-5.1-8.931-15.084-3.831-22.301l36.4-51.5
	c5.101-7.216,15.085-8.931,22.301-3.831c7.216,5.1,8.931,15.084,3.831,22.301l-36.4,51.5
	C165.998,330.835,161.055,333.191,156.036,333.191z"/>
<path d="M194.824,371.951c-5.02,0-9.962-2.355-13.08-6.767c-5.1-7.216-3.385-17.2,3.831-22.301l51.5-36.399
	c7.215-5.101,17.2-3.385,22.301,3.832c5.101,7.216,3.385,17.2-3.831,22.301l-51.5,36.399
	C201.24,370.998,198.016,371.951,194.824,371.951z"/>
<path d="M217.683,419.464c-6.936,0-13.326-4.546-15.358-11.542c-2.464-8.485,2.417-17.362,10.903-19.827l60.57-17.591
	c8.478-2.465,17.362,2.417,19.827,10.903c2.465,8.485-2.417,17.362-10.903,19.827l-60.569,17.591
	C220.662,419.258,219.16,419.464,217.683,419.464z"/>
<path d="M254.983,449.611c-8.278,0-15.288-6.378-15.936-14.77c-3.283-42.524-21.875-82.376-52.353-112.213
	c-30.477-29.838-70.713-47.582-113.298-49.964c-8.823-0.493-15.575-8.045-15.082-16.868c0.494-8.823,8.031-15.585,16.869-15.082
	c50.327,2.815,97.879,23.785,133.897,59.047s57.991,82.36,61.871,132.616c0.681,8.811-5.91,16.504-14.721,17.184
	C255.813,449.595,255.396,449.611,254.983,449.611z"/>
</svg>
