<?xml version="1.0" encoding="iso-8859-1"?>
<!-- Generator: Adobe Illustrator 24.3.0, SVG Export Plug-In . SVG Version: 6.00 Build 0)  -->
<svg version="1.1" id="Layer_1" xmlns="http://www.w3.org/2000/svg" xmlns:xlink="http://www.w3.org/1999/xlink" x="0px" y="0px"
	 viewBox="0 0 512 512" style="enable-background:new 0 0 512 512;" xml:space="preserve">
<path d="M139.389,445.5c-25.133,0.002-47.462-16.9-54.291-41.166L33.451,222.223c-1.003-3.314-1.491-6.748-1.45-10.211
	C32.176,192.169,48.493,176,68.379,176c0.014,0,0.023,0,0.037,0H443.6c0.012,0,0.024,0,0.037,0
	c19.871,0,36.188,16.168,36.362,36.059c0.006,0.626-0.025,1.252-0.094,1.875l-0.6,5.5c-0.097,0.89-0.269,1.771-0.513,2.631
	l-51.7,182.3c-7.031,24.262-29.493,41.134-54.658,41.135c-0.017,0-0.031,0-0.048,0H139.6C139.531,445.5,139.458,445.5,139.389,445.5
	z M68.379,208c-2.395,0-4.359,1.946-4.38,4.341c-0.003,0.242,0.025,0.436,0.083,0.622c0.039,0.124,0.075,0.247,0.11,0.372
	l51.7,182.3c2.975,10.573,12.723,17.912,23.647,17.865H372.4c0.007,0,0.015,0,0.021,0c11.021,0,20.846-7.38,23.911-17.954
	l51.308-180.917l0.314-2.883c-0.31-2.114-2.143-3.746-4.335-3.746c-0.002,0-0.003,0-0.005,0H68.4
	C68.393,208,68.386,208.001,68.379,208z M261.73,368.07c-0.032,0-0.06,0-0.09,0c-15.511-0.077-30.063-6.19-40.977-17.213
	s-16.881-25.636-16.804-41.146c0.078-15.511,6.191-30.063,17.213-40.977s25.648-16.871,41.146-16.803
	C294.08,252.09,320,278.139,320,310C319.849,342.056,293.709,368.07,261.73,368.07z M261.926,283.93
	c-6.914,0-13.421,2.677-18.338,7.544c-4.948,4.899-7.693,11.433-7.728,18.396c-0.035,6.963,2.644,13.523,7.543,18.473
	c4.891,4.938,11.408,7.683,18.357,7.727c14.404-0.017,26.171-11.737,26.239-26.146c0-14.228-11.637-25.922-25.94-25.993
	C262.016,283.931,261.971,283.93,261.926,283.93z"/>
<path d="M339.2,201.6L256,90.666L172.8,201.6l-25.6-19.2l96-128c3.021-4.029,7.764-6.4,12.8-6.4s9.778,2.371,12.8,6.4l96,128
	L339.2,201.6z"/>
</svg>
