<?xml version="1.0" encoding="iso-8859-1"?>
<!-- Generator: Adobe Illustrator 24.3.0, SVG Export Plug-In . SVG Version: 6.00 Build 0)  -->
<svg version="1.1" id="Layer_1" xmlns="http://www.w3.org/2000/svg" xmlns:xlink="http://www.w3.org/1999/xlink" x="0px" y="0px"
	 viewBox="0 0 512 512" style="enable-background:new 0 0 512 512;" xml:space="preserve">
<path d="M339.2,217.6L256,106.67L172.8,217.6l-25.6-19.2l96-128c5.302-7.069,15.331-8.502,22.4-3.2c1.213,0.91,2.29,1.987,3.2,3.2
	l96,128L339.2,217.6z"/>
<path d="M441.59,192H70.41c-6.627-0.002-12.002,5.368-12.004,11.996c0,0.934,0.108,1.865,0.324,2.774L112.59,434h286.82
	l53.86-227.23c1.53-6.448-2.457-12.916-8.906-14.446C443.455,192.108,442.524,192,441.59,192z M256,351.66
	c-20.826-0.099-37.629-17.063-37.53-37.89c0.099-20.826,17.063-37.629,37.89-37.53c20.775,0.099,37.557,16.983,37.53,37.759
	C293.769,334.839,276.839,351.666,256,351.66z"/>
</svg>
