<?xml version="1.0" encoding="iso-8859-1"?>
<!-- Generator: Adobe Illustrator 24.3.0, SVG Export Plug-In . SVG Version: 6.00 Build 0)  -->
<svg version="1.1" id="Layer_1" xmlns="http://www.w3.org/2000/svg" xmlns:xlink="http://www.w3.org/1999/xlink" x="0px" y="0px"
	 viewBox="0 0 512 512" style="enable-background:new 0 0 512 512;" xml:space="preserve">
<path d="M256,233.37l34.45-34.45c-32.375-37.62-50.162-85.617-50.12-135.25c0-5,0.19-10.05,0.54-15
	c-44.321,3.123-86.463,20.418-120.2,49.33L256,233.37z"/>
<path d="M313.14,176.23L391.33,98C358.081,69.5,316.653,52.275,273,48.8c-0.41,4.9-0.64,9.86-0.64,14.87
	C272.319,104.814,286.755,144.66,313.14,176.23z"/>
<path d="M335.77,198.86c31.566,26.396,71.413,40.843,112.56,40.81c5,0,10-0.23,14.87-0.64c-3.469-43.664-20.694-85.103-49.2-118.36
	L335.77,198.86z"/>
<path d="M176.23,313.14c-31.565-26.397-71.412-40.844-112.56-40.81c-5.013,0-9.97,0.213-14.87,0.64
	c3.469,43.664,20.694,85.103,49.2,118.36L176.23,313.14z"/>
<path d="M256,278.63l-34.45,34.45c32.375,37.62,50.162,85.617,50.12,135.25c0,5-0.19,10.05-0.54,15
	c44.322-3.121,86.464-20.416,120.2-49.33L256,278.63z"/>
<path d="M448.33,271.67c-49.633,0.042-97.63-17.745-135.25-50.12L278.63,256L414,391.33c28.934-33.73,46.25-75.872,49.39-120.2
	C458.38,271.48,453.37,271.67,448.33,271.67z"/>
<path d="M233.37,256L98,120.67c-28.936,33.728-46.252,75.871-49.39,120.2c5-0.35,10-0.54,15-0.54
	c49.633-0.042,97.63,17.745,135.25,50.12L233.37,256z"/>
<path d="M120.67,414c33.249,28.5,74.677,45.725,118.33,49.2c0.42-4.9,0.633-9.857,0.64-14.87
	c0.034-41.148-14.413-80.995-40.81-112.56L120.67,414z"/>
</svg>
