<?xml version="1.0" encoding="iso-8859-1"?>
<!-- Generator: Adobe Illustrator 24.3.0, SVG Export Plug-In . SVG Version: 6.00 Build 0)  -->
<svg version="1.1" id="Layer_1" xmlns="http://www.w3.org/2000/svg" xmlns:xlink="http://www.w3.org/1999/xlink" x="0px" y="0px"
	 viewBox="0 0 512 512" style="enable-background:new 0 0 512 512;" xml:space="preserve">
<path d="M256,464C141.309,464,48,370.692,48,256c0-114.691,93.309-208,208-208s208,93.309,208,208C464,370.692,370.691,464,256,464z
	 M256,80c-97.047,0-176,78.953-176,176C80,353.047,158.953,432,256,432S432,353.047,432,256C432,158.953,353.047,80,256,80z"/>
<path d="M432.958,271.051c-0.431,0-0.864-0.018-1.301-0.053c-50.129-4.031-97.079-26.076-132.2-62.072
	c-35.121-35.996-56.004-83.473-58.802-133.687c-0.492-8.823,6.262-16.374,15.085-16.865c8.8-0.508,16.374,6.262,16.866,15.085
	c2.367,42.488,20.037,82.662,49.755,113.12c29.719,30.458,69.445,49.11,111.863,52.522c8.808,0.708,15.374,8.423,14.665,17.231
	C448.216,264.705,441.213,271.051,432.958,271.051z"/>
<path d="M254.983,449.611c-8.278,0-15.288-6.378-15.936-14.77c-3.283-42.524-21.875-82.376-52.353-112.213
	c-30.477-29.838-70.713-47.582-113.298-49.964c-8.823-0.493-15.575-8.045-15.082-16.868c0.494-8.823,8.031-15.585,16.869-15.082
	c50.327,2.815,97.879,23.785,133.897,59.047s57.991,82.36,61.871,132.616c0.681,8.811-5.91,16.504-14.721,17.184
	C255.813,449.595,255.396,449.611,254.983,449.611z"/>
<path d="M391.76,407.76c-4.096,0-8.189-1.562-11.313-4.687l-271.52-271.52c-6.248-6.248-6.248-16.379,0-22.627
	c6.248-6.249,16.379-6.249,22.627,0l271.52,271.52c6.249,6.248,6.249,16.379,0,22.627C399.949,406.198,395.854,407.76,391.76,407.76
	z"/>
<path d="M120.24,407.76c-4.095,0-8.189-1.562-11.313-4.687c-6.249-6.248-6.249-16.379,0-22.627l271.52-271.52
	c6.248-6.249,16.379-6.249,22.627,0c6.249,6.248,6.249,16.379,0,22.627l-271.52,271.52C128.43,406.198,124.335,407.76,120.24,407.76
	z"/>
</svg>
