<?xml version="1.0" encoding="iso-8859-1"?>
<!-- Generator: Adobe Illustrator 24.3.0, SVG Export Plug-In . SVG Version: 6.00 Build 0)  -->
<svg version="1.1" id="Layer_1" xmlns="http://www.w3.org/2000/svg" xmlns:xlink="http://www.w3.org/1999/xlink" x="0px" y="0px"
	 viewBox="0 0 512 512" style="enable-background:new 0 0 512 512;" xml:space="preserve">
<path d="M424.11,192H360L268.8,70.4c-5.302-7.069-15.331-8.502-22.4-3.2c-1.213,0.91-2.29,1.987-3.2,3.2L152,192H87.89
	c-17.957-0.028-32.548,14.483-32.62,32.44c-0.019,3.049,0.423,6.083,1.31,9l46.27,163.14c6.183,21.849,26.133,36.926,48.84,36.91
	h208.62c22.697-0.07,42.64-15.072,49-36.86l46.33-163.36c0.214-0.774,0.368-1.563,0.46-2.36l0.53-4.93
	c0.06-0.514,0.09-1.032,0.09-1.55C456.643,206.481,442.059,191.978,424.11,192z M256,106.67L320,192H192L256,106.67z M256,351.67
	c-20.821-0.099-37.619-17.059-37.52-37.88s17.059-37.619,37.88-37.52c20.75,0.099,37.52,16.948,37.52,37.699
	c-0.116,20.837-17.043,37.666-37.88,37.66V351.67z"/>
</svg>
