<?xml version="1.0" encoding="iso-8859-1"?>
<!-- Generator: Adobe Illustrator 24.3.0, SVG Export Plug-In . SVG Version: 6.00 Build 0)  -->
<svg version="1.1" id="Layer_1" xmlns="http://www.w3.org/2000/svg" xmlns:xlink="http://www.w3.org/1999/xlink" x="0px" y="0px"
	 viewBox="0 0 512 512" style="enable-background:new 0 0 512 512;" xml:space="preserve">
<path d="M306.68,237.62h-66.5l15.33-54.7l6.43-22.92l3.94-14l4.29-15.33l0,0c0.029-0.145,0.049-0.292,0.06-0.44
	c0-0.06,0-0.12,0-0.19c0.005-0.077,0.005-0.153,0-0.23c0.005-0.08,0.005-0.16,0-0.24v-0.14c0-0.1-0.07-0.19-0.11-0.29v-0.05
	c-0.364-0.787-1.134-1.307-2-1.35h-0.1c-0.726,0.023-1.397,0.396-1.8,1l0,0l-12.5,17.15l-18.82,25.55l-8.36,11.48l-35.41,48.6
	L160,274.26h66.44l-30,107c-0.03,0.159-0.05,0.319-0.06,0.48c0,0,0,0.06,0,0.1c-0.01,0.113-0.01,0.227,0,0.34
	c-0.005,0.03-0.005,0.06,0,0.09c0.017,0.108,0.041,0.215,0.07,0.32v0.06c0.036,0.111,0.083,0.218,0.14,0.32l0,0
	c0.322,0.582,0.873,1.003,1.52,1.16h0.11h0.33h0.13c0.481-0.012,0.944-0.188,1.31-0.5l0.06-0.05c0.157-0.133,0.298-0.284,0.42-0.45
	l0,0L223.3,352l13-17.82L306.68,237.62z"/>
<path d="M289.78,134.55l-0.14,0.74l-0.21,0.73l-6.72,24H417V352H248.05l-23.33,32H449V128H290.13
	C290.332,130.189,290.214,132.395,289.78,134.55z"/>
<path d="M49,160h169.49l23.31-32H17v256h159.49c-0.216-2.228-0.101-4.476,0.34-6.67l0.15-0.75l0.2-0.73l6.69-23.85H49V160z"/>
<polygon points="264.76,329.08 395.31,329.08 395.31,182.92 276.28,182.92 266.55,217.62 306.68,217.62 346,217.62 322.84,249.4 "/>
<polygon points="160,294.26 120.69,294.26 143.84,262.48 201.79,182.92 70.69,182.92 70.69,329.08 190.29,329.08 200.06,294.26 "/>
<rect x="465" y="202.67" width="32" height="106.67"/>
</svg>
