<?xml version="1.0" encoding="iso-8859-1"?>
<!-- Generator: Adobe Illustrator 24.3.0, SVG Export Plug-In . SVG Version: 6.00 Build 0)  -->
<svg version="1.1" id="Layer_1" xmlns="http://www.w3.org/2000/svg" xmlns:xlink="http://www.w3.org/1999/xlink" x="0px" y="0px"
	 viewBox="0 0 512 512" style="enable-background:new 0 0 512 512;" xml:space="preserve">
<path d="M386.3,384H77.7C43.679,384,16,356.322,16,322.3V189.7c0-34.021,27.679-61.7,61.7-61.7h308.6
	c34.021,0,61.7,27.679,61.7,61.7v132.6C448,356.322,420.321,384,386.3,384z M77.7,160C61.323,160,48,173.324,48,189.7v132.6
	c0,16.377,13.323,29.7,29.7,29.7h308.6c16.377,0,29.7-13.323,29.7-29.7V189.7c0-16.376-13.323-29.7-29.7-29.7H77.7z"/>
<g>
	<path d="M89.69,198.93H236c2.209,0,4,1.791,4,4v106.13c0,2.209-1.791,4-4,4H89.69c-2.209,0-4-1.791-4-4V202.93
		C85.69,200.721,87.481,198.93,89.69,198.93z"/>
	<path d="M236,329.06H89.69c-11.028,0-20-8.972-20-20V202.93c0-11.028,8.972-20,20-20H236c11.028,0,20,8.972,20,20v106.13
		C256,320.088,247.028,329.06,236,329.06z M101.69,297.06H224v-82.13H101.69V297.06z M236,214.93h0.01H236z"/>
</g>
<path d="M480,309.331c-8.837,0-16-7.163-16-16V218.67c0-8.836,7.163-16,16-16s16,7.164,16,16v74.661
	C496,302.167,488.837,309.331,480,309.331z"/>
</svg>
