<?xml version="1.0" encoding="iso-8859-1"?>
<!-- Generator: Adobe Illustrator 24.3.0, SVG Export Plug-In . SVG Version: 6.00 Build 0)  -->
<svg version="1.1" id="Layer_1" xmlns="http://www.w3.org/2000/svg" xmlns:xlink="http://www.w3.org/1999/xlink" x="0px" y="0px"
	 viewBox="0 0 512 512" style="enable-background:new 0 0 512 512;" xml:space="preserve">
<path d="M48,322.3V189.7c0.022-16.394,13.306-29.678,29.7-29.7h137.44l24.4-32H77.7c-34.06,0.039-61.661,27.64-61.7,61.7v132.6
	c0.039,34.06,27.64,61.661,61.7,61.7h96.85c-0.312-2.438-0.225-4.91,0.26-7.32l0.15-0.75l0.21-0.73l6.5-23.2H77.7
	C61.306,351.978,48.022,338.694,48,322.3z"/>
<path d="M386.3,128h-98.64c0.294,2.399,0.203,4.83-0.27,7.2l-0.15,0.74l-0.21,0.73L280.49,160H386.3
	c16.394,0.022,29.678,13.306,29.7,29.7v132.6c-0.022,16.394-13.306,29.678-29.7,29.7H247l-24.42,32H386.3
	c34.06-0.039,61.661-27.64,61.7-61.7V189.7C447.961,155.64,420.36,128.039,386.3,128z"/>
<path d="M162.65,294.16c-9.042,0.002-17.341-5.003-21.56-13c-4.364-8.205-3.817-18.153,1.42-25.83l0.31-0.46l0.33-0.44L197.62,183
	H89.69c-11.046,0-20,8.954-20,20v106c0,11.046,8.954,20,20,20h98.42l9.78-34.86L162.65,294.16z"/>
<path d="M276.07,280.89l27.07-35.49c0.381-0.579,0.643-1.228,0.77-1.91c0.041-0.218,0.068-0.438,0.08-0.66
	c0.029-0.432,0.002-0.865-0.08-1.29c-0.117-0.62-0.347-1.214-0.68-1.75c-0.218-0.349-0.48-0.668-0.78-0.95
	c-0.149-0.141-0.309-0.268-0.48-0.38c-0.339-0.24-0.714-0.425-1.11-0.55c-0.424-0.134-0.866-0.202-1.31-0.2h-61.62l12.12-43.21
	l3.23-11.5l6.21-22.16L260,159l7.79-27.76l0,0c0.031-0.182,0.048-0.366,0.05-0.55c0-0.06,0-0.11,0-0.16s0-0.26-0.05-0.38
	s0-0.09,0-0.14c-0.04-0.156-0.097-0.307-0.17-0.45l0,0c-0.078-0.135-0.165-0.266-0.26-0.39l-0.09-0.1
	c-0.078-0.082-0.162-0.159-0.25-0.23l-0.1-0.08c-0.124-0.089-0.254-0.17-0.39-0.24l0,0c-0.131-0.061-0.269-0.108-0.41-0.14h-0.13
	h-0.33h-0.13c-0.15-0.015-0.3-0.015-0.45,0l0,0c-0.145,0.033-0.286,0.084-0.42,0.15l-0.13,0.07l-0.3,0.21l-0.11,0.1
	c-0.135,0.123-0.256,0.26-0.36,0.41l0,0l-18,23.63l-13.14,17.22L222.77,183l-63.71,83.55c-0.168,0.255-0.315,0.522-0.44,0.8
	c-0.16,0.348-0.277,0.714-0.35,1.09c-0.086,0.424-0.113,0.858-0.08,1.29c0.068,1.476,0.804,2.842,2,3.71
	c0.173,0.115,0.353,0.219,0.54,0.31c0.589,0.285,1.236,0.432,1.89,0.43h61.62L194.42,380.6c-0.014,0.186-0.014,0.374,0,0.56
	c0,0,0,0.1,0,0.15c0.009,0.128,0.03,0.255,0.06,0.38c-0.006,0.047-0.006,0.094,0,0.14c0.04,0.156,0.097,0.307,0.17,0.45l0,0
	c0.079,0.132,0.165,0.259,0.26,0.38l0.09,0.1l0.25,0.24c0.038,0.021,0.071,0.048,0.1,0.08c0.122,0.09,0.253,0.167,0.39,0.23l0,0
	c0.133,0.057,0.27,0.104,0.41,0.14h0.13c0.11,0.01,0.22,0.01,0.33,0h0.13c0.152-0.005,0.302-0.025,0.45-0.06l0,0
	c0.142-0.038,0.279-0.092,0.41-0.16l0.13-0.07l0.3-0.21l0.11-0.09c0.135-0.123,0.256-0.26,0.36-0.41l0,0L221.82,352l17.53-23
	L276.07,280.89z"/>
<path d="M319.5,256.93l-0.46,0.6L264.51,329h109.8c11.046,0,20-8.954,20-20V203c0-11.046-8.954-20-20-20H274.05l-9.74,34.73h35.24
	c8.954-0.011,17.192,4.893,21.45,12.77c4.426,8.128,4.042,18.029-1,25.79L319.5,256.93z"/>
<path d="M480,202.67c-8.837,0-16,7.163-16,16v74.66c0,8.837,7.163,16,16,16s16-7.163,16-16v-74.66
	C496,209.833,488.837,202.67,480,202.67z"/>
</svg>
