<?xml version="1.0" encoding="iso-8859-1"?>
<!-- Generator: Adobe Illustrator 24.3.0, SVG Export Plug-In . SVG Version: 6.00 Build 0)  -->
<svg version="1.1" id="Layer_1" xmlns="http://www.w3.org/2000/svg" xmlns:xlink="http://www.w3.org/1999/xlink" x="0px" y="0px"
	 viewBox="0 0 512 512" style="enable-background:new 0 0 512 512;" xml:space="preserve">
<path d="M385.3,384H76.7C42.679,384,15,356.322,15,322.3V189.7c0-34.021,27.679-61.7,61.7-61.7h308.6
	c34.021,0,61.7,27.679,61.7,61.7v132.6C447,356.322,419.321,384,385.3,384z M76.7,160C60.323,160,47,173.324,47,189.7v132.6
	c0,16.377,13.323,29.7,29.7,29.7h308.6c16.377,0,29.7-13.323,29.7-29.7V189.7c0-16.376-13.323-29.7-29.7-29.7H76.7z"/>
<path d="M479,309.331c-8.837,0-16-7.163-16-16V218.67c0-8.836,7.163-16,16-16s16,7.164,16,16v74.661
	C495,302.167,487.837,309.331,479,309.331z"/>
</svg>
