<?xml version="1.0" encoding="iso-8859-1"?>
<!-- Generator: Adobe Illustrator 24.3.0, SVG Export Plug-In . SVG Version: 6.00 Build 0)  -->
<svg version="1.1" id="Layer_1" xmlns="http://www.w3.org/2000/svg" xmlns:xlink="http://www.w3.org/1999/xlink" x="0px" y="0px"
	 viewBox="0 0 512 512" style="enable-background:new 0 0 512 512;" xml:space="preserve">
<path d="M368,480H176c-44.112,0-80-35.888-80-80V136c0-18.212-4.296-20.007-34.197-24.151C53.891,110.751,48,103.988,48,96
	c0-25.726,21.305-64,80-64h270l47.217,0.05C455.926,32.059,464,39.988,464,50.5c0,5.949-3.065,10.163-5.095,12.952
	c-0.273,0.377-0.559,0.75-0.782,1.099c-0.048,0.076-0.096,0.15-0.145,0.224C455.839,68.172,448,83.206,448,96v304
	C448,444.113,412.112,480,368,480z M83.997,83.053C106.576,87.821,128,98.617,128,136v264c0,26.467,21.533,48,48,48h192
	c26.467,0,48-21.533,48-48V96c0-11.778,3.298-23.162,6.83-31.974L397.983,64H128c-18.62,0-32.197,4.697-40.354,13.961
	C86.183,79.623,84.979,81.348,83.997,83.053z M445.2,64.05h0.01H445.2z"/>
<path d="M432,192H112c-8.836,0-16-7.164-16-16s7.164-16,16-16h320c8.837,0,16,7.164,16,16S440.837,192,432,192z"/>
</svg>
