<?xml version="1.0" encoding="iso-8859-1"?>
<!-- Generator: Adobe Illustrator 24.3.0, SVG Export Plug-In . SVG Version: 6.00 Build 0)  -->
<svg version="1.1" id="Layer_1" xmlns="http://www.w3.org/2000/svg" xmlns:xlink="http://www.w3.org/1999/xlink" x="0px" y="0px"
	 viewBox="0 0 512 512" style="enable-background:new 0 0 512 512;" xml:space="preserve">
<path d="M453.55,54.7L464,32H128.4c-27.74,0-49,6.57-63.31,19.51C54.39,61.27,48,74.89,48,88v24h16c31,0,32,16.79,32,35v313
	c0,11.046,8.954,20,20,20h312c11.046,0,20-8.954,20-20V96C448,78.84,450.28,61.86,453.55,54.7z M416,96v64H128v-22
	c0-36.15-21-51-41.77-53.46C89,70,105.7,64.05,128.4,64.05h289.92C416.778,74.63,416.002,85.308,416,96z"/>
</svg>
