<?xml version="1.0" encoding="iso-8859-1"?>
<!-- Generator: Adobe Illustrator 24.3.0, SVG Export Plug-In . SVG Version: 6.00 Build 0)  -->
<svg version="1.1" id="Layer_1" xmlns="http://www.w3.org/2000/svg" xmlns:xlink="http://www.w3.org/1999/xlink" x="0px" y="0px"
	 viewBox="0 0 512 512" style="enable-background:new 0 0 512 512;" xml:space="preserve">
<path d="M444,32H128c-19.38,0-45.9,4.34-64.11,24.77C52.17,69.92,48,85.66,48,96c-0.001,7.987,5.889,14.752,13.8,15.85
	C91.7,116,96,117.79,96,136v264c0.039,44.167,35.833,79.961,80,80h192c44.158-0.061,79.939-35.842,80-80V96
	c0-12.55,7.46-27.25,10-31.36l0.1-0.14c0.22-0.35,0.5-0.72,0.78-1.1c2-2.79,5.09-7,5.09-12.95C464,39.79,454.89,32,444,32z
	 M84.11,83.08c5.24-8.87,17.17-19,44.29-19h294.43C419.3,72.87,416,84.27,416,96v64H128v-24C128,98.68,106.65,87.86,84.11,83.08z"/>
</svg>
