<?xml version="1.0" encoding="iso-8859-1"?>
<!-- Generator: Adobe Illustrator 24.3.0, SVG Export Plug-In . SVG Version: 6.00 Build 0)  -->
<svg version="1.1" id="Layer_1" xmlns="http://www.w3.org/2000/svg" xmlns:xlink="http://www.w3.org/1999/xlink" x="0px" y="0px"
	 viewBox="0 0 512 512" style="enable-background:new 0 0 512 512;" xml:space="preserve">
<path d="M416,256H96c-8.836,0-16-7.164-16-16V136c0.092-30.808,25.192-55.908,55.952-56H376c30.809,0.092,55.909,25.192,56,55.953
	V240C432,248.836,424.837,256,416,256z M112,224h288v-88c-0.039-13.173-10.827-23.96-24.048-24H136
	c-13.173,0.04-23.96,10.827-24,24.048V224z"/>
<path d="M464,432c-8.837,0-16-7.163-16-16V304c-0.078-26.368-21.632-47.922-48.047-48.001H112
	c-26.368,0.078-47.922,21.632-48,48.047V416c0,8.837-7.164,16-16,16s-16-7.163-16-16V304c0.13-44.004,35.997-79.87,79.953-80.001
	H400c44.003,0.13,79.87,35.997,80,79.954V416C480,424.837,472.837,432,464,432z"/>
<path d="M464,432c-8.837,0-16-7.163-16-16v-8c-0.013-4.378-3.622-7.987-8.046-8H72c-4.378,0.013-7.987,3.622-8,8.047V416
	c0,8.837-7.164,16-16,16s-16-7.163-16-16v-8c0.064-22.014,17.987-39.937,39.954-40H440c22.014,0.063,39.937,17.986,40,39.954V416
	C480,424.837,472.837,432,464,432z"/>
<path d="M256,256c-8.836,0-16-7.164-16-16v-16c-0.024-8.778-7.222-15.976-16.045-16H144c-8.778,0.024-15.976,7.222-16,16.045V240
	c0,8.836-7.164,16-16,16s-16-7.164-16-16v-16c0.074-26.414,21.586-47.926,47.955-48H224c26.414,0.074,47.926,21.586,48,47.955V240
	C272,248.836,264.837,256,256,256z"/>
<path d="M400,256c-8.837,0-16-7.164-16-16v-16c-0.024-8.777-7.223-15.976-16.045-16H288c-8.777,0.024-15.976,7.223-16,16.045V240
	c0,8.836-7.163,16-16,16c-8.836,0-16-7.164-16-16v-16c0.075-26.414,21.587-47.926,47.955-48H368
	c26.413,0.074,47.926,21.586,48,47.955V240C416,248.836,408.837,256,400,256z"/>
</svg>
