<?xml version="1.0" encoding="iso-8859-1"?>
<!-- Generator: Adobe Illustrator 24.3.0, SVG Export Plug-In . SVG Version: 6.00 Build 0)  -->
<svg version="1.1" id="Layer_1" xmlns="http://www.w3.org/2000/svg" xmlns:xlink="http://www.w3.org/1999/xlink" x="0px" y="0px"
	 viewBox="0 0 512 512" style="enable-background:new 0 0 512 512;" xml:space="preserve">
<path d="M432,230.7c-10.087-4.428-20.984-6.71-32-6.7H112c-11.015-0.011-21.912,2.268-32,6.69l0,0
	C50.865,243.431,32.028,272.201,32,304v112c0,8.837,7.163,16,16,16s16-7.163,16-16v-8c0.054-4.396,3.604-7.946,8-8h368
	c4.396,0.054,7.946,3.604,8,8v8c0,8.837,7.163,16,16,16s16-7.163,16-16V304C479.968,272.205,461.131,243.44,432,230.7z"/>
<path d="M376,80H136c-30.928,0-56,25.072-56,56v72c0.002,2.209,1.794,3.999,4.003,3.997c0.375,0,0.747-0.053,1.107-0.157
	c8.735-2.555,17.789-3.848,26.89-3.84h4.23c2.045,0.013,3.77-1.518,4-3.55c1.807-16.186,15.483-28.433,31.77-28.45h56
	c16.298,0.001,29.992,12.252,31.8,28.45c0.23,2.032,1.955,3.563,4,3.55h24.46c2.045,0.013,3.77-1.518,4-3.55
	c1.806-16.175,15.465-28.418,31.74-28.45h56c16.298,0.001,29.992,12.252,31.8,28.45c0.23,2.032,1.955,3.563,4,3.55h4.2
	c9.101-0.004,18.156,1.292,26.89,3.85c2.122,0.613,4.34-0.611,4.953-2.733c0.105-0.363,0.158-0.739,0.157-1.117v-72
	C432,105.072,406.928,80,376,80z"/>
</svg>
