<?xml version="1.0" encoding="iso-8859-1"?>
<!-- Generator: Adobe Illustrator 24.3.0, SVG Export Plug-In . SVG Version: 6.00 Build 0)  -->
<svg version="1.1" id="Layer_1" xmlns="http://www.w3.org/2000/svg" xmlns:xlink="http://www.w3.org/1999/xlink" x="0px" y="0px"
	 viewBox="0 0 512 512" style="enable-background:new 0 0 512 512;" xml:space="preserve">
<path d="M136,496c-30.808-0.093-55.908-25.192-56-55.952V224c0-8.836,7.164-16,16-16s16,7.164,16,16V440
	c0.04,13.173,10.828,23.96,24.048,24H312c13.173-0.04,23.961-10.827,24-24.048V200c0-8.836,7.163-16,16-16s16,7.164,16,16V440
	c-0.091,30.808-25.191,55.907-55.952,56H136z"/>
<path d="M352,432c-8.837,0-16-7.163-16-16s7.163-16,16-16h40c21.973-0.062,39.938-18.027,40-40.046V280
	c-0.062-21.974-18.027-39.938-40.046-40.001H352c-8.837,0-16-7.164-16-16s7.163-16,16-16h40c39.608,0.113,71.888,32.392,72,71.955
	V360c-0.112,39.608-32.392,71.888-71.954,72H352z"/>
<path d="M224,432c-8.836,0-16-7.163-16-16V256c0-8.836,7.164-16,16-16s16,7.164,16,16V416C240,424.837,232.836,432,224,432z"/>
<path d="M288,432c-8.837,0-16-7.163-16-16V256c0-8.836,7.163-16,16-16s16,7.164,16,16V416C304,424.837,296.837,432,288,432z"/>
<path d="M160,432c-8.836,0-16-7.163-16-16V256c0-8.836,7.164-16,16-16s16,7.164,16,16V416C176,424.837,168.836,432,160,432z"/>
<path d="M112,240c-35.29,0-64-28.71-64-64s28.71-64,64-64c0.224,0,0.448,0.005,0.672,0.014c12.523,0.526,24.516,4.678,34.683,12.006
	c7.169,5.166,8.792,15.166,3.625,22.335c-5.167,7.169-15.167,8.791-22.335,3.625c-4.985-3.593-10.851-5.657-16.982-5.978
	C94.172,144.183,80,158.467,80,176c0,17.645,14.355,32,32,32c9.395,0,26.171-2.789,32.963-21.468
	C147.263,180.209,153.272,176,160,176h122c4.243,0,8.312,1.686,11.313,4.686C299.446,186.819,311.668,192,320,192
	c17.645,0,32-14.355,32-32s-14.355-32-32-32c-8.837,0-16-7.164-16-16s7.163-16,16-16c35.29,0,64,28.71,64,64s-28.71,64-64,64
	c-14.597,0-31.761-6.379-44.01-16H170.179C158.638,228.237,137.62,240,112,240z"/>
<path d="M91.859,148.43c-4.07,0-8.141-1.543-11.261-4.634c-21.936-21.733-22.1-57.26-0.367-79.195
	c21.732-21.935,57.26-22.1,79.195-0.367c2.109,2.091,4.066,4.366,5.816,6.763C172.388,80.83,176,89.232,176,96
	c0,8.836-7.164,16-16,16c-8.248,0-15.039-6.241-15.906-14.259c-0.752-1.835-3.065-5.631-4.718-7.906
	c-0.729-0.999-1.568-1.975-2.472-2.87c-9.401-9.315-24.626-9.242-33.94,0.158c-4.512,4.554-6.98,10.592-6.95,17.003
	s2.554,12.426,7.108,16.938c6.277,6.219,6.324,16.35,0.104,22.627C100.098,146.849,95.979,148.43,91.859,148.43z M144.253,98.174
	L144.253,98.174L144.253,98.174z M144,96c0,0.006,0,0.011,0,0.017C144,96.012,144,96.005,144,96z"/>
<path d="M308.348,161.003c-0.99,0-1.995-0.092-3.004-0.284c-8.682-1.649-14.382-10.024-12.732-18.706
	c0.925-4.867,1.392-9.844,1.389-14.793c0-21.195-8.087-41.094-22.771-56.041C256.545,56.232,236.931,48,216,48
	c-22.069,0-42.718,9.682-58.143,27.263c-5.828,6.642-15.937,7.303-22.58,1.474c-6.642-5.828-7.302-15.937-1.474-22.58
	C155.393,29.551,184.584,16,216,16c29.585,0,57.307,11.632,78.057,32.753C314.655,69.722,326,97.585,326,127.21
	c0.005,6.945-0.652,13.939-1.951,20.777C322.591,155.659,315.88,161.002,308.348,161.003z"/>
</svg>
