<?xml version="1.0" encoding="iso-8859-1"?>
<!-- Generator: Adobe Illustrator 24.3.0, SVG Export Plug-In . SVG Version: 6.00 Build 0)  -->
<svg version="1.1" id="Layer_1" xmlns="http://www.w3.org/2000/svg" xmlns:xlink="http://www.w3.org/1999/xlink" x="0px" y="0px"
	 viewBox="0 0 512 512" style="enable-background:new 0 0 512 512;" xml:space="preserve">
<path d="M448,208h-80v-5.74c23.388-26.45,20.907-66.852-5.543-90.241C351.168,102.037,336.715,96.364,321.65,96
	c-5.104-17.82-14.589-34.078-27.59-47.29C273.533,27.701,245.372,15.901,216,16c-29.91,0-57.78,12.28-79,34.67
	c-29.471-9.38-60.966,6.907-70.346,36.379c-4.32,13.572-3.305,28.28,2.836,41.131c-1,0.86-1.91,1.74-2.83,2.66
	C54.607,142.869,47.884,159.232,48,176.26c0.016,17.756,7.565,34.671,20.77,46.54c3.439,3.127,7.204,5.876,11.23,8.2v249
	c0,8.837,7.163,16,16,16h256c8.837,0,16-7.163,16-16v-48h80c8.837,0,16-7.163,16-16V224C464,215.163,456.837,208,448,208z M176,432
	h-32V240h32V432z M240,432h-32V240h32V432z M304,432h-32V240h32V432z M320,192c-8.33,0-20.55-5.18-26.69-11.31l-4.68-4.69H148.79
	L145,186.53c-5.81,16-18.83,20.41-28.73,21.29c-9.468,0.85-18.86-2.293-25.91-8.67c-6.543-5.859-10.293-14.218-10.32-23
	c-0.056-8.514,3.305-16.694,9.33-22.71c0.16-0.17,0.33-0.32,0.5-0.49c5.933-5.746,13.871-8.956,22.13-8.95
	c0.09,0,9.12,0.34,16.4,5.8l12.8,9.6l19.2-25.6l-12.8-9.6c-10.367-7.56-22.775-11.812-35.6-12.2c-4.709,0.006-9.404,0.526-14,1.55
	c-5.242-12.174,0.379-26.293,12.553-31.534c10.271-4.422,22.236-1.165,28.847,7.854l0.23,0.35l0.4,0.46
	c2.087,2.725,3.771,5.736,5,8.94l5.62,15l30-11.24l-5.62-15c-2.427-6.38-5.798-12.36-10-17.74c-0.38-0.52-0.79-1-1.19-1.51
	C178.38,55.45,196.64,48,216,48c20.787-0.06,40.712,8.303,55.23,23.18c18.239,18.714,26.217,45.14,21.38,70.82l-3,15.72l31.43,6
	l3-15.72c1.219-6.407,1.875-12.909,1.96-19.43c17.358,3.321,28.738,20.085,25.417,37.443C348.533,181.089,335.35,191.994,320,192z
	 M432,400h-64V240h64V400z"/>
</svg>
