<?xml version="1.0" encoding="iso-8859-1"?>
<!-- Generator: Adobe Illustrator 24.3.0, SVG Export Plug-In . SVG Version: 6.00 Build 0)  -->
<svg version="1.1" id="Layer_1" xmlns="http://www.w3.org/2000/svg" xmlns:xlink="http://www.w3.org/1999/xlink" x="0px" y="0px"
	 viewBox="0 0 512 512" style="enable-background:new 0 0 512 512;" xml:space="preserve">
<path d="M392,208h-24v-5.74c23.388-26.45,20.907-66.852-5.543-90.241C351.168,102.037,336.715,96.364,321.65,96
	c-5.104-17.82-14.589-34.078-27.59-47.29C273.533,27.701,245.372,15.901,216,16c-29.91,0-57.78,12.28-79,34.68
	c-29.468-9.389-60.969,6.888-70.358,36.356c-4.33,13.59-3.311,28.319,2.848,41.184c-26.398,23.43-28.805,63.824-5.375,90.222
	c4.564,5.142,9.928,9.514,15.885,12.948V440c0.033,30.914,25.086,55.967,56,56h176c30.914-0.033,55.967-25.086,56-56v-8h24
	c39.746-0.044,71.956-32.254,72-72v-80C463.956,240.254,431.746,208.044,392,208z M176,416c0,8.837-7.163,16-16,16s-16-7.163-16-16
	V256c0-8.837,7.163-16,16-16s16,7.163,16,16V416z M240,416c0,8.837-7.163,16-16,16s-16-7.163-16-16V256c0-8.837,7.163-16,16-16
	s16,7.163,16,16V416z M304,416c0,8.837-7.163,16-16,16s-16-7.163-16-16V256c0-8.837,7.163-16,16-16s16,7.163,16,16V416z M320,192
	c-8.33,0-20.55-5.18-26.69-11.31c-2.999-3.001-7.067-4.688-11.31-4.69H160c-6.714,0.015-12.705,4.22-15,10.53
	c-6.83,18.68-23.6,21.47-33,21.47c-17.673,0-32-14.327-32-32s14.327-32,32-32c0.09,0,9.12,0.34,16.4,5.8
	c7.067,5.305,17.096,3.877,22.401-3.19s3.877-17.096-3.19-22.401c-0.004-0.003-0.007-0.006-0.011-0.008
	c-10.367-7.56-22.775-11.812-35.6-12.2c-4.71,0.003-9.406,0.529-14,1.57c-5.285-12.155,0.284-26.294,12.439-31.579
	c3.017-1.312,6.271-1.989,9.561-1.991c7.669-0.037,14.885,3.627,19.38,9.84c1.803,2.487,3.379,5.131,4.71,7.9
	c0.936,8.787,8.817,15.152,17.604,14.216c8.152-0.868,14.329-7.758,14.306-15.956c0-6.77-3.61-15.17-10.76-25
	c-0.46-0.63-1-1.25-1.45-1.86C178.39,55.44,196.64,48,216,48c20.787-0.06,40.712,8.303,55.23,23.18
	c18.239,18.714,26.217,45.14,21.38,70.82c-1.652,8.681,4.046,17.057,12.726,18.709c0.001,0,0.002,0,0.004,0.001
	c0.989,0.186,1.993,0.28,3,0.28c7.674-0.008,14.261-5.462,15.7-13c1.218-6.404,1.874-12.902,1.96-19.42
	c17.358,3.321,28.738,20.085,25.417,37.443C348.533,181.089,335.35,191.994,320,192z M432,360c0,22.091-17.909,40-40,40h-24V240h24
	c22.091,0,40,17.909,40,40V360z"/>
</svg>
