<?xml version="1.0" encoding="iso-8859-1"?>
<!-- Generator: Adobe Illustrator 24.3.0, SVG Export Plug-In . SVG Version: 6.00 Build 0)  -->
<svg version="1.1" id="Layer_1" xmlns="http://www.w3.org/2000/svg" xmlns:xlink="http://www.w3.org/1999/xlink" x="0px" y="0px"
	 viewBox="0 0 512 512" style="enable-background:new 0 0 512 512;" xml:space="preserve">
<path d="M388,456c-50.729,0-92-41.271-92-92s41.271-92,92-92h0.051c50.542,0.159,91.79,41.407,91.949,91.949
	C480,414.729,438.729,456,388,456z M387.97,304c-33.07,0.017-59.97,26.926-59.97,60c0,33.084,26.916,60,60,60s60-26.916,60-60
	C447.896,331.048,420.97,304.114,387.97,304z"/>
<path d="M124,456c-50.729,0-92-41.271-92-92s41.271-92,92-92h0.05c50.542,0.159,91.791,41.407,91.95,91.949
	C216,414.729,174.729,456,124,456z M123.97,304C90.899,304.017,64,330.926,64,364c0,33.084,26.916,60,60,60s60-26.916,60-60
	C183.896,331.048,156.97,304.114,123.97,304z"/>
<path d="M256,376c-8.836,0-16-7.163-16-16v-77.362l-56.779-37.261c-3.913-2.568-6.505-6.721-7.094-11.365
	c-0.588-4.643,0.886-9.312,4.034-12.775l80-88c3.467-3.814,8.55-5.727,13.681-5.131c5.12,0.593,9.642,3.617,12.145,8.123
	L321.414,200H368c8.837,0,16,7.164,16,16s-7.163,16-16,16h-56c-5.811,0-11.165-3.15-13.986-8.229l-29.173-52.51l-52.4,57.641
	l48.338,31.722C269.285,263.581,272,268.61,272,274v86C272,368.837,264.837,376,256,376z"/>
<path d="M320,136c17.612,0.061,31.939-14.167,32-31.779c0-0.107,0-0.214,0-0.321c0.194-17.424-13.774-31.705-31.197-31.899
	c-0.201-0.002-0.402-0.003-0.603-0.001c-17.673-0.055-32.045,14.227-32.1,31.9S302.327,135.945,320,136z"/>
</svg>
