<?xml version="1.0" encoding="iso-8859-1"?>
<!-- Generator: Adobe Illustrator 24.3.0, SVG Export Plug-In . SVG Version: 6.00 Build 0)  -->
<svg version="1.1" id="Layer_1" xmlns="http://www.w3.org/2000/svg" xmlns:xlink="http://www.w3.org/1999/xlink" x="0px" y="0px"
	 viewBox="0 0 512 512" style="enable-background:new 0 0 512 512;" xml:space="preserve">
<path d="M388,448c-50.81,0-92-41.19-92-92s41.19-92,92-92s92,41.19,92,92C479.945,406.787,438.787,447.945,388,448z M388,296
	c-33.137,0-60,26.863-60,60s26.863,60,60,60s60-26.863,60-60C447.961,322.879,421.121,296.039,388,296z"/>
<path d="M124,448c-50.81,0-92-41.19-92-92s41.19-92,92-92s92,41.19,92,92C215.945,406.787,174.787,447.945,124,448z M124,296
	c-33.137,0-60,26.863-60,60s26.863,60,60,60s60-26.863,60-60C183.961,322.879,157.121,296.039,124,296z"/>
<path d="M320,128c17.612,0.061,31.939-14.167,32-31.779c0-0.107,0-0.214,0-0.321c0.194-17.424-13.774-31.705-31.197-31.899
	c-0.201-0.002-0.402-0.003-0.603-0.001c-17.673-0.055-32.045,14.227-32.1,31.9S302.327,127.945,320,128z"/>
<path d="M367.55,192h-43.76c-1.462,0-2.808-0.797-3.51-2.08l-31.74-58.17l0,0c-7.867-15.206-26.571-21.156-41.778-13.29
	c-2.801,1.449-5.365,3.317-7.602,5.54l0,0l-69.86,70.4c-5.869,5.99-9.2,14.014-9.3,22.4c0,17.4,12.6,23.6,18.5,27.1
	c28.5,16.42,48.57,28.43,59.58,35.1c1.19,0.725,1.918,2.016,1.92,3.41v69.12c0,8.61,6.62,16,15.23,16.43
	c8.826,0.425,16.326-6.385,16.751-15.211C271.993,352.499,272,352.25,272,352v-86c0.003-5.153-2.476-9.992-6.66-13l-37-26.61
	c-1.797-1.286-2.211-3.784-0.925-5.581c0.105-0.147,0.221-0.288,0.345-0.419l42-44.79c1.508-1.614,4.04-1.7,5.654-0.191
	c0.305,0.285,0.564,0.616,0.766,0.981L298,215.77c2.824,5.084,8.184,8.235,14,8.23h56c8.837,0.01,16.008-7.145,16.019-15.981
	c0-0.263-0.006-0.526-0.019-0.789C383.58,198.62,376.16,192,367.55,192z"/>
</svg>
