<?xml version="1.0" encoding="iso-8859-1"?>
<!-- Generator: Adobe Illustrator 24.3.0, SVG Export Plug-In . SVG Version: 6.00 Build 0)  -->
<svg version="1.1" id="Layer_1" xmlns="http://www.w3.org/2000/svg" xmlns:xlink="http://www.w3.org/1999/xlink" x="0px" y="0px"
	 viewBox="0 0 512 512" style="enable-background:new 0 0 512 512;" xml:space="preserve">
<path d="M320,192l-29.5-60.1C284.32,118,284.32,118,264,118c-13.26,0-14.76,0-23,7.3l-71.7,69.1c-8.3,8.45-9.3,9.45-9.3,26.6
	c0,12.67,3.78,14.61,18.51,22.9L240,278v90h32V254c0,0-29-17-48.3-30l48.9-51.5c18.7,28.5,27.3,51.5,38,51.5H384v-32H320z"/>
<path d="M388,448c-50.81,0-92-41.19-92-92s41.19-92,92-92s92,41.19,92,92C479.945,406.787,438.787,447.945,388,448z M388,296
	c-33.137,0-60,26.863-60,60s26.863,60,60,60s60-26.863,60-60C447.961,322.879,421.121,296.039,388,296z"/>
<path d="M124,448c-50.81,0-92-41.19-92-92s41.19-92,92-92s92,41.19,92,92C215.945,406.787,174.787,447.945,124,448z M124,296
	c-33.137,0-60,26.863-60,60s26.863,60,60,60s60-26.863,60-60C183.961,322.879,157.121,296.039,124,296z"/>
<path d="M320,128c17.612,0.061,31.939-14.167,32-31.779c0-0.107,0-0.214,0-0.321c0.194-17.424-13.774-31.705-31.197-31.899
	c-0.201-0.002-0.402-0.003-0.603-0.001c-17.673-0.055-32.045,14.227-32.1,31.9S302.327,127.945,320,128z"/>
</svg>
