<?xml version="1.0" encoding="iso-8859-1"?>
<!-- Generator: Adobe Illustrator 24.3.0, SVG Export Plug-In . SVG Version: 6.00 Build 0)  -->
<svg version="1.1" id="Layer_1" xmlns="http://www.w3.org/2000/svg" xmlns:xlink="http://www.w3.org/1999/xlink" x="0px" y="0px"
	 viewBox="0 0 512 512" style="enable-background:new 0 0 512 512;" xml:space="preserve">
<path d="M388,160.77c0.212-5.568-1.908-10.972-5.85-14.91l-112-112c-7.806-7.815-20.469-7.822-28.284-0.016
	C238.109,37.597,235.998,42.69,236,48v164.52l-79-67.71c-8.574-6.964-21.17-5.659-28.134,2.914
	c-6.713,8.264-5.775,20.338,2.134,27.466L225.27,256L131,336.81c-8.574,6.964-9.878,19.56-2.914,28.134
	c6.964,8.574,19.56,9.878,28.134,2.914c0.266-0.216,0.526-0.439,0.78-0.668l79-67.71V464c0.002,11.046,8.959,19.998,20.004,19.996
	c5.302-0.001,10.386-2.107,14.136-5.856l112-112c7.808-7.813,7.803-20.476-0.01-28.284c-0.363-0.363-0.74-0.712-1.13-1.046
	L286.73,256L381,175.19C385.242,171.57,387.779,166.342,388,160.77z M338.58,353.13L276,415.72V299.49L338.58,353.13z M276,212.52
	V96.28l62.59,62.59L276,212.52z"/>
</svg>
