<?xml version="1.0" encoding="iso-8859-1"?>
<!-- Generator: Adobe Illustrator 24.3.0, SVG Export Plug-In . SVG Version: 6.00 Build 0)  -->
<svg version="1.1" id="Layer_1" xmlns="http://www.w3.org/2000/svg" xmlns:xlink="http://www.w3.org/1999/xlink" x="0px" y="0px"
	 viewBox="0 0 512 512" style="enable-background:new 0 0 512 512;" xml:space="preserve">
<path d="M255.997,480c-2.062,0.001-4.14-0.397-6.12-1.218C243.898,476.306,240,470.472,240,464V290.788l-85.587,73.361
	c-6.709,5.75-16.809,4.974-22.561-1.735c-5.751-6.71-4.974-16.811,1.735-22.562L231.415,256l-97.827-83.852
	c-6.709-5.75-7.486-15.852-1.735-22.561c5.751-6.71,15.853-7.484,22.561-1.735L240,221.213V48c0-6.471,3.898-12.306,9.877-14.782
	c5.979-2.477,12.861-1.108,17.437,3.469l112,112c3.151,3.151,4.846,7.474,4.675,11.928c-0.171,4.453-2.191,8.633-5.575,11.534
	L280.585,256l97.828,83.852c3.384,2.9,5.404,7.081,5.575,11.534c0.171,4.454-1.523,8.776-4.675,11.928l-112,112
	C264.253,478.374,260.16,480,255.997,480z M272,290.788v134.585l72.469-72.469L272,290.788z M272,86.627v134.585l72.469-62.117
	L272,86.627z"/>
</svg>
