<?xml version="1.0" encoding="iso-8859-1"?>
<!-- Generator: Adobe Illustrator 24.3.0, SVG Export Plug-In . SVG Version: 6.00 Build 0)  -->
<svg version="1.1" id="Layer_1" xmlns="http://www.w3.org/2000/svg" xmlns:xlink="http://www.w3.org/1999/xlink" x="0px" y="0px"
	 viewBox="0 0 512 512" style="enable-background:new 0 0 512 512;" xml:space="preserve">
<path d="M477.77,246.42c-2.13-6-7.23-9.55-12.56-11.95L432,221.38V92c0-11.046-8.954-20-20-20h-76V40c0-8.837-7.163-16-16-16H192
	c-8.837,0-16,7.163-16,16v32h-76c-11.046,0-20,8.954-20,20v129.46l-33.08,13.06c-5.33,2.4-10.58,6-12.72,12s-3.16,11.81-1,19
	L84.25,415.7h1.06c34.12,0,64-17.41,85.31-43.82c21.32,26.41,51.18,42.12,85.3,42.12s64-15.76,85.31-42.17
	c21.32,26.41,51.18,43.87,85.3,43.87h1.06l51.25-150.17C481,259.53,479.91,252.43,477.77,246.42z M256,152l-144,56.83V108
	c0-2.209,1.791-4,4-4h280c2.209,0,4,1.791,4,4v100.76L256,152z"/>
<path d="M345.22,407c-52.25,36.26-126.35,36.25-178.6,0c0,0-45.64,63-94.64,63l13.33,1c29.86,0,58.65-11.73,85.31-25.59
	c53.486,27.729,117.114,27.729,170.6,0c26.66,13.87,55.45,25.6,85.31,25.6l13.33-1C392.21,470,345.22,407,345.22,407z"/>
</svg>
