<?xml version="1.0" encoding="iso-8859-1"?>
<!-- Generator: Adobe Illustrator 24.3.0, SVG Export Plug-In . SVG Version: 6.00 Build 0)  -->
<svg version="1.1" id="Layer_1" xmlns="http://www.w3.org/2000/svg" xmlns:xlink="http://www.w3.org/1999/xlink" x="0px" y="0px"
	 viewBox="0 0 512 512" style="enable-background:new 0 0 512 512;" xml:space="preserve">
<path d="M416,473.14c-0.001-2.503-1.37-4.805-3.57-6c-27.07-14.55-51.76-36.82-62.62-48c-3.328-3.49-8.667-4.124-12.72-1.51
	c-50.33,32.42-111.61,32.44-161.95,0.05c-4.09-2.641-9.483-1.985-12.82,1.56c-10.77,11.28-35.19,33.3-62.43,47.75
	c-2.202,1.107-3.674,3.275-3.89,5.73c-0.293,3.705,2.474,6.946,6.179,7.239c0.582,0.046,1.167,0.016,1.741-0.089
	c20.85-4.18,41-13.68,60.2-23.83c2.499-1.316,5.481-1.338,8-0.06c52.725,26.806,115.085,26.806,167.81,0
	c2.547-1.291,5.562-1.269,8.09,0.06c19.1,10,39.22,19.59,60,23.8c3.65,0.702,7.178-1.688,7.88-5.338
	c0.087-0.452,0.127-0.912,0.12-1.372L416,473.14z"/>
<path d="M476.71,246.91L476.71,246.91c-3.49-8.39-10.9-14.89-20.9-18.35L432,219.08V136c0-35.346-28.654-64-64-64h-32v-8
	c0-22.091-17.909-40-40-40h-80c-22.091,0-40,17.909-40,40v8h-32c-35.346,0-64,28.654-64,64v83.15l-23.58,9.39
	c-9.94,3.3-17.63,10-21.15,18.44c-2.45,5.89-5.25,15-1.3,26.46l0.1,0.3l46.66,119.44c3.519,8.982,12.203,14.873,21.85,14.82
	c0.5,0,1,0,1.53-0.05c31.32-2,56-17.27,72.6-31.61C200.42,396.81,228.31,408,256,408s55.43-11.2,79.14-31.7
	c16.59,14.36,41.3,29.67,72.61,31.65c10.172,0.714,19.632-5.253,23.37-14.74l46.65-119C481.05,266.12,480.67,256.45,476.71,246.91z
	 M269,154.21l-1.14-0.4c-7.723-2.43-16.007-2.43-23.73,0l-0.58,0.18l-126.07,50.23c-2.052,0.817-4.379-0.184-5.196-2.236
	c-0.188-0.472-0.284-0.976-0.284-1.484V136c0-17.673,14.327-32,32-32h224c17.673,0,32,14.327,32,32v64.44
	c0.002,2.209-1.787,4.002-3.996,4.004c-0.508,0-1.012-0.096-1.484-0.284L269,154.21z"/>
</svg>
