<?xml version="1.0" encoding="iso-8859-1"?>
<!-- Generator: Adobe Illustrator 24.3.0, SVG Export Plug-In . SVG Version: 6.00 Build 0)  -->
<svg version="1.1" id="Layer_1" xmlns="http://www.w3.org/2000/svg" xmlns:xlink="http://www.w3.org/1999/xlink" x="0px" y="0px"
	 viewBox="0 0 512 512" style="enable-background:new 0 0 512 512;" xml:space="preserve">
<path d="M409.351,416.023c-0.554,0-1.11-0.02-1.67-0.059c-31.278-1.99-55.974-17.3-72.547-31.649
	C311.46,404.804,283.625,416,256,416c-27.692,0-55.579-11.185-79.275-31.648c-16.564,14.332-41.255,29.623-72.554,31.612
	c-10.166,0.711-19.545-5.148-23.372-14.601l-0.073-0.184l-46.66-119.483l-0.115-0.339c-3.866-11.379-1.066-20.501,1.376-26.373
	c3.523-8.47,11.215-15.165,21.163-18.449l187.067-74.547l0.586-0.183c7.754-2.419,15.951-2.419,23.705,0l1.147,0.407l186.812,74.333
	c9.958,3.454,17.359,9.94,20.874,18.305l0.025,0.062c3.963,9.543,4.34,19.219,1.065,27.269l-46.74,119.259
	C427.397,410.334,418.83,416.023,409.351,416.023z M176.725,349.438c5.83,0,11.659,2.134,16.202,6.402l0.109,0.104
	C211.93,374.037,234.291,384,256,384c27.717,0,49.45-15.272,62.802-28.085l0.125-0.118c9.086-8.533,23.32-8.533,32.406,0
	l0.104,0.099c11.494,10.992,29.562,24.211,52.295,27.509L448,270.45c-0.004-0.387-0.12-1.324-0.616-2.676
	c-0.349-0.248-1.063-0.66-2.202-1.041l-0.837-0.307l-186.461-74.194c-1.244-0.312-2.532-0.312-3.775,0L67.262,266.691l-0.586,0.183
	c-1.026,0.32-1.702,0.72-2.028,0.958c-0.699,1.781-0.675,2.344-0.489,2.954l43.979,112.618
	c22.746-3.298,40.806-16.497,52.288-27.471l0.098-0.093C165.066,351.572,170.896,349.438,176.725,349.438z M447.996,270.585
	L447.996,270.585L447.996,270.585z M64.449,267.996L64.449,267.996L64.449,267.996z"/>
<path d="M416,473.14c-0.001-2.5-1.366-4.801-3.56-6c-27.08-14.55-51.77-36.82-62.63-48c-3.328-3.49-8.667-4.124-12.72-1.51
	c-50.33,32.42-111.61,32.44-161.95,0.05c-4.09-2.641-9.483-1.985-12.82,1.56c-10.77,11.28-35.19,33.3-62.43,47.75
	c-2.197,1.113-3.667,3.278-3.89,5.73c-0.293,3.705,2.474,6.946,6.179,7.239c0.582,0.046,1.167,0.016,1.741-0.089
	c20.85-4.18,41-13.68,60.2-23.83c2.499-1.316,5.481-1.338,8-0.06C224.861,482.816,287.253,482.823,340,456
	c2.547-1.291,5.562-1.269,8.09,0.06c19.1,10,39.22,19.59,60,23.8c3.649,0.68,7.157-1.727,7.837-5.376
	c0.082-0.44,0.12-0.887,0.113-1.334L416,473.14z"/>
<path d="M320,112c-8.837,0-16-7.164-16-16V72c-0.013-4.378-3.622-7.987-8.047-8H216c-4.377,0.013-7.987,3.623-8,8.046V96
	c0,8.836-7.164,16-16,16s-16-7.164-16-16V72c0.064-22.013,17.987-39.936,39.954-40H296c22.014,0.064,39.937,17.987,40,39.954V96
	C336,104.836,328.837,112,320,112z"/>
<path d="M96,252c-8.836,0-16-7.164-16-16v-92c0.102-35.208,28.791-63.897,63.954-64H368c35.208,0.103,63.897,28.792,64,63.954V233
	c0,8.836-7.163,16-16,16s-16-7.164-16-16v-89c-0.052-17.573-14.428-31.949-32.047-32H144c-17.573,0.051-31.949,14.427-32,32.046V236
	C112,244.836,104.836,252,96,252z"/>
<path d="M256,412.45c-8.836,0-16-7.163-16-16V183.6c0-8.836,7.164-16,16-16c8.837,0,16,7.164,16,16v212.85
	C272,405.287,264.837,412.45,256,412.45z"/>
</svg>
