<?xml version="1.0" encoding="iso-8859-1"?>
<!-- Generator: Adobe Illustrator 24.3.0, SVG Export Plug-In . SVG Version: 6.00 Build 0)  -->
<svg version="1.1" id="Layer_1" xmlns="http://www.w3.org/2000/svg" xmlns:xlink="http://www.w3.org/1999/xlink" x="0px" y="0px"
	 viewBox="0 0 512 512" style="enable-background:new 0 0 512 512;" xml:space="preserve">
<circle cx="256" cy="56" r="56"/>
<path d="M437,128H75c-14.912,0-27,12.088-27,27s12.088,27,27,27h101.88c6.91,0,15,3.09,19.58,15c5.35,13.83,2.73,40.54-0.57,61.23
	l-4.32,24.45c0.016,0.129-0.028,0.258-0.12,0.35l-34.6,196.81c-2.612,14.873,7.288,29.061,22.15,31.74
	c14.716,2.603,28.756-7.217,31.359-21.933c0.021-0.119,0.041-0.238,0.061-0.357l23.91-136.8c0,0,7.67-32.49,21.67-32.49
	c14.23,0,21.74,32.49,21.74,32.49l23.91,136.92c2.407,14.85,16.397,24.938,31.247,22.531c14.85-2.407,24.938-16.397,22.531-31.247
	c-0.048-0.296-0.101-0.59-0.158-0.884L320.66,283c0.015-0.127-0.025-0.254-0.11-0.35l-4.33-24.45c-3.3-20.69-5.92-47.4-0.57-61.23
	c4.56-11.88,12.91-15,19.28-15H437c14.912,0,27-12.088,27-27s-12.088-27-27-27V128z"/>
</svg>
