<?xml version="1.0" encoding="iso-8859-1"?>
<!-- Generator: Adobe Illustrator 24.3.0, SVG Export Plug-In . SVG Version: 6.00 Build 0)  -->
<svg version="1.1" id="Layer_1" xmlns="http://www.w3.org/2000/svg" xmlns:xlink="http://www.w3.org/1999/xlink" x="0px" y="0px"
	 viewBox="0 0 512 512" style="enable-background:new 0 0 512 512;" xml:space="preserve">
<path d="M256,112c-30.878,0-56-25.122-56-56s25.122-56,56-56c30.879,0,56,25.122,56,56S286.879,112,256,112z M256,32
	c-13.234,0-24,10.766-24,24s10.766,24,24,24c13.233,0,24-10.766,24-24S269.233,32,256,32z"/>
<path d="M192.646,511.997c-2.213,0-4.44-0.185-6.666-0.559l-0.985-0.177c-21.383-4.101-35.64-24.696-31.854-46.215l30.386-172.122
	l4.886-29.609c3.041-18.983,3.228-43.951,0.372-51.303c-1.273-3.309-5.207-3.993-8.286-3.993H88c-22.056,0-40-17.944-40-40
	s17.944-40,40-40h336c22.056,0,40,17.944,40,40s-17.944,40-40,40h-92.4c-2.521,0-6.946,0.512-8.266,3.944
	c-2.875,7.402-2.688,32.37,0.365,51.425l4.872,29.536l30.386,172.113c3.859,21.644-10.628,42.419-32.299,46.283
	c-2.359,0.421-4.711,0.624-7.029,0.624c-18.966,0.002-35.835-13.604-39.28-32.915l-21.009-119.95l2.34-0.41l-2.395,0.183
	c-0.671-4.277-1.881-9.033-3.198-12.955c-1.343,3.952-2.587,8.75-3.292,13.073l-0.165-0.014l0.129,0.023l-21.048,120.178
	c-1.866,10.488-7.687,19.594-16.395,25.673C208.567,509.542,200.708,511.997,192.646,511.997z M191.092,479.847l0.11,0.02
	c2.756,0.49,4.815-0.59,5.8-1.276s2.709-2.251,3.199-5.005l0.038-0.227l21-119.899l0.031,0.003
	c2.301-14.047,10.054-45.542,33.229-45.542h3.1c23.432,0,31.029,31.566,33.247,45.641l0.013-0.002l21,119.9
	c0.493,2.762,2.255,4.357,3.26,5.059c1.005,0.7,3.115,1.8,5.92,1.301c4.302-0.768,7.177-4.89,6.409-9.19l-30.436-172.404
	l-4.899-29.699c-2.045-12.766-5.762-49.731,1.373-68.098c5.782-15.036,20.395-24.407,38.113-24.407H424c4.411,0,8-3.589,8-8
	s-3.589-8-8-8H88c-4.411,0-8,3.589-8,8s3.589,8,8,8h92.5c17.72,0,32.332,9.371,38.134,24.457
	c7.114,18.317,3.398,55.282,1.365,67.975l-4.942,29.949l-30.4,172.2C183.897,474.917,186.78,479.056,191.092,479.847z"/>
</svg>
