<?xml version="1.0" encoding="iso-8859-1"?>
<!-- Generator: Adobe Illustrator 24.3.0, SVG Export Plug-In . SVG Version: 6.00 Build 0)  -->
<svg version="1.1" id="Layer_1" xmlns="http://www.w3.org/2000/svg" xmlns:xlink="http://www.w3.org/1999/xlink" x="0px" y="0px"
	 viewBox="0 0 512 512" style="enable-background:new 0 0 512 512;" xml:space="preserve">
<path d="M273.38,368.37c-0.81-9.23-8.86-16.44-18.55-16.44c-8.584-0.063-16.099,5.747-18.2,14.07l-18.2,88.36
	c-0.602,2.581-0.914,5.22-0.93,7.87c0,19.93,16.68,33.77,37.33,33.77s37.34-13.84,37.34-33.77c-0.011-3.193-0.445-6.371-1.29-9.45
	L273.38,368.37z"/>
<path d="M411.05,407.89c-1.854-1.622-3.845-3.081-5.95-4.36L335.57,355c-6.77-4.24-14-4.13-19.25,1
	c-4.727,4.497-5.568,11.728-2,17.19l52.5,69c1.204,1.669,2.542,3.238,4,4.69c9.1,10.16,29.28,10.72,40.37,0
	C422.13,435.92,422,416.49,411.05,407.89z"/>
<path d="M463.3,335.93h-70.42c-4.55,0-8.88,3.35-8.88,8.15s2.95,7.85,6.92,9.16l66.43,20.55C467,376,480,367.44,480,356.71
	C480,343.08,472.4,335.93,463.3,335.93z"/>
<path d="M128.22,344.08c0-4.95-4.55-8.15-9.45-8.15H48.35c-8.87,0-16.35,9.58-16.35,20.31S44.62,376,54.3,373.79l67.43-20.55
	C126.12,351.93,128.22,349,128.22,344.08z"/>
<path d="M176.55,355.05L107,403.41c-2.16,1.212-4.173,2.668-6,4.34c-10.648,9.903-11.252,26.564-1.348,37.212
	c0.433,0.466,0.883,0.915,1.348,1.348c11.331,10.688,29.029,10.688,40.36,0c1.487-1.422,2.827-2.99,4-4.68L197.9,373
	c3.5-5.57,2.92-12.48-2-17C190.547,351.002,182.367,350.6,176.55,355.05z"/>
<path d="M293.46,242.39c10-5.42,19.45-10.54,28.31-16.16c42.46-26.92,62.23-59,62.23-101c0-64.66-56.07-104.4-108.82-109
	c-6.49-0.57-15-0.42-19.91,3.88s-5.88,12.56-6.15,19.1c-1.38,33.61-28.38,59-57,85.86c-28,26.3-56.93,53.49-62.71,91
	C121,270.75,151.15,302.78,169.87,317c5.548,4.222,12.328,6.509,19.3,6.51c2.495-0.003,4.982-0.295,7.41-0.87
	c9.274-2.174,17.081-8.396,21.27-16.95C232.76,275.3,263.62,258.57,293.46,242.39z"/>
<path d="M139.82,156.57c12.22-15.76,27-29.68,41.37-43.15c19.92-18.72,37.81-35.58,46.5-53.86c-12.24-7.37-27.36-11.36-46.51-11.36
	c-17.79,0-20.39,5.18-20.39,19.06c0,12.56-6.53,20.54-14.34,30.65C137.8,109.1,128,121.77,128,140.84c0,10.23,1.29,18.77,4.2,26.37
	C134.533,163.663,137.073,160.117,139.82,156.57z"/>
<path d="M330.34,239.74c-9.33,5.92-19,11.16-29.25,16.71c-28.91,15.68-56.21,30.48-68.88,56.28c-0.64,1.32-1.25,2.5-1.88,3.61
	c-2.164,3.852-0.796,8.729,3.056,10.893c0.27,0.152,0.548,0.287,0.834,0.407c12.31,5.1,25.13,8.27,38.91,8.27
	c29.182,0.193,57.274-11.071,78.24-31.37c21.001-20.374,32.785-48.431,32.63-77.69c-0.007-5.029-0.452-10.048-1.33-15
	c-0.763-4.352-4.909-7.262-9.261-6.499c-1.748,0.306-3.345,1.186-4.539,2.499C358.69,219.32,345.94,229.85,330.34,239.74z"/>
</svg>
