<?xml version="1.0" encoding="iso-8859-1"?>
<!-- Generator: Adobe Illustrator 24.3.0, SVG Export Plug-In . SVG Version: 6.00 Build 0)  -->
<svg version="1.1" id="Layer_1" xmlns="http://www.w3.org/2000/svg" xmlns:xlink="http://www.w3.org/1999/xlink" x="0px" y="0px"
	 viewBox="0 0 512 512" style="enable-background:new 0 0 512 512;" xml:space="preserve">
<path d="M199.89,336l-15.25-5.62c-12.089-5.5-22.966-13.345-32-23.08c-13.93-14.9-29.29-40.71-23.38-79.11
	c5.2-33.73,44.2-74.21,69.34-97.87c27.24-25.62,66-65.85,64.15-99.15L262,16h15.18C328.53,16,384,53.62,384,114.41
	c0,45.57-22,77.61-68.91,106.9c-8,5-16.44,9.66-25.42,14.53c-30.63,16.62-75.29,49.83-85.73,85.32L199.89,336z"/>
<path d="M181.19,113.59C201,95,218.91,78.15,227.62,59.79c-1.84-1.12-3.74-2.15-5.7-3.09c-11.87-5.69-26.1-8.34-44.76-8.34h-0.42
	h-16.52l0.56,16.49c0.47,14.06-6.06,22.51-14.33,33.21C137.8,109.26,128,121.94,128,141c0,10.23,1.29,18.76,4.2,26.36
	c2.333-3.54,4.87-7.083,7.61-10.63C152,141,166.86,127.05,181.19,113.59z"/>
<path d="M330.34,239.85c-9.31,5.9-19,11.14-29.25,16.71C268.44,274.25,237.61,291,227.86,324l-0.6,2
	c14.397,6.58,30.04,9.991,45.87,10c29.66,0,57.45-11.13,78.24-31.36c20.995-20.357,32.779-48.396,32.63-77.64
	c-0.075-10.577-1.966-21.063-5.59-31C367.06,212.18,351.27,226.58,330.34,239.85z"/>
<path d="M268.72,360h-25.44c-1.907,0.002-3.548,1.349-3.92,3.22l-25.36,128c-0.431,2.167,0.976,4.272,3.143,4.703
	c0.256,0.051,0.516,0.077,0.777,0.077h76.26c2.209-0.002,3.999-1.794,3.997-4.003c0-0.261-0.026-0.521-0.077-0.777l-25.41-128
	C272.315,361.331,270.646,359.978,268.72,360z"/>
<path d="M325.68,354.32l-11.36,11.36c-1.35,1.349-1.559,3.463-0.5,5.05l59.47,89.21c1.224,1.839,3.707,2.337,5.546,1.113
	c0.221-0.147,0.426-0.315,0.614-0.503l41.1-41.1c1.563-1.561,1.565-4.094,0.004-5.657c-0.187-0.188-0.393-0.356-0.614-0.503
	l-89.21-59.47C329.143,352.761,327.029,352.97,325.68,354.32z"/>
<path d="M388,336c-2.209,0-4,1.791-4,4v8.61c-0.002,1.956,1.411,3.627,3.34,3.95l88,14.66c2.179,0.365,4.241-1.106,4.605-3.285
	c0.036-0.216,0.055-0.435,0.055-0.655V340c0-2.209-1.791-4-4-4H388z"/>
<path d="M186.32,354.32l11.36,11.36c1.35,1.349,1.559,3.463,0.5,5.05l-59.47,89.21c-1.224,1.839-3.707,2.337-5.546,1.113
	c-0.221-0.147-0.426-0.315-0.614-0.503l-41.1-41.1c-1.563-1.561-1.565-4.094-0.004-5.657c0.187-0.188,0.393-0.356,0.614-0.503
	l89.21-59.47C182.857,352.761,184.971,352.97,186.32,354.32z"/>
<path d="M124,336H36c-2.209,0-4,1.791-4,4v23.28c0.003,2.209,1.796,3.998,4.005,3.995c0.219,0,0.438-0.019,0.655-0.055l88-14.66
	c1.929-0.323,3.342-1.994,3.34-3.95V340C128,337.791,126.209,336,124,336z"/>
</svg>
