<?xml version="1.0" encoding="iso-8859-1"?>
<!-- Generator: Adobe Illustrator 24.3.0, SVG Export Plug-In . SVG Version: 6.00 Build 0)  -->
<svg version="1.1" id="Layer_1" xmlns="http://www.w3.org/2000/svg" xmlns:xlink="http://www.w3.org/1999/xlink" x="0px" y="0px"
	 viewBox="0 0 512 512" style="enable-background:new 0 0 512 512;" xml:space="preserve">
<path d="M273.38,368.33c-0.81-9.23-8.86-16.44-18.55-16.44c-8.595-0.058-16.115,5.771-18.2,14.11l0,0l-18.2,88.38
	c-0.601,2.584-0.913,5.227-0.93,7.88c0,19.93,16.68,33.78,37.33,33.78s37.34-13.85,37.34-33.78c-0.011-3.193-0.445-6.371-1.29-9.45
	L273.38,368.33z"/>
<path d="M411.05,407.86c-1.851-1.622-3.842-3.078-5.95-4.35l-69.53-48.59c-6.77-4.25-14-4.13-19.25,1c-4.729,4.5-5.57,11.735-2,17.2
	l52.5,69c1.199,1.673,2.537,3.242,4,4.69c9.1,10.17,29.28,10.73,40.37,0C422.13,435.9,422,416.46,411.05,407.86z"/>
<path d="M463.3,335.88h-70.42c-4.55,0-8.88,3.35-8.88,8.16s2.95,7.85,6.92,9.16l66.43,20.55C467,376,480,367.4,480,356.66
	C480,343,472.4,335.88,463.3,335.88z"/>
<path d="M128.22,344c0-5-4.55-8.16-9.45-8.16H48.35c-8.87,0-16.35,9.58-16.35,20.32S44.62,376,54.3,373.75l67.43-20.55
	C126.12,351.89,128.22,349,128.22,344z"/>
<path d="M176.55,355L107,403.38c-2.16,1.215-4.173,2.675-6,4.35c-10.648,9.903-11.252,26.564-1.348,37.212
	c0.433,0.466,0.883,0.915,1.348,1.348c11.327,10.698,29.033,10.698,40.36,0c1.487-1.422,2.827-2.99,4-4.68L197.9,373
	c3.5-5.58,2.92-12.49-2-17.06C190.544,350.945,182.365,350.548,176.55,355z"/>
<path d="M189.128,323.455c-6.933,0-13.644-2.249-19.26-6.517c-18.721-14.215-48.877-46.239-40.441-100.956
	c5.786-37.501,34.723-64.696,62.708-90.996c28.576-26.855,55.568-52.222,56.986-85.827c0.014-0.418,0.04-0.836,0.077-1.253
	c1.148-13.175,12.831-22.971,25.992-21.815C327.935,20.664,384,60.42,384,125.09c0,42.017-19.773,74.13-62.229,101.061
	c-8.861,5.622-18.308,10.744-28.308,16.167c-29.846,16.184-60.708,32.918-75.619,63.311c-0.923,1.864-1.999,3.6-3.222,5.208
	c-5.16,6.79-12.658,11.166-21.111,12.319C192.046,323.356,190.582,323.455,189.128,323.455z M203.48,298.581h0.01H203.48z
	 M280.361,49.004c-5.499,42.147-37.695,72.407-66.312,99.301c-25.143,23.629-48.891,45.947-52.996,72.555
	c-5.607,36.367,12.183,58.437,28.12,70.557c19.424-39.483,56.405-59.535,89.036-77.23c9.505-5.154,18.483-10.023,26.421-15.058
	C346.372,172.65,352,146.843,352,125.09C352,82.604,316.418,55.254,280.361,49.004z"/>
<path d="M161.154,196.01c-3.735,0-7.485-1.3-10.519-3.949C134.346,177.834,128,163.442,128,140.73c0-19.07,9.8-31.75,18.446-42.937
	c7.817-10.115,13.991-18.104,14.34-30.656l0.057-0.982c0.95-10.608,9.966-18.467,20.531-18.076
	c35.784,0.826,57.503,12.745,72.601,39.833c4.303,7.718,1.533,17.463-6.186,21.765c-7.717,4.302-17.463,1.533-21.765-6.186
	c-7.848-14.079-17.51-20.656-34.792-22.717c-3.497,15.924-12.194,27.178-19.466,36.587C164.251,127.083,160,132.963,160,140.73
	c0,14.451,3.062,19.697,11.686,27.229c6.655,5.813,7.338,15.921,1.525,22.576C170.047,194.157,165.612,196.01,161.154,196.01z"/>
<path d="M273.054,335.86c-28.441,0.001-55.459-10.796-76.08-30.406c-6.403-6.089-6.658-16.217-0.568-22.62s16.217-6.658,22.62-0.567
	c14.644,13.926,33.834,21.594,54.041,21.594c0.021,0,0.04,0,0.061,0c44.233,0,78.873-33.866,78.873-77.1
	c0-12.232-4.091-24.494-13.264-39.758c-4.552-7.574-2.102-17.404,5.473-21.956s17.404-2.1,21.955,5.473
	C373.821,183.26,384,202.952,384,226.76c0,29.634-11.586,57.231-32.623,77.71c-20.795,20.242-48.58,31.39-78.237,31.39
	C273.112,335.86,273.081,335.86,273.054,335.86z"/>
</svg>
