<?xml version="1.0" encoding="iso-8859-1"?>
<!-- Generator: Adobe Illustrator 24.3.0, SVG Export Plug-In . SVG Version: 6.00 Build 0)  -->
<svg version="1.1" id="Layer_1" xmlns="http://www.w3.org/2000/svg" xmlns:xlink="http://www.w3.org/1999/xlink" x="0px" y="0px"
	 viewBox="0 0 512 512" style="enable-background:new 0 0 512 512;" xml:space="preserve">
<path d="M400.003,480c-3.847,0-7.646-1.386-10.633-4.041L256,357.408L122.63,475.959c-4.709,4.187-11.437,5.22-17.185,2.637
	C99.698,476.015,96,470.301,96,464V96c0-35.29,28.71-64,64-64h192c35.29,0,64,28.71,64,64v368c0,6.301-3.698,12.015-9.445,14.596
	C404.453,479.539,402.22,480,400.003,480z M256,320c3.8,0,7.599,1.347,10.63,4.041L384,428.371V96c0-17.645-14.355-32-32-32H160
	c-17.645,0-32,14.355-32,32v332.371l117.37-104.329C248.401,321.347,252.201,320,256,320z"/>
</svg>
