<?xml version="1.0" encoding="iso-8859-1"?>
<!-- Generator: Adobe Illustrator 24.3.0, SVG Export Plug-In . SVG Version: 6.00 Build 0)  -->
<svg version="1.1" id="Layer_1" xmlns="http://www.w3.org/2000/svg" xmlns:xlink="http://www.w3.org/1999/xlink" x="0px" y="0px"
	 viewBox="0 0 512 512" style="enable-background:new 0 0 512 512;" xml:space="preserve">
<path d="M448.003,448c-3.568,0-7.105-1.191-9.998-3.506l-80-64l19.99-24.988L432,398.71V64c-0.051-17.573-14.428-31.949-32.047-32
	H176c-17.573,0.051-31.949,14.427-32,32.046V80h-32V64c0.102-35.208,28.791-63.897,63.954-64H400
	c35.208,0.103,63.897,28.792,64,63.953V432c0,6.15-3.525,11.757-9.069,14.421C452.727,447.481,450.357,448,448.003,448z"/>
<path d="M368.003,512c-3.703,0-7.367-1.284-10.31-3.762L216,388.918L74.306,508.239c-4.76,4.01-11.414,4.894-17.055,2.269
	C51.608,507.882,48,502.224,48,496V144c0.102-35.208,28.791-63.897,63.954-64H320c0.016,0,0.031,0,0.047,0
	c35.161,0.103,63.851,28.792,63.953,63.953V496c0,6.224-3.608,11.882-9.251,14.507C372.594,511.51,370.291,512,368.003,512z
	 M112,112c-17.573,0.051-31.949,14.427-32,32.046v317.562l125.694-105.847c5.955-5.016,14.657-5.016,20.612,0L352,461.609V144
	c-0.051-17.566-14.416-31.938-32.026-32H112z"/>
</svg>
