<?xml version="1.0" encoding="iso-8859-1"?>
<!-- Generator: Adobe Illustrator 24.3.0, SVG Export Plug-In . SVG Version: 6.00 Build 0)  -->
<svg version="1.1" id="Layer_1" xmlns="http://www.w3.org/2000/svg" xmlns:xlink="http://www.w3.org/1999/xlink" x="0px" y="0px"
	 viewBox="0 0 512 512" style="enable-background:new 0 0 512 512;" xml:space="preserve">
<path d="M256,464c-0.001,0-0.002,0-0.003,0c-4.862-0.001-9.46-2.213-12.495-6.011C202.77,407.026,125.468,400,48,400
	c-18.243,0-32-14.587-32-33.931V80c-0.032-8.471,3.26-16.504,9.27-22.56c6.01-6.056,14.019-9.408,22.55-9.44H48
	c67.686,0.304,118.113,8.841,154.236,26.1c23.711,11.329,41.519,26.353,53.764,45.476c12.245-19.123,30.053-34.147,53.764-45.476
	c36.123-17.259,86.551-25.796,154.164-26.1c0.041,0,0.082,0,0.123,0c17.567,0,31.883,14.249,31.949,31.819V368
	c0,17.645-14.355,32-32,32c-131.049,0-171.411,27.873-195.506,57.994C265.458,461.79,260.86,464,256,464z M48.298,368
	c105.164,0.031,167.376,16.515,207.706,56.145C296.396,384.481,358.687,368,464,368V79.985
	c-151.927,0.702-182.683,45.229-192.49,83.944C269.712,171.028,263.323,176,256,176s-13.712-4.972-15.51-12.071
	C221.822,90.239,127.818,80.363,47.985,80L48,366.07C48,366.978,48.156,367.622,48.298,368z M47.833,367.992
	C47.833,367.992,47.833,367.992,47.833,367.992L47.833,367.992z"/>
<path d="M256,464c-8.836,0-16-7.163-16-16V160c0-8.836,7.164-16,16-16c8.837,0,16,7.164,16,16v288C272,456.837,264.837,464,256,464z
	"/>
</svg>
