<?xml version="1.0" encoding="iso-8859-1"?>
<!-- Generator: Adobe Illustrator 24.3.0, SVG Export Plug-In . SVG Version: 6.00 Build 0)  -->
<svg version="1.1" id="Layer_1" xmlns="http://www.w3.org/2000/svg" xmlns:xlink="http://www.w3.org/1999/xlink" x="0px" y="0px"
	 viewBox="0 0 512 512" style="enable-background:new 0 0 512 512;" xml:space="preserve">
<path d="M400,0H176c-29.183,0.024-54.667,19.754-62,48h228c40.869,0,74,33.131,74,74v304.89l22,17.6
	c5.604,4.487,13.511,4.691,19.34,0.5c4.252-3.14,6.731-8.135,6.66-13.42V64C464,28.654,435.346,0,400,0z"/>
<path d="M320,80H112c-35.346,0-64,28.654-64,64v351.62c-0.08,5.262,2.376,10.241,6.6,13.38c5.952,4.322,14.084,4.029,19.71-0.71
	L216,388.92l141.69,119.32c5.587,4.707,13.652,5.032,19.6,0.79c4.278-3.132,6.777-8.139,6.71-13.44V144
	C384,108.654,355.346,80,320,80z"/>
</svg>
