<?xml version="1.0" encoding="iso-8859-1"?>
<!-- Generator: Adobe Illustrator 24.3.0, SVG Export Plug-In . SVG Version: 6.00 Build 0)  -->
<svg version="1.1" id="Layer_1" xmlns="http://www.w3.org/2000/svg" xmlns:xlink="http://www.w3.org/1999/xlink" x="0px" y="0px"
	 viewBox="0 0 512 512" style="enable-background:new 0 0 512 512;" xml:space="preserve">
<path d="M202.24,74C166.11,56.75,115.61,48.3,48,48l0,0c-6.376-0.087-12.628,1.773-17.92,5.33C21.259,59.293,15.981,69.252,16,79.9
	V366c0,19.34,13.76,33.93,32,33.93c71.07,0,142.36,6.64,185.06,47c1.646,1.563,4.247,1.496,5.81-0.15
	c0.73-0.769,1.135-1.79,1.13-2.85V106.82c0.004-4.602-1.988-8.979-5.46-12C224.759,86.458,213.894,79.455,202.24,74z"/>
<path d="M481.92,53.3c-5.295-3.548-11.547-5.397-17.92-5.3l0,0c-67.61,0.3-118.11,8.71-154.24,26
	c-11.654,5.445-22.521,12.435-32.31,20.78c-3.464,3.026-5.451,7.401-5.45,12v337.13c-0.001,2.17,1.757,3.931,3.928,3.932
	c1.029,0.001,2.017-0.402,2.752-1.122c25.67-25.5,70.72-46.82,185.36-46.81c17.673,0,32-14.327,32-32v-288
	C496.064,69.241,490.768,59.262,481.92,53.3z"/>
</svg>
