<?xml version="1.0" encoding="iso-8859-1"?>
<!-- Generator: Adobe Illustrator 24.3.0, SVG Export Plug-In . SVG Version: 6.00 Build 0)  -->
<svg version="1.1" id="icons" xmlns="http://www.w3.org/2000/svg" xmlns:xlink="http://www.w3.org/1999/xlink" x="0px" y="0px"
	 viewBox="0 0 512 512" style="enable-background:new 0 0 512 512;" xml:space="preserve">
<path d="M414.39,97.61C327.343,9.704,185.516,9.007,97.61,96.054s-88.603,228.874-1.557,316.78c0.516,0.521,1.035,1.04,1.557,1.557
	c87.047,87.906,228.874,88.603,316.78,1.557s88.603-228.874,1.557-316.78C415.43,98.645,414.911,98.126,414.39,97.61z M288,224
	c-13.255,0-24-10.745-24-24s10.745-24,24-24s24,10.745,24,24S301.255,224,288,224z M296,152c-13.255,0-24-10.745-24-24
	s10.745-24,24-24s24,10.745,24,24S309.255,152,296,152z M360,192c-13.255,0-24-10.745-24-24s10.745-24,24-24s24,10.745,24,24
	S373.255,192,360,192z"/>
</svg>
