<?xml version="1.0" encoding="iso-8859-1"?>
<!-- Generator: Adobe Illustrator 24.3.0, SVG Export Plug-In . SVG Version: 6.00 Build 0)  -->
<svg version="1.1" id="Layer_1" xmlns="http://www.w3.org/2000/svg" xmlns:xlink="http://www.w3.org/1999/xlink" x="0px" y="0px"
	 viewBox="0 0 512 512" style="enable-background:new 0 0 512 512;" xml:space="preserve">
<path d="M432,464H80c-35.29,0-64-28.71-64-64V176c0-35.29,28.71-64,64-64h352c35.29,0,64,28.71,64,64V400
	C496,435.29,467.29,464,432,464z M80,144c-17.645,0-32,14.355-32,32V400c0,17.645,14.355,32,32,32h352c17.645,0,32-14.355,32-32V176
	c0-17.645-14.355-32-32-32H80z"/>
<path d="M368,144c-8.837,0-16-7.164-16-16V96c0-8.822-7.178-16-16-16H176c-8.822,0-16,7.178-16,16v32c0,8.836-7.164,16-16,16
	s-16-7.164-16-16V96c0-26.467,21.533-48,48-48h160c26.467,0,48,21.533,48,48v32C384,136.836,376.837,144,368,144z"/>
<path d="M480,256H32c-8.836,0-16-7.164-16-16s7.164-16,16-16h448c8.837,0,16,7.164,16,16S488.837,256,480,256z"/>
<path d="M312,288H200c-13.234,0-24-10.767-24-24V240c0-8.836,7.164-16,16-16s16,7.164,16,16V256h96V240c0-8.836,7.163-16,16-16
	s16,7.164,16,16V264C336,277.234,325.233,288,312,288z"/>
</svg>
