<?xml version="1.0" encoding="iso-8859-1"?>
<!-- Generator: Adobe Illustrator 24.3.0, SVG Export Plug-In . SVG Version: 6.00 Build 0)  -->
<svg version="1.1" id="Layer_1" xmlns="http://www.w3.org/2000/svg" xmlns:xlink="http://www.w3.org/1999/xlink" x="0px" y="0px"
	 viewBox="0 0 512 512" style="enable-background:new 0 0 512 512;" xml:space="preserve">
<path style="fill:none;" d="M336,80H176c-8.837,0-16,7.163-16,16v16h192V96C352,87.163,344.837,80,336,80z"/>
<path d="M496,176c-0.039-35.33-28.67-63.961-64-64h-48V96c-0.028-26.498-21.502-47.972-48-48H176c-26.498,0.028-47.972,21.502-48,48
	v16H80c-35.33,0.039-63.961,28.67-64,64v48h480V176z M352,112H160V96c0-8.837,7.163-16,16-16h160c8.837,0,16,7.163,16,16V112z"/>
<path d="M336,264c0,13.255-10.745,24-24,24H200c-13.255,0-24-10.745-24-24v-4c0-2.209-1.791-4-4-4H16v144c0,35.346,28.654,64,64,64
	h352c35.346,0,64-28.654,64-64V256H340c-2.209,0-4,1.791-4,4V264z"/>
</svg>
