<?xml version="1.0" encoding="iso-8859-1"?>
<!-- Generator: Adobe Illustrator 24.3.0, SVG Export Plug-In . SVG Version: 6.00 Build 0)  -->
<svg version="1.1" id="Layer_1" xmlns="http://www.w3.org/2000/svg" xmlns:xlink="http://www.w3.org/1999/xlink" x="0px" y="0px"
	 viewBox="0 0 512 512" style="enable-background:new 0 0 512 512;" xml:space="preserve">
<path d="M336,288H176v-32H16v196c0,6.627,5.373,12,12,12h456c6.627,0,12-5.373,12-12V256H336V288z"/>
<path d="M496,124c0-6.627-5.373-12-12-12H384V56c0-4.418-3.582-8-8-8H136c-4.418,0-8,3.582-8,8v56H28c-6.627,0-12,5.373-12,12v100
	h480V124z M344,112H168V88h176V112z"/>
</svg>
