<?xml version="1.0" encoding="iso-8859-1"?>
<!-- Generator: Adobe Illustrator 24.3.0, SVG Export Plug-In . SVG Version: 6.00 Build 0)  -->
<svg version="1.1" id="Layer_1" xmlns="http://www.w3.org/2000/svg" xmlns:xlink="http://www.w3.org/1999/xlink" x="0px" y="0px"
	 viewBox="0 0 512 512" style="enable-background:new 0 0 512 512;" xml:space="preserve">
<path d="M32,64v384c0,8.837,7.163,16,16,16h416c8.837,0,16-7.163,16-16V64c0-8.837-7.163-16-16-16H48C39.163,48,32,55.163,32,64z
	 M440,428H72c-2.209,0-4-1.791-4-4V152c0-2.209,1.791-4,4-4h368c2.209,0,4,1.791,4,4v272C444,426.209,442.209,428,440,428z"/>
</svg>
