<?xml version="1.0" encoding="iso-8859-1"?>
<!-- Generator: Adobe Illustrator 24.3.0, SVG Export Plug-In . SVG Version: 6.00 Build 0)  -->
<svg version="1.1" id="Layer_1" xmlns="http://www.w3.org/2000/svg" xmlns:xlink="http://www.w3.org/1999/xlink" x="0px" y="0px"
	 viewBox="0 0 512 512" style="enable-background:new 0 0 512 512;" xml:space="preserve">
<path d="M416,48H96c-35.346,0-64,28.654-64,64v288c0,35.346,28.654,64,64,64h320c35.346,0,64-28.654,64-64V112
	C480,76.654,451.346,48,416,48z M440,144H72c-4.418,0-8-3.582-8-8v-24c0.049-17.653,14.347-31.951,32-32h320
	c17.653,0.049,31.951,14.347,32,32v24C448,140.418,444.418,144,440,144z"/>
</svg>
