<?xml version="1.0" encoding="iso-8859-1"?>
<!-- Generator: Adobe Illustrator 24.3.0, SVG Export Plug-In . SVG Version: 6.00 Build 0)  -->
<svg version="1.1" id="Layer_1" xmlns="http://www.w3.org/2000/svg" xmlns:xlink="http://www.w3.org/1999/xlink" x="0px" y="0px"
	 viewBox="0 0 512 512" style="enable-background:new 0 0 512 512;" xml:space="preserve">
<path d="M233.15,360.11c-1.671,0.007-3.331-0.253-4.92-0.77c-5.829-1.886-10.069-6.934-10.92-13c-2.15-15-19.95-32.46-36.62-35.85
	c-8.653-1.79-14.218-10.255-12.428-18.909c0.571-2.76,1.86-5.32,3.738-7.421l211.09-235.1c0.19-0.22,0.39-0.43,0.59-0.63
	c22.079-22.017,57.811-22.017,79.89,0l0,0c22.008,22.022,22.057,57.697,0.11,79.78l-219,227
	C241.662,358.343,237.5,360.112,233.15,360.11z"/>
<path d="M119.89,480.11c-32.14,0-65.45-16.89-84.85-43c-5.269-7.094-3.789-17.116,3.305-22.385c2.76-2.05,6.107-3.156,9.545-3.155
	c5.34,0,20-4.87,20-20.57c0-39.07,31.4-70.86,70-70.86s70,31.79,70,70.86C207.89,440.12,168.41,480.11,119.89,480.11z"/>
</svg>
