<?xml version="1.0" encoding="iso-8859-1"?>
<!-- Generator: Adobe Illustrator 24.3.0, SVG Export Plug-In . SVG Version: 6.00 Build 0)  -->
<svg version="1.1" id="Layer_1" xmlns="http://www.w3.org/2000/svg" xmlns:xlink="http://www.w3.org/1999/xlink" x="0px" y="0px"
	 viewBox="0 0 512 512" style="enable-background:new 0 0 512 512;" xml:space="preserve">
<path d="M233.258,360c-1.646,0.001-3.305-0.254-4.921-0.776c-5.815-1.881-10.052-6.91-10.916-12.96
	c-2.148-15.03-19.941-32.451-36.614-35.847c-5.621-1.145-10.2-5.211-12-10.658s-0.545-11.44,3.288-15.709l211.11-235.11
	c0.191-0.213,0.389-0.421,0.592-0.624c22.022-22.022,57.86-22.024,79.887,0c0,0,0,0.001,0.001,0.001
	c21.986,21.988,22.022,57.741,0.111,79.775L244.774,355.11C241.71,358.286,237.532,360,233.258,360z M210.993,288.626
	c11.062,6.737,20.769,16.127,27.685,26.714l202.178-209.559c0.066-0.069,0.133-0.137,0.201-0.205
	c9.548-9.548,9.548-25.085-0.001-34.633l0.001,0.001c-9.461-9.459-24.797-9.547-34.364-0.265L210.993,288.626z"/>
<path d="M120,480c-32.138,0-65.442-16.892-84.848-43.034c-3.604-4.854-4.163-11.326-1.445-16.727
	c2.717-5.401,8.247-8.81,14.293-8.81c13.961,0,20-13.622,20-20.57C68,351.788,99.402,320,138,320s70,31.787,70,70.859
	C208,440.012,168.523,480,120,480z M77.359,433.907C89.897,442.78,105.138,448,120,448c30.878,0,56-25.633,56-57.141
	C176,369.433,158.953,352,138,352s-38,17.433-38,38.859c0,15.425-6.344,29.406-17.864,39.368
	C80.619,431.54,79.021,432.769,77.359,433.907z"/>
</svg>
