<?xml version="1.0" encoding="iso-8859-1"?>
<!-- Generator: Adobe Illustrator 24.3.0, SVG Export Plug-In . SVG Version: 6.00 Build 0)  -->
<svg version="1.1" id="Layer_1" xmlns="http://www.w3.org/2000/svg" xmlns:xlink="http://www.w3.org/1999/xlink" x="0px" y="0px"
	 viewBox="0 0 512 512" style="enable-background:new 0 0 512 512;" xml:space="preserve">
<path d="M416,480c-8.837,0-16-7.163-16-16c0-34.42-14.094-52.419-40.102-73.592c-6.853-5.579-7.886-15.657-2.307-22.51
	c5.578-6.854,15.656-7.885,22.51-2.307C411.253,390.954,432,417.394,432,464C432,472.837,424.837,480,416,480z"/>
<path d="M96,480c-8.836,0-16-7.163-16-16c0-46.607,20.747-73.048,51.898-98.408c6.853-5.578,16.93-4.547,22.51,2.307
	c5.579,6.853,4.546,16.931-2.307,22.51C126.094,411.581,112,429.581,112,464C112,472.837,104.836,480,96,480z"/>
<path d="M384.01,224c-4.647,0-9.255-2.014-12.418-5.899c-5.579-6.853-4.546-16.931,2.307-22.509
	C395.963,177.628,400,153.348,400,112c0-8.836,7.163-16,16-16s16,7.164,16,16c0,40.869-2.898,79.914-37.898,108.408
	C391.134,222.824,387.56,224,384.01,224z"/>
<path d="M127.991,222c-3.551,0-7.124-1.176-10.092-3.592C82.898,189.914,80,151.815,80,112c0-8.836,7.164-16,16-16s16,7.164,16,16
	c0,40.884,3.906,63.522,26.102,81.592c6.853,5.579,7.885,15.657,2.307,22.51C137.246,219.986,132.637,222,127.991,222z"/>
<path d="M464,304.13h-80c-8.837,0-16-7.163-16-16s7.163-16,16-16h80c8.837,0,16,7.163,16,16S472.837,304.13,464,304.13z"/>
<path d="M128,304.13H48c-8.836,0-16-7.163-16-16s7.164-16,16-16h80c8.836,0,16,7.163,16,16S136.836,304.13,128,304.13z"/>
<path d="M256,464c-8.836,0-16-7.163-16-16V192c0-8.836,7.164-16,16-16c8.837,0,16,7.164,16,16v256C272,456.837,264.837,464,256,464z
	"/>
<path d="M256,464c-79.402,0-144-64.599-144-144v-96.07c0-36.065,15.412-65.668,44.568-85.608
	c25.247-17.266,59.629-26.392,99.432-26.392c91.514,0,144,40.822,144,112V320C400,399.402,335.402,464,256,464z M256,143.93
	c-32.853,0-61.75,7.389-81.368,20.806C154.306,178.636,144,198.552,144,223.93V320c0,29.774,11.689,57.861,32.914,79.086
	C198.139,420.311,226.225,432,256,432c29.774,0,57.861-11.689,79.086-32.914C356.312,377.862,368,349.775,368,320v-96.07
	c0-27.669-9.934-47.628-30.368-61.017C318.677,150.495,290.448,143.93,256,143.93z"/>
<path d="M179.435,159.524c-6.356,0-12.368-3.813-14.867-10.077c-2.66-6.67-4.19-13.688-4.548-20.859
	c-0.014-0.28-0.021-0.56-0.02-0.84c0.138-52.657,43.09-95.609,95.748-95.748h0.462c52.7,0.139,95.652,43.091,95.79,95.748
	c0.001,0.224-0.004,0.448-0.013,0.671c-0.268,6.811-1.719,13.459-4.312,19.76c-3.363,8.172-12.717,12.07-20.885,8.708
	c-8.172-3.363-12.07-12.713-8.707-20.885c1.12-2.722,1.764-5.588,1.914-8.527c-0.286-34.94-28.845-63.383-63.83-63.475h-0.378
	c-34.917,0.092-63.46,28.488-63.788,63.394c0.218,3.505,0.987,6.934,2.29,10.199c3.273,8.208-0.727,17.516-8.935,20.789
	C183.414,159.157,181.407,159.524,179.435,159.524z"/>
</svg>
