<?xml version="1.0" encoding="iso-8859-1"?>
<!-- Generator: Adobe Illustrator 24.3.0, SVG Export Plug-In . SVG Version: 6.00 Build 0)  -->
<svg version="1.1" id="Layer_1" xmlns="http://www.w3.org/2000/svg" xmlns:xlink="http://www.w3.org/1999/xlink" x="0px" y="0px"
	 viewBox="0 0 512 512" style="enable-background:new 0 0 512 512;" xml:space="preserve">
<path d="M463.55,272.13H400v-48.2c0-2.88-0.09-5.703-0.27-8.47c29.57-27.88,32.25-64.63,32.27-103c0-8.61-6.64-16-15.25-16.41
	c-8.827-0.414-16.318,6.406-16.732,15.232C400.006,111.521,400,111.761,400,112c0,28-1.86,48.15-9.9,63.84
	c-19.22-41.15-65.78-63.91-134.1-63.91c-39.8,0-74.19,9.13-99.43,26.39c-14.9,10.19-26.2,22.91-33.7,37.72
	C114,160.65,112,141,112,112.46c0-8.61-6.6-16-15.2-16.44c-8.826-0.442-16.338,6.354-16.78,15.18c-0.013,0.266-0.02,0.533-0.02,0.8
	c0,37.63,2.61,73.73,32.44,101.63c-0.287,3.373-0.433,6.807-0.44,10.3v48.2H48.45c-8.61,0-16,6.62-16.43,15.23
	c-0.425,8.826,6.385,16.326,15.211,16.751c0.263,0.013,0.526,0.019,0.789,0.019h64V320c-0.015,18.398,3.513,36.626,10.39,53.69
	C96.74,396.64,80.18,422,80,463.34c0,8.74,6.62,16.3,15.36,16.65c8.829,0.353,16.274-6.518,16.627-15.347
	c0.009-0.214,0.013-0.428,0.013-0.643c0-27.66,9.1-44.71,26.17-61.32c19.684,28.019,48.688,48.13,81.83,56.74
	c8.556,2.209,17.283-2.936,19.492-11.492c0.337-1.306,0.508-2.649,0.508-3.998V192.45c0-8.61,6.62-16,15.23-16.43
	c8.826-0.425,16.326,6.385,16.751,15.211c0.012,0.256,0.018,0.512,0.019,0.769v251.93c0.001,8.837,7.165,15.999,16.002,15.998
	c1.349,0,2.692-0.171,3.998-0.508c33.138-8.615,62.136-28.724,81.82-56.74c17,16.54,26.09,33.52,26.17,60.95
	c-0.075,8.586,6.536,15.753,15.1,16.37c8.822,0.503,16.382-6.242,16.884-15.064c0.018-0.312,0.026-0.624,0.026-0.936
	c0-41.68-16.6-67.23-42.39-90.31c6.877-17.064,10.405-35.292,10.39-53.69v-15.87h64c8.837,0.01,16.008-7.145,16.019-15.981
	c0-0.263-0.006-0.526-0.019-0.789C479.58,278.75,472.16,272.13,463.55,272.13z"/>
<path d="M321.39,104l0.32,0.09c13.57,3.8,25.07-10.55,18.2-22.85c-16.907-30.376-48.935-49.218-83.7-49.24h-0.42
	c-35.128,0.024-67.43,19.258-84.19,50.13c-6.84,12.58,5.14,27,18.84,22.86c19.71-6,41.79-9.06,65.56-9.06
	C280.09,95.93,302.09,98.65,321.39,104z"/>
</svg>
