<?xml version="1.0" encoding="iso-8859-1"?>
<!-- Generator: Adobe Illustrator 24.3.0, SVG Export Plug-In . SVG Version: 6.00 Build 0)  -->
<svg version="1.1" id="Layer_1" xmlns="http://www.w3.org/2000/svg" xmlns:xlink="http://www.w3.org/1999/xlink" x="0px" y="0px"
	 viewBox="0 0 512 512" style="enable-background:new 0 0 512 512;" xml:space="preserve">
<path d="M95.993,480.184c-17.734,0.001-35.388-7.287-48.051-21.568c-11.372-12.826-17.067-29.312-16.04-46.422
	c1.026-17.068,8.621-32.719,21.39-44.082l166.473-152.035c4.394-4.083,6.115-10.202,4.492-15.979
	c-14.871-52.898-5.667-100.837,25.252-131.525c35.774-35.516,92.803-46.586,138.684-26.919c2.063,0.876,3.944,2.17,5.54,3.824
	c3.159,3.28,4.847,7.583,4.761,12.125c-0.086,4.458-1.871,8.623-5.034,11.754l-60.094,60.123c-6.195,6.229-6.195,16.41,0.028,22.667
	l26.539,26.539c6.216,6.176,16.379,6.181,22.636-0.013l60.442-60.492c1.299-1.299,2.784-2.37,4.421-3.188
	c4.048-2.028,8.657-2.358,12.965-0.928c4.312,1.433,7.807,4.46,9.84,8.523l0.08,0.161c9.27,19.053,12.037,44.689,7.593,70.336
	c-4.719,27.225-16.972,51.727-34.503,68.994c-30.426,30.031-77.843,39.237-130.087,25.245c-5.677-1.507-11.718,0.236-15.735,4.562
	L143.863,458.738c-1.667,1.871-3.461,3.66-5.334,5.32C126.335,474.87,111.135,480.184,95.993,480.184z M340.008,64.033
	c-6.077,0-12.219,0.563-18.305,1.701c-19.274,3.604-36.442,12.438-49.65,25.551c-31.858,31.619-22.494,80.575-16.99,100.155
	c4.895,17.42-0.316,35.872-13.6,48.157l-0.074,0.068L74.614,391.973c-6.429,5.7-10.254,13.562-10.77,22.141
	c-0.515,8.577,2.34,16.843,8.041,23.272c11.768,13.271,32.141,14.497,45.413,2.729c0.96-0.852,1.879-1.771,2.731-2.731l0.203-0.224
	l153.86-167c12.132-13.066,30.305-18.32,47.478-13.753c19.42,5.201,67.919,13.932,99.369-17.114
	c20.736-20.423,29.231-53.873,26.506-80.276l-42.298,42.333c-18.693,18.575-49.111,18.575-67.805,0l-26.606-26.605
	c-18.629-18.731-18.629-49.157-0.031-67.857l42-42.021C348.533,64.312,344.287,64.033,340.008,64.033z M393.87,190h0.01H393.87z
	 M375.559,71.054c0.025,0.011,0.052,0.022,0.078,0.034C375.61,71.077,375.584,71.065,375.559,71.054z"/>
<circle cx="96" cy="416" r="16"/>
</svg>
