<?xml version="1.0" encoding="iso-8859-1"?>
<!-- Generator: Adobe Illustrator 24.3.0, SVG Export Plug-In . SVG Version: 6.00 Build 0)  -->
<svg version="1.1" id="Layer_1" xmlns="http://www.w3.org/2000/svg" xmlns:xlink="http://www.w3.org/1999/xlink" x="0px" y="0px"
	 viewBox="0 0 512 512" style="enable-background:new 0 0 512 512;" xml:space="preserve">
<path d="M469.54,120.52L469.54,120.52c-4.041-7.859-13.687-10.953-21.546-6.913c-1.474,0.758-2.822,1.741-3.994,2.913L382.56,178
	c-6.276,6.185-16.354,6.185-22.63,0l-26.56-26.6c-6.249-6.248-6.25-16.378-0.003-22.627c0.001-0.001,0.002-0.002,0.003-0.003
	l61.18-61.19c6.249-6.248,6.25-16.379,0.002-22.627c-1.38-1.38-3-2.496-4.782-3.293l0,0C343.56,21,285.88,31.78,249.51,67.88
	c-30.9,30.68-40.11,78.62-25.25,131.53c1.634,5.753-0.102,11.937-4.49,16L53.29,367.46c-26.371,23.677-28.554,64.248-4.877,90.619
	s64.248,28.554,90.619,4.877c1.705-1.531,3.327-3.152,4.858-4.856l153.68-166.85c4.003-4.33,10.073-6.089,15.77-4.57
	c15.063,4.127,30.602,6.269,46.22,6.37c33.4,0,62.71-10.81,83.85-31.64C482.56,222.84,488.53,157.42,469.54,120.52z M99.48,447.15
	c-17.569,1.918-33.366-10.77-35.283-28.339c-1.918-17.569,10.77-33.366,28.339-35.283c17.569-1.918,33.366,10.77,35.283,28.339
	c0.252,2.304,0.252,4.629,0.001,6.933C126.196,433.729,114.409,445.521,99.48,447.15z"/>
</svg>
