<?xml version="1.0" encoding="iso-8859-1"?>
<!-- Generator: Adobe Illustrator 24.3.0, SVG Export Plug-In . SVG Version: 6.00 Build 0)  -->
<svg version="1.1" id="Layer_1" xmlns="http://www.w3.org/2000/svg" xmlns:xlink="http://www.w3.org/1999/xlink" x="0px" y="0px"
	 viewBox="0 0 512 512" style="enable-background:new 0 0 512 512;" xml:space="preserve">
<path d="M288,464h-64c-8.837,0-16,7.163-16,16s7.163,16,16,16h64c8.837,0,16-7.163,16-16S296.837,464,288,464z"/>
<path d="M304,416h-96c-8.837,0-16,7.163-16,16s7.163,16,16,16h96c8.837,0,16-7.163,16-16S312.837,416,304,416z"/>
<path d="M369.42,62.69C339.35,32.58,299.07,16,256,16C167.845,15.79,96.21,87.084,96,175.239c-0.001,0.254-0.001,0.507,0,0.761
	c0,46.62,17.87,90.23,49,119.64l4.36,4.09C167.37,316.57,192,339.64,192,360v24c0,8.837,7.163,16,16,16h24c4.418,0,8-3.582,8-8
	V274.82c0.001-3.312-2.039-6.282-5.13-7.47c-9.239-3.769-18.016-8.584-26.16-14.35c-7.448-4.756-9.63-14.649-4.874-22.096
	c4.756-7.448,14.649-9.63,22.096-4.874c0.469,0.3,0.922,0.623,1.358,0.97c7.4,5.24,21.65,13,28.71,13c7.06,0,21.31-7.78,28.73-13
	c7.481-4.703,17.358-2.451,22.061,5.03c4.317,6.867,2.813,15.878-3.501,20.97c-8.145,5.756-16.922,10.56-26.16,14.32
	c-3.091,1.188-5.131,4.158-5.13,7.47V392c0,4.418,3.582,8,8,8h24c8.837,0,16-7.163,16-16v-24c0-19.88,24.36-42.93,42.15-59.77
	l4.91-4.66C399.08,265,416,223.61,416,176C416.214,133.528,399.443,92.732,369.42,62.69z"/>
</svg>
