<?xml version="1.0" encoding="iso-8859-1"?>
<!-- Generator: Adobe Illustrator 24.3.0, SVG Export Plug-In . SVG Version: 6.00 Build 0)  -->
<svg version="1.1" id="Layer_1" xmlns="http://www.w3.org/2000/svg" xmlns:xlink="http://www.w3.org/1999/xlink" x="0px" y="0px"
	 viewBox="0 0 512 512" style="enable-background:new 0 0 512 512;" xml:space="preserve">
<path d="M304,400c-8.837,0-16-7.163-16-16v-24c0-33.649,30.105-62.146,52.088-82.954c1.67-1.58,3.294-3.117,4.853-4.608
	C370.494,248.009,384,214.662,384,176c0-34.452-13.219-66.661-37.22-90.694C322.754,61.249,290.515,48,256,48
	c-0.121,0-0.246,0-0.367,0c-33.992,0-65.927,13.174-90.009,37.122c-24.167,24.033-37.529,56.039-37.625,90.122v0.698
	c0,37.914,14.209,73.038,38.983,96.424c1.372,1.295,2.796,2.628,4.258,3.997C193.506,297.209,224,325.759,224,360v24
	c0,8.837-7.164,16-16,16s-16-7.163-16-16v-24c0-20.365-24.639-43.435-42.63-60.278c-1.495-1.399-2.951-2.763-4.353-4.087
	C113.866,266.23,96,222.624,96,176v-0.859c0.119-42.617,16.832-82.649,47.061-112.71c30.12-29.952,70.067-46.431,112.526-46.431
	c0.153,0,0.304,0,0.458,0c43.024,0,83.306,16.583,113.377,46.694C399.458,92.769,416,133.008,416,176
	c0,47.611-16.925,88.957-48.943,119.566c-1.595,1.525-3.26,3.101-4.971,4.721C344.325,317.099,320,340.123,320,360v24
	C320,392.837,312.837,400,304,400z"/>
<path d="M288,496h-64c-8.836,0-16-7.163-16-16s7.164-16,16-16h64c8.837,0,16,7.163,16,16S296.837,496,288,496z"/>
<path d="M304,448h-96c-8.836,0-16-7.163-16-16s7.164-16,16-16h96c8.837,0,16,7.163,16,16S312.837,448,304,448z"/>
<path d="M256,400c-8.836,0-16-7.163-16-16V256c0-8.836,7.164-16,16-16c8.837,0,16,7.164,16,16V384C272,392.837,264.837,400,256,400z
	"/>
<path d="M256,272c-9.512,0-20.535-3.334-32.761-9.908c-8.233-4.428-14.142-8.773-14.788-9.254
	c-7.09-5.274-8.562-15.297-3.289-22.387c5.273-7.091,15.296-8.563,22.387-3.289C234.548,232.33,248.453,240,256,240
	c7.547,0,21.452-7.67,28.473-12.854c7.098-5.242,17.115-3.755,22.37,3.336c5.255,7.091,3.788,17.088-3.293,22.356
	C299.248,256.038,276.738,272,256,272z"/>
</svg>
