<?xml version="1.0" encoding="iso-8859-1"?>
<!-- Generator: Adobe Illustrator 24.3.0, SVG Export Plug-In . SVG Version: 6.00 Build 0)  -->
<svg version="1.1" id="Layer_1" xmlns="http://www.w3.org/2000/svg" xmlns:xlink="http://www.w3.org/1999/xlink" x="0px" y="0px"
	 viewBox="0 0 512 512" style="enable-background:new 0 0 512 512;" xml:space="preserve">
<rect x="208" y="464" width="96" height="32"/>
<rect x="192" y="416" width="128" height="32"/>
<path d="M369.42,62.69C339.35,32.58,299.07,16,256,16C167.845,15.79,96.21,87.084,96,175.239c-0.001,0.254-0.001,0.507,0,0.761
	c0,46.62,17.87,90.23,49,119.64l4.36,4.09C167.37,316.57,192,339.64,192,360v40h48V269.11L195.72,244L214,217.72L256,240
	l41.29-22.39l19.1,25.68l-44.39,26V400h48v-40c0-19.88,24.36-42.93,42.15-59.77l4.91-4.66C399.08,265,416,223.61,416,176
	C416.214,133.528,399.443,92.732,369.42,62.69z"/>
</svg>
