<?xml version="1.0" encoding="iso-8859-1"?>
<!-- Generator: Adobe Illustrator 24.3.0, SVG Export Plug-In . SVG Version: 6.00 Build 0)  -->
<svg version="1.1" id="Layer_1" xmlns="http://www.w3.org/2000/svg" xmlns:xlink="http://www.w3.org/1999/xlink" x="0px" y="0px"
	 viewBox="0 0 512 512" style="enable-background:new 0 0 512 512;" xml:space="preserve">
<path d="M400,320H112c-26.467,0-48-21.532-48-48V144c0-26.467,21.533-48,48-48h288c26.468,0,48,21.533,48,48V272
	C448,298.468,426.468,320,400,320z M112,128c-8.822,0-16,7.178-16,16V272c0,8.822,7.178,16,16,16h288c8.822,0,16-7.178,16-16V144
	c0-8.822-7.178-16-16-16H112z"/>
<path d="M400,448H112c-26.467,0-48-21.532-48-48v-64c0-26.468,21.533-48,48-48h288c26.468,0,48,21.532,48,48v64
	C448,426.468,426.468,448,400,448z M112,320c-8.822,0-16,7.178-16,16v64c0,8.822,7.178,16,16,16h288c8.822,0,16-7.178,16-16v-64
	c0-8.822-7.178-16-16-16H112z"/>
<path d="M400,128H112c-26.414-0.074-47.926-21.586-48-47.955C64.074,53.586,85.586,32.074,111.955,32H400
	c26.413,0.074,47.926,21.586,48,47.955c-0.074,26.459-21.587,47.971-47.955,48.045C400.03,128,400.015,128,400,128z M399.955,64H112
	c-8.778,0.024-15.976,7.222-16,16.045c0.024,8.733,7.222,15.931,16.045,15.955h287.927c8.814-0.033,16.004-7.228,16.028-16.045
	C415.976,71.222,408.777,64.024,399.955,64z"/>
<path d="M134,480h-28c-14.336,0-26-11.663-26-26v-22c0-8.837,7.164-16,16-16h48c8.836,0,16,7.163,16,16v22
	C160,468.337,148.336,480,134,480z M112,448h16H112z"/>
<path d="M406,480h-28c-14.337,0-26-11.663-26-26v-22c0-8.837,7.163-16,16-16h48c8.837,0,16,7.163,16,16v22
	C432,468.337,420.337,480,406,480z M384,448h16H384z"/>
<path d="M368,400c-17.645,0-32-14.355-32-32s14.355-32,32-32s32,14.355,32,32S385.645,400,368,400z M368,368
	c-0.014,0-0.021,0.001-0.021,0.001L368,368z"/>
<path d="M144,400c-17.645,0-32-14.355-32-32s14.355-32,32-32s32,14.355,32,32S161.645,400,144,400z M144,368
	c-0.014,0-0.02,0.001-0.02,0.001L144,368z"/>
<path d="M256,320c-8.836,0-16-7.163-16-16V112c0-8.836,7.164-16,16-16c8.837,0,16,7.164,16,16v192C272,312.837,264.837,320,256,320z
	"/>
<path d="M80,384c-8.836,0-16-7.163-16-16V80c0-8.836,7.164-16,16-16s16,7.164,16,16v288C96,376.837,88.836,384,80,384z"/>
<path d="M432,384c-8.837,0-16-7.163-16-16V80c0-8.836,7.163-16,16-16s16,7.164,16,16v288C448,376.837,440.837,384,432,384z"/>
</svg>
