<?xml version="1.0" encoding="iso-8859-1"?>
<!-- Generator: Adobe Illustrator 24.3.0, SVG Export Plug-In . SVG Version: 6.00 Build 0)  -->
<svg version="1.1" id="Layer_1" xmlns="http://www.w3.org/2000/svg" xmlns:xlink="http://www.w3.org/1999/xlink" x="0px" y="0px"
	 viewBox="0 0 512 512" style="enable-background:new 0 0 512 512;" xml:space="preserve">
<path style="fill:none;" d="M400,64H112c-8.837,0-16,7.163-16,16s7.163,16,16,16h288c8.837,0,16-7.163,16-16S408.837,64,400,64z"/>
<path d="M424,32H88c-13.255,0-24,10.745-24,24v360c0.001,11.431,6.1,21.994,16,27.71V480h72v-32h208v32h72v-36.29
	c9.9-5.716,15.999-16.279,16-27.71V56C448,42.745,437.255,32,424,32z M175.82,371.47c-1.922,17.568-17.723,30.252-35.291,28.329
	c-17.568-1.922-30.252-17.723-28.329-35.291c1.632-14.914,13.407-26.692,28.32-28.328c17.624-1.871,33.428,10.898,35.299,28.522
	C176.058,366.952,176.058,369.22,175.82,371.47z M240,288H96V128h144V288z M256,96H96.46L96,64h320l-0.46,32H256z M272,128h144v160
	H272V128z M336.18,364.53c1.922-17.568,17.723-30.252,35.291-28.329c17.568,1.922,30.252,17.723,28.329,35.291
	c-1.632,14.914-13.407,26.692-28.32,28.328c-17.624,1.871-33.428-10.898-35.299-28.522
	C335.942,369.048,335.942,366.78,336.18,364.53z"/>
</svg>
