<?xml version="1.0" encoding="iso-8859-1"?>
<!-- Generator: Adobe Illustrator 24.3.0, SVG Export Plug-In . SVG Version: 6.00 Build 0)  -->
<svg version="1.1" id="Layer_1" xmlns="http://www.w3.org/2000/svg" xmlns:xlink="http://www.w3.org/1999/xlink" x="0px" y="0px"
	 viewBox="0 0 512 512" style="enable-background:new 0 0 512 512;" xml:space="preserve">
<path d="M400,32H112c-26.51,0-48,21.49-48,48v320c-0.001,13.648,5.819,26.65,16,35.74V454c0,14.359,11.641,26,26,26l0,0h28
	c14.359,0,26-11.641,26-26l0,0v-6h192v6c0,14.359,11.641,26,26,26l0,0h28c14.359,0,26-11.641,26-26l0,0v-18.26
	c10.181-9.09,16.001-22.091,16-35.74V80C448,53.49,426.51,32,400,32z M147.47,399.82c-17.569,1.912-33.362-10.781-35.274-28.35
	s10.781-33.362,28.35-35.274c17.569-1.912,33.362,10.781,35.274,28.35c0.25,2.301,0.25,4.623,0,6.924
	C174.195,386.403,162.402,398.195,147.47,399.82z M236,288H112c-8.837,0-16-7.163-16-16V144c0-8.837,7.163-16,16-16h124
	c2.209,0,4,1.791,4,4v152C240,286.209,238.209,288,236,288z M256,96H112.46c-8.6,0-16-6.6-16.44-15.19
	c-0.447-8.825,6.344-16.342,15.169-16.789C111.459,64.007,111.73,64,112,64h287.54c8.6,0,16,6.6,16.44,15.19
	c0.447,8.825-6.344,16.342-15.169,16.789C400.541,95.993,400.27,96,400,96H256z M276,128h124c8.837,0,16,7.163,16,16v128
	c0,8.837-7.163,16-16,16H276c-2.209,0-4-1.791-4-4V132C272,129.791,273.791,128,276,128z M336.18,371.47
	c-1.912-17.569,10.781-33.362,28.35-35.274c17.569-1.912,33.362,10.781,35.274,28.35c1.912,17.569-10.781,33.362-28.35,35.274
	c-2.301,0.25-4.623,0.25-6.924,0C349.598,398.195,337.805,386.403,336.18,371.47z"/>
</svg>
