<?xml version="1.0" encoding="iso-8859-1"?>
<!-- Generator: Adobe Illustrator 24.3.0, SVG Export Plug-In . SVG Version: 6.00 Build 0)  -->
<svg version="1.1" id="Layer_1" xmlns="http://www.w3.org/2000/svg" xmlns:xlink="http://www.w3.org/1999/xlink" x="0px" y="0px"
	 viewBox="0 0 512 512" style="enable-background:new 0 0 512 512;" xml:space="preserve">
<path d="M176,496c-8.836,0-16-7.163-16-16v-64c0-8.837,7.164-16,16-16s16,7.163,16,16v64C192,488.837,184.836,496,176,496z"/>
<path d="M300,496H48c-8.836,0-16-7.163-16-16V64c0-26.467,21.533-48,48-48h192c26.468,0,48,21.533,48,48v412
	C320,487.029,311.028,496,300,496z M64,464h224V64c0-8.822-7.178-16-16-16H80c-8.822,0-16,7.178-16,16V464z"/>
<path d="M464,496H304c-8.837,0-16-7.163-16-16V208c0-17.645,14.355-32,32-32h112c26.468,0,48,21.533,48,48v256
	C480,488.837,472.837,496,464,496z M319.999,464H448V224c0-8.822-7.178-16-16-16H320c-0.014,0-0.021,0.001-0.021,0.001L319.999,464z
	"/>
<path d="M98.08,431.87c-8.762,1.146-16.794-5.028-17.94-13.79c-1.146-8.762,5.028-16.794,13.79-17.94
	c8.762-1.146,16.794,5.028,17.94,13.79c0.18,1.377,0.18,2.772,0,4.15C110.93,425.271,105.271,430.93,98.08,431.87z"/>
<path d="M98.08,351.87c-8.762,1.146-16.794-5.028-17.94-13.79c-1.146-8.762,5.028-16.794,13.79-17.94
	c8.762-1.146,16.794,5.028,17.94,13.79c0.18,1.377,0.18,2.772,0,4.15C110.93,345.271,105.271,350.93,98.08,351.87z"/>
<path d="M98.08,271.87c-8.762,1.146-16.794-5.028-17.94-13.79c-1.146-8.762,5.028-16.794,13.79-17.94s16.794,5.028,17.94,13.79
	c0.18,1.377,0.18,2.772,0,4.15C110.93,265.271,105.271,270.93,98.08,271.87z"/>
<path d="M98.08,191.87c-8.762,1.146-16.794-5.028-17.94-13.79c-1.146-8.762,5.028-16.794,13.79-17.94
	c8.762-1.146,16.794,5.028,17.94,13.79c0.18,1.377,0.18,2.772,0,4.15C110.93,185.271,105.271,190.93,98.08,191.87z"/>
<path d="M98.08,111.87c-8.762,1.146-16.794-5.028-17.94-13.79c-1.146-8.762,5.028-16.794,13.79-17.94
	c8.762-1.146,16.794,5.028,17.94,13.79c0.18,1.377,0.18,2.772,0,4.15C110.93,105.271,105.271,110.93,98.08,111.87z"/>
<path d="M178.08,351.87c-8.762,1.146-16.794-5.028-17.94-13.79c-1.146-8.762,5.028-16.794,13.79-17.94
	c8.762-1.146,16.794,5.028,17.94,13.79c0.18,1.377,0.18,2.772,0,4.15C190.93,345.271,185.271,350.93,178.08,351.87z"/>
<path d="M178.08,271.87c-8.762,1.146-16.794-5.028-17.94-13.79c-1.146-8.762,5.028-16.794,13.79-17.94
	c8.762-1.146,16.794,5.028,17.94,13.79c0.18,1.377,0.18,2.772,0,4.15C190.93,265.271,185.271,270.93,178.08,271.87z"/>
<path d="M178.08,191.87c-8.762,1.146-16.794-5.028-17.94-13.79s5.028-16.794,13.79-17.94s16.794,5.028,17.94,13.79
	c0.18,1.377,0.18,2.772,0,4.15C190.93,185.271,185.271,190.93,178.08,191.87z"/>
<path d="M178.08,111.87c-8.762,1.146-16.794-5.028-17.94-13.79s5.028-16.794,13.79-17.94c8.762-1.146,16.794,5.028,17.94,13.79
	c0.18,1.377,0.18,2.772,0,4.15C190.93,105.271,185.271,110.93,178.08,111.87z"/>
<path d="M258.08,431.87c-8.762,1.146-16.794-5.028-17.94-13.79c-1.146-8.762,5.028-16.794,13.79-17.94
	c8.762-1.146,16.794,5.028,17.94,13.79c0.18,1.377,0.18,2.772,0,4.15C270.93,425.271,265.271,430.93,258.08,431.87z"/>
<path d="M258.08,351.87c-8.762,1.146-16.794-5.028-17.94-13.79c-1.146-8.762,5.028-16.794,13.79-17.94
	c8.762-1.146,16.794,5.028,17.94,13.79c0.18,1.377,0.18,2.772,0,4.15C270.93,345.271,265.271,350.93,258.08,351.87z"/>
<path d="M258.08,271.87c-8.762,1.146-16.794-5.028-17.94-13.79c-1.146-8.762,5.028-16.794,13.79-17.94
	c8.762-1.146,16.794,5.028,17.94,13.79c0.18,1.377,0.18,2.772,0,4.15C270.93,265.271,265.271,270.93,258.08,271.87z"/>
<ellipse transform="matrix(0.7071 -0.7071 0.7071 0.7071 -49.4627 232.5734)" cx="256" cy="175.992" rx="15.95" ry="16.03"/>
<path d="M258.08,111.87c-8.762,1.146-16.794-5.028-17.94-13.79c-1.146-8.762,5.028-16.794,13.79-17.94s16.794,5.028,17.94,13.79
	c0.18,1.377,0.18,2.772,0,4.15C270.93,105.271,265.271,110.93,258.08,111.87z"/>
<circle cx="400" cy="416" r="16"/>
<circle cx="400" cy="336" r="16"/>
<circle cx="400" cy="256" r="16"/>
<circle cx="336" cy="416" r="16"/>
<circle cx="336" cy="336" r="16"/>
<circle cx="336" cy="256" r="16"/>
</svg>
