<?xml version="1.0" encoding="iso-8859-1"?>
<!-- Generator: Adobe Illustrator 24.3.0, SVG Export Plug-In . SVG Version: 6.00 Build 0)  -->
<svg version="1.1" id="Layer_1" xmlns="http://www.w3.org/2000/svg" xmlns:xlink="http://www.w3.org/1999/xlink" x="0px" y="0px"
	 viewBox="0 0 512 512" style="enable-background:new 0 0 512 512;" xml:space="preserve">
<path d="M432,176H320V64c0-26.51-21.49-48-48-48H80c-26.51,0-48,21.49-48,48v416c0,8.837,7.163,16,16,16h104c4.418,0,8-3.582,8-8
	v-71.55c0-8.61,6.62-16,15.23-16.43c8.826-0.425,16.326,6.385,16.751,15.211c0.012,0.256,0.019,0.512,0.019,0.769v72
	c0,4.418,3.582,8,8,8h264c8.837,0,16-7.163,16-16V224C480,197.49,458.51,176,432,176z M98.08,431.87
	c-8.762,1.146-16.794-5.028-17.94-13.79c-1.146-8.762,5.028-16.794,13.79-17.94c8.762-1.146,16.794,5.028,17.94,13.79
	c0.18,1.377,0.18,2.772,0,4.15C110.93,425.271,105.271,430.93,98.08,431.87z M98.08,351.87c-8.762,1.146-16.794-5.028-17.94-13.79
	c-1.146-8.762,5.028-16.794,13.79-17.94c8.762-1.146,16.794,5.028,17.94,13.79c0.18,1.377,0.18,2.772,0,4.15
	C110.93,345.271,105.271,350.93,98.08,351.87z M98.08,271.87c-8.762,1.146-16.794-5.028-17.94-13.79
	c-1.146-8.762,5.028-16.794,13.79-17.94s16.794,5.028,17.94,13.79c0.18,1.377,0.18,2.772,0,4.15
	C110.93,265.271,105.271,270.93,98.08,271.87z M98.08,191.87c-8.762,1.146-16.794-5.028-17.94-13.79
	c-1.146-8.762,5.028-16.794,13.79-17.94c8.762-1.146,16.794,5.028,17.94,13.79c0.18,1.377,0.18,2.772,0,4.15
	C110.93,185.271,105.271,190.93,98.08,191.87z M98.08,111.87c-8.762,1.146-16.794-5.028-17.94-13.79
	c-1.146-8.762,5.028-16.794,13.79-17.94c8.762-1.146,16.794,5.028,17.94,13.79c0.18,1.377,0.18,2.772,0,4.15
	C110.93,105.271,105.271,110.93,98.08,111.87z M178.08,351.87c-8.762,1.146-16.794-5.028-17.94-13.79
	c-1.146-8.762,5.028-16.794,13.79-17.94c8.762-1.146,16.794,5.028,17.94,13.79c0.18,1.377,0.18,2.772,0,4.15
	C190.93,345.271,185.271,350.93,178.08,351.87z M178.08,271.87c-8.762,1.146-16.794-5.028-17.94-13.79
	c-1.146-8.762,5.028-16.794,13.79-17.94c8.762-1.146,16.794,5.028,17.94,13.79c0.18,1.377,0.18,2.772,0,4.15
	C190.93,265.271,185.271,270.93,178.08,271.87z M178.08,191.87c-8.762,1.146-16.794-5.028-17.94-13.79s5.028-16.794,13.79-17.94
	s16.794,5.028,17.94,13.79c0.18,1.377,0.18,2.772,0,4.15C190.93,185.271,185.271,190.93,178.08,191.87z M178.08,111.87
	c-8.762,1.146-16.794-5.028-17.94-13.79s5.028-16.794,13.79-17.94c8.762-1.146,16.794,5.028,17.94,13.79
	c0.18,1.377,0.18,2.772,0,4.15C190.93,105.271,185.271,110.93,178.08,111.87z M258.08,431.87c-8.762,1.146-16.794-5.028-17.94-13.79
	c-1.146-8.762,5.028-16.794,13.79-17.94c8.762-1.146,16.794,5.028,17.94,13.79c0.18,1.377,0.18,2.772,0,4.15
	C270.93,425.271,265.271,430.93,258.08,431.87L258.08,431.87z M258.08,351.87c-8.762,1.146-16.794-5.028-17.94-13.79
	c-1.146-8.762,5.028-16.794,13.79-17.94c8.762-1.146,16.794,5.028,17.94,13.79c0.18,1.377,0.18,2.772,0,4.15
	C270.93,345.271,265.271,350.93,258.08,351.87L258.08,351.87z M258.08,271.87c-8.762,1.146-16.794-5.028-17.94-13.79
	c-1.146-8.762,5.028-16.794,13.79-17.94c8.762-1.146,16.794,5.028,17.94,13.79c0.18,1.377,0.18,2.772,0,4.15
	C270.93,265.271,265.271,270.93,258.08,271.87L258.08,271.87z M258.08,191.87c-8.762,1.146-16.794-5.028-17.94-13.79
	c-1.146-8.762,5.028-16.794,13.79-17.94c8.762-1.146,16.794,5.028,17.94,13.79c0.18,1.377,0.18,2.772,0,4.15
	C270.93,185.271,265.271,190.93,258.08,191.87L258.08,191.87z M258.08,111.87c-8.762,1.146-16.794-5.028-17.94-13.79
	c-1.146-8.762,5.028-16.794,13.79-17.94s16.794,5.028,17.94,13.79c0.18,1.377,0.18,2.772,0,4.15
	C270.93,105.271,265.271,110.93,258.08,111.87L258.08,111.87z M444,464H320V208h112c8.837,0,16,7.163,16,16v236
	C448,462.209,446.209,464,444,464z"/>
<circle cx="400" cy="416" r="16"/>
<circle cx="400" cy="336" r="16"/>
<circle cx="400" cy="256" r="16"/>
<circle cx="336" cy="416" r="16"/>
<circle cx="336" cy="336" r="16"/>
<circle cx="336" cy="256" r="16"/>
</svg>
