<?xml version="1.0" encoding="iso-8859-1"?>
<!-- Generator: Adobe Illustrator 24.3.0, SVG Export Plug-In . SVG Version: 6.00 Build 0)  -->
<svg version="1.1" id="Layer_1" xmlns="http://www.w3.org/2000/svg" xmlns:xlink="http://www.w3.org/1999/xlink" x="0px" y="0px"
	 viewBox="0 0 512 512" style="enable-background:new 0 0 512 512;" xml:space="preserve">
<path d="M448,64H80v254.34c-0.018,5.308,2.093,10.401,5.86,14.14l29.65,29.66c3.744,3.766,8.84,5.876,14.15,5.86h204.68
	c5.31,0.016,10.406-2.094,14.15-5.86l29.65-29.66c3.767-3.739,5.878-8.832,5.86-14.14V192h32c4.243-0.002,8.311-1.689,11.31-4.69
	l32-32c3.001-2.999,4.688-7.067,4.69-11.31V80C464,71.163,456.837,64,448,64z M432,137.37L409.37,160H384V96h48V137.37z"/>
<rect x="48" y="400" width="368" height="32"/>
</svg>
