<?xml version="1.0" encoding="iso-8859-1"?>
<!-- Generator: Adobe Illustrator 24.3.0, SVG Export Plug-In . SVG Version: 6.00 Build 0)  -->
<svg version="1.1" id="Layer_1" xmlns="http://www.w3.org/2000/svg" xmlns:xlink="http://www.w3.org/1999/xlink" x="0px" y="0px"
	 viewBox="0 0 512 512" style="enable-background:new 0 0 512 512;" xml:space="preserve">
<path d="M402,192h-34c-8.837,0-16-7.164-16-16s7.163-16,16-16h34c16.542,0,30-13.458,30-30V96h-64c-8.837,0-16-7.164-16-16
	s7.163-16,16-16h64c17.645,0,32,14.355,32,32v34C464,164.187,436.187,192,402,192z"/>
<path d="M288,368H176c-52.935,0-96-43.065-96-96V80c0-8.836,7.164-16,16-16h272c8.837,0,16,7.164,16,16v192
	C384,324.935,340.935,368,288,368z M112,96v176c0,35.29,28.71,64,64,64h112c35.29,0,64-28.71,64-64V96H112z"/>
<path d="M400,432H64c-8.836,0-16-7.163-16-16s7.164-16,16-16h336c8.837,0,16,7.163,16,16S408.837,432,400,432z"/>
</svg>
