<?xml version="1.0" encoding="iso-8859-1"?>
<!-- Generator: Adobe Illustrator 24.3.0, SVG Export Plug-In . SVG Version: 6.00 Build 0)  -->
<svg version="1.1" id="Layer_1" xmlns="http://www.w3.org/2000/svg" xmlns:xlink="http://www.w3.org/1999/xlink" x="0px" y="0px"
	 viewBox="0 0 512 512" style="enable-background:new 0 0 512 512;" xml:space="preserve">
<path d="M432,64H96c-8.837,0-16,7.163-16,16v192c0.061,52.994,43.006,95.939,96,96h112c52.994-0.061,95.939-43.006,96-96v-80h18
	c34.226-0.039,61.961-27.774,62-62V96C464,78.327,449.673,64,432,64z M432,130c0,16.569-13.431,30-30,30l0,0h-18V96h48V130z"/>
<path d="M400,400H64c-8.837,0-16,7.163-16,16s7.163,16,16,16h336c8.837,0,16-7.163,16-16S408.837,400,400,400z"/>
</svg>
