<?xml version="1.0" encoding="iso-8859-1"?>
<!-- Generator: Adobe Illustrator 24.3.0, SVG Export Plug-In . SVG Version: 6.00 Build 0)  -->
<svg version="1.1" id="Layer_1" xmlns="http://www.w3.org/2000/svg" xmlns:xlink="http://www.w3.org/1999/xlink" x="0px" y="0px"
	 viewBox="0 0 512 512" style="enable-background:new 0 0 512 512;" xml:space="preserve">
<path d="M416,48c0-8.837-7.163-16-16-16H112c-8.837,0-16,7.163-16,16v416c0,8.837,7.163,16,16,16h288c8.837,0,16-7.163,16-16V48z
	 M192,432h-48v-48h48V432z M192,352h-48v-48h48V352z M192,272h-48v-48h48V272z M280,432h-48v-48h48V432z M280,352h-48v-48h48V352z
	 M280,272h-48v-48h48V272z M368,432h-48V304h48V432z M368,272h-48v-48h48V272z M368,176H144V80h224V176z"/>
</svg>
