<?xml version="1.0" encoding="iso-8859-1"?>
<!-- Generator: Adobe Illustrator 24.3.0, SVG Export Plug-In . SVG Version: 6.00 Build 0)  -->
<svg version="1.1" id="Layer_1" xmlns="http://www.w3.org/2000/svg" xmlns:xlink="http://www.w3.org/1999/xlink" x="0px" y="0px"
	 viewBox="0 0 512 512" style="enable-background:new 0 0 512 512;" xml:space="preserve">
<path d="M368,480H144c-26.467,0-48-21.533-48-48V80c0-26.467,21.533-48,48-48h224c26.467,0,48,21.533,48,48v352
	C416,458.467,394.467,480,368,480z M144,64c-8.822,0-16,7.178-16,16v352c0,8.822,7.178,16,16,16h224c8.822,0,16-7.178,16-16V80
	c0-8.822-7.178-16-16-16H144z"/>
<path d="M352,192H160.01c-8.836,0-16-7.164-16-16v-64c0-8.836,7.164-16,16-16H352c8.837,0,16,7.164,16,16v64
	C368,184.836,360.837,192,352,192z M176.01,160H336v-32H176.01V160z"/>
<circle cx="168" cy="248" r="24"/>
<circle cx="256" cy="248" r="24"/>
<circle cx="344" cy="248" r="24"/>
<circle cx="168" cy="328" r="24"/>
<circle cx="256" cy="328" r="24"/>
<circle cx="168" cy="408" r="24"/>
<circle cx="256" cy="408" r="24"/>
<path d="M344,304L344,304c13.255,0,24,10.745,24,24v80c0,13.255-10.745,24-24,24l0,0c-13.255,0-24-10.745-24-24v-80
	C320,314.745,330.745,304,344,304z"/>
</svg>
