<?xml version="1.0" encoding="iso-8859-1"?>
<!-- Generator: Adobe Illustrator 24.3.0, SVG Export Plug-In . SVG Version: 6.00 Build 0)  -->
<svg version="1.1" id="Layer_1" xmlns="http://www.w3.org/2000/svg" xmlns:xlink="http://www.w3.org/1999/xlink" x="0px" y="0px"
	 viewBox="0 0 512 512" style="enable-background:new 0 0 512 512;" xml:space="preserve">
<path d="M416,80c-0.028-26.498-21.502-47.972-48-48H144c-26.498,0.028-47.972,21.502-48,48v352c0.028,26.498,21.502,47.972,48,48
	h224c26.498-0.028,47.972-21.502,48-48V80z M168,432c-13.255,0-24-10.745-24-24s10.745-24,24-24s24,10.745,24,24
	S181.255,432,168,432z M168,352c-13.255,0-24-10.745-24-24s10.745-24,24-24s24,10.745,24,24S181.255,352,168,352z M168,272
	c-13.255,0-24-10.745-24-24s10.745-24,24-24s24,10.745,24,24S181.255,272,168,272z M256,432c-13.255,0-24-10.745-24-24
	s10.745-24,24-24c13.255,0,24,10.745,24,24S269.255,432,256,432z M256,352c-13.255,0-24-10.745-24-24s10.745-24,24-24
	c13.255,0,24,10.745,24,24S269.255,352,256,352z M256,272c-13.255,0-24-10.745-24-24s10.745-24,24-24c13.255,0,24,10.745,24,24
	S269.255,272,256,272z M368,408c0,13.255-10.745,24-24,24s-24-10.745-24-24v-80c0-13.255,10.745-24,24-24s24,10.745,24,24V408z
	 M344,272c-13.255,0-24-10.745-24-24s10.745-24,24-24s24,10.745,24,24S357.255,272,344,272z M363.31,171.31
	c-2.999,3.001-7.067,4.688-11.31,4.69H160c-8.837,0-16-7.163-16-16V96c0-8.837,7.163-16,16-16h192c8.837,0,16,7.163,16,16v64
	C367.998,164.243,366.311,168.311,363.31,171.31z"/>
</svg>
