<?xml version="1.0" encoding="iso-8859-1"?>
<!-- Generator: Adobe Illustrator 24.3.0, SVG Export Plug-In . SVG Version: 6.00 Build 0)  -->
<svg version="1.1" id="icons" xmlns="http://www.w3.org/2000/svg" xmlns:xlink="http://www.w3.org/1999/xlink" x="0px" y="0px"
	 viewBox="0 0 512 512" style="enable-background:new 0 0 512 512;" xml:space="preserve">
<path d="M416,64h-16V48.45c0-8.61-6.62-16-15.23-16.43c-8.826-0.425-16.326,6.385-16.751,15.211C368.006,47.488,368,47.744,368,48
	v16H144V48.45c0-8.61-6.62-16-15.23-16.43c-8.826-0.425-16.326,6.385-16.751,15.211C112.006,47.488,112,47.744,112,48v16H96
	c-35.346,0-64,28.654-64,64v12c0,2.209,1.791,4,4,4h440c2.209,0,4-1.791,4-4v-12C480,92.654,451.346,64,416,64z"/>
<path d="M476,176H36c-2.209,0-4,1.791-4,4v236c0,35.346,28.654,64,64,64h320c35.346,0,64-28.654,64-64V180
	C480,177.791,478.209,176,476,176z M239.58,401.1c-12.17,9.61-28.75,14.9-46.7,14.9c-27.87,0-48.48-18.16-57.66-33.7
	c-4.501-7.61-1.98-17.429,5.63-21.93s17.429-1.98,21.93,5.63c1.08,1.84,11.15,18,30.1,18c16.66,0,36.12-7.29,36.12-27.82
	c0-6.25-1.22-14.95-7-20.88c-8.54-8.74-22.75-12.67-30.11-12.67c-8.837,0-16-7.163-16-16s7.163-16,16-16
	c4.85,0,17.41-2.6,25.28-10.65c4.303-4.232,6.678-10.046,6.57-16.08c0-23.23-28.63-23.9-31.89-23.9c-17.34,0-23.8,10.61-24.07,11.06
	c-4.304,7.717-14.05,10.484-21.767,6.18c-7.717-4.304-10.484-14.05-6.18-21.767c0.127-0.227,0.259-0.452,0.397-0.673
	c7.64-13,25.22-26.8,51.62-26.8c16.44,0,31.76,4.77,43.13,13.42c13.39,10.2,20.76,25.28,20.76,42.48
	c0.091,14.403-5.575,28.245-15.74,38.45c-1.15,1.18-2.36,2.28-3.59,3.35c3.004,2.17,5.821,4.589,8.42,7.23
	c10.56,10.8,16.14,25.75,16.14,43.25C261,374.24,253.39,390.19,239.58,401.1z M368,396c0,8.837-7.163,16-16,16s-16-7.163-16-16
	V256.29l-22.51,16.59c-7.113,5.247-17.133,3.733-22.38-3.38c-5.247-7.113-3.733-17.133,3.38-22.38l0,0l43.42-32
	c2.749-2.026,6.075-3.119,9.49-3.12h4.6c8.837,0,16,7.163,16,16V396z"/>
</svg>
