<?xml version="1.0" encoding="iso-8859-1"?>
<!-- Generator: Adobe Illustrator 24.3.0, SVG Export Plug-In . SVG Version: 6.00 Build 0)  -->
<svg version="1.1" id="icons" xmlns="http://www.w3.org/2000/svg" xmlns:xlink="http://www.w3.org/1999/xlink" x="0px" y="0px"
	 viewBox="0 0 512 512" style="enable-background:new 0 0 512 512;" xml:space="preserve">
<path d="M416,480H96c-35.29,0-64-28.71-64-64V128c0-35.29,28.71-64,64-64h320c35.29,0,64,28.71,64,64v288
	C480,451.29,451.29,480,416,480z M96,96c-17.645,0-32,14.355-32,32v288c0,17.645,14.355,32,32,32h320c17.645,0,32-14.355,32-32V128
	c0-17.645-14.355-32-32-32H96z"/>
<path d="M128,96c-8.836,0-16-7.164-16-16V48c0-8.836,7.164-16,16-16s16,7.164,16,16v32C144,88.836,136.836,96,128,96z"/>
<path d="M384,96c-8.837,0-16-7.164-16-16V48c0-8.836,7.163-16,16-16s16,7.164,16,16v32C400,88.836,392.837,96,384,96z"/>
<path d="M464,176H48c-8.836,0-16-7.164-16-16s7.164-16,16-16h416c8.837,0,16,7.164,16,16S472.837,176,464,176z"/>
<path d="M352,412c-8.837,0-16-7.163-16-16V256.292l-22.508,16.588c-7.113,5.242-17.129,3.729-22.372-3.388
	c-5.242-7.113-3.726-17.129,3.388-22.372l43.42-32c2.75-2.027,6.076-3.12,9.492-3.12H352c8.837,0,16,7.164,16,16V396
	C368,404.837,360.837,412,352,412z"/>
<path d="M191.87,322.63c-8.836,0-16-7.163-16-16s7.164-16,16-16c4.852,0,17.414-2.604,25.273-10.65
	c0.048-0.05,0.097-0.099,0.146-0.147c4.153-4.144,6.498-9.885,6.431-15.752c0-0.061-0.001-0.12-0.001-0.181
	c0-23.23-28.626-23.9-31.89-23.9c-17.328,0-23.812,10.624-24.079,11.077c-4.499,7.605-14.31,10.125-21.917,5.624
	c-7.605-4.499-10.124-14.312-5.625-21.917C147.869,221.836,165.452,208,191.83,208c16.443,0,31.759,4.768,43.127,13.427
	c13.367,10.18,20.738,25.23,20.763,42.385c0.137,14.372-5.602,28.431-15.756,38.601C226.274,316.377,205.955,322.63,191.87,322.63z"
	/>
<path d="M192.88,416c-27.878,0-48.484-18.159-57.66-33.71c-4.49-7.61-1.961-17.421,5.649-21.911
	c7.612-4.491,17.42-1.961,21.911,5.649c1.085,1.84,11.151,17.972,30.1,17.972c16.663,0,36.12-7.286,36.12-27.82
	c0-6.264-1.214-14.969-7-20.863c-8.563-8.757-22.771-12.687-30.13-12.687c-8.836,0-16-7.163-16-16s7.164-16,16-16
	c15.525,0,37.93,6.894,52.989,22.293C255.412,323.676,261,338.641,261,356.18c0,18.056-7.607,34.008-21.42,44.92
	C227.417,410.708,210.832,416,192.88,416z"/>
</svg>
