<?xml version="1.0" encoding="iso-8859-1"?>
<!-- Generator: Adobe Illustrator 24.3.0, SVG Export Plug-In . SVG Version: 6.00 Build 0)  -->
<svg version="1.1" id="Layer_1" xmlns="http://www.w3.org/2000/svg" xmlns:xlink="http://www.w3.org/1999/xlink" x="0px" y="0px"
	 viewBox="0 0 512 512" style="enable-background:new 0 0 512 512;" xml:space="preserve">
<path d="M480,128c0-35.346-28.654-64-64-64h-16V48.45c0-8.61-6.62-16-15.23-16.43c-8.826-0.425-16.326,6.385-16.751,15.211
	C368.006,47.488,368,47.744,368,48v16H144V48.45c0-8.61-6.62-16-15.23-16.43c-8.826-0.425-16.326,6.385-16.751,15.211
	C112.006,47.488,112,47.744,112,48v16H96c-35.346,0-64,28.654-64,64v12c0,2.209,1.791,4,4,4h440c2.209,0,4-1.791,4-4V128z"/>
<path d="M32,416c0,35.346,28.654,64,64,64h320c35.346,0,64-28.654,64-64V180c0-2.209-1.791-4-4-4H36c-2.209,0-4,1.791-4,4V416z"/>
</svg>
