<?xml version="1.0" encoding="iso-8859-1"?>
<!-- Generator: Adobe Illustrator 24.3.0, SVG Export Plug-In . SVG Version: 6.00 Build 0)  -->
<svg version="1.1" id="Layer_1" xmlns="http://www.w3.org/2000/svg" xmlns:xlink="http://www.w3.org/1999/xlink" x="0px" y="0px"
	 viewBox="0 0 512 512" style="enable-background:new 0 0 512 512;" xml:space="preserve">
<path d="M32,456c0,13.255,10.745,24,24,24h400c13.255,0,24-10.745,24-24V176H32V456z M352,212c0-2.209,1.791-4,4-4h40
	c2.209,0,4,1.791,4,4v40c0,2.209-1.791,4-4,4h-40c-2.209,0-4-1.791-4-4V212z M352,292c0-2.209,1.791-4,4-4h40c2.209,0,4,1.791,4,4
	v40c0,2.209-1.791,4-4,4h-40c-2.209,0-4-1.791-4-4V292z M272,212c0-2.209,1.791-4,4-4h40c2.209,0,4,1.791,4,4v40
	c0,2.209-1.791,4-4,4h-40c-2.209,0-4-1.791-4-4V212z M272,292c0-2.209,1.791-4,4-4h40c2.209,0,4,1.791,4,4v40c0,2.209-1.791,4-4,4
	h-40c-2.209,0-4-1.791-4-4V292z M272,372c0-2.209,1.791-4,4-4h40c2.209,0,4,1.791,4,4v40c0,2.209-1.791,4-4,4h-40
	c-2.209,0-4-1.791-4-4V372z M192,292c0-2.209,1.791-4,4-4h40c2.209,0,4,1.791,4,4v40c0,2.209-1.791,4-4,4h-40c-2.209,0-4-1.791-4-4
	V292z M192,372c0-2.209,1.791-4,4-4h40c2.209,0,4,1.791,4,4v40c0,2.209-1.791,4-4,4h-40c-2.209,0-4-1.791-4-4V372z M112,292
	c0-2.209,1.791-4,4-4h40c2.209,0,4,1.791,4,4v40c0,2.209-1.791,4-4,4h-40c-2.209,0-4-1.791-4-4V292z M112,372c0-2.209,1.791-4,4-4
	h40c2.209,0,4,1.791,4,4v40c0,2.209-1.791,4-4,4h-40c-2.209,0-4-1.791-4-4V372z"/>
<path d="M456,64h-55.92V32h-48v32H159.92V32h-48v32H56c-13.144-0.11-23.889,10.455-23.999,23.599C32,87.656,32,87.713,32,87.77V144
	h448V87.77c-0.016-13.144-10.685-23.787-23.829-23.771C456.114,63.999,456.057,64,456,64z"/>
</svg>
