<?xml version="1.0" encoding="iso-8859-1"?>
<!-- Generator: Adobe Illustrator 24.3.0, SVG Export Plug-In . SVG Version: 6.00 Build 0)  -->
<svg version="1.1" id="Layer_1" xmlns="http://www.w3.org/2000/svg" xmlns:xlink="http://www.w3.org/1999/xlink" x="0px" y="0px"
	 viewBox="0 0 512 512" style="enable-background:new 0 0 512 512;" xml:space="preserve">
<path d="M390.989,479.985c-19.513,0-46.937-7.05-87.958-30.024c-49.966-28.023-88.595-53.925-138.209-103.401
	c-47.872-47.737-71.167-78.714-103.859-138.103C24.111,141.508,30.394,106.33,37.418,91.318
	c8.384-17.915,20.746-28.657,36.728-39.275c9.033-5.935,18.591-11.03,28.479-15.19c1.115-0.463,2.05-0.885,2.903-1.268
	c4.957-2.224,12.451-5.584,21.954-2.005c6.334,2.385,11.988,7.262,20.842,16.008c18.107,17.813,42.992,57.759,52.158,77.423
	c6.155,13.236,10.217,21.971,10.233,31.746c0.019,11.453-5.767,20.265-12.759,29.785c-1.306,1.777-2.596,3.473-3.845,5.114
	c-7.633,10.026-9.305,12.895-8.197,18.057c2.073,9.657,18.229,40.642,46.182,68.506c26.667,26.583,56.176,42.611,67.722,45.073
	c5.378,1.146,8.335-0.583,18.652-8.472c1.477-1.129,2.999-2.292,4.585-3.471c10.676-7.931,19.099-13.545,30.277-13.545
	c0.012,0,0.022,0,0.035,0c9.722,0.01,18.043,4.201,31.83,11.146c17.993,9.074,59.089,33.573,77.159,51.78l0.014,0.013
	c8.762,8.851,13.648,14.502,16.039,20.831c3.598,9.523,0.218,17.019-2.019,21.978c-0.382,0.848-0.803,1.776-1.239,2.819
	c-4.188,9.934-9.299,19.487-15.207,28.441c-10.625,15.964-21.376,28.283-39.429,36.692
	C412.972,477.018,403.643,479.985,390.989,479.985z M118.037,65.045c-0.938,0.419-1.953,0.867-3.067,1.33
	c-8.026,3.377-15.848,7.547-23.184,12.367c-14.073,9.35-20.733,16.202-25.384,26.14c-1.989,4.25-10.249,28.477,22.595,88.143
	c31.356,56.963,52.512,85.095,98.421,130.876c47.253,47.122,82.586,70.848,131.259,98.146
	c61.989,34.719,81.125,25.807,88.327,22.451c10.044-4.679,16.917-11.315,26.267-25.361c4.793-7.265,8.969-15.072,12.377-23.152
	c0.438-1.05,0.875-2.035,1.286-2.951c-1.312-1.544-3.533-3.966-7.29-7.76l0,0c-13.573-13.677-49.248-35.861-68.848-45.746
	c-7.521-3.788-15.307-7.709-17.463-7.722c-1.94,0.356-8.903,5.529-11.192,7.229c-1.462,1.087-2.869,2.163-4.235,3.208
	c-11.453,8.757-24.436,18.686-44.762,14.347c-18.815-4.013-53.587-23.749-83.64-53.706c-30.367-30.272-50.939-66.106-54.877-84.454
	c-4.31-20.077,5.43-32.87,14.023-44.157c1.142-1.5,2.322-3.049,3.515-4.673c4.348-5.92,6.552-9.551,6.55-10.789
	c-0.004-2.727-3.85-10.997-7.243-18.293c-7.876-16.896-31.017-53.781-45.612-68.141C122.022,68.585,119.584,66.355,118.037,65.045z"
	/>
</svg>
