<?xml version="1.0" encoding="iso-8859-1"?>
<!-- Generator: Adobe Illustrator 24.3.0, SVG Export Plug-In . SVG Version: 6.00 Build 0)  -->
<svg version="1.1" id="Layer_1" xmlns="http://www.w3.org/2000/svg" xmlns:xlink="http://www.w3.org/1999/xlink" x="0px" y="0px"
	 viewBox="0 0 512 512" style="enable-background:new 0 0 512 512;" xml:space="preserve">
<path d="M391,480c-19.52,0-46.94-7.06-88-30c-49.93-28-88.55-53.85-138.21-103.38C116.91,298.77,93.61,267.79,61,208.45
	c-36.84-67-30.56-102.12-23.54-117.13C45.82,73.38,58.16,62.65,74.11,52c9.06-5.936,18.647-11.024,28.64-15.2
	c1-0.43,1.93-0.84,2.76-1.21c4.95-2.23,12.45-5.6,21.95-2c6.34,2.38,12,7.25,20.86,16c18.17,17.92,43,57.83,52.16,77.43
	c6.15,13.21,10.22,21.93,10.23,31.71c0,11.45-5.76,20.28-12.75,29.81c-1.31,1.79-2.61,3.5-3.87,5.16c-7.61,10-9.28,12.89-8.18,18.05
	c2.23,10.37,18.86,41.24,46.19,68.51s57.31,42.85,67.72,45.07c5.38,1.15,8.33-0.59,18.65-8.47c1.48-1.13,3-2.3,4.59-3.47
	c10.66-7.93,19.08-13.54,30.26-13.54h0.06c9.73,0,18.06,4.22,31.86,11.18c18,9.08,59.11,33.59,77.14,51.78
	c8.77,8.84,13.66,14.48,16.05,20.81c3.6,9.53,0.21,17-2,22c-0.37,0.83-0.78,1.74-1.21,2.75c-4.209,9.975-9.327,19.542-15.29,28.58
	c-10.63,15.9-21.4,28.21-39.38,36.58C411.317,477.897,401.213,480.109,391,480z"/>
</svg>
