<?xml version="1.0" encoding="iso-8859-1"?>
<!-- Generator: Adobe Illustrator 24.3.0, SVG Export Plug-In . SVG Version: 6.00 Build 0)  -->
<svg version="1.1" id="Layer_1" xmlns="http://www.w3.org/2000/svg" xmlns:xlink="http://www.w3.org/1999/xlink" x="0px" y="0px"
	 viewBox="0 0 512 512" style="enable-background:new 0 0 512 512;" xml:space="preserve">
<path d="M478.94,370.14c-5.22-5.56-23.65-22-57.53-43.75c-34.13-21.94-59.3-35.62-66.52-38.81c-1.297-0.575-2.805-0.387-3.92,0.49
	c-11.63,9.07-31.21,25.73-32.26,26.63c-6.78,5.81-6.78,5.81-12.33,4c-9.76-3.2-40.08-19.3-66.5-45.78s-43.35-57.55-46.55-67.3
	c-1.83-5.56-1.83-5.56,4-12.34c0.9-1.05,17.57-20.63,26.64-32.25c0.877-1.115,1.065-2.623,0.49-3.92
	c-3.19-7.23-16.87-32.39-38.81-66.52c-21.78-33.87-38.2-52.3-43.76-57.52c-1.039-0.981-2.532-1.315-3.89-0.87
	c-19.435,6.679-38.187,15.201-56,25.45C64.804,67.646,48.524,79.141,33.35,92c-1.079,0.918-1.564,2.356-1.26,3.74
	c2.09,9.74,12.08,50.4,43.08,106.72c31.63,57.48,53.55,86.93,100,133.22S252,405.21,309.54,436.84c56.32,31,97,41,106.72,43.07
	c1.387,0.301,2.827-0.183,3.75-1.26c12.857-15.174,24.348-31.454,34.34-48.65c10.247-17.814,18.769-36.566,25.45-56
	C480.235,372.653,479.906,371.175,478.94,370.14z"/>
</svg>
