<?xml version="1.0" encoding="iso-8859-1"?>
<!-- Generator: Adobe Illustrator 24.3.0, SVG Export Plug-In . SVG Version: 6.00 Build 0)  -->
<svg version="1.1" id="Layer_1" xmlns="http://www.w3.org/2000/svg" xmlns:xlink="http://www.w3.org/1999/xlink" x="0px" y="0px"
	 viewBox="0 0 512 512" style="enable-background:new 0 0 512 512;" xml:space="preserve">
<path d="M456,144h-83c-3,0-6.72-1.94-9.62-5l-27.31-42.79C326,80,320,80,302,80h-92c-18,0-23,0-34.07,16.21L148.62,139
	c-2.22,2.42-5.34,5-8.62,5v-16c0-4.418-3.582-8-8-8H92c-4.418,0-8,3.582-8,8v16H56c-13.255,0-24,10.745-24,24v240
	c0,13.255,10.745,24,24,24h400c13.255,0,24-10.745,24-24V168C480,154.745,469.255,144,456,144z M256,368c-47.82,0-87.76-34.23-95-80
	h-43.63L176,229.37L234.63,288H194c8.874,34.254,43.836,54.829,78.09,45.954c8.986-2.328,17.359-6.581,24.54-12.464L320,343
	l-3.68,3.72C299.212,360.455,277.939,367.959,256,368z M336,314.16L277.11,256H318c-8.98-34.335-44.094-54.889-78.429-45.909
	c-9.002,2.355-17.386,6.636-24.571,12.549L192,200l3.14-2.45c17.134-13.928,38.539-21.538,60.62-21.55c47.85,0,87,34.19,94.24,80
	h44.92L336,314.16z"/>
</svg>
