<?xml version="1.0" encoding="iso-8859-1"?>
<!-- Generator: Adobe Illustrator 24.3.0, SVG Export Plug-In . SVG Version: 6.00 Build 0)  -->
<svg version="1.1" id="Layer_1" xmlns="http://www.w3.org/2000/svg" xmlns:xlink="http://www.w3.org/1999/xlink" x="0px" y="0px"
	 viewBox="0 0 512 512" style="enable-background:new 0 0 512 512;" xml:space="preserve">
<path d="M432,432H80c-26.467,0-48-21.533-48-48V192c0-26.467,21.533-48,48-48h60c3.286,0,6.402-2.54,8.624-4.957l25.937-40.98
	c0.413-0.653,0.873-1.274,1.375-1.86C184.898,85.754,196.996,80,210,80h92c13.003,0,25.101,5.754,34.063,16.203
	c0.503,0.586,0.963,1.208,1.376,1.861l25.911,40.939c2.899,3.06,6.604,4.997,9.649,4.997h59c26.467,0,48,21.533,48,48V384
	C480,410.467,458.467,432,432,432z M80,176c-8.822,0-16,7.178-16,16V384c0,8.822,7.178,16,16,16h352c8.822,0,16-7.178,16-16V192
	c0-8.822-7.178-16-16-16h-59c-12.79,0-25.405-6.164-34.611-16.911c-0.5-0.583-0.957-1.203-1.368-1.852l-25.904-40.929
	c-2.013-2.11-5.078-4.308-9.116-4.308h-92c-4.038,0-7.104,2.198-9.116,4.307l-25.905,40.93c-0.411,0.649-0.868,1.268-1.368,1.852
	C164.136,170.152,152.513,176,140,176H80z"/>
<path d="M256,368c-52.935,0-96-43.065-96-96C160,219.065,203.065,176,256,176s96,43.065,96,96.001C352,324.935,308.935,368,256,368z
	 M256,208c-35.29,0-64,28.71-64,64.001s28.71,64,64,64c35.29,0,64-28.71,64-64S291.29,208,256,208z"/>
<path d="M124,174c-4.778,0-9.068-2.095-12-5.417c-2.932,3.321-7.222,5.417-12,5.417c-8.836,0-16-7.164-16-16v-22
	c0-8.836,7.164-16,16-16h24c8.836,0,16,7.164,16,16v22C140,166.836,132.836,174,124,174z"/>
</svg>
