<?xml version="1.0" encoding="iso-8859-1"?>
<!-- Generator: Adobe Illustrator 24.3.0, SVG Export Plug-In . SVG Version: 6.00 Build 0)  -->
<svg version="1.1" id="Layer_1" xmlns="http://www.w3.org/2000/svg" xmlns:xlink="http://www.w3.org/1999/xlink" x="0px" y="0px"
	 viewBox="0 0 512 512" style="enable-background:new 0 0 512 512;" xml:space="preserve">
<circle cx="256" cy="272" r="64"/>
<path d="M432,144h-59c-3,0-6.72-1.94-9.62-5l-25.94-40.94c-0.41-0.65-0.868-1.268-1.37-1.85C327.11,85.76,315,80,302,80h-92
	c-13,0-25.11,5.76-34.07,16.21c-0.502,0.582-0.96,1.2-1.37,1.85l-25.94,41c-2.22,2.42-5.34,5-8.62,5v-8c0-8.837-7.163-16-16-16h-24
	c-8.837,0-16,7.163-16,16v8h-4c-26.498,0.028-47.972,21.502-48,48V384c0.028,26.498,21.502,47.972,48,48h352
	c26.498-0.028,47.972-21.502,48-48V192C479.972,165.502,458.498,144.028,432,144z M256,368c-53.019,0-96-42.981-96-96
	s42.981-96,96-96s96,42.981,96,96C351.939,324.994,308.994,367.939,256,368z"/>
</svg>
