<?xml version="1.0" encoding="iso-8859-1"?>
<!-- Generator: Adobe Illustrator 24.3.0, SVG Export Plug-In . SVG Version: 6.00 Build 0)  -->
<svg version="1.1" id="Layer_1" xmlns="http://www.w3.org/2000/svg" xmlns:xlink="http://www.w3.org/1999/xlink" x="0px" y="0px"
	 viewBox="0 0 512 512" style="enable-background:new 0 0 512 512;" xml:space="preserve">
<path d="M432,432H80c-26.467,0-48-21.533-48-48V192c0-26.467,21.533-48,48-48h60c3.286,0,6.402-2.54,8.624-4.957l25.937-40.98
	c0.413-0.653,0.873-1.274,1.375-1.86C184.898,85.754,196.996,80,210,80h92c13.003,0,25.101,5.754,34.063,16.203
	c0.503,0.586,0.963,1.208,1.376,1.861l25.911,40.939c2.899,3.06,6.604,4.997,9.649,4.997h59c26.467,0,48,21.533,48,48V384
	C480,410.467,458.467,432,432,432z M80,176c-8.822,0-16,7.178-16,16V384c0,8.822,7.178,16,16,16h352c8.822,0,16-7.178,16-16V192
	c0-8.822-7.178-16-16-16h-59c-12.79,0-25.405-6.164-34.611-16.911c-0.5-0.583-0.957-1.203-1.368-1.852l-25.904-40.929
	c-2.013-2.11-5.078-4.308-9.116-4.308h-92c-4.038,0-7.104,2.198-9.116,4.307l-25.905,40.93c-0.411,0.649-0.868,1.268-1.368,1.852
	C164.136,170.152,152.513,176,140,176H80z"/>
<path d="M124,174c-4.778,0-9.068-2.095-12-5.417c-2.932,3.321-7.222,5.417-12,5.417c-8.836,0-16-7.164-16-16v-22
	c0-8.836,7.164-16,16-16h24c8.836,0,16,7.164,16,16v22C140,166.836,132.836,174,124,174z"/>
<path d="M255.999,368.032c-52.904,0.002-95.96-43.018-95.999-95.93V258.78c0-8.836,7.164-16,16-16s16,7.164,16,16v13.311
	c0.026,35.261,28.733,63.939,64,63.941c0.017,0,0.03,0,0.047,0c14.741-0.011,29.139-5.165,40.538-14.514
	c6.83-5.602,16.913-4.606,22.518,2.227c5.604,6.833,4.606,16.914-2.227,22.518c-17.099,14.021-38.693,21.753-60.806,21.77
	C256.048,368.032,256.021,368.032,255.999,368.032z M335.76,301.22c-8.837,0-16-7.163-16-16V271.91
	c-0.008-17.087-6.672-33.156-18.765-45.239c-12.087-12.075-28.15-18.725-45.234-18.725c-0.011,0-0.02,0-0.03,0
	c-14.851,0.007-29.33,5.224-40.772,14.691c-6.808,5.634-16.894,4.681-22.527-2.127c-5.633-6.808-4.681-16.894,2.127-22.527
	c17.162-14.201,38.881-22.027,61.157-22.037c0.014,0,0.031,0,0.045,0c25.627,0,49.72,9.973,67.851,28.087
	c18.14,18.124,28.136,42.227,28.147,67.87v13.317C351.76,294.057,344.597,301.22,335.76,301.22z"/>
<path d="M196,288c-4.095,0-8.189-1.562-11.314-4.687L176,274.627l-8.686,8.687c-6.248,6.248-16.379,6.25-22.627,0
	c-6.249-6.248-6.249-16.379,0-22.627l20-20.001c3-3.001,7.07-4.687,11.314-4.687s8.313,1.686,11.314,4.687l20,20.001
	c6.248,6.248,6.248,16.379,0,22.627C204.19,286.438,200.094,288,196,288z"/>
<path d="M336,308c-4.095,0-8.189-1.562-11.313-4.687l-20-20c-6.249-6.248-6.249-16.379,0-22.627c6.248-6.248,16.379-6.248,22.627,0
	l8.687,8.687l8.687-8.687c6.248-6.248,16.379-6.248,22.627,0c6.249,6.248,6.249,16.379,0,22.627l-20,20
	C344.189,306.438,340.095,308,336,308z"/>
</svg>
