<?xml version="1.0" encoding="iso-8859-1"?>
<!-- Generator: Adobe Illustrator 24.3.0, SVG Export Plug-In . SVG Version: 6.00 Build 0)  -->
<svg version="1.1" id="Layer_1" xmlns="http://www.w3.org/2000/svg" xmlns:xlink="http://www.w3.org/1999/xlink" x="0px" y="0px"
	 viewBox="0 0 512 512" style="enable-background:new 0 0 512 512;" xml:space="preserve">
<path d="M432,144h-59c-3,0-6.72-1.94-9.62-5l-25.94-40.94c-0.41-0.65-0.868-1.268-1.37-1.85C327.11,85.76,315,80,302,80h-92
	c-13,0-25.11,5.76-34.07,16.21c-0.502,0.582-0.96,1.2-1.37,1.85l-25.94,41c-2.22,2.42-5.34,5-8.62,5v-8c0-8.837-7.163-16-16-16h-24
	c-8.837,0-16,7.163-16,16v8h-4c-26.498,0.028-47.972,21.502-48,48V384c0.028,26.498,21.502,47.972,48,48h352
	c26.498-0.028,47.972-21.502,48-48V192C479.972,165.502,458.498,144.028,432,144z M316.84,346.3
	c-41.07,33.583-101.588,27.514-135.171-13.556c-10.738-13.132-17.807-28.874-20.489-45.624c-8.368,2.839-17.453-1.642-20.293-10.01
	c-1.952-5.751-0.479-12.112,3.803-16.42l20-20c6.248-6.243,16.372-6.243,22.62,0l20,20c6.246,6.25,6.243,16.381-0.007,22.627
	c-2.998,2.996-7.063,4.681-11.303,4.683c-0.669-0.008-1.337-0.055-2-0.14c8.799,34.273,43.716,54.924,77.99,46.125
	c9.035-2.32,17.455-6.584,24.67-12.495c6.826-5.611,16.909-4.626,22.52,2.2c5.611,6.826,4.626,16.909-2.2,22.52
	c-0.037,0.03-0.073,0.06-0.11,0.09H316.84z M367.31,283.3l-20,20c-6.248,6.243-16.372,6.243-22.62,0l-20-20
	c-6.239-6.258-6.224-16.388,0.033-22.627c3.434-3.424,8.236-5.106,13.057-4.573c-8.763-34.243-43.626-54.898-77.869-46.135
	c-9.136,2.338-17.643,6.666-24.911,12.675c-6.618,5.856-16.73,5.237-22.585-1.381c-5.856-6.618-5.237-16.73,1.381-22.585
	c0.264-0.234,0.536-0.459,0.815-0.674c40.86-33.787,101.372-28.053,135.159,12.806c10.959,13.253,18.157,29.207,20.841,46.194
	c8.324-2.966,17.476,1.377,20.443,9.7c2.068,5.804,0.62,12.279-3.723,16.65L367.31,283.3z"/>
</svg>
