<?xml version="1.0" encoding="iso-8859-1"?>
<!-- Generator: Adobe Illustrator 24.3.0, SVG Export Plug-In . SVG Version: 6.00 Build 0)  -->
<svg version="1.1" id="Layer_1" xmlns="http://www.w3.org/2000/svg" xmlns:xlink="http://www.w3.org/1999/xlink" x="0px" y="0px"
	 viewBox="0 0 512 512" style="enable-background:new 0 0 512 512;" xml:space="preserve">
<circle cx="256" cy="272" r="64"/>
<path d="M456,144h-83c-3,0-6.72-1.94-9.62-5L336.1,96.2C325,80,320,80,302,80h-92c-18,0-24,0-34.07,16.21L148.62,139
	c-2.22,2.42-5.34,5-8.62,5v-16c0-4.418-3.582-8-8-8H92c-4.418,0-8,3.582-8,8v16H56c-13.255,0-24,10.745-24,24v240
	c0,13.255,10.745,24,24,24h400c13.255,0,24-10.745,24-24V168C480,154.745,469.255,144,456,144z M260.51,367.9
	c-52.961,2.488-97.911-38.429-100.399-91.39c-2.488-52.961,38.429-97.911,91.39-100.399c52.961-2.488,97.911,38.429,100.399,91.39
	c0.141,3.001,0.141,6.007,0,9.009C349.525,325.966,309.966,365.525,260.51,367.9z"/>
</svg>
