<?xml version="1.0" encoding="iso-8859-1"?>
<!-- Generator: Adobe Illustrator 24.3.0, SVG Export Plug-In . SVG Version: 6.00 Build 0)  -->
<svg version="1.1" id="Layer_1" xmlns="http://www.w3.org/2000/svg" xmlns:xlink="http://www.w3.org/1999/xlink" x="0px" y="0px"
	 viewBox="0 0 512 512" style="enable-background:new 0 0 512 512;" xml:space="preserve">
<path d="M488,224c-3-5-32.61-17.79-32.61-17.79c5.15-2.66,8.67-3.21,8.67-14.21c0-12-0.06-16-8.06-16h-27.14
	c-0.11-0.24-0.23-0.49-0.34-0.74c-17.52-38.26-19.87-47.93-46-60.95C347.47,96.88,281.76,96,256,96s-91.47,0.88-126.49,18.31
	c-26.16,13-25.51,19.69-46,60.95c0,0.11-0.21,0.4-0.4,0.74H55.94c-7.94,0-8,4-8,16c0,11,3.52,11.55,8.67,14.21
	C56.61,206.21,28,220,24,224s-8,32-8,80s4,96,4,96h11.94c0,14,2.06,16,8.06,16h80c6,0,8-2,8-16h256c0,14,2,16,8,16h82c4,0,6-3,6-16
	h12c0,0,4-49,4-96S491,229,488,224z M125.26,268.94c-18.213,1.991-36.519,3.013-54.84,3.06c-20.42,0-21.12,1.31-22.56-11.44
	c-0.542-5.836-0.37-11.716,0.51-17.51L49,240h3c12,0,23.27,0.51,44.55,6.78c10.823,3.248,21.003,8.343,30.09,15.06
	C131,265,132,268,132,268L125.26,268.94z M372.42,340.94L368,352H144c0,0,0.39-0.61-5-11.18c-4-7.82,1-12.82,8.91-15.66
	C163.23,319.64,208,304,256,304s93.66,13.48,108.5,21.16C370,328,376.83,330,372.42,341V340.94z M115.42,204.41
	c-3.23,0.186-6.468,0.21-9.7,0.07c2.61-4.64,4.06-9.81,6.61-15.21c8-17,17.15-36.24,33.44-44.35c23.54-11.72,72.33-17,110.23-17
	s86.69,5.24,110.23,17c16.29,8.11,25.4,27.36,33.44,44.35c2.57,5.45,4,10.66,6.68,15.33c-2,0.11-4.3,0-9.79-0.19L115.42,204.41z
	 M463.14,260.52C461,273,463,272,441.58,272c-18.321-0.047-36.627-1.069-54.84-3.06c-2.85-0.51-3.66-5.32-1.38-7.1
	c9.041-6.792,19.235-11.894,30.09-15.06c21.28-6.27,33.26-7.11,45.09-6.69c1.646,0.063,2.979,1.357,3.09,3
	c0.565,5.821,0.401,11.69-0.49,17.47V260.52z"/>
</svg>
