<?xml version="1.0" encoding="iso-8859-1"?>
<!-- Generator: Adobe Illustrator 24.3.0, SVG Export Plug-In . SVG Version: 6.00 Build 0)  -->
<svg version="1.1" id="Layer_1" xmlns="http://www.w3.org/2000/svg" xmlns:xlink="http://www.w3.org/1999/xlink" x="0px" y="0px"
	 viewBox="0 0 512 512" style="enable-background:new 0 0 512 512;" xml:space="preserve">
<path d="M494.26,276.22c-3.6-40.41-9.53-48.28-11.77-51.24c-5.15-6.84-13.39-11.31-22.11-16l0,0c-1.758-0.929-2.429-3.108-1.5-4.865
	c0.158-0.298,0.356-0.572,0.59-0.815c3.268-3.314,4.923-7.892,4.53-12.53c-0.78-8.426-7.888-14.848-16.35-14.77h-15.6
	c-0.669,0.004-1.336,0.047-2,0.13c-0.455-0.198-0.927-0.355-1.41-0.47l0,0c-9.24-19.53-21.89-46.27-48.11-59.32
	C341.64,97,270,96,256,96s-85.64,1-124.48,20.31c-26.22,13.05-38.87,39.79-48.11,59.32l-0.08,0.16
	c-0.461,0.065-0.913,0.179-1.35,0.34c-0.664-0.083-1.331-0.126-2-0.13H64.35c-8.462-0.078-15.57,6.344-16.35,14.77
	c-0.359,4.627,1.317,9.18,4.59,12.47c1.379,1.432,1.337,3.711-0.095,5.09c-0.243,0.234-0.517,0.432-0.815,0.59l0,0
	c-8.72,4.72-17,9.19-22.11,16c-2.24,3-8.16,10.83-11.77,51.24c-2,22.74-2.3,46.28-0.73,61.44c3.29,31.5,9.46,50.54,9.72,51.33
	c1.932,5.868,7.07,10.099,13.2,10.87l0,0v0.2c0,8.837,7.163,16,16,16h56c8.837,0,16-7.163,16-16l0,0c8.61,0,14.6-1.54,20.95-3.18
	c9.168-2.47,18.539-4.114,28-4.91C207.45,389,237.79,388,256,388c17.84,0,49.52,1,80.08,3.91c9.499,0.798,18.907,2.448,28.11,4.93
	c6.08,1.56,11.85,3,19.84,3.15l0,0c0,8.837,7.163,16,16,16h56c8.837,0,16-7.163,16-16v-0.12l0,0
	c6.145-0.757,11.301-4.99,13.24-10.87c0.26-0.79,6.43-19.83,9.72-51.33C496.56,322.5,496.28,299,494.26,276.22z M112.33,189.31
	c8-17,17.15-36.24,33.44-44.35c23.54-11.72,72.33-17,110.23-17s86.69,5.24,110.23,17c16.29,8.11,25.4,27.36,33.44,44.35l1,2.17
	c1.89,3.993,0.185,8.763-3.808,10.654c-1.134,0.537-2.378,0.799-3.632,0.766C360,202,290,199.12,256,199.12s-104,2.95-137.28,3.85
	c-4.417,0.116-8.091-3.371-8.206-7.788c-0.033-1.254,0.23-2.498,0.766-3.632C111.63,190.81,112,190.06,112.33,189.31z
	 M124.26,268.94c-17.202,2.07-34.514,3.092-51.84,3.06c-10.6,0-21.53-3-23.56-12.44c-1.39-6.35-1.24-9.92-0.49-13.51
	C49,243,50,240.78,55,240c13-2,20.27,0.51,41.55,6.78c14.11,4.15,24.29,9.68,30.09,14.06C129.55,263,128,268.64,124.26,268.94z
	 M345.64,350.94c-13.16,1.5-39.48,0.95-89.34,0.95s-76.17,0.55-89.33-0.95c-13.58-1.51-30.89-14.35-19.07-25.79
	c7.87-7.54,26.23-13.18,50.68-16.35s34.8-4.8,57.62-4.8s32.12,1,57.62,4.81s44.77,9.52,50.68,16.35
	c10.78,12.24-5.29,24.19-18.86,25.84V350.94z M463.14,259.55c-2,9.48-13,12.44-23.56,12.44c-17.658,0.004-35.301-1.018-52.84-3.06
	c-3.06-0.29-4.48-5.66-1.38-8.1c5.71-4.49,16-9.91,30.09-14.06c21.28-6.27,33.55-8.78,44.09-6.69c2.57,0.51,3.93,3.27,4.09,5
	c0.705,4.817,0.539,9.722-0.49,14.48V259.55z"/>
</svg>
