<?xml version="1.0" encoding="iso-8859-1"?>
<!-- Generator: Adobe Illustrator 24.3.0, SVG Export Plug-In . SVG Version: 6.00 Build 0)  -->
<svg version="1.1" id="Layer_1" xmlns="http://www.w3.org/2000/svg" xmlns:xlink="http://www.w3.org/1999/xlink" x="0px" y="0px"
	 viewBox="0 0 512 512" style="enable-background:new 0 0 512 512;" xml:space="preserve">
<path d="M447.68,220.78c-0.23-1.064-0.565-2.102-1-3.1l-48-112c-2.523-5.867-8.293-9.672-14.68-9.68H128
	c-6.402-0.001-12.189,3.815-14.71,9.7l-48,112c-0.435,0.998-0.77,2.036-1,3.1c-0.203,1.054-0.3,2.126-0.29,3.2v184
	c0,4.418,3.582,8,8,8h32c4.418,0,8-3.582,8-8v-24h288v24c0,4.418,3.582,8,8,8h32c4.418,0,8-3.582,8-8V224
	C448.001,222.919,447.894,221.84,447.68,220.78z M144,320c-17.673,0-32-14.327-32-32s14.327-32,32-32s32,14.327,32,32
	S161.673,320,144,320z M368,320c-17.673,0-32-14.327-32-32s14.327-32,32-32s32,14.327,32,32S385.673,320,368,320z M104.26,208
	l34.29-80h234.9l34.29,80H104.26z"/>
</svg>
