<?xml version="1.0" encoding="iso-8859-1"?>
<!-- Generator: Adobe Illustrator 24.3.0, SVG Export Plug-In . SVG Version: 6.00 Build 0)  -->
<svg version="1.1" id="Layer_1" xmlns="http://www.w3.org/2000/svg" xmlns:xlink="http://www.w3.org/1999/xlink" x="0px" y="0px"
	 viewBox="0 0 512 512" style="enable-background:new 0 0 512 512;" xml:space="preserve">
<path d="M470.04,400h-85c-8.52,0-14.511-1.531-20.854-3.152c-6.568-1.68-14.014-3.582-28.116-4.919
	C305.545,389.029,273.859,388,256,388c-18.229,0-48.579,1.032-79.088,3.929c-14.088,1.325-21.492,3.226-28.024,4.902
	c-6.347,1.63-12.343,3.169-20.948,3.169h-86c-6.913,0-13.044-4.439-15.201-11.007c-0.261-0.795-6.433-19.833-9.713-51.336
	c-1.578-15.155-1.3-38.697,0.726-61.438c3.6-40.416,9.527-48.285,11.759-51.247c5.147-6.833,13.391-11.311,22.119-16.052
	c8.845-4.805,18.87-10.25,23.381-17.095c2.555-3.876,5.394-9.877,8.4-16.23c9.229-19.505,21.868-46.218,48.094-59.286
	C170.296,96.979,242.017,96,256,96c19.867,0,42.38,1.459,61.767,4.002c26.915,3.531,48.016,9.025,62.714,16.329
	c26.22,13.029,38.876,39.774,48.117,59.302c3.006,6.352,5.845,12.35,8.399,16.233c4.508,6.852,14.53,12.283,23.374,17.075
	c8.726,4.728,16.968,9.194,22.118,16.031c0.009,0.011,0.017,0.022,0.025,0.034c2.219,2.961,8.111,10.826,11.708,51.213
	c2.027,22.757,2.308,46.299,0.731,61.438c-3.279,31.504-9.452,50.542-9.713,51.337C483.084,395.561,476.953,400,470.04,400z
	 M256,356c19.449,0,51.491,1.069,83.093,4.071c16.586,1.572,26.084,4,33.019,5.772c5.438,1.391,8.434,2.156,12.929,2.156h72.659
	c1.744-7.694,3.919-19.177,5.427-33.656c2.938-28.228-2.104-79.855-6.483-90.366c-1.983-1.736-7.664-4.814-11.517-6.902
	c-11.555-6.261-25.935-14.053-34.862-27.622c-3.787-5.756-7.092-12.739-10.59-20.132c-8.04-16.988-17.152-36.243-33.434-44.334
	C349.224,136.533,308.536,128,256,128c-37.933,0-86.726,5.241-110.224,16.951c-16.31,8.127-25.411,27.361-33.44,44.331
	c-3.502,7.402-6.81,14.394-10.606,20.153c-8.918,13.532-23.284,21.335-34.826,27.605c-3.872,2.104-9.585,5.207-11.558,6.947
	c-4.384,10.445-9.435,62.092-6.492,90.356c1.507,14.478,3.682,25.958,5.427,33.657h73.659c4.564,0,7.558-0.769,12.992-2.163
	c6.913-1.775,16.381-4.206,32.969-5.767C205.509,357.07,237.038,356,256,356z M457.037,244.359h0.01H457.037z M55.621,243.385
	L55.621,243.385z"/>
<path d="M456,416h-56c-8.837,0-16-7.163-16-16v-16c0-8.837,7.163-16,16-16h56c8.837,0,16,7.163,16,16v16
	C472,408.837,464.837,416,456,416z"/>
<path d="M112,416H56c-8.836,0-16-7.163-16-16v-16c0-8.837,7.164-16,16-16h56c8.836,0,16,7.163,16,16v16
	C128,408.837,120.836,416,112,416z"/>
<path d="M364.47,309.16c-5.91-6.83-25.17-12.53-50.67-16.35S279,288,256.2,288s-33.17,1.64-57.61,4.81s-42.79,8.81-50.66,16.35
	C136.12,320.6,153.42,333.44,167,335c13.16,1.5,39.47,0.95,89.31,0.95s76.15,0.55,89.31-0.95
	C359.18,333.35,375.24,321.4,364.47,309.16z"/>
<path d="M431.57,243.05c-0.116-1.645-1.452-2.938-3.1-3c-11.81-0.42-23.8,0.42-45.07,6.69c-10.852,3.168-21.042,8.27-30.08,15.06
	c-2.28,1.78-1.47,6.59,1.39,7.1c17.532,2.056,35.168,3.091,52.82,3.1c10.59,0,21.52-3,23.55-12.44
	C432.115,254.117,432.28,248.545,431.57,243.05z"/>
<path d="M80.43,243.05c0.116-1.645,1.452-2.938,3.1-3c11.81-0.42,23.8,0.42,45.07,6.69c10.852,3.168,21.042,8.27,30.08,15.06
	c2.28,1.78,1.47,6.59-1.39,7.1c-17.532,2.056-35.168,3.091-52.82,3.1c-10.59,0-21.52-3-23.55-12.44
	C79.885,254.117,79.72,248.545,80.43,243.05z"/>
<path d="M448,208h-16c-8.837,0-16-7.164-16-16s7.163-16,16-16h16c8.837,0,16,7.164,16,16S456.837,208,448,208z"/>
<path d="M80,208H64c-8.836,0-16-7.164-16-16s7.164-16,16-16h16c8.836,0,16,7.164,16,16S88.836,208,80,208z"/>
<path d="M77.943,227.017c-7.113,0-13.591-4.789-15.458-12c-2.214-8.555,2.95-17.291,11.504-19.506C75.963,195,123.832,183,256,183
	s180.037,12,182.01,12.511c8.555,2.215,13.694,10.945,11.479,19.5c-2.214,8.554-10.941,13.695-19.499,11.479
	C414.255,222.524,357.565,215,256,215s-158.255,7.524-174.04,11.502C80.616,226.85,79.269,227.017,77.943,227.017z"/>
</svg>
