<?xml version="1.0" encoding="iso-8859-1"?>
<!-- Generator: Adobe Illustrator 24.3.0, SVG Export Plug-In . SVG Version: 6.00 Build 0)  -->
<svg version="1.1" id="Layer_1" xmlns="http://www.w3.org/2000/svg" xmlns:xlink="http://www.w3.org/1999/xlink" x="0px" y="0px"
	 viewBox="0 0 512 512" style="enable-background:new 0 0 512 512;" xml:space="preserve">
<path d="M447.68,220.78c-0.228-1.058-0.563-2.09-1-3.08l-37.78-88.16C400.19,109.17,379,96,354.89,96H157.11
	c-24.09,0-45.3,13.17-54,33.54L65.29,217.7c-0.86,1.989-1.299,4.134-1.29,6.3v176c0,8.837,7.163,16,16,16h32c8.837,0,16-7.163,16-16
	v-16h256v16c0,8.837,7.163,16,16,16h32c8.837,0,16-7.163,16-16V224C448.001,222.919,447.894,221.84,447.68,220.78z M144,320
	c-17.673,0-32-14.327-32-32s14.327-32,32-32s32,14.327,32,32S161.673,320,144,320z M368,320c-17.673,0-32-14.327-32-32
	s14.327-32,32-32s32,14.327,32,32S385.673,320,368,320z M104.26,208l28.23-65.85C136.11,133.69,146,128,157.11,128h197.78
	c11.1,0,21,5.69,24.62,14.15L407.74,208H104.26z"/>
</svg>
