<?xml version="1.0" encoding="iso-8859-1"?>
<!-- Generator: Adobe Illustrator 24.3.0, SVG Export Plug-In . SVG Version: 6.00 Build 0)  -->
<svg version="1.1" id="Layer_1" xmlns="http://www.w3.org/2000/svg" xmlns:xlink="http://www.w3.org/1999/xlink" x="0px" y="0px"
	 viewBox="0 0 512 512" style="enable-background:new 0 0 512 512;" xml:space="preserve">
<path d="M32,376c0,30.928,25.072,56,56,56h336c30.928,0,56-25.072,56-56V222H32V376z M98,300c0-16.569,13.431-30,30-30l0,0h48
	c16.569,0,30,13.431,30,30l0,0v20c0,16.569-13.431,30-30,30l0,0h-48c-16.569,0-30-13.431-30-30l0,0V300z"/>
<path d="M424,80H88c-30.928,0-56,25.072-56,56v26h448v-26C480,105.072,454.928,80,424,80z"/>
</svg>
