<?xml version="1.0" encoding="iso-8859-1"?>
<!-- Generator: Adobe Illustrator 24.3.0, SVG Export Plug-In . SVG Version: 6.00 Build 0)  -->
<svg version="1.1" id="Layer_1" xmlns="http://www.w3.org/2000/svg" xmlns:xlink="http://www.w3.org/1999/xlink" x="0px" y="0px"
	 viewBox="0 0 512 512" style="enable-background:new 0 0 512 512;" xml:space="preserve">
<path d="M32,416c0,8.837,7.163,16,16,16h416c8.837,0,16-7.163,16-16V222H32V416z M98,278c0-4.418,3.582-8,8-8h92
	c4.418,0,8,3.582,8,8v64c0,4.418-3.582,8-8,8h-92c-4.418,0-8-3.582-8-8V278z"/>
<path d="M464,80H48c-8.837,0-16,7.163-16,16v66h448V96C480,87.163,472.837,80,464,80z"/>
</svg>
