<?xml version="1.0" encoding="iso-8859-1"?>
<!-- Generator: Adobe Illustrator 24.3.0, SVG Export Plug-In . SVG Version: 6.00 Build 0)  -->
<svg version="1.1" id="Layer_1" xmlns="http://www.w3.org/2000/svg" xmlns:xlink="http://www.w3.org/1999/xlink" x="0px" y="0px"
	 viewBox="0 0 512 512" style="enable-background:new 0 0 512 512;" xml:space="preserve">
<path d="M464,256c0-114.87-93.13-208-208-208S48,141.13,48,256s93.13,208,208,208S464,370.87,464,256z M212,330.14V181.86
	c0.007-8.837,7.176-15.994,16.012-15.988c3.733,0.003,7.347,1.311,10.218,3.698l89.09,74.13c6.793,5.651,7.719,15.74,2.067,22.533
	c-0.625,0.751-1.317,1.443-2.067,2.067l-89.09,74.13c-6.794,5.65-16.882,4.722-22.532-2.072
	C213.311,337.488,212.003,333.873,212,330.14z"/>
</svg>
