<?xml version="1.0" encoding="iso-8859-1"?>
<!-- Generator: Adobe Illustrator 24.3.0, SVG Export Plug-In . SVG Version: 6.00 Build 0)  -->
<svg version="1.1" id="Layer_1" xmlns="http://www.w3.org/2000/svg" xmlns:xlink="http://www.w3.org/1999/xlink" x="0px" y="0px"
	 viewBox="0 0 512 512" style="enable-background:new 0 0 512 512;" xml:space="preserve">
<path d="M256,48C141.13,48,48,141.13,48,256s93.13,208,208,208s208-93.13,208-208S370.87,48,256,48z M330.14,300H181.86
	c-8.837-0.007-15.994-7.176-15.988-16.012c0.003-3.733,1.311-7.347,3.698-10.218l74.13-89.09c5.651-6.793,15.74-7.719,22.533-2.067
	c0.751,0.625,1.443,1.316,2.067,2.067l74.13,89.09c5.65,6.794,4.722,16.882-2.072,22.532
	C337.487,298.689,333.873,299.997,330.14,300z"/>
</svg>
