<?xml version="1.0" encoding="iso-8859-1"?>
<!-- Generator: Adobe Illustrator 24.3.0, SVG Export Plug-In . SVG Version: 6.00 Build 0)  -->
<svg version="1.1" id="Layer_1" xmlns="http://www.w3.org/2000/svg" xmlns:xlink="http://www.w3.org/1999/xlink" x="0px" y="0px"
	 viewBox="0 0 512 512" style="enable-background:new 0 0 512 512;" xml:space="preserve">
<path d="M342.43,238.23l-74.13,89.09c-5.651,6.793-15.74,7.719-22.533,2.067c-0.751-0.625-1.443-1.317-2.067-2.067l-74.13-89.09
	c-5.65-6.794-4.722-16.882,2.072-22.532c2.87-2.387,6.485-3.695,10.218-3.698h148.28c8.837,0.007,15.994,7.176,15.988,16.012
	C346.125,231.745,344.817,235.36,342.43,238.23z"/>
<path d="M256,464C141.309,464,48,370.692,48,256c0-114.691,93.309-208,208-208s208,93.309,208,208C464,370.692,370.691,464,256,464z
	 M256,80c-97.047,0-176,78.953-176,176C80,353.047,158.953,432,256,432S432,353.047,432,256C432,158.953,353.047,80,256,80z"/>
</svg>
