<?xml version="1.0" encoding="iso-8859-1"?>
<!-- Generator: Adobe Illustrator 24.3.0, SVG Export Plug-In . SVG Version: 6.00 Build 0)  -->
<svg version="1.1" id="Layer_1" xmlns="http://www.w3.org/2000/svg" xmlns:xlink="http://www.w3.org/1999/xlink" x="0px" y="0px"
	 viewBox="0 0 512 512" style="enable-background:new 0 0 512 512;" xml:space="preserve">
<path d="M273.77,169.57l-89.09,74.13c-6.793,5.651-7.719,15.74-2.067,22.533c0.625,0.751,1.316,1.443,2.067,2.067l89.09,74.13
	c6.794,5.65,16.882,4.722,22.532-2.072c2.387-2.87,3.695-6.485,3.698-10.218V181.86c-0.007-8.837-7.176-15.994-16.012-15.988
	C280.255,165.875,276.64,167.183,273.77,169.57z"/>
<path d="M256,464C141.309,464,48,370.692,48,256c0-114.691,93.309-208,208-208s208,93.309,208,208C464,370.692,370.691,464,256,464z
	 M256,80c-97.047,0-176,78.953-176,176C80,353.047,158.953,432,256,432S432,353.047,432,256C432,158.953,353.047,80,256,80z"/>
</svg>
