<?xml version="1.0" encoding="iso-8859-1"?>
<!-- Generator: Adobe Illustrator 24.3.0, SVG Export Plug-In . SVG Version: 6.00 Build 0)  -->
<svg version="1.1" id="Layer_1" xmlns="http://www.w3.org/2000/svg" xmlns:xlink="http://www.w3.org/1999/xlink" x="0px" y="0px"
	 viewBox="0 0 512 512" style="enable-background:new 0 0 512 512;" xml:space="preserve">
<path d="M464,256c0-114.87-93.13-208-208-208S48,141.13,48,256s93.13,208,208,208S464,370.87,464,256z M342.43,238.23l-74.13,89.09
	c-5.651,6.793-15.74,7.719-22.533,2.067c-0.751-0.625-1.443-1.317-2.067-2.067l-74.13-89.09c-5.65-6.794-4.722-16.882,2.072-22.532
	c2.87-2.387,6.485-3.695,10.218-3.698h148.28c8.837,0.007,15.994,7.176,15.988,16.012C346.125,231.745,344.817,235.36,342.43,238.23
	z"/>
</svg>
