<?xml version="1.0" encoding="iso-8859-1"?>
<!-- Generator: Adobe Illustrator 24.3.0, SVG Export Plug-In . SVG Version: 6.00 Build 0)  -->
<svg version="1.1" id="Layer_1" xmlns="http://www.w3.org/2000/svg" xmlns:xlink="http://www.w3.org/1999/xlink" x="0px" y="0px"
	 viewBox="0 0 512 512" style="enable-background:new 0 0 512 512;" xml:space="preserve">
<path d="M176,448c-17.645,0-32-14.355-32-32s14.355-32,32-32s32,14.355,32,32S193.645,448,176,448z M176,416
	c-0.014,0-0.02,0.001-0.02,0.001L176,416z"/>
<path d="M400,448c-17.645,0-32-14.355-32-32s14.355-32,32-32s32,14.355,32,32S417.645,448,400,448z M400,416
	c-0.014,0-0.021,0.001-0.021,0.001L400,416z"/>
<path d="M416,368H160c-7.764,0-14.407-5.573-15.756-13.22L98.576,96H48c-8.836,0-16-7.164-16-16s7.164-16,16-16h64
	c7.764,0,14.407,5.574,15.756,13.219L173.424,336H416c8.837,0,16,7.163,16,16S424.837,368,416,368z"/>
<path d="M409.444,304c-0.004,0-0.008,0-0.012,0H160c-8.836,0-16-7.163-16-16s7.164-16,16-16h242.887L428.487,144H128
	c-8.836,0-16-7.164-16-16s7.164-16,16-16h310.24c0.007,0,0.015,0,0.021,0c1.564,0,3.151,0.157,4.7,0.468
	c6.28,1.257,11.7,4.888,15.255,10.222c3.555,5.334,4.82,11.734,3.562,18.02l-28.799,143.997C430.74,295.89,420.844,304,409.444,304z
	 M409.44,272c-0.002,0-0.004,0-0.006,0H409.44z M438.243,144c0.003,0,0.01,0,0.012,0H438.243z"/>
</svg>
