<?xml version="1.0" encoding="iso-8859-1"?>
<!-- Generator: Adobe Illustrator 24.3.0, SVG Export Plug-In . SVG Version: 6.00 Build 0)  -->
<svg version="1.1" id="Layer_1" xmlns="http://www.w3.org/2000/svg" xmlns:xlink="http://www.w3.org/1999/xlink" x="0px" y="0px"
	 viewBox="0 0 512 512" style="enable-background:new 0 0 512 512;" xml:space="preserve">
<circle cx="176" cy="416" r="32"/>
<circle cx="400" cy="416" r="32"/>
<path d="M456.8,120.78c-4.552-5.568-11.368-8.792-18.56-8.78H133.89l-6.13-34.78C126.411,69.573,119.765,63.998,112,64H48
	c-8.837,0-16,7.163-16,16s7.163,16,16,16h50.58l45.66,258.78c1.349,7.647,7.995,13.222,15.76,13.22h256c8.837,0,16-7.163,16-16
	s-7.163-16-16-16H173.42l-5.64-32h241.66c11.439-0.015,21.288-8.078,23.56-19.29l28.8-144
	C463.205,133.653,461.37,126.338,456.8,120.78z"/>
</svg>
