<?xml version="1.0" encoding="iso-8859-1"?>
<!-- Generator: Adobe Illustrator 24.3.0, SVG Export Plug-In . SVG Version: 6.00 Build 0)  -->
<svg version="1.1" id="Layer_1" xmlns="http://www.w3.org/2000/svg" xmlns:xlink="http://www.w3.org/1999/xlink" x="0px" y="0px"
	 viewBox="0 0 512 512" style="enable-background:new 0 0 512 512;" xml:space="preserve">
<path d="M448,400H64c-8.837,0-16-7.163-16-16s7.163-16,16-16h384c8.837,0,16,7.163,16,16S456.837,400,448,400z"/>
<path d="M416,448H96c-8.837,0-16-7.163-16-16s7.163-16,16-16h320c8.837,0,16,7.163,16,16S424.837,448,416,448z"/>
<path d="M32,272H16v48c0,17.673,14.327,32,32,32h48v-16C95.961,300.67,67.33,272.039,32,272z"/>
<path d="M480,240h16v-64h-16c-52.994-0.061-95.939-43.006-96-96V64H128v16c-0.061,52.994-43.006,95.939-96,96H16v64
	c5,0,10.34,0,16,0c52.994,0.061,95.939,43.006,96,96v16h256v-16C384.061,283.006,427.006,240.061,480,240z M256,304
	c-53.019,0-96-42.981-96-96s42.981-96,96-96s96,42.981,96,96C351.939,260.994,308.994,303.939,256,304z"/>
<circle cx="256" cy="208" r="64"/>
<path d="M416,336v16h48c17.673,0,32-14.327,32-32v-48h-16C444.67,272.039,416.039,300.67,416,336z"/>
<path d="M480,144h16V96c0-17.673-14.327-32-32-32h-48v16C416.039,115.33,444.67,143.961,480,144z"/>
<path d="M96,80V64H48c-17.673,0-32,14.327-32,32v48h16C67.33,143.961,95.961,115.33,96,80z"/>
</svg>
