<?xml version="1.0" encoding="iso-8859-1"?>
<!-- Generator: Adobe Illustrator 24.3.0, SVG Export Plug-In . SVG Version: 6.00 Build 0)  -->
<svg version="1.1" id="Layer_1" xmlns="http://www.w3.org/2000/svg" xmlns:xlink="http://www.w3.org/1999/xlink" x="0px" y="0px"
	 viewBox="0 0 512 512" style="enable-background:new 0 0 512 512;" xml:space="preserve">
<path d="M464,352H48c-17.645,0-32-14.355-32-32V96c0-17.645,14.355-32,32-32h416c17.645,0,32,14.355,32,32v224
	C496,337.645,481.645,352,464,352z M48,96v224h416c0.014,0,0.021-0.001,0.021-0.001L464,96H48z"/>
<path d="M448,400H64c-8.836,0-16-7.163-16-16s7.164-16,16-16h384c8.837,0,16,7.163,16,16S456.837,400,448,400z"/>
<path d="M416,448H96c-8.836,0-16-7.163-16-16s7.164-16,16-16h320c8.837,0,16,7.163,16,16S424.837,448,416,448z"/>
<path d="M256,304c-52.935,0-96-43.065-96-96.001c0-52.935,43.065-96,96-96s96,43.065,96,96C352,260.935,308.935,304,256,304z
	 M256,144c-35.29,0-64,28.71-64,64C192,243.29,220.71,272,256,272c35.29,0,64-28.71,64-64.001C320,172.71,291.29,144,256,144z"/>
<path d="M480,176c-52.935,0-96-43.065-96-96c0-8.836,7.163-16,16-16s16,7.164,16,16c0,35.29,28.71,64,64,64c8.837,0,16,7.164,16,16
	S488.837,176,480,176z"/>
<path d="M32,176c-8.836,0-16-7.164-16-16s7.164-16,16-16c35.29,0,64-28.71,64-64c0-8.836,7.164-16,16-16s16,7.164,16,16
	C128,132.934,84.935,176,32,176z"/>
<path d="M400,352c-8.837,0-16-7.163-16-16C384,283.066,427.065,240,480,240c8.837,0,16,7.164,16,16c0,8.836-7.163,16-16,16
	c-35.29,0-64,28.711-64,64.001C416,344.837,408.837,352,400,352z"/>
<path d="M112,352c-8.836,0-16-7.163-16-16c0-35.29-28.71-64.001-64-64.001c-8.836,0-16-7.163-16-16c0-8.836,7.164-16,16-16
	c52.935,0,96,43.066,96,96.001C128,344.837,120.836,352,112,352z"/>
</svg>
