<?xml version="1.0" encoding="iso-8859-1"?>
<!-- Generator: Adobe Illustrator 24.3.0, SVG Export Plug-In . SVG Version: 6.00 Build 0)  -->
<svg version="1.1" id="Layer_1" xmlns="http://www.w3.org/2000/svg" xmlns:xlink="http://www.w3.org/1999/xlink" x="0px" y="0px"
	 viewBox="0 0 512 512" style="enable-background:new 0 0 512 512;" xml:space="preserve">
<rect x="48" y="368" width="416" height="32"/>
<rect x="80" y="416" width="352" height="32"/>
<path d="M480,176c-52.994-0.061-95.939-43.006-96-96V64H128v16c-0.061,52.994-43.006,95.939-96,96H16v64h16
	c52.994,0.061,95.939,43.006,96,96v16h256v-16c0.061-52.994,43.006-95.939,96-96h16v-64H480z M256,304c-53.019,0-96-42.981-96-96
	s42.981-96,96-96s96,42.981,96,96C351.939,260.994,308.994,303.939,256,304z"/>
<path d="M96,80V64H16v80h16C67.33,143.961,95.961,115.33,96,80z"/>
<path d="M32,272H16v80h80v-16C95.961,300.67,67.33,272.039,32,272z"/>
<path d="M480,144h16V64h-80v16C416.039,115.33,444.67,143.961,480,144z"/>
<path d="M416,336v16h80v-80h-16C444.67,272.039,416.039,300.67,416,336z"/>
<circle cx="256" cy="208" r="64"/>
</svg>
