<?xml version="1.0" encoding="iso-8859-1"?>
<!-- Generator: Adobe Illustrator 24.3.0, SVG Export Plug-In . SVG Version: 6.00 Build 0)  -->
<svg version="1.1" id="Layer_1" xmlns="http://www.w3.org/2000/svg" xmlns:xlink="http://www.w3.org/1999/xlink" x="0px" y="0px"
	 viewBox="0 0 512 512" style="enable-background:new 0 0 512 512;" xml:space="preserve">
<path d="M472,432h-48c-13.255,0-24-10.745-24-24V104c0-13.255,10.745-24,24-24h48c13.255,0,24,10.745,24,24v304
	C496,421.255,485.255,432,472,432z"/>
<path d="M344,432h-48c-13.255,0-24-10.745-24-24V184c0-13.255,10.745-24,24-24h48c13.255,0,24,10.745,24,24v224
	C368,421.255,357.255,432,344,432z"/>
<path d="M216,432h-48c-13.255,0-24-10.745-24-24V248c0-13.255,10.745-24,24-24h48c13.255,0,24,10.745,24,24v160
	C240,421.255,229.255,432,216,432z"/>
<path d="M88,432H40c-13.255,0-24-10.745-24-24v-96c0-13.255,10.745-24,24-24h48c13.255,0,24,10.745,24,24v96
	C112,421.255,101.255,432,88,432z"/>
</svg>
