<?xml version="1.0" encoding="iso-8859-1"?>
<!-- Generator: Adobe Illustrator 24.3.0, SVG Export Plug-In . SVG Version: 6.00 Build 0)  -->
<svg version="1.1" id="Layer_1" xmlns="http://www.w3.org/2000/svg" xmlns:xlink="http://www.w3.org/1999/xlink" x="0px" y="0px"
	 viewBox="0 0 512 512" style="enable-background:new 0 0 512 512;" xml:space="preserve">
<path d="M472,432h-48c-13.233,0-24-10.767-24-24V104c0-13.233,10.767-24,24-24h48c13.233,0,24,10.767,24,24v304
	C496,421.234,485.233,432,472,432z M432,400h32V112h-32V400z"/>
<path d="M344,432h-48c-13.233,0-24-10.767-24-24V184c0-13.234,10.767-24,24-24h48c13.233,0,24,10.766,24,24V408
	C368,421.234,357.233,432,344,432z M304,400h32V192h-32V400z"/>
<path d="M216,432h-48c-13.234,0-24-10.767-24-24V248c0-13.233,10.766-24,24-24h48c13.234,0,24,10.767,24,24V408
	C240,421.234,229.234,432,216,432z M176,400h32V256h-32V400z"/>
<path d="M88,432H40c-13.234,0-24-10.767-24-24v-96c0-13.233,10.766-24,24-24h48c13.234,0,24,10.767,24,24v96
	C112,421.234,101.234,432,88,432z M48,400h32v-80H48V400z"/>
</svg>
