<?xml version="1.0" encoding="iso-8859-1"?>
<!-- Generator: Adobe Illustrator 24.3.0, SVG Export Plug-In . SVG Version: 6.00 Build 0)  -->
<svg version="1.1" id="Layer_1" xmlns="http://www.w3.org/2000/svg" xmlns:xlink="http://www.w3.org/1999/xlink" x="0px" y="0px"
	 viewBox="0 0 512 512" style="enable-background:new 0 0 512 512;" xml:space="preserve">
<path d="M60.44,389.17c0,0.07,0,0.2-0.08,0.38C60.39,389.43,60.41,389.3,60.44,389.17z"/>
<path d="M439.9,405.6c-3.292-0.071-6.544-0.749-9.59-2l-56.78-20.13l-0.42-0.17c-1.238-0.516-2.569-0.775-3.91-0.76
	c-1.236,0.001-2.463,0.225-3.62,0.66c-1.38,0.52-13.81,5.19-26.85,8.77c-7.07,1.94-31.68,8.27-51.43,8.27
	c-50.48,0-97.68-19.4-132.89-54.63c-34.744-34.53-54.228-81.526-54.11-130.51c0-12.636,1.361-25.236,4.06-37.58
	c8.79-40.62,32.07-77.57,65.55-104C204.254,46.58,246.651,31.958,290.3,32c52.21,0,100.86,20,137,56.18
	c34.16,34.27,52.88,79.33,52.73,126.87c-0.03,35.326-10.578,69.842-30.3,99.15l-0.19,0.28l-0.74,1c-0.17,0.23-0.34,0.45-0.5,0.68
	l-0.15,0.27c-0.398,0.677-0.758,1.374-1.08,2.09l15.74,55.94c0.696,2.308,1.073,4.7,1.12,7.11
	c0.017,13.255-10.715,24.013-23.97,24.03C439.94,405.6,439.92,405.6,439.9,405.6z"/>
<path d="M299.87,425.39c-2.091-4.066-5.846-7.023-10.29-8.1c-5.78-1.53-12.52-1.27-17.67-1.65
	c-48.627-3.381-94.386-24.25-128.82-58.75c-30.613-30.441-50.508-70.003-56.69-112.73C85,234.42,85,232,85,232
	c-0.002-8.837-7.166-15.999-16.003-15.997c-4.591,0.001-8.96,1.974-11.997,5.417l0,0c0,0-7.88,8.58-11.6,17.19
	c-21.178,48.795-17.067,104.875,11,150.06C59,393,59,395,58.42,399.5c-2.73,14.11-7.51,39-10,51.91
	c-1.679,8.525,1.381,17.291,8,22.92l0.46,0.39c4.3,3.415,9.629,5.276,15.12,5.28c3.089,0.003,6.147-0.606,9-1.79l53.51-20.65
	c1.842-0.7,3.878-0.7,5.72,0c21.07,7.84,43,12,63.78,12c25.891,0.024,51.469-5.664,74.91-16.66c5.46-2.56,14-5.34,19-11.12
	C301.788,437.198,302.554,430.752,299.87,425.39z"/>
</svg>
