<?xml version="1.0" encoding="iso-8859-1"?>
<!-- Generator: Adobe Illustrator 24.3.0, SVG Export Plug-In . SVG Version: 6.00 Build 0)  -->
<svg version="1.1" id="Layer_1" xmlns="http://www.w3.org/2000/svg" xmlns:xlink="http://www.w3.org/1999/xlink" x="0px" y="0px"
	 viewBox="0 0 512 512" style="enable-background:new 0 0 512 512;" xml:space="preserve">
<path d="M475.22,206.52c-10.34-48.65-37.76-92.93-77.22-124.68C357.647,49.553,307.5,31.975,255.82,32
	C194.9,32,138,55.47,95.46,98.09C54.35,139.33,31.82,193.78,32,251.37c0.001,42.223,12.397,83.517,35.65,118.76l4.35,6.05L48,480
	l114.8-28.56c0,0,2.3,0.77,4,1.42s16.33,6.26,31.85,10.6c12.9,3.6,39.74,9,60.77,9c59.65,0,115.35-23.1,156.83-65.06
	C457.36,365.77,480,310.42,480,251.49C480.003,236.373,478.401,221.299,475.22,206.52z M160,288c-17.673,0-32-14.327-32-32
	s14.327-32,32-32s32,14.327,32,32S177.673,288,160,288z M256,288c-17.673,0-32-14.327-32-32s14.327-32,32-32s32,14.327,32,32
	S273.673,288,256,288z M352,288c-17.673,0-32-14.327-32-32s14.327-32,32-32s32,14.327,32,32S369.673,288,352,288z"/>
</svg>
