<?xml version="1.0" encoding="iso-8859-1"?>
<!-- Generator: Adobe Illustrator 24.3.0, SVG Export Plug-In . SVG Version: 6.00 Build 0)  -->
<svg version="1.1" id="Layer_1" xmlns="http://www.w3.org/2000/svg" xmlns:xlink="http://www.w3.org/1999/xlink" x="0px" y="0px"
	 viewBox="0 0 512 512" style="enable-background:new 0 0 512 512;" xml:space="preserve">
<path d="M77.652,480.003L76.79,480c-14.115-0.044-25.563-11.563-25.521-25.678l0.045-1.257c0.164-2.185,0.555-4.358,1.163-6.464
	l19.15-69.27c-0.258-0.806-0.822-2.21-1.901-4.116c-0.482-0.797-1.006-1.576-1.559-2.318l-0.525-0.75
	C44.323,334.784,31.999,293.7,32,251.34c-0.18-57.574,22.36-112.018,63.466-153.252C137.95,55.47,194.902,32,255.83,32
	c51.761,0,102.264,17.702,142.206,49.844c39.461,31.755,66.877,76.037,77.195,124.687c3.156,14.725,4.764,29.86,4.769,44.955
	c0,58.935-22.642,114.289-63.755,155.873c-41.48,41.956-97.179,65.062-156.835,65.062c-21.098,0-47.909-5.359-60.782-8.962
	c-15.844-4.436-31.195-10.343-31.841-10.593c-1.706-0.655-3.522-0.994-5.377-0.996c-2.075,0.003-3.989,0.384-5.832,1.164
	l-0.807,0.316L87.32,477.693c-2.816,1.155-5.776,1.901-8.81,2.22L77.652,480.003z M94.13,352.187
	c1.118,1.527,2.175,3.122,3.146,4.748l0.154,0.264c5.773,10.097,7.624,19.18,5.5,26.996l-0.019,0.069l-16.516,59.742l57.147-20.624
	c5.72-2.354,11.775-3.552,17.948-3.513c5.742,0.008,11.407,1.062,16.801,3.136c0.609,0.235,14.576,5.61,28.962,9.638
	c13.473,3.77,36.333,7.777,52.157,7.777c51.04,0,98.656-19.731,134.079-55.561C428.641,349.305,448,301.94,448,251.49
	c-0.005-12.842-1.372-25.725-4.064-38.287c-8.802-41.496-32.225-79.281-65.962-106.43C343.697,79.191,300.319,64,255.83,64
	c-52.362,0-101.265,20.129-137.702,56.68C83.07,155.847,63.847,202.232,64,251.29C63.999,287.281,74.417,322.144,94.13,352.187z
	 M87.49,380h0.01H87.49z"/>
</svg>
