<?xml version="1.0" encoding="iso-8859-1"?>
<!-- Generator: Adobe Illustrator 24.3.0, SVG Export Plug-In . SVG Version: 6.00 Build 0)  -->
<svg version="1.1" id="Layer_1" xmlns="http://www.w3.org/2000/svg" xmlns:xlink="http://www.w3.org/1999/xlink" x="0px" y="0px"
	 viewBox="0 0 512 512" style="enable-background:new 0 0 512 512;" xml:space="preserve">
<path d="M448,312.43c0.77-1.11,1.51-2.26,2.27-3.34c19.341-28.745,29.69-62.594,29.73-97.24C480.32,112.55,396.54,32,292.94,32
	c-90.36,0-165.74,61.49-183.4,143.12c-2.649,12.098-3.99,24.445-4,36.83c0,99.4,80.56,182.11,184.16,182.11
	c16.47,0,38.66-4.95,50.83-8.29s24.23-7.75,27.35-8.94s8-2.41,11.89-1.29l77.42,22.38c2.119,0.626,4.343-0.584,4.969-2.703
	c0.208-0.703,0.218-1.449,0.031-2.157l-17.72-67.49C443.24,320.57,443.08,319.63,448,312.43z"/>
<path d="M312.54,415.38c-7.695,1.231-15.468,1.916-23.26,2.05c-42.43,0-82.5-11.2-115-32.2c-20.79-12.76-38.836-29.525-53.09-49.32
	c-26.08-34.57-40.3-78.51-40.3-124.49c0-3.13,0.11-6.14,0.22-9.16c0.107-2.395-1.748-4.422-4.143-4.529
	c-1.285-0.057-2.529,0.459-3.397,1.409c-49.274,53.914-55.407,134.49-14.86,195.24c2.47,3.77,3.87,6.68,3.44,8.62l-14.09,72.26
	c-0.411,2.171,1.016,4.263,3.187,4.674c0.679,0.128,1.379,0.079,2.033-0.144l68-24.24c4.165-1.647,8.814-1.567,12.92,0.22
	c20.35,8,42.86,12.92,65.37,12.92c43.328,0.142,85.064-16.319,116.63-46c1.697-1.654,1.731-4.37,0.077-6.066
	C315.307,415.628,313.914,415.164,312.54,415.38z"/>
</svg>
