<?xml version="1.0" encoding="iso-8859-1"?>
<!-- Generator: Adobe Illustrator 24.3.0, SVG Export Plug-In . SVG Version: 6.00 Build 0)  -->
<svg version="1.1" id="Layer_1" xmlns="http://www.w3.org/2000/svg" xmlns:xlink="http://www.w3.org/1999/xlink" x="0px" y="0px"
	 viewBox="0 0 512 512" style="enable-background:new 0 0 512 512;" xml:space="preserve">
<path d="M398,81.84C357.647,49.553,307.5,31.975,255.82,32C194.9,32,138,55.47,95.46,98.09C54.35,139.33,31.82,193.78,32,251.37
	c0.001,42.223,12.397,83.517,35.65,118.76l0.19,0.27c0.28,0.41,0.57,0.82,0.86,1.22s0.65,0.92,0.73,1.05l0.22,0.4
	c1.13,2,2,4.44,1.23,6.9l-18.42,66.66c-0.737,2.479-1.14,5.045-1.2,7.63c-0.028,14.161,11.409,25.674,25.57,25.74
	c3.594-0.119,7.136-0.895,10.45-2.29l67.49-24.36l0.85-0.33c1.836-0.771,3.809-1.162,5.8-1.15c1.836,0.005,3.656,0.343,5.37,1
	c1.62,0.63,16.33,6.26,31.85,10.6c12.9,3.6,39.74,9,60.77,9c59.65,0,115.35-23.1,156.83-65.06C457.36,365.77,480,310.42,480,251.49
	c0.005-15.127-1.597-30.212-4.78-45C464.88,157.87,437.46,113.59,398,81.84z M87.48,380L87.48,380z M160,288
	c-17.673,0-32-14.327-32-32s14.327-32,32-32s32,14.327,32,32S177.673,288,160,288z M256,288c-17.673,0-32-14.327-32-32
	s14.327-32,32-32s32,14.327,32,32S273.673,288,256,288z M352,288c-17.673,0-32-14.327-32-32s14.327-32,32-32s32,14.327,32,32
	S369.673,288,352,288z"/>
</svg>
