<?xml version="1.0" encoding="iso-8859-1"?>
<!-- Generator: Adobe Illustrator 24.3.0, SVG Export Plug-In . SVG Version: 6.00 Build 0)  -->
<svg version="1.1" id="Layer_1" xmlns="http://www.w3.org/2000/svg" xmlns:xlink="http://www.w3.org/1999/xlink" x="0px" y="0px"
	 viewBox="0 0 512 512" style="enable-background:new 0 0 512 512;" xml:space="preserve">
<path d="M408,48H104c-39.746,0.044-71.956,32.254-72,72v192c0.044,39.746,32.254,71.956,72,72h24v64
	c-0.002,8.837,7.159,16.002,15.996,16.004c3.748,0.001,7.377-1.314,10.254-3.714L245.74,384H408c39.746-0.044,71.956-32.254,72-72
	V120C479.956,80.254,447.746,48.044,408,48z M160,248c-17.673,0-32-14.327-32-32s14.327-32,32-32s32,14.327,32,32
	S177.673,248,160,248z M256,248c-17.673,0-32-14.327-32-32s14.327-32,32-32s32,14.327,32,32S273.673,248,256,248z M352,248
	c-17.673,0-32-14.327-32-32s14.327-32,32-32s32,14.327,32,32S369.673,248,352,248z"/>
</svg>
