<?xml version="1.0" encoding="iso-8859-1"?>
<!-- Generator: Adobe Illustrator 24.3.0, SVG Export Plug-In . SVG Version: 6.00 Build 0)  -->
<svg version="1.1" id="Layer_1" xmlns="http://www.w3.org/2000/svg" xmlns:xlink="http://www.w3.org/1999/xlink" x="0px" y="0px"
	 viewBox="0 0 512 512" style="enable-background:new 0 0 512 512;" xml:space="preserve">
<path d="M77.649,480.003L76.79,480c-14.12-0.044-25.573-11.568-25.53-25.688l0.045-1.246c0.164-2.185,0.555-4.358,1.163-6.464
	l19.154-69.285c-0.259-0.806-0.824-2.21-1.905-4.118c-0.467-0.78-0.979-1.541-1.52-2.264l-0.554-0.787
	C44.323,334.784,31.999,293.7,32,251.34c-0.185-57.57,22.35-112.013,63.453-153.248C137.937,55.472,194.889,32,255.82,32
	c51.762,0,102.266,17.701,142.209,49.843c39.465,31.757,66.879,76.039,77.193,124.688c3.159,14.722,4.769,29.858,4.777,44.95
	c0,58.938-22.642,114.292-63.755,155.876c-41.48,41.956-97.179,65.062-156.835,65.062c-21.098,0-47.909-5.359-60.782-8.962
	c-15.844-4.436-31.195-10.343-31.841-10.593c-1.706-0.655-3.528-0.994-5.387-0.996c-2.021,0.026-3.979,0.385-5.82,1.164
	l-0.809,0.316l-67.456,24.341c-2.819,1.159-5.78,1.906-8.811,2.223L77.649,480.003z M94.12,352.17
	c1.134,1.543,2.202,3.156,3.18,4.804l0.13,0.225c5.781,10.11,7.625,19.205,5.481,27.029l-0.01,0.036l-16.517,59.743l57.158-20.625
	c5.663-2.331,11.637-3.513,17.765-3.513c0.057,0,0.112,0,0.169,0c5.747,0.008,11.414,1.062,16.81,3.134
	c0.614,0.237,14.58,5.612,28.967,9.64c13.473,3.77,36.333,7.777,52.157,7.777c51.04,0,98.656-19.731,134.079-55.561
	C428.642,349.305,448,301.94,448,251.49c-0.007-12.836-1.378-25.719-4.073-38.283c-8.799-41.499-32.22-79.284-65.959-106.433
	C343.69,79.191,300.311,64,255.82,64c-52.364,0-101.268,20.13-137.703,56.683C83.062,155.851,63.843,202.234,64,251.289
	C63.999,287.275,74.414,322.132,94.12,352.17z M87.48,380h0.01H87.48z M72.049,375.773c-0.001,0.003-0.002,0.006-0.002,0.009
	L72.049,375.773z"/>
<circle cx="160" cy="256" r="32"/>
<circle cx="256" cy="256" r="32"/>
<circle cx="352" cy="256" r="32"/>
</svg>
