<?xml version="1.0" encoding="iso-8859-1"?>
<!-- Generator: Adobe Illustrator 24.3.0, SVG Export Plug-In . SVG Version: 6.00 Build 0)  -->
<svg version="1.1" id="Layer_1" xmlns="http://www.w3.org/2000/svg" xmlns:xlink="http://www.w3.org/1999/xlink" x="0px" y="0px"
	 viewBox="0 0 512 512" style="enable-background:new 0 0 512 512;" xml:space="preserve">
<path d="M439.9,405.6h-0.812l-0.809-0.082c-2.745-0.28-5.43-0.94-7.988-1.967l-56.747-20.115l-0.401-0.168
	c-1.223-0.51-2.514-0.768-3.839-0.768c-1.29,0.022-2.569,0.223-3.762,0.672c-1.335,0.506-13.722,5.167-26.809,8.758
	c-7.073,1.94-31.682,8.27-51.434,8.27c-50.484,0-97.679-19.399-132.891-54.626C119.516,310.666,100.3,264.331,100.3,215.1
	c0.007-12.632,1.376-25.284,4.069-37.614c8.781-40.587,32.061-77.537,65.545-104.012C203.739,46.729,246.493,32,290.3,32
	c52.214,0,100.855,19.952,136.966,56.179c34.161,34.272,52.889,79.33,52.734,126.873c-0.032,35.439-10.519,69.748-30.325,99.181
	l-0.555,0.773c-0.371,0.485-0.724,1.005-1.051,1.543c-0.473,0.819-0.804,1.495-1.024,2.002l15.729,55.914
	c0.562,1.921,0.925,3.908,1.079,5.909l0.047,1.226C463.9,394.833,453.134,405.6,439.9,405.6z M432.069,383.477h0.01H432.069z
	 M385.007,353.548l42.921,15.215l-12.344-43.881c-2.017-7.258-0.37-15.515,4.895-24.542l0.101-0.171
	c0.857-1.429,1.79-2.822,2.779-4.147c16.096-24.064,24.615-52.076,24.642-81.037c0.127-39.013-15.286-76.011-43.399-104.216
	C374.539,80.61,333.946,64,290.3,64c-36.634,0-72.339,12.279-100.539,34.576c-27.679,21.885-46.9,52.323-54.123,85.708
	c-2.212,10.127-3.333,20.488-3.338,30.826c0,40.676,15.889,78.979,44.741,107.842C206.208,352.13,245.366,368.2,287.3,368.2
	c12.531,0,30.979-3.841,42.968-7.129c11.861-3.255,23.468-7.645,23.956-7.83c4.824-1.818,9.847-2.735,14.962-2.74
	c0.056,0,0.111,0,0.167,0C374.718,350.5,379.995,351.525,385.007,353.548z"/>
<path d="M71.934,480c-5.452,0-10.793-1.865-15.062-5.265l-0.309-0.252c-6.71-5.623-9.826-14.452-8.131-23.042
	c2.854-14.865,8.88-46.234,11.14-57.843c-0.013-0.021-0.026-0.04-0.04-0.061c-16.669-24.832-26.141-53.751-27.391-83.633
	C30.89,280,37.923,250.371,52.48,224.218c4.297-7.721,14.041-10.497,21.762-6.198c7.721,4.297,10.496,14.041,6.198,21.762
	C56.5,282.79,58.681,334.89,86.131,375.747l0.06,0.09c3.685,5.566,7.217,12.315,5.51,20.201c-0.397,1.917-4.98,25.72-9.103,47.17
	l42.689-16.708c7.719-3.044,16.192-2.946,23.867,0.279c18.244,7.079,37.188,10.82,54.794,10.82c0.049,0,0.1,0,0.149,0
	c25.224,0,50.068-6.683,71.874-19.33c7.641-4.436,17.435-1.833,21.867,5.812c4.435,7.645,1.832,17.435-5.812,21.868
	c-26.676,15.474-57.074,23.649-87.912,23.65c-0.062,0-0.12,0-0.182,0c-21.598,0-44.642-4.527-66.623-13.092l-0.438-0.178
	l-55.936,21.893c-2.826,1.174-5.81,1.771-8.876,1.777C72.018,480,71.976,480,71.934,480z M79.858,457.479
	c-0.005,0.026-0.01,0.052-0.015,0.078C79.848,457.531,79.853,457.505,79.858,457.479z M60.435,389.226
	c-0.023,0.104-0.044,0.207-0.064,0.31C60.4,389.393,60.421,389.289,60.435,389.226z"/>
</svg>
