<?xml version="1.0" encoding="iso-8859-1"?>
<!-- Generator: Adobe Illustrator 24.3.0, SVG Export Plug-In . SVG Version: 6.00 Build 0)  -->
<svg version="1.1" id="Layer_1" xmlns="http://www.w3.org/2000/svg" xmlns:xlink="http://www.w3.org/1999/xlink" x="0px" y="0px"
	 viewBox="0 0 512 512" style="enable-background:new 0 0 512 512;" xml:space="preserve">
<path d="M456,48H56c-13.255,0-24,10.745-24,24v288c0,13.255,10.745,24,24,24h72v80l117.74-80H456c13.255,0,24-10.745,24-24V72
	C480,58.745,469.255,48,456,48z M160,248c-17.673,0-32-14.327-32-32s14.327-32,32-32s32,14.327,32,32S177.673,248,160,248z M256,248
	c-17.673,0-32-14.327-32-32s14.327-32,32-32s32,14.327,32,32S273.673,248,256,248z M352,248c-17.673,0-32-14.327-32-32
	s14.327-32,32-32s32,14.327,32,32S369.673,248,352,248z M456,80L456,80z"/>
</svg>
