<?xml version="1.0" encoding="iso-8859-1"?>
<!-- Generator: Adobe Illustrator 24.3.0, SVG Export Plug-In . SVG Version: 6.00 Build 0)  -->
<svg version="1.1" id="Layer_1" xmlns="http://www.w3.org/2000/svg" xmlns:xlink="http://www.w3.org/1999/xlink" x="0px" y="0px"
	 viewBox="0 0 512 512" style="enable-background:new 0 0 512 512;" xml:space="preserve">
<path d="M76.83,480c-14.161-0.066-25.598-11.579-25.57-25.74c0.06-2.585,0.463-5.151,1.2-7.63L70.88,380
	c0.77-2.46-0.1-4.94-1.23-6.9l-0.22-0.4c-0.08-0.13-0.46-0.66-0.73-1.05s-0.58-0.81-0.86-1.22l-0.19-0.27
	C44.392,334.908,31.996,293.603,32,251.37c-0.18-57.59,22.35-112,63.46-153.28C138,55.47,194.9,32,255.82,32
	C307.5,31.975,357.647,49.553,398,81.84c39.45,31.75,66.87,76,77.21,124.68c3.183,14.788,4.785,29.873,4.78,45
	c0,58.93-22.64,114.28-63.76,155.87c-41.48,42-97.18,65.06-156.83,65.06c-21,0-47.87-5.36-60.77-9c-15.52-4.34-30.23-10-31.85-10.6
	c-1.714-0.657-3.534-0.995-5.37-1c-1.991-0.012-3.964,0.379-5.8,1.15l-0.85,0.33l-67.48,24.38
	C83.966,479.105,80.424,479.881,76.83,480z M87.48,380L87.48,380z"/>
</svg>
