<?xml version="1.0" encoding="iso-8859-1"?>
<!-- Generator: Adobe Illustrator 24.3.0, SVG Export Plug-In . SVG Version: 6.00 Build 0)  -->
<svg version="1.1" id="Layer_1" xmlns="http://www.w3.org/2000/svg" xmlns:xlink="http://www.w3.org/1999/xlink" x="0px" y="0px"
	 viewBox="0 0 512 512" style="enable-background:new 0 0 512 512;" xml:space="preserve">
<path d="M143.998,464c-2.302,0-4.617-0.496-6.782-1.51C131.592,459.858,128,454.209,128,448v-64h-24
	c-39.609-0.112-71.887-32.392-72-71.954V120c0.113-39.609,32.391-71.887,71.955-72H408c0.016,0,0.03,0,0.046,0
	c39.562,0.113,71.842,32.391,71.954,71.955V312c-0.112,39.608-32.392,71.888-71.954,72h-162.3l-91.5,76.289
	C151.313,462.735,147.673,464,143.998,464z M144,352c8.836,0,16,7.163,16,16v45.828l67.474-56.258
	c4.295-3.589,9.759-5.57,15.372-5.57c0.005,0,0.008,0,0.013,0H408c21.973-0.062,39.938-18.027,40-40.046V120
	c-0.062-21.966-18.016-39.926-40.025-40H104c-21.973,0.062-39.938,18.027-40,40.045V312c0.062,21.973,18.027,39.938,40.045,40H144z
	 M242.85,384c0.001,0,0.003,0,0.004,0h0H242.85z"/>
<circle cx="160" cy="216" r="32"/>
<circle cx="256" cy="216" r="32"/>
<circle cx="352" cy="216" r="32"/>
</svg>
