<?xml version="1.0" encoding="iso-8859-1"?>
<!-- Generator: Adobe Illustrator 24.3.0, SVG Export Plug-In . SVG Version: 6.00 Build 0)  -->
<svg version="1.1" id="Layer_1" xmlns="http://www.w3.org/2000/svg" xmlns:xlink="http://www.w3.org/1999/xlink" x="0px" y="0px"
	 viewBox="0 0 512 512" style="enable-background:new 0 0 512 512;" xml:space="preserve">
<path d="M400,48H112c-35.33,0.039-63.961,28.67-64,64v288c0.039,35.33,28.67,63.961,64,64h288c35.33-0.039,63.961-28.67,64-64V112
	C463.961,76.67,435.33,48.039,400,48z M364.25,186.29l-134.4,160c-2.983,3.553-7.361,5.636-12,5.71h-0.27
	c-4.535-0.002-8.857-1.928-11.89-5.3l-57.6-64c-6.062-6.429-5.764-16.556,0.665-22.618c6.429-6.062,16.556-5.764,22.618,0.665
	c0.17,0.18,0.336,0.364,0.497,0.552l45.29,50.32l122.59-145.91c5.781-6.683,15.885-7.415,22.568-1.634
	C368.866,169.739,369.722,179.582,364.25,186.29L364.25,186.29z"/>
</svg>
