<?xml version="1.0" encoding="iso-8859-1"?>
<!-- Generator: Adobe Illustrator 24.3.0, SVG Export Plug-In . SVG Version: 6.00 Build 0)  -->
<svg version="1.1" id="Layer_1" xmlns="http://www.w3.org/2000/svg" xmlns:xlink="http://www.w3.org/1999/xlink" x="0px" y="0px"
	 viewBox="0 0 512 512" style="enable-background:new 0 0 512 512;" xml:space="preserve">
<path d="M240,400c-4.236,0-8.308-1.681-11.313-4.687l-96-96c-6.248-6.248-6.248-16.379,0-22.627c6.249-6.248,16.379-6.248,22.628,0
	l83.907,83.906l212.738-243.129c5.818-6.649,15.926-7.326,22.577-1.505c6.65,5.819,7.324,15.927,1.505,22.577l-224,256
	c-2.916,3.333-7.083,5.308-11.509,5.455C240.354,399.997,240.177,400,240,400z"/>
<path d="M144,400c-4.095,0-8.189-1.562-11.314-4.687l-96-96c-6.248-6.248-6.248-16.379,0-22.627c6.249-6.248,16.379-6.248,22.628,0
	l96,96c6.248,6.248,6.248,16.379,0,22.627C152.189,398.438,148.095,400,144,400z"/>
<path d="M231.993,300c-3.729,0-7.475-1.296-10.507-3.939c-6.661-5.807-7.353-15.914-1.546-22.574l136-156.001
	c5.808-6.66,15.915-7.353,22.574-1.546c6.661,5.807,7.354,15.914,1.547,22.575l-136,156C240.897,298.143,236.457,300,231.993,300z"
	/>
</svg>
