<?xml version="1.0" encoding="iso-8859-1"?>
<!-- Generator: Adobe Illustrator 24.3.0, SVG Export Plug-In . SVG Version: 6.00 Build 0)  -->
<svg version="1.1" id="Layer_1" xmlns="http://www.w3.org/2000/svg" xmlns:xlink="http://www.w3.org/1999/xlink" x="0px" y="0px"
	 viewBox="0 0 512 512" style="enable-background:new 0 0 512 512;" xml:space="preserve">
<path d="M256,48C141.31,48,48,141.31,48,256s93.31,208,208,208s208-93.31,208-208S370.69,48,256,48z M364.25,186.29l-134.4,160
	c-2.983,3.553-7.361,5.636-12,5.71h-0.27c-4.535-0.002-8.857-1.928-11.89-5.3l-57.6-64c-6.062-6.429-5.764-16.556,0.665-22.618
	c6.429-6.062,16.556-5.764,22.618,0.665c0.17,0.18,0.336,0.364,0.497,0.552l45.29,50.32l122.59-145.91
	c5.781-6.683,15.885-7.415,22.568-1.634C368.866,169.739,369.722,179.582,364.25,186.29L364.25,186.29z"/>
</svg>
