<?xml version="1.0" encoding="iso-8859-1"?>
<!-- Generator: Adobe Illustrator 24.3.0, SVG Export Plug-In . SVG Version: 6.00 Build 0)  -->
<svg version="1.1" id="Layer_1" xmlns="http://www.w3.org/2000/svg" xmlns:xlink="http://www.w3.org/1999/xlink" x="0px" y="0px"
	 viewBox="0 0 512 512" style="enable-background:new 0 0 512 512;" xml:space="preserve">
<path d="M256,464C141.309,464,48,370.692,48,256c0-114.691,93.309-208,208-208s208,93.309,208,208C464,370.692,370.691,464,256,464z
	 M256,80c-97.047,0-176,78.953-176,176C80,353.047,158.953,432,256,432S432,353.047,432,256C432,158.953,353.047,80,256,80z"/>
<path d="M217.6,352c-4.531,0-8.855-1.922-11.892-5.297l-57.6-64c-5.912-6.567-5.379-16.685,1.189-22.596
	c6.569-5.912,16.686-5.378,22.596,1.189l45.291,50.323l122.565-145.912c5.683-6.767,15.776-7.644,22.542-1.96
	c6.767,5.684,7.644,15.776,1.96,22.542L229.852,346.291c-2.979,3.546-7.348,5.628-11.978,5.707
	C217.782,351.999,217.691,352,217.6,352z"/>
</svg>
