<?xml version="1.0" encoding="iso-8859-1"?>
<!-- Generator: Adobe Illustrator 24.3.0, SVG Export Plug-In . SVG Version: 6.00 Build 0)  -->
<svg version="1.1" id="Layer_1" xmlns="http://www.w3.org/2000/svg" xmlns:xlink="http://www.w3.org/1999/xlink" x="0px" y="0px"
	 viewBox="0 0 512 512" style="enable-background:new 0 0 512 512;" xml:space="preserve">
<path d="M258.9,48C141.92,46.42,46.42,141.92,48,258.9c1.56,112.19,92.91,203.54,205.1,205.1c117,1.6,212.48-93.9,210.88-210.88
	C462.44,140.91,371.09,49.56,258.9,48z M242.11,240.47l51.55-59c5.816-6.655,15.925-7.336,22.58-1.52
	c6.655,5.816,7.336,15.925,1.52,22.58l-51.55,59c-5.816,6.655-15.925,7.336-22.58,1.52
	C236.975,257.234,236.294,247.125,242.11,240.47L242.11,240.47L242.11,240.47z M203.25,331.32c-6.248,6.243-16.372,6.243-22.62,0
	l-47.95-48c-6.246-6.252-6.242-16.384,0.01-22.63c6.252-6.246,16.384-6.242,22.63,0.01l48,48
	C209.544,314.967,209.513,325.092,203.25,331.32z M380.05,202.53l-111.88,128c-2.914,3.338-7.081,5.319-11.51,5.47h-0.54
	c-4.246,0.001-8.318-1.687-11.32-4.69l-47.94-48c-6.246-6.252-6.242-16.384,0.01-22.63c6.252-6.246,16.384-6.242,22.63,0.01l0,0
	l29.8,29.83c3.124,3.125,8.189,3.125,11.314,0.002c0.126-0.126,0.249-0.257,0.366-0.392l95-108.66
	c5.816-6.655,15.925-7.336,22.58-1.52c6.655,5.816,7.336,15.925,1.52,22.58l0,0L380.05,202.53z"/>
</svg>
