<?xml version="1.0" encoding="iso-8859-1"?>
<!-- Generator: Adobe Illustrator 24.3.0, SVG Export Plug-In . SVG Version: 6.00 Build 0)  -->
<svg version="1.1" id="Layer_1" xmlns="http://www.w3.org/2000/svg" xmlns:xlink="http://www.w3.org/1999/xlink" x="0px" y="0px"
	 viewBox="0 0 512 512" style="enable-background:new 0 0 512 512;" xml:space="preserve">
<path d="M256,464C141.309,464,48,370.692,48,256c0-114.691,93.309-208,208-208s208,93.309,208,208C464,370.692,370.691,464,256,464z
	 M256,80c-97.047,0-176,78.953-176,176C80,353.047,158.953,432,256,432S432,353.047,432,256C432,158.953,353.047,80,256,80z"/>
<path d="M256.129,336c-4.239,0-8.312-1.683-11.319-4.692l-47.95-48c-6.245-6.252-6.24-16.382,0.012-22.627
	c6.251-6.245,16.382-6.24,22.627,0.012l35.85,35.887l100.604-115.109c5.814-6.653,15.922-7.334,22.576-1.518
	c6.653,5.815,7.333,15.923,1.518,22.577L268.177,330.53c-2.916,3.337-7.085,5.314-11.514,5.462
	C256.485,335.997,256.307,336,256.129,336z"/>
<path d="M191.95,336c-4.098,0-8.195-1.564-11.319-4.692l-47.95-48c-6.246-6.251-6.24-16.382,0.012-22.627
	c6.251-6.245,16.382-6.24,22.627,0.012l47.95,48c6.246,6.251,6.24,16.382-0.012,22.627C200.134,334.44,196.042,336,191.95,336z"/>
<path d="M254.154,267c-3.736,0-7.487-1.301-10.521-3.951c-6.654-5.814-7.335-15.922-1.521-22.577l51.55-59
	c5.813-6.654,15.922-7.335,22.576-1.521s7.336,15.922,1.521,22.576l-51.55,59.001C263.046,265.148,258.611,267,254.154,267z"/>
</svg>
