<?xml version="1.0" encoding="iso-8859-1"?>
<!-- Generator: Adobe Illustrator 24.3.0, SVG Export Plug-In . SVG Version: 6.00 Build 0)  -->
<svg version="1.1" id="Layer_1" xmlns="http://www.w3.org/2000/svg" xmlns:xlink="http://www.w3.org/1999/xlink" x="0px" y="0px"
	 viewBox="0 0 512 512" style="enable-background:new 0 0 512 512;" xml:space="preserve">
<path d="M117.863,88.282c-8.681,10.017-7.598,25.174,2.419,33.855l120,104c9.02,7.818,22.416,7.818,31.436,0l120-104
	c10.017-8.681,11.1-23.838,2.419-33.855s-23.839-11.099-33.855-2.418L256,176.241L151.718,85.864
	C141.702,77.183,126.544,78.266,117.863,88.282z M117.863,423.718c-8.681-10.017-7.598-25.174,2.419-33.855l120-104
	c9.02-7.818,22.416-7.818,31.436,0l120,104c10.017,8.681,11.1,23.838,2.419,33.855s-23.839,11.099-33.855,2.418L256,335.759
	l-104.282,90.377C141.702,434.817,126.544,433.734,117.863,423.718L117.863,423.718z"/>
</svg>
