<?xml version="1.0" encoding="iso-8859-1"?>
<!-- Generator: Adobe Illustrator 24.3.0, SVG Export Plug-In . SVG Version: 6.00 Build 0)  -->
<svg version="1.1" id="Layer_1" xmlns="http://www.w3.org/2000/svg" xmlns:xlink="http://www.w3.org/1999/xlink" x="0px" y="0px"
	 viewBox="0 0 512 512" style="enable-background:new 0 0 512 512;" xml:space="preserve">
<path d="M375.989,232c-5.571,0-11.167-1.929-15.708-5.864L256,135.759l-104.282,90.377c-10.016,8.681-25.173,7.598-33.855-2.418
	c-8.681-10.017-7.598-25.174,2.418-33.855l120-104c9.021-7.816,22.416-7.817,31.437,0l120,104
	c10.016,8.681,11.099,23.838,2.418,33.855C389.391,229.194,382.709,232,375.989,232z"/>
<path d="M256,432c-5.604,0-11.208-1.954-15.718-5.863l-120-104c-10.017-8.682-11.099-23.839-2.418-33.855
	c8.681-10.017,23.838-11.098,33.855-2.418L256,376.242l104.281-90.378c10.017-8.682,25.175-7.599,33.855,2.418
	s7.598,25.174-2.418,33.855l-120,104C267.208,430.046,261.604,432,256,432z"/>
</svg>
