<?xml version="1.0" encoding="iso-8859-1"?>
<!-- Generator: Adobe Illustrator 24.3.0, SVG Export Plug-In . SVG Version: 6.00 Build 0)  -->
<svg version="1.1" id="Layer_1" xmlns="http://www.w3.org/2000/svg" xmlns:xlink="http://www.w3.org/1999/xlink" x="0px" y="0px"
	 viewBox="0 0 512 512" style="enable-background:new 0 0 512 512;" xml:space="preserve">
<path d="M352,312c-4.096,0-8.189-1.562-11.313-4.687L256,222.627l-84.686,84.687c-6.249,6.248-16.379,6.248-22.627,0
	c-6.249-6.248-6.249-16.379,0-22.627l96-96.001c3.001-3.001,7.07-4.687,11.314-4.687c4.243,0,8.313,1.686,11.313,4.687l96,96.001
	c6.249,6.248,6.249,16.379,0,22.627C360.189,310.438,356.095,312,352,312z"/>
<path d="M256,464C141.309,464,48,370.692,48,256c0-114.691,93.309-208,208-208s208,93.309,208,208C464,370.692,370.691,464,256,464z
	 M256,80c-97.047,0-176,78.953-176,176C80,353.047,158.953,432,256,432S432,353.047,432,256C432,158.953,353.047,80,256,80z"/>
</svg>
