<?xml version="1.0" encoding="iso-8859-1"?>
<!-- Generator: Adobe Illustrator 24.3.0, SVG Export Plug-In . SVG Version: 6.00 Build 0)  -->
<svg version="1.1" id="Layer_1" xmlns="http://www.w3.org/2000/svg" xmlns:xlink="http://www.w3.org/1999/xlink" x="0px" y="0px"
	 viewBox="0 0 512 512" style="enable-background:new 0 0 512 512;" xml:space="preserve">
<path d="M464,256c0-114.87-93.13-208-208-208S48,141.13,48,256s93.13,208,208,208S464,370.87,464,256z M363.31,227.31l-96,96
	c-6.248,6.243-16.372,6.243-22.62,0l-96-96c-6.086-6.406-5.827-16.534,0.579-22.62c6.176-5.867,15.865-5.867,22.04,0L256,289.37
	l84.69-84.68c6.406-6.086,16.534-5.827,22.62,0.579C369.177,211.445,369.177,221.135,363.31,227.31z"/>
</svg>
