<?xml version="1.0" encoding="iso-8859-1"?>
<!-- Generator: Adobe Illustrator 24.3.0, SVG Export Plug-In . SVG Version: 6.00 Build 0)  -->
<svg version="1.1" id="Layer_1" xmlns="http://www.w3.org/2000/svg" xmlns:xlink="http://www.w3.org/1999/xlink" x="0px" y="0px"
	 viewBox="0 0 512 512" style="enable-background:new 0 0 512 512;" xml:space="preserve">
<path d="M256,48C141.13,48,48,141.13,48,256s93.13,208,208,208s208-93.13,208-208S370.87,48,256,48z M291.31,340.69
	c6.406,6.086,6.666,16.214,0.579,22.62s-16.214,6.666-22.62,0.579c-0.198-0.188-0.391-0.381-0.579-0.579l-96-96
	c-6.243-6.248-6.243-16.372,0-22.62l96-96c6.406-6.086,16.534-5.827,22.62,0.579c5.867,6.176,5.867,15.865,0,22.04L206.63,256
	L291.31,340.69z"/>
</svg>
