<?xml version="1.0" encoding="iso-8859-1"?>
<!-- Generator: Adobe Illustrator 24.3.0, SVG Export Plug-In . SVG Version: 6.00 Build 0)  -->
<svg version="1.1" id="Layer_1" xmlns="http://www.w3.org/2000/svg" xmlns:xlink="http://www.w3.org/1999/xlink" x="0px" y="0px"
	 viewBox="0 0 512 512" style="enable-background:new 0 0 512 512;" xml:space="preserve">
<path d="M256,224c-3.736,0-7.472-1.303-10.479-3.909l-120-104c-6.678-5.787-7.399-15.892-1.612-22.57
	c5.787-6.678,15.892-7.398,22.57-1.612L256,186.827l109.521-94.918c6.676-5.788,16.781-5.066,22.569,1.612
	c5.787,6.678,5.065,16.783-1.612,22.57l-120,104C263.472,222.697,259.736,224,256,224z"/>
<path d="M375.993,424c-3.714,0-7.445-1.285-10.472-3.909L256,325.173l-109.521,94.918c-6.679,5.786-16.783,5.066-22.57-1.612
	c-5.788-6.678-5.066-16.782,1.612-22.569l120-104c6.014-5.212,14.945-5.212,20.958,0l120,104c6.678,5.787,7.399,15.892,1.612,22.569
	C384.927,422.13,380.473,424,375.993,424z"/>
</svg>
