<?xml version="1.0" encoding="iso-8859-1"?>
<!-- Generator: Adobe Illustrator 24.3.0, SVG Export Plug-In . SVG Version: 6.00 Build 0)  -->
<svg version="1.1" id="Layer_1" xmlns="http://www.w3.org/2000/svg" xmlns:xlink="http://www.w3.org/1999/xlink" x="0px" y="0px"
	 viewBox="0 0 512 512" style="enable-background:new 0 0 512 512;" xml:space="preserve">
<path d="M256,48C141.13,48,48,141.13,48,256s93.13,208,208,208s208-93.13,208-208S370.87,48,256,48z M363.31,307.31
	c-6.248,6.243-16.372,6.243-22.62,0L256,222.63l-84.69,84.68c-6.406,6.086-16.534,5.827-22.62-0.579
	c-5.867-6.176-5.867-15.865,0-22.04l96-96c6.248-6.243,16.372-6.243,22.62,0l96,96C369.553,290.938,369.553,301.063,363.31,307.31z"
	/>
</svg>
