<?xml version="1.0" encoding="iso-8859-1"?>
<!-- Generator: Adobe Illustrator 24.3.0, SVG Export Plug-In . SVG Version: 6.00 Build 0)  -->
<svg version="1.1" id="Layer_1" xmlns="http://www.w3.org/2000/svg" xmlns:xlink="http://www.w3.org/1999/xlink" x="0px" y="0px"
	 viewBox="0 0 512 512" style="enable-background:new 0 0 512 512;" xml:space="preserve">
<path d="M368,48h-11.41c-3.288-0.003-6.24-2.019-7.44-5.08c-6.292-16.213-21.889-26.902-39.28-26.92H202.13
	c-17.391,0.018-32.988,10.707-39.28,26.92c-1.2,3.061-4.152,5.077-7.44,5.08H144c-35.346,0-64,28.654-64,64v320
	c0,35.346,28.654,64,64,64h224c35.346,0,64-28.654,64-64V112C432,76.654,403.346,48,368,48z M319.87,112H192.13
	c-8.837,0-16-7.163-16-16s7.163-16,16-16h127.74c8.837,0,16,7.163,16,16S328.707,112,319.87,112z"/>
</svg>
