<?xml version="1.0" encoding="iso-8859-1"?>
<!-- Generator: Adobe Illustrator 24.3.0, SVG Export Plug-In . SVG Version: 6.00 Build 0)  -->
<svg version="1.1" id="Layer_1" xmlns="http://www.w3.org/2000/svg" xmlns:xlink="http://www.w3.org/1999/xlink" x="0px" y="0px"
	 viewBox="0 0 512 512" style="enable-background:new 0 0 512 512;" xml:space="preserve">
<path d="M368,496H144c-35.29,0-64-28.71-64-64V112c0-35.29,28.71-64,64-64h32v32h-32c-17.645,0-32,14.355-32,32v320
	c0,17.645,14.355,32,32,32h224c17.645,0,32-14.355,32-32V112c0-17.645-14.355-32-32-32h-32V48h32c35.29,0,64,28.71,64,64v320
	C432,467.29,403.29,496,368,496z"/>
<path d="M309.87,112H202.13C178.899,112,160,93.101,160,69.87V58.13C160,34.899,178.899,16,202.13,16h107.74
	C333.101,16,352,34.899,352,58.13v11.74C352,93.101,333.101,112,309.87,112z M202.13,48C196.544,48,192,52.544,192,58.13v11.74
	c0,5.585,4.544,10.13,10.13,10.13h107.74c5.586,0,10.13-4.544,10.13-10.13V58.13c0-5.585-4.544-10.13-10.13-10.13H202.13z"/>
</svg>
