<?xml version="1.0" encoding="iso-8859-1"?>
<!-- Generator: Adobe Illustrator 24.3.0, SVG Export Plug-In . SVG Version: 6.00 Build 0)  -->
<svg version="1.1" id="Layer_1" xmlns="http://www.w3.org/2000/svg" xmlns:xlink="http://www.w3.org/1999/xlink" x="0px" y="0px"
	 viewBox="0 0 512 512" style="enable-background:new 0 0 512 512;" xml:space="preserve">
<path d="M289.94,256l95-95c9.389-9.372,9.402-24.581,0.03-33.97S360.389,117.628,351,127l0,0l-95,95l-95-95
	c-9.389-9.389-24.611-9.389-34,0s-9.389,24.611,0,34l95,95l-95,95c-9.389,9.389-9.389,24.611,0,34s24.611,9.389,34,0l95-95l95,95
	c9.389,9.389,24.611,9.389,34,0s9.389-24.611,0-34L289.94,256z"/>
</svg>
