<?xml version="1.0" encoding="iso-8859-1"?>
<!-- Generator: Adobe Illustrator 24.3.0, SVG Export Plug-In . SVG Version: 6.00 Build 0)  -->
<svg version="1.1" id="Layer_1" xmlns="http://www.w3.org/2000/svg" xmlns:xlink="http://www.w3.org/1999/xlink" x="0px" y="0px"
	 viewBox="0 0 512 512" style="enable-background:new 0 0 512 512;" xml:space="preserve">
<path d="M368,384c-4.096,0-8.189-1.562-11.313-4.687l-224-224.001c-6.248-6.248-6.248-16.379,0-22.627
	c6.248-6.248,16.378-6.249,22.627,0l224,224.001c6.249,6.248,6.249,16.379,0,22.627C376.189,382.438,372.095,384,368,384z"/>
<path d="M144,384c-4.095,0-8.189-1.562-11.313-4.687c-6.249-6.248-6.249-16.379,0-22.627l224-224.001
	c6.248-6.249,16.379-6.249,22.627,0c6.249,6.249,6.249,16.379,0,22.627l-224,224.001C152.189,382.438,148.095,384,144,384z"/>
</svg>
