<?xml version="1.0" encoding="iso-8859-1"?>
<!-- Generator: Adobe Illustrator 24.3.0, SVG Export Plug-In . SVG Version: 6.00 Build 0)  -->
<svg version="1.1" id="Layer_1" xmlns="http://www.w3.org/2000/svg" xmlns:xlink="http://www.w3.org/1999/xlink" x="0px" y="0px"
	 viewBox="0 0 512 512" style="enable-background:new 0 0 512 512;" xml:space="preserve">
<path d="M256,464C141.309,464,48,370.692,48,256c0-114.691,93.309-208,208-208s208,93.309,208,208C464,370.692,370.691,464,256,464z
	 M256,80c-97.047,0-176,78.953-176,176C80,353.047,158.953,432,256,432S432,353.047,432,256C432,158.953,353.047,80,256,80z"/>
<path d="M320,336c-4.096,0-8.189-1.562-11.313-4.687l-128-128.001c-6.249-6.248-6.249-16.379,0-22.627
	c6.248-6.248,16.378-6.249,22.627,0l128,128.001c6.249,6.248,6.249,16.379,0,22.627C328.189,334.438,324.095,336,320,336z"/>
<path d="M192,336c-4.095,0-8.189-1.562-11.313-4.687c-6.249-6.248-6.249-16.379,0-22.627l128-128.001
	c6.248-6.249,16.379-6.249,22.627,0c6.249,6.249,6.249,16.379,0,22.627l-128,128.001C200.189,334.438,196.095,336,192,336z"/>
</svg>
