<?xml version="1.0" encoding="iso-8859-1"?>
<!-- Generator: Adobe Illustrator 24.3.0, SVG Export Plug-In . SVG Version: 6.00 Build 0)  -->
<svg version="1.1" id="Layer_1" xmlns="http://www.w3.org/2000/svg" xmlns:xlink="http://www.w3.org/1999/xlink" x="0px" y="0px"
	 viewBox="0 0 512 512" style="enable-background:new 0 0 512 512;" xml:space="preserve">
<path d="M472.7,189.5c-13.26-8.43-29.83-14.56-48.08-17.93c-6.286-1.204-11.25-6.038-12.62-12.29
	c-7.86-34.51-24.6-64.13-49.15-86.58C334.15,46.45,296.21,32,256,32c-35.35,0-68,11.08-94.37,32
	c-17.81,14.2-32.155,32.266-41.95,52.83c-2.211,4.705-6.564,8.048-11.68,8.97c-27.13,4.9-50.53,14.68-68.41,28.7
	C13.7,174.83,0,203.56,0,237.6C0,305,55.93,352,136,352h104V224.45c0-8.61,6.62-16,15.23-16.43
	c8.826-0.425,16.326,6.385,16.751,15.211c0.012,0.256,0.018,0.512,0.019,0.769v128h124c72.64,0,116-34.24,116-91.6
	C512,230.35,498.41,205.83,472.7,189.5z"/>
<path d="M240,425.42l-36.7-36.64c-6.346-6.15-16.475-5.991-22.625,0.355c-6.023,6.215-6.012,16.093,0.025,22.295l64,63.89
	c6.245,6.23,16.355,6.23,22.6,0l64-63.89c6.164-6.332,6.027-16.462-0.305-22.625c-6.202-6.037-16.08-6.048-22.295-0.025L272,425.42
	V352h-32V425.42z"/>
</svg>
