<?xml version="1.0" encoding="iso-8859-1"?>
<!-- Generator: Adobe Illustrator 24.3.0, SVG Export Plug-In . SVG Version: 6.00 Build 0)  -->
<svg version="1.1" id="Layer_1" xmlns="http://www.w3.org/2000/svg" xmlns:xlink="http://www.w3.org/1999/xlink" x="0px" y="0px"
	 viewBox="0 0 512 512" style="enable-background:new 0 0 512 512;" xml:space="preserve">
<path d="M473.66,210c-16.56-12.3-37.7-20.75-59.52-24c-6.62-39.18-24.21-72.67-51.3-97.45C334.15,62.25,296.21,47.79,256,47.79
	c-35.35,0-68,11.08-94.37,32.05c-20.035,15.952-35.64,36.78-45.32,60.49c-29.94,4.6-57.12,16.68-77.39,34.55
	C13.46,197.33,0,227.24,0,261.39c0,34.52,14.49,66,40.79,88.76c25.12,21.69,58.94,33.64,95.21,33.64h104V230.42l-48,48l-22.63-22.63
	L256,169.17l86.63,86.62L320,278.42l-48-48v153.37h124c31.34,0,59.91-8.8,80.45-24.77c23.26-18.1,35.55-44,35.55-74.83
	C512,254.25,498.74,228.58,473.66,210z"/>
<rect x="240" y="383.79" width="32" height="80.41"/>
</svg>
