<?xml version="1.0" encoding="iso-8859-1"?>
<!-- Generator: Adobe Illustrator 24.3.0, SVG Export Plug-In . SVG Version: 6.00 Build 0)  -->
<svg version="1.1" id="Layer_1" xmlns="http://www.w3.org/2000/svg" xmlns:xlink="http://www.w3.org/1999/xlink" x="0px" y="0px"
	 viewBox="0 0 512 512" style="enable-background:new 0 0 512 512;" xml:space="preserve">
<path d="M333.88,240.59c-3.43-0.539-6.121-3.23-6.66-6.66C320.68,192.78,290.82,168,256,168c-32.37,0-53.93,21.22-62.48,43.58
	c-1.01,2.649-3.36,4.556-6.16,5c-27.67,4.35-50.82,22.56-51.35,54.3c-0.52,31.53,25.51,57.11,57,57.11H326c27.5,0,50-13.72,50-44
	C376,256.77,354,243.58,333.88,240.59z"/>
<path d="M256,464C141.309,464,48,370.692,48,256c0-114.691,93.309-208,208-208s208,93.309,208,208C464,370.692,370.691,464,256,464z
	 M256,80c-97.047,0-176,78.953-176,176C80,353.047,158.953,432,256,432S432,353.047,432,256C432,158.953,353.047,80,256,80z"/>
</svg>
