<?xml version="1.0" encoding="iso-8859-1"?>
<!-- Generator: Adobe Illustrator 24.3.0, SVG Export Plug-In . SVG Version: 6.00 Build 0)  -->
<svg version="1.1" id="Layer_1" xmlns="http://www.w3.org/2000/svg" xmlns:xlink="http://www.w3.org/1999/xlink" x="0px" y="0px"
	 viewBox="0 0 512 512" style="enable-background:new 0 0 512 512;" xml:space="preserve">
<path d="M396,383.79h-76c-8.837,0-16-7.163-16-16s7.163-16,16-16h76c24.262,0,45.854-6.404,60.8-18.032
	c15.395-11.977,23.2-28.654,23.2-49.568c0-19.69-8.551-36.026-25.416-48.553c-14.743-10.951-35.444-18.079-55.376-19.066
	c-7.881-0.391-14.301-6.469-15.121-14.317c-3.853-36.864-18.668-68.04-42.845-90.155C318.466,91.264,288.193,79.79,256,79.79
	c-28.045,0-53.793,8.679-74.462,25.099c-17.886,14.209-31.488,33.737-38.302,54.986c-1.954,6.094-7.352,10.438-13.723,11.043
	C80.976,175.529,32,205.292,32,261.39c0,25.07,10.551,47.99,29.708,64.536C81.02,342.605,107.403,351.79,136,351.79h56
	c8.836,0,16,7.163,16,16s-7.164,16-16,16h-56c-36.274,0-70.086-11.949-95.208-33.646C14.487,327.425,0,295.905,0,261.39
	c0-34.149,13.458-64.063,38.919-86.51c20.271-17.87,47.453-29.956,77.389-34.555c9.464-23.377,25.295-44.581,45.324-60.492
	C188.02,58.871,220.652,47.79,256,47.79c40.208,0,78.151,14.453,106.841,40.697c27.093,24.784,44.679,58.277,51.302,97.452
	c21.823,3.255,42.968,11.712,59.523,24.01C498.744,228.577,512,254.249,512,284.19c0,30.856-12.293,56.73-35.55,74.825
	C455.914,374.992,427.344,383.79,396,383.79z"/>
<path d="M320,271.789c-4.095,0-8.189-1.562-11.313-4.686L256,214.417l-52.687,52.687c-6.248,6.248-16.379,6.248-22.627,0
	c-6.249-6.249-6.249-16.379,0-22.627l64-64c6.248-6.249,16.379-6.249,22.627,0l64,64c6.249,6.248,6.249,16.378,0,22.627
	C328.189,270.228,324.095,271.789,320,271.789z"/>
<path d="M256,464.21c-8.836,0-16-7.163-16-16V207.79c0-8.836,7.164-16,16-16c8.837,0,16,7.164,16,16v240.42
	C272,457.047,264.837,464.21,256,464.21z"/>
</svg>
