<?xml version="1.0" encoding="iso-8859-1"?>
<!-- Generator: Adobe Illustrator 24.3.0, SVG Export Plug-In . SVG Version: 6.00 Build 0)  -->
<svg version="1.1" id="Layer_1" xmlns="http://www.w3.org/2000/svg" xmlns:xlink="http://www.w3.org/1999/xlink" x="0px" y="0px"
	 viewBox="0 0 512 512" style="enable-background:new 0 0 512 512;" xml:space="preserve">
<path d="M340,480H106c-29.5,0-54.92-7.83-73.53-22.64C11.23,440.44,0,415.35,0,384.8c0-29.44,12.09-54.25,35-71.74
	c14.55-11.13,33.41-18.87,53.2-22c6.06-36.92,21.92-68.53,46.29-92c26.191-25.199,61.165-39.208,97.51-39.06
	c32.33,0,62.15,10.65,86.24,30.79c18.154,15.314,32.19,34.926,40.83,57.05c27.18,4.48,51.59,15.68,69.56,32.08
	C451.77,301,464,329.82,464,363.2c0,32.85-13.13,62.87-37,84.52C404.11,468.54,373.2,480,340,480z"/>
<path d="M381.55,219.93c26.5,6.93,50,19.32,68.65,36.34c2.593,2.373,5.083,4.82,7.47,7.34c25.41-18.4,45.47-44.92,54.33-71.38
	c-16.24,7.07-35.31,9.85-54.15,9.85c-73.42,0-115.93-42.51-115.93-115.93c0-18.84,2.78-37.91,9.85-54.15
	c-40.41,13.53-81,53.19-92.52,98.13c29.305,4.563,56.803,17.054,79.52,36.12C356.472,181.106,371.019,199.359,381.55,219.93z"/>
</svg>
