<?xml version="1.0" encoding="iso-8859-1"?>
<!-- Generator: Adobe Illustrator 24.3.0, SVG Export Plug-In . SVG Version: 6.00 Build 0)  -->
<svg version="1.1" id="Layer_1" xmlns="http://www.w3.org/2000/svg" xmlns:xlink="http://www.w3.org/1999/xlink" x="0px" y="0px"
	 viewBox="0 0 512 512" style="enable-background:new 0 0 512 512;" xml:space="preserve">
<path d="M256,48C141.13,48,48,141.13,48,256s93.13,208,208,208s208-93.13,208-208S370.87,48,256,48z M326,328H196c-33,0-60-23-60-56
	c0-34.21,26-53,56-56c7.28-23.9,29.5-48,64-48c36.5,0,67.55,27.23,72,72c21.49,1.12,48,14.09,48,44C376,314.28,353.5,328,326,328z"
	/>
</svg>
