<?xml version="1.0" encoding="iso-8859-1"?>
<!-- Generator: Adobe Illustrator 24.3.0, SVG Export Plug-In . SVG Version: 6.00 Build 0)  -->
<svg version="1.1" id="Layer_1" xmlns="http://www.w3.org/2000/svg" xmlns:xlink="http://www.w3.org/1999/xlink" x="0px" y="0px"
	 viewBox="0 0 512 512" style="enable-background:new 0 0 512 512;" xml:space="preserve">
<path d="M424.44,227.25c-6.121-1.395-10.86-6.24-12.12-12.39c-7.68-36.68-24.45-68.15-49.18-92
	C334.356,95.189,295.927,79.816,256,80c-35.5,0-68.24,11.69-94.68,33.8c-18.055,15.25-32.416,34.397-42,56
	c-2.097,4.702-6.329,8.107-11.37,9.15c-27,5.62-51.07,17.34-69.18,33.87C13.39,235.88,0,267.42,0,304c0,36,14.38,68.88,40.49,92.59
	C65.64,419.43,99.56,432,136,432h260c32.37,0,60.23-8.57,80.59-24.77C499.76,388.78,512,361.39,512,328
	C512,270.43,470,237.42,424.44,227.25z M329.24,218.31l-107.8,128c-2.987,3.546-7.365,5.621-12,5.69h-0.27
	c-4.529,0.001-8.846-1.918-11.88-5.28l-45.9-50.87c-5.77-6.39-5.82-16.33,0.3-22.4c6.267-6.23,16.398-6.199,22.627,0.068
	c0.182,0.183,0.36,0.371,0.533,0.562l33.9,37.58l96-114c5.694-6.76,15.79-7.624,22.55-1.93c6.76,5.694,7.624,15.79,1.93,22.55l0,0
	L329.24,218.31z"/>
</svg>
