<?xml version="1.0" encoding="iso-8859-1"?>
<!-- Generator: Adobe Illustrator 24.3.0, SVG Export Plug-In . SVG Version: 6.00 Build 0)  -->
<svg version="1.1" id="Layer_1" xmlns="http://www.w3.org/2000/svg" xmlns:xlink="http://www.w3.org/1999/xlink" x="0px" y="0px"
	 viewBox="0 0 512 512" style="enable-background:new 0 0 512 512;" xml:space="preserve">
<path d="M256,48C141.13,48,48,141.13,48,256s93.13,208,208,208s208-93.13,208-208S370.87,48,256,48z M326,328H193.05
	c-31.53,0-57.56-25.58-57-57.11c0.53-31.74,23.68-49.95,51.35-54.3c2.8-0.444,5.15-2.351,6.16-5C202.07,189.22,223.63,168,256,168
	c33.17,0,61.85,22.49,70.14,60.21c1.464,6.629,6.58,11.842,13.18,13.43C357.79,246.05,376,259.21,376,284
	C376,314.28,353.5,328,326,328z"/>
</svg>
