<?xml version="1.0" encoding="iso-8859-1"?>
<!-- Generator: Adobe Illustrator 24.3.0, SVG Export Plug-In . SVG Version: 6.00 Build 0)  -->
<svg version="1.1" id="Layer_1" xmlns="http://www.w3.org/2000/svg" xmlns:xlink="http://www.w3.org/1999/xlink" x="0px" y="0px"
	 viewBox="0 0 512 512" style="enable-background:new 0 0 512 512;" xml:space="preserve">
<rect x="239.999" y="-31.53" transform="matrix(0.7071 -0.7071 0.7071 0.7071 -106.0391 255.9991)" width="32" height="575.06"/>
<path d="M38.72,212.78C13.39,235.88,0,267.42,0,304c0,36,14.38,68.88,40.49,92.59C65.64,419.43,99.56,432,136,432h228.12
	L110.51,178.39C82.5,183.78,57.42,195.72,38.72,212.78z"/>
<path d="M476.59,407.23C499.76,388.78,512,361.39,512,328c0-61.85-48.44-95.34-97.75-102.64c-6.52-41.18-24.05-76.4-51.11-102.46
	C334.363,95.214,295.933,79.826,256,80c-30.47,0-58.9,8.62-83.07,25l302.82,302.86C476,407.65,476.32,407.45,476.59,407.23z"/>
</svg>
