<?xml version="1.0" encoding="iso-8859-1"?>
<!-- Generator: Adobe Illustrator 24.3.0, SVG Export Plug-In . SVG Version: 6.00 Build 0)  -->
<svg version="1.1" id="Layer_1" xmlns="http://www.w3.org/2000/svg" xmlns:xlink="http://www.w3.org/1999/xlink" x="0px" y="0px"
	 viewBox="0 0 512 512" style="enable-background:new 0 0 512 512;" xml:space="preserve">
<path d="M388.31,288c-8.837,0-16-7.163-16-16s7.163-16,16-16c27.6,0,53.231-10.645,71.788-28.675
	c-3.735,0.243-7.562,0.365-11.478,0.365c-72.956,0-132.311-59.354-132.311-132.31c0-3.916,0.122-7.742,0.365-11.478
	C298.644,102.459,288,128.091,288,155.69c-0.007,8.202,0.991,16.378,2.967,24.316c2.134,8.575-3.088,17.256-11.662,19.39
	c-8.573,2.131-17.256-3.086-19.391-11.663c-2.606-10.472-3.923-21.257-3.914-32.057c0-53.542,30.825-101.571,78.532-122.346
	c6.028-2.626,13.048-1.296,17.698,3.353c4.65,4.648,5.984,11.668,3.362,17.697c-4.765,10.956-7.283,25.133-7.283,40.999
	c0,55.311,44.999,100.31,100.311,100.31c15.867,0,30.045-2.518,40.999-7.282c6.027-2.622,13.048-1.29,17.697,3.361
	c4.648,4.65,5.979,11.671,3.353,17.699C489.895,257.174,441.865,288,388.31,288z"/>
<path d="M340,480H106c-29.495,0-54.921-7.831-73.528-22.646C11.229,440.442,0,415.353,0,384.8c0-26.657,10.076-49.794,29.139-66.908
	c15.234-13.677,36.171-23.21,58.952-26.843c0.022-0.003,0.044-0.007,0.067-0.01c0.03-0.005,0.054-0.028,0.059-0.058
	c6.418-38.983,23.808-72.07,50.285-95.664C164.059,172.543,197.265,160,232,160c30.23,0,58.484,9.395,81.706,27.168
	c19.939,15.261,36.047,36.802,45.364,60.666c29.409,4.811,54.716,17.098,73.185,35.536C453.022,304.103,464,331.708,464,363.2
	c0,32.856-13.129,62.873-36.969,84.521C404.107,468.537,373.199,480,340,480z M93.096,322.656
	c-16.759,2.678-31.88,9.442-42.58,19.048C38.23,352.734,32,367.234,32,384.8c0,57.042,51.75,63.2,74,63.2h234
	c25.228,0,48.496-8.513,65.52-23.971C422.596,408.524,432,386.92,432,363.2c0-16.669-5.638-71.975-78.174-83.798
	c-11.059-1.807-20.456-9.409-24.53-19.842C316.569,226.893,284.33,192,232,192c-27.265,0-52.235,9.409-72.21,27.209
	c-20.951,18.669-34.783,45.292-40.002,76.991C117.515,309.896,106.793,320.517,93.096,322.656z"/>
</svg>
