<?xml version="1.0" encoding="iso-8859-1"?>
<!-- Generator: Adobe Illustrator 24.3.0, SVG Export Plug-In . SVG Version: 6.00 Build 0)  -->
<svg version="1.1" id="Layer_1" xmlns="http://www.w3.org/2000/svg" xmlns:xlink="http://www.w3.org/1999/xlink" x="0px" y="0px"
	 viewBox="0 0 512 512" style="enable-background:new 0 0 512 512;" xml:space="preserve">
<path d="M473.66,210c-14-10.38-31.2-18-49.36-22.11c-6.087-1.369-10.836-6.13-12.19-12.22c-7.8-34.75-24.59-64.55-49.27-87.13
	C334.15,62.25,296.21,47.79,256,47.79c-35.35,0-68,11.08-94.37,32.05c-17.872,14.235-32.257,32.362-42.06,53
	c-2.155,4.579-6.349,7.868-11.31,8.87c-26.75,5.4-50.9,16.87-69.34,33.12C13.46,197.33,0,227.24,0,261.39
	c0,34.52,14.49,66,40.79,88.76c25.12,21.69,58.94,33.64,95.21,33.64h104V230.42l-36.69,36.69
	c-6.249,6.248-16.379,6.248-22.627-0.001c-0.182-0.182-0.36-0.368-0.533-0.559c-5.8-6.37-5.24-16.3,0.85-22.39l63.69-63.68
	c6.248-6.243,16.372-6.243,22.62,0L331,244.14c6.28,6.29,6.64,16.6,0.39,22.91c-6.217,6.279-16.348,6.33-22.627,0.113
	c-0.018-0.017-0.035-0.035-0.053-0.053L272,230.42v153.37h124c31.34,0,59.91-8.8,80.45-24.77c23.26-18.1,35.55-44,35.55-74.83
	C512,254.25,498.74,228.58,473.66,210z"/>
<path d="M240,448.21c0,8.837,7.163,16,16,16c8.837,0,16-7.163,16-16v-64.42h-32V448.21z"/>
</svg>
