<?xml version="1.0" encoding="iso-8859-1"?>
<!-- Generator: Adobe Illustrator 24.3.0, SVG Export Plug-In . SVG Version: 6.00 Build 0)  -->
<svg version="1.1" id="Layer_1" xmlns="http://www.w3.org/2000/svg" xmlns:xlink="http://www.w3.org/1999/xlink" x="0px" y="0px"
	 viewBox="0 0 512 512" style="enable-background:new 0 0 512 512;" xml:space="preserve">
<path d="M448,464c-4.244,0.007-8.316-1.681-11.31-4.69l-384-384c-6.086-6.406-5.827-16.534,0.579-22.62
	c6.176-5.867,15.865-5.867,22.041,0l384,384c6.246,6.25,6.243,16.381-0.007,22.627C456.304,462.314,452.239,463.998,448,464z"/>
<path d="M38.72,196.78C13.39,219.88,0,251.42,0,288c0,36,14.38,68.88,40.49,92.59C65.64,403.43,99.56,416,136,416h192.8
	c4.418,0.003,8.003-3.575,8.006-7.994c0.002-2.125-0.843-4.164-2.346-5.666L100.88,168.76c-2.091-2.096-5.169-2.865-8-2
	C72,173.15,53.4,183.38,38.72,196.78z"/>
<path d="M476.59,391.23C499.76,372.78,512,345.39,512,312c0-57.57-42-90.58-87.56-100.75c-6.121-1.395-10.86-6.24-12.12-12.39
	c-7.68-36.68-24.45-68.15-49.18-92C334.356,79.189,295.927,63.816,256,64c-31.12,0-60.12,9-84.62,26.1
	c-3.647,2.494-4.581,7.473-2.086,11.12c0.279,0.409,0.596,0.79,0.946,1.14L461.68,393.8c2.73,2.731,7.021,3.122,10.2,0.93
	C473.5,393.61,475.07,392.443,476.59,391.23z"/>
</svg>
