<?xml version="1.0" encoding="iso-8859-1"?>
<!-- Generator: Adobe Illustrator 24.3.0, SVG Export Plug-In . SVG Version: 6.00 Build 0)  -->
<svg version="1.1" id="Layer_1" xmlns="http://www.w3.org/2000/svg" xmlns:xlink="http://www.w3.org/1999/xlink" x="0px" y="0px"
	 viewBox="0 0 512 512" style="enable-background:new 0 0 512 512;" xml:space="preserve">
<path d="M414.25,225.36c-6.52-41.18-24.05-76.4-51.11-102.46C334.363,95.214,295.933,79.826,256,80c-35.5,0-68.24,11.69-94.68,33.8
	c-20.206,17.042-35.763,38.926-45.22,63.61c-30.26,4.81-57.45,17.18-77.38,35.37C13.39,235.88,0,267.42,0,304
	c0,36,14.38,68.88,40.49,92.59C65.64,419.43,99.56,432,136,432h260c32.37,0,60.23-8.57,80.59-24.77
	C499.76,388.78,512,361.39,512,328C512,266.15,463.56,232.66,414.25,225.36z M209.62,360.36l-69.22-76.7l23.76-21.44l44.62,49.46
	l106.29-126.2l24.47,20.61L209.62,360.36z"/>
</svg>
