<?xml version="1.0" encoding="iso-8859-1"?>
<!-- Generator: Adobe Illustrator 24.3.0, SVG Export Plug-In . SVG Version: 6.00 Build 0)  -->
<svg version="1.1" id="Layer_1" xmlns="http://www.w3.org/2000/svg" xmlns:xlink="http://www.w3.org/1999/xlink" x="0px" y="0px"
	 viewBox="0 0 512 512" style="enable-background:new 0 0 512 512;" xml:space="preserve">
<path d="M376,432H116c-32.367,0-60.234-8.566-80.591-24.772C12.244,388.786,0,361.389,0,328c0-29.396,11.199-54.83,32.386-73.556
	c16.963-14.993,40.196-25.319,65.422-29.078h0.002c6.8-43.234,25.856-79.975,55.047-106.184C181,93.915,217.631,80,256,80
	c33.354,0,64.494,10.402,90.056,30.083c21.985,16.926,39.672,40.787,49.802,67.185c0.03,0.078,0.062,0.104,0.102,0.11
	c32.555,5.17,60.563,18.617,81,38.886C499.883,239,512,269.339,512,304c0,35.999-14.381,68.884-40.494,92.596
	C446.363,419.427,412.445,432,376,432z M256,112c-30.907,0-59.18,10.718-81.765,30.995c-23.663,21.245-39.183,51.485-44.883,87.45
	c-2.199,13.822-12.968,24.495-26.8,26.569c-0.005,0.001-0.01,0.001-0.015,0.002c-19.186,2.857-36.574,10.46-48.96,21.407
	C39.26,291.077,32,307.757,32,328c0,21.648,8.185,72,84,72h260c28.474,0,54.752-9.623,73.994-27.096
	C469.344,355.334,480,330.864,480,304c0-26.31-8.604-48.185-25.576-65.017c-15.644-15.516-37.596-25.89-63.483-30.002
	c-11.324-1.798-20.895-9.573-24.974-20.29C351.747,151.638,315.38,112,256,112z"/>
</svg>
