<?xml version="1.0" encoding="iso-8859-1"?>
<!-- Generator: Adobe Illustrator 24.3.0, SVG Export Plug-In . SVG Version: 6.00 Build 0)  -->
<svg version="1.1" id="Layer_1" xmlns="http://www.w3.org/2000/svg" xmlns:xlink="http://www.w3.org/1999/xlink" x="0px" y="0px"
	 viewBox="0 0 512 512" style="enable-background:new 0 0 512 512;" xml:space="preserve">
<path d="M376,432H116c-32.37,0-60.23-8.57-80.59-24.77C12.24,388.78,0,361.39,0,328c0-61.85,48.44-95.34,97.75-102.64
	c6.52-41.18,24-76.4,51.11-102.46C177.637,95.214,216.067,79.826,256,80c35.5,0,68.24,11.69,94.68,33.8
	c20.206,17.042,35.763,38.926,45.22,63.61c30.26,4.81,57.45,17.18,77.38,35.36C498.61,235.88,512,267.42,512,304
	c0,36-14.38,68.88-40.49,92.59C446.36,419.43,412.44,432,376,432z"/>
</svg>
