<?xml version="1.0" encoding="iso-8859-1"?>
<!-- Generator: Adobe Illustrator 24.3.0, SVG Export Plug-In . SVG Version: 6.00 Build 0)  -->
<svg version="1.1" id="Layer_1" xmlns="http://www.w3.org/2000/svg" xmlns:xlink="http://www.w3.org/1999/xlink" x="0px" y="0px"
	 viewBox="0 0 512 512" style="enable-background:new 0 0 512 512;" xml:space="preserve">
<path d="M396,432H136c-36.44,0-70.36-12.57-95.51-35.41C14.38,372.88,0,340,0,304c0-36.58,13.39-68.12,38.72-91.22
	c18.11-16.53,42.22-28.25,69.18-33.87c5.041-1.043,9.273-4.448,11.37-9.15c9.599-21.608,23.977-40.756,42.05-56
	C187.76,91.69,220.5,80,256,80c39.933-0.174,78.363,15.214,107.14,42.9c24.73,23.81,41.5,55.28,49.18,92
	c1.26,6.15,5.999,10.995,12.12,12.39C470,237.42,512,270.43,512,328c0,33.39-12.24,60.78-35.41,79.23
	C456.23,423.43,428.37,432,396,432z"/>
</svg>
