<?xml version="1.0" encoding="iso-8859-1"?>
<!-- Generator: Adobe Illustrator 24.3.0, SVG Export Plug-In . SVG Version: 6.00 Build 0)  -->
<svg version="1.1" id="Layer_1" xmlns="http://www.w3.org/2000/svg" xmlns:xlink="http://www.w3.org/1999/xlink" x="0px" y="0px"
	 viewBox="0 0 512 512" style="enable-background:new 0 0 512 512;" xml:space="preserve">
<path d="M396,352h-76c-8.837,0-16-7.163-16-16s7.163-16,16-16h76c25.977,0,47.326-5.087,61.74-14.711
	c14.979-10,22.26-24.684,22.26-44.89c0-19.079-8-33.436-24.456-43.893c-14.237-9.047-34.244-14.632-56.336-15.726
	c-7.881-0.391-14.301-6.469-15.121-14.317c-3.853-36.864-18.668-68.04-42.845-90.155C318.466,75.474,288.193,64,256,64
	c-28.045,0-53.793,8.679-74.462,25.099c-17.886,14.209-31.488,33.737-38.302,54.986c-1.954,6.094-7.352,10.438-13.723,11.043
	C100.194,157.913,32,171.525,32,237.6c0,56.922,52.234,82.4,104,82.4h56c8.836,0,16,7.163,16,16s-7.164,16-16,16h-56
	C55.925,352,0,304.957,0,237.6c0-34.038,13.703-62.773,39.628-83.099c19.678-15.428,46.041-25.726,76.709-30.037
	c9.468-23.348,25.288-44.526,45.295-60.421C188.02,43.08,220.652,32,256,32c40.208,0,78.151,14.453,106.841,40.697
	c27.049,24.743,44.622,58.172,51.27,97.265c22.387,2.746,42.835,9.521,58.596,19.537C498.412,205.833,512,230.351,512,260.4
	C512,317.757,468.636,352,396,352z"/>
<path d="M256,480c-4.091,0-8.182-1.56-11.305-4.678l-64-63.9c-6.253-6.243-6.261-16.374-0.018-22.627
	c6.244-6.254,16.374-6.262,22.627-0.018L256,441.391l52.695-52.613c6.253-6.243,16.384-6.235,22.627,0.018
	c6.244,6.253,6.236,16.384-0.018,22.627l-64,63.9C264.182,478.441,260.091,480,256,480z"/>
<path d="M256,464.03c-8.836,0-16-7.163-16-16V224c0-8.836,7.164-16,16-16c8.837,0,16,7.164,16,16v224.03
	C272,456.867,264.837,464.03,256,464.03z"/>
</svg>
