<?xml version="1.0" encoding="iso-8859-1"?>
<!-- Generator: Adobe Illustrator 24.3.0, SVG Export Plug-In . SVG Version: 6.00 Build 0)  -->
<svg version="1.1" id="Layer_1" xmlns="http://www.w3.org/2000/svg" xmlns:xlink="http://www.w3.org/1999/xlink" x="0px" y="0px"
	 viewBox="0 0 512 512" style="enable-background:new 0 0 512 512;" xml:space="preserve">
<path d="M376,432H116c-32.37,0-60.23-8.57-80.59-24.77C12.24,388.78,0,361.39,0,328c0-57.57,42-90.58,87.56-100.75
	c6.121-1.395,10.86-6.24,12.12-12.39c7.68-36.68,24.45-68.15,49.18-92C177.644,95.189,216.073,79.816,256,80
	c35.5,0,68.24,11.69,94.68,33.8c18.073,15.244,32.451,34.392,42.05,56c2.095,4.705,6.327,8.115,11.37,9.16
	c27,5.61,51.07,17.33,69.18,33.85C498.61,235.88,512,267.42,512,304c0,36-14.38,68.88-40.49,92.59C446.36,419.43,412.44,432,376,432
	z"/>
</svg>
