<?xml version="1.0" encoding="iso-8859-1"?>
<!-- Generator: Adobe Illustrator 24.3.0, SVG Export Plug-In . SVG Version: 6.00 Build 0)  -->
<svg version="1.1" id="Layer_1" xmlns="http://www.w3.org/2000/svg" xmlns:xlink="http://www.w3.org/1999/xlink" x="0px" y="0px"
	 viewBox="0 0 512 512" style="enable-background:new 0 0 512 512;" xml:space="preserve">
<path d="M340,480H106c-29.5,0-54.92-7.83-73.53-22.64C11.23,440.44,0,415.35,0,384.8c0-29.44,12.09-54.25,35-71.74
	c12.1-9.26,27.2-16.17,43.33-20.05c5.951-1.472,10.537-6.214,11.81-12.21c7.15-32.54,22.25-60.49,44.33-81.75
	c26.198-25.2,61.18-39.206,97.53-39.05c32.33,0,62.15,10.65,86.24,30.79c16.053,13.532,28.911,30.45,37.65,49.54
	c2.092,4.576,6.208,7.908,11.12,9c24,5.22,45.42,15.78,61.62,30.56C451.77,301,464,329.82,464,363.2c0,32.85-13.13,62.87-37,84.52
	C404.11,468.54,373.2,480,340,480z"/>
<path d="M510.53,209.79c2.307-5.147,1.797-11.119-1.35-15.8c-4.348-6.303-12.552-8.643-19.57-5.58c-10.7,4.65-24.48,7.17-39.92,7.28
	c-55.3,0.4-101.38-45-101.38-100.31c0-15.75,2.48-29.84,7.18-40.76c2.373-5.379,1.666-11.619-1.85-16.33
	c-4.457-5.864-12.341-7.928-19.1-5c-38.63,16.82-66.18,51.51-75.27,92.54c-0.472,2.158,0.895,4.29,3.053,4.762
	c0.046,0.01,0.091,0.019,0.137,0.028c28.121,4.954,54.441,17.23,76.31,35.59c15.999,13.417,29.43,29.627,39.64,47.84
	c2.073,3.684,5.492,6.422,9.54,7.64c23.89,7.17,45.1,18.9,62.25,34.54c2.96,2.713,5.787,5.52,8.48,8.42
	c1.346,1.432,3.534,1.674,5.16,0.57C484.376,251.58,500.578,232.345,510.53,209.79z"/>
</svg>
