<?xml version="1.0" encoding="iso-8859-1"?>
<!-- Generator: Adobe Illustrator 24.3.0, SVG Export Plug-In . SVG Version: 6.00 Build 0)  -->
<svg version="1.1" id="Layer_1" xmlns="http://www.w3.org/2000/svg" xmlns:xlink="http://www.w3.org/1999/xlink" x="0px" y="0px"
	 viewBox="0 0 512 512" style="enable-background:new 0 0 512 512;" xml:space="preserve">
<path d="M396,432H136c-36.445,0-70.363-12.573-95.506-35.404C14.381,372.884,0,339.999,0,304c0-36.576,13.388-68.122,38.718-91.225
	c19.936-18.185,47.119-30.554,77.383-35.364c9.393-24.559,25.194-46.864,45.22-63.61C187.765,91.688,220.504,80,256,80
	c40.361,0,78.41,15.234,107.139,42.897c27.066,26.062,44.59,61.283,51.106,102.465C463.564,232.656,512,266.152,512,328
	c0,33.389-12.244,60.785-35.409,79.228C456.234,423.434,428.366,432,396,432z M256,112c-27.896,0-53.538,9.111-74.151,26.349
	c-17.981,15.036-31.669,35.746-38.543,58.313c-1.881,6.176-7.29,10.616-13.713,11.258C57.638,215.116,32,262.27,32,304
	c0,26.863,10.656,51.334,30.006,68.904C81.248,390.377,107.526,400,136,400h260c75.815,0,84-50.352,84-72
	c0-22.104-8.611-39.896-25.594-52.883c-14.503-11.09-34.636-18.066-55.238-19.139c-7.896-0.412-14.309-6.529-15.09-14.398
	c-3.885-39.133-18.801-72.202-43.135-95.632C318.208,124.056,288.041,112,256,112z"/>
</svg>
