<?xml version="1.0" encoding="iso-8859-1"?>
<!-- Generator: Adobe Illustrator 24.3.0, SVG Export Plug-In . SVG Version: 6.00 Build 0)  -->
<svg version="1.1" id="Layer_1" xmlns="http://www.w3.org/2000/svg" xmlns:xlink="http://www.w3.org/1999/xlink" x="0px" y="0px"
	 viewBox="0 0 512 512" style="enable-background:new 0 0 512 512;" xml:space="preserve">
<path d="M320.37,416H136c-36.445,0-70.363-12.573-95.506-35.405C14.381,356.884,0,323.999,0,288c0-29.86,8.665-55.893,25.752-77.374
	c15.252-19.172,36.999-33.886,62.891-42.55c8.379-2.806,17.446,1.715,20.25,10.096c2.804,8.38-1.716,17.446-10.096,20.25
	c-20.012,6.696-36.61,17.805-48.002,32.125C38.324,246.226,32,265.556,32,288c0,26.863,10.656,51.334,30.006,68.905
	C81.248,374.377,107.526,384,136,384h184.37c8.837,0,16,7.163,16,16S329.207,416,320.37,416z"/>
<path d="M467.829,393.74c-4.599,0-9.163-1.972-12.327-5.789c-5.64-6.804-4.695-16.89,2.107-22.529
	C472.467,353.106,480,335.133,480,312c0-25.187-17.024-68.698-80.832-72.022c-7.896-0.412-14.309-6.529-15.09-14.398
	c-3.885-39.133-18.801-72.202-43.135-95.632C318.208,108.056,288.041,96,256,96c-21.735,0-41.723,5.344-59.409,15.884
	c-7.589,4.526-17.411,2.039-21.935-5.553c-4.524-7.591-2.038-17.412,5.553-21.935C202.918,70.862,228.418,64,256,64
	c40.361,0,78.41,15.234,107.139,42.897c27.066,26.062,44.59,61.283,51.106,102.465C463.564,216.656,512,250.151,512,312
	c0,32.646-11.746,59.637-33.969,78.058C475.045,392.533,471.427,393.74,467.829,393.74z"/>
<path d="M448,464c-4.095,0-8.189-1.562-11.313-4.687l-384-384c-6.248-6.248-6.248-16.379,0-22.627
	c6.249-6.249,16.379-6.249,22.628,0l384,384c6.249,6.248,6.249,16.379,0,22.627C456.189,462.438,452.095,464,448,464z"/>
</svg>
