<?xml version="1.0" encoding="iso-8859-1"?>
<!-- Generator: Adobe Illustrator 24.3.0, SVG Export Plug-In . SVG Version: 6.00 Build 0)  -->
<svg version="1.1" id="Layer_1" xmlns="http://www.w3.org/2000/svg" xmlns:xlink="http://www.w3.org/1999/xlink" x="0px" y="0px"
	 viewBox="0 0 512 512" style="enable-background:new 0 0 512 512;" xml:space="preserve">
<g>
	<circle cx="256" cy="256" r="26"/>
	<path d="M256,287c-17.093,0-31-13.907-31-31.001s13.907-31,31-31c17.094,0,31,13.907,31,31S273.094,287,256,287z M256,235
		c-11.58,0-21,9.42-21,21c0,11.58,9.42,21.001,21,21.001c11.579,0,21-9.421,21-21.001C277,244.42,267.579,235,256,235z"/>
</g>
<g>
	<circle cx="346" cy="256" r="26"/>
	<path d="M346,287c-17.094,0-31-13.907-31-31.001s13.906-31,31-31s31,13.907,31,31S363.094,287,346,287z M346,235
		c-11.579,0-21,9.42-21,21c0,11.58,9.421,21.001,21,21.001s21-9.421,21-21.001C367,244.42,357.579,235,346,235z"/>
</g>
<g>
	<circle cx="166" cy="256" r="26"/>
	<path d="M166,287c-17.093,0-31-13.907-31-31.001s13.907-31,31-31s31,13.907,31,31S183.093,287,166,287z M166,235
		c-11.58,0-21,9.42-21,21c0,11.58,9.42,21.001,21,21.001s21-9.421,21-21.001C187,244.42,177.58,235,166,235z"/>
</g>
<polygon points="161.976,397.633 0.109,256 161.976,114.367 189.633,145.976 63.891,256 189.633,366.025 "/>
<polygon points="350.024,397.633 322.367,366.025 448.109,256 322.367,145.976 350.024,114.367 511.891,256 "/>
</svg>
