<?xml version="1.0" encoding="iso-8859-1"?>
<!-- Generator: Adobe Illustrator 24.3.0, SVG Export Plug-In . SVG Version: 6.00 Build 0)  -->
<svg version="1.1" id="Layer_1" xmlns="http://www.w3.org/2000/svg" xmlns:xlink="http://www.w3.org/1999/xlink" x="0px" y="0px"
	 viewBox="0 0 512 512" style="enable-background:new 0 0 512 512;" xml:space="preserve">
<path d="M159.994,384c-3.74,0-7.495-1.303-10.53-3.959l-128-112C17.992,265.003,16,260.614,16,256c0-4.614,1.992-9.003,5.464-12.041
	l128-112c6.65-5.818,16.759-5.146,22.577,1.505c5.819,6.65,5.145,16.758-1.505,22.577L56.297,256l114.239,99.959
	c6.65,5.818,7.324,15.927,1.505,22.577C168.878,382.152,164.447,384,159.994,384z"/>
<path d="M352.007,384c-4.454,0-8.885-1.849-12.048-5.464c-5.819-6.65-5.146-16.759,1.505-22.577L455.702,256l-114.238-99.959
	c-6.65-5.819-7.324-15.927-1.505-22.577c5.818-6.649,15.926-7.325,22.577-1.505l128,112C494.009,246.997,496,251.386,496,256
	c0,4.614-1.991,9.003-5.464,12.042l-128,112C359.501,382.697,355.745,384,352.007,384z"/>
<path d="M256,368c-4.091,0-8.182-1.56-11.305-4.678l-64-63.9c-6.253-6.243-6.261-16.374-0.018-22.627
	c6.244-6.255,16.374-6.263,22.627-0.018L256,329.391l52.695-52.613c6.253-6.243,16.384-6.235,22.627,0.018
	c6.244,6.253,6.236,16.384-0.018,22.627l-64,63.9C264.182,366.441,260.091,368,256,368z"/>
<path d="M256,352.03c-8.836,0-16-7.163-16-16V160c0-8.836,7.164-16,16-16c8.837,0,16,7.164,16,16v176.03
	C272,344.867,264.837,352.03,256,352.03z"/>
</svg>
