<?xml version="1.0" encoding="iso-8859-1"?>
<!-- Generator: Adobe Illustrator 24.3.0, SVG Export Plug-In . SVG Version: 6.00 Build 0)  -->
<svg version="1.1" id="Layer_1" xmlns="http://www.w3.org/2000/svg" xmlns:xlink="http://www.w3.org/1999/xlink" x="0px" y="0px"
	 viewBox="0 0 512 512" style="enable-background:new 0 0 512 512;" xml:space="preserve">
<path d="M160,389c-5.086,0.005-9.999-1.844-13.82-5.2l-128-112c-8.726-7.64-9.607-20.907-1.967-29.633
	c0.611-0.698,1.268-1.355,1.967-1.967l128-112c8.729-7.638,21.997-6.754,29.635,1.975c7.638,8.729,6.754,21.997-1.975,29.635l0,0
	L63.89,256l109.94,96.19c8.732,7.634,9.622,20.9,1.988,29.632C171.829,386.385,166.062,389.002,160,389z"/>
<path d="M352,389c-11.598,0.01-21.008-9.384-21.018-20.982c-0.005-6.065,2.612-11.836,7.178-15.828L448.11,256l-109.94-96.19
	c-8.729-7.638-9.613-20.906-1.975-29.635s20.906-9.613,29.635-1.975l128,112c8.726,7.64,9.607,20.907,1.967,29.633
	c-0.611,0.698-1.268,1.355-1.967,1.967l-128,112C362.007,387.16,357.09,389.009,352,389z"/>
</svg>
