<?xml version="1.0" encoding="iso-8859-1"?>
<!-- Generator: Adobe Illustrator 24.3.0, SVG Export Plug-In . SVG Version: 6.00 Build 0)  -->
<svg version="1.1" id="Layer_1" xmlns="http://www.w3.org/2000/svg" xmlns:xlink="http://www.w3.org/1999/xlink" x="0px" y="0px"
	 viewBox="0 0 512 512" style="enable-background:new 0 0 512 512;" xml:space="preserve">
<path d="M159.994,384c-3.74,0-7.495-1.303-10.53-3.959l-128-112C17.992,265.003,16,260.614,16,256c0-4.614,1.992-9.003,5.464-12.041
	l128-112c6.65-5.818,16.759-5.146,22.577,1.505c5.819,6.65,5.145,16.758-1.505,22.577L56.297,256l114.239,99.959
	c6.65,5.818,7.324,15.927,1.505,22.577C168.878,382.152,164.447,384,159.994,384z"/>
<path d="M352.007,384c-4.454,0-8.885-1.849-12.048-5.464c-5.819-6.65-5.146-16.759,1.505-22.577L455.702,256l-114.238-99.959
	c-6.65-5.819-7.324-15.927-1.505-22.577c5.818-6.649,15.926-7.325,22.577-1.505l128,112C494.009,246.997,496,251.386,496,256
	c0,4.614-1.991,9.003-5.464,12.042l-128,112C359.501,382.697,355.745,384,352.007,384z"/>
<path d="M208.006,432.004c-1.522,0-3.071-0.219-4.604-0.679c-8.464-2.539-13.267-11.459-10.728-19.923l96-320
	c2.539-8.463,11.461-13.266,19.923-10.728c8.464,2.539,13.267,11.459,10.728,19.923l-96,320
	C221.246,427.529,214.888,432.004,208.006,432.004z"/>
</svg>
