<?xml version="1.0" encoding="iso-8859-1"?>
<!-- Generator: Adobe Illustrator 24.3.0, SVG Export Plug-In . SVG Version: 6.00 Build 0)  -->
<svg version="1.1" id="Layer_1" xmlns="http://www.w3.org/2000/svg" xmlns:xlink="http://www.w3.org/1999/xlink" x="0px" y="0px"
	 viewBox="0 0 512 512" style="enable-background:new 0 0 512 512;" xml:space="preserve">
<g>
	<circle cx="256" cy="256" r="26"/>
	<path d="M256,287c-17.093,0-31-13.907-31-31.001s13.907-31,31-31c17.094,0,31,13.907,31,31S273.094,287,256,287z M256,235
		c-11.58,0-21,9.42-21,21c0,11.58,9.42,21.001,21,21.001c11.579,0,21-9.421,21-21.001C277,244.42,267.579,235,256,235z"/>
</g>
<g>
	<circle cx="346" cy="256" r="26"/>
	<path d="M346,287c-17.094,0-31-13.907-31-31.001s13.906-31,31-31s31,13.907,31,31S363.094,287,346,287z M346,235
		c-11.579,0-21,9.42-21,21c0,11.58,9.421,21.001,21,21.001s21-9.421,21-21.001C367,244.42,357.579,235,346,235z"/>
</g>
<g>
	<circle cx="166" cy="256" r="26"/>
	<path d="M166,287c-17.093,0-31-13.907-31-31.001s13.907-31,31-31s31,13.907,31,31S183.093,287,166,287z M166,235
		c-11.58,0-21,9.42-21,21c0,11.58,9.42,21.001,21,21.001s21-9.421,21-21.001C187,244.42,177.58,235,166,235z"/>
</g>
<path d="M159.992,389c-4.908,0-9.836-1.71-13.82-5.196l-128-112C13.614,267.817,11,262.055,11,256
	c0-6.056,2.614-11.816,7.171-15.804l128-112c8.728-7.637,21.995-6.753,29.633,1.976c7.637,8.729,6.753,21.996-1.976,29.633
	L63.891,256l109.938,96.197c8.729,7.637,9.613,20.904,1.976,29.633C171.653,386.574,165.837,389,159.992,389z"/>
<path d="M352.009,389c-5.846,0-11.661-2.426-15.812-7.171c-7.638-8.729-6.753-21.996,1.975-29.633L448.109,256l-109.938-96.196
	c-8.729-7.637-9.613-20.904-1.976-29.633c7.637-8.727,20.904-9.614,29.632-1.976l128,112C498.386,244.184,501,249.944,501,256
	c0,6.055-2.614,11.817-7.171,15.804l-128,112C361.846,387.289,356.916,389,352.009,389z"/>
</svg>
