<?xml version="1.0" encoding="iso-8859-1"?>
<!-- Generator: Adobe Illustrator 24.3.0, SVG Export Plug-In . SVG Version: 6.00 Build 0)  -->
<svg version="1.1" id="Layer_1" xmlns="http://www.w3.org/2000/svg" xmlns:xlink="http://www.w3.org/1999/xlink" x="0px" y="0px"
	 viewBox="0 0 512 512" style="enable-background:new 0 0 512 512;" xml:space="preserve">
<path d="M159.992,389c-4.908,0-9.836-1.71-13.82-5.196l-128-112C13.614,267.817,11,262.055,11,256
	c0-6.056,2.614-11.816,7.171-15.804l128-112c8.728-7.637,21.995-6.753,29.633,1.976c7.637,8.729,6.753,21.996-1.976,29.633
	L63.891,256l109.938,96.197c8.729,7.637,9.613,20.904,1.976,29.633C171.653,386.574,165.837,389,159.992,389z"/>
<path d="M352.009,389c-5.846,0-11.661-2.426-15.812-7.171c-7.638-8.729-6.753-21.996,1.975-29.633L448.109,256l-109.938-96.196
	c-8.729-7.637-9.613-20.904-1.976-29.633c7.637-8.727,20.904-9.614,29.632-1.976l128,112C498.386,244.184,501,249.944,501,256
	c0,6.055-2.614,11.817-7.171,15.804l-128,112C361.846,387.289,356.916,389,352.009,389z"/>
<path d="M256,373c-5.369,0-10.738-2.047-14.838-6.14l-64-63.9c-8.207-8.194-8.218-21.49-0.023-29.698
	c8.195-8.207,21.49-8.218,29.699-0.022L256,322.325l49.162-49.085c8.208-8.195,21.504-8.185,29.698,0.022
	c8.195,8.208,8.185,21.504-0.022,29.698l-64,63.9C266.738,370.954,261.369,373,256,373z"/>
<path d="M256,357.03c-11.598,0-21-9.402-21-21V160c0-11.598,9.402-21,21-21c11.598,0,21,9.402,21,21v176.03
	C277,347.627,267.598,357.03,256,357.03z"/>
</svg>
