<?xml version="1.0" encoding="iso-8859-1"?>
<!-- Generator: Adobe Illustrator 24.3.0, SVG Export Plug-In . SVG Version: 6.00 Build 0)  -->
<svg version="1.1" id="Layer_1" xmlns="http://www.w3.org/2000/svg" xmlns:xlink="http://www.w3.org/1999/xlink" x="0px" y="0px"
	 viewBox="0 0 512 512" style="enable-background:new 0 0 512 512;" xml:space="preserve">
<path d="M456.7,242.27l-26.08-4.2c-3.457-0.582-6.132-3.346-6.6-6.82c-0.5-3.2-1-6.41-1.7-9.51c-0.694-3.414,0.878-6.888,3.9-8.62
	l23.09-12.82c3.617-1.849,5.289-6.103,3.9-9.92l-4-11c-1.386-3.832-5.448-5.992-9.4-5l-25.89,5c-3.456,0.669-6.943-0.999-8.59-4.11
	c-1.5-2.8-3.1-5.603-4.8-8.41c-1.841-2.993-1.559-6.828,0.7-9.52l17.29-19.94c2.775-2.953,2.904-7.515,0.3-10.62l-7.49-9
	c-2.586-3.137-7.134-3.791-10.5-1.51l-22.69,13.63c-2.993,1.774-6.789,1.41-9.39-0.9c-2.4-2.11-4.9-4.21-7.4-6.22
	c-2.729-2.168-3.74-5.853-2.5-9.11l9.4-24.75c1.656-3.717,0.257-8.086-3.25-10.15l-10.2-5.91c-3.523-2.001-7.986-1.051-10.39,2.21
	l-16.64,20.84c-1.913,2.7-5.43,3.734-8.5,2.5c0,0-5.6-2.3-9.8-3.71c-3.306-1.102-5.518-4.216-5.47-7.7l0.4-26.45
	c0.244-4.071-2.588-7.684-6.6-8.42l-11.59-2c-4.015-0.695-7.918,1.711-9.1,5.61l-8.6,25.05c-1.133,3.314-4.289,5.506-7.79,5.41h-9.8
	c-3.494,0.074-6.639-2.11-7.79-5.41l-8.6-25.05c-1.182-3.899-5.085-6.305-9.1-5.61l-11.59,2c-4.012,0.736-6.844,4.349-6.6,8.42
	l0.4,26.45c0.05,3.493-2.173,6.614-5.49,7.71c-2.3,0.9-7.3,2.81-9.7,3.71c-2.8,1-6.1,0.2-8.8-2.91l-16.51-20.34
	c-2.416-3.248-6.876-4.179-10.39-2.17l-10.2,5.91c-3.517,2.026-4.941,6.378-3.3,10.09l9.4,24.75c1.22,3.258,0.212,6.931-2.5,9.11
	c-2.5,2-5,4.11-7.4,6.22c-2.601,2.31-6.397,2.674-9.39,0.9L111,116.14c-3.379-2.223-7.885-1.575-10.5,1.51l-7.49,9
	c-2.604,3.105-2.475,7.667,0.3,10.62l17.29,19.94c2.308,2.671,2.593,6.54,0.7,9.52c-1.7,2.667-3.3,5.47-4.8,8.41
	c-1.673,3.084-5.139,4.742-8.59,4.11l-25.89-5c-3.949-0.963-7.992,1.188-9.4,5l-4,11c-1.389,3.817,0.283,8.071,3.9,9.92L85.58,213
	c3.057,1.701,4.641,5.201,3.9,8.62c-0.6,3.2-1.2,6.31-1.7,9.51c-0.492,3.462-3.156,6.214-6.6,6.82l-26.08,4.2
	c-4.013,0.494-7.045,3.877-7.1,7.92v11.72c-0.05,4.084,3.035,7.525,7.1,7.92l26.08,4.2c3.457,0.582,6.132,3.346,6.6,6.82
	c0.5,3.2,1,6.41,1.7,9.51c0.694,3.414-0.878,6.888-3.9,8.62L62.49,311.7c-3.617,1.849-5.289,6.103-3.9,9.92l4,11
	c1.386,3.832,5.448,5.992,9.4,5l25.89-5c3.456-0.669,6.943,0.999,8.59,4.11c1.5,2.8,3.1,5.603,4.8,8.41
	c1.841,2.993,1.559,6.828-0.7,9.52l-17.29,19.96c-2.775,2.953-2.904,7.515-0.3,10.62l7.49,9c2.586,3.137,7.134,3.791,10.5,1.51
	l22.69-13.63c2.993-1.774,6.789-1.41,9.39,0.9c2.4,2.11,4.9,4.21,7.4,6.22c2.729,2.168,3.74,5.853,2.5,9.11l-9.4,24.75
	c-1.629,3.722-0.21,8.074,3.3,10.12l10.2,5.91c3.523,2.001,7.986,1.051,10.39-2.21l16.79-20.64c2.1-2.6,5.5-3.7,8.2-2.6
	c3.4,1.4,5.7,2.2,9.9,3.61c3.317,1.096,5.54,4.217,5.49,7.71l-0.4,26.45c-0.244,4.071,2.588,7.684,6.6,8.42l11.59,2
	c4.015,0.695,7.918-1.711,9.1-5.61l8.6-25c1.133-3.314,4.289-5.506,7.79-5.41h9.8c3.494-0.074,6.639,2.11,7.79,5.41l8.6,25
	c1.182,3.899,5.085,6.305,9.1,5.61l11.59-2c4.012-0.736,6.844-4.349,6.6-8.42l-0.4-26.45c-0.05-3.493,2.173-6.614,5.49-7.71
	c4.2-1.41,7-2.51,9.6-3.51s5.8-1,8.3,2.1l17,20.94c2.417,3.273,6.905,4.211,10.43,2.18l10.2-5.91c3.537-2.024,4.964-6.4,3.3-10.12
	l-9.4-24.75c-1.218-3.261-0.211-6.936,2.5-9.12c2.5-2,5-4.1,7.4-6.21c2.601-2.31,6.397-2.674,9.39-0.9L401,395.66
	c3.379,2.223,7.885,1.575,10.5-1.51l7.49-9c2.604-3.105,2.475-7.667-0.3-10.62l-17.29-19.94c-2.308-2.671-2.593-6.54-0.7-9.52
	c1.7-2.7,3.3-5.503,4.8-8.41c1.673-3.084,5.139-4.742,8.59-4.11l25.89,5c3.949,0.963,7.992-1.188,9.4-5l4-11
	c1.389-3.817-0.283-8.071-3.9-9.92l-23.09-12.82c-3.057-1.701-4.641-5.201-3.9-8.62c0.6-3.2,1.2-6.31,1.7-9.51
	c0.492-3.462,3.156-6.214,6.6-6.82l26.08-4.2c4.013-0.494,7.045-3.877,7.1-7.92V250C463.745,246,460.679,242.74,456.7,242.27z
	 M256,112c65.703-0.028,123.071,44.474,139.38,108.12c2.143,8.573-3.07,17.26-11.642,19.402c-1.271,0.318-2.577,0.478-3.888,0.478
	H274.61c-5.754,0.001-11.065-3.088-13.91-8.09l-52.1-91.71c-4.37-7.68-1.687-17.449,5.994-21.819
	c1.212-0.689,2.508-1.217,3.856-1.571C230.707,113.594,243.328,111.978,256,112z M112,256c-0.036-38.955,15.712-76.263,43.65-103.41
	c6.28-6.217,16.41-6.166,22.627,0.114c0.992,1.002,1.847,2.13,2.543,3.356L233.06,248c2.808,4.917,2.808,10.953,0,15.87l-52.67,91.7
	c-4.399,7.664-14.177,10.311-21.841,5.913c-1.22-0.7-2.343-1.559-3.339-2.553C127.547,331.83,111.971,294.726,112,256z M256,400
	c-12.892,0.033-25.732-1.631-38.19-4.95c-8.54-2.27-13.623-11.033-11.353-19.573c0.36-1.353,0.895-2.653,1.593-3.867l52.58-91.55
	c2.862-4.958,8.155-8.008,13.88-8H379.9c8.837,0.001,15.999,7.166,15.998,16.002c0,1.307-0.161,2.609-0.478,3.878
	C379.078,355.573,321.698,400.046,256,400z"/>
</svg>
