<?xml version="1.0" encoding="iso-8859-1"?>
<!-- Generator: Adobe Illustrator 24.3.0, SVG Export Plug-In . SVG Version: 6.00 Build 0)  -->
<svg version="1.1" id="Layer_1" xmlns="http://www.w3.org/2000/svg" xmlns:xlink="http://www.w3.org/1999/xlink" x="0px" y="0px"
	 viewBox="0 0 512 512" style="enable-background:new 0 0 512 512;" xml:space="preserve">
<path d="M464,249.93c-0.279-5.153-4.233-9.353-9.36-9.94L429,235.84c-2.369-0.389-4.2-2.289-4.5-4.67c-0.49-3.15-1-6.42-1.7-9.52
	c-0.462-2.312,0.594-4.662,2.63-5.85l22.78-12.65c4.682-2.387,6.833-7.904,5-12.83l-3.95-10.9c-1.794-4.944-7.019-7.748-12.13-6.51
	l-25.55,5c-2.344,0.422-4.693-0.712-5.82-2.81c-1.49-2.79-3.11-5.63-4.8-8.42c-1.258-2.038-1.082-4.65,0.44-6.5l17-19.63
	c3.569-3.841,3.736-9.733,0.39-13.77l-7.42-8.91c-3.344-4.051-9.21-4.915-13.58-2l-22.37,13.43c-2.036,1.22-4.631,0.964-6.39-0.63
	c-2.47-2.17-4.95-4.26-7.37-6.19c-1.867-1.473-2.563-3.986-1.72-6.21l9.26-24.4c2.087-4.819,0.235-10.438-4.31-13.07l-10.08-5.85
	c-4.552-2.625-10.35-1.406-13.46,2.83L325,96.28c-1.208,1.848-3.563,2.572-5.6,1.72c-0.62-0.25-5.77-2.36-9.78-3.7
	c-2.258-0.736-3.774-2.856-3.74-5.23L306.27,63c0.288-5.267-3.383-9.927-8.57-10.88l-11.45-2c-5.16-0.891-10.183,2.174-11.75,7.17
	L266,82.1c-0.781,2.269-2.962,3.754-5.36,3.65h-9.75c-2.371,0.039-4.503-1.437-5.3-3.67l-8.46-24.67
	c-1.54-5.034-6.581-8.14-11.77-7.25l-11.46,2c-5.157,0.941-8.821,5.554-8.57,10.79l0.4,26.16c0.016,2.411-1.554,4.547-3.86,5.25
	c-2.28,0.89-7.26,2.78-9.51,3.63c-2,0.72-4.19-0.07-6-2.1l-16.26-20c-3.085-4.233-8.855-5.476-13.41-2.89l-10.06,5.83
	c-4.597,2.639-6.461,8.321-4.32,13.17l9.25,24.34c0.827,2.226,0.144,4.732-1.7,6.23c-2.43,2-4.92,4-7.4,6.22
	c-1.748,1.581-4.322,1.841-6.35,0.64L114,115.74c-4.392-2.862-10.227-2.004-13.61,2l-7.4,8.9c-3.4,4.011-3.241,9.937,0.37,13.76
	l17.09,19.6c1.556,1.815,1.739,4.436,0.45,6.45c-1.71,2.72-3.34,5.58-4.82,8.44c-1.136,2.111-3.502,3.249-5.86,2.82l-25.51-4.93
	c-5.113-1.234-10.338,1.568-12.14,6.51l-4,10.88c-1.835,4.932,0.315,10.456,5,12.85l22.78,12.65c2.105,1.162,3.186,3.577,2.65,5.92
	l-0.23,1.24c-0.53,2.8-1,5.45-1.47,8.27c-0.326,2.349-2.126,4.221-4.46,4.64l-25.7,4.15c-5.193,0.643-9.104,5.037-9.14,10.27v11.58
	c-0.03,5.263,3.927,9.696,9.16,10.26l25.68,4.14c2.37,0.385,4.203,2.287,4.5,4.67c0.49,3.16,1,6.42,1.7,9.52
	c0.462,2.312-0.594,4.662-2.63,5.85l-22.77,12.67c-4.682,2.387-6.833,7.904-5,12.83l4,10.9c1.798,4.941,7.019,7.743,12.13,6.51
	l25.55-4.95c2.344-0.422,4.693,0.712,5.82,2.81c1.5,2.8,3.12,5.64,4.8,8.42c1.265,2.036,1.088,4.653-0.44,6.5l-17,19.64
	c-3.609,3.806-3.824,9.702-0.5,13.76l7.41,8.91c3.344,4.051,9.21,4.915,13.58,2l22.37-13.43c2.036-1.22,4.631-0.964,6.39,0.63
	c2.48,2.17,5,4.26,7.37,6.19c1.867,1.473,2.563,3.986,1.72,6.21l-9.26,24.4c-2.087,4.819-0.235,10.438,4.31,13.07l10.11,5.84
	c4.547,2.625,10.341,1.411,13.45-2.82L187,415.92c1.39-1.73,3.6-2.5,5.24-1.84c3.47,1.44,5.8,2.25,9.93,3.63
	c2.258,0.738,3.776,2.855,3.75,5.23l-0.4,26.05c-0.279,5.264,3.387,9.919,8.57,10.88l11.45,2c5.161,0.896,10.187-2.171,11.75-7.17
	l8.5-24.77c0.798-2.257,2.968-3.734,5.36-3.65h9.75c2.372-0.043,4.505,1.435,5.3,3.67l8.47,24.67c1.347,4.396,5.402,7.401,10,7.41
	c0.597,0.001,1.193-0.052,1.78-0.16l11.47-2c5.153-0.946,8.811-5.557,8.56-10.79l-0.4-26.16c-0.016-2.365,1.501-4.468,3.75-5.2
	c3.84-1.29,6.53-2.33,8.91-3.24l0.6-0.24c3.06-1.06,4.53,0.14,5.47,1.31l16.75,20.63c3.108,4.225,8.895,5.439,13.44,2.82l10.07-5.83
	c4.56-2.634,6.415-8.273,4.31-13.1l-9.24-24.34c-0.836-2.224-0.155-4.733,1.69-6.23c2.43-2,4.92-4,7.4-6.22
	c1.759-1.586,4.348-1.838,6.38-0.62l22.39,13.4c4.392,2.862,10.227,2.004,13.61-2l7.4-8.9c3.399-4.008,3.24-9.931-0.37-13.75
	l-17.06-19.67c-1.556-1.815-1.739-4.436-0.45-6.45c1.71-2.71,3.34-5.57,4.82-8.44c1.143-2.103,3.503-3.239,5.86-2.82l25.48,4.97
	c5.113,1.234,10.338-1.568,12.14-6.51l3.95-10.88c1.834-4.929-0.316-10.449-5-12.84l-22.8-12.67c-2.074-1.173-3.135-3.566-2.61-5.89
	l0.23-1.25c0.53-2.8,1-5.44,1.47-8.26c0.326-2.349,2.126-4.221,4.46-4.64l25.7-4.14c5.207-0.634,9.133-5.035,9.17-10.28V249.93z
	 M171.59,361.27c-58.139-46.784-67.344-131.84-20.56-189.979c6.228-7.74,13.291-14.769,21.06-20.961l60,105.61L171.59,361.27z
	 M256,391.11c-16.585,0.016-33.028-3.053-48.49-9.05L268,276.79h121.22C379.21,341.45,323.29,391.11,256,391.11z M268.06,235.21
	l-59.95-105.5c15.29-5.843,31.522-8.832,47.89-8.82c67.29,0,123.21,49.66,133.22,114.32H268.06z"/>
</svg>
