<?xml version="1.0" encoding="iso-8859-1"?>
<!-- Generator: Adobe Illustrator 24.3.0, SVG Export Plug-In . SVG Version: 6.00 Build 0)  -->
<svg version="1.1" id="Layer_1" xmlns="http://www.w3.org/2000/svg" xmlns:xlink="http://www.w3.org/1999/xlink" x="0px" y="0px"
	 viewBox="0 0 512 512" style="enable-background:new 0 0 512 512;" xml:space="preserve">
<path d="M423.432,470.924c-12.169,0-24.337-4.631-33.603-13.896L166.977,234.176c-18.528-18.528-18.529-48.674-0.004-67.2l0,0
	c18.527-18.525,48.672-18.523,67.2,0.004l222.852,222.852c8.976,8.976,13.918,20.908,13.919,33.6
	c0.001,12.693-4.941,24.626-13.916,33.601C447.767,466.292,435.599,470.924,423.432,470.924z M189.601,189.603
	c-6.049,6.049-6.048,15.895,0.003,21.946l222.852,222.852c6.053,6.05,15.896,6.053,21.945,0.003
	c2.93-2.931,4.543-6.826,4.543-10.971c0-4.146-1.615-8.043-4.547-10.975L211.546,189.607
	C205.495,183.556,195.65,183.553,189.601,189.603L189.601,189.603z"/>
<path d="M178.38,178.38L178.38,178.38c-12.357,12.355-12.359,32.388-0.004,44.746c0.001,0.001,0.003,0.003,0.004,0.004L223.25,268
	L268,223.25l-44.87-44.87c-12.355-12.357-32.388-12.359-44.746-0.004C178.383,178.377,178.381,178.379,178.38,178.38z"/>
<path d="M96,208H48c-8.836,0-16-7.164-16-16s7.164-16,16-16h48c8.836,0,16,7.164,16,16S104.836,208,96,208z"/>
<path d="M124.12,140.12c-4.095,0-8.189-1.562-11.314-4.687l-33.939-33.939c-6.249-6.249-6.249-16.379,0-22.628
	c6.248-6.248,16.379-6.248,22.627,0l33.94,33.94c6.248,6.248,6.248,16.379,0,22.627C132.31,138.558,128.215,140.12,124.12,140.12z"
	/>
<path d="M192,112c-8.836,0-16-7.164-16-16V48c0-8.836,7.164-16,16-16s16,7.164,16,16v48C208,104.836,200.836,112,192,112z"/>
<path d="M259.88,140.12c-4.095,0-8.189-1.562-11.314-4.687c-6.248-6.248-6.248-16.379,0-22.627l33.94-33.94
	c6.25-6.248,16.381-6.247,22.627,0c6.249,6.249,6.249,16.379,0,22.627l-33.94,33.94C268.069,138.558,263.975,140.12,259.88,140.12z"
	/>
<path d="M90.18,309.82c-4.095,0-8.189-1.562-11.314-4.687c-6.248-6.248-6.248-16.379,0-22.627l33.94-33.94
	c6.248-6.248,16.379-6.248,22.627,0s6.248,16.379,0,22.627l-33.94,33.939C98.37,308.257,94.274,309.82,90.18,309.82z"/>
</svg>
