<?xml version="1.0" encoding="iso-8859-1"?>
<!-- Generator: Adobe Illustrator 24.3.0, SVG Export Plug-In . SVG Version: 6.00 Build 0)  -->
<svg version="1.1" id="Layer_1" xmlns="http://www.w3.org/2000/svg" xmlns:xlink="http://www.w3.org/1999/xlink" x="0px" y="0px"
	 viewBox="0 0 512 512" style="enable-background:new 0 0 512 512;" xml:space="preserve">
<path d="M416,480c-35.29,0-64-29.109-64-64.891c0-33.301,28.676-65.406,44.081-82.655c1.865-2.088,3.479-3.896,4.66-5.287
	c0.796-0.954,1.688-1.84,2.653-2.633c8.482-6.934,20.945-5.741,27.934,2.596c1.126,1.314,2.62,2.984,4.346,4.912
	C451.165,349.348,480,381.56,480,415.11C480,450.891,451.29,480,416,480z M416.063,358.141C403.622,372.264,384,396.15,384,415.11
	C384,433.246,398.355,448,416,448s32-14.755,32-32.891C448,396.109,428.596,372.366,416.063,358.141z"/>
<path d="M207.227,453.04c-10.953,0-21.906-4.092-30.461-12.284L45.547,314.74c-0.217-0.208-0.429-0.418-0.64-0.628
	c-17.139-17.233-17.063-45.147,0.14-62.256l84.626-84.505l-41.616-41.615c-20.259-20.33-20.201-53.319,0.108-73.559l5.219-5.218
	c9.858-9.824,22.889-15.187,36.815-15.187c13.89,0.024,26.939,5.456,36.743,15.294l231.285,229.435
	c4.289,4.216,6.744,10.078,6.737,16.092c-0.01,12.411-10.116,22.506-22.53,22.507c-0.007,0-0.012,0-0.019,0h-0.287
	c-12.92,0-17.008,2.233-17.53,2.557c-8.177,8.153-71.022,68.996-112.693,109.339l-14.046,13.6
	C229.285,448.889,218.255,453.039,207.227,453.04z M152.301,189.978l-84.665,84.544c-4.715,4.688-4.735,12.302-0.069,16.994
	l0.149,0.146L198.913,417.66c4.68,4.481,12.02,4.461,16.693-0.06l14.042-13.596c39.307-38.054,105.094-101.744,112.467-109.118
	c4.639-4.638,11.04-7.882,19.354-9.776L208.757,133.62l-56.407,56.407L152.301,189.978z M382.419,283.1h0.011
	C382.427,283.1,382.422,283.1,382.419,283.1z M130.109,63.772c-5.329,0-10.341,2.071-14.117,5.833l-5.219,5.219
	c-7.831,7.804-7.853,20.492-0.068,28.304l0.068,0.069l41.544,41.543l33.713-33.665l-41.689-41.355
	c-3.836-3.849-8.855-5.938-14.197-5.947C130.133,63.772,130.121,63.772,130.109,63.772z"/>
</svg>
