<?xml version="1.0" encoding="iso-8859-1"?>
<!-- Generator: Adobe Illustrator 24.3.0, SVG Export Plug-In . SVG Version: 6.00 Build 0)  -->
<svg version="1.1" id="Layer_1" xmlns="http://www.w3.org/2000/svg" xmlns:xlink="http://www.w3.org/1999/xlink" x="0px" y="0px"
	 viewBox="0 0 512 512" style="enable-background:new 0 0 512 512;" xml:space="preserve">
<path d="M416,352c-12.6-0.84-21-4-28-12c-14-16-14-36,5.49-52.48l32.82-29.14c50.27-44.41,50.27-117.21,0-161.63
	C389.26,64.14,339.54,48,287.86,48c-60.34,0-123.39,22-172,65.11c-90.46,80-90.46,210.92,0,290.87c45,39.76,105.63,59.59,165.64,60
	h1.84c60,0,119.07-19.5,161.2-56.77C464,390,464,385,444.62,355.56C440,348,431,353,416,352z M112,208c0-17.673,14.327-32,32-32
	s32,14.327,32,32s-14.327,32-32,32S112,225.673,112,208z M152,343c-17.673,0-32-14.327-32-32s14.327-32,32-32s32,14.327,32,32
	S169.673,343,152,343z M192,144c0-17.673,14.327-32,32-32s32,14.327,32,32s-14.327,32-32,32S192,161.673,192,144z M256,415
	c-26.51,0-48-21.49-48-48s21.49-48,48-48s48,21.49,48,48S282.51,415,256,415z M328,176c-17.673,0-32-14.327-32-32s14.327-32,32-32
	s32,14.327,32,32S345.673,176,328,176z"/>
</svg>
