<?xml version="1.0" encoding="iso-8859-1"?>
<!-- Generator: Adobe Illustrator 24.3.0, SVG Export Plug-In . SVG Version: 6.00 Build 0)  -->
<svg version="1.1" id="Layer_1" xmlns="http://www.w3.org/2000/svg" xmlns:xlink="http://www.w3.org/1999/xlink" x="0px" y="0px"
	 viewBox="0 0 512 512" style="enable-background:new 0 0 512 512;" xml:space="preserve">
<path d="M416,480c-35.29,0-64-29.11-64-64.88c0-33.29,28.67-65.4,44.08-82.64c1.87-2.1,3.49-3.91,4.68-5.31
	c7.079-8.436,19.656-9.537,28.092-2.458c0.889,0.746,1.712,1.569,2.458,2.458c1.13,1.31,2.63,3,4.36,4.93
	c15.5,17.3,44.33,49.51,44.33,83.05C480,450.89,451.29,480,416,480z"/>
<path d="M398.23,276.64L166.89,47.22c-20.337-20.293-53.263-20.293-73.6,0l-4.51,4.51c-10.02,9.856-15.732,23.276-15.89,37.33
	c-0.078,13.861,5.417,27.171,15.25,36.94l41.51,41.5L45,252c-8.463,8.483-13.15,20.019-13,32c0.1,11.692,4.977,22.835,13.5,30.84
	l131.24,126c17.092,16.383,44.084,16.304,61.08-0.18l124.11-120.28c2.245-2.232,5.115-3.728,8.23-4.29
	c3.944-0.63,7.936-0.918,11.93-0.86h0.3c12.443,0.021,22.547-10.048,22.569-22.491C404.969,286.687,402.544,280.885,398.23,276.64
	L398.23,276.64z M152.29,144.85l-41.53-41.52c-7.826-7.795-7.851-20.458-0.056-28.284c0.019-0.019,0.037-0.037,0.056-0.056
	l5.16-5.15c7.836-7.84,20.544-7.843,28.383-0.007c0.002,0.002,0.004,0.004,0.007,0.007L186,111.21L152.29,144.85z"/>
</svg>
