<?xml version="1.0" encoding="iso-8859-1"?>
<!-- Generator: Adobe Illustrator 24.3.0, SVG Export Plug-In . SVG Version: 6.00 Build 0)  -->
<svg version="1.1" id="Layer_1" xmlns="http://www.w3.org/2000/svg" xmlns:xlink="http://www.w3.org/1999/xlink" x="0px" y="0px"
	 viewBox="0 0 512 512" style="enable-background:new 0 0 512 512;" xml:space="preserve">
<path d="M256,320c-74.991,0-136-61.01-136-136.001S181.009,48,256,48c74.99,0,136,61.009,136,136S330.99,320,256,320z M256,80
	c-57.346,0-104,46.654-104,104C152,241.346,198.654,288,256,288S360,241.346,360,184C360,126.654,313.346,80,256,80z"/>
<path d="M344,464c-74.99,0-136-61.01-136-136C208,253.01,269.01,192,344,192S480,253.01,480,328C480,402.991,418.99,464,344,464z
	 M344,224C286.654,224,240,270.655,240,328s46.654,104,104,104s104-46.654,104-104S401.346,224,344,224z"/>
<path d="M168,464c-74.991,0-136-61.01-136-136C32,253.01,93.009,192,168,192S304,253.01,304,328C304,402.991,242.991,464,168,464z
	 M168,224C110.654,224,64,270.655,64,328s46.654,104,104,104s104-46.654,104-104S225.346,224,168,224z"/>
</svg>
