<?xml version="1.0" encoding="iso-8859-1"?>
<!-- Generator: Adobe Illustrator 24.3.0, SVG Export Plug-In . SVG Version: 6.00 Build 0)  -->
<svg version="1.1" id="Layer_1" xmlns="http://www.w3.org/2000/svg" xmlns:xlink="http://www.w3.org/1999/xlink" x="0px" y="0px"
	 viewBox="0 0 512 512" style="enable-background:new 0 0 512 512;" xml:space="preserve">
<path d="M256,185c40.366-24.873,89.37-31.513,134.9-18.28C382.36,99.83,325.12,48,256,48S129.64,99.83,121.1,166.67
	C166.637,153.451,215.641,160.11,256,185z"/>
<path d="M336,331.73c-0.968,44.779-19.829,87.304-52.37,118.08c18.75,9.351,39.418,14.209,60.37,14.19c75,0,136-61,136-136
	c-0.021-44.808-22.112-86.731-59.06-112.08C411.316,265.259,380.168,307.727,336,331.73z"/>
<path d="M283.58,206.19c25.427,24.081,42.686,55.512,49.36,89.89c32.179-22.1,53.322-56.951,58.06-95.7
	c-35.084-12.928-73.945-10.826-107.43,5.81H283.58z"/>
<path d="M176.05,331.73c-44.191-23.99-75.362-66.459-85-115.81C54.106,241.272,32.019,283.194,32,328c0,75,61,136,136,136
	c20.969,0.027,41.655-4.832,60.42-14.19C195.879,419.034,177.018,376.509,176.05,331.73z"/>
<path d="M179.06,296.08c6.674-34.378,23.933-65.809,49.36-89.89c-33.482-16.633-72.339-18.735-107.42-5.81
	C125.738,239.129,146.881,273.98,179.06,296.08z"/>
<path d="M302.9,345.33c-30.634,8.894-63.166,8.894-93.8,0c4.335,33.597,21.061,64.364,46.9,86.27
	C281.839,409.694,298.565,378.927,302.9,345.33z"/>
<path d="M209,311.62c30.337,11.173,63.663,11.173,94,0c-4.136-33.951-20.918-65.095-47-87.22
	C229.918,246.525,213.136,277.669,209,311.62z"/>
</svg>
