<?xml version="1.0" encoding="iso-8859-1"?>
<!-- Generator: Adobe Illustrator 24.3.0, SVG Export Plug-In . SVG Version: 6.00 Build 0)  -->
<svg version="1.1" id="Layer_1" xmlns="http://www.w3.org/2000/svg" xmlns:xlink="http://www.w3.org/1999/xlink" x="0px" y="0px"
	 viewBox="0 0 512 512" style="enable-background:new 0 0 512 512;" xml:space="preserve">
<path d="M253.72,202.53c1.371,0.951,3.189,0.951,4.56,0c37.588-25.716,84.732-33.208,128.44-20.41
	c2.115,0.637,4.347-0.561,4.984-2.676c0.129-0.429,0.185-0.876,0.166-1.324C388.8,105.86,329,48,256,48s-132.8,57.86-135.87,130.15
	c-0.094,2.207,1.619,4.072,3.826,4.166c0.447,0.019,0.895-0.037,1.324-0.166c43.708-12.798,90.852-5.306,128.44,20.41V202.53z"/>
<path d="M405.31,212.56c-9.115,47.142-39.895,87.241-83.08,108.23c-1.419,0.675-2.311,2.119-2.28,3.69c0,1.17,0.05,2.34,0.05,3.52
	c0.02,41.561-17.026,81.307-47.15,109.94c-1.607,1.516-1.68,4.048-0.163,5.654c0.238,0.252,0.508,0.473,0.803,0.656
	c21.24,12.942,45.638,19.776,70.51,19.75c72.07,0,134.1-60.28,136-132.34c1.324-50.199-25.108-97.047-68.76-121.87
	c-1.916-1.1-4.361-0.438-5.461,1.477C405.55,211.668,405.391,212.105,405.31,212.56z"/>
<path d="M390.57,203.67c0.295-1.926-0.841-3.784-2.69-4.4c-38.1-12.993-80.001-8.418-114.4,12.49
	c-1.874,1.17-2.445,3.637-1.275,5.511c0.178,0.285,0.391,0.547,0.635,0.779c22.947,21.834,38.495,50.294,44.47,81.4
	c0.408,2.171,2.499,3.6,4.67,3.192c0.447-0.084,0.877-0.244,1.27-0.472C359.632,281.424,384.456,245.103,390.57,203.67z"/>
<path d="M192,328c0-1.18,0-2.35,0.05-3.52c0.031-1.571-0.861-3.015-2.28-3.69c-43.185-20.989-73.965-61.088-83.08-108.23
	c-0.4-2.173-2.486-3.609-4.658-3.209c-0.428,0.079-0.841,0.227-1.222,0.439c-43.652,24.823-70.084,71.671-68.76,121.87
	C34,403.72,96,464,168.05,464c24.855,0.017,49.234-6.817,70.46-19.75c1.878-1.163,2.458-3.628,1.296-5.507
	c-0.183-0.295-0.403-0.565-0.656-0.803C209.026,409.307,191.98,369.561,192,328z"/>
<path d="M168,192c-14.928-0.013-29.754,2.443-43.88,7.27c-1.849,0.616-2.985,2.474-2.69,4.4c6.114,41.433,30.938,77.754,67.32,98.5
	c1.91,1.109,4.358,0.46,5.468-1.45c0.228-0.393,0.388-0.823,0.472-1.27c5.975-31.106,21.523-59.566,44.47-81.4
	c1.6-1.523,1.662-4.055,0.139-5.655c-0.232-0.243-0.493-0.457-0.779-0.635C217.279,198.81,192.877,191.972,168,192z"/>
<path d="M256,336c-14.459,0.01-28.845-2.051-42.72-6.12c-2.115-0.637-4.347,0.561-4.984,2.676c-0.129,0.429-0.185,0.876-0.166,1.324
	c1.567,36.595,17.861,71.001,45.18,95.4c1.525,1.386,3.855,1.386,5.38,0c27.319-24.399,43.613-58.805,45.18-95.4
	c0.094-2.207-1.619-4.072-3.826-4.166c-0.447-0.019-0.895,0.037-1.324,0.166C284.845,333.949,270.459,336.01,256,336z"/>
<path d="M302.57,308.33c-4.622-31.491-20.147-60.361-43.87-81.58c-1.539-1.371-3.861-1.371-5.4,0
	c-23.723,21.219-39.248,50.09-43.87,81.58c-0.295,1.926,0.841,3.784,2.69,4.4c28.45,9.693,59.31,9.693,87.76,0
	C301.729,312.114,302.865,310.256,302.57,308.33z"/>
</svg>
