<?xml version="1.0" encoding="iso-8859-1"?>
<!-- Generator: Adobe Illustrator 24.3.0, SVG Export Plug-In . SVG Version: 6.00 Build 0)  -->
<svg version="1.1" id="Layer_1" xmlns="http://www.w3.org/2000/svg" xmlns:xlink="http://www.w3.org/1999/xlink" x="0px" y="0px"
	 viewBox="0 0 512 512" style="enable-background:new 0 0 512 512;" xml:space="preserve">
<path d="M281.21,464h-1.815c-30.049-0.218-59.276-5.264-86.871-14.999c-29.022-10.239-54.765-25.183-76.513-44.416
	c-43.866-38.77-68.026-90.705-68.026-146.235s24.16-107.466,68.029-146.239C161.973,71.373,223.721,48,285.41,48
	c53.335,0,102.477,17.398,138.371,48.989c25.95,22.931,40.229,53.682,40.229,86.611c-0.001,32.929-14.279,63.68-40.206,86.589
	l-30.271,26.875c-2.438,2.166-5.348,5.649-5.348,9.936c0,4.285,2.909,7.769,5.35,9.937c4.101,3.672,5.533,4.683,14.582,6.177
	l0.695,0.117c9.38,1.578,22.226,3.74,32.157,12.918l0.06,0.056c9.533,8.9,15.104,22.679,14.903,36.857
	c-0.194,13.72-5.643,25.985-15.34,34.538C400.3,443.427,342.189,464,281.21,464z M279.564,432h1.646
	c53.246,0,103.606-17.626,138.168-48.357c3.885-3.426,4.521-8.382,4.558-11.034c0.071-5.049-1.82-10.259-4.712-12.983
	c-2.943-2.688-9.731-3.83-15.722-4.839l-0.654-0.109c-14.21-2.348-21.375-5.587-30.611-13.858
	c-10.333-9.177-16.051-21.203-16.051-33.818c0-12.616,5.718-24.643,16.1-33.863l30.302-26.902
	c18.984-16.774,29.423-39.009,29.424-62.635c0-23.625-10.439-45.861-29.396-62.61C372.591,94.564,330.958,80,285.41,80
	c-53.973,0-107.985,20.438-148.187,56.073c-36.917,32.628-57.238,76.048-57.238,122.277s20.321,89.648,57.221,122.262
	C173.682,412.869,225.564,431.597,279.564,432z"/>
<circle cx="144" cy="208" r="32"/>
<circle cx="152" cy="311" r="32"/>
<circle cx="224" cy="144" r="32"/>
<circle cx="256" cy="367" r="48"/>
<circle cx="328" cy="144" r="32"/>
</svg>
