<?xml version="1.0" encoding="iso-8859-1"?>
<!-- Generator: Adobe Illustrator 24.3.0, SVG Export Plug-In . SVG Version: 6.00 Build 0)  -->
<svg version="1.1" id="Layer_1" xmlns="http://www.w3.org/2000/svg" xmlns:xlink="http://www.w3.org/1999/xlink" x="0px" y="0px"
	 viewBox="0 0 512 512" style="enable-background:new 0 0 512 512;" xml:space="preserve">
<path d="M441,336.2l-0.06-0.05c-9.93-9.18-22.78-11.34-32.16-12.92l-0.69-0.12c-9.05-1.49-10.48-2.5-14.58-6.17
	c-2.44-2.17-5.35-5.65-5.35-9.94s2.91-7.77,5.34-9.94l30.28-26.87c25.92-22.91,40.2-53.66,40.2-86.59s-14.25-63.68-40.2-86.6
	c-35.89-31.59-85-49-138.37-49C223.72,48,162,71.37,116,112.11c-43.87,38.77-68,90.71-68,146.24s24.16,107.47,68,146.23
	c21.75,19.24,47.49,34.18,76.52,44.42c27.922,9.794,57.281,14.863,86.87,15h1.81c61,0,119.09-20.57,159.39-56.4
	c9.7-8.56,15.15-20.83,15.34-34.56C456.14,358.87,450.56,345.09,441,336.2z M112,208c0-17.673,14.327-32,32-32s32,14.327,32,32
	s-14.327,32-32,32S112,225.673,112,208z M152,343c-17.673,0-32-14.327-32-32s14.327-32,32-32s32,14.327,32,32S169.673,343,152,343z
	 M192,144c0-17.673,14.327-32,32-32s32,14.327,32,32s-14.327,32-32,32S192,161.673,192,144z M256,415c-26.51,0-48-21.49-48-48
	s21.49-48,48-48s48,21.49,48,48S282.51,415,256,415z M328,176c-17.673,0-32-14.327-32-32s14.327-32,32-32s32,14.327,32,32
	S345.673,176,328,176z"/>
</svg>
