<?xml version="1.0" encoding="iso-8859-1"?>
<!-- Generator: Adobe Illustrator 24.3.0, SVG Export Plug-In . SVG Version: 6.00 Build 0)  -->
<svg version="1.1" id="Layer_1" xmlns="http://www.w3.org/2000/svg" xmlns:xlink="http://www.w3.org/1999/xlink" x="0px" y="0px"
	 viewBox="0 0 512 512" style="enable-background:new 0 0 512 512;" xml:space="preserve">
<circle cx="256" cy="256" r="24"/>
<path d="M256,48C141.31,48,48,141.31,48,256s93.31,208,208,208s208-93.31,208-208S370.69,48,256,48z M361.07,161.33l-46.88,117.2
	c-6.505,16.266-19.394,29.155-35.66,35.66l-117.2,46.88c-4.102,1.642-8.758-0.352-10.4-4.454c-0.764-1.908-0.764-4.037,0-5.946
	l46.88-117.2c6.505-16.266,19.394-29.155,35.66-35.66l117.2-46.88c4.102-1.642,8.758,0.352,10.4,4.454
	C361.834,157.293,361.834,159.422,361.07,161.33z"/>
</svg>
