<?xml version="1.0" encoding="iso-8859-1"?>
<!-- Generator: Adobe Illustrator 24.3.0, SVG Export Plug-In . SVG Version: 6.00 Build 0)  -->
<svg version="1.1" id="Layer_1" xmlns="http://www.w3.org/2000/svg" xmlns:xlink="http://www.w3.org/1999/xlink" x="0px" y="0px"
	 viewBox="0 0 512 512" style="enable-background:new 0 0 512 512;" xml:space="preserve">
<path d="M256,464C141.309,464,48,370.692,48,256c0-114.691,93.309-208,208-208s208,93.309,208,208C464,370.692,370.691,464,256,464z
	 M256,80c-97.047,0-176,78.953-176,176C80,353.047,158.953,432,256,432S432,353.047,432,256C432,158.953,353.047,80,256,80z"/>
<path d="M350.67,150.93l-117.2,46.88c-16.266,6.505-29.155,19.394-35.66,35.66l-46.88,117.2c-1.642,4.102,0.352,8.758,4.454,10.4
	c1.908,0.764,4.037,0.764,5.946,0l117.2-46.88c16.266-6.505,29.155-19.394,35.66-35.66l46.88-117.2
	c1.642-4.102-0.352-8.758-4.454-10.4C354.707,150.166,352.578,150.166,350.67,150.93z M256,280c-13.255,0-24-10.745-24-24
	c0-13.255,10.745-24,24-24c13.255,0,24,10.745,24,24C280,269.255,269.255,280,256,280z"/>
</svg>
