<svg width="16" height="16" viewBox="0 0 16 16"  xmlns="http://www.w3.org/2000/svg">
<g clip-path="url(#clip0_13987_124635)">
<path d="M12.375 9.125H9.49184C9.40556 9.125 9.32744 9.15997 9.27091 9.21653H9.27087L8 10.4874L6.72913 9.21653H6.72909C6.67253 9.15997 6.59444 9.125 6.50816 9.125H3.625C2.07419 9.125 0.8125 10.3867 0.8125 11.9375V15.6875C0.8125 15.8601 0.952438 16 1.125 16H14.875C15.0476 16 15.1875 15.8601 15.1875 15.6875V11.9375C15.1875 10.3867 13.9258 9.125 12.375 9.125ZM11.1319 12.0296L11.952 12.8496L11.0313 15.375H10.1875V9.75H10.9018L11.9357 10.7839L11.1319 11.5877C11.0733 11.6463 11.0403 11.7258 11.0403 11.8086C11.0403 11.8915 11.0733 11.971 11.1319 12.0296ZM9.5625 9.80881V12.045L8.44234 10.929L9.5625 9.80881ZM8.572 11.9404L8 12.5124L7.42797 11.9404L8 11.3705L8.572 11.9404ZM6.4375 9.80881L7.55766 10.929L6.4375 12.045V9.80881ZM1.4375 11.9375C1.4375 10.7313 2.41878 9.75 3.625 9.75H4.21428L3.40138 10.5629C3.27934 10.6849 3.27934 10.8828 3.40138 11.0049L4.20516 11.8087L3.46519 12.5486C3.37928 12.6345 3.35097 12.7625 3.39256 12.8766L4.30344 15.375H1.4375V11.9375ZM5.8125 15.375H4.96869L4.048 12.8496L4.86809 12.0296C4.92669 11.971 4.95962 11.8915 4.95962 11.8086C4.95962 11.7258 4.92669 11.6463 4.86809 11.5877L4.06431 10.7839L5.09819 9.75H5.8125V15.375ZM6.4375 12.9272L6.98522 12.3815L7.77903 13.1753C7.84006 13.2363 7.92003 13.2668 8 13.2668C8.07997 13.2668 8.15994 13.2363 8.22097 13.1753L9.01478 12.3815L9.5625 12.9272V15.375H6.4375V12.9272ZM14.5625 15.375H11.6966L12.6074 12.8766C12.649 12.7624 12.6207 12.6345 12.5348 12.5486L11.7948 11.8086L12.5986 11.0048C12.7207 10.8828 12.7207 10.6849 12.5986 10.5629L11.7857 9.74997H12.375C13.5812 9.74997 14.5625 10.7312 14.5625 11.9375V15.375Z" fill="black"/>
<path d="M8 9.00391C7.73681 9.00391 7.47903 8.89706 7.29275 8.71081C7.10672 8.52475 7 8.26709 7 8.00391C7 7.741 7.10659 7.48331 7.29247 7.29697C7.47937 7.1105 7.73709 7.00391 8 7.00391C8.26294 7.00391 8.52059 7.1105 8.70694 7.29641C8.89338 7.48331 9 7.741 9 8.00391C9 8.26709 8.89328 8.52472 8.70722 8.71081C8.52097 8.89706 8.26319 9.00391 8 9.00391ZM8 7.62891C7.90131 7.62891 7.8045 7.669 7.73441 7.73891C7.66509 7.80844 7.625 7.90522 7.625 8.00391C7.625 8.10256 7.66497 8.19916 7.73472 8.26888C7.80463 8.33881 7.90134 8.37891 8 8.37891C8.09866 8.37891 8.19534 8.33881 8.26522 8.26888C8.33497 8.19913 8.375 8.10256 8.375 8.00391C8.375 7.90522 8.33491 7.80841 8.26497 7.73831C8.19544 7.66897 8.09869 7.62891 8 7.62891Z" fill="black"/>
<path d="M8.68943 6.25392H7.31443C7.14187 6.25392 7.00193 6.11399 7.00193 5.94142V5.14892C7.00193 4.3463 7.50115 3.62092 8.24415 3.34389C8.52521 3.23908 8.70636 2.96649 8.69493 2.66552C8.68127 2.30627 8.38921 2.01417 8.02996 2.00055C7.83912 1.99286 7.65821 2.06174 7.52108 2.1938C7.45662 2.2558 7.40571 2.32749 7.36965 2.40683C7.20362 2.77217 6.83883 3.00261 6.43749 2.99439C6.10021 2.9873 5.79137 2.81264 5.61137 2.52705C5.43183 2.24227 5.40743 1.88936 5.54605 1.58308C5.68665 1.27246 5.88443 0.993174 6.13396 0.752987C6.66599 0.240737 7.36637 -0.0257006 8.10583 0.00195562C8.92033 0.0329244 9.66974 0.429081 10.1619 1.08883C10.2651 1.22717 10.2366 1.42296 10.0983 1.52617C9.95987 1.62939 9.76415 1.60086 9.66093 1.46255C9.2823 0.954987 8.70686 0.650268 8.08215 0.626518C7.51452 0.604768 6.97602 0.809831 6.56743 1.20324C6.3753 1.38821 6.22321 1.60267 6.11546 1.84074C6.0629 1.95689 6.07187 2.08552 6.14008 2.19374C6.20877 2.30274 6.32196 2.3668 6.45062 2.36949C6.6023 2.37205 6.73812 2.2858 6.80062 2.14827C6.86949 1.99667 6.96605 1.86052 7.08765 1.74349C7.3484 1.49249 7.69127 1.36167 8.05396 1.37599C8.73752 1.40192 9.29355 1.95796 9.31952 2.64177C9.34121 3.21277 8.9968 3.7303 8.46249 3.92952C7.96271 4.11586 7.62693 4.60589 7.62693 5.14892V5.62892H8.37693V5.14892C8.37693 4.91742 8.51661 4.70977 8.72452 4.63227C9.15486 4.47183 9.5109 4.18214 9.75421 3.79446C9.84596 3.64827 10.0388 3.60408 10.185 3.69589C10.3312 3.78764 10.3753 3.98049 10.2836 4.12667C9.97783 4.61383 9.53555 4.98221 9.0019 5.19508V5.94142C9.00193 6.11399 8.86199 6.25392 8.68943 6.25392Z" fill="black"/>
<path d="M10.3789 2.91406C10.2967 2.91406 10.2161 2.88063 10.158 2.82247C10.0999 2.76438 10.0664 2.68375 10.0664 2.60156C10.0664 2.51903 10.0998 2.43875 10.158 2.38063C10.2161 2.3225 10.2964 2.28906 10.3789 2.28906C10.4611 2.28906 10.5417 2.32247 10.5998 2.38063C10.6579 2.43875 10.6914 2.51937 10.6914 2.60156C10.6914 2.68375 10.658 2.76438 10.5998 2.82247C10.5417 2.88063 10.4611 2.91406 10.3789 2.91406Z" fill="black"/>
</g>
<defs>
<clipPath id="clip0_13987_124635">
<rect width="16" height="16" fill="white"/>
</clipPath>
</defs>
</svg>
