<?xml version="1.0" encoding="iso-8859-1"?>
<!-- Generator: Adobe Illustrator 24.3.0, SVG Export Plug-In . SVG Version: 6.00 Build 0)  -->
<svg version="1.1" id="Layer_1" xmlns="http://www.w3.org/2000/svg" xmlns:xlink="http://www.w3.org/1999/xlink" x="0px" y="0px"
	 viewBox="0 0 512 512" style="enable-background:new 0 0 512 512;" xml:space="preserve">
<path d="M497.14,111.38l-81.09,80.84l-48.58-48.41L448.56,63c-45.22-22-108.65-22.09-146.2,15.35
	c-35.32,35.2-39.73,90.61-22.54,134.2L99.57,391.37c-4.694,4.678-4.708,12.276-0.029,16.971c0.01,0.01,0.02,0.02,0.029,0.029
	l52.27,52.11c4.678,4.694,12.276,4.708,16.971,0.029c0.01-0.01,0.02-0.02,0.029-0.029l180-180.5c43.16,16.21,98,11.64,132.74-23
	C519.08,219.53,519,156.64,497.14,111.38z"/>
<path d="M365.45,308.62l-71.83,72l75.53,79.92c4.116,4.378,11.002,4.59,15.379,0.473c0.092-0.086,0.182-0.174,0.271-0.263l60-60.46
	c4.268-4.324,4.222-11.288-0.102-15.556c-0.046-0.045-0.092-0.09-0.138-0.134L365.45,308.62z"/>
<path d="M119,212c0-4.87-4-9.33-7.45-12.78l-0.25-0.24l-1.54-1.47c-0.193-0.219-0.287-0.509-0.26-0.8
	c2.893-1.629,6.217-2.327,9.52-2c1.27,0.13,5.91,0.9,12.4,4.91c3.38,2.09,32.63,30.23,43.93,40.7
	c-4.121,4.309-4.059,11.117,0.14,15.35l7.43,7.86l65.66-65.17l-8.25-7.84c-4.221-4.22-11.056-4.247-15.31-0.06
	c-23-24.68-29-35.45-31-42.45c-4.42-15.47,4.14-28,14-36c5.84-4.62,17.88-8.08,29-9c3.88-0.229,7.774-0.027,11.61,0.6
	c3.47,0.5,6.3,1.14,7.39,1.4c3.774,1.017,7.454,2.355,11,4l12-19c-3.705-6.44-8.207-12.387-13.4-17.7c-1.59-1.66-3.31-3.37-5.19-5.1
	c-7.78-7.15-28-19.2-54.59-19.2c-15.357-0.017-30.567,2.98-44.77,8.82c-37.44,15.34-61.88,36.25-73.11,47.35l-0.07,0.07
	c-7.546,7.584-14.528,15.709-20.89,24.31c-5.35,7.53-4.77,15.84-4.38,21.34c0,0.32,0,0.67,0.07,1
	c-3.136-2.271-6.908-3.496-10.78-3.5c-4.845-0.033-9.499,1.888-12.91,5.33L2,189.62c-2.65,2.651-2.65,6.949,0,9.6L65,262
	c2.624,2.622,6.876,2.622,9.5,0l37.06-37C115,221.56,119,216.86,119,212z"/>
</svg>
