<?xml version="1.0" encoding="iso-8859-1"?>
<!-- Generator: Adobe Illustrator 24.3.0, SVG Export Plug-In . SVG Version: 6.00 Build 0)  -->
<svg version="1.1" id="Layer_1" xmlns="http://www.w3.org/2000/svg" xmlns:xlink="http://www.w3.org/1999/xlink" x="0px" y="0px"
	 viewBox="0 0 512 512" style="enable-background:new 0 0 512 512;" xml:space="preserve">
<path d="M503.58,126.2c-4.067-8.37-14.15-11.858-22.52-7.791c-1.686,0.82-3.224,1.915-4.55,3.241l-51.15,51.15l0,0
	c-4.342,4.283-11.318,4.283-15.66,0l-22.48-22.48c-4.278-4.347-4.278-11.323,0-15.67l50.88-50.89
	c6.581-6.58,6.581-17.249,0.001-23.829c-1.514-1.514-3.303-2.726-5.271-3.571c-39.71-17-89.08-7.45-120,23.29
	c-26.81,26.61-34.83,68-22,113.7c1.128,4-0.094,8.294-3.16,11.1L114.77,365.1c-23.305,20.966-25.201,56.854-4.235,80.159
	c20.966,23.305,56.854,25.201,80.159,4.235c1.478-1.33,2.886-2.737,4.216-4.214L357,272.08c2.765-2.995,6.96-4.214,10.9-3.17
	c45,12,86,4,112.43-22c15.2-15,25.81-36.17,29.89-59.71C514.05,165,511.63,142.76,503.58,126.2z"/>
<path d="M437.33,378.41c-13.94-11.59-43.72-38.4-74.07-66.22l-66.07,70.61c28.24,30,53.8,57.85,65,70.88l0.07,0.08
	c5.438,6.224,13.202,9.928,21.46,10.24h1.1c7.857-0.024,15.393-3.117,21-8.62l0.07-0.07l33.43-33.37
	c11.518-11.492,11.539-30.145,0.047-41.663c-0.653-0.654-1.336-1.277-2.047-1.867H437.33z"/>
<path d="M118.54,214.55c0.016-3.795-1.022-7.521-3-10.76c-0.815-1.288-0.431-2.993,0.858-3.808c0.524-0.332,1.145-0.477,1.762-0.412
	h0.06c0.84,0.09,5.33,0.74,11.7,4.61c4.73,2.87,18.23,12.08,41.73,35.54c-0.25,7.99,2.304,15.816,7.22,22.12l66.23-61.55
	c-5.866-5.554-13.531-8.819-21.6-9.2c-0.075-0.082-0.146-0.169-0.21-0.26l-0.65-0.69L198.1,156.3c-5.538-7.519-7.033-17.278-4-26.11
	c2.251-6.481,6.345-12.163,11.78-16.35c5.69-4.41,18.53-9.72,29.44-10.62c5.082-0.42,10.198-0.104,15.19,0.94
	c2.391,0.577,4.748,1.288,7.06,2.13c0.701,0.262,1.419,0.472,2.15,0.63c8.627,1.911,17.171-3.533,19.082-12.161
	c0.994-4.488,0.01-9.187-2.702-12.899c-0.26-0.35-1.32-1.79-2.89-3.73c-2.929-3.695-6.139-7.158-9.6-10.36
	c-8.15-7.36-29.27-19.77-57-19.77c-15.869-0.012-31.591,3.044-46.3,9c-38.37,15.45-63.47,36.58-75.01,47.79l-0.09,0.09
	c-7.765,7.667-14.954,15.896-21.51,24.62c-2.478,3.495-4.089,7.529-4.7,11.77c-0.591,3.739-3.932,6.413-7.71,6.17
	c-0.36,0-0.73,0-1.09,0c-5.451-0.036-10.696,2.085-14.59,5.9L6.16,182.05l-0.32,0.32c-7.692,7.991-7.797,20.601-0.24,28.72
	c0.19,0.2,0.37,0.39,0.57,0.58L53.67,258c3.914,3.835,9.171,5.988,14.65,6c5.451,0.036,10.696-2.085,14.59-5.9l29.46-28.79
	C116.34,225.428,118.566,220.102,118.54,214.55z"/>
</svg>
