<?xml version="1.0" encoding="iso-8859-1"?>
<!-- Generator: Adobe Illustrator 24.3.0, SVG Export Plug-In . SVG Version: 6.00 Build 0)  -->
<svg version="1.1" id="Layer_1" xmlns="http://www.w3.org/2000/svg" xmlns:xlink="http://www.w3.org/1999/xlink" x="0px" y="0px"
	 viewBox="0 0 512 512" style="enable-background:new 0 0 512 512;" xml:space="preserve">
<path d="M152.73,463.999c-15.591,0-31.121-6.368-42.315-18.87c-10.114-11.295-15.224-25.852-14.389-40.99
	c0.832-15.086,7.469-28.949,18.693-39.054l172.898-160.666c3.087-2.852,4.283-7.088,3.159-11.088
	c-12.827-45.639-4.808-87.075,22.001-113.687C343.72,48.92,393.083,39.34,432.816,56.351c2.013,0.875,3.748,2.052,5.24,3.536
	c3.223,3.227,4.973,7.456,4.973,11.952c0,4.505-1.756,8.739-4.943,11.923l-50.883,50.882c-4.28,4.304-4.28,11.358,0.031,15.693
	l22.452,22.462c4.295,4.267,11.344,4.275,15.686-0.019l51.121-51.142c1.3-1.29,2.734-2.325,4.312-3.123
	c8.337-4.19,18.484-0.833,22.658,7.466l0.095,0.191c8.061,16.575,10.478,38.813,6.63,61.011
	c-4.079,23.539-14.694,44.746-29.89,59.714c-26.409,26.017-67.392,34.033-112.429,22c-3.96-1.064-8.138,0.141-10.918,3.133
	L194.875,445.252c-1.355,1.505-2.805,2.95-4.311,4.299C179.75,459.234,166.217,463.999,152.73,463.999z M391.354,80.039
	c-20.541,0-41.489,7.876-56.03,22.315c-8.67,8.606-27.361,33.853-13.74,82.317c4.396,15.636-0.284,32.199-12.216,43.222
	L136.183,388.82c-4.927,4.411-7.841,10.478-8.205,17.082c-0.364,6.604,1.865,12.953,6.276,17.88
	c9.109,10.172,24.793,11.038,34.963,1.93c0.677-0.605,1.328-1.258,1.936-1.938l0.244-0.266l162.15-173.3
	c10.834-11.659,27.169-16.357,42.596-12.223c48.001,12.826,73.124-5.437,81.699-13.883c15.684-15.45,22.837-39.977,22.103-60.651
	l-31.997,32.01c-16.778,16.671-44.078,16.669-60.854,0l-22.52-22.529c-16.714-16.806-16.714-44.106-0.028-60.884l31.85-31.849
	C394.72,80.092,393.038,80.039,391.354,80.039z M436.67,184.11h0.01H436.67z"/>
<path d="M223.999,300c-4.021,0-8.044-1.506-11.154-4.53c-12.523-12.18-20.063-19.572-25.568-24.97
	c-2.127-2.086-3.893-3.817-5.456-5.343c-0.033-0.032-0.065-0.064-0.098-0.097c-10.681-10.611-13.194-26.718-6.251-40.078
	c0.071-0.138,0.145-0.275,0.221-0.411c1.674-3.003,3.759-5.756,6.198-8.18c0.036-0.036,0.072-0.072,0.109-0.108l15.614-15.226
	c3.005-2.99,6.493-5.378,10.369-7.1c12.868-5.695,27.653-3.02,37.691,6.809c5.404,5.245,15.391,14.961,33.382,32.494
	c6.329,6.167,6.46,16.296,0.293,22.625c-6.167,6.328-16.299,6.459-22.625,0.292c-17.968-17.508-27.941-27.211-33.387-32.498
	c-0.671-0.657-1.586-0.823-2.381-0.47c-0.279,0.124-0.549,0.31-0.782,0.543c-0.051,0.051-0.102,0.102-0.153,0.151l-15.606,15.218
	c-0.238,0.241-0.449,0.507-0.63,0.793c-0.342,0.825-0.164,1.771,0.468,2.417c1.558,1.522,3.316,3.246,5.429,5.317
	c5.485,5.379,12.998,12.745,25.475,24.879c6.334,6.16,6.476,16.29,0.315,22.625C232.333,298.38,228.168,300,223.999,300z"/>
<path d="M384.85,463.972c-7.8,0.001-15.592-3.013-21.461-9.019c-0.379-0.39-0.719-0.756-1.05-1.132
	c-0.04-0.046-0.079-0.091-0.119-0.137c-15.785-18.315-59.144-65.045-98.708-106.382c-6.11-6.384-5.889-16.513,0.495-22.622
	s16.513-5.887,22.622,0.495c38.703,40.438,81.135,86.141,98.321,105.877l29.802-29.793c-21.326-18.015-70.059-62.405-108.58-98.246
	c-6.47-6.02-6.835-16.144-0.815-22.612c6.019-6.472,16.143-6.836,22.612-0.815c39.553,36.8,89.812,82.564,109.341,98.829
	c6.01,4.953,9.77,12.023,10.523,19.857c0.754,7.832-1.587,15.49-6.593,21.562c-0.589,0.718-1.246,1.441-1.935,2.127l-33.363,33.354
	c-0.044,0.043-0.087,0.086-0.131,0.129C399.986,461.136,392.414,463.972,384.85,463.972z M416.876,403.042
	c0.006,0.005,0.013,0.01,0.019,0.016C416.889,403.052,416.882,403.047,416.876,403.042z M416.697,399.315
	c0,0.001-0.001,0.002-0.002,0.003L416.697,399.315z"/>
<path d="M68.375,264c-0.037-0.001-0.073-0.001-0.108,0c-5.404,0-10.52-2.055-14.427-5.8c-0.035-0.033-0.07-0.066-0.104-0.101
	l-47.57-46.43c-0.146-0.143-0.289-0.288-0.429-0.435c-7.651-8.061-7.651-20.689,0-28.75c0.138-0.146,0.278-0.288,0.422-0.428
	l29.41-28.74c3.866-3.802,9.226-5.966,14.684-5.907c2.91,0.005,5.734,0.605,8.332,1.744c-0.219-5.488,0.229-12.885,5.116-19.652
	c0.065-0.09,0.131-0.18,0.198-0.269c6.482-8.592,13.652-16.783,21.309-24.347c9.219-9.035,34.905-31.697,75.167-47.909
	C175.105,51.023,190.652,48,206.562,48c0.042,0,0.083,0,0.124,0c27.713,0,48.861,12.453,56.985,19.811
	c0.098,0.088,0.193,0.177,0.288,0.268c4.417,4.203,8.493,8.818,12.117,13.72c4.203,5.686,4.176,13.458-0.068,19.114
	c-4.243,5.655-11.694,7.854-18.332,5.41c-2.333-0.86-4.744-1.589-7.169-2.167c-4.99-1.041-10.095-1.355-15.177-0.93
	c-10.966,0.896-23.818,6.222-29.453,10.643c-9.524,7.538-13.938,17.394-14.707,32.914c-0.342,7.097-0.549,11.394,31.435,43.387
	c0.207,0.207,0.407,0.419,0.603,0.636c8.129,9.076,7.652,22.785-1.067,31.271l-18.167,17.947c-8.858,8.685-22.793,8.816-31.77,0.341
	c-0.111-0.105-0.221-0.211-0.329-0.32c-22.818-22.818-36.103-32.222-41.99-35.796c-6.244-3.792-10.677-4.498-11.657-4.613
	c-1.9-0.178-3.79,0.007-5.588,0.541c3.714,3.797,5.794,8.791,5.87,14.122c0.078,5.511-1.995,10.723-5.836,14.674
	c-0.126,0.13-0.275,0.279-0.429,0.428l-29.273,28.585C79.111,261.819,73.814,264,68.375,264z M36.799,196.855l31.493,30.738
	l14.269-13.933c-2.245-4.179-3.474-8.861-3.555-13.74c-0.133-8.05,2.876-15.669,8.475-21.456c0.027-0.029,0.055-0.057,0.083-0.086
	c1.843-1.876,3.943-3.475,6.242-4.751c8.444-4.771,18.008-6.79,27.662-5.83c0.048,0.005,0.097,0.01,0.146,0.015
	c4.512,0.489,13.745,2.319,24.88,9.081c7.867,4.776,21.213,14.496,41.407,34.026l5.166-5.104
	c-26.96-27.538-34.848-40.048-33.858-60.596c1.222-24.678,10.008-43.148,26.862-56.486c3.974-3.118,8.888-6.016,14.285-8.525
	c-9.623,0.649-19.015,2.809-28.009,6.445c-34.956,14.075-56.889,33.391-64.698,41.043c-6.091,6.017-11.857,12.543-17.12,19.382
	c0.012,0.9,0.106,2.188,0.174,3.129c0.42,5.778,1.202,16.532-7.253,24.705c-0.031,0.03-0.062,0.061-0.094,0.09
	c-4.837,4.6-11.654,7.509-19.723,8.416c-4.049,0.497-8.063,0.039-11.777-1.279L36.799,196.855z M89.931,206.463
	c-0.009,0.008-0.019,0.019-0.03,0.029L89.931,206.463z M199.856,199.111c-0.004,0.004-0.007,0.007-0.011,0.011
	C199.849,199.118,199.853,199.114,199.856,199.111z M57.968,176.168l-0.049,0.048C57.935,176.201,57.952,176.184,57.968,176.168z"/>
</svg>
