<?xml version="1.0" encoding="iso-8859-1"?>
<!-- Generator: Adobe Illustrator 24.3.0, SVG Export Plug-In . SVG Version: 6.00 Build 0)  -->
<svg version="1.1" id="Layer_1" xmlns="http://www.w3.org/2000/svg" xmlns:xlink="http://www.w3.org/1999/xlink" x="0px" y="0px"
	 viewBox="0 0 512 512" style="enable-background:new 0 0 512 512;" xml:space="preserve">
<polygon points="320,432 288,432 288,288 432,288 432,320 320,320 "/>
<rect x="357.1" y="273.829" transform="matrix(0.707 -0.7072 0.7072 0.707 -154.5537 373.1707)" width="32" height="198.573"/>
<polygon points="224,224 80,224 80,192 192,192 192,80 224,80 "/>
<rect x="122.9" y="39.598" transform="matrix(0.707 -0.7072 0.7072 0.707 -57.5236 138.9205)" width="32" height="198.573"/>
<polygon points="432,224 288,224 288,80 320,80 320,192 432,192 "/>
<rect x="273.829" y="122.9" transform="matrix(0.707 -0.7072 0.7072 0.707 11.0854 304.5582)" width="198.573" height="32"/>
<polygon points="224,432 192,432 192,320 80,320 80,288 224,288 "/>
<rect x="39.598" y="357.1" transform="matrix(0.707 -0.7072 0.7072 0.707 -223.1627 207.528)" width="198.574" height="32"/>
</svg>
