<?xml version="1.0" encoding="iso-8859-1"?>
<!-- Generator: Adobe Illustrator 24.3.0, SVG Export Plug-In . SVG Version: 6.00 Build 0)  -->
<svg version="1.1" id="Layer_1" xmlns="http://www.w3.org/2000/svg" xmlns:xlink="http://www.w3.org/1999/xlink" x="0px" y="0px"
	 viewBox="0 0 512 512" style="enable-background:new 0 0 512 512;" xml:space="preserve">
<path d="M304,432c-8.837,0-16-7.163-16-16V304c0-8.837,7.163-16,16-16h112c8.837,0,16,7.163,16,16s-7.163,16-16,16h-96v96
	C320,424.837,312.837,432,304,432z"/>
<path d="M432,448c-4.095,0-8.188-1.562-11.312-4.685l-117.8-117.771c-6.249-6.248-6.25-16.379-0.003-22.628
	c6.248-6.249,16.38-6.25,22.628-0.003l117.8,117.771c6.249,6.248,6.25,16.379,0.003,22.628C440.191,446.438,436.096,448,432,448z"/>
<path d="M208,224H96c-8.836,0-16-7.164-16-16s7.164-16,16-16h96V96c0-8.836,7.164-16,16-16s16,7.164,16,16v112
	C224,216.836,216.836,224,208,224z"/>
<path d="M197.8,213.77c-4.094,0-8.188-1.562-11.312-4.685l-117.8-117.77c-6.249-6.248-6.25-16.378-0.002-22.627
	c6.248-6.248,16.378-6.25,22.627-0.002l117.8,117.77c6.249,6.248,6.25,16.378,0.002,22.627
	C205.991,212.207,201.895,213.77,197.8,213.77z"/>
<path d="M416,224H304c-8.837,0-16-7.164-16-16V96c0-8.836,7.163-16,16-16s16,7.164,16,16v96h96c8.837,0,16,7.164,16,16
	S424.837,224,416,224z"/>
<path d="M314.23,213.8c-4.095,0-8.188-1.562-11.312-4.685c-6.249-6.248-6.25-16.378-0.003-22.627l117.77-117.8
	c6.248-6.249,16.38-6.25,22.628-0.003c6.249,6.248,6.25,16.378,0.003,22.627l-117.77,117.8
	C322.422,212.237,318.326,213.8,314.23,213.8z"/>
<path d="M208,432c-8.836,0-16-7.163-16-16v-96H96c-8.836,0-16-7.163-16-16s7.164-16,16-16h112c8.836,0,16,7.163,16,16v112
	C224,424.837,216.836,432,208,432z"/>
<path d="M80,448c-4.094,0-8.188-1.562-11.312-4.685c-6.25-6.248-6.251-16.379-0.003-22.628l117.77-117.801
	c6.249-6.249,16.379-6.25,22.627-0.003c6.25,6.248,6.251,16.379,0.003,22.628L91.315,443.313C88.191,446.438,84.095,448,80,448z"/>
</svg>
