<?xml version="1.0" encoding="iso-8859-1"?>
<!-- Generator: Adobe Illustrator 24.3.0, SVG Export Plug-In . SVG Version: 6.00 Build 0)  -->
<svg version="1.1" id="Layer_1" xmlns="http://www.w3.org/2000/svg" xmlns:xlink="http://www.w3.org/1999/xlink" x="0px" y="0px"
	 viewBox="0 0 512 512" style="enable-background:new 0 0 512 512;" xml:space="preserve">
<path d="M408,480H184c-39.764,0-72-32.236-72-72V184c0-39.764,32.236-72,72-72h224c39.764,0,72,32.235,72,72l0,0v224
	C480,447.765,447.764,480,408,480z"/>
<path d="M160,80h235.88C385.679,51.256,358.5,32.037,328,32H104c-39.765,0-72,32.235-72,72v224c0.037,30.5,19.256,57.679,48,67.88
	V160C80,115.817,115.817,80,160,80z"/>
</svg>
