<?xml version="1.0" encoding="iso-8859-1"?>
<!-- Generator: Adobe Illustrator 24.3.0, SVG Export Plug-In . SVG Version: 6.00 Build 0)  -->
<svg version="1.1" id="Layer_1" xmlns="http://www.w3.org/2000/svg" xmlns:xlink="http://www.w3.org/1999/xlink" x="0px" y="0px"
	 viewBox="0 0 512 512" style="enable-background:new 0 0 512 512;" xml:space="preserve">
<path d="M456,480H136c-13.255,0-24-10.745-24-24V128c0-8.837,7.163-16,16-16h328c13.255,0,24,10.745,24,24v320
	C480,469.255,469.255,480,456,480z"/>
<path d="M112,80h288V56c0-13.255-10.745-24-24-24H60c-15.464,0-28,12.536-28,28v316c0,13.255,10.745,24,24,24h24V112
	C80,94.327,94.327,80,112,80z"/>
</svg>
