<?xml version="1.0" encoding="iso-8859-1"?>
<!-- Generator: Adobe Illustrator 24.3.0, SVG Export Plug-In . SVG Version: 6.00 Build 0)  -->
<svg version="1.1" id="Layer_1" xmlns="http://www.w3.org/2000/svg" xmlns:xlink="http://www.w3.org/1999/xlink" x="0px" y="0px"
	 viewBox="0 0 512 512" style="enable-background:new 0 0 512 512;" xml:space="preserve">
<path d="M459.94,53.25c-5.97-6.56-16.127-7.038-22.687-1.068c-0.181,0.165-0.359,0.334-0.533,0.508L424.35,65
	c-3.122,3.124-3.122,8.186,0,11.31l11.34,11.32c3.117,3.131,8.182,3.143,11.314,0.026c0.009-0.009,0.018-0.018,0.026-0.026l12.06-12
	C465.19,69.54,465.76,59.62,459.94,53.25z"/>
<path d="M399.34,90L218.82,270.2c-1.094,1.09-1.89,2.443-2.31,3.93L208.16,299c-0.614,2.07,0.567,4.246,2.638,4.86
	c0.725,0.215,1.497,0.215,2.222,0l24.85-8.35c1.487-0.42,2.84-1.215,3.93-2.31L422,112.66c3.47-3.507,3.47-9.153,0-12.66l-9.95-10
	C408.537,86.497,402.853,86.497,399.34,90z"/>
<path d="M386.34,193.66L264.45,315.79c-4.711,4.723-10.501,8.227-16.87,10.21l-25.9,8.67c-19.091,5.391-38.939-5.715-44.33-24.806
	c-1.803-6.383-1.803-13.141,0-19.524l8.67-25.9c1.977-6.367,5.475-12.157,10.19-16.87l122.13-121.91
	c3.126-3.122,3.129-8.188,0.006-11.314c-1.5-1.501-3.534-2.345-5.656-2.346H104c-30.928,0-56,25.072-56,56v240
	c0,30.928,25.072,56,56,56h240c30.928,0,56-25.072,56-56V199.31c-0.002-4.418-3.585-7.998-8.004-7.996
	C389.874,191.315,387.84,192.159,386.34,193.66z"/>
</svg>
