<?xml version="1.0" encoding="iso-8859-1"?>
<!-- Generator: Adobe Illustrator 24.3.0, SVG Export Plug-In . SVG Version: 6.00 Build 0)  -->
<svg version="1.1" id="Layer_1" xmlns="http://www.w3.org/2000/svg" xmlns:xlink="http://www.w3.org/1999/xlink" x="0px" y="0px"
	 viewBox="0 0 512 512" style="enable-background:new 0 0 512 512;" xml:space="preserve">
<path d="M344,464H104c-30.878,0-56-25.121-56-56V168c0-30.878,25.122-56,56-56h167.48c8.837,0,16,7.164,16,16s-7.163,16-16,16H104
	c-13.234,0-24,10.767-24,24V408c0,13.233,10.766,24,24,24h240c13.233,0,24-10.767,24-24V224c0-8.836,7.163-16,16-16s16,7.164,16,16
	V408C400,438.879,374.879,464,344,464z"/>
<path d="M459.94,53.25c-5.97-6.56-16.127-7.038-22.687-1.068c-0.181,0.165-0.359,0.334-0.533,0.508L424.35,65
	c-3.122,3.124-3.122,8.186,0,11.31l11.34,11.32c3.117,3.131,8.182,3.143,11.314,0.026c0.009-0.009,0.018-0.018,0.026-0.026l12.06-12
	C465.19,69.54,465.76,59.62,459.94,53.25z"/>
<path d="M399.34,90L218.82,270.2c-1.094,1.09-1.89,2.443-2.31,3.93L208.16,299c-0.614,2.07,0.567,4.246,2.638,4.86
	c0.725,0.215,1.497,0.215,2.222,0l24.85-8.35c1.487-0.42,2.84-1.215,3.93-2.31L422,112.66c3.47-3.507,3.47-9.153,0-12.66l-9.95-10
	C408.537,86.497,402.853,86.497,399.34,90z"/>
</svg>
