<?xml version="1.0" encoding="iso-8859-1"?>
<!-- Generator: Adobe Illustrator 24.3.0, SVG Export Plug-In . SVG Version: 6.00 Build 0)  -->
<svg version="1.1" id="Layer_1" xmlns="http://www.w3.org/2000/svg" xmlns:xlink="http://www.w3.org/1999/xlink" x="0px" y="0px"
	 viewBox="0 0 512 512" style="enable-background:new 0 0 512 512;" xml:space="preserve">
<path d="M464.37,49.2c-8.215-9.004-22.175-9.644-31.179-1.428c-0.239,0.218-0.472,0.44-0.701,0.668l-18.31,18.25l31.18,31.1
	l18-17.91C471.872,71.58,472.318,58.042,464.37,49.2z"/>
<polygon points="252.76,336 239.49,336 208,336 176,336 176,304 176,272.51 176,259.24 185.4,249.86 323.54,112 48,112 48,464 
	400,464 400,188.46 262.14,326.6 "/>
<polygon points="400,143.16 432.79,110.3 401.7,79.21 368.85,112 400,112 "/>
<polygon points="208,304 239.49,304 400,143.16 400,112 368.85,112 208,272.51 "/>
</svg>
