<?xml version="1.0" encoding="iso-8859-1"?>
<!-- Generator: Adobe Illustrator 24.3.0, SVG Export Plug-In . SVG Version: 6.00 Build 0)  -->
<svg version="1.1" id="Layer_1" xmlns="http://www.w3.org/2000/svg" xmlns:xlink="http://www.w3.org/1999/xlink" x="0px" y="0px"
	 viewBox="0 0 512 512" style="enable-background:new 0 0 512 512;" xml:space="preserve">
<path d="M458,346H192c-14.359,0-26-11.641-26-26l0,0V54c0-12.15-9.85-22-22-22s-22,9.85-22,22v68H54c-12.15,0-22,9.85-22,22
	s9.85,22,22,22h68v154c0.044,38.642,31.358,69.956,70,70h154v68c0,12.15,9.85,22,22,22s22-9.85,22-22v-68h68c12.15,0,22-9.85,22-22
	S470.15,346,458,346z"/>
<path d="M214,166h106c14.359,0,26,11.641,26,26v106c0,12.15,9.85,22,22,22s22-9.85,22-22V192c-0.044-38.642-31.358-69.956-70-70H214
	c-12.15,0-22,9.85-22,22S201.85,166,214,166z"/>
</svg>
