<?xml version="1.0" encoding="iso-8859-1"?>
<!-- Generator: Adobe Illustrator 24.3.0, SVG Export Plug-In . SVG Version: 6.00 Build 0)  -->
<svg version="1.1" id="Layer_1" xmlns="http://www.w3.org/2000/svg" xmlns:xlink="http://www.w3.org/1999/xlink" x="0px" y="0px"
	 viewBox="0 0 512 512" style="enable-background:new 0 0 512 512;" xml:space="preserve">
<path d="M464,384H192c-35.29,0-64-28.71-64-64V48c0-8.836,7.164-16,16-16s16,7.164,16,16v272c0,17.645,14.355,32,32,32h272
	c8.837,0,16,7.163,16,16S472.837,384,464,384z"/>
<path d="M368,320c-8.837,0-16-7.163-16-16V192c0-17.645-14.355-32-32-32H208c-8.836,0-16-7.164-16-16s7.164-16,16-16h112
	c35.29,0,64,28.71,64,64V304C384,312.837,376.837,320,368,320z"/>
<path d="M368,480c-8.837,0-16-7.163-16-16v-96c0-8.837,7.163-16,16-16s16,7.163,16,16v96C384,472.837,376.837,480,368,480z"/>
<path d="M144,160H48c-8.836,0-16-7.164-16-16s7.164-16,16-16h96c8.836,0,16,7.164,16,16S152.836,160,144,160z"/>
</svg>
