<?xml version="1.0" encoding="iso-8859-1"?>
<!-- Generator: Adobe Illustrator 24.3.0, SVG Export Plug-In . SVG Version: 6.00 Build 0)  -->
<svg version="1.1" id="Layer_1" xmlns="http://www.w3.org/2000/svg" xmlns:xlink="http://www.w3.org/1999/xlink" x="0px" y="0px"
	 viewBox="0 0 512 512" style="enable-background:new 0 0 512 512;" xml:space="preserve">
<path d="M440.9,136.3c1.908-1.113,2.553-3.563,1.439-5.471c-0.348-0.596-0.843-1.092-1.439-1.439L288.16,40.65
	c-19.893-11.531-44.437-11.531-64.33,0L71.12,129.39c-1.908,1.113-2.553,3.563-1.439,5.471c0.348,0.596,0.843,1.092,1.439,1.439
	L254,243.88c1.253,0.738,2.807,0.738,4.06,0L440.9,136.3z"/>
<path d="M54,163.51c-1.913-1.105-4.36-0.449-5.464,1.464C48.18,165.59,47.995,166.289,48,167v173.89
	c0.031,17.052,9.106,32.807,23.84,41.39L234,479.51c1.913,1.105,4.36,0.449,5.464-1.464c0.35-0.607,0.535-1.295,0.536-1.996V274.3
	c-0.001-1.428-0.764-2.746-2-3.46L54,163.51z"/>
<path d="M272,275v201c0.002,2.209,1.795,3.998,4.004,3.996c0.701-0.001,1.389-0.186,1.996-0.536l162.15-97.23
	c14.723-8.571,23.799-24.304,23.85-41.34V167c-0.008-2.209-1.805-3.994-4.014-3.986c-0.697,0.002-1.382,0.187-1.986,0.536l-184,108
	C272.767,272.262,272.005,273.576,272,275z"/>
</svg>
