<?xml version="1.0" encoding="iso-8859-1"?>
<!-- Generator: Adobe Illustrator 24.3.0, SVG Export Plug-In . SVG Version: 6.00 Build 0)  -->
<svg version="1.1" id="Layer_1" xmlns="http://www.w3.org/2000/svg" xmlns:xlink="http://www.w3.org/1999/xlink" x="0px" y="0px"
	 viewBox="0 0 512 512" style="enable-background:new 0 0 512 512;" xml:space="preserve">
<path d="M480,128h-48l-198.94,70.46l-59.13-31.59c8.3-38.979-16.569-77.306-55.548-85.607s-77.306,16.569-85.607,55.548
	s16.569,77.306,55.548,85.607c21.072,4.487,43.048-0.676,59.917-14.078l52.2,31.72L192,277l-43.64,26.76
	c-31.031-24.636-76.157-19.451-100.793,11.579s-19.451,76.157,11.579,100.793s76.157,19.451,100.793-11.579
	c14.041-17.685,18.935-40.949,13.211-62.793L480,160V128z M103.48,192c-22.091,0-40-17.909-40-40s17.909-40,40-40s40,17.909,40,40
	S125.571,192,103.48,192L103.48,192z M103.48,400c-22.091,0-40-17.909-40-40c0-22.091,17.909-40,40-40s40,17.909,40,40
	S125.571,400,103.48,400L103.48,400z M255.48,256c-8.837,0-16-7.163-16-16s7.163-16,16-16c8.837,0,16,7.163,16,16
	S264.317,256,255.48,256L255.48,256L255.48,256z"/>
<polygon points="343.79,259.87 260.05,308.05 432,368 479.99,368 480,336 "/>
</svg>
