<?xml version="1.0" encoding="iso-8859-1"?>
<!-- Generator: Adobe Illustrator 24.3.0, SVG Export Plug-In . SVG Version: 6.00 Build 0)  -->
<svg version="1.1" id="Layer_1" xmlns="http://www.w3.org/2000/svg" xmlns:xlink="http://www.w3.org/1999/xlink" x="0px" y="0px"
	 viewBox="0 0 512 512" style="enable-background:new 0 0 512 512;" xml:space="preserve">
<path d="M104,224c-39.701,0-72-32.299-72-72s32.299-72,72-72s72,32.299,72,72S143.701,224,104,224z M104,112
	c-22.056,0-40,17.944-40,40s17.944,40,40,40s40-17.944,40-40S126.056,112,104,112z"/>
<path d="M104,432c-39.701,0-72-32.299-72-72s32.299-72,72-72s72,32.299,72,72S143.701,432,104,432z M104,320
	c-22.056,0-40,17.944-40,40s17.944,40,40,40s40-17.944,40-40S126.056,320,104,320z"/>
<path d="M190.28,225.216l-69.334-28.108l31.816-43.385l62.875,38.106l-14.26,14.421c-1.174,1.188-3.326,4.548-4.292,6.341
	L190.28,225.216z"/>
<path d="M147.201,356.727l-23.196-47.833l20.313-3.741c1.174-0.281,16.947-4.272,38.149-20.002
	c13.028-9.678,15.227-20.85,18.011-34.994c3.049-15.489,6.843-34.766,27.098-49.152c42.827-30.429,144.923-54.174,164.954-58.625
	c22.735-5.051,39.569-4.858,49.687-3.808c18.031,1.874,29.059,7.874,32.774,17.833l4.781,12.814L147.201,356.727z M410.469,171.558
	c-3.466,0.525-7.137,1.203-10.998,2.061c-52.423,11.648-124.044,32.642-153.364,53.474c-9.415,6.687-11.354,14.626-14.232,29.244
	c-1.133,5.758-2.362,12.002-4.43,18.412L410.469,171.558z"/>
<path d="M422.299,359.342c-3.882,0-7.671-0.156-11.251-0.37c-50.828-3.023-100.557-27.055-119.276-36.102
	c-1.393-0.673-2.604-1.259-3.619-1.74l-27.645-13.091l83.801-48.161l136.729,75.418l-20.775,14.751
	C449.711,357.539,435.481,359.342,422.299,359.342z M329.827,305.109c18.023,7.64,41.975,16.269,66.717,20.127l-51.913-28.635
	L329.827,305.109z"/>
<path d="M256,288c-26.467,0-48-21.533-48-48.001s21.533-48,48-48c26.468,0,48,21.533,48,48S282.468,288,256,288z M256,224
	c-8.822,0-16,7.178-16,16c0,8.823,7.178,16.001,16,16.001s16-7.178,16-16.001C272,231.178,264.822,224,256,224z"/>
</svg>
