<?xml version="1.0" encoding="iso-8859-1"?>
<!-- Generator: Adobe Illustrator 24.3.0, SVG Export Plug-In . SVG Version: 6.00 Build 0)  -->
<svg version="1.1" id="Layer_1" xmlns="http://www.w3.org/2000/svg" xmlns:xlink="http://www.w3.org/1999/xlink" x="0px" y="0px"
	 viewBox="0 0 512 512" style="enable-background:new 0 0 512 512;" xml:space="preserve">
<path d="M103.48,224c16.265,0.012,32.05-5.51,44.76-15.66l41.5,16.89l6.82-12.63c1.227-2.26,2.674-4.394,4.32-6.37l14.22-14.42
	l-41.17-24.94c8.212-38.907-16.671-77.105-55.578-85.318S41.247,98.223,33.035,137.13s16.671,77.105,55.578,85.318
	C93.501,223.48,98.484,224,103.48,224z M103.48,112c22.091,0,40,17.909,40,40s-17.909,40-40,40s-40-17.909-40-40
	S81.389,112,103.48,112z"/>
<path d="M480,169l-5.52-12.58c-4.48-10.42-14.74-16-32.78-17.85c-10.12-1-26.95-1.24-49.69,3.81c-20,4.45-122.14,28.2-164.95,58.62
	C206.81,215.39,203,234.67,200,250.16c-2.78,14.14-5,25.31-18,35c-15,11.14-27.27,16.38-33.58,18.6
	c-31.031-24.636-76.157-19.451-100.793,11.579s-19.451,76.157,11.579,100.793s76.157,19.451,100.793-11.579
	c14.041-17.685,18.935-40.949,13.211-62.793L480,169z M255.48,256c-8.837,0-16-7.163-16-16s7.163-16,16-16s16,7.163,16,16v0
	C271.48,248.837,264.317,256,255.48,256z M103.48,400c-22.091,0-40-17.909-40-40s17.909-40,40-40s40,17.909,40,40
	S125.571,400,103.48,400z"/>
<path d="M343.79,259.87l-83.74,48.18l27.63,13.08l3.62,1.74C310,331.92,359.74,356,410.53,359c3.89,0.23,7.47,0.34,10.78,0.34
	C442,359.31,453,354,459.75,350L480,336L343.79,259.87z"/>
</svg>
