<?xml version="1.0" encoding="iso-8859-1"?>
<!-- Generator: Adobe Illustrator 24.3.0, SVG Export Plug-In . SVG Version: 6.00 Build 0)  -->
<svg version="1.1" id="Layer_1" xmlns="http://www.w3.org/2000/svg" xmlns:xlink="http://www.w3.org/1999/xlink" x="0px" y="0px"
	 viewBox="0 0 512 512" style="enable-background:new 0 0 512 512;" xml:space="preserve">
<path d="M480,48H32c-8.837,0-16,7.163-16,16v320c0,8.837,7.163,16,16,16h168v32h-72v32h256v-32h-72v-32h168c8.837,0,16-7.163,16-16
	V64C496,55.163,488.837,48,480,48z M460,84v216H52V84H460z M240.13,354.08c-1.146-8.762,5.028-16.794,13.79-17.94
	c8.762-1.146,16.794,5.028,17.94,13.79c1.146,8.762-5.028,16.794-13.79,17.94c-1.377,0.18-2.772,0.18-4.15,0
	C246.729,366.93,241.07,361.271,240.13,354.08z"/>
</svg>
