<?xml version="1.0" encoding="iso-8859-1"?>
<!-- Generator: Adobe Illustrator 24.3.0, SVG Export Plug-In . SVG Version: 6.00 Build 0)  -->
<svg version="1.1" id="Layer_1" xmlns="http://www.w3.org/2000/svg" xmlns:xlink="http://www.w3.org/1999/xlink" x="0px" y="0px"
	 viewBox="0 0 512 512" style="enable-background:new 0 0 512 512;" xml:space="preserve">
<path d="M16,352c0.028,26.498,21.502,47.972,48,48h133.88l-4,32H144c-8.837,0-16,7.163-16,16s7.163,16,16,16h224
	c8.837,0,16-7.163,16-16s-7.163-16-16-16h-49.88l-4-32H448c26.498-0.028,47.972-21.502,48-48v-48H16V352z M256,336
	c8.837,0,16,7.163,16,16s-7.163,16-16,16c-8.837,0-16-7.163-16-16S247.163,336,256,336z"/>
<path d="M496,96c-0.028-26.498-21.502-47.972-48-48H64c-26.498,0.028-47.972,21.502-48,48v192h480V96z"/>
</svg>
