<?xml version="1.0" encoding="iso-8859-1"?>
<!-- Generator: Adobe Illustrator 24.3.0, SVG Export Plug-In . SVG Version: 6.00 Build 0)  -->
<svg version="1.1" id="Layer_1" xmlns="http://www.w3.org/2000/svg" xmlns:xlink="http://www.w3.org/1999/xlink" x="0px" y="0px"
	 viewBox="0 0 512 512" style="enable-background:new 0 0 512 512;" xml:space="preserve">
<path d="M448,400H64c-26.467,0-48-21.532-48-48V96c0-26.467,21.533-48,48-48h384c26.468,0,48,21.533,48,48v256
	C496,378.468,474.468,400,448,400z M64,80c-8.822,0-16,7.178-16,16v256c0,8.822,7.178,16,16,16h384c8.822,0,16-7.178,16-16V96
	c0-8.822-7.178-16-16-16H64z"/>
<g>
	<polygon points="304,448 296,384 216,384 208,448 	"/>
	<path d="M304,464h-96c-4.589,0-8.958-1.971-11.995-5.411c-3.038-3.44-4.451-8.02-3.882-12.573l8-64
		C201.125,374.009,207.931,368,216,368h80c8.069,0,14.876,6.009,15.876,14.016l8,64c0.569,4.554-0.844,9.133-3.881,12.573
		S308.589,464,304,464z M226.125,432h59.75l-4-32h-51.75L226.125,432z"/>
</g>
<path d="M368,464H144c-8.836,0-16-7.163-16-16s7.164-16,16-16h224c8.837,0,16,7.163,16,16S376.837,464,368,464z"/>
<path d="M32,304v48c0.049,17.653,14.347,31.951,32,32h384c17.653-0.049,31.951-14.347,32-32v-48H32z M256,368
	c-8.837,0-16-7.163-16-16s7.163-16,16-16c8.837,0,16,7.163,16,16S264.837,368,256,368z"/>
</svg>
