<?xml version="1.0" encoding="iso-8859-1"?>
<!-- Generator: Adobe Illustrator 24.3.0, SVG Export Plug-In . SVG Version: 6.00 Build 0)  -->
<svg version="1.1" id="icons" xmlns="http://www.w3.org/2000/svg" xmlns:xlink="http://www.w3.org/1999/xlink" x="0px" y="0px"
	 viewBox="0 0 512 512" style="enable-background:new 0 0 512 512;" xml:space="preserve">
<path d="M256.035,479.986c-9.669,0-19.234-4.33-25.561-12.577L22.749,197.979c-0.006-0.008-0.012-0.016-0.018-0.024
	c-8.181-10.652-8.933-25.485-1.869-36.91L91.338,47.284c5.883-9.545,16.124-15.271,27.374-15.284H393.27
	c11.27,0.013,21.51,5.738,27.411,15.316l70.451,113.717c7.07,11.438,6.318,26.271-1.863,36.923L281.501,467.44
	c-1.69,2.202-3.688,4.199-5.917,5.91C269.755,477.823,262.868,479.986,256.035,479.986z M48.107,178.461l207.734,269.439
	c0.073,0.095,0.201,0.11,0.262,0.062L463.909,178.44c0.113-0.147,0.125-0.384,0.012-0.567L393.458,64.136
	c-0.06-0.098-0.13-0.136-0.206-0.136H118.73c-0.058,0-0.129,0.04-0.169,0.104L48.072,177.886
	C47.967,178.056,47.979,178.291,48.107,178.461z"/>
<path d="M464,192H48c-8.836,0-16-7.164-16-16s7.164-16,16-16h416c8.837,0,16,7.164,16,16S472.837,192,464,192z"/>
<path d="M351.997,192c-4.997,0-9.755-2.344-12.797-6.4l-96-128c-5.302-7.069-3.87-17.098,3.2-22.4c7.069-5.303,17.098-3.87,22.4,3.2
	l79.396,105.86l37.099-86.563c3.48-8.122,12.882-11.887,21.009-8.404c8.122,3.481,11.885,12.887,8.403,21.009l-48,112
	c-2.25,5.251-7.13,8.904-12.802,9.583C353.267,191.963,352.63,192,351.997,192z"/>
<path d="M160.002,192c-0.633,0-1.269-0.038-1.907-0.114c-5.672-0.68-10.552-4.333-12.802-9.583l-48-112
	c-3.48-8.122,0.282-17.528,8.404-21.009c8.123-3.48,17.528,0.282,21.009,8.404l37.098,86.563L243.2,38.4
	c5.302-7.07,15.33-8.504,22.399-3.2c7.069,5.302,8.502,15.331,3.2,22.4l-96,128C169.758,189.656,165,192,160.002,192z"/>
<path d="M256,464.004c-6.594,0-12.768-4.106-15.088-10.679l-96-272c-2.941-8.333,1.43-17.472,9.763-20.413
	c8.333-2.941,17.472,1.431,20.413,9.763l96,272c2.941,8.333-1.43,17.472-9.763,20.413C259.564,463.709,257.767,464.004,256,464.004z
	"/>
<path d="M256,464.004c-1.767,0-3.564-0.294-5.325-0.916c-8.333-2.941-12.704-12.08-9.763-20.413l96-272
	c2.941-8.333,12.079-12.704,20.413-9.763c8.333,2.941,12.704,12.08,9.763,20.413l-96,272
	C268.769,459.897,262.594,464.004,256,464.004z"/>
</svg>
