<?xml version="1.0" encoding="iso-8859-1"?>
<!-- Generator: Adobe Illustrator 24.3.0, SVG Export Plug-In . SVG Version: 6.00 Build 0)  -->
<svg version="1.1" id="icons" xmlns="http://www.w3.org/2000/svg" xmlns:xlink="http://www.w3.org/1999/xlink" x="0px" y="0px"
	 viewBox="0 0 512 512" style="enable-background:new 0 0 512 512;" xml:space="preserve">
<path d="M121.72,32c-2.209-0.02-4.016,1.754-4.037,3.963c-0.005,0.548,0.103,1.092,0.317,1.597l2.3,5.43l40.7,94.9
	c0.87,2.031,3.222,2.971,5.252,2.101c0.646-0.277,1.207-0.719,1.628-1.281L243,38.4c1.325-1.767,0.967-4.275-0.8-5.6
	c-0.692-0.519-1.535-0.8-2.4-0.8H121.72z"/>
<path d="M419.93,58.06l-41.28,96.37c-0.867,2.032,0.077,4.382,2.109,5.249c0.497,0.212,1.031,0.321,1.571,0.321h101
	c2.209,0.001,4.001-1.789,4.002-3.998c0-0.746-0.208-1.478-0.602-2.112L427,57.53c-1.167-1.876-3.633-2.451-5.509-1.284
	C420.798,56.678,420.253,57.31,419.93,58.06z"/>
<path d="M85,57.57l-59.71,96.32c-1.165,1.877-0.589,4.343,1.288,5.508c0.634,0.394,1.366,0.602,2.112,0.602h101
	c2.209-0.003,3.998-1.796,3.995-4.005c-0.001-0.542-0.111-1.078-0.325-1.575L92,58.1c-0.91-2.013-3.28-2.907-5.293-1.997
	C86.01,56.419,85.417,56.928,85,57.57z"/>
<path d="M393.27,32H267.82c-1.071-0.007-1.946,0.856-1.953,1.927c-0.003,0.427,0.135,0.842,0.393,1.183l79.92,106.46
	c0.641,0.859,1.856,1.036,2.715,0.395c0.275-0.205,0.491-0.479,0.625-0.795L391.6,43l3.4-8.34c0.409-0.978-0.052-2.103-1.03-2.512
	c-0.213-0.089-0.44-0.139-0.67-0.148H393.27z"/>
<path d="M239,448l-89.43-253.49c-0.538-1.508-1.968-2.514-3.57-2.51H25.7c-2.054-0.006-3.725,1.655-3.731,3.709
	c-0.002,0.829,0.272,1.635,0.781,2.291l216,279.81c1.51,1.955,4.211,2.534,6.39,1.37l0,0c2.194-1.154,3.21-3.741,2.39-6.08L239,448z
	"/>
<path d="M486.3,192H366c-1.593,0-3.013,1.006-3.54,2.51l-98.2,278.16c-0.852,2.412,0.174,5.086,2.42,6.31l0,0
	c2.247,1.217,5.044,0.629,6.61-1.39L489.25,198l0,0c1.259-1.623,0.964-3.96-0.659-5.219C487.935,192.272,487.129,191.998,486.3,192z
	"/>
<path d="M259.2,78.93l56,74.67c1.325,1.767,0.967,4.275-0.8,5.6c-0.692,0.519-1.535,0.8-2.4,0.8H200c-2.209,0-4-1.791-4-4
	c0-0.865,0.281-1.708,0.8-2.4l56-74.67c1.325-1.767,3.833-2.125,5.6-0.8C258.703,78.357,258.973,78.627,259.2,78.93z M252.2,389.24
	l-67.7-191.91c-0.735-2.083,0.359-4.368,2.442-5.102c0.426-0.15,0.875-0.227,1.328-0.228h135.46
	c2.209,0.001,3.999,1.793,3.998,4.002c0,0.452-0.077,0.901-0.228,1.328l-67.73,191.91c-0.738,2.082-3.025,3.171-5.107,2.433
	c-1.136-0.403-2.03-1.297-2.433-2.433H252.2z"/>
</svg>
