<?xml version="1.0" encoding="iso-8859-1"?>
<!-- Generator: Adobe Illustrator 24.3.0, SVG Export Plug-In . SVG Version: 6.00 Build 0)  -->
<svg version="1.1" id="Layer_1" xmlns="http://www.w3.org/2000/svg" xmlns:xlink="http://www.w3.org/1999/xlink" x="0px" y="0px"
	 viewBox="0 0 512 512" style="enable-background:new 0 0 512 512;" xml:space="preserve">
<path d="M440.88,129.37L288.16,40.62c-19.893-11.531-44.437-11.531-64.33,0L71.12,129.37c-1.905,1.118-2.544,3.569-1.426,5.474
	c0.346,0.589,0.837,1.08,1.426,1.426L254,243.85c1.253,0.738,2.807,0.738,4.06,0L440.9,136.27c1.902-1.123,2.533-3.576,1.41-5.478
	C441.963,130.203,441.47,129.714,440.88,129.37z M256,152c-13.25,0-24-7.16-24-16s10.75-16,24-16s24,7.16,24,16S269.25,152,256,152z
	"/>
<path d="M238,270.81L54,163.48c-1.913-1.105-4.36-0.449-5.464,1.464c-0.35,0.607-0.535,1.295-0.536,1.996v173.92
	c0.031,17.052,9.106,32.807,23.84,41.39L234,479.48c1.913,1.105,4.36,0.449,5.464-1.464c0.35-0.607,0.535-1.295,0.536-1.996V274.27
	C239.999,272.842,239.236,271.524,238,270.81z M96,368c-8.84,0-16-10.75-16-24s7.16-24,16-24s16,10.75,16,24S104.84,368,96,368z
	 M192,336c-8.84,0-16-10.75-16-24s7.16-24,16-24s16,10.75,16,24S200.84,336,192,336z"/>
<path d="M458,163.51L274,271.56c-1.233,0.712-1.995,2.026-2,3.45V476c0.002,2.209,1.795,3.998,4.004,3.996
	c0.701-0.001,1.389-0.186,1.996-0.536l162.15-97.23c14.732-8.577,23.81-24.323,23.85-41.37V167c0.014-2.209-1.765-4.012-3.974-4.026
	C459.315,162.97,458.616,163.155,458,163.51z M320,424c-8.84,0-16-10.75-16-24s7.16-24,16-24s16,10.75,16,24S328.84,424,320,424z
	 M320,336c-8.84,0-16-10.75-16-24s7.16-24,16-24s16,10.75,16,24S328.84,336,320,336z M416,368c-8.84,0-16-10.75-16-24s7.16-24,16-24
	s16,10.75,16,24S424.84,368,416,368z M416,280c-8.84,0-16-10.75-16-24c0-13.25,7.16-24,16-24s16,10.75,16,24
	C432,269.25,424.84,280,416,280z"/>
</svg>
