<?xml version="1.0" encoding="iso-8859-1"?>
<!-- Generator: Adobe Illustrator 24.3.0, SVG Export Plug-In . SVG Version: 6.00 Build 0)  -->
<svg version="1.1" id="Layer_1" xmlns="http://www.w3.org/2000/svg" xmlns:xlink="http://www.w3.org/1999/xlink" x="0px" y="0px"
	 viewBox="0 0 512 512" style="enable-background:new 0 0 512 512;" xml:space="preserve">
<path d="M256.008,479.94c-11.122,0-22.239-2.882-32.158-8.646L71.842,382.83C57.143,374.264,48.01,358.383,48,341.379V170.61
	c0.021-17.011,9.154-32.881,23.835-41.435l151.986-88.463c19.841-11.551,44.495-11.553,64.339,0l151.998,88.459
	c14.688,8.559,23.821,24.428,23.842,41.42V341.37c0,0.001,0,0.003,0,0.004c-0.005,16.997-9.126,32.878-23.805,41.445
	l-152.018,88.471C278.255,477.056,267.129,479.94,256.008,479.94z M255.989,64.039c-5.557,0-11.113,1.442-16.069,4.328
	L87.939,156.828c-4.888,2.848-7.932,8.138-7.939,13.801v170.74c0.003,5.659,3.048,10.953,7.945,13.807l151.993,88.455
	c9.91,5.761,22.235,5.761,32.152-0.004l151.992-88.456c4.876-2.846,7.916-8.14,7.918-13.806V170.61
	c-0.007-5.645-3.051-10.935-7.945-13.786L272.062,68.369C267.105,65.482,261.547,64.039,255.989,64.039z M448,341.37h0.01H448z"/>
<path d="M256,279.99c-2.804,0-5.609-0.736-8.112-2.209l-187-110c-7.617-4.48-10.159-14.287-5.679-21.903
	c4.479-7.617,14.287-10.159,21.903-5.679L256,245.427l178.888-105.228c7.617-4.479,17.424-1.938,21.903,5.679
	c4.48,7.617,1.938,17.423-5.679,21.903l-187,110C261.608,279.253,258.805,279.99,256,279.99z"/>
<path d="M256,479.99c-8.836,0-16-7.163-16-16v-200c0-8.836,7.164-16,16-16c8.837,0,16,7.164,16,16v200
	C272,472.827,264.837,479.99,256,479.99z"/>
<ellipse cx="256" cy="152" rx="24" ry="16"/>
<ellipse cx="208" cy="296" rx="16" ry="24"/>
<ellipse cx="112" cy="328" rx="16" ry="24"/>
<ellipse cx="304" cy="296" rx="16" ry="24"/>
<ellipse cx="400" cy="240" rx="16" ry="24"/>
<ellipse cx="304" cy="384" rx="16" ry="24"/>
<ellipse cx="400" cy="328" rx="16" ry="24"/>
</svg>
