<?xml version="1.0" encoding="iso-8859-1"?>
<!-- Generator: Adobe Illustrator 24.3.0, SVG Export Plug-In . SVG Version: 6.00 Build 0)  -->
<svg version="1.1" id="Layer_1" xmlns="http://www.w3.org/2000/svg" xmlns:xlink="http://www.w3.org/1999/xlink" x="0px" y="0px"
	 viewBox="0 0 512 512" style="enable-background:new 0 0 512 512;" xml:space="preserve">
<path d="M48,366.92L240,480V284L48,170V366.92z M192,288c8.84,0,16,10.75,16,24s-7.16,24-16,24s-16-10.75-16-24S183.16,288,192,288z
	 M96,320c8.84,0,16,10.75,16,24s-7.16,24-16,24s-16-10.75-16-24S87.16,320,96,320z"/>
<path d="M272,284v196l192-113.08V170L272,284z M320,424c-8.84,0-16-10.75-16-24s7.16-24,16-24s16,10.75,16,24S328.84,424,320,424z
	 M320,336c-8.84,0-16-10.75-16-24s7.16-24,16-24s16,10.75,16,24S328.84,336,320,336z M416,368c-8.84,0-16-10.75-16-24s7.16-24,16-24
	s16,10.75,16,24S424.84,368,416,368z M416,280c-8.84,0-16-10.75-16-24c0-13.25,7.16-24,16-24s16,10.75,16,24
	C432,269.25,424.84,280,416,280z M448,357.64L448,357.64z"/>
<path d="M256,32L64,144l192,112l192-112L256,32z M256,152c-13.25,0-24-7.16-24-16s10.75-16,24-16s24,7.16,24,16S269.25,152,256,152z
	"/>
</svg>
