<?xml version="1.0" encoding="iso-8859-1"?>
<!-- Generator: Adobe Illustrator 24.3.0, SVG Export Plug-In . SVG Version: 6.00 Build 0)  -->
<svg version="1.1" id="Layer_1" xmlns="http://www.w3.org/2000/svg" xmlns:xlink="http://www.w3.org/1999/xlink" x="0px" y="0px"
	 viewBox="0 0 512 512" style="enable-background:new 0 0 512 512;" xml:space="preserve">
<circle cx="256" cy="256" r="32"/>
<path d="M414.39,97.61C327.343,9.704,185.516,9.007,97.61,96.054s-88.603,228.874-1.557,316.78c0.516,0.521,1.035,1.04,1.557,1.557
	c87.047,87.906,228.874,88.603,316.78,1.557s88.603-228.874,1.557-316.78C415.43,98.645,414.911,98.126,414.39,97.61z M256,336
	c-44.183,0-80-35.817-80-80s35.817-80,80-80s80,35.817,80,80C335.95,300.162,300.162,335.95,256,336z"/>
</svg>
