<?xml version="1.0" encoding="iso-8859-1"?>
<!-- Generator: Adobe Illustrator 24.3.0, SVG Export Plug-In . SVG Version: 6.00 Build 0)  -->
<svg version="1.1" id="Layer_1" xmlns="http://www.w3.org/2000/svg" xmlns:xlink="http://www.w3.org/1999/xlink" x="0px" y="0px"
	 viewBox="0 0 512 512" style="enable-background:new 0 0 512 512;" xml:space="preserve">
<path d="M256,176c-44.183,0-80,35.817-80,80s35.817,80,80,80s80-35.817,80-80C335.95,211.838,300.162,176.05,256,176z M256,288
	c-17.673,0-32-14.327-32-32s14.327-32,32-32s32,14.327,32,32S273.673,288,256,288z"/>
<path d="M414.39,97.61C327.343,9.704,185.516,9.007,97.61,96.054s-88.603,228.874-1.557,316.78c0.516,0.521,1.035,1.04,1.557,1.557
	c87.047,87.906,228.874,88.603,316.78,1.557s88.603-228.874,1.557-316.78C415.43,98.645,414.911,98.126,414.39,97.61z M256,368
	c-61.856,0-112-50.144-112-112s50.144-112,112-112s112,50.144,112,112C367.934,317.829,317.828,367.934,256,368z"/>
</svg>
