<svg width="38" height="38" viewBox="0 0 38 38"  xmlns="http://www.w3.org/2000/svg">
<circle cx="19" cy="19" r="19" fill="url(#paint0_linear_644_20894)"/>
<g opacity="0.8">
<rect width="24" height="24" transform="translate(7 7)" fill="url(#paint1_linear_644_20894)"/>
<path d="M22.75 19.3811V27.4375C22.75 28.5766 21.857 29.5 20.7367 29.5H12.0156C10.893 29.5 10 28.5766 10 27.4375V15.0625C10.0032 14.5165 10.2215 13.9937 10.6076 13.6076C10.9937 13.2215 11.5165 13.0032 12.0625 13H16.4744C16.6271 13.0002 16.7782 13.0309 16.919 13.0901C17.0597 13.1493 17.1873 13.236 17.2942 13.345L22.4106 18.5481C22.6283 18.7707 22.7501 19.0697 22.75 19.3811V19.3811Z" fill="url(#paint0_linear_644_20894)" stroke="#482084" stroke-width="1.5" stroke-linejoin="round"/>
<path d="M16.375 13V18.0625C16.3791 18.4093 16.5187 18.7408 16.764 18.986C17.0092 19.2313 17.3407 19.3709 17.6875 19.375H22.75" stroke="#482084" stroke-width="1.5" stroke-linecap="round" fill="url(#paint0_linear_644_20894)" stroke-linejoin="round"/>
<path d="M15.25 13V10.5625C15.2532 10.0165 15.4715 9.49373 15.8576 9.10763C16.2437 8.72152 16.7665 8.5032 17.3125 8.5H21.7188C21.8723 8.50021 22.0243 8.53081 22.166 8.59002C22.3076 8.64923 22.4362 8.73589 22.5442 8.845L27.6606 14.0481C27.8782 14.2683 28.0001 14.5655 28 14.875V22.9375C28 24.0766 27.107 25 25.9867 25H23.125" stroke="#482084" stroke-width="1.5" fill="url(#paint0_linear_644_20894)" stroke-linejoin="round"/>
<path d="M21.625 8.5V13.5625C21.6291 13.9093 21.7687 14.2408 22.014 14.486C22.2592 14.7313 22.5907 14.8709 22.9375 14.875H28" stroke="#482084" stroke-width="1.5" stroke-linecap="round" fill="url(#paint0_linear_644_20894)" stroke-linejoin="round"/>
</g>
<defs>
<linearGradient id="paint0_linear_644_20894" x1="-34.01" y1="-14.25" x2="2.42614" y2="56.0537" gradientUnits="userSpaceOnUse">
<stop stop-color="#FEBED9"/>
<stop offset="0.796875" stop-color="#FFDCB8"/>
</linearGradient>
<linearGradient id="paint1_linear_644_20894" x1="-21.48" y1="-9" x2="1.5323" y2="35.4023" gradientUnits="userSpaceOnUse">
<stop stop-color="#FEBED9"/>
<stop offset="0.796875" stop-color="#FFDCB8"/>
</linearGradient>
</defs>
</svg>
