<?xml version="1.0" encoding="iso-8859-1"?>
<!-- Generator: Adobe Illustrator 24.3.0, SVG Export Plug-In . SVG Version: 6.00 Build 0)  -->
<svg version="1.1" id="Layer_1" xmlns="http://www.w3.org/2000/svg" xmlns:xlink="http://www.w3.org/1999/xlink" x="0px" y="0px"
	 viewBox="0 0 512 512" style="enable-background:new 0 0 512 512;" xml:space="preserve">
<path d="M280,240c-4.418,0-8-3.582-8-8V48h-57.25c-1.868-3.459-4.043-6.742-6.5-9.81C196.72,23.88,179.59,16,160,16
	c-37.68,0-64,29.61-64,72v144c0,25,20.34,40,40,40c21.853,0.239,39.761-17.283,40-39.135c0.003-0.288,0.003-0.576,0-0.865V80h-32
	v152c0.14,4.278-3.214,7.86-7.492,8c-0.169,0.006-0.339,0.006-0.508,0c-2.23,0-8-1.44-8-8V88c0-19.34,8.41-40,32-40
	c29.69,0,32,30.15,32,39.38v138.75c0,17.45-5.47,33.23-15.41,44.46C166.5,282,152.47,288,136,288s-30.5-6-40.59-17.41
	C85.47,259.36,80,243.58,80,226.13V144H48v82.13c0,51.51,33.19,89.63,80,93.53V468c0,6.627,5.373,12,12,12h312
	c6.627,0,12-5.373,12-12V240H280z"/>
<path d="M308,208h146.31c1.105,0.001,2.001-0.894,2.002-1.998c0-0.529-0.209-1.036-0.582-1.412L307.41,56.27
	c-0.783-0.779-2.05-0.775-2.828,0.008C304.209,56.654,304,57.161,304,57.69V204C304,206.209,305.791,208,308,208z"/>
</svg>
