<?xml version="1.0" encoding="UTF-8"?>
<svg width="352px" height="448px" viewBox="0 0 352 448" version="1.1" xmlns="http://www.w3.org/2000/svg" xmlns:xlink="http://www.w3.org/1999/xlink">
    <title>Group</title>
    <g id="Page-1" stroke="none" stroke-width="1"  fill-rule="evenodd">
        <g id="Group"  fill-rule="nonzero">
            <g id="document-outline">
                <path d="M288,448 L64,448 C28.71,448 0,419.29 0,384 L0,64 C0,28.71 28.71,0 64,0 L162.75,0 C175.569,0 187.619,4.994 196.683,14.055 L337.944,155.317 C347.007,164.382 352.001,176.432 352.001,189.248 C352.001,189.248 352.001,189.249 352.001,189.25 L352.001,384 C352.001,419.29 323.29,448 288,448 Z M64,32 C46.355,32 32,46.355 32,64 L32,384 C32,401.645 46.355,416 64,416 L288,416 C305.645,416 320,401.645 320,384 L320,189.25 C320,184.98 318.336,180.964 315.314,177.943 L174.057,36.684 C171.037,33.665 167.02,32 162.747,32 L64,32 Z" id="Shape"></path>
                <path d="M328,192 L208,192 C181.532,192 160,170.467 160,144 L160,24 C160,15.164 167.164,8 176,8 C184.837,8 192,15.164 192,24 L192,144 C192,152.822 199.178,160 208,160 L328,160 C336.837,160 344,167.164 344,176 C344,184.836 336.837,192 328,192 Z" id="Path"></path>
            </g>
            <g id="PDF" transform="translate(84.000000, 273.000000)">
                <path d="M0,72 L18.269869,72 L18.269869,50.8939709 L30.6157205,50.8939709 C46.6454148,50.8939709 57,41.014553 57,25.5966736 L57,25.4968815 C57,10.0790021 46.6454148,0 30.6157205,0 L0,0 L0,72 Z M26.2349345,14.02079 C33.9510917,14.02079 38.5310044,18.012474 38.5310044,25.4968815 L38.5310044,25.5966736 C38.5310044,33.0810811 33.9510917,37.1226611 26.2349345,37.1226611 L18.269869,37.1226611 L18.269869,14.02079 L26.2349345,14.02079 Z" id="Shape"></path>
                <path d="M65,72 L94.3458529,72 C116.12989,72 129,58.5779626 129,35.5758836 L129,35.4760915 C129,12.5738046 116.12989,0 94.3458529,0 L65,0 L65,72 Z M83.3787167,57.2307692 L83.3787167,14.7692308 L91.942097,14.7692308 C103.510172,14.7692308 110.320814,22.0540541 110.320814,35.5259875 L110.320814,35.6257796 C110.320814,49.995842 103.910798,57.2307692 91.942097,57.2307692 L83.3787167,57.2307692 Z" id="Shape"></path>
                <polygon id="Path" points="137 72 155.312627 72 155.312627 45.1559252 183.205703 45.1559252 183.205703 31.1351351 155.312627 31.1351351 155.312627 14.7193347 186 14.7193347 186 0 137 0"></polygon>
            </g>
        </g>
    </g>
</svg>