<?xml version="1.0" encoding="iso-8859-1"?>
<!-- Generator: Adobe Illustrator 24.3.0, SVG Export Plug-In . SVG Version: 6.00 Build 0)  -->
<svg version="1.1" id="Layer_1" xmlns="http://www.w3.org/2000/svg" xmlns:xlink="http://www.w3.org/1999/xlink" x="0px" y="0px"
	 viewBox="0 0 512 512" style="enable-background:new 0 0 512 512;" xml:space="preserve">
<path d="M460,240H320c-26.51,0-48-21.49-48-48V52c0-2.209-1.791-4-4-4h-53.25c-1.868-3.459-4.043-6.742-6.5-9.81
	C196.72,23.88,179.59,16,160,16c-37.68,0-64,29.61-64,72v144c0,25,20.34,40,40,40c21.853,0.239,39.761-17.283,40-39.135
	c0.003-0.288,0.003-0.576,0-0.865V80c0-8.837-7.163-16-16-16s-16,7.163-16,16v152c0.14,4.278-3.214,7.86-7.492,8
	c-0.169,0.006-0.339,0.006-0.508,0c-2.23,0-8-1.44-8-8V88c0-19.34,8.41-40,32-40c29.69,0,32,30.15,32,39.38v138.75
	c0,17.45-5.47,33.23-15.41,44.46C166.5,282,152.47,288,136,288s-30.5-6-40.59-17.41C85.47,259.36,80,243.58,80,226.13V144
	c0-8.837-7.163-16-16-16s-16,7.163-16,16v82.13c0,51.51,33.19,89.63,80,93.53V432c0,35.346,28.654,64,64,64h208
	c35.346,0,64-28.654,64-64V244C464,241.791,462.209,240,460,240z"/>
<path d="M320,208h129.81c1.105-0.005,1.996-0.904,1.992-2.008c-0.002-0.525-0.211-1.029-0.582-1.402L307.41,60.78
	c-0.783-0.779-2.05-0.775-2.828,0.008c-0.37,0.373-0.579,0.876-0.582,1.402V192C304,200.837,311.163,208,320,208z"/>
</svg>
