<?xml version="1.0" encoding="iso-8859-1"?>
<!-- Generator: Adobe Illustrator 24.3.0, SVG Export Plug-In . SVG Version: 6.00 Build 0)  -->
<svg version="1.1" id="Layer_1" xmlns="http://www.w3.org/2000/svg" xmlns:xlink="http://www.w3.org/1999/xlink" x="0px" y="0px"
	 viewBox="0 0 512 512" style="enable-background:new 0 0 512 512;" xml:space="preserve">
<path d="M240,216V32H92c-6.627,0-12,5.373-12,12v424c0,6.627,5.373,12,12,12h328c6.627,0,12-5.373,12-12V224H248
	C243.582,224,240,220.418,240,216z"/>
<path d="M272,41.69V188c0,2.209,1.791,4,4,4h146.31c1.105,0.001,2.001-0.894,2.002-1.998c0-0.529-0.209-1.036-0.582-1.412
	L275.41,40.27c-0.783-0.779-2.05-0.775-2.828,0.008C272.209,40.654,272,41.161,272,41.69z"/>
</svg>
