<?xml version="1.0" encoding="iso-8859-1"?>
<!-- Generator: Adobe Illustrator 24.3.0, SVG Export Plug-In . SVG Version: 6.00 Build 0)  -->
<svg version="1.1" id="Layer_1" xmlns="http://www.w3.org/2000/svg" xmlns:xlink="http://www.w3.org/1999/xlink" x="0px" y="0px"
	 viewBox="0 0 512 512" style="enable-background:new 0 0 512 512;" xml:space="preserve">
<path d="M288,192h129.81c1.105-0.005,1.996-0.904,1.992-2.008c-0.002-0.525-0.211-1.029-0.582-1.402L275.41,44.78
	c-0.783-0.779-2.05-0.775-2.828,0.008c-0.37,0.373-0.579,0.876-0.582,1.402V176C272,184.837,279.163,192,288,192z"/>
<path d="M256,272c-8.82,0-16,6.28-16,14v18h32v-18C272,278.28,264.82,272,256,272z"/>
<path d="M428,224H288c-26.51,0-48-21.49-48-48V36c0-2.209-1.791-4-4-4h-92c-35.346,0-64,28.654-64,64v320c0,35.346,28.654,64,64,64
	h224c35.346,0,64-28.654,64-64V228C432,225.791,430.209,224,428,224z M336,384c0,17.673-14.327,32-32,32h-96
	c-17.673,0-32-14.327-32-32v-48c0-17.673,14.327-32,32-32v-18c0-25.36,21.53-46,48-46s48,20.64,48,46v18c17.673,0,32,14.327,32,32
	V384z"/>
</svg>
