<?xml version="1.0" encoding="iso-8859-1"?>
<!-- Generator: Adobe Illustrator 24.3.0, SVG Export Plug-In . SVG Version: 6.00 Build 0)  -->
<svg version="1.1" id="Layer_1" xmlns="http://www.w3.org/2000/svg" xmlns:xlink="http://www.w3.org/1999/xlink" x="0px" y="0px"
	 viewBox="0 0 512 512" style="enable-background:new 0 0 512 512;" xml:space="preserve">
<path d="M307.94,248L216,154.52V242c0,3.314,2.686,6,6,6l0,0H307.94z"/>
<path d="M184,268V144H60c-6.627,0-12,5.373-12,12v328c0,6.627,5.373,12,12,12l0,0h248c6.627,0,12-5.373,12-12l0,0V280H196
	C189.373,280,184,274.627,184,268z"/>
<path d="M366,120h85.94L360,26.52V114C360,117.314,362.686,120,366,120z"/>
<path d="M340,152c-6.627,0-12-5.373-12-12V16H172c-6.627,0-12,5.373-12,12v84h42.12c10.858,0.043,21.252,4.412,28.88,12.14
	l109.16,111c7.615,7.727,11.868,18.151,11.83,29V400H452c6.627,0,12-5.373,12-12V152H340z"/>
</svg>
