<?xml version="1.0" encoding="iso-8859-1"?>
<!-- Generator: Adobe Illustrator 24.3.0, SVG Export Plug-In . SVG Version: 6.00 Build 0)  -->
<svg version="1.1" id="Layer_1" xmlns="http://www.w3.org/2000/svg" xmlns:xlink="http://www.w3.org/1999/xlink" x="0px" y="0px"
	 viewBox="0 0 512 512" style="enable-background:new 0 0 512 512;" xml:space="preserve">
<path d="M400,496H192c-35.29,0-64-28.71-64-64V304c0-8.837,7.164-16,16-16s16,7.163,16,16v128c0,17.645,14.355,32,32,32h208
	c17.645,0,32-14.355,32-32V237.25c0-4.27-1.664-8.286-4.686-11.307L286.057,84.684c-3.021-3.019-7.037-4.683-11.31-4.684H208
	c-8.836,0-16-7.164-16-16s7.164-16,16-16h66.75c12.819,0.002,24.869,4.994,33.933,14.055l141.261,141.262
	c9.063,9.065,14.055,21.115,14.057,33.931V432C464,467.29,435.29,496,400,496z"/>
<path d="M440,240H320c-26.468,0-48-21.533-48-48V72c0-8.836,7.163-16,16-16s16,7.164,16,16v120c0,8.822,7.178,16,16,16h120
	c8.837,0,16,7.164,16,16S448.837,240,440,240z"/>
<path d="M136,320c-50.991,0-88-39.479-88-93.87V144c0-8.836,7.164-16,16-16s16,7.164,16,16v82.13
	c0,17.445,5.473,33.233,15.411,44.457C105.499,281.979,119.534,288,136,288c16.465,0,30.5-6.022,40.588-17.416
	C186.527,259.359,192,243.572,192,226.13V87.38c0-9.238-2.308-39.38-32-39.38c-23.594,0-32,20.663-32,40v144c0,6.563,5.775,8,8,8
	l0.399,0.001c4.254-0.056,7.658-3.551,7.603-7.791L144,232V80c0-8.836,7.164-16,16-16s16,7.164,16,16v151.905
	c0.225,21.831-17.321,39.805-39.165,40.093c-0.308,0.006-0.628,0.006-0.95,0.001C116.259,271.942,96,256.989,96,232V88
	c0-42.393,26.318-72,64-72c19.591,0,36.726,7.879,48.248,22.188C218.553,50.984,224,67.995,224,87.38v138.75
	C224,280.522,186.991,320,136,320z"/>
</svg>
