<?xml version="1.0" encoding="iso-8859-1"?>
<!-- Generator: Adobe Illustrator 24.3.0, SVG Export Plug-In . SVG Version: 6.00 Build 0)  -->
<svg version="1.1" id="Layer_1" xmlns="http://www.w3.org/2000/svg" xmlns:xlink="http://www.w3.org/1999/xlink" x="0px" y="0px"
	 viewBox="0 0 512 512" style="enable-background:new 0 0 512 512;" xml:space="preserve">
<path d="M276,192h146.31c1.105,0.001,2.001-0.894,2.002-1.998c0-0.529-0.209-1.036-0.582-1.412L275.41,40.27
	c-0.783-0.779-2.05-0.775-2.828,0.008C272.209,40.654,272,41.161,272,41.69V188C272,190.209,273.791,192,276,192z"/>
<path d="M256,272c-8.82,0-16,6.28-16,14v18h32v-18C272,278.28,264.82,272,256,272z"/>
<path d="M248,224c-4.418,0-8-3.582-8-8V32H92c-6.627,0-12,5.373-12,12v424c0,6.627,5.373,12,12,12h328c6.627,0,12-5.373,12-12V224
	H248z M336,399.91c-0.006,8.884-7.206,16.084-16.09,16.09H192.09c-8.884-0.006-16.084-7.206-16.09-16.09V320c0-10,7-16,16-16h16v-18
	c0-25.36,21.53-46,48-46s48,20.64,48,46v18h16c8.725-0.111,15.889,6.872,16,15.597c0.002,0.134,0.002,0.268,0,0.403V399.91z"/>
</svg>
