<?xml version="1.0" encoding="iso-8859-1"?>
<!-- Generator: Adobe Illustrator 24.3.0, SVG Export Plug-In . SVG Version: 6.00 Build 0)  -->
<svg version="1.1" id="Layer_1" xmlns="http://www.w3.org/2000/svg" xmlns:xlink="http://www.w3.org/1999/xlink" x="0px" y="0px"
	 viewBox="0 0 512 512" style="enable-background:new 0 0 512 512;" xml:space="preserve">
<path d="M293.05,496H107c-32.533,0-59-26.916-59-60V172c0.193-32.934,27.066-59.807,59.906-60l94.214,0
	c10.823,0.017,21.353,4.448,28.913,12.158l109.135,110.984c7.646,7.816,11.837,18.103,11.832,28.995V436
	C352,469.084,325.555,496,293.05,496z M202.095,144H108c-15.307,0.09-27.91,12.693-28,28.094L80,436c0,15.439,12.112,28,27,28
	h186.05c14.86,0,26.95-12.561,26.95-28V264.13c0-0.002,0-0.005,0-0.007c0.001-2.474-0.95-4.809-2.679-6.575l-109.12-110.97
	C206.592,144.938,204.372,144.003,202.095,144z"/>
<path d="M336,280H228c-0.063,0-0.127,0-0.191-0.001c-11.644-0.139-22.59-4.75-30.824-12.984
	c-8.234-8.233-12.845-19.181-12.984-30.824c0-0.063-0.001-0.127-0.001-0.191V128c0-8.836,7.164-16,16-16s16,7.164,16,16v107.885
	c0.12,6.694,5.42,11.996,12.115,12.115H336c8.837,0,16,7.164,16,16C352,272.837,344.837,280,336,280z"/>
<path d="M405.05,400H344v-32h61.05c14.86,0,26.95-12.561,26.95-28V168c0.001-2.413-0.931-4.683-2.623-6.396L320.202,50.579
	c-1.605-1.621-3.889-2.575-6.225-2.579H220c-15.307,0.09-27.91,12.693-28,28.094L192,128h-32V76
	c0.193-32.934,27.066-59.807,59.906-60L314,16c10.825,0.015,21.379,4.426,28.98,12.103l109.188,111.039
	c7.624,7.718,11.835,17.978,11.832,28.863V340C464,373.084,437.555,400,405.05,400z"/>
<path d="M448,184H340c-0.063,0-0.127,0-0.19-0.001c-11.645-0.139-22.591-4.75-30.825-12.984
	c-8.233-8.234-12.845-19.181-12.983-30.824C296,140.127,296,140.063,296,140V32c0-8.836,7.163-16,16-16s16,7.164,16,16v107.885
	c0.119,6.694,5.421,11.995,12.115,12.115H448c8.837,0,16,7.164,16,16S456.837,184,448,184z"/>
</svg>
