<svg width="100" height="100" viewBox="0 0 100 100"  xmlns="http://www.w3.org/2000/svg">
<path d="M81.25 43.2129V81.25C81.25 83.7364 80.2623 86.121 78.5041 87.8791C76.746 89.6373 74.3614 90.625 71.875 90.625H28.125C25.6386 90.625 23.254 89.6373 21.4959 87.8791C19.7377 86.121 18.75 83.7364 18.75 81.25V18.75C18.75 16.2636 19.7377 13.879 21.4959 12.1209C23.254 10.3627 25.6386 9.375 28.125 9.375H47.4121C49.0691 9.37525 50.6582 10.0335 51.8301 11.2051L79.4199 38.7949C80.5915 39.9668 81.2497 41.5559 81.25 43.2129Z" stroke="#B5B5C3" stroke-width="3" stroke-linejoin="round"/>
<path d="M50 10.9375V34.375C50 36.0326 50.6585 37.6223 51.8306 38.7944C53.0027 39.9665 54.5924 40.625 56.25 40.625H79.6875" stroke="#B5B5C3" stroke-width="3" stroke-linecap="round" stroke-linejoin="round"/>
<path d="M34.375 56.25H65.625" stroke="#B5B5C3" stroke-width="3" stroke-linecap="round" stroke-linejoin="round"/>
<path d="M34.375 71.875H65.625" stroke="#B5B5C3" stroke-width="3" stroke-linecap="round" stroke-linejoin="round"/>
<rect x="46" y="81" width="54" height="19" rx="3" fill="#FF1D1D"/>
<path d="M60.8711 95V85.523H64.7061C65.2087 85.523 65.6637 85.5923 66.0711 85.731C66.4784 85.861 66.8251 86.056 67.1111 86.316C67.4057 86.5673 67.6267 86.8793 67.7741 87.252C67.9301 87.6247 68.0081 88.0537 68.0081 88.539C68.0081 89.1457 67.8737 89.6787 67.6051 90.138C67.3451 90.5887 66.9681 90.9397 66.4741 91.191C65.9801 91.4337 65.3864 91.555 64.6931 91.555H62.1321V90.424H64.4851C64.8924 90.424 65.2521 90.359 65.5641 90.229C65.8761 90.099 66.1187 89.8953 66.2921 89.618C66.4741 89.3407 66.5651 88.994 66.5651 88.578C66.5651 88.1533 66.4741 87.8067 66.2921 87.538C66.1187 87.2693 65.8761 87.07 65.5641 86.94C65.2521 86.81 64.8924 86.745 64.4851 86.745H62.0671L62.2881 86.524V95H60.8711ZM69.5039 95V85.523H73.3389C74.2489 85.523 75.0202 85.7223 75.6529 86.121C76.2942 86.511 76.7839 87.0613 77.1219 87.772C77.4599 88.4827 77.6289 89.3147 77.6289 90.268C77.6289 90.9787 77.5335 91.6243 77.3429 92.205C77.1522 92.7857 76.8705 93.284 76.4979 93.7C76.1339 94.116 75.6875 94.4367 75.1589 94.662C74.6302 94.8873 74.0235 95 73.3389 95H69.5039ZM70.9209 93.778H73.1309C73.5902 93.778 74.0062 93.7087 74.3789 93.57C74.7515 93.4227 75.0722 93.206 75.3409 92.92C75.6095 92.6253 75.8132 92.257 75.9519 91.815C76.0992 91.3643 76.1729 90.84 76.1729 90.242C76.1729 89.436 76.0472 88.7773 75.7959 88.266C75.5445 87.746 75.1892 87.3647 74.7299 87.122C74.2705 86.8707 73.7375 86.745 73.1309 86.745H70.9209V93.778ZM79.2793 95V85.523H85.8963V86.745H80.4363L80.6963 86.485V90.047L80.4363 89.787H85.3763V90.957H80.4363L80.6963 90.697V95H79.2793Z" fill="white"/>
</svg>
