<?xml version="1.0" encoding="UTF-8"?>
<svg width="352px" height="448px" viewBox="0 0 352 448" version="1.1" xmlns="http://www.w3.org/2000/svg" xmlns:xlink="http://www.w3.org/1999/xlink">
    <title>Group 2</title>
    <g id="Page-1" stroke="none" stroke-width="1"  fill-rule="evenodd">
        <g id="Group-2"  fill-rule="nonzero">
            <g id="document-outline">
                <path d="M288,448 L64,448 C28.71,448 0,419.29 0,384 L0,64 C0,28.71 28.71,0 64,0 L162.75,0 C175.569,0 187.619,4.994 196.683,14.055 L337.944,155.317 C347.007,164.382 352.001,176.432 352.001,189.248 C352.001,189.248 352.001,189.249 352.001,189.25 L352.001,384 C352.001,419.29 323.29,448 288,448 Z M64,32 C46.355,32 32,46.355 32,64 L32,384 C32,401.645 46.355,416 64,416 L288,416 C305.645,416 320,401.645 320,384 L320,189.25 C320,184.98 318.336,180.964 315.314,177.943 L174.057,36.684 C171.037,33.665 167.02,32 162.747,32 L64,32 Z" id="Shape"></path>
                <path d="M328,192 L208,192 C181.532,192 160,170.467 160,144 L160,24 C160,15.164 167.164,8 176,8 C184.837,8 192,15.164 192,24 L192,144 C192,152.822 199.178,160 208,160 L328,160 C336.837,160 344,167.164 344,176 C344,184.836 336.837,192 328,192 Z" id="Path"></path>
            </g>
            <g id="Group" transform="translate(104.000000, 224.000000)">
                <path d="M107.100223,70.9992604 C104.054576,70.9992604 101.009673,69.8440282 98.6862057,67.5335639 L59.5003719,28.5677749 L20.3145381,67.5343035 C15.6676026,72.1552322 8.1326949,72.1552322 3.48575942,67.5343035 C-1.16191981,62.9126352 -1.16191981,55.4206365 3.48575942,50.7997078 L51.0856107,3.46625121 C55.7325461,-1.15541707 63.2674539,-1.15541707 67.9143893,3.46625121 L115.514241,50.7997078 C120.16192,55.4206365 120.16192,62.9126352 115.514241,67.5343035 C113.190773,69.8447678 110.14587,70.9992604 107.100223,70.9992604 Z" id="Path"></path>
                <path d="M60,155 C53.373,155 48,151.239964 48,146.601204 L48,20.398796 C48,15.7605609 53.373,12 60,12 C66.62775,12 72,15.7605609 72,20.398796 L72,146.601204 C72,151.239964 66.62775,155 60,155 Z" id="Path"></path>
            </g>
        </g>
    </g>
</svg>