<?xml version="1.0" encoding="iso-8859-1"?>
<!-- Generator: Adobe Illustrator 24.3.0, SVG Export Plug-In . SVG Version: 6.00 Build 0)  -->
<svg version="1.1" id="Layer_1" xmlns="http://www.w3.org/2000/svg" xmlns:xlink="http://www.w3.org/1999/xlink" x="0px" y="0px"
	 viewBox="0 0 512 512" style="enable-background:new 0 0 512 512;" xml:space="preserve">
<path d="M298.39,248c2.209,0.002,4.002-1.787,4.003-3.997c0.001-1.048-0.41-2.055-1.143-2.803l-78.4-79.72
	c-1.55-1.574-4.083-1.593-5.657-0.043c-0.764,0.753-1.194,1.781-1.193,2.853V236c0,6.627,5.373,12,12,12H298.39z"/>
<path d="M197,267c-8.296-8.185-12.977-19.346-13-31v-92h-72c-35.303,0.104-63.896,28.697-64,64v224c0,35.346,28.654,64,64,64h144
	c35.346,0,64-28.654,64-64V280h-92C216.345,279.983,205.181,275.302,197,267z"/>
<path d="M372,120h70.39c2.209,0.002,4.002-1.787,4.003-3.997c0.001-1.048-0.41-2.055-1.143-2.803l-78.4-79.72
	c-1.55-1.574-4.083-1.593-5.657-0.043c-0.764,0.753-1.194,1.781-1.193,2.853V108C360,114.627,365.373,120,372,120z"/>
<path d="M372,152c-24.223-0.185-43.815-19.777-44-44V16H220c-33.121,0.039-59.961,26.879-60,60v36h42.12
	c10.858,0.043,21.252,4.412,28.88,12.14l109.16,111c7.615,7.727,11.868,18.151,11.83,29V400h53.05c32.51,0,58.95-26.92,58.95-60V152
	H372z"/>
</svg>
