<?xml version="1.0" encoding="UTF-8"?>
<svg width="491px" height="513px" viewBox="0 0 491 513" version="1.1" xmlns="http://www.w3.org/2000/svg" xmlns:xlink="http://www.w3.org/1999/xlink">
    <title>Group</title>
    <g id="Page-1" stroke="none" stroke-width="1" fill-rule="evenodd">
        <g id="Group" transform="translate(0.117188, 0.500000)" fill-rule="nonzero">
            <path d="M274.571264,0 C289.11643,0 303.066343,5.77909739 313.352301,16.0643246 L474.794174,177.505222 C485.078888,187.791399 490.857131,201.740747 490.857131,216.285867 L490.857131,438.857143 C490.857131,458.253558 483.150916,476.857345 469.432789,490.578723 C455.714475,504.293786 437.110688,512 417.714274,512 L161.714274,512 C142.316775,512 123.712913,504.293683 109.993857,490.576578 C96.2773503,476.858771 88.5714164,458.254831 88.5714164,438.857143 L88.5714164,359.428876 L125.142845,359.428876 L125.142845,438.857143 C125.142845,448.555816 128.996014,457.858275 135.853455,464.716366 C142.713133,471.575069 152.015895,475.428571 161.714274,475.428571 L417.714274,475.428571 C427.4119,475.428571 436.715191,471.574885 443.572884,464.718818 C450.432016,457.85806 454.285702,448.554769 454.285702,438.857143 L454.285702,216.285867 C454.285702,211.439847 452.360259,206.791605 448.933389,203.364247 L287.492895,41.9247286 C284.065104,38.4971813 279.416613,36.5714286 274.571264,36.5714286 L161.714274,36.5714286 C152.014848,36.5714286 142.712919,40.4244144 135.854375,47.2829583 C128.995831,54.1415022 125.142845,63.4434319 125.142845,73.1428571 L125.142845,260.571429 L88.5714164,260.571429 L88.5714164,73.1428571 C88.5714164,53.7440856 96.2774527,35.14007 109.99447,21.4230531 C123.711486,7.70603628 142.315502,0 161.714274,0 L274.571264,0 Z" id="Path"></path>
            <path d="M289.714274,9.14285714 C299.813195,9.14285714 307.999988,17.3296503 307.999988,27.4285714 L307.999988,164.571429 C307.999988,169.421828 309.926249,174.072847 313.354778,177.501377 C316.783517,180.930116 321.436086,182.857143 326.285702,182.857143 L463.428559,182.857143 C473.52748,182.857143 481.714274,191.043936 481.714274,201.142857 C481.714274,211.241778 473.52748,219.428571 463.428559,219.428571 L326.285702,219.428571 C311.737053,219.428571 297.782307,213.648716 287.494873,203.361282 C277.207436,193.073845 271.428559,179.120561 271.428559,164.571429 L271.428559,27.4285714 C271.428559,17.3296503 279.615352,9.14285714 289.714274,9.14285714 Z" id="Path"></path>
            <path d="M242.499826,217.928409 C249.640841,210.787394 261.218715,210.787394 268.359731,217.928409 L350.645445,300.214124 C357.786461,307.355139 357.786461,318.933013 350.645445,326.074029 L268.359731,408.359743 C261.218715,415.500759 249.640841,415.500759 242.499826,408.359743 C235.35881,401.218727 235.35881,389.640854 242.499826,382.499838 L311.852178,313.148952 L242.499826,243.788314 C236.007993,237.296482 235.417827,227.137825 240.729326,219.979297 L242.499826,217.928409 Z" id="Path"></path>
            <path d="M313.141931,295.048533 C323.240852,295.048533 331.427645,303.235326 331.427645,313.334248 C331.427645,323.433169 323.240852,331.619962 313.141931,331.619962 L18.2857143,331.619962 C8.18679315,331.619962 2.16546358e-14,323.433169 2.16546358e-14,313.334248 C2.16546358e-14,303.235326 8.18679315,295.048533 18.2857143,295.048533 L313.141931,295.048533 Z" id="Path"></path>
        </g>
    </g>
</svg>