<?xml version="1.0" encoding="iso-8859-1"?>
<!-- Generator: Adobe Illustrator 24.3.0, SVG Export Plug-In . SVG Version: 6.00 Build 0)  -->
<svg version="1.1" id="Layer_1" xmlns="http://www.w3.org/2000/svg" xmlns:xlink="http://www.w3.org/1999/xlink" x="0px" y="0px"
	 viewBox="0 0 512 512" style="enable-background:new 0 0 512 512;" xml:space="preserve">
<path d="M368,480H144c-35.29,0-64-28.71-64-64V96c0-35.29,28.71-64,64-64h98.75c12.819,0.002,24.869,4.994,33.933,14.055
	l141.261,141.262c9.063,9.065,14.055,21.115,14.057,33.931c0,0,0,0.001,0,0.002V416C432,451.29,403.29,480,368,480z M144,64
	c-17.645,0-32,14.355-32,32v320c0,17.645,14.355,32,32,32h224c17.645,0,32-14.355,32-32V221.25c0-4.27-1.664-8.286-4.686-11.307
	L254.057,68.684c-3.02-3.019-7.037-4.683-11.31-4.684H144z"/>
<path d="M408,224H288c-26.468,0-48-21.533-48-48V56c0-8.836,7.164-16,16-16c8.837,0,16,7.164,16,16v120c0,8.822,7.178,16,16,16h120
	c8.837,0,16,7.164,16,16S416.837,224,408,224z"/>
<path d="M336,304H176c-8.836,0-16-7.163-16-16s7.164-16,16-16h160c8.837,0,16,7.163,16,16S344.837,304,336,304z"/>
<path d="M336,384H176c-8.836,0-16-7.163-16-16s7.164-16,16-16h160c8.837,0,16,7.163,16,16S344.837,384,336,384z"/>
</svg>
