<?xml version="1.0" encoding="iso-8859-1"?>
<!-- Generator: Adobe Illustrator 24.3.0, SVG Export Plug-In . SVG Version: 6.00 Build 0)  -->
<svg version="1.1" id="Layer_1" xmlns="http://www.w3.org/2000/svg" xmlns:xlink="http://www.w3.org/1999/xlink" x="0px" y="0px"
	 viewBox="0 0 512 512" style="enable-background:new 0 0 512 512;" xml:space="preserve">
<path d="M428,224H288c-26.51,0-48-21.49-48-48V36c0-2.209-1.791-4-4-4h-92c-35.346,0-64,28.654-64,64v320c0,35.346,28.654,64,64,64
	h224c35.346,0,64-28.654,64-64V228C432,225.791,430.209,224,428,224z M336,384H176c-8.837,0-16-7.163-16-16s7.163-16,16-16h160
	c8.837,0,16,7.163,16,16S344.837,384,336,384z M336,304H176c-8.837,0-16-7.163-16-16s7.163-16,16-16h160c8.837,0,16,7.163,16,16
	S344.837,304,336,304z"/>
<path d="M419.22,188.59L275.41,44.78c-0.783-0.779-2.05-0.775-2.828,0.008c-0.37,0.373-0.579,0.876-0.582,1.402V176
	c0,8.837,7.163,16,16,16h129.81c1.105-0.005,1.996-0.904,1.992-2.008C419.799,189.466,419.59,188.963,419.22,188.59z"/>
</svg>
