<?xml version="1.0" encoding="iso-8859-1"?>
<!-- Generator: Adobe Illustrator 24.3.0, SVG Export Plug-In . SVG Version: 6.00 Build 0)  -->
<svg version="1.1" id="Layer_1" xmlns="http://www.w3.org/2000/svg" xmlns:xlink="http://www.w3.org/1999/xlink" x="0px" y="0px"
	 viewBox="0 0 512 512" style="enable-background:new 0 0 512 512;" xml:space="preserve">
<path d="M376,480H136c-30.878,0-56-25.121-56-56V216c0-30.878,25.122-56,56-56h40c8.836,0,16,7.164,16,16s-7.164,16-16,16h-40
	c-13.234,0-24,10.767-24,24V424c0,13.233,10.766,24,24,24h240c13.233,0,24-10.767,24-24V216c0-13.233-10.767-24-24-24h-40
	c-8.837,0-16-7.164-16-16s7.163-16,16-16h40c30.879,0,56,25.122,56,56V424C432,454.879,406.879,480,376,480z"/>
<path d="M256,368c-4.095,0-8.189-1.562-11.313-4.687l-80-80c-6.249-6.248-6.249-16.379,0-22.627c6.248-6.248,16.379-6.248,22.627,0
	L256,329.373l68.687-68.687c6.248-6.248,16.379-6.248,22.627,0c6.249,6.248,6.249,16.379,0,22.627l-80,80
	C264.189,366.438,260.095,368,256,368z"/>
<path d="M256,352c-8.836,0-16-7.163-16-16V48c0-8.836,7.164-16,16-16c8.837,0,16,7.164,16,16v288C272,344.837,264.837,352,256,352z"
	/>
</svg>
