<?xml version="1.0" encoding="iso-8859-1"?>
<!-- Generator: Adobe Illustrator 24.3.0, SVG Export Plug-In . SVG Version: 6.00 Build 0)  -->
<svg version="1.1" id="Layer_1" xmlns="http://www.w3.org/2000/svg" xmlns:xlink="http://www.w3.org/1999/xlink" x="0px" y="0px"
	 viewBox="0 0 512 512" style="enable-background:new 0 0 512 512;" xml:space="preserve">
<path d="M407,480H185c-40.252,0-73-32.748-73-73V185c0-40.252,32.748-73,73-73h222c40.252,0,73,32.748,73,73V407
	C480,447.252,447.252,480,407,480z M185,144c-22.607,0-41,18.393-41,41V407c0,22.607,18.393,41,41,41h222c22.607,0,41-18.393,41-41
	V185c0-22.607-18.393-41-41-41H185z"/>
<path d="M128,400h-24c-39.609-0.112-71.887-32.392-72-71.954V112c0.13-44.003,35.997-79.87,79.953-80H328
	c39.608,0.113,71.888,32.391,72,71.955c0,0.126-0.001,0.252-0.004,0.379l-0.5,24c-0.182,8.721-7.309,15.667-15.989,15.667
	c-0.113,0-0.227-0.001-0.34-0.003c-8.835-0.184-15.848-7.495-15.663-16.33l0.495-23.794c-0.156-21.939-18.084-39.81-40.045-39.872
	H112c-26.368,0.078-47.922,21.632-48,48.047V328c0.062,21.973,18.027,39.938,40.045,40H128c8.836,0,16,7.163,16,16
	S136.836,400,128,400z"/>
<path d="M296,392c-8.837,0-16-7.163-16-16V216c0-8.836,7.163-16,16-16s16,7.164,16,16V376C312,384.837,304.837,392,296,392z"/>
<path d="M376,312H216c-8.836,0-16-7.163-16-16s7.164-16,16-16h160c8.837,0,16,7.163,16,16S384.837,312,376,312z"/>
</svg>
