<?xml version="1.0" encoding="iso-8859-1"?>
<!-- Generator: Adobe Illustrator 24.3.0, SVG Export Plug-In . SVG Version: 6.00 Build 0)  -->
<svg version="1.1" id="Layer_1" xmlns="http://www.w3.org/2000/svg" xmlns:xlink="http://www.w3.org/1999/xlink" x="0px" y="0px"
	 viewBox="0 0 512 512" style="enable-background:new 0 0 512 512;" xml:space="preserve">
<path d="M408,112H184c-39.764,0-72,32.235-72,72l0,0v224c0,39.764,32.236,72,72,72h224c39.764,0,72-32.236,72-72V184
	C480,144.236,447.764,112,408,112z M375.55,312H312v63.55c0,8.61-6.62,16-15.23,16.43c-8.826,0.425-16.326-6.385-16.751-15.211
	C280.006,376.513,280,376.256,280,376v-64h-63.55c-8.61,0-16-6.62-16.43-15.23c-0.425-8.826,6.385-16.326,15.211-16.751
	c0.256-0.012,0.512-0.018,0.769-0.019h64v-63.55c0-8.61,6.62-16,15.23-16.43c8.826-0.425,16.326,6.385,16.751,15.211
	c0.012,0.256,0.018,0.512,0.019,0.769v64h64c8.837-0.01,16.008,7.145,16.019,15.981c0,0.263-0.006,0.526-0.019,0.789
	C391.58,305.38,384.16,312,375.55,312z"/>
<path d="M395.88,80C385.679,51.256,358.5,32.037,328,32H104c-39.765,0-72,32.235-72,72v224c0.037,30.5,19.256,57.679,48,67.88V160
	c0-44.183,35.817-80,80-80H395.88z"/>
</svg>
