<?xml version="1.0" encoding="iso-8859-1"?>
<!-- Generator: Adobe Illustrator 24.3.0, SVG Export Plug-In . SVG Version: 6.00 Build 0)  -->
<svg version="1.1" id="Layer_1" xmlns="http://www.w3.org/2000/svg" xmlns:xlink="http://www.w3.org/1999/xlink" x="0px" y="0px"
	 viewBox="0 0 512 512" style="enable-background:new 0 0 512 512;" xml:space="preserve">
<path d="M112,80h288V56c0-13.255-10.745-24-24-24H66c-18.778,0-34,15.222-34,34v310c0,13.255,10.745,24,24,24h24V112
	C80,94.327,94.327,80,112,80z"/>
<path d="M456,112H136c-13.255,0-24,10.745-24,24v320c0,13.255,10.745,24,24,24h320c13.255,0,24-10.745,24-24V136
	C480,122.745,469.255,112,456,112z M392,312h-80v80h-32v-80h-80v-32h80v-80h32v80h80V312z"/>
</svg>
