<?xml version="1.0" encoding="iso-8859-1"?>
<!-- Generator: Adobe Illustrator 24.3.0, SVG Export Plug-In . SVG Version: 6.00 Build 0)  -->
<svg version="1.1" id="Layer_1" xmlns="http://www.w3.org/2000/svg" xmlns:xlink="http://www.w3.org/1999/xlink" x="0px" y="0px"
	 viewBox="0 0 512 512" style="enable-background:new 0 0 512 512;" xml:space="preserve">
<path d="M380.48,68.09C347.09,34.5,302.88,16,256,16C159,16,80,95,80,192v206.57c-0.019,25.62,10.038,50.221,28,68.49
	c17.798,18.478,42.344,28.925,68,28.94c19.93,0,41.06-7.69,62.8-22.87c9.289-6.464,17.954-13.782,25.88-21.86
	C327.37,390.16,432,288.06,432,192C432,145.51,413.71,101.51,380.48,68.09z M368,200h-32v-16c0-39.7-35.89-72-80-72s-80,32.3-80,72
	v30.41c27.5-7.84,59.89-6.62,64.26-6.41c26.509,0.242,47.802,21.927,47.561,48.435c-0.09,9.856-3.211,19.445-8.941,27.465
	c-0.3,0.41-0.61,0.81-0.95,1.2c-16.55,19-36,45.49-38.46,55l-4.07,15.47l-30.94-8.14l4.07-15.47c5.51-20.94,36.93-58.2,44.66-67.15
	c4.866-7.376,2.83-17.3-4.546-22.166c-2.619-1.727-5.687-2.647-8.824-2.644h-0.88c-10.67-0.58-42.66-0.25-62.12,8l-0.82,0.35V320
	h-32V184c0-57.35,50.24-104,112-104s112,46.65,112,104V200z"/>
</svg>
