<?xml version="1.0" encoding="iso-8859-1"?>
<!-- Generator: Adobe Illustrator 24.3.0, SVG Export Plug-In . SVG Version: 6.00 Build 0)  -->
<svg version="1.1" id="Layer_1" xmlns="http://www.w3.org/2000/svg" xmlns:xlink="http://www.w3.org/1999/xlink" x="0px" y="0px"
	 viewBox="0 0 512 512" style="enable-background:new 0 0 512 512;" xml:space="preserve">
<path d="M176,496c-25.668,0-49.834-10.278-68.048-28.942C89.927,448.587,80,424.264,80,398.57V192c0-97.047,78.953-176,176-176
	s176,78.953,176,176c0,31.239-8.493,60.937-25.244,88.271c-14.817,24.179-36.272,46.214-62.045,63.724
	c-26.853,18.256-47.832,54.349-63.15,80.701c-5.881,10.117-10.96,18.854-15.443,24.868C243.196,480.372,212.874,496,176,496z
	 M256,48c-79.402,0-144,64.598-144,144v206.57c0,17.294,6.696,33.68,18.854,46.139C142.994,457.149,159.028,464,176,464
	c35.398,0,53.738-19.147,64.453-33.551c3.401-4.562,8.054-12.566,13.441-21.835c15.911-27.374,39.957-68.74,72.83-91.087
	c0.001-0.001,0.003-0.001,0.004-0.002C354.093,298.934,400,257.905,400,192C400,112.598,335.402,48,256,48z"/>
<path d="M160,320c-8.836,0-16-7.163-16-16V184c0-57.346,50.243-104,112-104s112,46.654,112,104c0,8.836-7.163,16-16,16
	s-16-7.164-16-16c0-39.701-35.888-72-80-72s-80,32.299-80,72V304C176,312.837,168.836,320,160,320z"/>
<path d="M223.971,352.004c-1.348,0-2.718-0.172-4.083-0.53c-8.546-2.249-13.65-11-11.401-19.546
	c2.646-10.055,10.997-24.258,25.53-43.421c8.738-11.522,16.904-21.122,19.141-23.724c3.237-4.876,3.575-10.85,0.878-16.098
	c-2.794-5.438-8.108-8.686-14.216-8.686c-0.292,0-0.583-0.008-0.875-0.024c-19.042-1.014-54.794,1.352-69.597,12.008
	c-7.17,5.164-17.17,3.537-22.333-3.636c-5.164-7.171-3.536-17.17,3.635-22.333c28.197-20.302,81.731-18.412,89.63-18.014
	c17.882,0.169,34.028,10.122,42.218,26.06c8.254,16.065,6.848,35.169-3.671,49.855c-0.292,0.408-0.604,0.802-0.933,1.181
	c-16.553,19.052-35.966,45.489-38.462,54.976C237.543,347.253,231.062,352.004,223.971,352.004z"/>
</svg>
