<?xml version="1.0" encoding="iso-8859-1"?>
<!-- Generator: Adobe Illustrator 24.3.0, SVG Export Plug-In . SVG Version: 6.00 Build 0)  -->
<svg version="1.1" id="Layer_1" xmlns="http://www.w3.org/2000/svg" xmlns:xlink="http://www.w3.org/1999/xlink" x="0px" y="0px"
	 viewBox="0 0 512 512" style="enable-background:new 0 0 512 512;" xml:space="preserve">
<path d="M256,16C159,16,80,95,80,192v206.57c-0.019,25.62,10.038,50.221,28,68.49c17.799,18.476,42.345,28.923,68,28.94
	c36.86,0,67.18-15.62,90.12-46.42c4.48-6,9.55-14.74,15.42-24.85c15.32-26.37,36.29-62.47,63.17-80.74
	c25.77-17.51,47.23-39.54,62-63.72C423.51,252.94,432,223.24,432,192C432,95,353.05,16,256,16z M352,200c-8.837,0-16-7.163-16-16
	c0-39.7-35.89-72-80-72s-80,32.3-80,72v30.42c27.19-7.84,58.4-6.72,64.28-6.42c26.508,0.253,47.793,21.947,47.541,48.455
	c-0.094,9.849-3.215,19.431-8.941,27.445c-0.3,0.41-0.61,0.81-0.95,1.2c-16.55,19-36,45.48-38.46,55
	c-2.428,8.496-11.284,13.416-19.781,10.987c-8.244-2.356-13.165-10.792-11.159-19.127c5.51-20.94,36.93-58.2,44.66-67.15
	c4.866-7.376,2.83-17.3-4.546-22.166c-2.619-1.727-5.687-2.647-8.824-2.644h-0.88c-16.6-0.89-45.89,0.8-62.94,8.31V304
	c0,8.837-7.163,16-16,16s-16-7.163-16-16V184c0-57.35,50.24-104,112-104s112,46.65,112,104C368,192.837,360.837,200,352,200z"/>
</svg>
