<?xml version="1.0" encoding="iso-8859-1"?>
<!-- Generator: Adobe Illustrator 24.3.0, SVG Export Plug-In . SVG Version: 6.00 Build 0)  -->
<svg version="1.1" id="Layer_1" xmlns="http://www.w3.org/2000/svg" xmlns:xlink="http://www.w3.org/1999/xlink" x="0px" y="0px"
	 viewBox="0 0 512 512" style="enable-background:new 0 0 512 512;" xml:space="preserve">
<path d="M256,480c-59.83,0-116.081-23.301-158.39-65.61C55.301,372.081,32,315.83,32,256c0-59.83,23.301-116.081,65.61-158.39
	C139.919,55.301,196.17,32,256,32s116.081,23.301,158.39,65.61C456.699,139.919,480,196.17,480,256
	c0,59.83-23.301,116.081-65.61,158.39C372.081,456.7,315.83,480,256,480z M256,64C150.131,64,64,150.131,64,256
	C64,361.87,150.131,448,256,448S448,361.87,448,256C448,150.131,361.869,64,256,64z"/>
<path d="M445.57,172.14c-16.06,0.1-14.48,29.73-34.49,15.75c-7.43-5.18-12-12.71-21.33-15c-8.15-2-16.5,0.08-24.55,1.47
	c-9.15,1.58-20,2.29-26.94,9.22c-6.71,6.67-10.26,15.62-17.4,22.33c-13.81,13-19.64,27.19-10.7,45.57c8.6,17.67,26.59,27.26,46,26
	c19.07-1.27,38.88-12.33,38.33,15.38c-0.2,9.8,1.85,16.6,4.86,25.71c2.79,8.4,2.6,16.54,3.24,25.21c1.18,16.2,4.16,34.36,12.2,48.67
	l15-21.16c1.85-2.62,5.72-6.29,6.64-9.38c1.63-5.47-1.58-14.87-1.95-21s-0.19-12.34-1.13-18.47c-1.32-8.59-6.4-16.64-7.1-25.13
	c-1.29-15.81,1.6-28.43-10.58-41.65c-11.76-12.75-29-15.81-45.47-13.22c-8.3,1.3-41.71,6.64-28.3-12.33
	c2.65-3.73,7.28-6.79,10.26-10.34c2.59-3.09,4.84-8.77,7.88-11.18s17-5.18,21-3.95s8.17,7,11.64,9.56
	c6.411,4.829,13.893,8.04,21.81,9.36c13.66,2,42.22-5.94,42-23.46C456.45,191.7,448.65,180,445.57,172.14z"/>
<path d="M287.45,316.3c-5.33-22.44-35.82-29.94-52.26-42.11c-9.45-7-17.86-17.81-30.27-18.69c-5.72-0.41-10.51,0.83-16.18-0.64
	c-5.2-1.34-9.28-4.14-14.82-3.41c-10.35,1.36-16.88,12.42-28,10.92c-10.55-1.42-21.42-13.76-23.82-23.81
	c-3.08-12.92,7.14-17.11,18.09-18.26c4.57-0.48,9.7-1,14.09,0.67c5.78,2.15,8.51,7.81,13.7,10.67c9.73,5.33,11.7-3.19,10.21-11.83
	c-2.23-12.94-4.83-18.22,6.71-27.12c8-6.14,14.84-10.58,13.56-21.61c-0.76-6.48-4.31-9.41-1-15.86c2.51-4.91,9.4-9.34,13.89-12.27
	c11.59-7.56,49.65-7,34.1-28.16c-4.57-6.21-13-17.31-21-18.83c-10-1.89-14.44,9.27-21.41,14.19c-7.2,5.09-21.22,10.87-28.43,3
	c-9.7-10.59,6.43-14.07,10-21.46s-8.27-21.36-14.61-24.9l-29.81,33.43c-1.731,11.316,1.287,22.844,8.34,31.86
	c5.93,7.63,15.37,10.08,15.8,20.5c0.42,10-1.14,15.12-7.68,22.15c-2.83,3-4.83,7.26-7.71,10.07c-3.53,3.43-2.22,2.38-7.73,3.32
	c-10.36,1.75-19.18,4.45-29.19,7.21C95.34,199.94,93.8,172.69,86.2,162l-25,20.19c-0.27,3.31,4.1,9.4,5.29,13
	c6.83,20.57,20.61,36.48,29.51,56.16c9.37,20.84,34.53,15.06,45.64,33.32c9.86,16.2-0.67,36.71,6.71,53.67
	c5.36,12.31,18,15,26.72,24c8.91,9.09,8.72,21.53,10.08,33.36c1.534,13.915,4.023,27.707,7.45,41.28
	c1.21,4.69,2.32,10.89,5.53,14.76c2.2,2.66,9.75,4.95,6.7,5.83c4.26,0.7,11.85,4.68,15.4,1.76c4.68-3.84,3.43-15.66,4.24-21
	c2.43-15.9,10.39-31.45,21.13-43.35c10.61-11.74,25.15-19.69,34.11-33C288.44,349,291.07,331.49,287.45,316.3z M254.06,342.62
	c-6,10.71-19.36,17.88-27.95,26.39c-2.33,2.31-7.29,10.31-10.21,8.58c-2.09-1.24-2.8-11.62-3.57-14
	c-3.972-11.985-11.556-22.446-21.71-29.95c-3.13-2.37-10.89-5.45-12.68-8.7c-2-3.53-0.2-11.86-0.13-15.7
	c0.11-5.6-2.44-14.91-1.06-20c1.6-5.87-1.48-2.33,3.77-3.49c2.77-0.62,14.21,1.39,17.66,2.11c5.48,1.14,8.5,4.55,12.82,8
	c11.36,9.11,23.87,16.16,36.6,23.14C257.46,324.46,260.36,331.37,254.06,342.62L254.06,342.62z"/>
<path d="M184.46,67.09c4.74,4.63,9.2,10.11,16.27,10.57c6.69,0.45,13-3.17,18.84,1.38c6.48,5,11.15,11.33,19.75,12.89
	c8.32,1.51,17.13-3.35,19.19-11.86c2-8.11-2.31-16.93-2.57-25.07c0-1.13,0.61-6.15-0.17-7c-0.58-0.64-5.42,0.08-6.16,0.1
	c-5.42,0.16-10.827,0.533-16.22,1.12c-19.662,2.128-38.917,7.062-57.18,14.65C178.64,65.55,181.69,66.22,184.46,67.09z"/>
<path d="M356.4,123.27c8.49,0,17.11-3.8,14.37-13.62c-2.3-8.23-6.22-17.16-15.76-12.72c-6.07,2.82-14.67,10-15.38,17.12
	C338.82,122.13,350.74,123.27,356.4,123.27z"/>
<path d="M349.62,166.24c8.67,5.19,21.53,2.75,28.07-4.66c5.11-5.8,8.12-15.87,17.31-15.86c4.046-0.008,7.933,1.576,10.82,4.41
	c3.8,3.93,3.05,7.62,3.86,12.54c1.81,11.05,13.66,0.63,16.75-3.65c2-2.79,4.71-6.93,3.8-10.56c-0.84-3.39-4.8-7-6.56-10.11
	c-5.14-9-9.37-19.47-17.07-26.74c-7.41-7-16.52-6.19-23.55,1.08c-5.76,6-12.45,10.75-16.39,18.05c-2.78,5.13-5.91,7.58-11.54,8.91
	c-3.1,0.73-6.64,1-9.24,3.08C338.64,148.43,342.76,162.12,349.62,166.24z"/>
</svg>
