<?xml version="1.0" encoding="iso-8859-1"?>
<!-- Generator: Adobe Illustrator 24.3.0, SVG Export Plug-In . SVG Version: 6.00 Build 0)  -->
<svg version="1.1" id="Layer_1" xmlns="http://www.w3.org/2000/svg" xmlns:xlink="http://www.w3.org/1999/xlink" x="0px" y="0px"
	 viewBox="0 0 512 512" style="enable-background:new 0 0 512 512;" xml:space="preserve">
<path d="M414.39,97.74C327.344,9.833,185.517,9.135,97.61,96.181s-88.605,228.873-1.559,316.78c0.517,0.522,1.037,1.042,1.559,1.559
	c87.046,87.907,228.873,88.605,316.78,1.559s88.605-228.873,1.559-316.78C415.432,98.777,414.912,98.257,414.39,97.74z M64,256.13
	c-0.007-16.993,2.246-33.911,6.7-50.31c7.34,15.8,18,29.45,25.25,45.66c9.37,20.84,34.53,15.06,45.64,33.32
	c9.86,16.21-0.67,36.71,6.71,53.67c5.36,12.31,18,15,26.72,24c8.91,9.08,8.72,21.52,10.08,33.36c1.535,13.911,4.024,27.7,7.45,41.27
	c0,0.1,0,0.21,0.08,0.31C117.8,411.13,64,339.8,64,256.13z M256,448.13c-10.723-0.003-21.426-0.9-32-2.68
	c0.11-2.71,0.16-5.24,0.43-7c2.43-15.9,10.39-31.45,21.13-43.35c10.61-11.74,25.15-19.68,34.11-33c8.78-13,11.41-30.5,7.79-45.69
	c-5.33-22.44-35.82-29.93-52.26-42.1c-9.45-7-17.86-17.82-30.27-18.7c-5.72-0.4-10.51,0.83-16.18-0.63
	c-5.2-1.35-9.28-4.15-14.82-3.42c-10.35,1.36-16.88,12.42-28,10.92c-10.55-1.41-21.42-13.76-23.82-23.81
	c-3.08-12.92,7.14-17.11,18.09-18.26c4.57-0.48,9.7-1,14.09,0.68c5.78,2.14,8.51,7.8,13.7,10.66c9.73,5.34,11.7-3.19,10.21-11.83
	c-2.23-12.94-4.83-18.21,6.71-27.12c8-6.14,14.84-10.58,13.56-21.61c-0.76-6.48-4.31-9.41-1-15.86c2.51-4.91,9.4-9.34,13.89-12.27
	c11.59-7.56,49.65-7,34.1-28.16c-4.57-6.21-13-17.31-21-18.83c-10-1.89-14.44,9.27-21.41,14.19c-7.2,5.09-21.22,10.87-28.43,3
	c-9.7-10.59,6.43-14.06,10-21.46c1.65-3.45,0-8.24-2.78-12.75c3.607-1.52,7.273-2.93,11-4.23c2.336,1.725,5.106,2.764,8,3
	c6.69,0.44,13-3.18,18.84,1.38c6.48,5,11.15,11.32,19.75,12.88c8.32,1.51,17.13-3.34,19.19-11.86c1.25-5.18,0-10.65-1.2-16
	c37.4,0.215,73.913,11.416,105,32.21c-2-0.76-4.39-0.67-7.34,0.7c-6.07,2.82-14.67,10-15.38,17.12c-0.81,8.08,11.11,9.22,16.77,9.22
	c8.5,0,17.11-3.8,14.37-13.62c-1.19-4.26-2.81-8.69-5.42-11.37c6.274,4.354,12.285,9.075,18,14.14c-0.09,0.09-0.18,0.17-0.27,0.27
	c-5.76,6-12.45,10.75-16.39,18.05c-2.78,5.14-5.91,7.58-11.54,8.91c-3.1,0.73-6.64,1-9.24,3.08c-7.24,5.7-3.12,19.4,3.74,23.51
	c8.67,5.19,21.53,2.75,28.07-4.66c5.11-5.8,8.12-15.87,17.31-15.86c4.046-0.008,7.933,1.576,10.82,4.41
	c3.8,3.94,3.05,7.62,3.86,12.54c1.43,8.74,9.14,4,13.83-0.41c3.419,6.084,6.503,12.35,9.24,18.77c-5.16,7.43-9.26,15.53-21.67,6.87
	c-7.43-5.19-12-12.72-21.33-15.06c-8.15-2-16.5,0.08-24.55,1.47c-9.15,1.59-20,2.29-26.94,9.22c-6.71,6.68-10.26,15.62-17.4,22.33
	c-13.81,13-19.64,27.19-10.7,45.57c8.6,17.67,26.59,27.26,46,26c19.07-1.27,38.88-12.33,38.33,15.38c-0.2,9.81,1.85,16.6,4.86,25.71
	c2.79,8.4,2.6,16.54,3.24,25.21c0.609,10.153,2.196,20.223,4.74,30.07C371.107,420.766,315.215,448.127,256,448.13z"/>
</svg>
