<?xml version="1.0" encoding="iso-8859-1"?>
<!-- Generator: Adobe Illustrator 24.3.0, SVG Export Plug-In . SVG Version: 6.00 Build 0)  -->
<svg version="1.1" id="Layer_1" xmlns="http://www.w3.org/2000/svg" xmlns:xlink="http://www.w3.org/1999/xlink" x="0px" y="0px"
	 viewBox="0 0 512 512" style="enable-background:new 0 0 512 512;" xml:space="preserve">
<path d="M267,474l-0.8-0.13C266.428,474.046,266.729,474.095,267,474z"/>
<path d="M448.9,187.78c-0.565-2.99-3.448-4.956-6.438-4.39c-1.996,0.377-3.622,1.823-4.232,3.76l0,0
	c-0.724,2.282-2.836,3.836-5.23,3.85h-15.47c-1.001,0.001-1.983-0.272-2.84-0.79l-22.38-13.42c-0.857-0.518-1.839-0.791-2.84-0.79
	h-35.8c-1.09-0.001-2.155,0.323-3.06,0.93l-44.15,29.43c-1.55,1.033-2.475,2.777-2.46,4.64v41.74
	c-0.002,2.038,1.121,3.912,2.92,4.87l57.89,30.9c1.771,0.953,2.888,2.789,2.92,4.8L368,316.8c0.031,1.979,1.118,3.791,2.85,4.75
	l23.26,12.87c1.755,0.975,2.845,2.823,2.85,4.83v48.6c0.001,3.049,2.472,5.52,5.521,5.519c1.344,0,2.641-0.491,3.649-1.379
	c9.38-8.26,22.83-20.32,24.62-23.08c2.96-4.58,5.737-9.27,8.33-14.07c5.371-9.945,9.919-20.313,13.6-31
	C465.36,287.13,455.34,221.14,448.9,187.78z"/>
<path d="M286.4,302.8l-61.33-46c-0.692-0.519-1.535-0.8-2.4-0.8h-29.1c-1.005,0.001-1.97-0.398-2.68-1.11l-13.72-13.72
	c-0.751-0.75-1.769-1.171-2.83-1.17h-53.19c-2.093,0-3.79-1.697-3.79-3.79c0-1.005,0.399-1.969,1.11-2.68l8.42-8.42
	c0.71-0.712,1.675-1.111,2.68-1.11h32.37c3.583,0,6.728-2.382,7.7-5.83l6.89-24.5c0.297-1.064,1.021-1.958,2-2.47L206,177.06
	c1.26-0.651,2.051-1.952,2.05-3.37v-12.5c0.001-0.776,0.238-1.532,0.68-2.17l14.6-21.02c0.438-0.632,1.059-1.113,1.78-1.38
	l20.43-7.67c1.48-0.555,2.46-1.969,2.46-3.55V114c0-1.27-0.634-2.455-1.69-3.16l-20.48-13.62c-1.145-0.754-2.606-0.837-3.83-0.22
	l-27.88,13.94c-1.301,0.643-2.856,0.483-4-0.41l-13.22-10.45c-1.635-1.315-1.895-3.707-0.58-5.343
	c0.198-0.247,0.427-0.467,0.68-0.657l10.74-7.91c1.683-1.235,2.047-3.6,0.812-5.284c-0.25-0.34-0.555-0.637-0.902-0.876
	l-16.73-11.67c-1.182-0.832-2.734-0.917-4-0.22c-6.05,3.31-23.8,13.11-30.1,17.52c-29.149,20.441-52.607,47.975-68.16,80
	c-1.82,3.76-4.07,7.59-4.29,11.72s-3.46,13.35-4.81,17.08c-0.368,1.02-0.281,2.149,0.24,3.1l35.69,65.58
	c0.321,0.596,0.798,1.094,1.38,1.44l37.55,22.54c0.987,0.588,1.653,1.592,1.81,2.73l7.52,54.54c0.149,1.057,0.732,2.003,1.61,2.61
	l29.3,20.14c0.849,0.583,1.44,1.472,1.65,2.48l15.54,73.8c0.087,0.433,0.253,0.847,0.49,1.22c1.46,2.36,7.28,11,14.3,12.28
	c-0.65,0.18-1.23,0.59-1.88,0.78c1.686,0.297,3.355,0.684,5,1.16c2,0.54,4,1,6,1.43c3.13,0.62,3.44,1.1,4.94-1.68
	c2-3.72,4.29-5,6-5.46c1.44-0.332,2.563-1.459,2.89-2.9l10.07-46.68c0.212-0.978,0.783-1.842,1.6-2.42l45-31.9
	c1.061-0.751,1.691-1.97,1.69-3.27V306C287.962,304.75,287.388,303.566,286.4,302.8z"/>
<path d="M262,48c0,0-3.65,0.21-4.39,0.23c-5.42,0.16-10.827,0.533-16.22,1.12c-19.661,2.133-38.916,7.066-57.18,14.65
	c2.43,1.68-1.75,3.22-1.75,3.22L189,80h35l24,12l21-12L262,48z"/>
<path d="M354.23,120.06l16.11-14c1.668-1.448,1.847-3.974,0.399-5.643c-0.37-0.426-0.826-0.77-1.339-1.007l-18.81-8.73
	c-1.989-0.928-4.354-0.08-5.3,1.9l-7.75,16.21c-0.873,1.835-0.232,4.032,1.49,5.11l10.46,6.54
	C350.982,121.368,352.905,121.214,354.23,120.06z"/>
<path d="M429.64,140.67l-5.83-9c-0.09-0.14-0.17-0.28-0.25-0.43c-1.05-2.15-9.74-19.7-17-26.51c-5.45-5.15-7-3.67-7.43-2.53
	c-0.246,0.63-0.657,1.183-1.19,1.6l-28.84,23.31c-0.71,0.575-1.596,0.889-2.51,0.89h-14.93c-1.061-0.001-2.079,0.42-2.83,1.17
	l-12,12c-1.563,1.561-1.564,4.094-0.003,5.657c0.001,0.001,0.002,0.002,0.003,0.003l12,12c0.751,0.75,1.769,1.171,2.83,1.17h75.17
	c2.209,0.002,4.002-1.787,4.004-3.996c0-0.058-0.001-0.116-0.004-0.174l-0.55-13.15C430.25,141.965,430.029,141.271,429.64,140.67z"
	/>
<path d="M256,72c101.62-0.008,184.007,82.364,184.015,183.985S357.651,439.992,256.031,440S72.024,357.636,72.015,256.015
	C72.011,207.214,91.394,160.41,125.9,125.9C160.326,91.277,207.175,71.868,256,72 M256,32C132.3,32,32,132.3,32,256
	s100.3,224,224,224s224-100.3,224-224S379.7,32,256,32z"/>
</svg>
