<?xml version="1.0" encoding="iso-8859-1"?>
<!-- Generator: Adobe Illustrator 24.3.0, SVG Export Plug-In . SVG Version: 6.00 Build 0)  -->
<svg version="1.1" id="Layer_1" xmlns="http://www.w3.org/2000/svg" xmlns:xlink="http://www.w3.org/1999/xlink" x="0px" y="0px"
	 viewBox="0 0 512 512" style="enable-background:new 0 0 512 512;" xml:space="preserve">
<path d="M92,112h328c6.627,0,12,5.373,12,12v184c0,6.627-5.373,12-12,12H92c-6.627,0-12-5.373-12-12V124
	C80,117.373,85.373,112,92,112z"/>
<path d="M432,64H272V48c0-8.837-7.163-16-16-16c-8.837,0-16,7.163-16,16v16H80c-26.498,0.028-47.972,21.502-48,48v208
	c0.028,26.498,21.502,47.972,48,48h42.79l-26.17,91.6c-2.594,8.447,2.15,17.398,10.598,19.992s17.398-2.15,19.992-10.598
	c0.061-0.197,0.117-0.395,0.17-0.595L156.07,368H240v48c0,8.837,7.163,16,16,16c8.837,0,16-7.163,16-16v-48h83.93l28.69,100.4
	c2.266,8.541,11.027,13.628,19.568,11.362c8.541-2.266,13.628-11.027,11.362-19.568c-0.053-0.199-0.11-0.397-0.17-0.594L389.21,368
	H432c26.498-0.028,47.972-21.502,48-48V112C479.972,85.502,458.498,64.028,432,64z M448,320c0,8.837-7.163,16-16,16H80
	c-8.837,0-16-7.163-16-16V112c0-8.837,7.163-16,16-16h352c8.837,0,16,7.163,16,16V320z"/>
</svg>
