<?xml version="1.0" encoding="iso-8859-1"?>
<!-- Generator: Adobe Illustrator 24.3.0, SVG Export Plug-In . SVG Version: 6.00 Build 0)  -->
<svg version="1.1" id="Layer_1" xmlns="http://www.w3.org/2000/svg" xmlns:xlink="http://www.w3.org/1999/xlink" x="0px" y="0px"
	 viewBox="0 0 512 512" style="enable-background:new 0 0 512 512;" xml:space="preserve">
<path d="M432,368H80c-26.467,0-48-21.533-48-48V112c0-26.467,21.533-48,48-48h352c26.467,0,48,21.533,48,48v208
	C480,346.467,458.467,368,432,368z M80,96c-8.822,0-16,7.178-16,16v208c0,8.822,7.178,16,16,16h352c8.822,0,16-7.178,16-16V112
	c0-8.822-7.178-16-16-16H80z"/>
<path d="M256,432c-8.836,0-16-7.163-16-16v-64c0-8.837,7.164-16,16-16c8.837,0,16,7.163,16,16v64C272,424.837,264.837,432,256,432z"
	/>
<path d="M256,96c-8.836,0-16-7.164-16-16V48c0-8.836,7.164-16,16-16c8.837,0,16,7.164,16,16v32C272,88.836,264.837,96,256,96z"/>
<path d="M399.992,480.004c-6.963,0-13.368-4.58-15.377-11.608l-32-112c-2.427-8.496,2.493-17.353,10.989-19.78
	c8.496-2.424,17.352,2.492,19.78,10.989l32,112c2.427,8.496-2.493,17.353-10.989,19.78
	C402.927,479.804,401.447,480.004,399.992,480.004z"/>
<path d="M112.008,480.004c-1.456,0-2.934-0.2-4.403-0.619c-8.497-2.428-13.417-11.284-10.989-19.78l32-112
	c2.428-8.496,11.284-13.41,19.78-10.989c8.497,2.428,13.417,11.284,10.989,19.78l-32,112
	C125.376,475.423,118.97,480.004,112.008,480.004z"/>
</svg>
