<?xml version="1.0" encoding="iso-8859-1"?>
<!-- Generator: Adobe Illustrator 24.3.0, SVG Export Plug-In . SVG Version: 6.00 Build 0)  -->
<svg version="1.1" id="Layer_1" xmlns="http://www.w3.org/2000/svg" xmlns:xlink="http://www.w3.org/1999/xlink" x="0px" y="0px"
	 viewBox="0 0 512 512" style="enable-background:new 0 0 512 512;" xml:space="preserve">
<path d="M468,64H278V32h-44v32H44c-6.627,0-12,5.373-12,12v280c0,6.627,5.373,12,12,12h78.19L89.93,470.46l36.53,9.61L161.74,368
	H234v64h44v-64h71.84l31,111.7l36.83-8.57L389.05,368H468c6.627,0,12-5.373,12-12V76C480,69.373,474.627,64,468,64z M442,330H70V102
	h372V330z"/>
<rect x="88" y="120" width="336" height="192"/>
</svg>
