<?xml version="1.0" encoding="iso-8859-1"?>
<!-- Generator: Adobe Illustrator 24.3.0, SVG Export Plug-In . SVG Version: 6.00 Build 0)  -->
<svg version="1.1" id="Layer_1" xmlns="http://www.w3.org/2000/svg" xmlns:xlink="http://www.w3.org/1999/xlink" x="0px" y="0px"
	 viewBox="0 0 512 512" style="enable-background:new 0 0 512 512;" xml:space="preserve">
<path d="M418.39,381.05c-8.08,21.68-19.76,40.1-34.72,54.75c-14.38,14.07-32.1,24.95-52.67,32.34C309.08,476,283.85,480,256,480
	s-53.08-4-75-11.86c-20.57-7.39-38.29-18.27-52.67-32.34c-15-14.65-26.64-33.07-34.72-54.75C84.58,356.82,80,328.53,80,296.94
	c0-30.28,6.68-62.57,19.86-96c12.797-32.075,30.01-62.206,51.14-89.52C195.78,53.56,241,32,256,32s62.67,22.4,105,79.42
	c18.33,24.71,38.87,58.34,51.17,89.54c13.18,33.41,19.86,65.7,19.86,96C432,328.53,427.42,356.82,418.39,381.05z"/>
</svg>
