<?xml version="1.0" encoding="iso-8859-1"?>
<!-- Generator: Adobe Illustrator 24.3.0, SVG Export Plug-In . SVG Version: 6.00 Build 0)  -->
<svg version="1.1" id="Layer_1" xmlns="http://www.w3.org/2000/svg" xmlns:xlink="http://www.w3.org/1999/xlink" x="0px" y="0px"
	 viewBox="0 0 512 512" style="enable-background:new 0 0 512 512;" xml:space="preserve">
<path d="M256,480c-52.566,0-96.724-17.545-127.698-50.736C96.703,395.401,80,346.052,80,286.55
	c0-56.046,21.48-118.586,58.934-171.582C175.649,63.016,219.412,32,256,32s80.352,31.016,117.066,82.968
	C410.52,167.964,432,230.504,432,286.55c0,59.502-16.702,108.851-48.302,142.714C352.724,462.456,308.566,480,256,480z M256,64
	c-25.43,0-61.124,27.255-90.934,69.437C131.342,181.157,112,236.964,112,286.55c0,51.251,13.727,93.051,39.698,120.881
	C176.465,433.972,212.532,448,256,448c43.469,0,79.535-14.028,104.302-40.569C386.272,379.601,400,337.801,400,286.55
	c0-49.586-19.342-105.394-53.066-153.114C317.124,91.255,281.43,64,256,64z"/>
</svg>
