<?xml version="1.0" encoding="iso-8859-1"?>
<!-- Generator: Adobe Illustrator 24.3.0, SVG Export Plug-In . SVG Version: 6.00 Build 0)  -->
<svg version="1.1" id="Layer_1" xmlns="http://www.w3.org/2000/svg" xmlns:xlink="http://www.w3.org/1999/xlink" x="0px" y="0px"
	 viewBox="0 0 512 512" style="enable-background:new 0 0 512 512;" xml:space="preserve">
<path d="M256,304c-26.467,0-48-21.533-48-48.001s21.533-48,48-48c26.468,0,48,21.533,48,48S282.468,304,256,304z M256,240
	c-8.822,0-16,7.178-16,16c0,8.823,7.178,16.001,16,16.001s16-7.178,16-16.001C272,247.178,264.822,240,256,240z"/>
<path d="M416,304c-26.468,0-48-21.533-48-48.001s21.532-48,48-48s48,21.533,48,48S442.468,304,416,304z M416,240
	c-8.822,0-16,7.178-16,16c0,8.823,7.178,16.001,16,16.001s16-7.178,16-16.001C432,247.178,424.822,240,416,240z"/>
<path d="M96,304C69.533,304,48,282.467,48,256s21.533-48,48-48s48,21.533,48,48S122.467,304,96,304z M96,240
	c-8.822,0-16,7.178-16,16C80,264.823,87.178,272,96,272s16-7.178,16-16.001C112,247.178,104.822,240,96,240z"/>
</svg>
