<?xml version="1.0" encoding="iso-8859-1"?>
<!-- Generator: Adobe Illustrator 24.3.0, SVG Export Plug-In . SVG Version: 6.00 Build 0)  -->
<svg version="1.1" id="Layer_1" xmlns="http://www.w3.org/2000/svg" xmlns:xlink="http://www.w3.org/1999/xlink" x="0px" y="0px"
	 viewBox="0 0 512 512" style="enable-background:new 0 0 512 512;" xml:space="preserve">
<path d="M256,48C141.13,48,48,141.13,48,256s93.13,208,208,208s208-93.13,208-208S370.87,48,256,48z M166,282
	c-14.359,0-26-11.641-26-26c0-14.359,11.641-26,26-26s26,11.641,26,26C192,270.359,180.359,282,166,282L166,282z M256,282
	c-14.359,0-26-11.641-26-26c0-14.359,11.641-26,26-26s26,11.641,26,26C282,270.359,270.359,282,256,282L256,282z M346,282
	c-14.359,0-26-11.641-26-26c0-14.359,11.641-26,26-26s26,11.641,26,26C372,270.359,360.359,282,346,282L346,282z"/>
</svg>
