<svg width="16" height="16" viewBox="0 0 16 16"  xmlns="http://www.w3.org/2000/svg">
<path d="M12.6875 8.81164C12.1965 8.81164 11.7303 8.92828 11.3108 9.1371L9.91889 6.52141C10.7618 5.86924 11.3125 4.79984 11.3125 3.59349C11.3125 2.2387 10.6218 1.01272 9.51001 0.393914C9.35645 0.308405 9.16811 0.374215 9.08933 0.540826C9.01055 0.707436 9.07117 0.911783 9.22473 0.997259C10.127 1.49943 10.6875 2.49424 10.6875 3.59349C10.6875 4.25779 10.4812 4.8706 10.1351 5.36144C9.94264 4.87368 9.55017 4.50018 9.0702 4.36287C9.20773 4.14058 9.28811 3.87334 9.28811 3.58606V3.40372C9.28811 2.63309 8.71026 2.00618 7.99998 2.00618C7.2897 2.00618 6.71186 2.63312 6.71186 3.40372V3.58606C6.71186 3.87334 6.79224 4.14055 6.92977 4.36287C6.4498 4.50018 6.05733 4.87368 5.86483 5.36144C5.51874 4.8706 5.31249 4.25779 5.31249 3.59349C5.31249 2.49428 5.87296 1.49946 6.77517 0.997292C6.92874 0.911817 6.98936 0.70747 6.91058 0.54086C6.8318 0.374249 6.64346 0.308439 6.48989 0.393948C5.37815 1.01275 4.68749 2.23873 4.68749 3.59349C4.68749 4.79984 5.23818 5.86924 6.08108 6.52144L4.68921 9.13713C4.26971 8.92831 3.80346 8.81168 3.31249 8.81168C1.48597 8.81168 0 10.4239 0 12.4056C0 14.3874 1.48597 15.9996 3.31249 15.9996C5.03465 15.9996 6.45383 14.5663 6.61042 12.7414H9.38958C9.54617 14.5663 10.9653 15.9996 12.6875 15.9996C14.514 15.9996 16 14.3874 16 12.4056C16 10.4239 14.514 8.81164 12.6875 8.81164ZM7.33686 3.40369C7.33686 3.00699 7.63433 2.68425 7.99998 2.68425C8.36564 2.68425 8.66311 3.00699 8.66311 3.40369V3.58603C8.66311 3.98272 8.36564 4.30546 7.99998 4.30546C7.63433 4.30546 7.33686 3.98272 7.33686 3.58603V3.40369ZM7.33783 4.9836H8.66217C9.15876 4.9836 9.56967 5.38796 9.63064 5.90911C9.17805 6.28519 8.61283 6.50934 8.00002 6.50934C7.3872 6.50934 6.82199 6.28519 6.36939 5.90911C6.4303 5.38796 6.84121 4.9836 7.33783 4.9836ZM6.62192 6.86131C7.04177 7.07057 7.50852 7.18745 7.99998 7.18745C8.49145 7.18745 8.9582 7.07054 9.37804 6.86131L10.7698 9.47673C10.0069 10.0664 9.48333 10.9979 9.39011 12.0633H6.60989C6.51667 10.9979 5.99311 10.0664 5.23021 9.47673L6.62192 6.86131ZM1.68187 14.7212C1.74281 14.2001 2.15371 13.7957 2.65034 13.7957H3.97468C4.47127 13.7957 4.88221 14.2001 4.94315 14.7212C4.49055 15.0973 3.92534 15.3215 3.31252 15.3215C2.69971 15.3215 2.13446 15.0973 1.68187 14.7212ZM3.97562 12.3981C3.97562 12.7949 3.67815 13.1176 3.31249 13.1176C2.94684 13.1176 2.64937 12.7949 2.64937 12.3981V12.2158C2.64937 11.8191 2.94684 11.4964 3.31249 11.4964C3.67815 11.4964 3.97562 11.8191 3.97562 12.2158V12.3981ZM5.44765 14.1736C5.25515 13.6858 4.86268 13.3123 4.38268 13.175C4.52021 12.9527 4.60058 12.6854 4.60058 12.3982V12.2158C4.60058 11.4452 4.02274 10.8183 3.31246 10.8183C2.60218 10.8183 2.02434 11.4452 2.02434 12.2158V12.3982C2.02434 12.6855 2.10471 12.9527 2.24225 13.175C1.76225 13.3123 1.36978 13.6858 1.17728 14.1736C0.831248 13.6827 0.624999 13.0699 0.624999 12.4056C0.624999 10.7978 1.83062 9.48975 3.31249 9.48975C4.79437 9.48975 5.99999 10.7978 5.99999 12.4056C5.99999 13.0699 5.79374 13.6827 5.44765 14.1736ZM11.0569 14.7212C11.1178 14.2001 11.5287 13.7957 12.0253 13.7957H13.3497C13.8463 13.7957 14.2572 14.2001 14.3181 14.7212C13.8655 15.0973 13.3003 15.3215 12.6875 15.3215C12.0747 15.3215 11.5094 15.0973 11.0569 14.7212ZM13.3506 12.3981C13.3506 12.7949 13.0531 13.1176 12.6875 13.1176C12.3218 13.1176 12.0244 12.7949 12.0244 12.3981V12.2158C12.0244 11.8191 12.3218 11.4964 12.6875 11.4964C13.0531 11.4964 13.3506 11.8191 13.3506 12.2158V12.3981ZM14.8226 14.1736C14.6301 13.6858 14.2377 13.3123 13.7577 13.175C13.8952 12.9527 13.9756 12.6854 13.9756 12.3982V12.2158C13.9756 11.4452 13.3977 10.8183 12.6874 10.8183C11.9772 10.8183 11.3993 11.4452 11.3993 12.2158V12.3982C11.3993 12.6855 11.4797 12.9527 11.6172 13.175C11.1372 13.3123 10.7448 13.6858 10.5523 14.1736C10.2062 13.6827 9.99998 13.0699 9.99998 12.4056C9.99998 10.7978 11.2056 9.48975 12.6875 9.48975C14.1693 9.48975 15.375 10.7978 15.375 12.4056C15.375 13.0699 15.1687 13.6827 14.8226 14.1736Z" fill="black"/>
<path d="M8 0.678105C8.08219 0.678105 8.16281 0.641827 8.22094 0.578763C8.27906 0.515699 8.3125 0.428224 8.3125 0.339053C8.3125 0.249543 8.27906 0.162406 8.22094 0.0993425C8.16281 0.0362787 8.08219 0 8 0C7.91781 0 7.83719 0.0362787 7.77906 0.0993425C7.72094 0.162406 7.6875 0.249882 7.6875 0.339053C7.6875 0.428224 7.72094 0.515699 7.77906 0.578763C7.83719 0.641827 7.91781 0.678105 8 0.678105Z" fill="black"/>
</svg>
