<?xml version="1.0" encoding="UTF-8" standalone="no"?>
<svg
   width="38"
   height="38"
   viewBox="0 0 38 38"

   version="1.1"
   id="svg1497"
   sodipodi:docname="icons.svg"
   inkscape:version="1.2.2 (b0a84865, 2022-12-01)"
   xmlns:inkscape="http://www.inkscape.org/namespaces/inkscape"
   xmlns:sodipodi="http://sodipodi.sourceforge.net/DTD/sodipodi-0.dtd"
   xmlns="http://www.w3.org/2000/svg"
   xmlns:svg="http://www.w3.org/2000/svg">
  <defs
     id="defs1501" />
  <sodipodi:namedview
     id="namedview1499"
     pagecolor="#ffffff"
     bordercolor="#000000"
     borderopacity="0.25"
     inkscape:showpageshadow="2"
     inkscape:pageopacity="0.0"
     inkscape:pagecheckerboard="0"
     inkscape:deskcolor="#d1d1d1"
     showgrid="false"
     inkscape:zoom="6.2105263"
     inkscape:cx="19.080508"
     inkscape:cy="19.241525"
     inkscape:window-width="1194"
     inkscape:window-height="847"
     inkscape:window-x="246"
     inkscape:window-y="25"
     inkscape:window-maximized="0"
     inkscape:current-layer="svg1497" />
  <path
     style="color:#000000;fill:#482084;stroke-linejoin:round;-inkscape-stroke:none"
     d="M 10.6875,2.5625 C 8.1795497,2.5625 6.125,4.6170497 6.125,7.125 v 23.75 c 0,2.507943 2.0545463,4.5625 4.5625,4.5625 h 16.625 c 2.507946,0 4.5625,-2.054554 4.5625,-4.5625 V 7.125 c 0,-2.5079537 -2.054557,-4.5625 -4.5625,-4.5625 z m 0,2 h 16.625 c 1.427053,0 2.5625,1.1354376 2.5625,2.5625 v 23.75 c 0,1.42705 -1.13545,2.5625 -2.5625,2.5625 H 10.6875 C 9.2604376,33.4375 8.125,32.302053 8.125,30.875 V 7.125 c 0,-1.4270657 1.1354343,-2.5625 2.5625,-2.5625 z"
     id="path1483" />
  <path
     style="color:#000000;fill:#482084;stroke-linecap:round;stroke-linejoin:round;-inkscape-stroke:none"
     d="m 20.1875,8.5 a 1,1 0 0 0 -1,1 1,1 0 0 0 1,1 h 4.75 a 1,1 0 0 0 1,-1 1,1 0 0 0 -1,-1 z"
     id="path1485" />
  <path
     style="color:#000000;fill:#482084;stroke-linecap:round;stroke-linejoin:round;-inkscape-stroke:none"
     d="m 20.1875,14.4375 a 1,1 0 0 0 -1,1 1,1 0 0 0 1,1 h 4.75 a 1,1 0 0 0 1,-1 1,1 0 0 0 -1,-1 z"
     id="path1487" />
  <path
     style="color:#000000;fill:#482084;stroke-linecap:round;stroke-linejoin:round;-inkscape-stroke:none"
     d="m 20.1875,20.375 a 1,1 0 0 0 -1,1 1,1 0 0 0 1,1 h 4.75 a 1,1 0 0 0 1,-1 1,1 0 0 0 -1,-1 z"
     id="path1489" />
  <path
     style="color:#000000;fill:#482084;stroke-linecap:round;stroke-linejoin:round;-inkscape-stroke:none"
     d="m 17.283203,6.8496094 a 1,1 0 0 0 -1.410156,0.09375 L 13.25,9.9375 12.582031,9.2695313 a 1,1 0 0 0 -1.414062,0 1,1 0 0 0 0,1.4140627 l 1.425781,1.425781 a 1.0001,1.0001 0 0 0 1.458984,-0.04883 l 3.324219,-3.8007814 a 1,1 0 0 0 -0.09375,-1.4101562 z"
     id="path1491" />
  <path
     style="color:#000000;fill:#482084;stroke-linecap:round;stroke-linejoin:round;-inkscape-stroke:none"
     d="m 16.558594,12.537109 a 1,1 0 0 0 -0.685547,0.339844 L 13.25,15.871094 12.582031,15.203125 a 1,1 0 0 0 -1.414062,0 1,1 0 0 0 0,1.414062 l 1.425781,1.425782 a 1.0001,1.0001 0 0 0 1.458984,-0.04883 l 3.324219,-3.800782 a 1,1 0 0 0 -0.09375,-1.410156 1,1 0 0 0 -0.724609,-0.246094 z"
     id="path1493" />
  <path
     style="color:#000000;fill:#482084;stroke-linecap:round;stroke-linejoin:round;-inkscape-stroke:none"
     d="m 16.558594,18.478516 a 1,1 0 0 0 -0.685547,0.339843 L 13.25,21.8125 12.582031,21.144531 a 1,1 0 0 0 -1.414062,0 1,1 0 0 0 0,1.414063 l 1.425781,1.425781 a 1.0001,1.0001 0 0 0 1.458984,-0.04883 l 3.324219,-3.800781 a 1,1 0 0 0 -0.09375,-1.410157 1,1 0 0 0 -0.724609,-0.246093 z"
     id="path1495" />
</svg>
