<?xml version="1.0" encoding="iso-8859-1"?>
<!-- Generator: Adobe Illustrator 24.3.0, SVG Export Plug-In . SVG Version: 6.00 Build 0)  -->
<svg version="1.1" id="Layer_1" xmlns="http://www.w3.org/2000/svg" xmlns:xlink="http://www.w3.org/1999/xlink" x="0px" y="0px"
	 viewBox="0 0 512 512" style="enable-background:new 0 0 512 512;" xml:space="preserve">
<path d="M424,432H216c-30.878,0-56-25.121-56-56v-40c0-8.837,7.164-16,16-16s16,7.163,16,16v40c0,13.233,10.766,24,24,24h208
	c13.233,0,24-10.767,24-24V136c0-13.233-10.767-24-24-24H216c-13.234,0-24,10.767-24,24v40c0,8.836-7.164,16-16,16s-16-7.164-16-16
	v-40c0-30.878,25.122-56,56-56h208c30.879,0,56,25.122,56,56V376C480,406.879,454.879,432,424,432z"/>
<path d="M272,352c-4.095,0-8.189-1.562-11.313-4.687c-6.249-6.248-6.249-16.379,0-22.627L329.373,256l-68.687-68.687
	c-6.249-6.248-6.249-16.379,0-22.627c6.248-6.248,16.379-6.248,22.627,0l80,80c6.249,6.249,6.249,16.379,0,22.628l-80,80
	C280.189,350.438,276.095,352,272,352z"/>
<path d="M336,272H48c-8.836,0-16-7.164-16-16.001c0-8.836,7.164-16,16-16h288c8.837,0,16,7.164,16,16
	C352,264.836,344.837,272,336,272z"/>
</svg>
