<?xml version="1.0" encoding="iso-8859-1"?>
<!-- Generator: Adobe Illustrator 24.3.0, SVG Export Plug-In . SVG Version: 6.00 Build 0)  -->
<svg version="1.1" id="Layer_1" xmlns="http://www.w3.org/2000/svg" xmlns:xlink="http://www.w3.org/1999/xlink" x="0px" y="0px"
	 viewBox="0 0 512 512" style="enable-background:new 0 0 512 512;" xml:space="preserve">
<path d="M336,376V272H191c-8.837,0-16-7.163-16-16c0-8.837,7.163-16,16-16h145V136c-0.033-30.914-25.086-55.967-56-56H88
	c-30.914,0.033-55.967,25.086-56,56v240c0.033,30.914,25.086,55.967,56,56h192C310.914,431.967,335.967,406.914,336,376z"/>
<path d="M425.37,272l-52.68,52.69c-6.086,6.406-5.827,16.534,0.579,22.62c6.176,5.867,15.865,5.867,22.04,0l80-80
	c6.243-6.248,6.243-16.372,0-22.62l-80-80c-6.406-6.086-16.534-5.827-22.62,0.579c-5.867,6.176-5.867,15.865,0,22.04L425.37,240H336
	v32H425.37z"/>
</svg>
