<?xml version="1.0" encoding="iso-8859-1"?>
<!-- Generator: Adobe Illustrator 24.3.0, SVG Export Plug-In . SVG Version: 6.00 Build 0)  -->
<svg version="1.1" id="Layer_1" xmlns="http://www.w3.org/2000/svg" xmlns:xlink="http://www.w3.org/1999/xlink" x="0px" y="0px"
	 viewBox="0 0 512 512" style="enable-background:new 0 0 512 512;" xml:space="preserve">
<path d="M280,432H88c-30.878,0-56-25.121-56-56V136c0-30.878,25.122-56,56-56h192c30.879,0,56,25.122,56,56v40
	c0,8.836-7.163,16-16,16s-16-7.164-16-16v-40c0-13.233-10.767-24-24-24H88c-13.234,0-24,10.767-24,24V376c0,13.233,10.766,24,24,24
	h192c13.233,0,24-10.767,24-24v-40c0-8.837,7.163-16,16-16s16,7.163,16,16v40C336,406.879,310.879,432,280,432z"/>
<path d="M384,352c-4.095,0-8.189-1.562-11.313-4.687c-6.249-6.248-6.249-16.379,0-22.627L441.373,256l-68.687-68.687
	c-6.249-6.248-6.249-16.379,0-22.627c6.248-6.248,16.379-6.248,22.627,0l80,80c6.249,6.249,6.249,16.379,0,22.628l-80,80
	C392.189,350.438,388.095,352,384,352z"/>
<path d="M464,272H191c-8.836,0-16-7.164-16-16.001c0-8.836,7.164-16,16-16h273c8.837,0,16,7.164,16,16
	C480,264.836,472.837,272,464,272z"/>
</svg>
