<?xml version="1.0" encoding="iso-8859-1"?>
<!-- Generator: Adobe Illustrator 24.3.0, SVG Export Plug-In . SVG Version: 6.00 Build 0)  -->
<svg version="1.1" id="Layer_1" xmlns="http://www.w3.org/2000/svg" xmlns:xlink="http://www.w3.org/1999/xlink" x="0px" y="0px"
	 viewBox="0 0 512 512" style="enable-background:new 0 0 512 512;" xml:space="preserve">
<polygon points="448,448 304,448 304,416 416,416 416,304 448,304 "/>
<rect x="346.9" y="263.599" transform="matrix(0.707 -0.7072 0.7072 0.707 -150.3077 362.9632)" width="32" height="198.572"/>
<polygon points="96,208 64,208 64,64 208,64 208,96 96,96 "/>
<rect x="133.1" y="49.828" transform="matrix(0.707 -0.7072 0.7072 0.707 -61.7698 149.1312)" width="32" height="198.573"/>
<polygon points="448,208 416,208 416,96 304,96 304,64 448,64 "/>
<rect x="263.599" y="133.1" transform="matrix(0.707 -0.7072 0.7072 0.707 0.8748 300.3116)" width="198.572" height="32"/>
<polygon points="208,448 64,448 64,304 96,304 96,416 208,416 "/>
<rect x="49.828" y="346.9" transform="matrix(0.707 -0.7072 0.7072 0.707 -212.9555 211.782)" width="198.573" height="32"/>
</svg>
