<?xml version="1.0" encoding="iso-8859-1"?>
<!-- Generator: Adobe Illustrator 24.3.0, SVG Export Plug-In . SVG Version: 6.00 Build 0)  -->
<svg version="1.1" id="Layer_1" xmlns="http://www.w3.org/2000/svg" xmlns:xlink="http://www.w3.org/1999/xlink" x="0px" y="0px"
	 viewBox="0 0 512 512" style="enable-background:new 0 0 512 512;" xml:space="preserve">
<path d="M432,448H320c-8.837,0-16-7.163-16-16s7.163-16,16-16h96v-96c0-8.837,7.163-16,16-16s16,7.163,16,16v112
	C448,440.837,440.837,448,432,448z"/>
<path d="M421.8,437.77c-4.095,0-8.188-1.562-11.312-4.685l-117.8-117.77c-6.249-6.248-6.25-16.379-0.003-22.628
	c6.248-6.249,16.38-6.249,22.628-0.003l117.8,117.77c6.249,6.248,6.25,16.379,0.003,22.628
	C429.991,436.207,425.896,437.77,421.8,437.77z"/>
<path d="M80,208c-8.836,0-16-7.164-16-16V80c0-8.836,7.164-16,16-16h112c8.836,0,16,7.164,16,16s-7.164,16-16,16H96v96
	C96,200.836,88.836,208,80,208z"/>
<path d="M208,224c-4.094,0-8.188-1.562-11.312-4.685l-117.8-117.77c-6.249-6.248-6.25-16.378-0.002-22.627
	c6.248-6.248,16.378-6.25,22.627-0.002l117.8,117.77c6.249,6.248,6.25,16.378,0.002,22.627C216.191,222.437,212.095,224,208,224z"/>
<path d="M432,208c-8.837,0-16-7.164-16-16V96h-96c-8.837,0-16-7.164-16-16s7.163-16,16-16h112c8.837,0,16,7.164,16,16v112
	C448,200.836,440.837,208,432,208z"/>
<path d="M304,224c-4.095,0-8.188-1.562-11.312-4.685c-6.249-6.248-6.25-16.378-0.003-22.627l117.77-117.8
	c6.247-6.249,16.379-6.25,22.628-0.003s6.25,16.378,0.003,22.627l-117.77,117.8C312.191,222.437,308.096,224,304,224z"/>
<path d="M192,448H80c-8.836,0-16-7.163-16-16V320c0-8.837,7.164-16,16-16s16,7.163,16,16v96h96c8.836,0,16,7.163,16,16
	S200.836,448,192,448z"/>
<path d="M90.23,437.8c-4.094,0-8.188-1.562-11.312-4.685c-6.249-6.248-6.25-16.379-0.002-22.628l117.77-117.8
	c6.248-6.249,16.378-6.249,22.627-0.003c6.249,6.248,6.25,16.379,0.002,22.628l-117.77,117.8
	C98.421,436.238,94.325,437.8,90.23,437.8z"/>
</svg>
