<?xml version="1.0" encoding="iso-8859-1"?>
<!-- Generator: Adobe Illustrator 24.3.0, SVG Export Plug-In . SVG Version: 6.00 Build 0)  -->
<svg version="1.1" id="Layer_1" xmlns="http://www.w3.org/2000/svg" xmlns:xlink="http://www.w3.org/1999/xlink" x="0px" y="0px"
	 viewBox="0 0 512 512" style="enable-background:new 0 0 512 512;" xml:space="preserve">
<path d="M345.14,480H274c-9.925,0-18-8.075-18-18v-27.71c0-10.964-5.279-18.424-9.708-22.75c-7.785-7.606-19.038-11.82-30.92-11.534
	c-21.34,0.5-39.372,19.306-39.372,41.063V462c0,9.925-8.075,18-18,18H87.62c-30.599-0.093-55.528-25.022-55.62-55.572V354
	c0-9.925,8.075-18,18-18h27.71c9.159,0,18.068-3.921,25.088-11.04c7.91-8.021,12.358-18.914,12.204-29.886
	C114.706,273.893,97.262,256,76.91,256H50c-9.925,0-18-8.075-18-18v-70.38c0.092-30.599,25.021-55.528,55.572-55.62h63.288V97.52
	c0-0.377,0.004-0.754,0.01-1.131c0.308-17.509,7.412-33.842,20.004-46c12.592-12.158,29.134-18.693,46.667-18.376
	C253.027,32.627,281.9,62.381,281.9,98.34V112h63.239c30.25,0,54.86,24.61,54.86,54.86v63.24h13.66
	c36.58,0,66.34,28.997,66.34,64.64c0,36.613-29.392,66.4-65.52,66.4H400v64C400,455.39,375.39,480,345.14,480z M64,368v56.38
	c0.039,12.963,10.657,23.581,23.669,23.62H144v-6.931c0-18.837,7.319-36.841,20.61-50.694c13.409-13.978,31.171-21.919,50.014-22.36
	c20.429-0.49,40.121,7.047,54.03,20.636C281.13,400.839,288,417.047,288,434.29V448h57.14c12.605,0,22.86-10.255,22.86-22.86v-78
	c0-9.925,8.075-18,18-18h28.48c18.482,0,33.52-15.432,33.52-34.4c0-17.997-15.405-32.64-34.34-32.64H386c-9.925,0-18-8.075-18-18
	v-77.24c0-12.605-10.255-22.86-22.86-22.86H267.9c-9.925,0-18-8.075-18-18V98.34c0-18.617-14.767-34.019-32.917-34.333
	c-8.969-0.162-17.439,3.182-23.882,9.403c-6.443,6.221-10.079,14.578-10.236,23.533l-0.005,0.577V126c0,9.925-8.075,18-18,18H87.62
	c-12.963,0.039-23.581,10.657-23.62,23.668V224h12.91c18.462,0,35.99,7.542,49.355,21.236
	c13.113,13.436,20.476,30.977,20.733,49.391c0.274,19.477-7.532,38.723-21.415,52.802C112.503,360.695,95.501,368,77.71,368H64z"/>
</svg>
