<?xml version="1.0" encoding="iso-8859-1"?>
<!-- Generator: Adobe Illustrator 24.3.0, SVG Export Plug-In . SVG Version: 6.00 Build 0)  -->
<svg version="1.1" id="Layer_1" xmlns="http://www.w3.org/2000/svg" xmlns:xlink="http://www.w3.org/1999/xlink" x="0px" y="0px"
	 viewBox="0 0 512 512" style="enable-background:new 0 0 512 512;" xml:space="preserve">
<path d="M345.14,480H256v-45.71c0.028-8.542-3.436-16.725-9.59-22.65c-7.67-7.56-18.83-11.81-30.57-11.64
	c-10.443,0.098-20.518,3.877-28.45,10.67c-5.2,4.6-11.39,12.56-11.39,24.42V480H87.62c-30.704-0.033-55.587-24.916-55.62-55.62V336
	h45.71c9.16,0,18.07-3.92,25.09-11c7.888-7.951,12.279-18.72,12.2-29.92C114.7,273.89,97.26,256,76.91,256H32v-89.34
	c-0.058-14.714,5.916-28.809,16.53-39c10.489-10.118,24.516-15.737,39.09-15.66h63.24V97.52c0-36.191,29.339-65.53,65.53-65.53
	c0.383,0,0.767,0.003,1.15,0.01c35.49,0.62,64.36,30.38,64.36,66.33V112h63.24c29.976-0.322,54.538,23.717,54.86,53.694
	c0.004,0.389,0.004,0.778,0,1.166v63.24h13.66c36.58,0,66.34,29,66.34,64.64c0,36.61-29.39,66.4-65.52,66.4H400v63.24
	C400,455.05,375.39,480,345.14,480z"/>
</svg>
