<?xml version="1.0" encoding="iso-8859-1"?>
<!-- Generator: Adobe Illustrator 24.3.0, SVG Export Plug-In . SVG Version: 6.00 Build 0)  -->
<svg version="1.1" id="Layer_1" xmlns="http://www.w3.org/2000/svg" xmlns:xlink="http://www.w3.org/1999/xlink" x="0px" y="0px"
	 viewBox="0 0 512 512" style="enable-background:new 0 0 512 512;" xml:space="preserve">
<path d="M345.14,480H274c-9.941,0-18-8.059-18-18v-27.71c0.027-8.601-3.484-16.835-9.71-22.77c-7.78-7.59-19.08-11.8-30.89-11.51
	c-21.36,0.5-39.4,19.3-39.4,41.06V462c0,9.941-8.059,18-18,18H87.62C56.902,480,32,455.098,32,424.38l0,0V354
	c0-9.941,8.059-18,18-18h27.71c9.16,0,18.07-3.92,25.09-11c7.888-7.951,12.279-18.72,12.2-29.92C114.7,273.89,97.26,256,76.91,256
	H50c-9.941,0-18-8.059-18-18v-70.38C32,136.902,56.902,112,87.62,112h0h55.24c4.418,0,8-3.582,8-8v-6.48
	c0-36.191,29.339-65.53,65.53-65.53c0.383,0,0.767,0.003,1.15,0.01c35.49,0.62,64.36,30.38,64.36,66.33V104c0,4.418,3.582,8,8,8
	h55.24c30.298,0,54.86,24.562,54.86,54.86v0v55.24c0,4.418,3.582,8,8,8h5.66c36.58,0,66.34,29,66.34,64.64
	c0,36.61-29.39,66.4-65.52,66.4H408c-4.418,0-8,3.582-8,8v56C400,455.438,375.438,480,345.14,480L345.14,480z"/>
</svg>
