<?xml version="1.0" encoding="iso-8859-1"?>
<!-- Generator: Adobe Illustrator 24.3.0, SVG Export Plug-In . SVG Version: 6.00 Build 0)  -->
<svg version="1.1" id="Layer_1" xmlns="http://www.w3.org/2000/svg" xmlns:xlink="http://www.w3.org/1999/xlink" x="0px" y="0px"
	 viewBox="0 0 512 512" style="enable-background:new 0 0 512 512;" xml:space="preserve">
<path d="M432,448c-4.244,0.007-8.316-1.681-11.31-4.69l-352-352c-6.086-6.406-5.827-16.534,0.579-22.62
	c6.176-5.867,15.865-5.867,22.04,0l352,352c6.246,6.25,6.243,16.381-0.007,22.627C440.304,446.314,436.239,447.998,432,448z"/>
<path d="M255.66,384c-41.49,0-81.5-12.28-118.92-36.5c-34.07-22-64.74-53.51-88.7-91v-0.08c19.94-28.57,41.78-52.73,65.24-72.21
	c0.847-0.708,0.96-1.97,0.252-2.817c-0.035-0.042-0.073-0.083-0.112-0.123L93.5,161.38c-0.734-0.74-1.913-0.792-2.71-0.12
	c-24.92,21-48.05,46.76-69.08,76.92c-7.4,10.621-7.653,24.659-0.64,35.54c26.41,41.33,60.4,76.14,98.28,100.65
	C162,402,207.9,416,255.66,416c25.78-0.08,51.377-4.328,75.8-12.58c1.046-0.355,1.606-1.49,1.252-2.536
	c-0.099-0.291-0.264-0.556-0.482-0.774l-21.58-21.58c-1.011-0.986-2.466-1.366-3.83-1C290.107,381.834,272.918,384.008,255.66,384z"
	/>
<path d="M490.84,238.6c-26.46-40.92-60.79-75.68-99.27-100.53C349,110.55,302,96,255.66,96c-25.506,0.045-50.823,4.382-74.89,12.83
	c-1.043,0.363-1.595,1.503-1.232,2.546c0.1,0.288,0.265,0.549,0.482,0.764l21.55,21.55c1.021,1.004,2.501,1.385,3.88,1
	c16.37-4.428,33.252-6.678,50.21-6.69c40.69,0,80.58,12.43,118.55,37c34.71,22.4,65.74,53.88,89.76,91
	c0.037,0.047,0.037,0.113,0,0.16c-17.436,27.449-39.073,51.991-64.12,72.73c-0.852,0.702-0.974,1.963-0.272,2.815
	c0.038,0.047,0.079,0.092,0.122,0.135l19.9,19.89c0.73,0.737,1.902,0.793,2.7,0.13c26.74-22.515,49.887-48.98,68.64-78.48
	C497.709,262.764,497.67,249.177,490.84,238.6z"/>
<path d="M256,160c-7.191-0.004-14.359,0.801-21.37,2.4c-1.081,0.225-1.776,1.283-1.552,2.365c0.08,0.385,0.272,0.738,0.552,1.015
	l112.59,112.56c0.777,0.785,2.043,0.792,2.828,0.015c0.28-0.277,0.472-0.63,0.552-1.015
	c11.786-51.693-20.565-103.152-72.258-114.938C270.34,160.806,263.181,160,256,160z"/>
<path d="M165.78,233.66c-0.777-0.785-2.043-0.792-2.828-0.015c-0.28,0.277-0.472,0.63-0.552,1.015
	c-11.83,51.683,20.477,103.17,72.16,115c14.098,3.227,28.743,3.227,42.84,0c1.082-0.225,1.776-1.283,1.552-2.365
	c-0.08-0.385-0.272-0.738-0.552-1.015L165.78,233.66z"/>
</svg>
