<?xml version="1.0" encoding="iso-8859-1"?>
<!-- Generator: Adobe Illustrator 24.3.0, SVG Export Plug-In . SVG Version: 6.00 Build 0)  -->
<svg version="1.1" id="Layer_1" xmlns="http://www.w3.org/2000/svg" xmlns:xlink="http://www.w3.org/1999/xlink" x="0px" y="0px"
	 viewBox="0 0 512 512" style="enable-background:new 0 0 512 512;" xml:space="preserve">
<rect x="240.444" y="0.032" transform="matrix(0.7071 -0.7071 0.7071 0.7071 -106.0441 256.0012)" width="31.11" height="511.95"/>
<path d="M259.34,192.09l60.57,60.57C318.167,219.957,292.043,193.833,259.34,192.09z"/>
<path d="M252.66,319.91l-60.57-60.57C193.833,292.043,219.957,318.167,252.66,319.91z"/>
<path d="M256,352c-53.019,0.003-96.002-42.976-96.005-95.995c0-8.562,1.145-17.086,3.405-25.345l-69.07-69.08
	C66.12,187.42,39.24,221.14,16,256c26.42,44,62.56,89.24,100.2,115.18C159.38,400.92,206.33,416,255.76,416
	c27.013,0.019,53.824-4.651,79.24-13.8l-53.61-53.6C273.117,350.864,264.577,352.008,256,352z"/>
<path d="M256,160c53.019-0.003,96.002,42.976,96.005,95.995c0,8.562-1.145,17.086-3.405,25.345L419.26,352
	c29.15-26.25,56.07-61.56,76.74-96c-26.38-43.43-62.9-88.56-101.18-114.82C351.1,111.2,304.31,96,255.76,96
	c-26.716,0.038-53.207,4.879-78.21,14.29l53.11,53.11C238.917,161.14,247.439,159.997,256,160z"/>
</svg>
