<?xml version="1.0" encoding="iso-8859-1"?>
<!-- Generator: Adobe Illustrator 24.3.0, SVG Export Plug-In . SVG Version: 6.00 Build 0)  -->
<svg version="1.1" id="Layer_1" xmlns="http://www.w3.org/2000/svg" xmlns:xlink="http://www.w3.org/1999/xlink" x="0px" y="0px"
	 viewBox="0 0 512 512" style="enable-background:new 0 0 512 512;" xml:space="preserve">
<circle cx="256" cy="256" r="64"/>
<path d="M394.82,141.18C351.1,111.2,304.31,96,255.76,96c-43.69,0-86.28,13-126.59,38.48C88.52,160.23,48.67,207,16,256
	c26.42,44,62.56,89.24,100.2,115.18C159.38,400.92,206.33,416,255.76,416c49,0,95.85-15.07,139.3-44.79
	C433.31,345,469.71,299.82,496,256C469.62,212.57,433.1,167.44,394.82,141.18z M256,352c-53.019,0-96-42.981-96-96s42.981-96,96-96
	s96,42.981,96,96C351.939,308.994,308.994,351.939,256,352z"/>
</svg>
