<?xml version="1.0" encoding="iso-8859-1"?>
<!-- Generator: Adobe Illustrator 24.3.0, SVG Export Plug-In . SVG Version: 6.00 Build 0)  -->
<svg version="1.1" id="Layer_1" xmlns="http://www.w3.org/2000/svg" xmlns:xlink="http://www.w3.org/1999/xlink" x="0px" y="0px"
	 viewBox="0 0 512 512" style="enable-background:new 0 0 512 512;" xml:space="preserve">
<path d="M432,448c-4.244,0.007-8.316-1.681-11.31-4.69l-352-352c-6.086-6.406-5.827-16.534,0.579-22.62
	c6.176-5.867,15.865-5.867,22.04,0l352,352c6.246,6.25,6.243,16.381-0.007,22.627C440.304,446.314,436.239,447.998,432,448z"/>
<path d="M248,315.85l-51.79-51.79c-0.784-0.778-2.051-0.772-2.828,0.012c-0.438,0.442-0.646,1.062-0.562,1.678
	c4.29,27.57,25.92,49.2,53.49,53.49c1.094,0.149,2.103-0.617,2.252-1.712C248.646,316.912,248.438,316.292,248,315.85z"/>
<path d="M264,196.15L315.87,248c0.778,0.784,2.044,0.789,2.828,0.011c0.449-0.445,0.661-1.076,0.572-1.701
	c-4.28-27.609-25.941-49.27-53.55-53.55c-1.092-0.168-2.113,0.58-2.282,1.672C263.341,195.061,263.55,195.699,264,196.15z"/>
<path d="M491,273.36c6.761-10.611,6.721-24.188-0.1-34.76c-26.46-40.92-60.79-75.68-99.27-100.53C349,110.55,302,96,255.68,96
	c-24.419,0.034-48.672,4.015-71.82,11.79c-2.096,0.697-3.23,2.962-2.533,5.058c0.197,0.593,0.53,1.131,0.973,1.572l47.24,47.24
	c0.998,1,2.451,1.399,3.82,1.05c51.512-12.553,103.447,19.029,116,70.541c3.639,14.935,3.639,30.525,0,45.459
	c-0.346,1.366,0.053,2.814,1.05,3.81l67.95,68c1.465,1.468,3.81,1.572,5.4,0.24C449.916,328.466,472.581,302.376,491,273.36z"/>
<path d="M256,352c-53.019,0.003-96.002-42.975-96.005-95.995c0-7.626,0.908-15.225,2.705-22.635c0.346-1.366-0.053-2.814-1.05-3.81
	l-66.84-66.87c-1.469-1.471-3.821-1.571-5.41-0.23c-24.39,20.81-47,46.13-67.67,75.72c-7.4,10.621-7.653,24.659-0.64,35.54
	c26.41,41.33,60.39,76.14,98.28,100.65C162.06,402,207.92,416,255.68,416c24.665-0.066,49.171-3.963,72.64-11.55
	c2.104-0.672,3.265-2.923,2.593-5.027c-0.194-0.608-0.531-1.161-0.983-1.613l-47.47-47.46c-0.996-0.997-2.444-1.396-3.81-1.05
	C271.234,351.097,263.63,352.003,256,352z"/>
</svg>
