<?xml version="1.0" encoding="iso-8859-1"?>
<!-- Generator: Adobe Illustrator 24.3.0, SVG Export Plug-In . SVG Version: 6.00 Build 0)  -->
<svg version="1.1" id="Layer_1" xmlns="http://www.w3.org/2000/svg" xmlns:xlink="http://www.w3.org/1999/xlink" x="0px" y="0px"
	 viewBox="0 0 512 512" style="enable-background:new 0 0 512 512;" xml:space="preserve">
<path d="M255.66,416c-47.754,0-93.613-14.006-136.305-41.63c-37.888-24.515-71.873-59.321-98.279-100.657
	c-7-10.836-6.789-24.786,0.584-35.47c32.101-46.015,69.003-81.7,109.728-106.131C171.333,108.15,213.143,96,255.66,96
	c46.287,0,93.286,14.549,135.916,42.074c38.477,24.843,72.815,59.599,99.305,100.511c6.824,10.603,6.824,24.258,0.024,34.824
	c-26.313,41.204-60.572,76.102-99.042,100.87C349.471,401.574,302.373,416,255.66,416z M255.66,128
	c-36.636,0-72.909,10.616-107.809,31.553c-36.832,22.095-70.442,54.708-99.898,96.931c24.048,37.502,54.718,68.976,88.787,91.02
	C174.166,371.721,214.177,384,255.66,384c41.136,0,81.132-12.323,118.88-36.627c34.622-22.292,65.545-53.84,89.425-91.234
	c0.061-0.094,0.061-0.154,0.031-0.2c-24.023-37.103-55.076-68.577-89.777-90.983C336.238,140.434,296.35,128,255.66,128z"/>
<path d="M256,352c-52.935,0-96-43.065-96-96.001c0-52.935,43.065-96,96-96s96,43.065,96,96C352,308.935,308.935,352,256,352z
	 M256,192c-35.29,0-64,28.71-64,64S220.71,320,256,320c35.29,0,64-28.711,64-64.001S291.29,192,256,192z"/>
</svg>
