<?xml version="1.0" encoding="iso-8859-1"?>
<!-- Generator: Adobe Illustrator 24.3.0, SVG Export Plug-In . SVG Version: 6.00 Build 0)  -->
<svg version="1.1" id="Layer_1" xmlns="http://www.w3.org/2000/svg" xmlns:xlink="http://www.w3.org/1999/xlink" x="0px" y="0px"
	 viewBox="0 0 512 512" style="enable-background:new 0 0 512 512;" xml:space="preserve">
<circle cx="256" cy="256" r="64"/>
<path d="M490.84,238.6c-26.46-40.92-60.79-75.68-99.27-100.53C349,110.55,302,96,255.66,96c-42.52,0-84.33,12.15-124.27,36.11
	c-40.73,24.43-77.63,60.12-109.68,106.07c-7.4,10.621-7.653,24.66-0.64,35.54c26.41,41.33,60.4,76.14,98.28,100.65
	C162,402,207.9,416,255.66,416c46.71,0,93.81-14.43,136.2-41.72c38.46-24.77,72.72-59.66,99.08-100.92
	C497.701,262.749,497.661,249.172,490.84,238.6z M256,352c-53.019,0-96-42.981-96-96s42.981-96,96-96s96,42.981,96,96
	C351.939,308.994,308.994,351.939,256,352z"/>
</svg>
