<?xml version="1.0" encoding="iso-8859-1"?>
<!-- Generator: Adobe Illustrator 24.3.0, SVG Export Plug-In . SVG Version: 6.00 Build 0)  -->
<svg version="1.1" id="Layer_1" xmlns="http://www.w3.org/2000/svg" xmlns:xlink="http://www.w3.org/1999/xlink" x="0px" y="0px"
	 viewBox="0 0 512 512" style="enable-background:new 0 0 512 512;" xml:space="preserve">
<path d="M461.05,51c-12.134-12.114-28.564-18.943-45.71-19h-0.76c-16.787,0.126-32.801,7.075-44.36,19.25
	c-0.383,0.393-0.741,0.811-1.07,1.25l-54,69.76c-5.62,7.1-12.74,8.68-16.78,4.64l-1.9-1.9c-18.756-18.756-49.164-18.756-67.92,0
	s-18.756,49.164,0,67.92l9.91,9.91c0.781,0.781,0.782,2.047,0.002,2.828c-0.001,0.001-0.001,0.001-0.002,0.002L58.7,385.38
	C54,390.05,46.9,399.85,38.85,431c-4.06,15.71-6.51,29.66-6.61,30.24c-1.524,8.704,4.296,16.996,13,18.52
	c0.911,0.16,1.835,0.24,2.76,0.24c0.885,0.001,1.768-0.072,2.64-0.22c0.58-0.1,14.44-2.43,30.13-6.44
	c31.07-7.94,41.05-15.24,45.85-20l179.77-179.79c0.78-0.775,2.04-0.775,2.82,0l9.92,9.92c18.758,18.756,49.169,18.753,67.925-0.005
	c18.756-18.758,18.753-49.169-0.005-67.925l0,0l-1.59-1.54c-5-5-2.52-12.11,4.32-17.14l69.75-53.94
	c0.514-0.412,1.005-0.853,1.47-1.32c12.108-11.847,18.954-28.06,19-45C480.051,79.474,473.224,63.045,461.05,51z M250.78,283.9
	c-2.92,2.92-16.18,7.92-23.39,0.71s-2.24-20.42,0.69-23.35l33-33c0.781-0.781,2.047-0.782,2.828-0.002
	c0.001,0.001,0.001,0.001,0.002,0.002l19.84,19.83c0.781,0.781,0.782,2.047,0.002,2.828c-0.001,0.001-0.001,0.001-0.002,0.002
	L250.78,283.9z"/>
</svg>
