<?xml version="1.0" encoding="iso-8859-1"?>
<!-- Generator: Adobe Illustrator 24.3.0, SVG Export Plug-In . SVG Version: 6.00 Build 0)  -->
<svg version="1.1" id="Layer_1" xmlns="http://www.w3.org/2000/svg" xmlns:xlink="http://www.w3.org/1999/xlink" x="0px" y="0px"
	 viewBox="0 0 512 512" style="enable-background:new 0 0 512 512;" xml:space="preserve">
<path d="M480,96.22c0.058-17.13-6.77-33.565-18.95-45.61c-12.134-12.114-28.564-18.943-45.71-19h-0.76
	c-16.716,0.119-32.67,7.006-44.22,19.09l-74.88,74.88L261.6,91.72l-34.07,33.91l-33.85,34l44,44L32,409.37V480h70.63l205.7-205.71
	L352,317.94l11.31-11.19c0.11-0.1,10.42-10.31,22.79-22.68l33.85-34l-33.89-33.89L461,141.23
	C473.113,129.382,479.958,113.164,480,96.22z M245,292.35L219.65,267l40.68-40.69l25.38,25.38L245,292.35z"/>
</svg>
