<?xml version="1.0" encoding="iso-8859-1"?>
<!-- Generator: Adobe Illustrator 24.3.0, SVG Export Plug-In . SVG Version: 6.00 Build 0)  -->
<svg version="1.1" id="Layer_1" xmlns="http://www.w3.org/2000/svg" xmlns:xlink="http://www.w3.org/1999/xlink" x="0px" y="0px"
	 viewBox="0 0 512 512" style="enable-background:new 0 0 512 512;" xml:space="preserve">
<path d="M48,480c-4.227,0-8.324-1.676-11.353-4.726c-3.657-3.683-5.3-8.909-4.409-14.021c0.102-0.586,2.547-14.526,6.606-30.238
	c8.049-31.155,15.174-40.963,19.833-45.63l192.52-192.48c6.249-6.247,16.381-6.247,22.627,0.002
	c6.248,6.249,6.247,16.38-0.002,22.627L81.312,408.004c-3.326,3.535-8.345,18.037-12.629,35.413
	c17.344-4.228,31.805-9.278,35.323-12.741l192.48-192.48c6.248-6.249,16.379-6.249,22.627,0c6.249,6.249,6.249,16.379,0,22.627
	l-192.489,192.49c-4.81,4.802-14.784,12.091-45.857,20.029c-15.687,4.008-29.546,6.341-30.129,6.438
	C49.759,479.928,48.876,480,48,480z"/>
<path d="M353.074,297.507c-12.301,0-24.599-4.682-33.964-14.045l-90.574-90.575c-9.071-9.071-14.067-21.131-14.069-33.959
	c-0.001-12.829,4.994-24.89,14.065-33.961c9.07-9.07,21.13-14.066,33.957-14.066c0.002,0,0.002,0,0.004,0
	c12.828,0.001,24.889,4.998,33.96,14.069l90.573,90.573c9.071,9.071,14.068,21.131,14.069,33.96
	c0.001,12.829-4.994,24.89-14.065,33.96C377.67,292.826,365.371,297.507,353.074,297.507z M262.49,142.909
	c-4.104,0-8.206,1.562-11.33,4.685c-3.026,3.026-4.693,7.051-4.693,11.331c0,4.282,1.668,8.307,4.696,11.335l90.573,90.574
	c6.252,6.25,16.419,6.249,22.667,0.003c3.026-3.026,4.692-7.05,4.692-11.331c-0.001-4.282-1.668-8.307-4.696-11.335l-90.573-90.574
	C270.701,144.473,266.596,142.909,262.49,142.909z"/>
<path d="M355.883,227.409c-4.049-11.539-6.107-35.861,11.863-53.832c0.479-0.479,0.988-0.928,1.524-1.342l69.837-54.018
	c5.718-5.955,8.868-13.633,8.891-21.717c0.025-8.567-3.374-16.698-9.571-22.896c-6.203-6.206-14.753-9.68-23.453-9.6
	c-8.036,0.096-15.492,3.214-21.077,8.799l-54.114,69.911c-0.413,0.535-0.86,1.042-1.338,1.52
	c-19.125,19.124-43.375,16.249-54.688,11.536l12.307-29.539l-0.244-0.099c1.829,0.687,11.182,3.645,19.362-3.916l53.966-69.72
	c0.335-0.433,0.692-0.849,1.07-1.246c11.637-12.209,27.396-19.043,44.376-19.245c17.278-0.201,34.206,6.71,46.463,18.973
	c12.263,12.263,18.991,28.463,18.941,45.612c-0.048,16.953-6.799,32.937-19.009,45.007c-0.46,0.455-0.948,0.882-1.46,1.278
	l-69.746,53.947c-7.387,8.144-3.801,19.679-3.641,20.178l-0.064-0.189L355.883,227.409z"/>
<path d="M90.796,465.414c-10.644,0-21.833-3.309-31.357-12.828c-21.575-21.562-11.286-51.719-2.832-64.651l26.784,17.51l0.062-0.097
	c-0.101,0.159-9.975,16.029-1.394,24.605c8.578,8.572,24.422-1.301,24.581-1.401l-0.097,0.062l17.53,26.771
	C116.857,460.113,104.265,465.414,90.796,465.414z"/>
</svg>
