<?xml version="1.0" encoding="iso-8859-1"?>
<!-- Generator: Adobe Illustrator 24.3.0, SVG Export Plug-In . SVG Version: 6.00 Build 0)  -->
<svg version="1.1" id="Layer_1" xmlns="http://www.w3.org/2000/svg" xmlns:xlink="http://www.w3.org/1999/xlink" x="0px" y="0px"
	 viewBox="0 0 512 512" style="enable-background:new 0 0 512 512;" xml:space="preserve">
<path d="M384,352H184.36l-41,35l-41-35H16v24c0,30.59,21.13,55.51,47.26,56c2.43,15.12,8.31,28.78,17.16,39.47
	C93.51,487.28,112.54,496,134,496h132c21.46,0,40.49-8.72,53.58-24.55c8.85-10.69,14.73-24.35,17.16-39.47
	c13.88-0.25,26.35-7.4,35-18.63c8.079-10.765,12.387-23.891,12.26-37.35V352z"/>
<path d="M105,320L105,320l38.33,28.19L182,320h202v-8c-0.023-19.001-13.388-35.373-32-39.2c-0.82-29.69-13-54.54-35.51-72
	C295.67,184.56,267.85,176,236,176h-72c-68.22,0-114.43,38.77-116,96.8c-18.612,3.827-31.977,20.199-32,39.2v8H105z"/>
<path d="M463.08,96h-74.59l8.92-35.66L442,45l-10-29l-62,20l-14.49,60H208v32h18.75l1.86,16H236c39,0,73.66,10.9,100.12,31.52
	c14.717,11.34,26.648,25.894,34.88,42.55c5.073,10.333,8.684,21.322,10.73,32.65c30.827,18.98,42.767,57.897,27.89,90.9
	c4.213,10.973,6.376,22.626,6.38,34.38c0,22.34-7.6,43.63-21.4,59.95c-8.54,10.174-19.479,18.061-31.83,22.95
	c-4.209,11.995-10.48,23.162-18.53,33c-1.18,1.42-2.39,2.81-3.63,4.15H416c16,0,23-8,25-23l36.4-345H496V96H463.08z"/>
</svg>
