<?xml version="1.0" encoding="iso-8859-1"?>
<!-- Generator: Adobe Illustrator 24.3.0, SVG Export Plug-In . SVG Version: 6.00 Build 0)  -->
<svg version="1.1" id="Layer_1" xmlns="http://www.w3.org/2000/svg" xmlns:xlink="http://www.w3.org/1999/xlink" x="0px" y="0px"
	 viewBox="0 0 512 512" style="enable-background:new 0 0 512 512;" xml:space="preserve">
<line x1="368" y1="128" x2="368.09" y2="128"/>
<path d="M479.55,96h-91.06l8.92-35.66l38.32-13.05c8.15-2.77,13-11.43,10.65-19.71c-2.438-8.494-11.3-13.402-19.794-10.964
	c-0.251,0.072-0.5,0.15-0.746,0.234l-47,16c-5.143,1.754-9.044,5.998-10.36,11.27L355.51,96H224.45c-8.61,0-16,6.62-16.43,15.23
	c-0.425,8.826,6.385,16.326,15.211,16.751c0.256,0.012,0.512,0.019,0.769,0.019h2.75l1,8.66c0.487,4.186,4.035,7.343,8.25,7.34l0,0
	c39,0,73.66,10.9,100.12,31.52c14.717,11.34,26.648,25.894,34.88,42.55c4.608,9.369,8.009,19.285,10.12,29.51
	c0.42,1.993,1.6,3.743,3.29,4.88c28.029,19.018,39.012,55.001,26.38,86.43c-0.713,1.765-0.766,3.729-0.15,5.53
	c3.543,10.152,5.354,20.827,5.36,31.58c0,22.34-7.6,43.63-21.4,59.95c-7.824,9.314-17.666,16.725-28.78,21.67
	c-1.923,0.847-3.435,2.417-4.21,4.37c-4.153,10.819-10.018,20.901-17.37,29.86l0,0c-0.889,1.056-0.754,2.633,0.303,3.523
	c0.447,0.377,1.013,0.585,1.597,0.587h49.21c24.974-0.102,45.737-19.255,47.85-44.14L477.4,128h2.6
	c8.837,0.01,16.008-7.145,16.019-15.981c0-0.263-0.006-0.526-0.019-0.789C495.58,102.62,488.16,96,479.55,96z"/>
<path d="M108.69,320c6.374-0.03,12.495,2.49,17,7l15.51,15.51c1.561,1.563,4.094,1.564,5.657,0.003
	c0.001-0.001,0.002-0.002,0.003-0.003L162.34,327c4.505-4.51,10.626-7.03,17-7h196.58c4.418,0.044,8.036-3.501,8.08-7.919
	c0,0,0-0.001,0-0.001V312c-0.023-19.001-13.388-35.373-32-39.2c-0.82-29.69-13-54.54-35.51-72C295.67,184.56,267.85,176,236,176h-72
	c-68.22,0-114.43,38.77-116,96.8c-18.612,3.827-31.977,20.199-32,39.2l0,0c0,4.418,3.582,8,8,8H108.69z"/>
<path d="M185.94,352c-2.122-0.002-4.158,0.84-5.66,2.34l-22.14,22.15c-7.81,7.808-20.47,7.808-28.28,0l-22.14-22.15
	c-1.502-1.5-3.538-2.342-5.66-2.34h-69.4c-7.76-0.035-14.416,5.527-15.76,13.17c-0.601,3.579-0.902,7.201-0.9,10.83
	c0,30.59,21.13,55.51,47.26,56c2.43,15.12,8.31,28.78,17.16,39.47C93.51,487.28,112.54,496,134,496h132
	c21.46,0,40.49-8.72,53.58-24.55c8.85-10.69,14.73-24.35,17.16-39.47c26.13-0.47,47.26-25.39,47.26-56
	c0.002-3.629-0.299-7.251-0.9-10.83c-1.353-7.635-8.007-13.186-15.76-13.15H185.94z"/>
</svg>
