<?xml version="1.0" encoding="iso-8859-1"?>
<!-- Generator: Adobe Illustrator 24.3.0, SVG Export Plug-In . SVG Version: 6.00 Build 0)  -->
<svg version="1.1" id="Layer_1" xmlns="http://www.w3.org/2000/svg" xmlns:xlink="http://www.w3.org/1999/xlink" x="0px" y="0px"
	 viewBox="0 0 512 512" style="enable-background:new 0 0 512 512;" xml:space="preserve">
<path d="M266,496H134c-21.46,0-40.49-8.717-53.584-24.545C68.54,457.101,62,437.407,62,416c0-8.837,7.164-16,16-16s16,7.163,16,16
	c0,35.429,21.548,48,40,48h132c18.452,0,40-12.571,40-48c0-8.837,7.163-16,16-16s16,7.163,16,16c0,21.406-6.54,41.101-18.416,55.455
	C306.489,487.284,287.46,496,266,496z"/>
<path d="M336,432H64c-26.467,0-48-25.121-48-56s21.533-56,48-56c8.836,0,16,7.163,16,16s-7.164,16-16,16c-8.523,0-16,11.215-16,24
	s7.477,24,16,24h272c8.523,0,16-11.215,16-24s-7.477-24-16-24c-8.837,0-16-7.163-16-16s7.163-16,16-16c26.467,0,48,25.121,48,56
	S362.467,432,336,432z"/>
<path d="M144.001,382.334c-4.44,0-8.88-1.466-12.524-4.396l-0.497-0.332L105.373,352H56c-22.056,0-40-17.944-40-40s17.944-40,40-40
	h288c22.056,0,40,17.944,40,40s-17.944,40-40,40H182.627l-24.484,24.483C154.247,380.383,149.124,382.333,144.001,382.334z M56,304
	c-4.411,0-8,3.589-8,8s3.589,8,8,8h52.69c6.411,0.003,12.431,2.497,16.96,7.022L144,345.373l18.346-18.347
	c4.533-4.529,10.553-7.023,16.957-7.026H344c4.411,0,8-3.589,8-8s-3.589-8-8-8H56z"/>
<path d="M64,292c-8.836,0-16-7.163-16-16v-0.221C48,216.099,94.617,176,164,176h72c31.856,0,59.68,8.56,80.46,24.755
	c23.162,18.051,35.447,43.943,35.539,74.894C352,275.692,352,275.736,352,275.78V276h-32c0-21.179-7.809-38.003-23.21-50.005
	C281.899,214.391,260.311,208,236,208h-72c-24.343,0-45.941,6.358-60.814,17.904C87.801,237.847,80,254.628,80,275.78V276
	C80,284.837,72.836,292,64,292z"/>
<path d="M248.42,191.972c-8.01,0-14.925-6.003-15.873-14.153l-7.44-63.97c-1.021-8.778,5.267-16.721,14.045-17.742
	c8.767-1.017,16.72,5.267,17.741,14.045l7.44,63.97c1.021,8.778-5.268,16.721-14.045,17.742
	C249.661,191.936,249.037,191.972,248.42,191.972z"/>
<path d="M395.311,496H256c-8.836,0-16-7.163-16-16s7.164-16,16-16h139.31c8.325-0.001,15.333-6.504,15.955-14.805l0.044-0.488
	l35.78-338.39c0.929-8.788,8.799-15.159,17.594-14.229c8.787,0.929,15.158,8.806,14.229,17.594l-35.757,338.17
	C441.159,476.628,420.196,495.999,395.311,496z"/>
<path d="M368.012,128.004c-1.284,0-2.59-0.156-3.893-0.481c-8.572-2.144-13.784-10.83-11.642-19.403l16-64
	c1.318-5.272,5.222-9.515,10.366-11.266l47-16c8.367-2.848,17.455,1.626,20.303,9.99c2.848,8.365-1.625,17.455-9.99,20.303
	l-38.748,13.191l-13.886,55.543C381.705,123.15,375.181,128.004,368.012,128.004z"/>
<path d="M480,128H224c-8.836,0-16-7.164-16-16s7.164-16,16-16h256c8.837,0,16,7.164,16,16S488.837,128,480,128z"/>
</svg>
