<?xml version="1.0" encoding="iso-8859-1"?>
<!-- Generator: Adobe Illustrator 24.3.0, SVG Export Plug-In . SVG Version: 6.00 Build 0)  -->
<svg version="1.1" id="Layer_1" xmlns="http://www.w3.org/2000/svg" xmlns:xlink="http://www.w3.org/1999/xlink" x="0px" y="0px"
	 viewBox="0 0 512 512" style="enable-background:new 0 0 512 512;" xml:space="preserve">
<path d="M430,190c0-95.94-78.06-174-174-174S82,94.06,82,190c0,88.49,66.4,161.77,152,172.61V394h-36c-12.15,0-22,9.85-22,22
	s9.85,22,22,22h36v36c0,12.15,9.85,22,22,22s22-9.85,22-22v-36h36c12.15,0,22-9.85,22-22s-9.85-22-22-22h-36v-31.39
	C363.6,351.77,430,278.49,430,190z M126,190c0-71.68,58.32-130,130-130s130,58.32,130,130s-58.32,130-130,130S126,261.68,126,190z"
	/>
</svg>
