<?xml version="1.0" encoding="iso-8859-1"?>
<!-- Generator: Adobe Illustrator 24.3.0, SVG Export Plug-In . SVG Version: 6.00 Build 0)  -->
<svg version="1.1" id="Layer_1" xmlns="http://www.w3.org/2000/svg" xmlns:xlink="http://www.w3.org/1999/xlink" x="0px" y="0px"
	 viewBox="0 0 512 512" style="enable-background:new 0 0 512 512;" xml:space="preserve">
<path d="M256,352C163.364,352,88,276.636,88,184c0-92.636,75.364-168,168-168s168,75.364,168,168C424,276.636,348.636,352,256,352z
	 M256,48c-74.991,0-136,61.009-136,136S181.009,320,256,320c74.99,0,136-61.01,136-136.001S330.99,48,256,48z"/>
<path d="M256,496c-8.836,0-16-7.163-16-16V336c0-8.837,7.164-16,16-16c8.837,0,16,7.163,16,16v144C272,488.837,264.837,496,256,496z
	"/>
<path d="M314,432H198c-8.836,0-16-7.163-16-16s7.164-16,16-16h116c8.837,0,16,7.163,16,16S322.837,432,314,432z"/>
</svg>
