<?xml version="1.0" encoding="iso-8859-1"?>
<!-- Generator: Adobe Illustrator 24.3.0, SVG Export Plug-In . SVG Version: 6.00 Build 0)  -->
<svg version="1.1" id="Layer_1" xmlns="http://www.w3.org/2000/svg" xmlns:xlink="http://www.w3.org/1999/xlink" x="0px" y="0px"
	 viewBox="0 0 512 512" style="enable-background:new 0 0 512 512;" xml:space="preserve">
<path d="M96,448c-35.209-0.103-63.898-28.792-64-63.954V272c0-1.107,0.115-2.212,0.343-3.296l31.972-151.869
	c3.215-16.58,10.478-29.665,21.585-38.893C97.037,68.691,111.202,64,128,64h256c33.684,0,57.48,19.766,63.695,52.886l31.962,151.819
	c0.228,1.084,0.343,2.188,0.343,3.296v112c-0.103,35.208-28.792,63.897-63.953,64H96z M64,273.666V384
	c0.051,17.573,14.427,31.949,32.046,32H416c17.572-0.051,31.949-14.428,32-32.047V273.666l-31.657-150.37
	c-0.026-0.127-0.052-0.255-0.075-0.383C412.867,104.552,402.614,96,384,96H128c-18.483,0-28.743,8.586-32.288,27.021
	c-0.018,0.092-0.036,0.183-0.055,0.275L64,273.666z"/>
<path d="M192,288H48c-8.836,0-16-7.163-16-16s7.164-16,16-16h144c8.836,0,16,7.163,16,16S200.836,288,192,288z"/>
<path d="M464,288H320c-8.837,0-16-7.163-16-16s7.163-16,16-16h144c8.837,0,16,7.163,16,16S472.837,288,464,288z"/>
<path d="M256,352c-44.112,0-80-35.888-80-80c0-8.837,7.164-16,16-16s16,7.163,16,16c0,26.467,21.533,48,48,48
	c26.467,0,48-21.533,48-48c0-8.837,7.163-16,16-16s16,7.163,16,16C336,316.113,300.112,352,256,352z"/>
<path d="M368,160H144c-8.836,0-16-7.164-16-16s7.164-16,16-16h224c8.837,0,16,7.164,16,16S376.837,160,368,160z"/>
<path d="M384,224H128c-8.836,0-16-7.164-16-16s7.164-16,16-16h256c8.837,0,16,7.164,16,16S392.837,224,384,224z"/>
</svg>
