<?xml version="1.0" encoding="iso-8859-1"?>
<!-- Generator: Adobe Illustrator 24.3.0, SVG Export Plug-In . SVG Version: 6.00 Build 0)  -->
<svg version="1.1" id="Layer_1" xmlns="http://www.w3.org/2000/svg" xmlns:xlink="http://www.w3.org/1999/xlink" x="0px" y="0px"
	 viewBox="0 0 512 512" style="enable-background:new 0 0 512 512;" xml:space="preserve">
<path d="M464,352H320c-8.837,0-16,7.163-16,16c0,26.51-21.49,48-48,48s-48-21.49-48-48c0-8.837-7.163-16-16-16H48
	c-8.837,0-16,7.163-16,16v64c0.039,35.33,28.67,63.961,64,64h320c35.33-0.039,63.961-28.67,64-64v-64
	C480,359.164,472.837,352,464,352z"/>
<path d="M479.46,187.88L447.61,68.45C441.27,35.59,417.54,16,384,16H128c-16.8,0-31,4.69-42.1,13.94S67.66,52,64.4,68.4
	L32.54,187.88c-0.359,1.344-0.541,2.729-0.54,4.12v48c0,35.29,28.71,80,64,80h320c35.29,0,64-44.71,64-80v-48
	C480.001,190.609,479.819,189.224,479.46,187.88z M440.57,176H320c-8.785-0.044-15.945,7.035-16,15.82c0,26.51-21.49,48-48,48
	s-48-21.49-48-48c-0.055-8.785-7.215-15.864-16-15.82H71.43c-1.105-0.001-1.999-0.897-1.999-2.001c0-0.175,0.023-0.35,0.069-0.519
	L95.71,75c3.55-18.41,13.81-27,32.29-27h256c18.59,0,28.84,8.53,32.25,26.85l26.25,98.63c0.287,1.067-0.345,2.164-1.411,2.451
	C440.92,175.977,440.745,176,440.57,176z"/>
</svg>
