<?xml version="1.0" encoding="iso-8859-1"?>
<!-- Generator: Adobe Illustrator 24.3.0, SVG Export Plug-In . SVG Version: 6.00 Build 0)  -->
<svg version="1.1" id="Layer_1" xmlns="http://www.w3.org/2000/svg" xmlns:xlink="http://www.w3.org/1999/xlink" x="0px" y="0px"
	 viewBox="0 0 512 512" style="enable-background:new 0 0 512 512;" xml:space="preserve">
<path d="M96,496c-35.209-0.103-63.898-28.792-64-63.954V336h32v96c0.051,17.573,14.427,31.949,32.046,32H416
	c17.572-0.051,31.949-14.428,32-32.047V336h32v96c-0.103,35.208-28.792,63.897-63.953,64H96z"/>
<path d="M192,352H48c-8.836,0-16-7.163-16-16s7.164-16,16-16h144c8.836,0,16,7.163,16,16S200.836,352,192,352z"/>
<path d="M464,352H320c-8.837,0-16-7.163-16-16s7.163-16,16-16h144c8.837,0,16,7.163,16,16S472.837,352,464,352z"/>
<path d="M256,416c-44.112,0-80-35.888-80-80c0-8.837,7.164-16,16-16s16,7.163,16,16c0,26.467,21.533,48,48,48
	c26.467,0,48-21.533,48-48c0-8.837,7.163-16,16-16s16,7.163,16,16C336,380.113,300.112,416,256,416z"/>
<path d="M96,352c-35.209-0.103-63.898-28.792-64-63.954V192c0-1.392,0.182-2.778,0.54-4.123L64.401,68.398
	c3.258-16.373,10.489-29.309,21.5-38.456C97.037,20.691,111.202,16,128,16h256c33.535,0,57.271,19.589,63.611,52.447l31.849,119.431
	c0.358,1.345,0.54,2.731,0.54,4.123V288c-0.103,35.208-28.792,63.897-63.953,64H96z M64,194.097V288
	c0.051,17.573,14.427,31.949,32.046,32H416c17.572-0.051,31.949-14.428,32-32.047v-93.857L416.54,76.122
	c-0.106-0.399-0.197-0.803-0.272-1.209C412.867,56.552,402.614,48,384,48H128c-18.483,0-28.743,8.586-32.288,27.021
	c-0.071,0.37-0.155,0.737-0.252,1.101L64,194.097z"/>
<path d="M192,208H48c-8.836,0-16-7.164-16-16s7.164-16,16-16h144c8.836,0,16,7.164,16,16S200.836,208,192,208z"/>
<path d="M464,208H320c-8.837,0-16-7.164-16-16s7.163-16,16-16h144c8.837,0,16,7.164,16,16S472.837,208,464,208z"/>
<path d="M256,272c-44.112,0-80-35.888-80-80.001c0-8.836,7.164-16,16-16s16,7.164,16,16c0,26.467,21.533,48,48,48
	c26.467,0,48-21.533,48-48c0-8.836,7.163-16,16-16s16,7.164,16,16C336,236.112,300.112,272,256,272z"/>
</svg>
