<?xml version="1.0" encoding="iso-8859-1"?>
<!-- Generator: Adobe Illustrator 24.3.0, SVG Export Plug-In . SVG Version: 6.00 Build 0)  -->
<svg version="1.1" id="Layer_1" xmlns="http://www.w3.org/2000/svg" xmlns:xlink="http://www.w3.org/1999/xlink" x="0px" y="0px"
	 viewBox="0 0 512 512" style="enable-background:new 0 0 512 512;" xml:space="preserve">
<path d="M479.66,268.7l-32-151.81C441.48,83.77,417.68,64,384,64H128c-16.8,0-31,4.69-42.1,13.94s-18.37,22.31-21.58,38.89
	l-32,151.87c-0.216,1.087-0.323,2.192-0.32,3.3v112c0,35.346,28.654,64,64,64h320c35.346,0,64-28.654,64-64V272
	C479.997,270.891,479.883,269.786,479.66,268.7z M95.66,123.3c0-0.1,0-0.19,0-0.28c3.55-18.43,13.81-27,32.29-27H384
	c18.61,0,28.87,8.55,32.27,26.91c0,0.13,0.05,0.26,0.07,0.39l26.93,127.88c0.453,2.162-0.933,4.282-3.095,4.735
	c-0.271,0.057-0.548,0.085-0.825,0.085H320c-8.785-0.044-15.945,7.035-16,15.82c0,26.51-21.49,48-48,48s-48-21.49-48-48
	c-0.044-8.792-7.207-15.884-16-15.84c0,0,0,0,0,0H72.65c-2.209,0.003-4.002-1.786-4.005-3.995c0-0.277,0.028-0.554,0.085-0.825
	L95.66,123.3z"/>
<path d="M368,160H144c-8.837,0-16-7.163-16-16s7.163-16,16-16h224c8.837,0,16,7.163,16,16S376.837,160,368,160z"/>
<path d="M384,224H128c-8.837,0-16-7.163-16-16s7.163-16,16-16h256c8.837,0,16,7.163,16,16S392.837,224,384,224z"/>
</svg>
