<?xml version="1.0" encoding="iso-8859-1"?>
<!-- Generator: Adobe Illustrator 24.3.0, SVG Export Plug-In . SVG Version: 6.00 Build 0)  -->
<svg version="1.1" id="Layer_1" xmlns="http://www.w3.org/2000/svg" xmlns:xlink="http://www.w3.org/1999/xlink" x="0px" y="0px"
	 viewBox="0 0 512 512" style="enable-background:new 0 0 512 512;" xml:space="preserve">
<path d="M436,80H76c-24.289,0.028-43.972,19.711-44,44v264c0.028,24.289,19.711,43.972,44,44h360c24.289-0.028,43.972-19.711,44-44
	V124C479.972,99.711,460.289,80.028,436,80z M112,388c0,6.627-5.373,12-12,12H76c-6.627,0-12-5.373-12-12v-24
	c0-6.627,5.373-12,12-12h24c6.627,0,12,5.373,12,12V388z M112,308c0,6.627-5.373,12-12,12H76c-6.627,0-12-5.373-12-12v-24
	c0-6.627,5.373-12,12-12h24c6.627,0,12,5.373,12,12V308z M112,228c0,6.627-5.373,12-12,12H76c-6.627,0-12-5.373-12-12v-24
	c0-6.627,5.373-12,12-12h24c6.627,0,12,5.373,12,12V228z M112,148c0,6.627-5.373,12-12,12H76c-6.627,0-12-5.373-12-12v-24
	c0-6.627,5.373-12,12-12h24c6.627,0,12,5.373,12,12V148z M353.68,272H158.32c-8.837,0-16-7.163-16-16c0-8.837,7.163-16,16-16h195.36
	c8.837,0,16,7.163,16,16C369.68,264.837,362.517,272,353.68,272z M448,388c0,6.627-5.373,12-12,12h-24c-6.627,0-12-5.373-12-12v-24
	c0-6.627,5.373-12,12-12h24c6.627,0,12,5.373,12,12V388z M448,308c0,6.627-5.373,12-12,12h-24c-6.627,0-12-5.373-12-12v-24
	c0-6.627,5.373-12,12-12h24c6.627,0,12,5.373,12,12V308z M448,228c0,6.627-5.373,12-12,12h-24c-6.627,0-12-5.373-12-12v-24
	c0-6.627,5.373-12,12-12h24c6.627,0,12,5.373,12,12V228z M448,148c0,6.627-5.373,12-12,12h-24c-6.627,0-12-5.373-12-12v-24
	c0-6.627,5.373-12,12-12h24c6.627,0,12,5.373,12,12V148z"/>
</svg>
