<?xml version="1.0" encoding="iso-8859-1"?>
<!-- Generator: Adobe Illustrator 24.3.0, SVG Export Plug-In . SVG Version: 6.00 Build 0)  -->
<svg version="1.1" id="Layer_1" xmlns="http://www.w3.org/2000/svg" xmlns:xlink="http://www.w3.org/1999/xlink" x="0px" y="0px"
	 viewBox="0 0 512 512" style="enable-background:new 0 0 512 512;" xml:space="preserve">
<path d="M480,80H32v352h448V80z M112,352v48H64v-48H112z M112,272v48H64v-48H112z M112,192v48H64v-48H112z M112,112v48H64v-48H112z
	 M368,272H144v-32h224V272z M448,352v48h-48v-48H448z M448,272v48h-48v-48H448z M448,192v48h-48v-48H448z M448,112v48h-48v-48H448z"
	/>
</svg>
