<?xml version="1.0" encoding="iso-8859-1"?>
<!-- Generator: Adobe Illustrator 24.3.0, SVG Export Plug-In . SVG Version: 6.00 Build 0)  -->
<svg version="1.1" id="Layer_1" xmlns="http://www.w3.org/2000/svg" xmlns:xlink="http://www.w3.org/1999/xlink" x="0px" y="0px"
	 viewBox="0 0 512 512" style="enable-background:new 0 0 512 512;" xml:space="preserve">
<path d="M436,432H76c-24.262,0-44-19.738-44-44V124c0-24.262,19.738-44,44-44h360c24.262,0,44,19.738,44,44v264
	C480,412.262,460.262,432,436,432z M76,112c-6.617,0-12,5.383-12,12v264c0,6.617,5.383,12,12,12h360c6.617,0,12-5.383,12-12V124
	c0-6.617-5.383-12-12-12H76z"/>
<path d="M436,432h-24c-24.262,0-44-19.738-44-44v-24c0-24.262,19.738-44,44-44h24c24.262,0,44,19.738,44,44v24
	C480,412.262,460.262,432,436,432z M412,352c-6.617,0-12,5.383-12,12v24c0,6.617,5.383,12,12,12h24c6.617,0,12-5.383,12-12v-24
	c0-6.617-5.383-12-12-12H412z"/>
<path d="M436,352h-24c-24.262,0-44-19.738-44-44v-24C368,259.739,387.738,240,412,240h24c24.262,0,44,19.739,44,44.001v24
	C480,332.262,460.262,352,436,352z M412,271.999c-6.617,0-12,5.384-12,12.001v24c0,6.617,5.383,12,12,12h24c6.617,0,12-5.383,12-12
	v-24c0-6.617-5.383-12.001-12-12.001H412z"/>
<path d="M436,272h-24c-24.262,0-44-19.739-44-44.001v-24c0-24.262,19.738-44,44-44h24c24.262,0,44,19.738,44,44v24
	C480,252.262,460.262,272,436,272z M412,192c-6.617,0-12,5.383-12,12v24c0,6.617,5.383,12,12,12h24c6.617,0,12-5.383,12-12v-24
	c0-6.617-5.383-12-12-12H412z"/>
<path d="M436,192h-24c-24.262,0-44-19.738-44-44v-24c0-24.262,19.738-44,44-44h24c24.262,0,44,19.738,44,44v24
	C480,172.262,460.262,192,436,192z M412,112c-6.617,0-12,5.383-12,12v24c0,6.617,5.383,12,12,12h24c6.617,0,12-5.383,12-12v-24
	c0-6.617-5.383-12-12-12H412z"/>
<path d="M100,432H76c-24.262,0-44-19.738-44-44v-24c0-24.262,19.738-44,44-44h24c24.262,0,44,19.738,44,44v24
	C144,412.262,124.262,432,100,432z M76,352c-6.617,0-12,5.383-12,12v24c0,6.617,5.383,12,12,12h24c6.617,0,12-5.383,12-12v-24
	c0-6.617-5.383-12-12-12H76z"/>
<path d="M100,352H76c-24.262,0-44-19.738-44-44v-24C32,259.739,51.738,240,76,240h24c24.262,0,44,19.739,44,44.001v24
	C144,332.262,124.262,352,100,352z M76,271.999c-6.617,0-12,5.384-12,12.001v24c0,6.617,5.383,12,12,12h24c6.617,0,12-5.383,12-12
	v-24c0-6.617-5.383-12.001-12-12.001H76z"/>
<path d="M100,272H76C51.738,272,32,252.262,32,228v-24c0-24.262,19.738-44,44-44h24c24.262,0,44,19.738,44,44v24
	C144,252.262,124.262,272,100,272z M76,192c-6.617,0-12,5.383-12,12v24c0,6.617,5.383,12,12,12h24c6.617,0,12-5.383,12-12v-24
	c0-6.617-5.383-12-12-12H76z"/>
<path d="M100,192H76c-24.262,0-44-19.738-44-44v-24c0-24.262,19.738-44,44-44h24c24.262,0,44,19.738,44,44v24
	C144,172.262,124.262,192,100,192z M76,112c-6.617,0-12,5.383-12,12v24c0,6.617,5.383,12,12,12h24c6.617,0,12-5.383,12-12v-24
	c0-6.617-5.383-12-12-12H76z"/>
<path d="M356,272H156c-24.262,0-44-19.739-44-44.001V124c0-24.262,19.738-44,44-44h200c24.262,0,44,19.738,44,44v104
	C400,252.262,380.262,272,356,272z M156,112c-6.617,0-12,5.383-12,12v104c0,6.617,5.383,12,12,12h200c6.617,0,12-5.383,12-12V124
	c0-6.617-5.383-12-12-12H156z"/>
<path d="M356,432H156c-24.262,0-44-19.738-44-44V284C112,259.739,131.738,240,156,240h200c24.262,0,44,19.739,44,44.001v104
	C400,412.262,380.262,432,356,432z M156,271.999c-6.617,0-12,5.384-12,12.001v104c0,6.617,5.383,12,12,12h200
	c6.617,0,12-5.383,12-12V284c0-6.617-5.383-12.001-12-12.001H156z"/>
</svg>
