<?xml version="1.0" encoding="iso-8859-1"?>
<!-- Generator: Adobe Illustrator 24.3.0, SVG Export Plug-In . SVG Version: 6.00 Build 0)  -->
<svg version="1.1" id="Layer_1" xmlns="http://www.w3.org/2000/svg" xmlns:xlink="http://www.w3.org/1999/xlink" x="0px" y="0px"
	 viewBox="0 0 512 512" style="enable-background:new 0 0 512 512;" xml:space="preserve">
<path d="M472,168H40c-13.255,0-24-10.745-24-24s10.745-24,24-24h432c13.255,0,24,10.745,24,24S485.255,168,472,168z"/>
<path d="M392,280H120c-13.255,0-24-10.745-24-24c0-13.255,10.745-24,24-24h272c13.255,0,24,10.745,24,24
	C416,269.255,405.255,280,392,280z"/>
<path d="M296,392h-80c-13.255,0-24-10.745-24-24s10.745-24,24-24h80c13.255,0,24,10.745,24,24S309.255,392,296,392z"/>
</svg>
