<?xml version="1.0" encoding="iso-8859-1"?>
<!-- Generator: Adobe Illustrator 24.3.0, SVG Export Plug-In . SVG Version: 6.00 Build 0)  -->
<svg version="1.1" id="Layer_1" xmlns="http://www.w3.org/2000/svg" xmlns:xlink="http://www.w3.org/1999/xlink" x="0px" y="0px"
	 viewBox="0 0 512 512" style="enable-background:new 0 0 512 512;" xml:space="preserve">
<path d="M480,160H32c-8.836,0-16-7.164-16-16s7.164-16,16-16h448c8.837,0,16,7.164,16,16S488.837,160,480,160z"/>
<path d="M400,272H112c-8.836,0-16-7.164-16-16.001c0-8.836,7.164-16,16-16h288c8.837,0,16,7.164,16,16
	C416,264.836,408.837,272,400,272z"/>
<path d="M304,384h-96c-8.836,0-16-7.163-16-16s7.164-16,16-16h96c8.837,0,16,7.163,16,16S312.837,384,304,384z"/>
</svg>
