<?xml version="1.0" encoding="iso-8859-1"?>
<!-- Generator: Adobe Illustrator 24.3.0, SVG Export Plug-In . SVG Version: 6.00 Build 0)  -->
<svg version="1.1" id="Layer_1" xmlns="http://www.w3.org/2000/svg" xmlns:xlink="http://www.w3.org/1999/xlink" x="0px" y="0px"
	 viewBox="0 0 512 512" style="enable-background:new 0 0 512 512;" xml:space="preserve">
<path d="M256,48C141.31,48,48,141.31,48,256s93.31,208,208,208s208-93.31,208-208S370.69,48,256,48z M288,352h-64
	c-8.837,0-16-7.163-16-16s7.163-16,16-16h64c8.837,0,16,7.163,16,16S296.837,352,288,352z M336,288H176c-8.837,0-16-7.163-16-16
	s7.163-16,16-16h160c8.837,0,16,7.163,16,16S344.837,288,336,288z M368,224H144c-8.837,0-16-7.163-16-16s7.163-16,16-16h224
	c8.837,0,16,7.163,16,16S376.837,224,368,224z"/>
</svg>
