<?xml version="1.0" encoding="iso-8859-1"?>
<!-- Generator: Adobe Illustrator 24.3.0, SVG Export Plug-In . SVG Version: 6.00 Build 0)  -->
<svg version="1.1" id="Layer_1" xmlns="http://www.w3.org/2000/svg" xmlns:xlink="http://www.w3.org/1999/xlink" x="0px" y="0px"
	 viewBox="0 0 512 512" style="enable-background:new 0 0 512 512;" xml:space="preserve">
<path d="M390.42,75.28c-1.87,0.005-3.707-0.493-5.32-1.44C340.72,50.08,302.35,40,256.35,40c-45.77,0-89.23,11.28-128.76,33.84
	C122,77,115.11,74.8,111.87,69c-3.001-5.81-0.975-12.952,4.63-16.32C159.134,28.5,207.337,15.857,256.35,16
	c49.23,0,92.23,11.28,139.39,36.48c5.723,3.147,7.879,10.293,4.85,16.08C398.802,72.593,394.831,75.217,390.42,75.28z M59.63,201.28
	c-2.402-0.017-4.74-0.771-6.7-2.16c-5.299-3.938-6.528-11.365-2.78-16.8c22.89-33.6,52-60,86.69-78.48
	C209.42,65,302.35,64.72,375.16,103.6c34.68,18.48,63.8,44.64,86.69,78c3.732,5.439,2.505,12.853-2.78,16.8
	c-4.981,3.723-12.037,2.703-15.76-2.278c-0.146-0.196-0.286-0.397-0.42-0.602c-20.8-30.24-47.15-54-78.36-70.56
	c-66.34-35.28-151.18-35.28-217.29,0.24c-31.44,16.8-57.79,40.8-78.59,71C66.822,199.439,63.347,201.396,59.63,201.28z M204.1,491
	c-3.091,0.03-6.043-1.284-8.09-3.6C175.9,466.48,165,453,149.55,424c-16-29.52-24.27-65.52-24.27-104.16
	c0-71.28,58.71-129.36,130.84-129.36S387,248.56,387,319.84c0.188,6.382-4.833,11.707-11.215,11.895
	c-6.382,0.188-11.707-4.833-11.895-11.215c-0.007-0.227-0.007-0.454,0-0.68c0-58.08-48.32-105.36-107.72-105.36
	S148.4,261.76,148.4,319.84c0,34.56,7.39,66.48,21.49,92.4c14.8,27.6,25,39.36,42.77,58.08c4.366,4.826,4.366,12.174,0,17
	C210.391,489.609,207.322,490.929,204.1,491z M369.85,446.6c-27.51,0-51.78-7.2-71.66-21.36c-34.371-24.091-54.884-63.387-55-105.36
	c-0.266-6.384,4.695-11.775,11.079-12.041c6.384-0.266,11.775,4.695,12.041,11.079c0.013,0.321,0.013,0.641,0,0.962
	c0.079,34.098,16.823,66.004,44.84,85.44c16.41,11.52,35.6,17,58.72,17c8.052-0.143,16.079-0.946,24-2.4
	c6.24-1.2,12.25,3.12,13.4,9.84c1.22,6.457-3.016,12.684-9.47,13.92c-9.208,1.819-18.564,2.783-27.95,2.88V446.6z M323.38,496
	c-1.015-0.042-2.022-0.203-3-0.48c-36.76-10.56-60.8-24.72-86-50.4c-32.37-33.36-50.16-77.76-50.16-125.28
	c0-38.88,31.9-70.56,71.19-70.56s71.2,31.68,71.2,70.56c0,25.68,21.5,46.56,48.08,46.56s48.08-20.88,48.08-46.56
	c0-90.48-75.13-163.92-167.59-163.92c-65.65,0-125.75,37.92-152.79,96.72c-9,19.44-13.64,42.24-13.64,67.2
	c0,18.72,1.61,48.24,15.48,86.64c2.32,6.24-0.69,13.2-6.7,15.36c-5.853,2.229-12.404-0.709-14.633-6.562
	c-0.055-0.145-0.107-0.291-0.157-0.438c-11.153-30.432-16.867-62.589-16.88-95c0-28.8,5.32-55,15.72-77.76
	c30.75-67,98.94-110.4,173.6-110.4c105.18,0,190.71,84.24,190.71,187.92c0,38.88-31.9,70.56-71.2,70.56s-71.2-31.68-71.2-70.56
	C303.5,293.92,282,273,255.42,273s-48.08,20.88-48.08,46.56c0,41,15.26,79.44,43.23,108.24c22,22.56,43,35,75.59,44.4
	c6.24,1.68,9.71,8.4,8.09,14.64C333.21,492.057,328.698,495.86,323.38,496z"/>
</svg>
