<?xml version="1.0" encoding="iso-8859-1"?>
<!-- Generator: Adobe Illustrator 24.3.0, SVG Export Plug-In . SVG Version: 6.00 Build 0)  -->
<svg version="1.1" id="Layer_1" xmlns="http://www.w3.org/2000/svg" xmlns:xlink="http://www.w3.org/1999/xlink" x="0px" y="0px"
	 viewBox="0 0 512 512" style="enable-background:new 0 0 512 512;" xml:space="preserve">
<path d="M63.28,202c-2.698,0.024-5.355-0.666-7.7-2c-7.145-4.016-9.681-13.063-5.665-20.208c0.047-0.085,0.096-0.169,0.145-0.252
	C69.34,147.36,128,72.25,256,72.25c55.47,0,104.12,14.57,144.53,43.29c33.26,23.57,51.9,50.25,60.78,63.1
	c4.663,6.706,3.007,15.923-3.699,20.586c-0.099,0.069-0.2,0.137-0.301,0.204c-6.998,4.626-16.404,2.854-21.24-4
	C420,172.32,371,102,256,102c-112.25,0-163,64.71-179.53,92.46C73.765,199.179,68.718,202.064,63.28,202z"/>
<path d="M320.49,496c-1.276,0.015-2.55-0.129-3.79-0.43c-92.85-23-127.52-115.82-128.93-119.68l-0.22-0.85
	c-0.76-2.68-19.39-66.33,9.21-103.61c13.11-17,33.05-25.72,59.38-25.72c24.48,0,42.14,7.61,54.28,23.36c10,12.86,14,28.72,17.87,44
	c8.13,31.82,14,48.53,47.79,50.25c14.84,0.75,24.59-7.93,30.12-15.32c14.95-20.15,17.55-53,6.28-82C398,228.57,346.61,158,256,158
	c-38.68,0-74.22,12.43-102.72,35.79C129.69,213.14,111,240.46,102,268.54c-16.69,52.28,5.2,134.46,5.41,135.21
	c2.114,7.913-2.586,16.041-10.499,18.156c-0.123,0.033-0.247,0.064-0.371,0.094c-8.09,2.151-16.416-2.558-18.74-10.6
	c-1-3.75-24.38-91.4-5.1-151.82c21-65.47,85.81-131.47,183.33-131.47c45.07,0,87.65,15.32,123.19,44.25
	c27.52,22.5,50,52.72,61.76,82.93c14.95,38.57,10.94,81.86-10.19,110.14c-14.08,18.86-34.13,28.72-56.34,27.65
	c-57.86-2.9-68.26-43.29-75.84-72.75c-7.8-30.22-12.79-44.79-42.58-44.79c-16.36,0-27.85,4.5-35,13.82
	c-9.75,12.75-10.51,32.68-9.43,47.14c0.709,10.074,2.417,20.053,5.1,29.79c2.38,6,33.37,82,107.59,100.39
	c7.997,1.894,12.943,9.913,11.049,17.909c-0.016,0.067-0.032,0.134-0.049,0.201C333.429,491.423,327.379,496.005,320.49,496z"/>
<path d="M201.31,489.14c-4.205,0.009-8.233-1.691-11.16-4.71c-37.16-39-58.18-82.61-66.09-137.14V347
	c-4.44-36.1,2.06-87.21,33.91-122.35c23.51-25.93,56.56-39.11,98.06-39.11c49.08,0,87.65,22.82,111.7,65.89
	c17.45,31.29,20.91,62.47,21,63.75c0.768,8.287-5.327,15.628-13.615,16.397c-0.012,0.001-0.024,0.002-0.035,0.003
	c-8.287,0.899-15.763-5.018-16.79-13.29l0,0c-2.634-18.708-8.688-36.773-17.86-53.29c-18.64-32.89-47-49.61-84.51-49.61
	c-32.4,0-57.75,9.75-75.19,29c-25.14,27.75-30,70.5-26.55,98.78c6.93,48.22,25.46,86.58,58.18,120.86
	c5.626,5.853,5.442,15.159-0.411,20.785c-0.115,0.11-0.231,0.219-0.349,0.325C208.78,487.696,205.116,489.12,201.31,489.14z"/>
<path d="M372.5,446.18c-32.5,0-60.13-9-82.24-26.89c-44.42-35.79-49.4-94.08-49.62-96.54c-0.652-8.409,5.636-15.753,14.045-16.405
	s15.753,5.636,16.405,14.045c0.11,0.86,4.55,48.54,38.79,76c20.26,16.18,47.34,22.6,80.71,18.85
	c8.303-1.007,15.859,4.883,16.91,13.18c0.908,8.19-4.994,15.565-13.184,16.474c-0.085,0.009-0.17,0.018-0.256,0.026
	C386.904,445.755,379.705,446.176,372.5,446.18z"/>
<path d="M398.18,48.79C385.5,40.54,340.54,16,256,16c-88.74,0-133.81,27.11-143.78,34c-0.658,0.404-1.275,0.873-1.84,1.4
	c-0.06,0.058-0.137,0.093-0.22,0.1c-3.221,2.812-5.075,6.874-5.09,11.15c0.115,8.317,6.95,14.965,15.266,14.851
	c0.015,0,0.029,0,0.044-0.001c3.175-0.002,6.274-0.976,8.88-2.79c0.43-0.32,39.22-28.82,126.77-28.82S382.58,74.29,383,74.5
	c2.662,1.974,5.896,3.027,9.21,3c8.316,0.128,15.162-6.511,15.289-14.827c0-0.021,0.001-0.042,0.001-0.063
	C407.502,56.534,403.814,51.066,398.18,48.79z"/>
</svg>
