<?xml version="1.0" encoding="iso-8859-1"?>
<!-- Generator: Adobe Illustrator 24.3.0, SVG Export Plug-In . SVG Version: 6.00 Build 0)  -->
<svg version="1.1" id="Layer_1" xmlns="http://www.w3.org/2000/svg" xmlns:xlink="http://www.w3.org/1999/xlink" x="0px" y="0px"
	 viewBox="0 0 512 512" style="enable-background:new 0 0 512 512;" xml:space="preserve">
<path d="M335.45,256c-0.012-37.936,10.021-75.199,29.08-108l7.62-13.26c-15.973-3.801-32.249-6.194-48.64-7.15
	c-21.94-16.9-54.64-36.95-92.34-43.33L208,80l13.37,61.86c-41.67,14.14-78.43,42.86-102.76,62.62
	c-4.707-3.94-9.633-7.79-14.78-11.55c-39.71-29-82.6-31.8-84.4-31.9L0,160l2.67,19.31c0.29,2,6.79,44.73,31.65,76.52
	C9.46,287.63,3,330.33,2.67,332.36L0,352l19.43-1.36c1.8-0.1,44.69-2.89,84.4-31.9c5.053-3.687,9.907-7.477,14.56-11.37
	c24.37,19.83,61.14,48.6,102.86,62.74L208,432l23.17-4.22c37.49-6.34,70.08-26.4,92-43.32c16.62-0.961,33.123-3.38,49.32-7.23
	l-7.91-13.18C345.499,331.238,335.448,293.957,335.45,256z"/>
<path d="M499.59,221.75c-5.85-9.88-16.54-24.9-34.19-40.28c-18.373-15.823-39.351-28.342-62-37L392.23,164
	c-33.008,56.837-33.042,127-0.09,183.87l11.75,19.57c22.414-8.553,43.19-20.896,61.42-36.49C497.05,303.47,512,269,512,256
	C512,243.69,504,229.26,499.59,221.75z M416,256c-8.837,0-16-7.163-16-16s7.163-16,16-16s16,7.163,16,16S424.837,256,416,256z"/>
</svg>
