<?xml version="1.0" encoding="iso-8859-1"?>
<!-- Generator: Adobe Illustrator 24.3.0, SVG Export Plug-In . SVG Version: 6.00 Build 0)  -->
<svg version="1.1" id="Layer_1" xmlns="http://www.w3.org/2000/svg" xmlns:xlink="http://www.w3.org/1999/xlink" x="0px" y="0px"
	 viewBox="0 0 512 512" style="enable-background:new 0 0 512 512;" xml:space="preserve">
<path d="M512,256c0-16.54-14.27-46.76-45.61-74c-17.889-15.387-38.275-27.603-60.28-36.12c-1.516-0.567-3.215,0.107-3.93,1.56
	c-0.15,0.29-0.3,0.57-0.47,0.86l-9.59,15.9c-32.919,56.844-32.893,126.961,0.07,183.78l0.23,0.39l8.74,16
	c0.959,1.758,3.07,2.535,4.94,1.82C479.63,337.42,512,281.49,512,256z M418.08,255.86c-8.762,1.146-16.794-5.028-17.94-13.79
	c-1.146-8.762,5.028-16.794,13.79-17.94c8.762-1.146,16.794,5.028,17.94,13.79c0.18,1.377,0.18,2.772,0,4.15
	C430.93,249.261,425.271,254.92,418.08,255.86L418.08,255.86z"/>
<path d="M335.45,256c-0.014-37.936,10.02-75.2,29.08-108l0.12-0.21l4.62-7.67c1.152-1.885,0.557-4.347-1.328-5.499
	c-0.389-0.238-0.816-0.407-1.262-0.501c-12.945-2.708-26.064-4.509-39.26-5.39c-1.556-0.101-3.048-0.657-4.29-1.6
	c-19.28-14.66-57.5-40.3-96.46-46.89c-8.718-1.445-16.956,4.452-18.4,13.169c-0.387,2.338-0.251,4.732,0.4,7.011l10.62,37.17
	c0.573,1.997-0.479,4.1-2.42,4.84c-36.85,13.69-68.59,38.75-91.74,57.85c-2.92,2.39-7.112,2.415-10.06,0.06
	c-3.147-2.5-6.377-4.963-9.69-7.39c-39.64-28.95-86.21-32.76-88.17-32.9c-8.811-0.666-16.494,5.938-17.16,14.749
	c-0.118,1.558-0.007,3.125,0.33,4.651c0.42,1.93,9.19,40.69,31.7,71.61c2.079,2.844,2.079,6.706,0,9.55
	C9.57,291.52,0.8,330.29,0.38,332.22c-1.903,8.629,3.55,17.167,12.179,19.07c1.526,0.336,3.093,0.448,4.651,0.33
	c2-0.14,48.53-4,88.12-32.88c3.233-2.373,6.39-4.78,9.47-7.22c2.95-2.352,7.143-2.323,10.06,0.07c23.25,19.19,55.05,44.28,92,58
	c1.936,0.74,2.987,2.836,2.42,4.83l-10.66,37.18c-2.427,8.497,2.493,17.352,10.989,19.78c2.278,0.651,4.673,0.788,7.011,0.4
	c17.16-2.9,51.88-12.86,96.05-46.83c1.262-0.963,2.777-1.536,4.36-1.65c13.18-0.863,26.284-2.634,39.22-5.3
	c2.162-0.454,3.547-2.574,3.093-4.736c-0.08-0.382-0.216-0.751-0.403-1.094l-4.51-8.29C345.426,331.105,335.427,293.886,335.45,256z
	"/>
</svg>
