<?xml version="1.0" encoding="iso-8859-1"?>
<!-- Generator: Adobe Illustrator 24.3.0, SVG Export Plug-In . SVG Version: 6.00 Build 0)  -->
<svg version="1.1" id="Layer_1" xmlns="http://www.w3.org/2000/svg" xmlns:xlink="http://www.w3.org/1999/xlink" x="0px" y="0px"
	 viewBox="0 0 512 512" style="enable-background:new 0 0 512 512;" xml:space="preserve">
<path d="M223.999,432c-4.509,0-8.859-1.908-11.921-5.33c-3.665-4.094-4.972-9.782-3.462-15.065l11.65-40.776
	c-41.133-14.361-76.175-43.271-100.433-63.409c-4.72,3.943-9.578,7.734-14.528,11.337c-39.565,28.902-86.136,32.721-88.099,32.868
	c-5.05,0.389-9.977-1.647-13.292-5.47c-3.316-3.823-4.628-8.99-3.538-13.932c0.449-2.035,10.132-44.852,35.344-76.392
	c-25.21-31.533-34.896-74.349-35.344-76.384c-1.091-4.942,0.221-10.108,3.538-13.932c3.316-3.823,8.239-5.851,13.292-5.47
	c1.963,0.148,48.533,3.966,88.122,32.885c5.01,3.646,9.933,7.492,14.72,11.496c24.151-20.022,59.131-48.92,100.217-63.259
	l-11.649-40.771c-1.509-5.283-0.203-10.971,3.461-15.065c3.665-4.094,9.173-6.021,14.59-5.107
	c40.299,6.812,79.764,33.972,98.349,48.335c70.939,4.321,115.941,31.268,141.377,53.406C497.729,209.237,512,239.46,512,256
	c0,33.479-55.801,119.454-187.348,127.459c-45.105,35.176-80.579,45.373-97.984,48.316C225.778,431.927,224.885,432,223.999,432z
	 M119.502,270.41c3.559,0,7.124,1.182,10.069,3.567c3.135,2.539,6.488,5.322,10.038,8.27c25.066,20.81,62.947,52.258,104.145,62.2
	c4.237,1.022,7.874,3.729,10.069,7.495s2.76,8.264,1.562,12.454l-8.051,28.181c26.586-10.772,50.53-28.596,61.367-37.3
	c2.65-2.13,5.911-3.359,9.309-3.511c65.093-2.895,105.191-26.355,127.367-45.526C471.476,283.677,480,261.206,480,256
	c-0.047-3.129-6.68-25.696-34.884-50.13c-22.192-19.226-62.191-42.747-126.717-45.615c-3.39-0.151-6.645-1.375-9.293-3.497
	c-24.62-19.723-45.846-30.933-61.763-37.297l8.041,28.144c1.198,4.192,0.633,8.692-1.564,12.458s-5.836,6.472-10.075,7.493
	c-40.993,9.871-78.698,41.13-103.648,61.815c-3.659,3.033-7.114,5.898-10.344,8.507c-6.185,4.994-15.097,4.691-20.927-0.71
	c-7.055-6.536-14.575-12.72-22.352-18.381c-15.938-11.642-33.487-18.319-47.234-22.101c5.868,15.273,15.333,34.516,29.101,47.508
	c3.203,3.022,5.019,7.231,5.019,11.635c0,4.404-1.814,8.613-5.017,11.637c-13.751,12.98-23.21,32.195-29.081,47.463
	c13.792-3.801,31.376-10.477,47.19-22.028c7.734-5.629,15.187-11.756,22.175-18.229C111.685,271.839,115.589,270.41,119.502,270.41z
	"/>
<circle cx="416" cy="239.99" r="16"/>
<path d="M378.385,372.003c-5.517,0-10.884-2.856-13.853-7.972c-38.675-66.637-38.675-149.427,0-216.063
	c4.435-7.644,14.229-10.242,21.869-5.807c7.643,4.436,10.242,14.227,5.807,21.87c-32.924,56.729-32.924,127.209,0,183.938
	c4.436,7.643,1.836,17.434-5.807,21.869C383.874,371.305,381.111,372.003,378.385,372.003z"/>
</svg>
