<?xml version="1.0" encoding="iso-8859-1"?>
<!-- Generator: Adobe Illustrator 24.3.0, SVG Export Plug-In . SVG Version: 6.00 Build 0)  -->
<svg version="1.1" id="Layer_1" xmlns="http://www.w3.org/2000/svg" xmlns:xlink="http://www.w3.org/1999/xlink" x="0px" y="0px"
	 viewBox="0 0 512 512" style="enable-background:new 0 0 512 512;" xml:space="preserve">
<path d="M193.69,152.84c3.95-7.905,13.559-11.111,21.464-7.162c3.95,1.974,6.909,5.492,8.176,9.722l36.4,121.36l30-59.92
	c3.953-7.903,13.564-11.106,21.467-7.153c3.095,1.548,5.605,4.058,7.153,7.153L345.89,272h96.76
	c14.406-29.701,21.715-62.342,21.35-95.35C463.37,114.54,413.54,64,352.92,64c-48.09,0-80,29.54-96.92,51
	c-16.88-21.49-48.83-51-96.92-51C98.46,64,48.63,114.54,48,176.65c-0.259,21.448,2.753,42.81,8.93,63.35h93.18L193.69,152.84z"/>
<path d="M321.69,295.16L304,259.78l-33.69,67.38c-2.711,5.418-8.251,8.841-14.31,8.84c-0.447,0-0.907-0.02-1.38-0.06
	c-6.554-0.544-12.107-5.042-14-11.34l-36.4-121.36l-30,59.92c-2.697,5.39-8.193,8.807-14.22,8.84H69.35
	c9.333,19.527,21.757,38.747,37.27,57.66c18.77,22.88,52.8,59.46,131.39,112.81c10.848,7.435,25.152,7.435,36,0
	c78.59-53.35,112.62-89.93,131.39-112.81c6.761-8.229,13.102-16.793,19-25.66H336C329.941,304.001,324.401,300.579,321.69,295.16z"
	/>
<path d="M464,272h-21.35c-5.319,11.085-11.418,21.778-18.25,32H464c8.837,0,16-7.163,16-16S472.837,272,464,272z"/>
<path d="M48,240c-8.837,0-16,7.163-16,16c0,8.837,7.163,16,16,16h21.35c-4.948-10.335-9.1-21.033-12.42-32H48z"/>
</svg>
