<?xml version="1.0" encoding="iso-8859-1"?>
<!-- Generator: Adobe Illustrator 24.3.0, SVG Export Plug-In . SVG Version: 6.00 Build 0)  -->
<svg version="1.1" id="Layer_1" xmlns="http://www.w3.org/2000/svg" xmlns:xlink="http://www.w3.org/1999/xlink" x="0px" y="0px"
	 viewBox="0 0 512 512" style="enable-background:new 0 0 512 512;" xml:space="preserve">
<path d="M480,272h-37.34c-5.323,11.083-11.422,21.776-18.25,32H480V272z"/>
<path d="M32,240v32h37.34c-4.942-10.336-9.087-21.033-12.4-32H32z"/>
<path d="M304,259.78l-51.73,103.46l-48-160L169.89,272H69.34c10,20.92,23.5,41.41,40.63,61.68c40.12,47.46,94.25,79.75,137,108.32
	l9,6l9-6c42.78-28.57,96.91-60.86,137-108.32c8.044-9.454,15.537-19.363,22.44-29.68h-98.3L304,259.78z"/>
<path d="M211.73,116.76l48,160L304,188.22L345.89,272h96.77c14.401-29.702,21.706-62.343,21.34-95.35
	C463.37,114.54,413.54,64,352.92,64c-48.11,0-80.1,28-96.92,48.21C239.18,92,207.19,64,159.08,64C98.46,64,48.63,114.54,48,176.65
	c-0.254,21.448,2.761,42.81,8.94,63.35h93.17L211.73,116.76z"/>
</svg>
