<?xml version="1.0" encoding="iso-8859-1"?>
<!-- Generator: Adobe Illustrator 24.3.0, SVG Export Plug-In . SVG Version: 6.00 Build 0)  -->
<svg version="1.1" id="Layer_1" xmlns="http://www.w3.org/2000/svg" xmlns:xlink="http://www.w3.org/1999/xlink" x="0px" y="0px"
	 viewBox="0 0 512 512" style="enable-background:new 0 0 512 512;" xml:space="preserve">
<path d="M102,480H64V57.37l4.69-4.68C72.14,49.23,92.78,32,160,32c37.21,0,78.83,14.71,115.55,27.68C305.12,70.13,333.05,80,352,80
	c42.83,0,72.72-14.25,73-14.4l23-11.14v259.43l-8.84,4.42C437.71,319,403.19,336,352,336c-24.14,0-54.38-7.14-86.39-14.71
	C229.63,312.79,192.43,304,160,304c-36.87,0-49.74,5.58-58,9.11V480z"/>
</svg>
