<?xml version="1.0" encoding="iso-8859-1"?>
<!-- Generator: Adobe Illustrator 24.3.0, SVG Export Plug-In . SVG Version: 6.00 Build 0)  -->
<svg version="1.1" id="Layer_1" xmlns="http://www.w3.org/2000/svg" xmlns:xlink="http://www.w3.org/1999/xlink" x="0px" y="0px"
	 viewBox="0 0 512 512" style="enable-background:new 0 0 512 512;" xml:space="preserve">
<path d="M80,480c-8.837,0-16-7.163-16-16V68.13c0.002-8.531,4.533-16.419,11.9-20.72C88,40.38,112.38,32,160,32
	c37.21,0,78.83,14.71,115.55,27.68C305.12,70.13,333.05,80,352,80c24.394-0.075,48.53-5.004,71-14.5
	c9.159-3.866,19.717,0.425,23.583,9.583c0.935,2.214,1.416,4.593,1.417,6.997v219.36c-0.008,7.945-4.718,15.132-12,18.31
	c-8.71,3.81-40.51,16.25-84,16.25c-24.14,0-54.38-7.14-86.39-14.71C229.63,312.79,192.43,304,160,304c-36.87,0-55.74,5.58-64,9.11
	V464C96,472.837,88.837,480,80,480z"/>
</svg>
