<?xml version="1.0" encoding="iso-8859-1"?>
<!-- Generator: Adobe Illustrator 24.3.0, SVG Export Plug-In . SVG Version: 6.00 Build 0)  -->
<svg version="1.1" id="Layer_1" xmlns="http://www.w3.org/2000/svg" xmlns:xlink="http://www.w3.org/1999/xlink" x="0px" y="0px"
	 viewBox="0 0 512 512" style="enable-background:new 0 0 512 512;" xml:space="preserve">
<path d="M80,480c-8.836,0-16-7.163-16-16V68.14c0.031-8.549,4.606-16.463,11.947-20.726C87.972,40.376,112.31,32,160,32
	c37.208,0,78.83,14.707,115.551,27.682C305.122,70.13,333.054,80,352,80c24.496-0.063,48.396-4.944,70.996-14.505
	c4.509-1.883,9.404-1.896,13.853-0.065c4.448,1.83,7.916,5.283,9.767,9.723c0.925,2.211,1.394,4.568,1.385,6.987V301.44
	c-0.024,7.954-4.715,15.116-11.95,18.298C427.324,323.559,395.537,336,352,336c-24.142,0-54.378-7.145-86.39-14.709
	C229.634,312.79,192.433,304,160,304c-36.867,0-55.743,5.578-64,9.111V464C96,472.837,88.836,480,80,480z M160,272
	c36.162,0,76.968,9.642,112.97,18.149C303.114,297.273,331.588,304,352,304c29.372,0,52.106-6.432,64-10.723V102.133
	c-20.641,6.493-42.085,9.81-63.958,9.867c-24.476,0-54.92-10.757-87.152-22.146C228.918,77.143,191.721,64,160,64
	c-37.149,0-55.94,5.625-64,9.104v206.211C110.04,275.308,130.549,272,160,272z M416,82.08c0,0.033,0,0.066,0,0.1V82.08z"/>
</svg>
