<?xml version="1.0" encoding="iso-8859-1"?>
<!-- Generator: Adobe Illustrator 24.3.0, SVG Export Plug-In . SVG Version: 6.00 Build 0)  -->
<svg version="1.1" id="Layer_1" xmlns="http://www.w3.org/2000/svg" xmlns:xlink="http://www.w3.org/1999/xlink" x="0px" y="0px"
	 viewBox="0 0 512 512" style="enable-background:new 0 0 512 512;" xml:space="preserve">
<path d="M256,480c-88.224,0-160-71.775-160-160c0-45.733,26.032-85.637,51.207-124.228c30.436-46.655,59.183-90.722,45.314-143.722
	c-1.255-4.796-0.216-9.904,2.814-13.828S203.042,32,208,32c41.054,0,93.203,29.651,132.856,75.539
	c22.672,26.238,40.632,56.525,53.379,90.021C408.677,235.51,416,276.705,416,320C416,408.225,344.225,480,256,480z M227.523,66.9
	c5.141,56.444-25.818,103.9-53.515,146.356C150.348,249.525,128,283.783,128,320c0,70.579,57.42,128,128,128
	c70.579,0,128-57.421,128-128c0-39.392-6.619-76.758-19.673-111.06c-11.415-29.997-27.458-57.075-47.684-80.479
	C286.567,93.657,253.231,73.878,227.523,66.9z"/>
<path d="M256,464c-21.729,0-41.499-8.313-55.667-23.409C184.414,423.629,176,398.528,176,368c0-32.159,10.772-55.542,20.277-76.172
	c8.422-18.281,15.075-32.721,12.005-48.835c-0.892-4.684,0.351-9.521,3.391-13.194c3.04-3.673,7.559-5.799,12.327-5.799
	c25.208,0,53.095,17.753,76.511,48.707C322.732,302.083,336,337.707,336,368c0,30.527-8.414,55.629-24.333,72.591
	C297.499,455.687,277.729,464,256,464z M240.454,260.732c-1.998,16.021-8.63,30.417-15.113,44.487
	C216.815,323.723,208,342.858,208,368c0,22.242,5.417,39.771,15.667,50.692C233.99,429.692,246.947,432,256,432
	s22.011-2.309,32.333-13.308C298.583,407.772,304,390.243,304,368c0-23.568-10.845-51.976-29.011-75.989
	C264.117,277.639,251.75,266.609,240.454,260.732z"/>
</svg>
