<?xml version="1.0" encoding="iso-8859-1"?>
<!-- Generator: Adobe Illustrator 24.3.0, SVG Export Plug-In . SVG Version: 6.00 Build 0)  -->
<svg version="1.1" id="Layer_1" xmlns="http://www.w3.org/2000/svg" xmlns:xlink="http://www.w3.org/1999/xlink" x="0px" y="0px"
	 viewBox="0 0 512 512" style="enable-background:new 0 0 512 512;" xml:space="preserve">
<path d="M394.23,197.56c-12.389-32.891-30.453-63.353-53.37-90C301.2,61.65,249.05,32,208,32
	c-8.837,0.007-15.995,7.175-15.988,16.012c0.001,1.345,0.172,2.685,0.508,3.988c13.87,53-14.88,97.07-45.31,143.72
	C122,234.36,96,274.27,96,320c0,88.22,71.78,160,160,160s160-71.78,160-160C416,276.7,408.68,235.51,394.23,197.56z M288.33,418.69
	C278,429.69,265.05,432,256,432s-22-2.31-32.33-13.31S208,390.24,208,368c0-25.14,8.82-44.28,17.34-62.78
	c4.95-10.74,10-21.67,13-33.37c1.073-4.286,5.417-6.891,9.703-5.818c1.005,0.252,1.951,0.696,2.787,1.308
	c9.146,7.076,17.279,15.374,24.17,24.66c18.17,24,29,52.42,29,76C304,390.24,298.58,407.77,288.33,418.69z"/>
</svg>
