<?xml version="1.0" encoding="iso-8859-1"?>
<!-- Generator: Adobe Illustrator 24.3.0, SVG Export Plug-In . SVG Version: 6.00 Build 0)  -->
<svg version="1.1" id="Layer_1" xmlns="http://www.w3.org/2000/svg" xmlns:xlink="http://www.w3.org/1999/xlink" x="0px" y="0px"
	 viewBox="0 0 512 512" style="enable-background:new 0 0 512 512;" xml:space="preserve">
<path d="M394.24,197.56c-12.396-32.889-30.463-63.351-53.38-90C301.2,61.65,240,32,192,32c19,70-14.36,117.12-44.79,163.77
	C122,234.36,96,274.27,96,320c0,88.22,71.78,160,160,160s160-71.78,160-160C416,276.7,408.68,235.51,394.24,197.56z M288.33,418.69
	C278,429.69,265.05,432,256,432s-22-2.31-32.33-13.31S208,390.24,208,368c0-25.14,8.82-44.28,17.34-62.78
	c6.48-14.07,14.66-27.22,15.11-44.49c11.3,5.88,23.67,16.91,34.54,31.28c18.17,24,29,52.42,29,76
	C304,390.24,298.58,407.77,288.33,418.69z"/>
</svg>
