<?xml version="1.0" encoding="iso-8859-1"?>
<!-- Generator: Adobe Illustrator 24.3.0, SVG Export Plug-In . SVG Version: 6.00 Build 0)  -->
<svg version="1.1" id="Layer_1" xmlns="http://www.w3.org/2000/svg" xmlns:xlink="http://www.w3.org/1999/xlink" x="0px" y="0px"
	 viewBox="0 0 512 512" style="enable-background:new 0 0 512 512;" xml:space="preserve">
<path d="M194.82,496c-10.14,0.009-18.367-8.204-18.376-18.344c-0.001-1.068,0.091-2.134,0.276-3.186v-0.11L204.83,320H96
	c-8.837-0.001-15.999-7.165-15.998-16.002c0-3.661,1.256-7.211,3.558-10.058L302.73,23c6.306-8.004,17.906-9.381,25.91-3.076
	c5.079,4.001,7.693,10.37,6.89,16.786c0,0.3-0.08,0.59-0.13,0.89L307.19,192H416c8.837,0.001,15.999,7.165,15.998,16.002
	c0,3.661-1.256,7.211-3.558,10.058L209.24,489C205.751,493.409,200.442,495.986,194.82,496z"/>
</svg>
