<?xml version="1.0" encoding="iso-8859-1"?>
<!-- Generator: Adobe Illustrator 24.3.0, SVG Export Plug-In . SVG Version: 6.00 Build 0)  -->
<svg version="1.1" id="Layer_1" xmlns="http://www.w3.org/2000/svg" xmlns:xlink="http://www.w3.org/1999/xlink" x="0px" y="0px"
	 viewBox="0 0 512 512" style="enable-background:new 0 0 512 512;" xml:space="preserve">
<path d="M432,448c-4.244,0.007-8.316-1.681-11.31-4.69l-352-352c-6.086-6.406-5.827-16.534,0.579-22.62
	c6.176-5.867,15.865-5.867,22.04,0l352,352c6.246,6.25,6.243,16.381-0.007,22.627C440.304,446.314,436.239,447.998,432,448z"/>
<path d="M431.5,204c-1.825-7.067-8.201-12.004-15.5-12H307.19L335.4,37.63c0.05-0.3,0.1-0.59,0.13-0.89
	c1.286-10.108-5.866-19.345-15.974-20.631c-6.43-0.818-12.817,1.798-16.826,6.891l-92.58,114.46c-1.288,1.594-1.163,3.904,0.29,5.35
	l151,151c1.561,1.563,4.094,1.565,5.657,0.004c0.1-0.1,0.194-0.205,0.283-0.314l60.8-75.16
	C431.494,214.355,432.726,209.036,431.5,204z"/>
<path d="M301.57,369.19l-151-151c-1.564-1.56-4.097-1.557-5.657,0.007c-0.096,0.096-0.187,0.198-0.273,0.303L83.8,293.64
	c-3.314,3.993-4.538,9.321-3.3,14.36c1.825,7.067,8.201,12.004,15.5,12h108.83l-28.09,154.36v0.11
	c-1.723,9.998,4.985,19.5,14.983,21.223c6.624,1.142,13.342-1.425,17.517-6.693l92.61-114.46
	C303.141,372.948,303.02,370.638,301.57,369.19z"/>
</svg>
