<?xml version="1.0" encoding="iso-8859-1"?>
<!-- Generator: Adobe Illustrator 24.3.0, SVG Export Plug-In . SVG Version: 6.00 Build 0)  -->
<svg version="1.1" id="Layer_1" xmlns="http://www.w3.org/2000/svg" xmlns:xlink="http://www.w3.org/1999/xlink" x="0px" y="0px"
	 viewBox="0 0 512 512" style="enable-background:new 0 0 512 512;" xml:space="preserve">
<path d="M336,64H176c-8.836,0-16-7.164-16-16s7.164-16,16-16h160c8.837,0,16,7.164,16,16S344.837,64,336,64z"/>
<path d="M394,320H118c-8.836,0-16-7.163-16-16s7.164-16,16-16h276c8.837,0,16,7.163,16,16S402.837,320,394,320z"/>
<path d="M388.92,480H123.08c-27.729,0-52.277-14.501-65.666-38.79c-13.393-24.297-12.545-52.806,2.267-76.264l124.91-197.829
	c4.844-7.682,7.408-16.55,7.409-25.64V48c0-8.836,7.164-16,16-16s16,7.164,16,16v93.48c-0.002,15.141-4.271,29.911-12.347,42.715
	L86.739,382.032c-8.494,13.451-8.979,29.799-1.3,43.73C93.114,439.687,107.186,448,123.08,448h265.84
	c15.894,0,29.966-8.313,37.641-22.238c7.68-13.932,7.194-30.279-1.299-43.729l-124.92-197.83
	c-8.079-12.817-12.345-27.587-12.342-42.725V48c0-8.836,7.163-16,16-16s16,7.164,16,16v93.48c-0.001,9.091,2.56,17.96,7.405,25.648
	l124.913,197.818c14.812,23.458,15.66,51.968,2.267,76.264C441.196,465.499,416.648,480,388.92,480z"/>
</svg>
