<?xml version="1.0" encoding="iso-8859-1"?>
<!-- Generator: Adobe Illustrator 24.3.0, SVG Export Plug-In . SVG Version: 6.00 Build 0)  -->
<svg version="1.1" id="Layer_1" xmlns="http://www.w3.org/2000/svg" xmlns:xlink="http://www.w3.org/1999/xlink" x="0px" y="0px"
	 viewBox="0 0 512 512" style="enable-background:new 0 0 512 512;" xml:space="preserve">
<path d="M462,216c9.35-9.35,15.14-19.09,17.19-28.95c2.7-12.95-1.29-25.55-11.22-35.48L360.43,44.05C346.29,29.92,322,24.07,296,50
	l-2,2c-3.126,3.122-3.129,8.188-0.006,11.314c0.002,0.002,0.004,0.004,0.006,0.006L448.64,218c3.111,3.137,8.177,3.158,11.314,0.046
	c0.016-0.015,0.031-0.031,0.046-0.046L462,216z"/>
<path d="M250.14,153.08l-0.16,2.34c-0.53,7.18-6.88,19.15-13.88,26.14L47.27,370.36c-11.12,11.11-16.46,25.57-15.05,40.7
	C33.49,424.58,40.16,438,51,448.83L63.17,461c12.61,12.6,27.78,19,42.49,19c13.562-0.03,26.539-5.523,36-15.24l188.84-188.8
	c7.07-7.07,18.84-13.3,26.17-13.87c17.48-1.32,43.57-3.28,67.79-15.65c1.962-1.016,2.729-3.429,1.713-5.391
	c-0.187-0.361-0.427-0.691-0.713-0.979L271.69,86.31c-1.561-1.564-4.093-1.566-5.657-0.005c-0.295,0.295-0.543,0.634-0.733,1.005
	C253.18,110.3,251.48,134.22,250.14,153.08z M240.19,299.91c-6.973,8.567-19.57,9.859-28.137,2.887
	c-8.567-6.973-9.859-19.57-2.887-28.137s19.57-9.859,28.137-2.887c1.058,0.861,2.025,1.828,2.887,2.887
	C246.175,282.013,246.175,292.557,240.19,299.91z"/>
</svg>
