<?xml version="1.0" encoding="iso-8859-1"?>
<!-- Generator: Adobe Illustrator 24.3.0, SVG Export Plug-In . SVG Version: 6.00 Build 0)  -->
<svg version="1.1" id="Layer_1" xmlns="http://www.w3.org/2000/svg" xmlns:xlink="http://www.w3.org/1999/xlink" x="0px" y="0px"
	 viewBox="0 0 512 512" style="enable-background:new 0 0 512 512;" xml:space="preserve">
<path d="M432,448c-4.244,0.007-8.316-1.681-11.31-4.69l-352-352c-6.086-6.406-5.827-16.534,0.579-22.62
	c6.176-5.867,15.865-5.867,22.04,0l352,352c6.246,6.25,6.243,16.381-0.007,22.627C440.304,446.314,436.239,447.998,432,448z"/>
<path d="M294.34,84.28l-22.08,120.84c-1.097,5.984,1.294,12.072,6.17,15.71c2.88,2.103,6.364,3.215,9.93,3.17h94.12l-38.37,47.42
	c-1.285,1.59-1.164,3.893,0.28,5.34l17.07,17.07c1.561,1.563,4.094,1.565,5.657,0.004c0.1-0.1,0.194-0.205,0.283-0.314l60.8-75.16
	c3.314-3.993,4.538-9.321,3.3-14.36c-1.825-7.067-8.201-12.004-15.5-12H307.19L335.4,37.63c0.05-0.3,0.1-0.59,0.13-0.89
	c1.286-10.108-5.866-19.345-15.974-20.631c-6.43-0.818-12.817,1.798-16.826,6.891l-92.58,114.46c-1.291,1.592-1.17,3.902,0.28,5.35
	l17.07,17.06c1.561,1.563,4.094,1.565,5.657,0.004c0.1-0.1,0.194-0.205,0.283-0.314L294.34,84.28z"/>
<path d="M217.78,427.57l22-120.71c1.089-5.984-1.31-12.069-6.19-15.7c-2.88-2.094-6.359-3.202-9.92-3.16h-94.1l38.36-47.42
	c1.285-1.59,1.164-3.893-0.28-5.34l-17.07-17.07c-1.564-1.56-4.097-1.557-5.657,0.007c-0.096,0.096-0.187,0.198-0.273,0.303
	L83.8,293.64c-3.314,3.993-4.538,9.321-3.3,14.36c1.825,7.067,8.201,12.004,15.5,12h108.83l-28.09,154.36v0.11
	c-1.723,9.998,4.985,19.5,14.983,21.223c6.624,1.142,13.342-1.425,17.517-6.693l92.61-114.46c1.291-1.592,1.17-3.902-0.28-5.35
	l-17.07-17.06c-1.561-1.563-4.094-1.565-5.657-0.004c-0.1,0.1-0.194,0.205-0.283,0.314L217.78,427.57z"/>
</svg>
