<?xml version="1.0" encoding="iso-8859-1"?>
<!-- Generator: Adobe Illustrator 24.3.0, SVG Export Plug-In . SVG Version: 6.00 Build 0)  -->
<svg version="1.1" id="Layer_1" xmlns="http://www.w3.org/2000/svg" xmlns:xlink="http://www.w3.org/1999/xlink" x="0px" y="0px"
	 viewBox="0 0 512 512" style="enable-background:new 0 0 512 512;" xml:space="preserve">
<path d="M105.662,479.968c-14.708,0-29.884-6.371-42.492-18.971l-12.174-12.174c-10.838-10.838-17.504-24.254-18.77-37.775
	c-1.417-15.138,3.926-29.592,15.047-40.698L236.11,181.633c6.992-6.991,13.341-18.956,13.862-26.123l0.172-2.401
	c1.849-25.975,4.38-61.55,33.893-91.062l11.927-11.977c9.361-9.383,19.106-15.179,28.975-17.239
	c12.947-2.702,25.552,1.279,35.492,11.211l107.523,107.504c9.934,9.933,13.918,22.534,11.219,35.483
	c-2.056,9.863-7.843,19.606-17.202,28.958l-11.937,11.936c-29.342,29.343-69.429,32.34-93.38,34.131
	c-7.203,0.569-19.218,6.927-26.17,13.879L141.653,464.735C131.458,474.923,118.745,479.968,105.662,479.968z M332.854,63.977
	c-0.522,0-0.974,0.094-1.379,0.179c-3.503,0.731-8.186,3.831-12.85,8.505L306.687,84.65c-21.092,21.092-22.968,47.463-24.624,70.73
	l-0.175,2.442c-1.254,17.257-12.882,36.169-23.154,46.441L69.89,392.988c-4.379,4.374-6.331,9.445-5.804,15.077
	c0.573,6.115,3.96,12.554,9.538,18.132l12.169,12.17c8.527,8.521,22.351,14.616,33.236,3.736l188.828-188.798
	c10.536-10.536,28.953-21.783,46.344-23.155c22.093-1.652,52.26-3.909,73.205-24.854l11.94-11.94
	c4.673-4.669,7.769-9.353,8.499-12.855c0.276-1.33,0.656-3.151-2.52-6.326L337.808,66.675
	C335.598,64.467,334.043,63.977,332.854,63.977z"/>
<circle cx="224.68" cy="287.28" r="20"/>
<path d="M431,239c-4.095,0-8.189-1.562-11.313-4.687l-142-142c-6.249-6.248-6.249-16.379,0-22.627
	c6.248-6.249,16.379-6.249,22.627,0l142,142c6.249,6.248,6.249,16.379,0,22.627C439.189,237.438,435.095,239,431,239z"/>
</svg>
