<?xml version="1.0" encoding="iso-8859-1"?>
<!-- Generator: Adobe Illustrator 24.3.0, SVG Export Plug-In . SVG Version: 6.00 Build 0)  -->
<svg version="1.1" id="Layer_1" xmlns="http://www.w3.org/2000/svg" xmlns:xlink="http://www.w3.org/1999/xlink" x="0px" y="0px"
	 viewBox="0 0 512 512" style="enable-background:new 0 0 512 512;" xml:space="preserve">
<path d="M194.841,496c-1.099,0-2.182-0.096-3.239-0.283c-9.947-1.756-16.627-11.298-14.868-21.268L204.827,320H96
	c-6.167,0-11.784-3.544-14.44-9.108c-2.656-5.565-1.877-12.162,2.001-16.956L302.695,23.104c3.456-4.435,8.812-7.079,14.454-7.104
	c0.001,0,0.002,0,0.003,0c0.83,0,1.594,0.047,2.342,0.14c4.883,0.602,9.246,3.073,12.278,6.958
	c3.034,3.887,4.372,8.722,3.767,13.616c-0.037,0.306-0.084,0.61-0.14,0.913L307.188,192H416c6.166,0,11.784,3.543,14.439,9.108
	c2.656,5.565,1.878,12.161-2.001,16.955L209.248,488.992C205.791,493.382,200.442,495.993,194.841,496z M183.898,469.465
	c-0.001,0.001-0.001,0.002-0.002,0.003C183.897,469.467,183.897,469.466,183.898,469.465z M129.527,288H224
	c4.745,0,9.245,2.105,12.285,5.748c3.04,3.644,4.306,8.447,3.457,13.115l-21.954,120.695L382.475,224H288
	c-4.747,0-9.249-2.108-12.289-5.753c-3.039-3.646-4.304-8.453-3.45-13.123l22.078-120.818L129.527,288z M315.27,33h0.01H315.27z"/>
</svg>
