<?xml version="1.0" encoding="iso-8859-1"?>
<!-- Generator: Adobe Illustrator 24.3.0, SVG Export Plug-In . SVG Version: 6.00 Build 0)  -->
<svg version="1.1" id="Layer_1" xmlns="http://www.w3.org/2000/svg" xmlns:xlink="http://www.w3.org/1999/xlink" x="0px" y="0px"
	 viewBox="0 0 512 512" style="enable-background:new 0 0 512 512;" xml:space="preserve">
<path d="M452.32,365L327.4,167.12c-4.837-7.677-7.403-16.566-7.4-25.64V64h15.56c8.61,0,16-6.62,16.43-15.23
	c0.425-8.826-6.385-16.326-15.211-16.751C336.519,32.006,336.26,32,336,32H176.45c-8.61,0-16,6.62-16.43,15.23
	c-0.425,8.826,6.385,16.326,15.211,16.751C175.487,63.994,175.744,64,176,64h16v77.48c0.006,9.073-2.564,17.96-7.41,25.63L59.68,365
	c-14.718,22.896-15.678,52.024-2.5,75.84C70.44,465.19,96.36,480,124.13,480h263.74c27.77,0,53.69-14.81,66.95-39.21
	C467.978,416.987,467.018,387.884,452.32,365z M211.66,184.2c8.071-12.786,12.35-27.6,12.34-42.72V68c0-2.209,1.791-4,4-4h56
	c2.209,0,4,1.791,4,4v73.48c-0.007,15.121,4.276,29.935,12.35,42.72l57.8,91.53c2.358,3.736,1.241,8.677-2.495,11.035
	c-1.282,0.809-2.768,1.238-4.285,1.235H160.63c-4.418,0.003-8.002-3.577-8.005-7.995c-0.001-1.513,0.427-2.995,1.235-4.275
	L211.66,184.2z"/>
</svg>
