<?xml version="1.0" encoding="iso-8859-1"?>
<!-- Generator: Adobe Illustrator 24.3.0, SVG Export Plug-In . SVG Version: 6.00 Build 0)  -->
<svg version="1.1" id="Layer_1" xmlns="http://www.w3.org/2000/svg" xmlns:xlink="http://www.w3.org/1999/xlink" x="0px" y="0px"
	 viewBox="0 0 512 512" style="enable-background:new 0 0 512 512;" xml:space="preserve">
<circle cx="256" cy="256" r="48"/>
<path d="M475.93,303.91c26.568-26.143,26.914-68.874,0.771-95.442c-11.959-12.154-28.076-19.331-45.111-20.088
	c-2.021-0.088-3.808-1.34-4.58-3.21l0,0c-0.766-1.875-0.376-4.024,1-5.51c25.129-27.783,22.978-70.676-4.804-95.806
	C410.811,72.643,394.713,66.403,378,66.33h-0.25c-16.812-0.003-33.013,6.303-45.4,17.67c-1.488,1.38-3.642,1.77-5.52,1l0,0
	c-1.869-0.775-3.123-2.559-3.22-4.58c-1.638-37.343-33.238-66.287-70.581-64.649c-35.048,1.537-63.112,29.601-64.649,64.649
	c-0.088,2.021-1.34,3.808-3.21,4.58l0,0c-1.878,0.77-4.032,0.38-5.52-1c-12.393-11.385-28.611-17.699-45.44-17.69H134
	c-37.505,0.262-67.696,30.879-67.433,68.383c0.116,16.613,6.319,32.608,17.433,44.957c1.376,1.486,1.766,3.635,1,5.51l0,0
	c-0.772,1.87-2.559,3.122-4.58,3.21c-37.343,1.98-66.01,33.858-64.029,71.201c1.834,34.574,29.455,62.196,64.029,64.029
	c2.023,0.099,3.808,1.357,4.58,3.23l0,0c0.768,1.878,0.378,4.031-1,5.52c-25.107,27.587-23.097,70.303,4.49,95.41
	c12.469,11.348,28.731,17.622,45.59,17.59h0.25c16.737,0.046,32.893-6.139,45.32-17.35c1.486-1.376,3.635-1.766,5.51-1l0,0
	c1.87,0.772,3.122,2.559,3.21,4.58c1.98,37.343,33.858,66.01,71.201,64.029c34.574-1.833,62.196-29.455,64.029-64.029
	c0.097-2.021,1.351-3.805,3.22-4.58l0,0c1.875-0.766,4.024-0.376,5.51,1c12.409,11.23,28.554,17.44,45.29,17.42h0.25
	c37.268,0.147,67.599-29.946,67.746-67.213c0.067-16.938-6.239-33.282-17.665-45.787c-1.378-1.489-1.768-3.642-1-5.52l0,0
	c0.775-1.869,2.559-3.123,4.58-3.22C448.276,322.85,464.109,315.8,475.93,303.91z M256,336c-44.183,0-80-35.817-80-80
	s35.817-80,80-80s80,35.817,80,80C335.95,300.162,300.162,335.95,256,336z"/>
</svg>
