<?xml version="1.0" encoding="iso-8859-1"?>
<!-- Generator: Adobe Illustrator 24.3.0, SVG Export Plug-In . SVG Version: 6.00 Build 0)  -->
<svg version="1.1" id="Layer_1" xmlns="http://www.w3.org/2000/svg" xmlns:xlink="http://www.w3.org/1999/xlink" x="0px" y="0px"
	 viewBox="0 0 512 512" style="enable-background:new 0 0 512 512;" xml:space="preserve">
<path d="M215.063,172.923c-7.448,0-14.117-5.228-15.661-12.809c-7.352-36.081-11.083-61.776-11.092-76.374
	C188.1,46.624,218.111,16.24,255.234,16c0.27-0.001,0.541-0.003,0.812,0c18.026,0.012,35.021,7.14,47.86,20.073
	c12.758,12.852,19.784,29.762,19.784,47.617c0,14.387-3.731,40.095-11.089,76.408c-1.756,8.66-10.204,14.256-18.859,12.503
	c-8.66-1.755-14.259-10.198-12.504-18.859c6.74-33.261,10.452-58.14,10.452-70.052c0-9.352-3.727-18.256-10.494-25.073
	C274.399,51.77,265.451,48,256,48l-0.556,0c-19.5,0.126-35.26,16.09-35.134,35.587l0,0.104c0,12.097,3.71,36.969,10.448,70.036
	c1.764,8.659-3.825,17.108-12.483,18.872C217.197,172.817,216.122,172.923,215.063,172.923z"/>
<path d="M256,496h-0.733c-37.156-0.24-67.167-30.625-66.957-67.741c0.009-14.655,3.741-40.352,11.093-76.378
	c1.767-8.659,10.219-14.245,18.876-12.478c8.658,1.767,14.245,10.218,12.478,18.876c-8.634,42.309-10.447,61.436-10.447,70.03
	l0,0.104c-0.125,19.497,15.634,35.461,35.132,35.587h0.488c19.417,0,35.761-16.344,35.761-35.69
	c0-11.885-3.712-36.764-10.452-70.055c-1.754-8.66,3.846-17.104,12.507-18.856c8.657-1.754,17.104,3.847,18.856,12.507
	c7.358,36.341,11.089,62.047,11.089,76.404c0,17.854-7.026,34.766-19.784,47.617C291.057,488.872,274.043,496,256,496z"/>
<path d="M428.31,323.69c-14.39,0-40.097-3.73-76.407-11.088c-8.66-1.755-14.259-10.198-12.504-18.859
	c1.756-8.661,10.194-14.256,18.859-12.504c33.259,6.739,58.138,10.451,70.052,10.451c9.352,0,18.256-3.727,25.073-10.494
	C460.229,274.4,464,265.452,464,256v-0.591c-0.125-19.388-15.964-35.1-35.356-35.1c-0.077,0-0.153,0-0.231,0l-0.103,0
	c-8.595,0-27.722,1.812-70.03,10.447c-8.663,1.768-17.108-3.82-18.876-12.478c-1.767-8.658,3.819-17.109,12.478-18.876
	c36.026-7.353,61.724-11.084,76.378-11.093c0.127,0,0.262-0.001,0.389-0.001c36.944,0,67.114,29.93,67.353,66.926v0.836
	c0,17.973-7.129,34.986-20.073,47.836C463.075,316.664,446.164,323.69,428.31,323.69z"/>
<path d="M83.69,323.69c-17.855,0-34.766-7.026-47.617-19.783C23.14,291.068,16.012,274.073,16,256.046
	c-0.001-0.271-0.001-0.543,0-0.814c0.238-36.991,30.411-66.923,67.352-66.923c0.129,0,0.259,0,0.388,0.001
	c14.629,0.009,40.325,3.737,76.374,11.083c8.659,1.764,14.248,10.213,12.483,18.872c-1.764,8.659-10.213,14.251-18.872,12.483
	c-33.035-6.731-57.908-10.438-70.036-10.438l-0.103,0c-0.076,0-0.155,0-0.231,0c-19.394,0-35.231,15.711-35.356,35.132L48,256
	c0,19.346,16.344,35.69,35.69,35.69c11.916,0,36.794-3.712,70.052-10.451c8.663-1.752,17.104,3.845,18.859,12.504
	c1.755,8.661-3.843,17.104-12.503,18.859C123.788,319.959,98.081,323.69,83.69,323.69z"/>
<path d="M355.095,231.082c-5.182,0-10.265-2.513-13.345-7.153c-4.888-7.362-2.881-17.292,4.481-22.179
	c27.012-17.93,48.26-33.761,56.839-42.348c6.619-6.619,10.281-15.55,10.316-25.154c0.035-9.646-3.627-18.64-10.311-25.323
	l-0.396-0.396c-6.674-6.586-15.481-10.199-24.834-10.199c-0.08,0-0.16,0-0.241,0c-9.442,0.063-18.295,3.799-24.927,10.52
	l-0.08,0.081c-8.892,8.883-24.322,29.593-42.335,56.819c-4.876,7.37-14.803,9.391-22.172,4.515
	c-7.37-4.876-9.392-14.803-4.516-22.172c11.241-16.991,32.204-47.593,46.366-61.761c12.632-12.778,29.481-19.881,47.451-20
	c17.978-0.119,34.949,6.773,47.753,19.41c0.198,0.194,0.402,0.399,0.607,0.606c12.727,12.754,19.699,29.805,19.632,48.019
	c-0.065,18.107-7.057,35.033-19.683,47.659c-13.889,13.902-44.666,35.03-61.774,46.387
	C361.207,230.217,358.134,231.081,355.095,231.082z"/>
<path d="M134.105,445.387c-18.122,0-35.073-6.97-47.768-19.643c-0.199-0.195-0.396-0.394-0.591-0.592
	c-26.078-26.427-25.806-69.127,0.589-95.215c14.17-14.163,44.768-35.121,61.756-46.361c7.37-4.877,17.296-2.854,22.172,4.516
	c4.876,7.369,2.854,17.296-4.515,22.172c-27.226,18.013-47.936,33.443-56.82,42.335l-0.08,0.08
	c-13.874,13.69-14.022,36.117-0.331,49.991l0.407,0.406c6.651,6.651,15.591,10.31,25.185,10.311c0.047,0,0.092,0,0.139-0.001
	c9.604-0.035,18.536-3.696,25.149-10.31c8.594-8.587,24.425-29.835,42.353-56.845c4.887-7.362,14.816-9.37,22.179-4.481
	c7.362,4.887,9.369,14.816,4.482,22.179c-11.355,17.107-32.482,47.882-46.392,61.779c-12.621,12.621-29.547,19.611-47.654,19.678
	C134.279,445.386,134.191,445.387,134.105,445.387z"/>
<path d="M377.895,445.387c-0.087,0-0.173-0.001-0.26-0.001c-18.107-0.066-35.032-7.057-47.658-19.683
	c-13.946-13.946-35.05-44.69-46.388-61.776c-4.887-7.362-2.879-17.292,4.484-22.178c7.36-4.886,17.292-2.879,22.178,4.484
	c17.901,26.975,33.734,48.224,42.353,56.843c6.613,6.613,15.545,10.274,25.149,10.31c0.046,0.001,0.093,0.001,0.139,0.001
	c9.594,0,18.532-3.658,25.185-10.311l0.448-0.447c13.65-13.833,13.501-36.26-0.373-49.95l-0.08-0.08
	c-8.883-8.89-29.593-24.32-56.819-42.335c-7.37-4.876-9.392-14.803-4.516-22.172c4.877-7.371,14.805-9.391,22.172-4.516
	c16.992,11.242,47.596,32.205,61.761,46.366c12.779,12.631,19.882,29.48,20.002,47.45c0.119,17.989-6.774,34.949-19.41,47.754
	c-0.227,0.228-0.419,0.421-0.61,0.609C412.958,438.421,396.01,445.387,377.895,445.387z"/>
<path d="M156.905,231.082c-3.041,0-6.115-0.866-8.838-2.674c-17.115-11.369-47.898-32.512-61.771-46.384
	c-12.626-12.625-19.616-29.551-19.683-47.658c-0.067-18.219,6.908-35.273,19.642-48.028c0.196-0.199,0.393-0.396,0.591-0.591
	c12.811-12.642,29.728-19.559,47.76-19.416c17.972,0.119,34.821,7.222,47.454,20.003c14.103,14.119,35.095,44.744,46.359,61.752
	c4.879,7.367,2.862,17.295-4.505,22.174c-7.365,4.878-17.295,2.862-22.174-4.505c-17.79-26.861-33.619-48.105-42.344-56.83
	l-0.075-0.076c-13.691-13.875-36.118-14.023-49.991-0.332l-0.407,0.407c-13.679,13.68-13.679,36.793,0,50.473
	c8.569,8.568,29.821,24.402,56.85,42.356c7.36,4.889,9.364,14.82,4.475,22.181C167.167,228.571,162.084,231.081,156.905,231.082z"/>
<path d="M256,336c-44.112,0-80-35.888-80-80.001c0-44.112,35.888-80,80-80s80,35.888,80,80C336,300.113,300.112,336,256,336z
	 M256,208c-26.467,0-48,21.533-48,48S229.533,304,256,304c26.467,0,48-21.533,48-48.001S282.467,208,256,208z"/>
</svg>
