<?xml version="1.0" encoding="iso-8859-1"?>
<!-- Generator: Adobe Illustrator 24.3.0, SVG Export Plug-In . SVG Version: 6.00 Build 0)  -->
<svg version="1.1" id="Layer_1" xmlns="http://www.w3.org/2000/svg" xmlns:xlink="http://www.w3.org/1999/xlink" x="0px" y="0px"
	 viewBox="0 0 512 512" style="enable-background:new 0 0 512 512;" xml:space="preserve">
<circle cx="256" cy="256" r="43"/>
<path d="M475.93,303.91c26.571-26.14,26.92-68.871,0.779-95.442c-12.757-12.967-30.209-20.236-48.399-20.158
	c-2.88,0-6.2,0.14-9.93,0.43c2.75-2.36,5.23-4.62,7.33-6.71c26.438-26.54,26.356-69.488-0.184-95.926
	C412.897,73.524,395.825,66.421,378,66.33h-0.25c-17.972,0.011-35.192,7.213-47.82,20c-2.11,2.11-4.37,4.59-6.72,7.33
	c0.29-3.75,0.44-7.07,0.44-9.93c0.005-37.384-30.296-67.694-67.68-67.7c-37.384-0.005-67.694,30.296-67.7,67.68
	c0,0.006,0,0.013,0,0.019c0,2.87,0.15,6.19,0.44,9.93c-2.36-2.74-4.62-5.22-6.72-7.33c-12.628-12.787-29.848-19.989-47.82-20H134
	c-37.499,0.299-67.655,30.941-67.356,68.44c0.141,17.703,7.191,34.65,19.646,47.23c2.1,2.09,4.58,4.35,7.34,6.72
	c-3.74-0.29-7.06-0.44-9.94-0.44c-37.384,0.005-67.686,30.315-67.68,67.7c0.005,37.377,30.304,67.675,67.68,67.68
	c2.86,0,6.18-0.15,9.93-0.44c-2.74,2.35-5.22,4.61-7.33,6.72c-26.438,26.322-26.532,69.092-0.21,95.53
	c12.716,12.772,30.008,19.933,48.03,19.89h0.25c17.858,0.028,34.995-7.041,47.64-19.65c2.09-2.1,4.35-4.58,6.71-7.33
	c-0.28,3.73-0.43,7.05-0.43,9.93c0,37.384,30.306,67.69,67.69,67.69s67.69-30.306,67.69-67.69c0-2.87-0.15-6.19-0.44-9.94
	c2.36,2.75,4.62,5.24,6.72,7.34c12.648,12.628,29.798,19.708,47.67,19.68h0.25c37.279,0.156,67.626-29.939,67.781-67.218
	c0.075-18.079-7.104-35.432-19.931-48.172c-2.11-2.11-4.59-4.37-7.33-6.72c3.75,0.29,7.07,0.44,9.93,0.44
	C446.185,323.706,463.319,316.578,475.93,303.91z M256,341c-46.944,0-85-38.056-85-85s38.056-85,85-85s85,38.056,85,85l0,0
	C340.945,302.921,302.921,340.945,256,341z"/>
</svg>
