<?xml version="1.0" encoding="iso-8859-1"?>
<!-- Generator: Adobe Illustrator 24.3.0, SVG Export Plug-In . SVG Version: 6.00 Build 0)  -->
<svg version="1.1" id="Layer_1" xmlns="http://www.w3.org/2000/svg" xmlns:xlink="http://www.w3.org/1999/xlink" x="0px" y="0px"
	 viewBox="0 0 512 512" style="enable-background:new 0 0 512 512;" xml:space="preserve">
<path d="M496,152c0-30.928-25.072-56-56-56H220.11c-4.735,0.015-9.368-1.377-13.31-4L179,73.41
	c-9.206-6.156-20.036-9.432-31.11-9.41H72c-30.928,0-56,25.072-56,56v48c0,4.418,3.582,8,8,8h464c4.418,0,8-3.582,8-8V152z"/>
<path d="M16,392c0,30.928,25.072,56,56,56h368c30.928,0,56-25.072,56-56V216c0-4.418-3.582-8-8-8H24c-4.418,0-8,3.582-8,8V392z"/>
</svg>
