<?xml version="1.0" encoding="iso-8859-1"?>
<!-- Generator: Adobe Illustrator 24.3.0, SVG Export Plug-In . SVG Version: 6.00 Build 0)  -->
<svg version="1.1" id="Layer_1" xmlns="http://www.w3.org/2000/svg" xmlns:xlink="http://www.w3.org/1999/xlink" x="0px" y="0px"
	 viewBox="0 0 512 512" style="enable-background:new 0 0 512 512;" xml:space="preserve">
<path d="M408,96H252.11c-4.735,0.015-9.368-1.377-13.31-4L211,73.41c-9.206-6.156-20.036-9.432-31.11-9.41H104
	c-30.914,0.033-55.967,25.086-56,56v24h416C464,113.12,438.88,96,408,96z"/>
<path d="M423.75,448H88.25c-30.572-0.035-55.466-24.582-55.93-55.15L16.18,228.11v-0.28c-2.115-26.425,17.592-49.562,44.017-51.677
	c1.265-0.101,2.534-0.152,3.803-0.153h384.1c26.51,0.026,47.979,21.537,47.953,48.047c-0.001,1.263-0.052,2.525-0.153,3.783v0.28
	l-16.22,164.74C479.216,423.418,454.322,447.965,423.75,448z M479.9,226.55L479.9,226.55z"/>
</svg>
