<?xml version="1.0" encoding="iso-8859-1"?>
<!-- Generator: Adobe Illustrator 24.3.0, SVG Export Plug-In . SVG Version: 6.00 Build 0)  -->
<svg version="1.1" id="Layer_1" xmlns="http://www.w3.org/2000/svg" xmlns:xlink="http://www.w3.org/1999/xlink" x="0px" y="0px"
	 viewBox="0 0 512 512" style="enable-background:new 0 0 512 512;" xml:space="preserve">
<path d="M440,448H72c-30.878,0-56-25.121-56-56V120c0-30.878,25.122-56,56-56h75.89c11.095,0,21.837,3.254,31.066,9.408
	l27.839,18.559C210.752,94.605,215.356,96,220.11,96H440c30.879,0,56,25.122,56,56V392C496,422.879,470.879,448,440,448z M72,96
	c-13.234,0-24,10.766-24,24v272c0,13.233,10.766,24,24,24h368c13.233,0,24-10.767,24-24V152c0-13.234-10.767-24-24-24H220.11
	c-11.093,0-21.835-3.253-31.066-9.407l-27.839-18.56C157.248,97.394,152.644,96,147.889,96H72z"/>
<path d="M480,208H32c-8.836,0-16-7.164-16-16s7.164-16,16-16h448c8.837,0,16,7.164,16,16S488.837,208,480,208z"/>
</svg>
