<?xml version="1.0" encoding="iso-8859-1"?>
<!-- Generator: Adobe Illustrator 24.3.0, SVG Export Plug-In . SVG Version: 6.00 Build 0)  -->
<svg version="1.1" id="Layer_1" xmlns="http://www.w3.org/2000/svg" xmlns:xlink="http://www.w3.org/1999/xlink" x="0px" y="0px"
	 viewBox="0 0 512 512" style="enable-background:new 0 0 512 512;" xml:space="preserve">
<path d="M16.08,189.4l28.58,233.87c1.661,14.121,13.641,24.756,27.86,24.73h367c14.219,0.026,26.199-10.609,27.86-24.73
	l28.54-233.87c0.773-6.582-3.936-12.545-10.518-13.318C484.937,176.027,484.469,176,484,176H28
	c-6.627-0.001-12.001,5.371-12.002,11.998C15.998,188.467,16.025,188.935,16.08,189.4z"/>
<path d="M464,124c0-15.464-12.536-28-28-28H244.84l-48-32H76c-15.464,0-28,12.536-28,28v52h416V124z"/>
</svg>
