<?xml version="1.0" encoding="iso-8859-1"?>
<!-- Generator: Adobe Illustrator 24.3.0, SVG Export Plug-In . SVG Version: 6.00 Build 0)  -->
<svg version="1.1" id="Layer_1" xmlns="http://www.w3.org/2000/svg" xmlns:xlink="http://www.w3.org/1999/xlink" x="0px" y="0px"
	 viewBox="0 0 512 512" style="enable-background:new 0 0 512 512;" xml:space="preserve">
<path d="M448,208c-8.837,0-16-7.164-16-16v-40c0-13.233-10.767-24-24-24H252.11c-11.093,0-21.835-3.253-31.066-9.407l-27.839-18.56
	C189.248,97.394,184.644,96,179.889,96H104c-13.233,0-24,10.767-24,24v72c0,8.836-7.164,16-16,16s-16-7.164-16-16v-72
	c0-30.878,25.122-56,56-56h75.89c11.095,0,21.837,3.254,31.066,9.408l27.839,18.559C242.752,94.606,247.356,96,252.11,96H408
	c30.879,0,56,25.122,56,56v40C464,200.836,456.837,208,448,208z"/>
<path d="M423.778,448H88.25c-30.57-0.054-55.471-24.717-55.924-55.153l-16.15-164.736c-0.009-0.095-0.018-0.191-0.025-0.286
	c-2.109-26.383,17.64-49.563,44.022-51.672C61.443,176.051,62.73,176,64,176h384.1c26.516,0.081,47.982,21.68,47.902,48.147
	c-0.005,1.219-0.056,2.449-0.151,3.663c-0.008,0.101-0.017,0.201-0.026,0.301l-16.15,164.736
	C479.22,423.284,454.32,447.947,423.778,448z M48.041,225.158l16.203,165.281c0.051,0.52,0.076,1.04,0.076,1.562
	c0,13.21,10.748,23.977,23.958,24H423.75c13.183-0.023,23.93-10.79,23.93-24c0-0.521,0.025-1.042,0.076-1.562l16.204-165.275
	c0.026-0.376,0.041-0.753,0.042-1.123c0.027-8.814-7.129-16.014-15.951-16.041H64c-0.422,0-0.852,0.017-1.277,0.051
	C53.968,208.751,47.405,216.412,48.041,225.158z M479.9,226.55h0.01H479.9z"/>
</svg>
