<?xml version="1.0" encoding="iso-8859-1"?>
<!-- Generator: Adobe Illustrator 24.3.0, SVG Export Plug-In . SVG Version: 6.00 Build 0)  -->
<svg version="1.1" id="icons" xmlns="http://www.w3.org/2000/svg" xmlns:xlink="http://www.w3.org/1999/xlink" x="0px" y="0px"
	 viewBox="0 0 512 512" style="enable-background:new 0 0 512 512;" xml:space="preserve">
<path d="M133.837,361.276c-22.609,0-40.989-8.172-54.791-24.398c-13.915-16.36-22.846-40.291-28.109-75.31
	c-7.754-51.618-0.058-95.113,21.67-122.475c12.802-16.121,29.606-25.441,48.594-26.952c16.248-1.288,40.53,5.293,63.964,43.98
	c14.682,24.238,25.856,56.436,30.657,88.339l0,0.003c5.789,38.516,1.478,66.859-13.179,86.651
	c-11.641,15.72-29.544,25.465-53.213,28.965C144.031,360.876,138.829,361.276,133.837,361.276z M124.782,143.999
	c-0.352,0-0.7,0.014-1.045,0.041c-10.054,0.8-18.826,5.831-26.07,14.953c-15.915,20.041-21.413,55.695-15.085,97.82
	c9.86,65.604,31.982,76.069,62.167,71.609c15.164-2.242,25.69-7.591,32.178-16.353c9.209-12.438,11.649-33.583,7.25-62.852
	c-4.134-27.464-13.997-56.07-26.383-76.519C146.838,154.611,134.592,143.999,124.782,143.999z"/>
<path d="M173.055,496.016c-13.218,0-26.613-4.231-38.676-12.357c-17.322-11.669-29.542-30.113-33.525-50.605
	c-2.848-14.652-1.14-26.311,5.221-35.639c10.331-15.149,28.868-18.557,48.493-22.165c2.068-0.38,4.174-0.767,6.31-1.175
	c4.517-0.863,9.145-2.006,13.621-3.11c16.784-4.143,34.138-8.426,48.466,1.748c9.583,6.805,15.018,18.357,16.615,35.317v0.002
	c1.84,19.567-2.362,39.101-11.832,55.001c-10.187,17.103-25.465,28.417-43.02,31.858
	C180.879,495.644,176.975,496.016,173.055,496.016z M201.867,398.359c-4.82,0-14.178,2.311-19.7,3.673
	c-4.882,1.205-9.93,2.451-15.284,3.475c-2.21,0.422-4.39,0.823-6.529,1.216c-11.152,2.051-25.031,4.602-27.84,8.721
	c-1.21,1.774-1.302,6.075-0.247,11.505c2.375,12.215,9.661,23.212,19.991,30.17c8.421,5.674,18.016,7.995,26.321,6.37
	c18.447-3.616,31.522-27.15,29.142-52.46v0.002c-0.943-10.015-3.261-12.209-3.284-12.227
	C203.918,398.493,203.022,398.359,201.867,398.359z"/>
<path d="M378.155,265.265c-4.994,0-10.193-0.398-15.595-1.197c-23.665-3.5-41.564-13.244-53.204-28.962
	c-14.656-19.792-18.967-48.137-13.179-86.653v-0.003c4.806-31.934,15.942-64.1,30.556-88.25
	c23.341-38.572,47.673-45.265,63.954-44.077c18.918,1.372,35.692,10.569,48.51,26.596c21.888,27.368,29.649,70.994,21.855,122.841
	c-5.264,35.02-14.194,58.95-28.105,75.308C419.148,257.093,400.764,265.265,378.155,265.265z M327.822,153.208
	c-4.398,29.27-1.959,50.417,7.251,62.854c6.486,8.76,17.009,14.108,32.168,16.35c30.184,4.462,52.308-6.006,62.167-71.61
	c9.033-60.089-7.622-88.62-15.201-98.098c-7.207-9.011-15.898-13.945-25.834-14.666c-10.134-0.738-22.933,10.006-34.262,28.728
	C341.789,97.13,331.961,125.708,327.822,153.208L327.822,153.208z"/>
<path d="M338.944,400.017c-3.918,0-7.819-0.372-11.667-1.125c-17.56-3.442-32.838-14.758-43.025-31.864
	c-9.471-15.901-13.673-35.433-11.832-54.997v-0.001c1.598-16.967,7.034-28.523,16.621-35.33
	c14.335-10.177,31.695-5.889,48.485-1.743c4.47,1.104,9.091,2.245,13.602,3.108c2.141,0.41,4.253,0.799,6.325,1.181
	c19.618,3.612,38.148,7.024,48.475,22.172c6.359,9.329,8.066,20.985,5.219,35.636c-3.984,20.492-16.204,38.938-33.526,50.605
	C365.557,395.785,352.16,400.017,338.944,400.017z M304.279,315.029c-2.381,25.309,10.695,48.843,29.148,52.46
	c8.304,1.627,17.895-0.698,26.315-6.37c10.329-6.959,17.616-17.956,19.991-30.172c1.056-5.428,0.963-9.729-0.247-11.504
	c-2.808-4.119-16.682-6.674-27.829-8.727c-2.146-0.396-4.331-0.798-6.546-1.222c-5.344-1.023-10.384-2.268-15.258-3.472
	c-6.854-1.692-19.613-4.844-22.292-3.229C307.545,302.809,305.224,304.998,304.279,315.029L304.279,315.029z"/>
</svg>
