<?xml version="1.0" encoding="iso-8859-1"?>
<!-- Generator: Adobe Illustrator 24.3.0, SVG Export Plug-In . SVG Version: 6.00 Build 0)  -->
<svg version="1.1" id="Layer_1" xmlns="http://www.w3.org/2000/svg" xmlns:xlink="http://www.w3.org/1999/xlink" x="0px" y="0px"
	 viewBox="0 0 512 512" style="enable-background:new 0 0 512 512;" xml:space="preserve">
<path d="M256,48C141.31,48,48,141.31,48,256s93.31,208,208,208s208-93.31,208-208S370.69,48,256,48z M396.64,344.08h-46.77
	l-16.89-29l15-60.44L377.79,242l42.65,36.71C417.247,301.945,409.133,324.231,396.64,344.08z M134.21,242L164,254.67l15,60.44
	l-16.89,29h-46.75c-12.489-19.84-20.602-42.116-23.8-65.34L134.21,242z M383.28,149.53l-18.41,52.33l-31.12,13.18L277,167.46v-35
	l43.86-29.22c24.163,10.311,45.55,26.182,62.42,46.32L383.28,149.53z M191.14,103.2L235,132.42v35l-56.75,47.61l-31.12-13.18
	l-18.41-52.33C145.59,129.382,166.977,113.511,191.14,103.2z M217.58,417.5l-20.1-50.66l16-27.51h85l16.06,27.53l-20,50.6
	c-25.313,6.027-51.687,6.027-77,0L217.58,417.5z"/>
</svg>
