<?xml version="1.0" encoding="iso-8859-1"?>
<!-- Generator: Adobe Illustrator 24.3.0, SVG Export Plug-In . SVG Version: 6.00 Build 0)  -->
<svg version="1.1" id="Layer_1" xmlns="http://www.w3.org/2000/svg" xmlns:xlink="http://www.w3.org/1999/xlink" x="0px" y="0px"
	 viewBox="0 0 512 512" style="enable-background:new 0 0 512 512;" xml:space="preserve">
<path d="M256,48C141.31,48,48,141.31,48,256s93.31,208,208,208s208-93.31,208-208S370.69,48,256,48z M399,352h-45.22
	c-2.852-0.007-5.484-1.53-6.91-4l-16.14-27.68c-1.063-1.81-1.371-3.965-0.86-6l14.86-59.92c0.604-2.448,2.328-4.468,4.65-5.45
	l28.1-11.9c2.801-1.188,6.033-0.684,8.34,1.3l41.63,35.82c2.086,1.796,3.102,4.538,2.69,7.26
	c-3.448,23.653-11.711,46.348-24.28,66.68C404.416,350.522,401.811,351.999,399,352z M134.52,237.13l28.1,11.9
	c2.322,0.982,4.045,3.002,4.65,5.45l14.86,59.92c0.511,2.035,0.203,4.19-0.86,6L165.13,348c-1.426,2.47-4.058,3.993-6.91,4H113
	c-2.781,0.002-5.363-1.441-6.82-3.81c-12.569-20.332-20.832-43.027-24.28-66.68c-0.412-2.722,0.604-5.464,2.69-7.26l41.63-35.82
	C128.518,236.462,131.73,235.959,134.52,237.13z M391.46,149.89l-18.07,51.38c-0.734,2.123-2.327,3.84-4.39,4.73l-29.58,12.53
	c-2.768,1.171-5.958,0.692-8.26-1.24L274.9,170.1c-1.82-1.506-2.881-3.738-2.9-6.1v-33.58c0.002-2.672,1.337-5.167,3.56-6.65
	l42.83-28.54c2.272-1.516,5.16-1.769,7.66-0.67c24.644,10.749,46.515,26.973,63.95,47.44
	C391.866,144.178,392.423,147.188,391.46,149.89L391.46,149.89z M193.6,95.23l42.84,28.54c2.223,1.483,3.558,3.978,3.56,6.65V164
	c0,2.366-1.047,4.61-2.86,6.13l-56.26,47.19c-2.302,1.932-5.492,2.411-8.26,1.24L143,206c-2.076-0.879-3.684-2.593-4.43-4.72
	L120.5,149.9c-0.956-2.712-0.383-5.728,1.5-7.9c17.445-20.488,39.334-36.726,64-47.48C188.49,93.455,191.35,93.722,193.6,95.23z
	 M210.91,422.69L191.18,373c-0.914-2.289-0.722-4.871,0.52-7l15.17-26c1.426-2.47,4.058-3.993,6.91-4h84.44
	c2.852,0.007,5.484,1.53,6.91,4l15.18,26c1.246,2.127,1.441,4.71,0.53,7l-19.59,49.67c-0.973,2.466-3.104,4.29-5.69,4.87
	c-25.995,5.966-53.005,5.966-79,0C213.993,426.952,211.88,425.138,210.91,422.69z"/>
</svg>
