<?xml version="1.0" encoding="iso-8859-1"?>
<!-- Generator: Adobe Illustrator 24.3.0, SVG Export Plug-In . SVG Version: 6.00 Build 0)  -->
<svg version="1.1" id="icons" xmlns="http://www.w3.org/2000/svg" xmlns:xlink="http://www.w3.org/1999/xlink" x="0px" y="0px"
	 viewBox="0 0 512 512" style="enable-background:new 0 0 512 512;" xml:space="preserve">
<path d="M133.83,361.27c-22.61,0-41-8.17-54.79-24.39s-22.84-40.29-28.11-75.31c-7.76-51.61-0.06-95.11,21.68-122.48
	c12.8-16.12,29.6-25.44,48.58-26.94c16.25-1.3,40.54,5.29,64,44c14.69,24.24,25.86,56.44,30.65,88.34l0,0
	c5.79,38.51,1.48,66.86-13.18,86.65c-11.64,15.72-29.54,25.46-53.21,29C144.278,360.9,139.057,361.277,133.83,361.27z"/>
<path d="M173,496c-13.21,0-26.6-4.23-38.66-12.36c-17.403-11.792-29.449-29.976-33.52-50.6c-2.85-14.66-1.14-26.31,5.22-35.64
	c10.33-15.15,28.87-18.56,48.49-22.18c2.07-0.38,4.17-0.76,6.3-1.17c4.52-0.86,9.14-2,13.62-3.11c16.78-4.14,34.14-8.43,48.47,1.75
	c9.59,6.8,15,18.36,16.62,35.32l0,0c1.84,19.57-2.36,39.1-11.83,55c-10.19,17.11-25.47,28.42-43,31.86
	C180.852,495.623,176.931,496.002,173,496z"/>
<path d="M378.17,265.27c-5.222-0.018-10.436-0.419-15.6-1.2c-23.66-3.5-41.56-13.25-53.2-29c-14.66-19.79-19-48.13-13.18-86.65
	c4.79-31.93,15.93-64.1,30.55-88.25c23.34-38.57,47.66-45.26,64-44.08c18.92,1.38,35.69,10.57,48.51,26.6
	c21.89,27.37,29.65,71,21.86,122.84c-5.27,35-14.2,58.95-28.11,75.31S400.78,265.27,378.17,265.27z"/>
<path d="M339,400c-3.921,0-7.832-0.379-11.68-1.13c-17.56-3.44-32.84-14.75-43-31.86c-9.47-15.9-13.67-35.43-11.83-55l0,0
	c1.6-17,7-28.52,16.62-35.33c14.33-10.17,31.69-5.89,48.47-1.74c4.48,1.1,9.1,2.24,13.62,3.11l6.29,1.17
	c19.63,3.61,38.17,7,48.5,22.17c6.36,9.33,8.07,21,5.22,35.64c-4.068,20.628-16.114,38.816-33.52,50.61
	C365.56,395.78,352.17,400,339,400z"/>
</svg>
