<?xml version="1.0" encoding="iso-8859-1"?>
<!-- Generator: Adobe Illustrator 24.3.0, SVG Export Plug-In . SVG Version: 6.00 Build 0)  -->
<svg version="1.1" id="Layer_1" xmlns="http://www.w3.org/2000/svg" xmlns:xlink="http://www.w3.org/1999/xlink" x="0px" y="0px"
	 viewBox="0 0 512 512" style="enable-background:new 0 0 512 512;" xml:space="preserve">
<path d="M296.04,463.993c-2.513,0-5.066-0.398-7.578-1.239l-80.124-26.662c-9.874-3.336-16.402-12.497-16.338-22.839V294.112
	c-0.024-0.028-0.066-0.102-0.09-0.129L23.26,97.542c-4.682-5.453-7.253-12.415-7.238-19.603C16.055,61.419,29.508,48,46.021,48
	c0.021,0,0.041,0,0.062,0H466c7.175,0.012,14.1,2.583,19.522,7.241c6.078,5.217,9.762,12.493,10.369,20.484
	c0.607,7.99-1.933,15.739-7.153,21.819L320.142,293.981c-0.042,0.048-0.084,0.097-0.126,0.145H320v145.836
	c0.01,2.619-0.406,5.206-1.238,7.69C315.411,457.657,306.053,463.993,296.04,463.993z M298.568,432.391l0.023,0.008
	C298.584,432.396,298.576,432.394,298.568,432.391z M224,407.578l64,21.297V294c0-0.057,0-0.113,0.001-0.171
	c0.081-7.636,2.889-15,7.908-20.749L461.626,80H50.375l165.791,193.11c4.999,5.769,7.78,13.145,7.833,20.778
	c0,0.038,0,0.075,0,0.112V407.578z M46.05,80c0.001,0,0.004-0.001,0.005,0H46.05z M47.539,76.697
	C47.539,76.697,47.54,76.697,47.539,76.697C47.542,76.7,47.54,76.698,47.539,76.697z"/>
</svg>
