<?xml version="1.0" encoding="iso-8859-1"?>
<!-- Generator: Adobe Illustrator 24.3.0, SVG Export Plug-In . SVG Version: 6.00 Build 0)  -->
<svg version="1.1" id="Layer_1" xmlns="http://www.w3.org/2000/svg" xmlns:xlink="http://www.w3.org/1999/xlink" x="0px" y="0px"
	 viewBox="0 0 512 512" style="enable-background:new 0 0 512 512;" xml:space="preserve">
<path d="M296,464c-2.566-0.002-5.116-0.417-7.55-1.23L208.3,436.1c-9.776-3.285-16.346-12.467-16.3-22.78V294.11
	c-0.022-0.048-0.052-0.092-0.09-0.13L23.26,97.54c-10.792-12.572-9.348-31.512,3.224-42.304C31.93,50.561,38.872,47.994,46.05,48
	H466c16.569-0.015,30.012,13.405,30.026,29.974c0.006,7.178-2.561,14.12-7.236,19.566L320.09,294c-0.034,0.04-0.065,0.084-0.09,0.13
	V440c0.039,13.216-10.644,23.961-23.86,24C296.093,464,296.047,464,296,464z"/>
</svg>
