<?xml version="1.0" encoding="iso-8859-1"?>
<!-- Generator: Adobe Illustrator 24.3.0, SVG Export Plug-In . SVG Version: 6.00 Build 0)  -->
<svg version="1.1" id="Layer_1" xmlns="http://www.w3.org/2000/svg" xmlns:xlink="http://www.w3.org/1999/xlink" x="0px" y="0px"
	 viewBox="0 0 512 512" style="enable-background:new 0 0 512 512;" xml:space="preserve">
<path d="M483.13,245.38C461.92,149.49,430,98.31,382.65,84.33c-9.953-2.92-20.278-4.378-30.65-4.33c-13.71,0-25.65,3.34-38.28,6.88
	C298.5,91.15,281.21,96,256,96s-42.51-4.84-57.76-9.11C185.6,83.34,173.67,80,160,80c-10.726-0.037-21.405,1.417-31.73,4.32
	c-47.1,13.92-79,65.08-100.52,161C4.61,348.54,16,413.71,59.69,428.83c5.989,2.111,12.29,3.199,18.64,3.22
	c29.93,0,53.93-24.93,70.33-45.34c18.53-23.1,40.22-34.82,107.34-34.82c59.95,0,84.76,8.13,106.19,34.82
	c13.47,16.78,26.2,28.52,38.9,35.91c16.89,9.82,33.77,12,50.16,6.37c25.82-8.81,40.62-32.1,44-69.24
	C497.82,331.27,493.86,293.86,483.13,245.38z M208,240h-32v32c0,8.837-7.163,16-16,16s-16-7.163-16-16v-32h-32
	c-8.837,0-16-7.163-16-16s7.163-16,16-16h32v-32c0-8.837,7.163-16,16-16s16,7.163,16,16v32h32c8.837,0,16,7.163,16,16
	S216.837,240,208,240z M292,244c-11.046,0-20-8.954-20-20s8.954-20,20-20s20,8.954,20,20S303.046,244,292,244z M336,288
	c-11.046,0-20-8.954-20-20s8.954-20,20-20s20,8.954,20,20c0,0.017,0,0.033,0,0.05C355.972,279.076,347.026,288,336,288z M336,200
	c-11.046,0-20-8.954-20-20s8.954-20,20-20s20,8.954,20,20S347.046,200,336,200z M380,244c-11.046,0-20-8.954-20-20s8.954-20,20-20
	s20,8.954,20,20S391.046,244,380,244z"/>
</svg>
