<?xml version="1.0" encoding="iso-8859-1"?>
<!-- Generator: Adobe Illustrator 24.3.0, SVG Export Plug-In . SVG Version: 6.00 Build 0)  -->
<svg version="1.1" id="Layer_1" xmlns="http://www.w3.org/2000/svg" xmlns:xlink="http://www.w3.org/1999/xlink" x="0px" y="0px"
	 viewBox="0 0 512 512" style="enable-background:new 0 0 512 512;" xml:space="preserve">
<path d="M478.07,356.88L439,151c-8.86-40.35-23-71-88-71H145c-66,0-79.14,30.65-88,71L18,356.88c-7,34.12,4.43,61.25,33.37,71.81
	S103,423,119.18,391.3l15.42-30.52c2.723-5.386,8.245-8.781,14.28-8.78h198.28c6.035-0.001,11.557,3.394,14.28,8.78l15.42,30.52
	c16.14,31.7,38.88,48,67.81,37.39S485,391,478.07,356.88z M224,240h-48v48h-32v-48H96v-32h48v-48h32v48h48V240z M292,244
	c-11.046,0-20-8.954-20-20s8.954-20,20-20s20,8.954,20,20S303.046,244,292,244z M336,288c-11.046,0-20-8.954-20-20s8.954-20,20-20
	s20,8.954,20,20S347.046,288,336,288z M336,200c-11.046,0-20-8.954-20-20s8.954-20,20-20s20,8.954,20,20S347.046,200,336,200z
	 M380,244c-11.046,0-20-8.954-20-20s8.954-20,20-20s20,8.954,20,20S391.046,244,380,244z"/>
</svg>
