<?xml version="1.0" encoding="iso-8859-1"?>
<!-- Generator: Adobe Illustrator 24.3.0, SVG Export Plug-In . SVG Version: 6.00 Build 0)  -->
<svg version="1.1" id="Layer_1" xmlns="http://www.w3.org/2000/svg" xmlns:xlink="http://www.w3.org/1999/xlink" x="0px" y="0px"
	 viewBox="0 0 512 512" style="enable-background:new 0 0 512 512;" xml:space="preserve">
<path d="M78.327,432.058c-5.987,0.001-12.204-0.996-18.65-3.228c-43.7-15.155-55.047-80.32-31.96-183.494
	c21.479-95.945,53.43-147.11,100.553-161.021l0.221-0.063c10.285-2.876,20.938-4.301,31.592-4.251
	c13.612,0,25.544,3.342,38.177,6.881C213.519,91.155,230.813,96,256,96c25.177,0,42.459-4.842,57.708-9.114
	C326.346,83.345,338.282,80,352,80c10.294-0.041,20.602,1.396,30.561,4.3c47.424,14.019,79.363,65.196,100.571,161.074
	c10.729,48.482,14.689,85.897,12.108,114.382c-3.363,37.134-18.163,60.435-43.988,69.256c-16.4,5.591-33.274,3.446-50.165-6.375
	c-12.718-7.394-25.443-19.141-38.904-35.912C340.77,360.044,315.961,351.911,256,351.911c-60.141,0-86.222,8.457-107.333,34.805
	C132.254,407.129,108.241,432.055,78.327,432.058z M256,319.911c60.698,0,99.574,7.456,131.139,46.785
	c21.355,26.607,38.942,37.089,53.778,32.031c33.329-11.385,24.362-85.919,10.971-146.44v-0.001
	c-18.175-82.166-43.802-127.071-78.344-137.282c-6.819-1.989-13.93-3.005-21.087-3.005c-0.126,0-0.252,0-0.377,0.001
	c-9.399,0-18.375,2.515-29.739,5.699C305.961,122.289,285.575,128,256,128c-29.583,0-49.982-5.714-66.372-10.305
	C178.27,114.513,169.298,112,160,112c-7.798-0.028-15.389,0.982-22.778,3.038c-34.275,10.196-59.88,55.105-78.278,137.288
	c-9.363,41.844-12.811,77.89-9.968,104.24c1.772,16.438,6.886,37.071,21.177,42.027c19.35,6.704,38.786-13.533,53.558-31.908
	c14.653-18.286,31.393-30.129,52.666-37.248C196.065,322.849,220.623,319.911,256,319.911z"/>
<circle cx="292" cy="224" r="20"/>
<path d="M336,288c-11.046,0-20-8.954-20-20s8.954-20,20-20s20,8.954,20,20c0,0.017,0,0.033,0,0.05
	C355.972,279.076,347.026,288,336,288z"/>
<circle cx="336" cy="180" r="20"/>
<circle cx="380" cy="224" r="20"/>
<path d="M160,288c-8.836,0-16-7.163-16-16V176c0-8.836,7.164-16,16-16s16,7.164,16,16V272C176,280.837,168.836,288,160,288z"/>
<path d="M208,240h-96c-8.836,0-16-7.164-16-16s7.164-16,16-16h96c8.836,0,16,7.164,16,16S216.836,240,208,240z"/>
</svg>
