<?xml version="1.0" encoding="iso-8859-1"?>
<!-- Generator: Adobe Illustrator 24.3.0, SVG Export Plug-In . SVG Version: 6.00 Build 0)  -->
<svg version="1.1" id="Layer_1" xmlns="http://www.w3.org/2000/svg" xmlns:xlink="http://www.w3.org/1999/xlink" x="0px" y="0px"
	 viewBox="0 0 512 512" style="enable-background:new 0 0 512 512;" xml:space="preserve">
<path d="M312,176h-72v-72c0-39.701,32.299-72,72-72s72,32.299,72,72S351.701,176,312,176z M272,144h40c22.056,0,40-17.944,40-40
	s-17.944-40-40-40s-40,17.944-40,40V144z"/>
<path d="M272,176h-72c-39.701,0-72-32.299-72-72s32.299-72,72-72s72,32.299,72,72V176z M200,64c-22.056,0-40,17.944-40,40
	s17.944,40,40,40h40v-40C240,81.944,222.056,64,200,64z"/>
<path d="M416,288H96C69.533,288,48,266.467,48,240v-48c0-26.467,21.533-48,48-48h320c26.468,0,48,21.533,48,48v48
	C464,266.467,442.468,288,416,288z M96,176c-8.822,0-16,7.178-16,16v48C80,248.823,87.178,256,96,256h320
	c8.822,0,16-7.178,16-16.001v-48c0-8.822-7.178-16-16-16H96z"/>
<path d="M368,480H144c-35.29,0-64-28.71-64-64V272c0-8.837,7.164-16,16-16s16,7.163,16,16v144c0,17.645,14.355,32,32,32h224
	c17.645,0,32-14.355,32-32V272c0-8.837,7.163-16,16-16s16,7.163,16,16v144C432,451.29,403.29,480,368,480z"/>
<path d="M256,480c-8.836,0-16-7.163-16-16V160c0-8.836,7.164-16,16-16c8.837,0,16,7.164,16,16v304C272,472.837,264.837,480,256,480z
	"/>
</svg>
