<?xml version="1.0" encoding="iso-8859-1"?>
<!-- Generator: Adobe Illustrator 24.3.0, SVG Export Plug-In . SVG Version: 6.00 Build 0)  -->
<svg version="1.1" id="Layer_1" xmlns="http://www.w3.org/2000/svg" xmlns:xlink="http://www.w3.org/1999/xlink" x="0px" y="0px"
	 viewBox="0 0 512 512" style="enable-background:new 0 0 512 512;" xml:space="preserve">
<path style="fill:none;" d="M200,144h40v-40c0-22.091-17.909-40-40-40s-40,17.909-40,40S177.909,144,200,144z"/>
<path style="fill:none;" d="M352,104c0-22.091-17.909-40-40-40s-40,17.909-40,40v40h40C334.091,144,352,126.091,352,104z"/>
<path d="M80,416c0,35.346,28.654,64,64,64h92c2.209,0,4-1.791,4-4V292c0-2.209-1.791-4-4-4H88c-4.418,0-8,3.582-8,8V416z"/>
<path d="M240,252V144h32v108c0,2.209,1.791,4,4,4h140c5.451,0,10.862-0.93,16-2.75l0,0c19.16-6.802,31.971-24.919,32-45.25v-16
	c0-26.51-21.49-48-48-48h-40.54c-1.104-0.018-1.985-0.927-1.968-2.032c0.005-0.34,0.098-0.674,0.268-0.968
	c20.265-34.213,8.957-78.377-25.257-98.641c-30.66-18.16-69.991-11.16-92.503,16.461c-25.122-30.824-70.475-35.446-101.299-10.323
	C127.079,71.009,120.08,110.34,138.24,141c0.552,0.956,0.225,2.18-0.732,2.732c-0.295,0.17-0.628,0.262-0.968,0.268H96
	c-26.51,0-48,21.49-48,48v16c0.029,20.331,12.84,38.448,32,45.25l0,0c5.138,1.82,10.549,2.75,16,2.75h140
	C238.209,256,240,254.209,240,252z M272,104c0-22.091,17.909-40,40-40s40,17.909,40,40s-17.909,40-40,40h-40V104z M197.14,64.1
	c22.035-1.58,41.178,15.003,42.758,37.038C239.966,102.09,240,103.045,240,104v40h-40c-22.091-0.057-39.954-18.011-39.897-40.103
	c0.054-20.902,16.192-38.239,37.037-39.787V64.1z"/>
<path d="M276,480h92c35.346,0,64-28.654,64-64V296c0-4.418-3.582-8-8-8H276c-2.209,0-4,1.791-4,4v184
	C272,478.209,273.791,480,276,480z"/>
</svg>
