<?xml version="1.0" encoding="iso-8859-1"?>
<!-- Generator: Adobe Illustrator 24.3.0, SVG Export Plug-In . SVG Version: 6.00 Build 0)  -->
<svg version="1.1" id="Layer_1" xmlns="http://www.w3.org/2000/svg" xmlns:xlink="http://www.w3.org/1999/xlink" x="0px" y="0px"
	 viewBox="0 0 512 512" style="enable-background:new 0 0 512 512;" xml:space="preserve">
<path style="fill:none;" d="M346,110c0-18.778-15.222-34-34-34s-34,15.222-34,34v34h34C330.778,144,346,128.778,346,110z"/>
<path style="fill:none;" d="M234,110c0-18.778-15.222-34-34-34s-34,15.222-34,34s15.222,34,34,34h34V110z"/>
<path d="M234,144h44v112h164c12.15,0,22-9.85,22-22v-68c0-12.15-9.85-22-22-22h-59.82c18.804-38.727,2.653-85.365-36.074-104.168
	C315.78,25.107,279.424,31.546,256,55.79c-30.044-30.872-79.426-31.543-110.298-1.499C121.677,77.672,115.279,113.789,129.81,144H70
	c-12.15,0-22,9.85-22,22v68c0,12.15,9.85,22,22,22h164V144z M278,110c0-18.778,15.222-34,34-34s34,15.222,34,34s-15.222,34-34,34
	h-34V110z M166,110c0-18.778,15.222-34,34-34s34,15.222,34,34v34h-34C181.222,144,166,128.778,166,110z"/>
<path d="M278,480h132c12.15,0,22-9.85,22-22V288H278V480z"/>
<path d="M80,458c0,12.15,9.85,22,22,22h132V288H80V458z"/>
</svg>
