<?xml version="1.0" encoding="iso-8859-1"?>
<!-- Generator: Adobe Illustrator 24.3.0, SVG Export Plug-In . SVG Version: 6.00 Build 0)  -->
<svg version="1.1" id="Layer_1" xmlns="http://www.w3.org/2000/svg" xmlns:xlink="http://www.w3.org/1999/xlink" x="0px" y="0px"
	 viewBox="0 0 512 512" style="enable-background:new 0 0 512 512;" xml:space="preserve">
<path d="M352,96c-35.346,0.005-63.996,28.662-63.992,64.008c0.001,8.628,1.747,17.166,5.132,25.102l-101.14,88V151.39
	c30.611-17.673,41.099-56.815,23.426-87.426S158.611,22.866,128,40.539s-41.099,56.815-23.426,87.426
	c5.617,9.729,13.696,17.808,23.426,23.426v209.22c-30.611,17.673-41.099,56.815-23.426,87.426s56.815,41.099,87.426,23.426
	c30.611-17.673,41.099-56.815,23.426-87.426c-5.617-9.729-13.696-17.808-23.426-23.426V358l154.25-134.27
	c1.9,0.17,3.81,0.27,5.75,0.27c35.346,0,64-28.654,64-64S387.346,96,352,96z M160,64c17.673,0,32,14.327,32,32s-14.327,32-32,32
	s-32-14.327-32-32S142.327,64,160,64z M160,448c-17.673,0-32-14.327-32-32s14.327-32,32-32s32,14.327,32,32S177.673,448,160,448z
	 M352,192c-17.673,0-32-14.327-32-32s14.327-32,32-32s32,14.327,32,32S369.673,192,352,192z"/>
</svg>
