<?xml version="1.0" encoding="iso-8859-1"?>
<!-- Generator: Adobe Illustrator 24.3.0, SVG Export Plug-In . SVG Version: 6.00 Build 0)  -->
<svg version="1.1" id="Layer_1" xmlns="http://www.w3.org/2000/svg" xmlns:xlink="http://www.w3.org/1999/xlink" x="0px" y="0px"
	 viewBox="0 0 512 512" style="enable-background:new 0 0 512 512;" xml:space="preserve">
<path d="M218.31,340.69c-6.25-6.246-16.381-6.243-22.627,0.007c-2.997,2.998-4.681,7.064-4.683,11.303v32h-20
	c-15.464,0-28-12.536-28-28V152c30.924-17.118,42.116-56.065,24.998-86.989s-56.065-42.116-86.989-24.998
	s-42.116,56.065-24.998,86.989C61.45,136.827,69.378,145.049,79,150.84V356c0.055,50.787,41.213,91.945,92,92h20v32
	c0.004,8.837,7.171,15.997,16.007,15.993c4.239-0.002,8.304-1.686,11.303-4.683l64-64c6.243-6.248,6.243-16.372,0-22.62
	L218.31,340.69z M112,64c17.673,0,32,14.327,32,32s-14.327,32-32,32s-32-14.327-32-32S94.327,64,112,64z"/>
<path d="M432,360.61V156c-0.055-50.787-41.213-91.945-92-92h-20V32c-0.004-8.837-7.171-15.997-16.007-15.993
	c-4.239,0.002-8.304,1.686-11.303,4.683l-64,64c-6.243,6.248-6.243,16.372,0,22.62l64,64c6.25,6.246,16.381,6.243,22.627-0.007
	c2.996-2.998,4.681-7.064,4.683-11.303v-32h20c15.464,0,28,12.536,28,28v204.61c-30.611,17.673-41.099,56.815-23.426,87.426
	c17.673,30.611,56.815,41.099,87.426,23.426c30.611-17.673,41.099-56.815,23.426-87.426C449.808,374.306,441.729,366.227,432,360.61
	z M400,448c-17.673,0-32-14.327-32-32s14.327-32,32-32s32,14.327,32,32S417.673,448,400,448z"/>
</svg>
