<?xml version="1.0" encoding="iso-8859-1"?>
<!-- Generator: Adobe Illustrator 24.3.0, SVG Export Plug-In . SVG Version: 6.00 Build 0)  -->
<svg version="1.1" id="Layer_1" xmlns="http://www.w3.org/2000/svg" xmlns:xlink="http://www.w3.org/1999/xlink" x="0px" y="0px"
	 viewBox="0 0 512 512" style="enable-background:new 0 0 512 512;" xml:space="preserve">
<path d="M160,160c-35.29,0-64-28.71-64-64s28.71-64,64-64s64,28.71,64,64S195.29,160,160,160z M160,64c-17.645,0-32,14.355-32,32
	s14.355,32,32,32s32-14.355,32-32S177.645,64,160,64z"/>
<path d="M160,480c-35.29,0-64-28.71-64-64s28.71-64,64-64s64,28.71,64,64S195.29,480,160,480z M160,384c-17.645,0-32,14.355-32,32
	s14.355,32,32,32s32-14.355,32-32S177.645,384,160,384z"/>
<path d="M160,384c-8.836,0-16-7.163-16-16V144c0-8.836,7.164-16,16-16s16,7.164,16,16V368C176,376.837,168.836,384,160,384z"/>
<path d="M352,224c-35.29,0-64-28.71-64-64s28.71-64,64-64s64,28.71,64,64S387.29,224,352,224z M352,128c-17.645,0-32,14.355-32,32
	s14.355,32,32,32s32-14.355,32-32S369.645,128,352,128z"/>
<path d="M160,384c-8.836,0-16-7.163-16-16c0-29.965,12.091-52.472,35.938-66.896c19.355-11.706,44.093-16.826,68.016-21.776
	C302.543,268.032,336,258.542,336,208c0-8.836,7.163-16,16-16s16,7.164,16,16c0,35.016-13.182,61.232-39.179,77.919
	c-21.504,13.803-48.386,19.365-74.382,24.745C204.343,321.032,176,328.806,176,368C176,376.837,168.836,384,160,384z"/>
</svg>
