<?xml version="1.0" encoding="iso-8859-1"?>
<!-- Generator: Adobe Illustrator 24.3.0, SVG Export Plug-In . SVG Version: 6.00 Build 0)  -->
<svg version="1.1" id="Layer_1" xmlns="http://www.w3.org/2000/svg" xmlns:xlink="http://www.w3.org/1999/xlink" x="0px" y="0px"
	 viewBox="0 0 512 512" style="enable-background:new 0 0 512 512;" xml:space="preserve">
<path d="M304,176c-4.095,0-8.189-1.562-11.313-4.687l-64-64c-6.249-6.248-6.249-16.379,0-22.627l64-64
	c6.248-6.249,16.379-6.249,22.627,0c6.249,6.248,6.249,16.379,0,22.627L262.627,96l52.687,52.687c6.249,6.248,6.249,16.379,0,22.627
	C312.189,174.438,308.095,176,304,176z"/>
<path d="M207,496c-4.095,0-8.189-1.562-11.313-4.687c-6.249-6.248-6.249-16.379,0-22.627L248.373,416l-52.686-52.687
	c-6.249-6.248-6.249-16.379,0-22.627c6.248-6.248,16.379-6.248,22.627,0l64,64c6.249,6.248,6.249,16.379,0,22.627l-64,64
	C215.189,494.438,211.095,496,207,496z"/>
<path d="M112,160c-35.29,0-64-28.71-64-64s28.71-64,64-64s64,28.71,64,64S147.29,160,112,160z M112,64c-17.645,0-32,14.355-32,32
	s14.355,32,32,32s32-14.355,32-32S129.645,64,112,64z"/>
<path d="M400,480c-35.29,0-64-28.71-64-64s28.71-64,64-64s64,28.71,64,64S435.29,480,400,480z M400,384c-17.645,0-32,14.355-32,32
	s14.355,32,32,32s32-14.355,32-32S417.645,384,400,384z"/>
<path d="M400,384c-8.837,0-16-7.163-16-16V156c0-24.262-19.738-44-44-44h-84c-8.836,0-16-7.164-16-16s7.164-16,16-16h84
	c41.906,0,76,34.093,76,76V368C416,376.837,408.837,384,400,384z"/>
<path d="M255,432h-84c-41.907,0-76-34.094-76-76V144c0-8.836,7.164-16,16-16s16,7.164,16,16V356c0,24.262,19.738,44,44,44h84
	c8.837,0,16,7.163,16,16S263.837,432,255,432z"/>
</svg>
