<?xml version="1.0" encoding="iso-8859-1"?>
<!-- Generator: Adobe Illustrator 24.3.0, SVG Export Plug-In . SVG Version: 6.00 Build 0)  -->
<svg version="1.1" id="Layer_1" xmlns="http://www.w3.org/2000/svg" xmlns:xlink="http://www.w3.org/1999/xlink" x="0px" y="0px"
	 viewBox="0 0 512 512" style="enable-background:new 0 0 512 512;" xml:space="preserve">
<path d="M384,32c-35.346,0.006-63.995,28.664-63.989,64.011c0.002,9.597,2.161,19.07,6.319,27.719l-70.83,80.82l-70.19-80.1
	c15.713-31.662,2.783-70.066-28.879-85.779S86.365,35.888,70.652,67.55s-2.783,70.066,28.879,85.779
	c8.848,4.391,18.592,6.674,28.469,6.671c1.1,0,2.2,0,3.29-0.08L224,265.7v94.91c-30.611,17.673-41.099,56.815-23.426,87.426
	s56.815,41.099,87.426,23.426c30.611-17.673,41.099-56.815,23.426-87.426c-5.617-9.729-13.696-17.808-23.426-23.426v-96.05
	l91.78-104.71c1.39,0.09,2.8,0.15,4.22,0.15c35.346,0,64-28.654,64-64S419.346,32,384,32z M96,96c0-17.673,14.327-32,32-32
	s32,14.327,32,32s-14.327,32-32,32S96,113.673,96,96z M256,448c-17.673,0-32-14.327-32-32s14.327-32,32-32s32,14.327,32,32
	S273.673,448,256,448z M384,128c-17.673,0-32-14.327-32-32s14.327-32,32-32s32,14.327,32,32S401.673,128,384,128z"/>
</svg>
