<?xml version="1.0" encoding="iso-8859-1"?>
<!-- Generator: Adobe Illustrator 24.3.0, SVG Export Plug-In . SVG Version: 6.00 Build 0)  -->
<svg version="1.1" id="Layer_1" xmlns="http://www.w3.org/2000/svg" xmlns:xlink="http://www.w3.org/1999/xlink" x="0px" y="0px"
	 viewBox="0 0 512 512" style="enable-background:new 0 0 512 512;" xml:space="preserve">
<path d="M128,480c-35.29,0-64-28.71-64-64s28.71-64,64-64s64,28.71,64,64S163.29,480,128,480z M128,384c-17.645,0-32,14.355-32,32
	s14.355,32,32,32s32-14.355,32-32S145.645,384,128,384z"/>
<path d="M128,384c-8.836,0-16-7.163-16-16V144c0-8.836,7.164-16,16-16s16,7.164,16,16V368C144,376.837,136.836,384,128,384z"/>
<path d="M288,176c-4.095,0-8.189-1.562-11.313-4.687l-64-64c-6.249-6.248-6.249-16.379,0-22.627l64-64
	c6.248-6.249,16.379-6.249,22.627,0c6.249,6.248,6.249,16.379,0,22.627L246.627,96l52.686,52.687c6.249,6.248,6.249,16.379,0,22.627
	C296.189,174.438,292.095,176,288,176z"/>
<path d="M128,160c-35.29,0-64-28.71-64-64s28.71-64,64-64s64,28.71,64,64S163.29,160,128,160z M128,64c-17.645,0-32,14.355-32,32
	s14.355,32,32,32s32-14.355,32-32S145.645,64,128,64z"/>
<path d="M384,480c-35.29,0-64-28.71-64-64s28.71-64,64-64s64,28.71,64,64S419.29,480,384,480z M384,384c-17.645,0-32,14.355-32,32
	s14.355,32,32,32s32-14.355,32-32S401.645,384,384,384z"/>
<path d="M384,384c-8.837,0-16-7.163-16-16V156c0-24.262-19.738-44-44-44h-84c-8.836,0-16-7.164-16-16s7.164-16,16-16h84
	c41.906,0,76,34.093,76,76V368C400,376.837,392.837,384,384,384z"/>
</svg>
