<?xml version="1.0" encoding="iso-8859-1"?>
<!-- Generator: Adobe Illustrator 24.3.0, SVG Export Plug-In . SVG Version: 6.00 Build 0)  -->
<svg version="1.1" id="Layer_1" xmlns="http://www.w3.org/2000/svg" xmlns:xlink="http://www.w3.org/1999/xlink" x="0px" y="0px"
	 viewBox="0 0 512 512" style="enable-background:new 0 0 512 512;" xml:space="preserve">
<path d="M129,160c-35.29,0-64-28.71-64-64s28.71-64,64-64s64,28.71,64,64S164.29,160,129,160z M129,64c-17.645,0-32,14.355-32,32
	s14.355,32,32,32s32-14.355,32-32S146.645,64,129,64z"/>
<path d="M129,480c-35.29,0-64-28.71-64-64s28.71-64,64-64s64,28.71,64,64S164.29,480,129,480z M129,384c-17.645,0-32,14.355-32,32
	s14.355,32,32,32s32-14.355,32-32S146.645,384,129,384z"/>
<path d="M129,384c-8.836,0-16-7.163-16-16V144c0-8.836,7.164-16,16-16s16,7.164,16,16V368C145,376.837,137.836,384,129,384z"/>
<path d="M385,352c-35.29,0-64-28.71-64-64S349.71,224,385,224s64,28.71,64,64.001S420.29,352,385,352z M385,256
	c-17.645,0-32,14.355-32,32.001c0,17.645,14.355,32,32,32s32-14.355,32-32C417,270.355,402.645,256,385,256z"/>
<path d="M337,304C228.41,304,113,247.924,113,144c0-8.836,7.164-16,16-16s16,7.164,16,16c0,48.054,32.754,77.794,60.232,94.28
	C240.948,259.71,288.976,272,337,272c8.837,0,16,7.163,16,16S345.837,304,337,304z"/>
</svg>
