<?xml version="1.0" encoding="iso-8859-1"?>
<!-- Generator: Adobe Illustrator 24.3.0, SVG Export Plug-In . SVG Version: 6.00 Build 0)  -->
<svg version="1.1" id="Layer_1" xmlns="http://www.w3.org/2000/svg" xmlns:xlink="http://www.w3.org/1999/xlink" x="0px" y="0px"
	 viewBox="0 0 512 512" style="enable-background:new 0 0 512 512;" xml:space="preserve">
<path d="M385,224c-22.808,0.011-43.887,12.16-55.33,31.89c-42.23-1.21-85.19-12.72-116.21-31.33c-32.2-19.32-49.71-44-52.15-73.35
	c30.511-17.844,40.78-57.044,22.936-87.555s-57.044-40.78-87.555-22.936s-40.78,57.044-22.936,87.555
	c5.61,9.593,13.621,17.559,23.245,23.116v209.22c-30.611,17.673-41.099,56.815-23.426,87.426s56.815,41.099,87.426,23.426
	c30.611-17.673,41.099-56.815,23.426-87.426c-5.617-9.729-13.696-17.808-23.426-23.426v-94.46c44.76,34,107.28,52.38,168.56,53.76
	c17.623,30.639,56.748,41.191,87.387,23.567s41.191-56.748,23.567-87.388C429.089,236.226,407.915,223.987,385,224z M129,64
	c17.673,0,32,14.327,32,32s-14.327,32-32,32s-32-14.327-32-32S111.327,64,129,64z M129,448c-17.673,0-32-14.327-32-32
	s14.327-32,32-32s32,14.327,32,32S146.673,448,129,448z M385,320c-17.673,0-32-14.327-32-32s14.327-32,32-32s32,14.327,32,32
	S402.673,320,385,320z"/>
</svg>
