<?xml version="1.0" encoding="iso-8859-1"?>
<!-- Generator: Adobe Illustrator 24.3.0, SVG Export Plug-In . SVG Version: 6.00 Build 0)  -->
<svg version="1.1" id="Layer_1" xmlns="http://www.w3.org/2000/svg" xmlns:xlink="http://www.w3.org/1999/xlink" x="0px" y="0px"
	 viewBox="0 0 512 512" style="enable-background:new 0 0 512 512;" xml:space="preserve">
<path d="M209,384h-37c-15.464,0-28-12.536-28-28V152c30.924-17.118,42.116-56.065,24.998-86.989s-56.065-42.116-86.989-24.998
	s-42.116,56.065-24.998,86.989C62.45,136.827,70.378,145.049,80,150.84V356c0.055,50.787,41.213,91.945,92,92h37v55.21L294.39,416
	L209,328.79V384z M113,64c17.673,0,32,14.327,32,32s-14.327,32-32,32s-32-14.327-32-32S95.327,64,113,64z"/>
<path d="M432,360.61V156c-0.055-50.787-41.213-91.945-92-92h-35V9.93L217.14,96L305,182.07V128h35c15.464,0,28,12.536,28,28v204.61
	c-30.611,17.673-41.099,56.815-23.426,87.426c17.673,30.611,56.815,41.099,87.426,23.426c30.611-17.673,41.099-56.815,23.426-87.426
	C449.808,374.306,441.729,366.227,432,360.61z M400,448c-17.673,0-32-14.327-32-32s14.327-32,32-32s32,14.327,32,32
	S417.673,448,400,448z"/>
</svg>
