<?xml version="1.0" encoding="iso-8859-1"?>
<!-- Generator: Adobe Illustrator 24.3.0, SVG Export Plug-In . SVG Version: 6.00 Build 0)  -->
<svg version="1.1" id="Layer_1" xmlns="http://www.w3.org/2000/svg" xmlns:xlink="http://www.w3.org/1999/xlink" x="0px" y="0px"
	 viewBox="0 0 512 512" style="enable-background:new 0 0 512 512;" xml:space="preserve">
<path d="M448,96c0.02-35.346-28.618-64.016-63.965-64.035S320.02,60.583,320,95.929c-0.013,22.75,12.052,43.796,31.69,55.281
	c-1.79,20.87-11.47,38.1-28.87,51.29C305.07,216,280.09,224,256,224s-49.07-8-66.82-21.5c-17.4-13.19-27.08-30.42-28.87-51.29
	c30.513-17.842,40.784-57.041,22.943-87.554s-57.041-40.784-87.554-22.943s-40.784,57.041-22.943,87.554
	c5.649,9.661,13.732,17.671,23.444,23.233c2.08,40.87,21.17,76.87,54.31,102C171.3,269.26,197,280.19,224,285.09v75.52
	c-30.611,17.673-41.099,56.815-23.426,87.426s56.815,41.099,87.426,23.426c30.611-17.673,41.099-56.815,23.426-87.426
	c-5.617-9.729-13.696-17.808-23.426-23.426v-75.52c27-4.9,52.7-15.83,73.49-31.59c33.14-25.13,52.23-61.13,54.31-102
	C435.702,140.105,447.985,118.933,448,96z M128,64c17.673,0,32,14.327,32,32s-14.327,32-32,32s-32-14.327-32-32S110.327,64,128,64z
	 M256,448c-17.673,0-32-14.327-32-32s14.327-32,32-32s32,14.327,32,32S273.673,448,256,448z M384,128c-17.673,0-32-14.327-32-32
	s14.327-32,32-32s32,14.327,32,32S401.673,128,384,128z"/>
</svg>
