<?xml version="1.0" encoding="iso-8859-1"?>
<!-- Generator: Adobe Illustrator 24.3.0, SVG Export Plug-In . SVG Version: 6.00 Build 0)  -->
<svg version="1.1" id="Layer_1" xmlns="http://www.w3.org/2000/svg" xmlns:xlink="http://www.w3.org/1999/xlink" x="0px" y="0px"
	 viewBox="0 0 512 512" style="enable-background:new 0 0 512 512;" xml:space="preserve">
<path d="M256,368C194.243,368,144,317.757,144,256c0-61.757,50.243-112,112-112s112,50.243,112,112C368,317.757,317.757,368,256,368
	z M256,176c-44.112,0-80,35.888-80,80C176,300.113,211.888,336,256,336s80-35.888,80-80.001C336,211.888,300.112,176,256,176z"/>
<path d="M160,272H48c-8.836,0-16-7.164-16-16.001c0-8.836,7.164-16,16-16h112c8.836,0,16,7.164,16,16
	C176,264.836,168.836,272,160,272z"/>
<path d="M464,272H352c-8.837,0-16-7.164-16-16.001c0-8.836,7.163-16,16-16h112c8.837,0,16,7.164,16,16
	C480,264.836,472.837,272,464,272z"/>
</svg>
