<?xml version="1.0" encoding="iso-8859-1"?>
<!-- Generator: Adobe Illustrator 24.3.0, SVG Export Plug-In . SVG Version: 6.00 Build 0)  -->
<svg version="1.1" id="Layer_1" xmlns="http://www.w3.org/2000/svg" xmlns:xlink="http://www.w3.org/1999/xlink" x="0px" y="0px"
	 viewBox="0 0 512 512" style="enable-background:new 0 0 512 512;" xml:space="preserve">
<path d="M192,96c0.014-35.346-28.628-64.012-63.974-64.026S64.014,60.602,64,95.948c-0.009,22.46,11.756,43.281,31,54.862v209.8
	c-30.611,17.673-41.099,56.815-23.426,87.426s56.815,41.099,87.426,23.426c30.611-17.673,41.099-56.815,23.426-87.426
	c-5.617-9.729-13.696-17.808-23.426-23.426V152C179.357,140.715,191.99,119.276,192,96z M128,64c17.673,0,32,14.327,32,32
	s-14.327,32-32,32s-32-14.327-32-32S110.327,64,128,64z M127,448c-17.673,0-32-14.327-32-32s14.327-32,32-32s32,14.327,32,32
	S144.673,448,127,448z"/>
<path d="M416,360.61V156c-0.055-50.787-41.213-91.945-92-92h-35V9.93L201.14,96L289,182.07V128h35c15.464,0,28,12.536,28,28v204.61
	c-30.611,17.673-41.099,56.815-23.426,87.426c17.673,30.611,56.815,41.099,87.426,23.426c30.611-17.673,41.099-56.815,23.426-87.426
	C433.808,374.306,425.729,366.227,416,360.61z M384,448c-17.673,0-32-14.327-32-32s14.327-32,32-32s32,14.327,32,32
	S401.673,448,384,448z"/>
</svg>
