<?xml version="1.0" encoding="iso-8859-1"?>
<!-- Generator: Adobe Illustrator 24.3.0, SVG Export Plug-In . SVG Version: 6.00 Build 0)  -->
<svg version="1.1" id="Layer_1" xmlns="http://www.w3.org/2000/svg" xmlns:xlink="http://www.w3.org/1999/xlink" x="0px" y="0px"
	 viewBox="0 0 512 512" style="enable-background:new 0 0 512 512;" xml:space="preserve">
<path d="M192,96c0.02-35.346-28.618-64.016-63.964-64.036C92.689,31.945,64.02,60.583,64,95.929
	c-0.013,22.878,12.187,44.022,32,55.461v209.22c-30.611,17.673-41.099,56.815-23.426,87.426s56.815,41.099,87.426,23.426
	c30.611-17.673,41.099-56.815,23.426-87.426c-5.617-9.729-13.696-17.808-23.426-23.426V151.39
	C179.791,139.964,191.987,118.852,192,96z M128,64c17.673,0,32,14.327,32,32s-14.327,32-32,32s-32-14.327-32-32S110.327,64,128,64z
	 M128,448c-17.673,0-32-14.327-32-32s14.327-32,32-32s32,14.327,32,32S145.673,448,128,448z"/>
<path d="M416,360.61V156c-0.055-50.787-41.213-91.945-92-92h-20V32c-0.004-8.837-7.171-15.997-16.007-15.993
	c-4.239,0.002-8.304,1.686-11.303,4.683l-64,64c-6.243,6.248-6.243,16.372,0,22.62l64,64c6.25,6.246,16.381,6.243,22.627-0.007
	c2.996-2.998,4.681-7.064,4.683-11.303v-32h20c15.464,0,28,12.536,28,28v204.61c-30.611,17.673-41.099,56.815-23.426,87.426
	c17.673,30.611,56.815,41.099,87.426,23.426c30.611-17.673,41.099-56.815,23.426-87.426C433.808,374.306,425.729,366.227,416,360.61
	z M384,448c-17.673,0-32-14.327-32-32s14.327-32,32-32s32,14.327,32,32S401.673,448,384,448z"/>
</svg>
