<?xml version="1.0" encoding="iso-8859-1"?>
<!-- Generator: Adobe Illustrator 24.3.0, SVG Export Plug-In . SVG Version: 6.00 Build 0)  -->
<svg version="1.1" id="Layer_1" xmlns="http://www.w3.org/2000/svg" xmlns:xlink="http://www.w3.org/1999/xlink" x="0px" y="0px"
	 viewBox="0 0 512 512" style="enable-background:new 0 0 512 512;" xml:space="preserve">
<path d="M384,224c-13.664-0.014-26.969,4.369-37.95,12.5L160,153.36v-2c30.611-17.673,41.099-56.815,23.426-87.426
	S126.611,22.836,96,40.509s-41.099,56.815-23.426,87.426c5.617,9.729,13.696,17.808,23.426,23.426v209.25
	c-30.611,17.673-41.099,56.815-23.426,87.426s56.815,41.099,87.426,23.426c30.611-17.673,41.099-56.815,23.426-87.426
	c-5.617-9.729-13.696-17.808-23.426-23.426V223.46l160.41,71.69c3.949,35.125,35.624,60.398,70.749,56.449
	c35.125-3.949,60.398-35.624,56.449-70.749C443.969,248.471,416.583,223.995,384,224z M128,64c17.673,0,32,14.327,32,32
	s-14.327,32-32,32s-32-14.327-32-32S110.327,64,128,64z M128,448c-17.673,0-32-14.327-32-32s14.327-32,32-32s32,14.327,32,32
	S145.673,448,128,448z M384,320c-17.673,0-32-14.327-32-32s14.327-32,32-32s32,14.327,32,32S401.673,320,384,320z"/>
</svg>
