<?xml version="1.0" encoding="iso-8859-1"?>
<!-- Generator: Adobe Illustrator 24.3.0, SVG Export Plug-In . SVG Version: 6.00 Build 0)  -->
<svg version="1.1" id="Layer_1" xmlns="http://www.w3.org/2000/svg" xmlns:xlink="http://www.w3.org/1999/xlink" x="0px" y="0px"
	 viewBox="0 0 512 512" style="enable-background:new 0 0 512 512;" xml:space="preserve">
<path d="M128,160c-35.29,0-64-28.71-64-64s28.71-64,64-64s64,28.71,64,64S163.29,160,128,160z M128,64c-17.645,0-32,14.355-32,32
	s14.355,32,32,32s32-14.355,32-32S145.645,64,128,64z"/>
<path d="M256,480c-35.29,0-64-28.71-64-64s28.71-64,64-64c35.29,0,64,28.71,64,64S291.29,480,256,480z M256,384
	c-17.645,0-32,14.355-32,32s14.355,32,32,32c17.645,0,32-14.355,32-32S273.645,384,256,384z"/>
<path d="M256,384c-8.836,0-16-7.163-16-16V256c0-8.836,7.164-16,16-16c8.837,0,16,7.164,16,16V368C272,376.837,264.837,384,256,384z
	"/>
<path d="M384,160c-35.29,0-64-28.71-64-64s28.71-64,64-64s64,28.71,64,64S419.29,160,384,160z M384,64c-17.645,0-32,14.355-32,32
	s14.355,32,32,32s32-14.355,32-32S401.645,64,384,64z"/>
<path d="M256,272c-34.708,0-69.634-11.391-95.823-31.251C128.659,216.849,112,183.393,112,144c0-8.836,7.164-16,16-16
	s16,7.164,16,16c0,36.632,19.312,58.967,35.513,71.252C200.252,230.98,228.131,240,256,240c8.837,0,16,7.164,16,16
	C272,264.836,264.837,272,256,272z"/>
<path d="M256,272c-8.836,0-16-7.164-16-16.001c0-8.836,7.164-16,16-16c27.869,0,55.748-9.02,76.487-24.748
	C348.688,202.967,368,180.632,368,144c0-8.836,7.163-16,16-16s16,7.164,16,16c0,39.394-16.659,72.849-48.177,96.75
	C325.634,260.61,290.708,272,256,272z"/>
</svg>
