<?xml version="1.0" encoding="iso-8859-1"?>
<!-- Generator: Adobe Illustrator 24.3.0, SVG Export Plug-In . SVG Version: 6.00 Build 0)  -->
<svg version="1.1" id="Layer_1" xmlns="http://www.w3.org/2000/svg" xmlns:xlink="http://www.w3.org/1999/xlink" x="0px" y="0px"
	 viewBox="0 0 512 512" style="enable-background:new 0 0 512 512;" xml:space="preserve">
<path d="M416,160c0.016-35.346-28.625-64.013-63.971-64.029S288.016,124.596,288,159.942c-0.01,22.764,12.072,43.82,31.73,55.298
	c-2.29,29.08-20.08,37-75,48.42c-17.76,3.68-35.93,7.45-52.71,13.93v-126.2c30.611-17.673,41.099-56.815,23.426-87.426
	s-56.815-41.099-87.426-23.426s-41.099,56.815-23.426,87.426c5.617,9.729,13.696,17.808,23.426,23.426v209.22
	c-30.609,17.675-41.095,56.818-23.419,87.427s56.818,41.095,87.427,23.419c30.609-17.675,41.095-56.818,23.419-87.427
	c-5.535-9.586-13.463-17.573-23.007-23.179c2.39-18,16-24.33,65.26-34.52c27.43-5.67,55.78-11.54,79.78-26.95
	c29-18.58,44.53-46.78,46.36-83.89C403.723,204.087,415.99,182.921,416,160z M160,64c17.673,0,32,14.327,32,32s-14.327,32-32,32
	s-32-14.327-32-32S142.327,64,160,64z M160,448c-17.673,0-32-14.327-32-32s14.327-32,32-32s32,14.327,32,32S177.673,448,160,448z
	 M352,192c-17.673,0-32-14.327-32-32s14.327-32,32-32s32,14.327,32,32S369.673,192,352,192z"/>
</svg>
