<?xml version="1.0" encoding="iso-8859-1"?>
<!-- Generator: Adobe Illustrator 24.3.0, SVG Export Plug-In . SVG Version: 6.00 Build 0)  -->
<svg version="1.1" id="Layer_1" xmlns="http://www.w3.org/2000/svg" xmlns:xlink="http://www.w3.org/1999/xlink" x="0px" y="0px"
	 viewBox="0 0 512 512" style="enable-background:new 0 0 512 512;" xml:space="preserve">
<path d="M288,248c-8.837,0-16-7.164-16-16c0-8.822-7.178-16-16-16s-16,7.178-16,16c0,8.836-7.164,16-16,16s-16-7.164-16-16
	c0-26.467,21.533-48,48-48c26.468,0,48,21.533,48,48C304,240.836,296.837,248,288,248z"/>
<path d="M464,216h-16c-8.837,0-16-7.164-16-16s7.163-16,16-16h16c8.837,0,16,7.164,16,16S472.837,216,464,216z"/>
<path d="M64,216H48c-8.836,0-16-7.164-16-16s7.164-16,16-16h16c8.836,0,16,7.164,16,16S72.836,216,64,216z"/>
<path d="M144,344c-18.583,0-33.566-2.55-45.803-7.794c-13.708-5.874-24.147-15.024-31.917-27.975C53.296,286.592,48,255.235,48,200
	c0-4.244,1.686-8.313,4.687-11.314c2.005-2.005,8.189-7.177,22.254-11.865C92.5,170.968,115.735,168,144,168s51.5,2.968,69.06,8.821
	c14.065,4.688,20.249,9.859,22.254,11.865c3.001,3.001,4.687,7.07,4.687,11.314c0,55.235-5.296,86.592-18.28,108.232
	C202.484,340.292,168.151,344,144,344z M80.054,209.088c0.521,42.205,4.797,67.899,13.666,82.68C104.389,309.549,124.19,312,144,312
	c33.521,0,43.975-9.724,50.28-20.232c8.869-14.781,13.145-40.475,13.666-82.68C199.661,205.554,180.788,200,144,200
	S88.339,205.554,80.054,209.088z"/>
<path d="M368,344c-18.584,0-33.566-2.55-45.803-7.794c-13.707-5.874-24.147-15.024-31.917-27.975
	C277.296,286.592,272,255.235,272,200c0-4.244,1.686-8.313,4.687-11.314c2.006-2.005,8.189-7.177,22.254-11.865
	C316.5,170.968,339.735,168,368,168s51.5,2.968,69.06,8.821c14.064,4.688,20.248,9.859,22.254,11.865
	c3.001,3.001,4.687,7.07,4.687,11.314c0,55.235-5.296,86.592-18.28,108.232C426.483,340.292,392.151,344,368,344z M304.055,209.088
	c0.521,42.205,4.796,67.899,13.665,82.68C328.389,309.549,348.19,312,368,312c33.521,0,43.976-9.724,50.28-20.232
	c8.869-14.781,13.145-40.475,13.665-82.68C423.661,205.554,404.788,200,368,200S312.339,205.554,304.055,209.088z M437.369,211.946
	h0.011H437.369z"/>
</svg>
