<?xml version="1.0" encoding="iso-8859-1"?>
<!-- Generator: Adobe Illustrator 24.3.0, SVG Export Plug-In . SVG Version: 6.00 Build 0)  -->
<svg version="1.1" id="Layer_1" xmlns="http://www.w3.org/2000/svg" xmlns:xlink="http://www.w3.org/1999/xlink" x="0px" y="0px"
	 viewBox="0 0 512 512" style="enable-background:new 0 0 512 512;" xml:space="preserve">
<path d="M464,184h-10.9c-5.049-2.982-10.416-5.39-16-7.18C419.5,171,396.26,168,368,168s-51.5,3-69.06,8.82
	c-14.06,4.69-20.25,9.86-22.25,11.87l0,0c-13.078-6.253-28.282-6.253-41.36,0l0,0c-2-2-8.19-7.18-22.25-11.87
	C195.5,171,172.26,168,144,168s-51.5,3-69.06,8.82c-5.584,1.79-10.951,4.198-16,7.18H48c-8.837,0-16,7.163-16,16s7.163,16,16,16
	h0.17c1,45.46,6.44,72.78,18.11,92.23c7.31,12.557,18.517,22.388,31.92,28c12.23,5.24,27.22,7.79,45.8,7.79
	c24.15,0,58.48-3.71,77.72-35.77c9.68-16.14,15.09-37.69,17.21-70.52c0.705-1.828,1.067-3.771,1.07-5.73c0-8.837,7.163-16,16-16
	c8.837,0,16,7.163,16,16c0.005,1.953,0.368,3.888,1.07,5.71c2.12,32.83,7.53,54.38,17.21,70.52c7.31,12.557,18.517,22.388,31.92,28
	c12.23,5.24,27.22,7.79,45.8,7.79c24.15,0,58.48-3.71,77.72-35.77c11.67-19.45,17.13-46.77,18.11-92.23H464c8.837,0,16-7.163,16-16
	s-7.163-16-16-16V184z"/>
</svg>
