<?xml version="1.0" encoding="iso-8859-1"?>
<!-- Generator: Adobe Illustrator 24.3.0, SVG Export Plug-In . SVG Version: 6.00 Build 0)  -->
<svg version="1.1" id="Layer_1" xmlns="http://www.w3.org/2000/svg" xmlns:xlink="http://www.w3.org/1999/xlink" x="0px" y="0px"
	 viewBox="0 0 512 512" style="enable-background:new 0 0 512 512;" xml:space="preserve">
<path d="M340.75,344.49c5.91-20.7,9.82-44.75,11.31-67.84c0.133-2.432-1.731-4.511-4.163-4.644
	c-0.099-0.005-0.198-0.007-0.297-0.006h-71.06c-2.447-0.022-4.448,1.943-4.47,4.39c0,0,0,0,0,0v55.3
	c0.026,2.316,1.829,4.224,4.14,4.38c20.025,1.618,39.811,5.438,59,11.39C337.56,348.167,340.038,346.838,340.75,344.49z"/>
<path d="M323.58,377.31c-15.224-4.445-30.822-7.487-46.6-9.09c-2.426-0.271-4.613,1.475-4.884,3.901
	c-0.014,0.129-0.023,0.259-0.026,0.389v65.24c0.076,2.468,2.138,4.406,4.605,4.33c0.76-0.023,1.502-0.24,2.155-0.63
	c15.9-9.27,29-24.84,40.84-45.43c1.94-3.36,4.89-9.15,6.67-12.69c1.035-2.131,0.145-4.698-1.986-5.733
	C324.106,377.477,323.847,377.381,323.58,377.31z"/>
<path d="M235.29,368.4c-15.759,1.499-31.345,4.452-46.56,8.82c-2.64,0.76-3.75,4.4-2.55,6.79c1.79,3.56,4,8.11,5.89,11.51
	c13,23,26.84,37.5,41.24,45.93c2.119,1.266,4.864,0.574,6.13-1.545c0.39-0.653,0.607-1.394,0.63-2.155v-65.27
	c-0.019-2.297-1.896-4.145-4.193-4.126C235.68,368.355,235.484,368.371,235.29,368.4z"/>
<path d="M235.6,272h-71.06c-2.435-0.031-4.435,1.918-4.466,4.354c-0.001,0.096,0.001,0.191,0.006,0.286
	c1.48,23.06,5.37,47.16,11.26,67.84c0.697,2.362,3.178,3.712,5.54,3.015c0.017-0.005,0.033-0.01,0.05-0.015
	c19.187-5.952,38.974-9.762,59-11.36c2.315-0.151,4.124-2.06,4.15-4.38V276.4c-0.016-2.447-2.013-4.417-4.46-4.4
	C235.614,272,235.607,272,235.6,272z"/>
<path d="M277,143.78c15.768-1.477,31.346-4.54,46.5-9.14c2.293-0.62,3.649-2.981,3.029-5.273c-0.068-0.25-0.158-0.493-0.269-0.727
	c-1.79-3.57-4.27-8.68-6.17-12.09c-12.29-22-26.14-37.35-41.24-46c-2.129-1.261-4.877-0.557-6.138,1.572
	c-0.383,0.646-0.597,1.378-0.622,2.128v65.23c0.057,2.446,2.087,4.382,4.533,4.325C276.749,143.802,276.875,143.794,277,143.78z"/>
<path d="M276.54,240h71.06c2.424,0.041,4.423-1.891,4.464-4.315c0.001-0.088,0-0.177-0.004-0.265c-1.48-22.77-5.27-47.8-11.16-68.22
	c-0.723-2.355-3.217-3.678-5.572-2.956c-0.006,0.002-0.012,0.004-0.018,0.006c-19,5.74-38.79,10.43-59.09,12
	c-2.301,0.131-4.112,2.015-4.15,4.32v55.11C272.114,238.106,274.114,240.039,276.54,240z"/>
<path d="M233.31,70.56c-15.42,8.57-29.17,24.43-41.47,46.37c-1.91,3.41-4.19,8.11-6,11.67c-1.018,2.152-0.098,4.721,2.054,5.739
	c0.227,0.107,0.464,0.195,0.706,0.261c15.148,4.685,30.747,7.759,46.54,9.17c2.432,0.266,4.619-1.49,4.885-3.922
	c0.013-0.122,0.022-0.245,0.025-0.368V74.26c-0.101-2.478-2.192-4.404-4.67-4.303C234.652,69.987,233.941,70.194,233.31,70.56z"/>
<path d="M235.92,176.26c-20.3-1.55-40.11-6.24-59.09-12c-2.352-0.732-4.852,0.58-5.584,2.932c-0.002,0.006-0.004,0.012-0.006,0.018
	c-5.89,20.42-9.68,45.45-11.16,68.22c-0.105,2.422,1.773,4.471,4.195,4.576c0.088,0.004,0.176,0.005,0.265,0.004h71.06
	c2.43,0.039,4.431-1.899,4.47-4.329c0-0.004,0-0.007,0-0.011v-55.09C240.032,178.275,238.221,176.391,235.92,176.26z"/>
<path d="M414.39,97.61C327.343,9.704,185.516,9.007,97.61,96.054s-88.603,228.874-1.557,316.78c0.516,0.521,1.035,1.04,1.557,1.557
	c87.047,87.906,228.874,88.603,316.78,1.557s88.603-228.874,1.557-316.78C415.43,98.645,414.911,98.126,414.39,97.61z M176.6,430.85
	c-4.506-6.327-8.671-12.89-12.48-19.66c-2-3.69-4.84-9.26-6.73-13.13c-1.718-3.641-6.063-5.2-9.704-3.482
	c-0.207,0.098-0.409,0.205-0.606,0.322c-4.3,2.41-10,5.72-14.13,8.43c-8.661-6.583-16.566-14.106-23.57-22.43
	c9.686-6.837,19.849-12.972,30.41-18.36c1.86-1,2.77-2.14,2.18-4.18c-7.738-26.781-12.464-54.341-14.09-82.17
	c-0.101-2.31-1.988-4.14-4.3-4.17H66.84c-0.997,0.011-1.85-0.714-2-1.7c-0.628-4.746-0.909-9.533-0.84-14.32
	c-0.068-4.778,0.219-9.555,0.86-14.29c0.15-0.986,1.003-1.711,2-1.7h56.74c2.29,0,4.17-1.32,4.29-3.63
	c1.605-27.713,6.301-55.16,14-81.83c0.591-2.008-0.328-4.153-2.19-5.11c-10.334-5.295-20.303-11.275-29.84-17.9
	c6.967-8.322,14.716-15.957,23.14-22.8c4.08,2.68,9.4,5.71,13.66,8.11c3.788,2.153,8.605,0.828,10.758-2.96
	c0.086-0.151,0.166-0.304,0.242-0.46c1.88-3.87,4-8.18,6.06-11.88c3.825-6.854,8.011-13.5,12.54-19.91
	C201.194,69.893,228.438,63.867,256,64c28.94,0,55.9,7,80.53,18.46c4.349,6.106,8.355,12.449,12,19c2.59,4.66,5.34,10.37,7.66,15.32
	c1.012,2.142,3.57,3.058,5.712,2.045c0.07-0.033,0.14-0.068,0.208-0.105c5.38-2.91,11.21-6.26,16.34-9.63
	c8.448,6.91,16.217,14.612,23.2,23c-9.276,6.433-18.986,12.217-29.06,17.31c-1.866,0.958-2.783,3.111-2.18,5.12
	c7.824,26.489,12.474,53.814,13.85,81.4c0.112,2.297,2,4.107,4.3,4.12l56.62-0.07c0.997-0.011,1.85,0.714,2,1.7
	c1.167,9.504,1.167,19.116,0,28.62c-0.141,0.994-0.996,1.73-2,1.72h-56.67c-2.314,0.025-4.204,1.857-4.3,4.17
	c-1.557,27.535-6.21,54.806-13.87,81.3c-0.597,2.031,0.319,4.201,2.19,5.19c5,2.59,10.57,5.48,15.37,8.42s9.55,6.08,14.13,9.34
	c-6.93,8.349-14.63,16.026-23,22.93c-2.44-1.61-5.34-3.44-7.84-4.94c-1.72-1-4.89-2.77-6.65-3.76c-3.82-2.14-7.88-0.54-9.79,3.4
	s-4.83,9.59-6.87,13.25c-3.759,6.729-7.882,13.249-12.35,19.53C310.91,442.37,284.94,448,256,448S201.23,442.37,176.6,430.85z"/>
</svg>
