<?xml version="1.0" encoding="iso-8859-1"?>
<!-- Generator: Adobe Illustrator 24.3.0, SVG Export Plug-In . SVG Version: 6.00 Build 0)  -->
<svg version="1.1" id="Layer_1" xmlns="http://www.w3.org/2000/svg" xmlns:xlink="http://www.w3.org/1999/xlink" x="0px" y="0px"
	 viewBox="0 0 512 512" style="enable-background:new 0 0 512 512;" xml:space="preserve">
<path d="M256,480c-59.83,0-116.081-23.301-158.39-65.61C55.301,372.081,32,315.83,32,256c0-59.83,23.301-116.081,65.61-158.39
	C139.919,55.301,196.17,32,256,32s116.081,23.301,158.39,65.61C456.699,139.919,480,196.17,480,256
	c0,59.83-23.301,116.081-65.61,158.39C372.081,456.7,315.83,480,256,480z M256,64C150.131,64,64,150.131,64,256
	C64,361.87,150.131,448,256,448S448,361.87,448,256C448,150.131,361.869,64,256,64z"/>
<path d="M256,480C186.254,480,127.33,377.42,127.33,256S186.254,32,256,32s128.67,102.58,128.67,224S325.746,480,256,480z M256,64
	c-10.551,0-21.374,4.336-32.167,12.887c-11.505,9.116-22.556,22.88-31.958,39.806C170.888,154.476,159.33,203.95,159.33,256
	s11.558,101.524,32.546,139.307c9.402,16.926,20.453,30.69,31.958,39.806C234.626,443.664,245.449,448,256,448
	c10.552,0,21.374-4.336,32.167-12.888c11.505-9.115,22.556-22.88,31.957-39.806C341.111,357.524,352.67,308.05,352.67,256
	s-11.559-101.524-32.546-139.307c-9.401-16.926-20.452-30.69-31.957-39.806C277.374,68.336,266.552,64,256,64z"/>
<path d="M256,176.67c-54.122,0-105.276-16.008-147.933-46.293c-7.205-5.116-8.899-15.104-3.784-22.309
	c5.116-7.204,15.105-8.898,22.309-3.784C163.806,130.705,208.554,144.67,256,144.67c47.445,0,92.194-13.965,129.407-40.386
	c7.206-5.115,17.193-3.421,22.309,3.784c5.116,7.205,3.422,17.193-3.783,22.309C361.275,160.662,310.121,176.67,256,176.67z"/>
<path d="M394.656,410.671c-3.203,0-6.438-0.959-9.249-2.955c-37.213-26.421-81.961-40.386-129.407-40.386
	c-47.447,0-92.195,13.965-129.407,40.386c-7.206,5.117-17.193,3.422-22.309-3.783s-3.422-17.193,3.783-22.309
	c42.655-30.286,93.81-46.294,147.933-46.294c54.122,0,105.276,16.008,147.933,46.294c7.205,5.115,8.899,15.104,3.783,22.309
	C404.597,408.328,399.664,410.671,394.656,410.671z"/>
<rect x="240" y="48" width="32" height="416"/>
<rect x="48" y="240" width="416" height="32"/>
</svg>
