<?xml version="1.0" encoding="iso-8859-1"?>
<!-- Generator: Adobe Illustrator 24.3.0, SVG Export Plug-In . SVG Version: 6.00 Build 0)  -->
<svg version="1.1" id="Layer_1" xmlns="http://www.w3.org/2000/svg" xmlns:xlink="http://www.w3.org/1999/xlink" x="0px" y="0px"
	 viewBox="0 0 512 512" style="enable-background:new 0 0 512 512;" xml:space="preserve">
<path d="M256,486c-61.433,0-119.19-23.925-162.633-67.368C49.925,375.19,26,317.432,26,256c0-61.433,23.925-119.19,67.367-162.632
	C136.81,49.925,194.567,26,256,26s119.19,23.925,162.633,67.368C462.075,136.81,486,194.567,486,256
	c0,61.432-23.925,119.19-67.367,162.632C375.19,462.076,317.433,486,256,486z M256,70C153.439,70,70,153.439,70,256
	C70,358.561,153.439,442,256,442S442,358.561,442,256C442,153.439,358.561,70,256,70z"/>
<path d="M256,486c-36.361,0-71.841-26.331-97.343-72.241c-24.07-43.333-37.327-99.36-37.327-157.759
	c0-58.399,13.256-114.426,37.327-157.759C184.159,52.331,219.639,26,256,26s71.842,26.331,97.344,72.241
	c24.07,43.333,37.326,99.36,37.326,157.759c0,58.399-13.256,114.426-37.326,157.759C327.842,459.669,292.361,486,256,486z M256,70
	c-41.93,0-90.67,81.249-90.67,186c0,50.308,11.587,100.022,31.791,136.393C214.375,423.456,236.386,442,256,442
	c41.93,0,90.67-81.249,90.67-186.001c0-50.308-11.587-100.021-31.791-136.393C297.625,88.544,275.614,70,256,70z"/>
<path d="M256,186.67c-55.374,0-107.729-16.391-151.406-47.401c-9.907-7.034-12.236-20.768-5.202-30.675
	c7.034-9.907,20.768-12.236,30.675-5.202C166.258,129.088,209.806,142.67,256,142.67s89.741-13.582,125.934-39.278
	c9.909-7.034,23.642-4.705,30.675,5.203c7.034,9.907,4.705,23.641-5.202,30.674C363.729,170.279,311.373,186.67,256,186.67z"/>
<path d="M117.349,412.672c-6.887,0-13.667-3.223-17.958-9.266c-7.034-9.907-4.705-23.641,5.202-30.675
	c43.676-31.01,96.032-47.401,151.406-47.401c55.374,0,107.729,16.392,151.406,47.401c9.907,7.034,12.236,20.768,5.202,30.675
	c-7.035,9.908-20.769,12.235-30.675,5.202c-36.191-25.696-79.739-39.278-125.934-39.278c-46.195,0-89.742,13.582-125.934,39.278
	C126.202,411.353,121.753,412.671,117.349,412.672z"/>
<rect x="234" y="48" width="44" height="416"/>
<rect x="48" y="234" width="416" height="44"/>
</svg>
