<svg width="16" height="16" viewBox="0 0 16 16"  xmlns="http://www.w3.org/2000/svg">
<path d="M11.2913 3.69639C11.2597 3.69258 11.2278 3.70282 11.2053 3.72533L8.35446 6.57618C8.327 6.60364 8.31841 6.6444 8.32902 6.68175C8.39694 6.92092 8.36183 7.17885 8.23016 7.392C8.08731 7.62334 7.84651 7.77664 7.5765 7.80807C7.30642 7.83959 7.03686 7.74583 6.84454 7.5536C6.65231 7.36137 6.55855 7.09172 6.59007 6.82171C6.62159 6.55163 6.77489 6.31081 7.00614 6.16795C7.21936 6.03629 7.47725 6.00117 7.71649 6.06911C7.75384 6.07971 7.79459 6.07112 7.82204 6.04367L8.42937 5.43642C8.47408 5.39172 8.46662 5.31712 8.41178 5.28568C7.92289 5.00544 7.33163 4.95736 6.80105 5.15939C6.23211 5.376 5.80255 5.85358 5.64722 6.44215C5.49195 7.03082 5.62998 7.65813 6.01794 8.12725C6.40589 8.59635 6.99625 8.84958 7.60356 8.80753C8.21078 8.76538 8.76052 8.43306 9.08009 7.91493C9.38779 7.41589 9.44559 6.80336 9.23937 6.25719C9.22503 6.21922 9.23329 6.1761 9.26199 6.1474L9.81696 5.59243C9.86321 5.54618 9.94073 5.55609 9.97131 5.61391C10.39 6.40577 10.4094 7.35248 10.0174 8.16348C9.60661 9.01349 8.7984 9.60206 7.86341 9.73223C6.92841 9.86241 5.9901 9.51688 5.36283 8.81143C4.73552 8.10599 4.50203 7.13377 4.74059 6.22035C4.97908 5.30695 5.6581 4.57303 6.55024 4.26437C7.41493 3.96523 8.36893 4.10385 9.11149 4.63219C9.15222 4.66116 9.20812 4.65751 9.24346 4.62216L9.78186 4.08377C9.82379 4.04184 9.82027 3.97272 9.77316 3.9367C9.0582 3.39019 8.16983 3.11744 7.26905 3.17018C6.33138 3.22518 5.44816 3.6291 4.79316 4.3025C4.13826 4.97589 3.75906 5.86999 3.73012 6.80878C3.70111 7.74771 4.02459 8.66343 4.63682 9.37587C5.24905 10.0883 6.10576 10.5458 7.03842 10.6585C7.97092 10.771 8.91191 10.5307 9.67613 9.98444C10.4403 9.43827 10.9726 8.62586 11.1679 7.70711C11.3634 6.78828 11.2079 5.82961 10.7321 5.0198C10.7043 4.97218 10.6752 4.92521 10.6452 4.87842C10.6195 4.8385 10.6247 4.78607 10.6582 4.75249L11.1885 4.22097C11.2318 4.17761 11.3036 4.18294 11.3387 4.23313C12.0047 5.18546 12.2965 6.35168 12.1554 7.50792C12.0096 8.70273 11.4125 9.7966 10.4864 10.5655C9.56032 11.3345 8.37533 11.7203 7.17394 11.644C5.97268 11.5678 4.84594 11.0351 4.02468 10.1552C3.20324 9.27516 2.74941 8.11455 2.75593 6.91082C2.76245 5.70716 3.22887 4.5515 4.05977 3.68042C4.89058 2.80945 6.02299 2.28908 7.22503 2.22577C8.39636 2.16408 9.54752 2.54105 10.4547 3.28108C10.4951 3.314 10.5539 3.31169 10.5908 3.27486L10.6729 3.19263C10.6954 3.17013 10.7057 3.13828 10.7019 3.10669C10.6442 2.62778 10.8092 2.14755 11.1515 1.80495L11.69 1.26636C11.7394 1.21692 11.8231 1.23217 11.8519 1.29589L12.2254 2.12268C12.2354 2.14486 12.2532 2.16262 12.2754 2.17264L13.1022 2.5462C13.1659 2.57498 13.1811 2.6586 13.1317 2.70804L12.5931 3.24665C12.2505 3.58889 11.7703 3.75403 11.2913 3.69639Z" fill="black"/>
</svg>
