<?xml version="1.0" encoding="iso-8859-1"?>
<!-- Generator: Adobe Illustrator 24.3.0, SVG Export Plug-In . SVG Version: 6.00 Build 0)  -->
<svg version="1.1" id="Layer_1" xmlns="http://www.w3.org/2000/svg" xmlns:xlink="http://www.w3.org/1999/xlink" x="0px" y="0px"
	 viewBox="0 0 512 512" style="enable-background:new 0 0 512 512;" xml:space="preserve">
<path d="M272,320.46V202.3l166.62-75.73c8.047-3.652,11.61-13.135,7.958-21.182c-1.601-3.529-4.429-6.357-7.958-7.958l-176-80
	c-8.045-3.656-17.53-0.098-21.186,7.946c-0.945,2.08-1.434,4.339-1.434,6.624v159.66c0,0.23,0,0.47,0,0.7v128.1
	c5.333-0.3,10.667-0.453,16-0.46C261.333,319.993,266.667,320.147,272,320.46z"/>
<path d="M463.33,457.5c-8.56-42.85-35.11-78.74-76.78-103.8c-32.5-19.55-72.67-31.3-114.55-33.7v79.75c0,8.837-7.163,16-16,16
	c-8.837,0-16-7.163-16-16V320c-41.88,2.4-82.05,14.15-114.55,33.7c-41.67,25.06-68.22,60.95-76.78,103.8
	c-2.025,9.536,0.34,19.477,6.44,27.08C61.13,492,70,496,80,496h352c10,0,18.88-4.05,24.9-11.42
	C462.997,476.975,465.357,467.034,463.33,457.5z"/>
</svg>
