<?xml version="1.0" encoding="iso-8859-1"?>
<!-- Generator: Adobe Illustrator 24.3.0, SVG Export Plug-In . SVG Version: 6.00 Build 0)  -->
<svg version="1.1" id="Layer_1" xmlns="http://www.w3.org/2000/svg" xmlns:xlink="http://www.w3.org/1999/xlink" x="0px" y="0px"
	 viewBox="0 0 512 512" style="enable-background:new 0 0 512 512;" xml:space="preserve">
<path d="M240,16v175.66c0,0.23,0,0.47,0,0.7v128.11c5.333-0.313,10.667-0.47,16-0.47c5.333,0,10.667,0.157,16,0.47V202.3L448,112
	L240,16z"/>
<path d="M462.91,457.5c-8.54-42.85-35-78.74-76.62-103.8C353.86,334.15,313.76,322.4,272,320v95.79h-32V320
	c-41.79,2.4-81.89,14.15-114.32,33.7c-41.59,25.06-68.08,60.95-76.62,103.8c-2,9.81-0.68,38.5-0.68,38.5h415.21
	C463.59,496,464.87,467.31,462.91,457.5z"/>
</svg>
