<?xml version="1.0" encoding="iso-8859-1"?>
<!-- Generator: Adobe Illustrator 24.3.0, SVG Export Plug-In . SVG Version: 6.00 Build 0)  -->
<svg version="1.1" id="Layer_1" xmlns="http://www.w3.org/2000/svg" xmlns:xlink="http://www.w3.org/1999/xlink" x="0px" y="0px"
	 viewBox="0 0 512 512" style="enable-background:new 0 0 512 512;" xml:space="preserve">
<path d="M256,416c-8.836,0-16-7.163-16-16V192.362c-0.005-0.236-0.005-0.471,0-0.706V32c0-5.44,2.764-10.507,7.338-13.452
	c4.574-2.945,10.332-3.364,15.283-1.114l176,80C444.333,100.03,448,105.726,448,112s-3.667,11.97-9.379,14.566L272,202.303V400
	C272,408.837,264.837,416,256,416z M272,56.848v110.304L393.334,112L272,56.848z"/>
<path d="M432,496H80c-10.035,0-18.875-4.043-24.891-11.386c-6.052-7.385-8.398-17.232-6.437-27.019
	c8.562-42.729,35.113-78.527,76.78-103.524C162.076,332.101,208.439,320,256,320c47.561,0,93.924,12.101,130.55,34.071
	c41.667,24.996,68.22,60.793,76.788,103.522c1.961,9.787-0.385,19.634-6.436,27.018C450.884,491.956,442.04,496,432,496z
	 M80.027,464h351.957c-0.006-0.037-0.013-0.076-0.021-0.117C416.548,387.013,329.943,352,256,352
	c-73.945,0-160.547,35.012-175.952,111.883C80.04,463.924,80.033,463.963,80.027,464z"/>
</svg>
