<?xml version="1.0" encoding="UTF-8"?>
<svg width="513px" height="612px" viewBox="0 0 513 612" version="1.1" xmlns="http://www.w3.org/2000/svg" xmlns:xlink="http://www.w3.org/1999/xlink">
    <title>Group</title>
    <g id="Page-1" stroke="none" stroke-width="1"  fill-rule="evenodd">
        <g id="Group" transform="translate(0.142600, 0.000000)"  fill-rule="nonzero">
            <path d="M285.374757,611.617171 L482.955376,611.617171 C482.975659,611.617171 482.995941,611.617094 483.016223,611.61694 L504.060846,611.456874 C508.455254,611.42345 512,607.85164 512,603.457105 L512,310.04741 C512,305.629132 508.418278,302.04741 504,302.04741 C503.983348,302.04741 503.966696,302.047462 503.950044,302.047566 L483.010778,302.178324 C482.994126,302.178428 482.977474,302.17848 482.960822,302.17848 L249.470948,302.17848 C245.05267,302.17848 241.470948,305.760202 241.470948,310.17848 L241.470948,397.063878 C241.470948,401.482156 237.889226,405.063878 233.470948,405.063878 L8,405.063878 C3.581722,405.063878 -4.09379668e-15,408.6456 0,413.063878 L0,603.617171 C5.41083001e-16,608.035449 3.581722,611.617171 8,611.617171 L241.470948,611.617171 L285.374757,611.617171 Z M289.525772,345.490137 L468.471541,345.490137 C472.889819,345.490137 476.471541,349.071859 476.471541,353.490137 L476.471541,560.305514 C476.471541,564.723792 472.889819,568.305514 468.471541,568.305514 L289.525772,568.305514 C285.107494,568.305514 281.525772,564.723792 281.525772,560.305514 L281.525772,405.086977 L281.525772,353.490137 C281.525772,349.071859 285.107494,345.490137 289.525772,345.490137 Z M43.3116572,560.305514 L43.3116572,456.398635 C43.3116572,451.980357 46.8933792,448.398635 51.3116572,448.398635 L230.214115,448.398635 C234.632393,448.398635 238.214115,451.980357 238.214115,456.398635 L238.214115,560.305514 C238.214115,564.723792 234.632393,568.305514 230.214115,568.305514 L51.3116572,568.305514 C46.8933792,568.305514 43.3116572,564.723792 43.3116572,560.305514 Z" id="Shape"></path>
            <g id="person-outline" transform="translate(247.012176, 0.000000)">
                <path d="M131.753112,0 C150.950015,0 168.37275,7.48350109 180.837001,21.0142581 C193.242878,34.4823518 199.428381,52.5217982 198.222604,71.9255776 L198.16388,72.79291 C196.736085,92.2463052 188.643558,109.877424 176.758098,122.65081 C164.668819,135.643243 148.679959,143.596754 131.753112,143.596754 C114.800654,143.596754 98.7998144,135.64107 86.7110247,122.646951 C74.826575,109.872476 66.7466449,92.2408035 65.3415941,72.7862976 C63.9048173,52.8710056 70.0627345,34.4555915 82.5736692,20.8923775 C94.9764635,7.44563017 112.430122,0 131.753112,0 Z M131.753112,27.2890293 C120.158827,27.2890293 109.743455,31.5682833 102.475765,39.4479839 C95.0560304,47.4924548 91.5362204,58.6508363 92.4130861,70.8112028 C93.3103655,83.2359504 98.3678613,94.704381 105.725926,103.061536 C112.806215,111.103199 122.046031,116.307725 131.753112,116.307725 C141.334124,116.307725 150.466571,111.216543 157.514149,103.328388 C164.852712,95.1145412 169.961066,83.8232332 171.033735,71.5504218 L171.095704,70.7798272 C171.9738,58.7830915 168.403786,47.6791668 160.922924,39.5575118 C153.60727,31.615351 143.234318,27.2890293 131.753112,27.2890293 Z" id="Shape"></path>
                <path d="M132.490879,150.998649 C162.782758,150.998649 192.27395,159.652378 215.558099,175.280308 C242.180195,193.147131 259.075651,218.634791 264.505918,248.931517 C266.038916,257.490602 263.861472,265.913399 258.729031,272.096526 C253.838428,277.989642 246.838342,281.271992 238.988051,281.271992 L25.9937057,281.271992 C18.1469082,281.271992 11.1492613,277.990667 6.25898032,272.098599 C1.1261503,265.914208 -1.05105264,257.490716 0.481915597,248.932594 C5.90885529,218.636503 22.8024683,193.148034 49.4234472,175.28045 C72.7078069,159.652378 102.198366,150.998649 132.490879,150.998649 Z M132.490879,183.788538 C108.692328,183.788538 85.6110376,190.41654 67.5303347,202.552337 C50.4197093,214.03608 38.8837838,229.803945 33.960431,248.482103 L231.026783,248.482103 C226.101345,229.804093 214.563424,214.035651 197.45231,202.551917 C179.370888,190.416599 156.288951,183.788538 132.490879,183.788538 Z" id="Shape"></path>
            </g>
        </g>
    </g>
</svg>