<?xml version="1.0" encoding="iso-8859-1"?>
<!-- Generator: Adobe Illustrator 24.3.0, SVG Export Plug-In . SVG Version: 6.00 Build 0)  -->
<svg version="1.1" id="Layer_1" xmlns="http://www.w3.org/2000/svg" xmlns:xlink="http://www.w3.org/1999/xlink" x="0px" y="0px"
	 viewBox="0 0 512 512" style="enable-background:new 0 0 512 512;" xml:space="preserve">
<path d="M204,240H68c-19.882,0-36-16.118-36-36V68c0-19.882,16.118-36,36-36h136c19.882,0,36,16.118,36,36v136
	C240,223.882,223.882,240,204,240z"/>
<path d="M444,240H308c-19.882,0-36-16.118-36-36V68c0-19.882,16.118-36,36-36h136c19.882,0,36,16.118,36,36v136
	C480,223.882,463.882,240,444,240z"/>
<path d="M204,480H68c-19.882,0-36-16.118-36-36V308c0-19.882,16.118-36,36-36h136c19.882,0,36,16.118,36,36v136
	C240,463.882,223.882,480,204,480z"/>
<path d="M444,480H308c-19.882,0-36-16.118-36-36V308c0-19.882,16.118-36,36-36h136c19.882,0,36,16.118,36,36v136
	C480,463.882,463.882,480,444,480z"/>
</svg>
