<?xml version="1.0" encoding="iso-8859-1"?>
<!-- Generator: Adobe Illustrator 24.3.0, SVG Export Plug-In . SVG Version: 6.00 Build 0)  -->
<svg version="1.1" id="Layer_1" xmlns="http://www.w3.org/2000/svg" xmlns:xlink="http://www.w3.org/1999/xlink" x="0px" y="0px"
	 viewBox="0 0 512 512" style="enable-background:new 0 0 512 512;" xml:space="preserve">
<path d="M204,240H68c-19.851,0-36-16.149-36-36V68c0-19.851,16.149-36,36-36h136c19.851,0,36,16.149,36,36v136
	C240,223.851,223.851,240,204,240z M68,64c-2.206,0-4,1.794-4,4v136c0,2.206,1.794,4,4,4h136c2.206,0,4-1.794,4-4V68
	c0-2.206-1.794-4-4-4H68z"/>
<path d="M444,240H308c-19.851,0-36-16.149-36-36V68c0-19.851,16.149-36,36-36h136c19.851,0,36,16.149,36,36v136
	C480,223.851,463.851,240,444,240z M308,64c-2.206,0-4,1.794-4,4v136c0,2.206,1.794,4,4,4h136c2.206,0,4-1.794,4-4V68
	c0-2.206-1.794-4-4-4H308z"/>
<path d="M204,480H68c-19.851,0-36-16.149-36-36V308c0-19.851,16.149-36,36-36h136c19.851,0,36,16.149,36,36v136
	C240,463.851,223.851,480,204,480z M68,304c-2.206,0-4,1.794-4,4v136c0,2.206,1.794,4,4,4h136c2.206,0,4-1.794,4-4V308
	c0-2.206-1.794-4-4-4H68z"/>
<path d="M444,480H308c-19.851,0-36-16.149-36-36V308c0-19.851,16.149-36,36-36h136c19.851,0,36,16.149,36,36v136
	C480,463.851,463.851,480,444,480z M308,304c-2.206,0-4,1.794-4,4v136c0,2.206,1.794,4,4,4h136c2.206,0,4-1.794,4-4V308
	c0-2.206-1.794-4-4-4H308z"/>
</svg>
