<?xml version="1.0" encoding="iso-8859-1"?>
<!-- Generator: Adobe Illustrator 24.3.0, SVG Export Plug-In . SVG Version: 6.00 Build 0)  -->
<svg version="1.1" id="Layer_1" xmlns="http://www.w3.org/2000/svg" xmlns:xlink="http://www.w3.org/1999/xlink" x="0px" y="0px"
	 viewBox="0 0 512 512" style="enable-background:new 0 0 512 512;" xml:space="preserve">
<path d="M280.16,242.79l-26.11-26.12c-12.45-12.454-32.623-12.507-45.14-0.12L27.38,384.08c-6.61,6.23-10.95,14.17-11.35,23.06
	c-0.389,8.913,2.948,17.586,9.21,23.94l39,39.43c0.021,0.026,0.044,0.049,0.07,0.07c6.027,6.007,14.181,9.392,22.69,9.42h1.18
	c8.89-0.33,16.85-4.5,23.17-11.17l168.7-180.7c12.551-12.443,12.638-32.704,0.195-45.254
	C280.217,242.847,280.188,242.819,280.16,242.79z"/>
<path d="M490,190l-0.31-0.31l-34.27-33.92c-4.055-4.041-9.556-6.295-15.28-6.26c-4.592,0.004-9.066,1.453-12.79,4.14
	c0-0.43,0.06-0.85,0.09-1.22c0.45-6.5,1.15-16.32-5.2-25.22c-7.55-10.176-15.839-19.782-24.8-28.74
	c-0.024-0.029-0.051-0.056-0.08-0.08c-13.32-13.12-42.31-37.83-86.72-55.94c-16.842-6.912-34.874-10.462-53.08-10.45
	C226,32,202,46.24,192.81,54.68c-5.204,4.97-9.95,10.399-14.18,16.22c-5.184,7.156-3.586,17.16,3.57,22.344
	c4.369,3.165,10.038,3.916,15.08,1.996c2.805-1.048,5.67-1.927,8.58-2.63c6.061-1.282,12.277-1.669,18.45-1.15
	c13.19,1.09,28.79,7.64,35.69,13.09c11.7,9.41,17.33,22.09,18.26,41.09c0.18,3.82-7.72,18.14-20,34.48
	c-4.838,6.377-4.218,15.348,1.45,21l34.41,34.41c6.004,6.018,15.666,6.291,22,0.62c9.73-8.69,24.55-21.79,29.73-25
	c7.69-4.73,13.19-5.64,14.7-5.8c3.918-0.384,7.86,0.447,11.29,2.38c0.034,0.346-0.078,0.691-0.31,0.95l-1.82,1.73l-0.3,0.28
	c-8.42,8.388-8.445,22.014-0.057,30.434c0.035,0.036,0.071,0.071,0.107,0.106l34.26,33.91c4.056,4.038,9.557,6.289,15.28,6.25
	c5.69,0.009,11.156-2.218,15.22-6.2l55.5-54.82c0.19-0.19,0.38-0.39,0.56-0.59C498.004,211.313,497.882,198.32,490,190z"/>
</svg>
