<?xml version="1.0" encoding="iso-8859-1"?>
<!-- Generator: Adobe Illustrator 24.3.0, SVG Export Plug-In . SVG Version: 6.00 Build 0)  -->
<svg version="1.1" id="Layer_1" xmlns="http://www.w3.org/2000/svg" xmlns:xlink="http://www.w3.org/1999/xlink" x="0px" y="0px"
	 viewBox="0 0 512 512" style="enable-background:new 0 0 512 512;" xml:space="preserve">
<path d="M87.041,479.986c-8.245,0-16.486-3.144-22.752-9.43l-39.044-39.474c-0.624-0.63-1.235-1.302-1.809-1.987
	c-11.322-13.53-9.525-33.752,4.006-45.075c33.422-28.149,107.52-94.306,147.465-133.825c16.938-16.735,27.789-27.405,34.696-34.197
	l4.333-4.262c10.683-10.619,27.189-13.647,41.02-7.479c4.284,1.927,8.09,4.567,11.358,7.87l18.261,18.012
	c0.048,0.048,0.096,0.096,0.144,0.144c2.651,2.683,4.914,5.717,6.727,9.018c0.07,0.128,0.139,0.257,0.205,0.388
	c7.459,14.518,4.781,32.092-6.663,43.73c-0.063,0.064-0.127,0.128-0.191,0.191c-2.355,2.315-5.373,5.32-9.25,9.18
	c-6.791,6.762-16.093,16.023-29.036,28.757c-38.139,37.687-104.359,111.135-135.034,147.191c-0.567,0.663-1.144,1.285-1.741,1.882
	C103.47,476.865,95.254,479.986,87.041,479.986z M239.938,233.055c-1.277,0-2.554,0.496-3.498,1.434l-4.4,4.328
	c-6.896,6.781-17.73,17.434-34.633,34.136C156.911,313.013,81.878,380.009,48.017,408.529l38.979,39.479
	c0.007,0.007,0.089,0.007,0.14-0.044c31.018-36.459,98.135-110.891,136.909-149.205c12.9-12.691,22.162-21.913,28.925-28.646
	c3.867-3.85,6.893-6.862,9.266-9.197c1.645-1.725,2.054-4.271,1.043-6.421c-0.353-0.602-0.777-1.161-1.267-1.665l-18.248-17.999
	c-0.06-0.059-0.119-0.118-0.178-0.178c-0.493-0.501-1.068-0.902-1.709-1.19C241.262,233.188,240.6,233.055,239.938,233.055z"/>
<path d="M418.839,281.432c-5.616,0-11.092-2.236-15.099-6.185l-34.343-34.033c-0.088-0.087-0.176-0.175-0.246-0.247
	c-3.986-4.05-6.18-9.467-6.133-15.21c0.046-5.743,2.326-11.124,6.42-15.152c0.076-0.075,0.153-0.15,0.231-0.224l1.818-1.718
	c0.311-0.341,0.34-0.775,0.303-0.971c-3.479-1.934-7.399-2.76-11.364-2.397c-1.252,0.147-6.885,1.044-14.609,5.799
	c-7.647,4.708-23.302,17.999-38.067,32.32c-0.034,0.033-0.069,0.066-0.104,0.1c-9.453,9.005-24.133,8.872-33.42-0.301
	l-21.253-21.244c-9.049-8.908-9.55-23.292-1.12-32.809c10.104-11.413,26.978-32.252,26.435-43.564
	c-0.922-18.988-6.547-31.659-18.232-41.062c-6.986-5.453-22.601-11.99-35.748-13.08c-6.197-0.516-12.416-0.125-18.489,1.165
	c-2.975,0.689-5.934,1.568-8.798,2.612c-6.607,2.409-14.011,0.222-18.249-5.39c-4.238-5.611-4.315-13.332-0.19-19.027
	c0.727-1.003,7.302-9.987,14.224-16.25c9.173-8.379,33.205-22.646,64.734-22.646c0.026,0,0.056,0,0.082,0
	c18.254,0,36.082,3.51,52.983,10.435c44.775,18.259,73.572,42.907,86.75,55.974c8.898,8.901,17.176,18.483,24.651,28.53
	c0.064,0.087,0.128,0.175,0.191,0.263c6.345,8.899,5.644,18.708,5.18,25.198c-0.027,0.381-0.058,0.809-0.087,1.25
	c3.677-2.675,8.169-4.16,12.739-4.161c0.078,0,0.157-0.001,0.236-0.001c5.654,0,11.149,2.266,15.159,6.27l34.267,33.957
	c0.122,0.121,0.242,0.244,0.36,0.369c7.955,8.409,7.955,21.583,0,29.991c-0.122,0.129-0.246,0.256-0.372,0.38l-55.46,54.85
	c-0.05,0.049-0.099,0.098-0.149,0.146c-4.062,3.915-9.383,6.06-15.012,6.06C418.983,281.436,418.913,281.432,418.839,281.432z
	 M398.837,225.337l20.14,19.958l40.752-40.303l-21.009-20.819c-4.381,1.851-9.225,2.573-14.021,1.987
	c-8.895-0.996-16.356-4.193-21.584-9.251c-0.024-0.024-0.05-0.048-0.073-0.071c-8.876-8.698-8.066-20.029-7.583-26.799
	c0.112-1.567,0.273-3.827,0.187-4.997c-6.37-8.471-13.388-16.554-20.871-24.041c-9.196-9.118-35.142-32.251-76.276-49.026
	c-13.056-5.349-26.804-8.056-40.886-8.056c-2.636-0.013-5.261,0.141-7.749,0.4c11.389,3.653,22.275,9.015,30.019,15.096
	c0.043,0.034,0.086,0.067,0.128,0.102c18.979,15.221,28.871,36.331,30.241,64.536c0.995,20.751-14.239,42.669-29.409,60.527
	l10.379,10.375c12.528-11.78,27.659-24.854,37.821-31.11c12.576-7.742,22.947-9.821,28.01-10.371
	c0.062-0.007,0.124-0.013,0.186-0.019c10.762-1.044,21.411,1.257,30.786,6.656c2.421,1.378,4.634,3.089,6.579,5.086
	c6.155,6.273,9.418,14.618,9.188,23.504C403.637,214.67,401.915,220.379,398.837,225.337z M275.392,199.136
	c0.004,0.003,0.008,0.007,0.012,0.011C275.399,199.143,275.396,199.139,275.392,199.136z M432.857,178.365
	c0.019,0.018,0.037,0.036,0.055,0.054L432.857,178.365z"/>
</svg>
