<?xml version="1.0" encoding="iso-8859-1"?>
<!-- Generator: Adobe Illustrator 24.3.0, SVG Export Plug-In . SVG Version: 6.00 Build 0)  -->
<svg version="1.1" id="Layer_1" xmlns="http://www.w3.org/2000/svg" xmlns:xlink="http://www.w3.org/1999/xlink" x="0px" y="0px"
	 viewBox="0 0 512 512" style="enable-background:new 0 0 512 512;" xml:space="preserve">
<path d="M294.28,256.9l-54.42-54.41c-4.678-4.694-12.276-4.708-16.971-0.029c-0.01,0.01-0.02,0.02-0.029,0.029L12.45,401
	c-4.822,4.546-5.046,12.141-0.499,16.963c0.075,0.08,0.152,0.159,0.229,0.237l66.05,66.28c4.679,4.694,12.277,4.705,16.971,0.026
	c0.084-0.084,0.168-0.17,0.249-0.256l198.81-210.36c4.697-4.675,4.715-12.273,0.039-16.971
	C294.293,256.913,294.286,256.907,294.28,256.9z"/>
<path d="M499.33,199.33l-43.89-43.58c-4.055-4.041-9.556-6.295-15.28-6.26c-4.592,0.004-9.066,1.453-12.79,4.14
	c0-0.43,0.06-0.85,0.09-1.22c0.45-6.5,1.15-16.32-5.2-25.22c-7.55-10.176-15.839-19.782-24.8-28.74
	c-0.024-0.029-0.051-0.056-0.08-0.08c-13.32-13.12-42.31-37.83-86.72-55.94c-16.85-6.908-34.889-10.451-53.1-10.43
	C226,32,202,46.24,192.81,54.68c-9.05,8.258-14.985,19.376-16.81,31.49L192,96c0,0,8.06-2,13.86-3.39
	c6.059-1.292,12.277-1.68,18.45-1.15c13.19,1.09,28.79,7.64,35.69,13.09c11.7,9.41,17.33,22.09,18.26,41.09
	c0.2,4.23-9.52,21.35-24.16,39.84c-2.521,3.182-2.258,7.747,0.61,10.62l45.37,45.37c3.018,2.992,7.849,3.102,11,0.25
	c12.07-11,30.49-28,34.67-30.59c7.69-4.73,13.19-5.64,14.7-5.8c3.918-0.384,7.86,0.447,11.29,2.38
	c0.034,0.346-0.078,0.691-0.31,0.95l-1.82,1.73l-0.3,0.28c-8.42,8.388-8.445,22.014-0.057,30.434
	c0.035,0.036,0.071,0.071,0.107,0.106l43.95,43.68c3.12,3.102,8.16,3.102,11.28,0l74.68-74.2c3.153-3.095,3.201-8.16,0.106-11.313
	C499.361,199.361,499.345,199.346,499.33,199.33z"/>
</svg>
