<?xml version="1.0" encoding="iso-8859-1"?>
<!-- Generator: Adobe Illustrator 24.3.0, SVG Export Plug-In . SVG Version: 6.00 Build 0)  -->
<svg version="1.1" id="Layer_1" xmlns="http://www.w3.org/2000/svg" xmlns:xlink="http://www.w3.org/1999/xlink" x="0px" y="0px"
	 viewBox="0 0 512 512" style="enable-background:new 0 0 512 512;" xml:space="preserve">
<path d="M80,336c-8.836,0-16-7.163-16-16V144c0-26.467,21.533-48,48-48s48,21.533,48,48v112c0,8.836-7.164,16-16,16s-16-7.163-16-16
	V144c0-8.822-7.178-16-16-16s-16,7.178-16,16V320C96,328.837,88.836,336,80,336z"/>
<path d="M144,272c-8.836,0-16-7.164-16-16.001V80c0-26.467,21.533-48,48-48s48,21.533,48,48v160c0,8.836-7.164,16-16,16
	s-16-7.164-16-16V80c0-8.822-7.178-16-16-16s-16,7.178-16,16v176C160,264.836,152.836,272,144,272z"/>
<path d="M336,336c-8.837,0-16-7.163-16-16V96c0-8.822-7.178-16-16-16s-16,7.178-16,16v145c0,8.836-7.163,16-16,16s-16-7.163-16-16
	V96c0-26.467,21.532-48,48-48s48,21.533,48,48v224C352,328.837,344.837,336,336,336z"/>
<path d="M272,256c-8.837,0-16-7.164-16-16V48c0-8.822-7.178-16-16-16s-16,7.178-16,16v192c0,8.836-7.164,16-16,16s-16-7.164-16-16
	V48c0-26.467,21.533-48,48-48c26.467,0,48,21.533,48,48v192C288,248.836,280.837,256,272,256z"/>
<path d="M232,512c-49.412,0-91.173-16.991-120.771-49.138C80.332,429.304,64,379.904,64,320c0-8.837,7.164-16,16-16s16,7.163,16,16
	c0,51.733,13.407,93.639,38.771,121.188C158.149,466.58,191.771,480,232,480c84.762,0,112.874-39.296,129.104-77.852L413.685,258.5
	c4.355-11.803,2.753-19.928-4.747-24.188c-4.189-2.38-9.162-2.991-13.646-1.678c-2.57,0.752-6.049,2.469-8.316,6.379l-36.2,87.126
	c-3.391,8.16-12.756,12.026-20.914,8.637c-8.16-3.391-12.027-12.754-8.637-20.914l36.53-87.921c0.186-0.446,0.392-0.884,0.616-1.312
	c5.829-11.076,15.749-19.14,27.931-22.706c12.755-3.733,26.767-2.07,38.443,4.566c21.539,12.235,28.811,36.395,18.976,63.05
	L391.025,413.5c-0.085,0.23-0.175,0.459-0.27,0.686c-12.859,30.674-29.901,53.247-52.102,69.01C311.356,502.579,276.47,512,232,512z
	"/>
</svg>
