<?xml version="1.0" encoding="iso-8859-1"?>
<!-- Generator: Adobe Illustrator 24.3.0, SVG Export Plug-In . SVG Version: 6.00 Build 0)  -->
<svg version="1.1" id="Layer_1" xmlns="http://www.w3.org/2000/svg" xmlns:xlink="http://www.w3.org/1999/xlink" x="0px" y="0px"
	 viewBox="0 0 512 512" style="enable-background:new 0 0 512 512;" xml:space="preserve">
<path d="M82.42,209.08L82.42,209.08c15.06-6.62,32.38,1.31,38.5,17.62L156,312h11.27V80c0-17.6,13.3-32,29.55-32l0,0
	c16.26,0,29.55,14.4,29.55,32v151.75l14.78,0.25V32c0-17.6,13.3-32,29.55-32l0,0c16.3,0,29.55,14.4,29.55,32v199.75L315,232V64
	c0-17.6,13.3-32,29.55-32l0,0c16.26,0,29.55,14.4,29.55,32v183.75l14.78,0.25V128c0-17.6,13.3-32,29.55-32l0,0
	C434.7,96,448,110.4,448,128v216c0,75.8-37.13,168-169,168c-40.8,0-79.42-7-100.66-21c-13.319-8.78-24.778-20.099-33.72-33.31
	c-6.682-9.859-12.06-20.541-16-31.78L66.16,250.77C60.05,234.46,67.36,215.71,82.42,209.08z"/>
</svg>
