<?xml version="1.0" encoding="iso-8859-1"?>
<!-- Generator: Adobe Illustrator 24.3.0, SVG Export Plug-In . SVG Version: 6.00 Build 0)  -->
<svg version="1.1" id="Layer_1" xmlns="http://www.w3.org/2000/svg" xmlns:xlink="http://www.w3.org/1999/xlink" x="0px" y="0px"
	 viewBox="0 0 512 512" style="enable-background:new 0 0 512 512;" xml:space="preserve">
<path d="M432,336c-8.837,0-16-7.163-16-16V144c0-8.822-7.178-16-16-16s-16,7.178-16,16v112c0,8.836-7.163,16-16,16s-16-7.163-16-16
	V144c0-26.467,21.532-48,48-48s48,21.533,48,48V320C448,328.837,440.837,336,432,336z"/>
<path d="M368,272c-8.837,0-16-7.164-16-16.001V80c0-8.822-7.178-16-16-16s-16,7.178-16,16v160c0,8.836-7.163,16-16,16
	s-16-7.164-16-16V80c0-26.467,21.532-48,48-48s48,21.533,48,48v176C384,264.836,376.837,272,368,272z"/>
<path d="M176,336c-8.836,0-16-7.163-16-16V96c0-26.467,21.533-48,48-48s48,21.533,48,48v145c0,8.836-7.164,16-16,16s-16-7.163-16-16
	V96c0-8.822-7.178-16-16-16s-16,7.178-16,16v224C192,328.837,184.836,336,176,336z"/>
<path d="M304,256c-8.837,0-16-7.164-16-16V48c0-8.822-7.178-16-16-16s-16,7.178-16,16v192c0,8.836-7.164,16-16,16s-16-7.164-16-16
	V48c0-26.467,21.533-48,48-48c26.467,0,48,21.533,48,48v192C320,248.836,312.837,256,304,256z"/>
<path d="M280,512c-44.47,0-79.356-9.422-106.654-28.805c-22.2-15.763-39.243-38.336-52.102-69.01
	c-0.096-0.228-0.186-0.457-0.271-0.689l-52.67-144c-9.82-26.613-2.547-50.773,18.994-63.009c11.673-6.634,25.686-8.298,38.439-4.565
	c12.183,3.566,22.102,11.63,27.931,22.706c0.226,0.43,0.433,0.87,0.619,1.318l36.49,87.92c3.387,8.162-0.483,17.524-8.645,20.911
	c-8.163,3.391-17.524-0.482-20.911-8.644l-36.159-87.123c-2.268-3.909-5.745-5.625-8.315-6.377
	c-4.484-1.312-9.457-0.701-13.642,1.677c-7.503,4.262-9.105,12.387-4.765,24.151l52.556,143.689
	C167.126,440.706,195.238,480,280,480c40.229,0,73.851-13.421,97.229-38.812C402.594,413.639,416,371.734,416,320
	c0-8.837,7.163-16,16-16s16,7.163,16,16c0,59.903-16.332,109.304-47.229,142.862C371.173,495.009,329.411,512,280,512z"/>
</svg>
