<?xml version="1.0" encoding="iso-8859-1"?>
<!-- Generator: Adobe Illustrator 24.3.0, SVG Export Plug-In . SVG Version: 6.00 Build 0)  -->
<svg version="1.1" id="Layer_1" xmlns="http://www.w3.org/2000/svg" xmlns:xlink="http://www.w3.org/1999/xlink" x="0px" y="0px"
	 viewBox="0 0 512 512" style="enable-background:new 0 0 512 512;" xml:space="preserve">
<path d="M79.2,211.44L79.2,211.44c15.52-8.82,34.91-2.28,43.31,13.68l41.38,84.41c1.609,3.316,5.515,4.816,8.93,3.43l0,0
	c2.668-1.063,4.417-3.648,4.41-6.52V72c0-13.91,12.85-24,26.77-24s26,10.09,26,24v156.64c-0.07,6.083,4.712,11.117,10.79,11.36
	c6.074,0.116,11.092-4.714,11.208-10.788c0.001-0.071,0.002-0.141,0.002-0.212V24c0-13.91,10.94-24,24.86-24S302,10.09,302,24
	v204.64c-0.07,6.083,4.712,11.117,10.79,11.36c6.074,0.116,11.092-4.714,11.208-10.788c0.001-0.071,0.002-0.141,0.002-0.212V56
	c0-13.91,12.08-24,26-24s26,11.09,26,25v187.64c-0.07,6.083,4.712,11.117,10.79,11.36c6.074,0.116,11.092-4.714,11.208-10.788
	c0.001-0.071,0.002-0.141,0.002-0.212V120c0-13.91,11.08-24,25-24s25.12,10.22,25,24v216c0,117.41-72,176-160,176h-16
	c-88,0-115.71-39.6-136-88L67.33,255C60.67,237,63.69,220.25,79.2,211.44z"/>
</svg>
