<?xml version="1.0" encoding="iso-8859-1"?>
<!-- Generator: Adobe Illustrator 24.3.0, SVG Export Plug-In . SVG Version: 6.00 Build 0)  -->
<svg version="1.1" id="Layer_1" xmlns="http://www.w3.org/2000/svg" xmlns:xlink="http://www.w3.org/1999/xlink" x="0px" y="0px"
	 viewBox="0 0 512 512" style="enable-background:new 0 0 512 512;" xml:space="preserve">
<path d="M432.8,211.44L432.8,211.44c-15.52-8.82-34.91-2.28-43.31,13.68l-41.38,84.41c-1.609,3.316-5.515,4.816-8.93,3.43l0,0
	c-2.668-1.063-4.417-3.648-4.41-6.52V72c0-13.91-12.85-24-26.77-24s-26,10.09-26,24v156.64c0.07,6.083-4.712,11.117-10.79,11.36
	c-6.074,0.116-11.092-4.714-11.208-10.788C260.001,229.141,260,229.071,260,229V24c0-13.91-10.94-24-24.86-24S210,10.09,210,24
	v204.64c0.07,6.083-4.712,11.117-10.79,11.36c-6.074,0.116-11.092-4.714-11.208-10.788C188.001,229.141,188,229.071,188,229V56
	c0-13.91-12.08-24-26-24s-26,11.09-26,25v187.64c0.07,6.083-4.712,11.117-10.79,11.36c-6.074,0.116-11.092-4.714-11.208-10.788
	C114.001,245.141,114,245.071,114,245V120c0-13.91-11.08-24-25-24s-25.12,10.22-25,24v216c0,117.41,72,176,160,176h16
	c88,0,115.71-39.6,136-88l68.71-169C451.33,237,448.31,220.25,432.8,211.44z"/>
</svg>
