<?xml version="1.0" encoding="iso-8859-1"?>
<!-- Generator: Adobe Illustrator 24.3.0, SVG Export Plug-In . SVG Version: 6.00 Build 0)  -->
<svg version="1.1" id="Layer_1" xmlns="http://www.w3.org/2000/svg" xmlns:xlink="http://www.w3.org/1999/xlink" x="0px" y="0px"
	 viewBox="0 0 512 512" style="enable-background:new 0 0 512 512;" xml:space="preserve">
<path d="M414.39,97.61C327.343,9.704,185.516,9.007,97.61,96.054s-88.603,228.874-1.557,316.78c0.516,0.521,1.035,1.04,1.557,1.557
	c87.047,87.906,228.874,88.603,316.78,1.557s88.603-228.874,1.557-316.78C415.43,98.645,414.911,98.126,414.39,97.61z M328,208
	c13.255,0,24,10.745,24,24s-10.745,24-24,24s-24-10.745-24-24l0,0c-0.033-13.222,10.658-23.967,23.88-24
	C327.92,208,327.96,208,328,208z M184,208c13.255,0,24,10.745,24,24s-10.745,24-24,24s-24-10.745-24-24l0,0
	c-0.033-13.222,10.658-23.967,23.88-24C183.92,208,183.96,208,184,208z M256.05,384c-45.42,0-83.75-29.49-95.72-69.83
	C159.29,310.65,158,304,158,304h196c0,0-1.31,6.69-2.33,10.17C339.89,354.53,301.47,384,256.05,384z"/>
</svg>
