<?xml version="1.0" encoding="iso-8859-1"?>
<!-- Generator: Adobe Illustrator 24.3.0, SVG Export Plug-In . SVG Version: 6.00 Build 0)  -->
<svg version="1.1" id="Layer_1" xmlns="http://www.w3.org/2000/svg" xmlns:xlink="http://www.w3.org/1999/xlink" x="0px" y="0px"
	 viewBox="0 0 512 512" style="enable-background:new 0 0 512 512;" xml:space="preserve">
<path d="M414.39,97.61C327.343,9.704,185.516,9.007,97.61,96.054s-88.603,228.874-1.557,316.78c0.516,0.521,1.035,1.04,1.557,1.557
	c87.047,87.906,228.874,88.603,316.78,1.557s88.603-228.874,1.557-316.78C415.43,98.645,414.911,98.126,414.39,97.61z M184,208
	c13.255,0,24,10.745,24,24s-10.745,24-24,24s-24-10.745-24-24l0,0c-0.033-13.222,10.658-23.967,23.88-24
	C183.92,208,183.96,208,184,208z M351.67,314.17c-12,40.3-50.2,69.83-95.62,69.83s-83.62-29.53-95.72-69.83
	c-1.199-4.252,1.276-8.672,5.529-9.871c0.748-0.211,1.524-0.312,2.301-0.299h175.69c4.418-0.066,8.053,3.461,8.119,7.879
	C351.981,312.653,351.88,313.425,351.67,314.17z M328,256c-13.255,0-24-10.745-24-24s10.745-24,24-24s24,10.745,24,24
	c0.033,13.222-10.658,23.967-23.88,24C328.08,256,328.04,256,328,256z"/>
</svg>
