<?xml version="1.0" encoding="iso-8859-1"?>
<!-- Generator: Adobe Illustrator 24.3.0, SVG Export Plug-In . SVG Version: 6.00 Build 0)  -->
<svg version="1.1" id="Layer_1" xmlns="http://www.w3.org/2000/svg" xmlns:xlink="http://www.w3.org/1999/xlink" x="0px" y="0px"
	 viewBox="0 0 512 512" style="enable-background:new 0 0 512 512;" xml:space="preserve">
<path style="fill:none;" d="M352,128H160c-17.673,0-32,14.327-32,32v192c0,17.673,14.327,32,32,32h192c17.673,0,32-14.327,32-32V160
	C384,142.327,369.673,128,352,128z M352,344c0,4.418-3.582,8-8,8H168c-4.418,0-8-3.582-8-8V168c0-4.418,3.582-8,8-8h176
	c4.418,0,8,3.582,8,8V344z"/>
<path d="M168,160h176c4.418,0,8,3.582,8,8v176c0,4.418-3.582,8-8,8H168c-4.418,0-8-3.582-8-8V168C160,163.582,163.582,160,168,160z"
	/>
<path d="M464,192c8.837,0,16-7.163,16-16s-7.163-16-16-16h-16v-32c-0.039-35.33-28.67-63.961-64-64h-32V48c0-8.837-7.163-16-16-16
	s-16,7.163-16,16v16h-48V48c0-8.837-7.163-16-16-16c-8.837,0-16,7.163-16,16v16h-48V48c0-8.837-7.163-16-16-16s-16,7.163-16,16v16
	h-32c-35.33,0.039-63.961,28.67-64,64v32H48c-8.837,0-16,7.163-16,16s7.163,16,16,16h16v48H48c-8.837,0-16,7.163-16,16
	c0,8.837,7.163,16,16,16h16v48H48c-8.837,0-16,7.163-16,16s7.163,16,16,16h16v32c0.039,35.33,28.67,63.961,64,64h32v16
	c0,8.837,7.163,16,16,16s16-7.163,16-16v-16h48v16c0,8.837,7.163,16,16,16c8.837,0,16-7.163,16-16v-16h48v16c0,8.837,7.163,16,16,16
	s16-7.163,16-16v-16h32c35.33-0.039,63.961-28.67,64-64v-32h16c8.837,0,16-7.163,16-16s-7.163-16-16-16h-16v-48h16
	c8.837,0,16-7.163,16-16c0-8.837-7.163-16-16-16h-16v-48H464z M384,352c0,17.673-14.327,32-32,32H160c-17.673,0-32-14.327-32-32V160
	c0-17.673,14.327-32,32-32h192c17.673,0,32,14.327,32,32V352z"/>
</svg>
