<?xml version="1.0" encoding="iso-8859-1"?>
<!-- Generator: Adobe Illustrator 24.3.0, SVG Export Plug-In . SVG Version: 6.00 Build 0)  -->
<svg version="1.1" id="Layer_1" xmlns="http://www.w3.org/2000/svg" xmlns:xlink="http://www.w3.org/1999/xlink" x="0px" y="0px"
	 viewBox="0 0 512 512" style="enable-background:new 0 0 512 512;" xml:space="preserve">
<path d="M384,448H128c-35.29,0-64-28.71-64-64V128c0-35.29,28.71-64,64-64h256c35.29,0,64,28.71,64,64v256
	C448,419.29,419.29,448,384,448z M128,96c-17.645,0-32,14.355-32,32v256c0,17.645,14.355,32,32,32h256c17.645,0,32-14.355,32-32V128
	c0-17.645-14.355-32-32-32H128z"/>
<path d="M352,384H160c-17.645,0-32-14.355-32-32V160c0-17.645,14.355-32,32-32h192c17.645,0,32,14.355,32,32V352
	C384,369.645,369.645,384,352,384z M160,160c-0.014,0-0.02,0.001-0.02,0.001L160,352h192V160H160z"/>
<path d="M256,96c-8.836,0-16-7.164-16-16V48c0-8.836,7.164-16,16-16c8.837,0,16,7.164,16,16v32C272,88.836,264.837,96,256,96z"/>
<path d="M336,96c-8.837,0-16-7.164-16-16V48c0-8.836,7.163-16,16-16s16,7.164,16,16v32C352,88.836,344.837,96,336,96z"/>
<path d="M176,96c-8.836,0-16-7.164-16-16V48c0-8.836,7.164-16,16-16s16,7.164,16,16v32C192,88.836,184.836,96,176,96z"/>
<path d="M256,480c-8.836,0-16-7.163-16-16v-32c0-8.837,7.164-16,16-16c8.837,0,16,7.163,16,16v32C272,472.837,264.837,480,256,480z"
	/>
<path d="M336,480c-8.837,0-16-7.163-16-16v-32c0-8.837,7.163-16,16-16s16,7.163,16,16v32C352,472.837,344.837,480,336,480z"/>
<path d="M176,480c-8.836,0-16-7.163-16-16v-32c0-8.837,7.164-16,16-16s16,7.163,16,16v32C192,472.837,184.836,480,176,480z"/>
<path d="M464,272h-32c-8.837,0-16-7.164-16-16.001c0-8.836,7.163-16,16-16h32c8.837,0,16,7.164,16,16
	C480,264.836,472.837,272,464,272z"/>
<path d="M464,352h-32c-8.837,0-16-7.163-16-16s7.163-16,16-16h32c8.837,0,16,7.163,16,16S472.837,352,464,352z"/>
<path d="M464,192h-32c-8.837,0-16-7.164-16-16s7.163-16,16-16h32c8.837,0,16,7.164,16,16S472.837,192,464,192z"/>
<path d="M80,272H48c-8.836,0-16-7.164-16-16.001c0-8.836,7.164-16,16-16h32c8.836,0,16,7.164,16,16C96,264.836,88.836,272,80,272z"
	/>
<path d="M80,352H48c-8.836,0-16-7.163-16-16s7.164-16,16-16h32c8.836,0,16,7.163,16,16S88.836,352,80,352z"/>
<path d="M80,192H48c-8.836,0-16-7.164-16-16s7.164-16,16-16h32c8.836,0,16,7.164,16,16S88.836,192,80,192z"/>
</svg>
