<?xml version="1.0" encoding="iso-8859-1"?>
<!-- Generator: Adobe Illustrator 24.3.0, SVG Export Plug-In . SVG Version: 6.00 Build 0)  -->
<svg version="1.1" id="Layer_1" xmlns="http://www.w3.org/2000/svg" xmlns:xlink="http://www.w3.org/1999/xlink" x="0px" y="0px"
	 viewBox="0 0 512 512" style="enable-background:new 0 0 512 512;" xml:space="preserve">
<rect x="160" y="160" width="192" height="192"/>
<path d="M480,198v-44h-32V88c0-13.255-10.745-24-24-24h-66V32h-44v32h-36V32h-44v32h-36V32h-44v32H88c-13.255,0-24,10.745-24,24v66
	H32v44h32v36H32v44h32v36H32v44h32v66c0,13.255,10.745,24,24,24h66v32h44v-32h36v32h44v-32h36v32h44v-32h66
	c13.255,0,24-10.745,24-24v-66h32v-44h-32v-36h32v-44h-32v-36H480z M128,128h256v256H128V128z"/>
</svg>
