<?xml version="1.0" encoding="iso-8859-1"?>
<!-- Generator: Adobe Illustrator 24.3.0, SVG Export Plug-In . SVG Version: 6.00 Build 0)  -->
<svg version="1.1" id="Layer_1" xmlns="http://www.w3.org/2000/svg" xmlns:xlink="http://www.w3.org/1999/xlink" x="0px" y="0px"
	 viewBox="0 0 512 512" style="enable-background:new 0 0 512 512;" xml:space="preserve">
<path d="M411.16,97.46C368.43,55.86,311.88,32,256,32S143.57,55.86,100.84,97.46C56.45,140.67,32,197,32,256
	c0,26.67,8.75,61.09,32.88,125.55S137,473,157.27,477.41c5.81,1.27,12.62,2.59,18.73,2.59c10.528,0.009,20.874-2.75,30-8l14-8
	c15.07-8.82,19.47-28.13,10.8-43.35l-86.92-152.57c-8.647-15.242-28.013-20.588-43.255-11.941c-0.105,0.06-0.21,0.12-0.315,0.181
	l-13.69,8c-5.262,3.082-9.989,6.996-14,11.59c-1.433,1.681-3.958,1.883-5.639,0.45c-0.734-0.626-1.218-1.496-1.361-2.45
	c-1.008-5.918-1.55-11.907-1.62-17.91c0-50.31,21-98.48,59.16-135.61C160,84.55,208.39,64,256,64s96,20.55,132.84,56.39
	C427,157.52,448,205.69,448,256c-0.09,6.005-0.652,11.993-1.68,17.91c-0.328,2.185-2.365,3.689-4.55,3.361
	c-0.954-0.143-1.824-0.627-2.45-1.361c-4.011-4.594-8.738-8.508-14-11.59l-13.69-8c-15.142-8.821-34.568-3.697-43.389,11.445
	c-0.061,0.105-0.121,0.21-0.181,0.315L281.2,420.65c-8.67,15.22-4.27,34.53,10.8,43.35l14,8c9.126,5.25,19.472,8.009,30,8
	c6.11,0,12.92-1.32,18.73-2.59C375,473,423,446,447.12,381.55S480,282.67,480,256C480,197,455.55,140.67,411.16,97.46z"/>
</svg>
