<?xml version="1.0" encoding="iso-8859-1"?>
<!-- Generator: Adobe Illustrator 24.3.0, SVG Export Plug-In . SVG Version: 6.00 Build 0)  -->
<svg version="1.1" id="Layer_1" xmlns="http://www.w3.org/2000/svg" xmlns:xlink="http://www.w3.org/1999/xlink" x="0px" y="0px"
	 viewBox="0 0 512 512" style="enable-background:new 0 0 512 512;" xml:space="preserve">
<path d="M428.996,400.004c-1.921,0-3.873-0.348-5.772-1.083c-8.24-3.189-12.335-12.456-9.145-20.697
	C442.115,305.798,448,271.782,448,256c0-50.316-21.01-98.478-59.159-135.615C352.03,84.551,303.611,64,256,64
	c-47.612,0-96.03,20.551-132.841,56.385C85.01,157.522,64,205.684,64,256c0,23.29,12.035,66.666,33.887,122.136
	c3.239,8.222-0.801,17.512-9.022,20.751c-8.22,3.238-17.512-0.801-20.751-9.022C51.639,348.044,32,290.872,32,256
	c0-59.026,24.447-115.332,68.838-158.545C143.57,55.857,200.125,32,256,32c55.876,0,112.43,23.857,155.162,65.455
	C455.553,140.668,480,196.974,480,256c0,27.301-11.802,71.06-36.079,133.777C441.466,396.119,435.412,400.004,428.996,400.004z"/>
<path d="M176.167,480.005c-6.12,0-12.464-0.865-18.946-2.604c-29.903-8.021-59.738-33.876-79.808-69.16
	c-33.145-58.273-29.102-121.49,9.204-143.919l13.669-7.987c0.127-0.075,0.255-0.149,0.384-0.222
	c15.256-8.615,34.656-3.219,43.262,12.018l86.863,152.531c8.594,15.119,3.433,34.644-11.498,43.534l-0.113,0.067l-13.69,8
	C196.703,477.408,186.772,480.004,176.167,480.005z M116.199,284.099l-13.426,7.846c-5.59,3.272-15.083,12.271-15.725,35.69
	c-0.546,19.899,6.081,43.513,18.18,64.785c15.693,27.589,38.792,48.309,60.284,54.074c9.4,2.521,17.416,1.897,23.828-1.854
	l13.595-7.944c0.066-0.046,0.087-0.137,0.047-0.208L116.199,284.099z"/>
<path d="M335.832,479.995c-10.606,0-20.537-2.598-29.333-7.745l-13.796-8.062c-14.931-8.892-20.09-28.417-11.503-43.524
	l86.896-152.58c8.578-15.188,27.979-20.584,43.217-11.979l0.37,0.213l13.689,8c38.354,22.443,42.396,85.66,9.209,143.923
	c-20.104,35.298-49.952,61.152-79.842,69.161C348.273,479.132,341.939,479.995,335.832,479.995z M309.066,436.687l13.586,7.938
	c6.414,3.753,14.42,4.379,23.807,1.864c21.48-5.755,44.593-26.48,60.317-54.089c12.111-21.262,18.741-44.87,18.191-64.771
	c-0.647-23.414-10.145-32.41-15.749-35.689l-13.418-7.842l-86.787,152.39C308.979,436.549,309,436.64,309.066,436.687z"/>
</svg>
