<?xml version="1.0" encoding="iso-8859-1"?>
<!-- Generator: Adobe Illustrator 24.3.0, SVG Export Plug-In . SVG Version: 6.00 Build 0)  -->
<svg version="1.1" id="Layer_1" xmlns="http://www.w3.org/2000/svg" xmlns:xlink="http://www.w3.org/1999/xlink" x="0px" y="0px"
	 viewBox="0 0 512 512" style="enable-background:new 0 0 512 512;" xml:space="preserve">
<path d="M411.16,97.45C368.43,55.85,311.88,32,256,32S143.57,55.85,100.84,97.45C56.45,140.67,32,196,32,256
	s26.84,118.49,45.42,152.25S121,480,144,480c32,0,96-32,96-32L128,240l-54.42,31.73c-0.67-6.258-1.004-12.547-1-18.84
	c0-48.57,19.32-94.1,56.15-130C164.24,88.34,210,70,256,70s91.73,18.34,127.27,52.93c36.83,35.86,56.14,81.39,56.14,130
	c0.004,6.287-0.33,12.569-1,18.82L384,240L272,448c0,0,64,32,96,32c23,0,48-38,66.58-71.75S480,316,480,256
	S455.55,140.67,411.16,97.45z"/>
</svg>
