<?xml version="1.0" encoding="iso-8859-1"?>
<!-- Generator: Adobe Illustrator 24.3.0, SVG Export Plug-In . SVG Version: 6.00 Build 0)  -->
<svg version="1.1" id="Layer_1" xmlns="http://www.w3.org/2000/svg" xmlns:xlink="http://www.w3.org/1999/xlink" x="0px" y="0px"
	 viewBox="0 0 512 512" style="enable-background:new 0 0 512 512;" xml:space="preserve">
<path d="M256,448c-6.423-0.008-12.695-1.949-18-5.57c-78.59-53.35-112.62-89.93-131.39-112.8c-40-48.75-59.15-98.8-58.61-153
	C48.63,114.52,98.46,64,159.08,64c44.08,0,74.61,24.83,92.39,45.51c2.173,2.502,5.962,2.769,8.464,0.596
	c0.212-0.184,0.411-0.383,0.596-0.596C278.31,88.81,308.84,64,352.92,64c60.62,0,110.45,50.52,111.08,112.64
	c0.54,54.21-18.63,104.26-58.61,153c-18.77,22.87-52.8,59.45-131.39,112.8C268.694,446.058,262.422,447.995,256,448z"/>
</svg>
