<?xml version="1.0" encoding="iso-8859-1"?>
<!-- Generator: Adobe Illustrator 24.3.0, SVG Export Plug-In . SVG Version: 6.00 Build 0)  -->
<svg version="1.1" id="Layer_1" xmlns="http://www.w3.org/2000/svg" xmlns:xlink="http://www.w3.org/1999/xlink" x="0px" y="0px"
	 viewBox="0 0 512 512" style="enable-background:new 0 0 512 512;" xml:space="preserve">
<path d="M256,464C141.309,464,48,370.692,48,256c0-114.691,93.309-208,208-208s208,93.309,208,208C464,370.692,370.691,464,256,464z
	 M256,80c-97.047,0-176,78.953-176,176C80,353.047,158.953,432,256,432S432,353.047,432,256C432,158.953,353.047,80,256,80z"/>
<path d="M333.2,297.69c18.28-23.39,27.06-47.43,26.79-73.37c-0.31-31.06-25.22-56.33-55.53-56.33c-20.4,0-35,10.64-44.11,20.42
	c-2.226,2.402-5.978,2.546-8.38,0.32c-0.111-0.102-0.217-0.209-0.32-0.32c-9.11-9.78-23.71-20.42-44.11-20.42L206,168
	c-2.209,0.037-3.97,1.857-3.933,4.066c0.017,1.044,0.442,2.039,1.183,2.774l124,123.21c1.503,1.558,3.985,1.603,5.543,0.1
	C332.94,298.007,333.077,297.854,333.2,297.69z"/>
<path d="M158.84,221c-1.566-1.558-4.098-1.552-5.657,0.014c-0.718,0.721-1.134,1.689-1.163,2.706c0,0.21,0,0.43,0,0.64
	c-0.28,27.1,9.31,52.13,29.3,76.5c9.38,11.44,26.4,29.73,65.7,56.41c5.425,3.715,12.575,3.715,18,0c5.15-3.49,9.9-6.84,14.31-10
	c1.784-1.302,2.175-3.805,0.873-5.589c-0.125-0.171-0.263-0.332-0.413-0.481L158.84,221z"/>
<path d="M336,368c-4.244,0.007-8.316-1.681-11.31-4.69l-176-176c-6.086-6.406-5.827-16.534,0.579-22.62
	c6.176-5.867,15.865-5.867,22.04,0l176,176c6.246,6.25,6.243,16.381-0.007,22.627C344.304,366.314,340.239,367.998,336,368z"/>
</svg>
