<?xml version="1.0" encoding="iso-8859-1"?>
<!-- Generator: Adobe Illustrator 24.3.0, SVG Export Plug-In . SVG Version: 6.00 Build 0)  -->
<svg version="1.1" id="Layer_1" xmlns="http://www.w3.org/2000/svg" xmlns:xlink="http://www.w3.org/1999/xlink" x="0px" y="0px"
	 viewBox="0 0 512 512" style="enable-background:new 0 0 512 512;" xml:space="preserve">
<path d="M256,48C141.31,48,48,141.31,48,256s93.31,208,208,208s208-93.31,208-208S370.69,48,256,48z M319.73,358.36l-183.14-182.3
	l22.74-22.51l183.19,182.36L319.73,358.36z M256.22,363.22c-35.36-25-66.31-51.92-74.91-62.4c-20-24.37-29.58-49.4-29.3-76.5
	c0.034-3.121,0.318-6.234,0.85-9.31l130.21,129.4C279.64,347,266.86,355.86,256.22,363.22L256.22,363.22z M330.69,300.82l-0.31,0.38
	L197.33,169c3.364-0.658,6.783-0.993,10.21-1c16.783-0.058,32.806,6.995,44.1,19.41L256,192l4.36-4.6
	c11.295-12.412,27.318-19.46,44.1-19.4c30.31,0,55.22,25.27,55.53,56.33C360.27,251.42,350.68,276.45,330.69,300.82L330.69,300.82z"
	/>
</svg>
