<?xml version="1.0" encoding="iso-8859-1"?>
<!-- Generator: Adobe Illustrator 24.3.0, SVG Export Plug-In . SVG Version: 6.00 Build 0)  -->
<svg version="1.1" id="Layer_1" xmlns="http://www.w3.org/2000/svg" xmlns:xlink="http://www.w3.org/1999/xlink" x="0px" y="0px"
	 viewBox="0 0 512 512" style="enable-background:new 0 0 512 512;" xml:space="preserve">
<path d="M256,48C141.31,48,48,141.31,48,256s93.31,208,208,208s208-93.31,208-208S370.69,48,256,48z M279.3,347.19
	c-4.41,3.2-9.16,6.55-14.31,10c-5.425,3.715-12.575,3.715-18,0c-39.3-26.68-56.32-45-65.7-56.41c-20-24.37-29.58-49.4-29.3-76.5
	c0-0.21,0-0.43,0-0.64c0.064-2.208,1.905-3.947,4.114-3.883c1.017,0.029,1.985,0.445,2.706,1.163l120.95,120.2
	c1.568,1.556,1.577,4.089,0.021,5.657C279.632,346.927,279.471,347.065,279.3,347.19z M347.3,363.31
	c-6.248,6.243-16.372,6.243-22.62,0l-176-176c-6.086-6.406-5.827-16.534,0.579-22.62c6.176-5.867,15.865-5.867,22.04,0l176,176
	c6.246,6.245,6.251,16.37,0.01,22.62H347.3z M333.2,297.69c-1.285,1.742-3.739,2.113-5.482,0.828
	c-0.186-0.137-0.359-0.291-0.518-0.458l-124-123.21c-1.574-1.55-1.593-4.083-0.043-5.657c0.75-0.762,1.774-1.192,2.843-1.193h1.55
	c20.4,0,35,10.64,44.11,20.42c2.226,2.402,5.978,2.546,8.38,0.32c0.111-0.102,0.217-0.209,0.32-0.32
	c9.11-9.78,23.71-20.42,44.11-20.42c30.31,0,55.22,25.27,55.53,56.33C360.26,250.26,351.48,274.3,333.2,297.69z"/>
</svg>
