<?xml version="1.0" encoding="iso-8859-1"?>
<!-- Generator: Adobe Illustrator 24.3.0, SVG Export Plug-In . SVG Version: 6.00 Build 0)  -->
<svg version="1.1" id="Layer_1" xmlns="http://www.w3.org/2000/svg" xmlns:xlink="http://www.w3.org/1999/xlink" x="0px" y="0px"
	 viewBox="0 0 512 512" style="enable-background:new 0 0 512 512;" xml:space="preserve">
<path d="M256,464C141.309,464,48,370.692,48,256c0-114.691,93.309-208,208-208s208,93.309,208,208C464,370.692,370.691,464,256,464z
	 M256,80c-97.047,0-176,78.953-176,176C80,353.047,158.953,432,256,432S432,353.047,432,256C432,158.953,353.047,80,256,80z"/>
<path d="M256,360c-3.211-0.003-6.347-0.971-9-2.78c-39.3-26.68-56.32-45-65.7-56.41c-20-24.37-29.58-49.4-29.3-76.5
	c0.31-31.06,25.22-56.33,55.53-56.33c20.4,0,35,10.63,44.1,20.41c2.276,2.408,6.074,2.515,8.482,0.238
	c0.082-0.077,0.161-0.156,0.238-0.238c9.11-9.78,23.7-20.41,44.1-20.41c30.31,0,55.22,25.27,55.53,56.33
	c0.28,27.1-9.31,52.13-29.3,76.5c-9.38,11.44-26.4,29.73-65.7,56.41C262.333,359.025,259.204,359.993,256,360z"/>
</svg>
