<?xml version="1.0" encoding="iso-8859-1"?>
<!-- Generator: Adobe Illustrator 24.3.0, SVG Export Plug-In . SVG Version: 6.00 Build 0)  -->
<svg version="1.1" id="Layer_1" xmlns="http://www.w3.org/2000/svg" xmlns:xlink="http://www.w3.org/1999/xlink" x="0px" y="0px"
	 viewBox="0 0 512 512" style="enable-background:new 0 0 512 512;" xml:space="preserve">
<polygon points="32,64.45 421.47,454.39 444.31,431.92 54.85,42 "/>
<path d="M62.67,192.91c-0.56,55.63,19.77,106.94,62.16,156.88c40.25,47.42,94.56,79.67,137.47,108.21l9,6l9-6
	c18.49-12.3,39.1-25.3,59.79-39.89L71.74,149.28C65.891,163.09,62.81,177.913,62.67,192.91z"/>
<path d="M417.83,349.79c42.39-49.94,62.72-101.25,62.16-156.88c-0.63-62-50.61-112.54-111.43-112.54c-48.26,0-80.35,28-97.23,48.17
	c-16.88-20.2-49-48.17-97.23-48.17c-10.59,0.006-21.123,1.566-31.26,4.63l270,270.48C414.55,353.59,416.21,351.7,417.83,349.79z"/>
</svg>
