<?xml version="1.0" encoding="iso-8859-1"?>
<!-- Generator: Adobe Illustrator 24.3.0, SVG Export Plug-In . SVG Version: 6.00 Build 0)  -->
<svg version="1.1" id="Layer_1" xmlns="http://www.w3.org/2000/svg" xmlns:xlink="http://www.w3.org/1999/xlink" x="0px" y="0px"
	 viewBox="0 0 512 512" style="enable-background:new 0 0 512 512;" xml:space="preserve">
<path d="M352.92,64c-48.11,0-80.1,28-96.92,48.21C239.18,92,207.19,64,159.08,64C98.46,64,48.63,114.54,48,176.65
	c-0.56,55.68,19.71,107,62,157c40.12,47.46,94.25,79.75,137,108.32l9,6l9-6c42.78-28.57,96.91-60.86,137-108.32
	c42.25-50,62.52-101.35,62-157C463.37,114.54,413.54,64,352.92,64z M377.59,313c-31.78,37.6-74.68,65.75-112.52,90.59l-9.07,6
	V162.23l24.59-29.54C294.53,116,318.38,96,352.92,96c43.15,0,78.62,36.32,79.07,81c0.318,23.475-3.994,46.783-12.69,68.59
	C410.27,268.43,396.63,290.5,377.59,313L377.59,313z"/>
</svg>
