<?xml version="1.0" encoding="iso-8859-1"?>
<!-- Generator: Adobe Illustrator 24.3.0, SVG Export Plug-In . SVG Version: 6.00 Build 0)  -->
<svg version="1.1" id="Layer_1" xmlns="http://www.w3.org/2000/svg" xmlns:xlink="http://www.w3.org/1999/xlink" x="0px" y="0px"
	 viewBox="0 0 512 512" style="enable-background:new 0 0 512 512;" xml:space="preserve">
<path d="M352.92,64c-48.09,0-80,29.54-96.92,51c-16.88-21.49-48.83-51-96.92-51C98.46,64,48.63,114.54,48,176.65
	c-0.54,54.21,18.63,104.27,58.61,153c18.77,22.88,52.8,59.46,131.39,112.81c10.848,7.435,25.152,7.435,36,0
	c78.59-53.35,112.62-89.93,131.39-112.81c40-48.74,59.15-98.8,58.61-153C463.37,114.54,413.54,64,352.92,64z M256,416V207.58
	c0-19.63,5.23-38.76,14.21-56.22c0.023-0.055,0.049-0.109,0.08-0.16c5.824-10.516,13.159-20.122,21.77-28.51
	C310.19,105,330.66,96,352.92,96c43.15,0,78.62,36.32,79.07,81C433,281.61,343.63,356.51,256,416z"/>
</svg>
