<?xml version="1.0" encoding="iso-8859-1"?>
<!-- Generator: Adobe Illustrator 24.3.0, SVG Export Plug-In . SVG Version: 6.00 Build 0)  -->
<svg version="1.1" id="Layer_1" xmlns="http://www.w3.org/2000/svg" xmlns:xlink="http://www.w3.org/1999/xlink" x="0px" y="0px"
	 viewBox="0 0 512 512" style="enable-background:new 0 0 512 512;" xml:space="preserve">
<path d="M417.84,448c-4.262,0.007-8.35-1.693-11.35-4.72L40.65,75.26c-6.23-6.268-6.198-16.4,0.07-22.63s16.4-6.198,22.63,0.07
	l365.83,368c6.241,6.256,6.229,16.387-0.027,22.627C426.15,446.323,422.081,448.003,417.84,448z"/>
<path d="M364.92,80c-48.09,0-80,29.55-96.92,51c-16.88-21.48-48.83-51-96.92-51c-10.5-0.007-20.945,1.526-31,4.55L168,112
	c22.26,0,45.81,9,63.94,26.67c8.601,8.378,15.928,17.969,21.75,28.47c3.964,7.898,13.579,11.087,21.477,7.123
	c3.079-1.545,5.577-4.044,7.123-7.123c5.824-10.516,13.159-20.122,21.77-28.51C322.19,121,342.66,112,364.92,112
	c43.15,0,78.62,36.33,79.07,81c0.54,53.69-22.75,99.55-57.38,139.52l22.63,22.77c3-3.44,5.7-6.64,8.14-9.6
	c40-48.75,59.15-98.8,58.61-153C475.37,130.52,425.54,80,364.92,80z"/>
<path d="M268,432C180.38,372.51,91,297.6,92,193c0.064-6.194,0.815-12.362,2.24-18.39L69,149.14c-5.795,13.775-8.852,28.547-9,43.49
	c-0.54,54.22,18.63,104.27,58.61,153c18.77,22.87,52.8,59.45,131.39,112.8c10.848,7.435,25.152,7.435,36,0
	c20.35-13.81,37.7-26.5,52.58-38.11l-22.66-22.81C300.25,409.6,284.09,421.05,268,432z"/>
</svg>
