<?xml version="1.0" encoding="iso-8859-1"?>
<!-- Generator: Adobe Illustrator 24.3.0, SVG Export Plug-In . SVG Version: 6.00 Build 0)  -->
<svg version="1.1" id="Layer_1" xmlns="http://www.w3.org/2000/svg" xmlns:xlink="http://www.w3.org/1999/xlink" x="0px" y="0px"
	 viewBox="0 0 512 512" style="enable-background:new 0 0 512 512;" xml:space="preserve">
<path d="M256,48C141.31,48,48,141.31,48,256s93.31,208,208,208s208-93.31,208-208S370.69,48,256,48z M330.69,300.82
	c-9.38,11.44-26.4,29.73-65.7,56.41c-5.425,3.715-12.575,3.715-18,0c-39.3-26.68-56.32-45-65.7-56.41
	c-20-24.37-29.58-49.4-29.3-76.5c0.31-31.06,25.22-56.33,55.53-56.33c20.4,0,35,10.63,44.1,20.41
	c2.276,2.408,6.074,2.515,8.482,0.238c0.082-0.077,0.161-0.156,0.238-0.238c9.11-9.78,23.7-20.41,44.1-20.41
	c30.31,0,55.22,25.27,55.53,56.33C360.27,251.42,350.68,276.45,330.69,300.82z"/>
</svg>
