<?xml version="1.0" encoding="iso-8859-1"?>
<!-- Generator: Adobe Illustrator 24.3.0, SVG Export Plug-In . SVG Version: 6.00 Build 0)  -->
<svg version="1.1" id="Layer_1" xmlns="http://www.w3.org/2000/svg" xmlns:xlink="http://www.w3.org/1999/xlink" x="0px" y="0px"
	 viewBox="0 0 512 512" style="enable-background:new 0 0 512 512;" xml:space="preserve">
<path d="M256.005,448.039c-6.267,0-12.536-1.859-18.005-5.581c-78.58-53.334-112.618-89.917-131.384-112.795
	c-39.987-48.748-59.161-98.8-58.615-153.015C48.638,114.533,98.468,64,159.08,64c48.093,0,80.044,29.545,96.92,51.028
	C272.875,93.545,304.827,64,352.92,64c60.612,0,110.442,50.533,111.079,112.646c0.541,54.218-18.635,104.269-58.622,153.018
	c-18.765,22.876-52.801,59.459-131.391,112.805C268.528,446.182,262.268,448.039,256.005,448.039z M159.08,96
	c-43.147,0-78.623,36.325-79.081,80.974c-1.053,104.651,88.372,179.552,175.986,239.018
	c87.638-59.468,177.059-134.371,176.016-239.022C431.543,132.325,396.067,96,352.92,96c-22.258,0-42.733,8.98-60.857,26.69
	c-14.31,13.982-21.701,28.367-21.774,28.511c-2.71,5.42-8.239,8.822-14.299,8.822c-6.061,0-11.589-3.446-14.3-8.867
	c-0.05-0.098-7.442-14.483-21.751-28.465C201.813,104.98,181.338,96,159.08,96z"/>
</svg>
