<?xml version="1.0" encoding="iso-8859-1"?>
<!-- Generator: Adobe Illustrator 24.3.0, SVG Export Plug-In . SVG Version: 6.00 Build 0)  -->
<svg version="1.1" id="Layer_1" xmlns="http://www.w3.org/2000/svg" xmlns:xlink="http://www.w3.org/1999/xlink" x="0px" y="0px"
	 viewBox="0 0 512 512" style="enable-background:new 0 0 512 512;" xml:space="preserve">
<path d="M417.84,448c-4.261,0.001-8.346-1.698-11.35-4.72l-365.84-368c-6.23-6.268-6.198-16.4,0.07-22.63s16.4-6.198,22.63,0.07
	l365.83,368c6.23,6.267,6.2,16.398-0.067,22.627C426.117,446.326,422.064,447.998,417.84,448z"/>
<path d="M364.92,80c-44.09,0-74.61,24.82-92.39,45.5c-2.173,2.502-5.962,2.769-8.464,0.596c-0.212-0.184-0.411-0.383-0.596-0.596
	C245.69,104.82,215.16,80,171.08,80c-10.499-0.006-20.943,1.524-31,4.54l269.13,270.7c3-3.44,5.7-6.64,8.14-9.6
	c40-48.75,59.15-98.79,58.61-153C475.37,130.53,425.54,80,364.92,80z"/>
<path d="M69,149.15c-5.796,13.775-8.853,28.546-9,43.49c-0.54,54.21,18.63,104.25,58.61,153c18.77,22.87,52.8,59.45,131.39,112.8
	c10.852,7.424,25.148,7.424,36,0c20.35-13.82,37.7-26.5,52.58-38.12L69,149.15z"/>
</svg>
