<?xml version="1.0" encoding="iso-8859-1"?>
<!-- Generator: Adobe Illustrator 24.3.0, SVG Export Plug-In . SVG Version: 6.00 Build 0)  -->
<svg version="1.1" id="Layer_1" xmlns="http://www.w3.org/2000/svg" xmlns:xlink="http://www.w3.org/1999/xlink" x="0px" y="0px"
	 viewBox="0 0 512 512" style="enable-background:new 0 0 512 512;" xml:space="preserve">
<path style="fill:none;" d="M288.55,150.84c-8.09-3.86-20-6-32.72-5.82c-18,0.22-33.13,5.2-45,14.78
	c-23,18.48-24.55,40.37-24.77,42.8c-0.42,3.988-0.45,8.007-0.09,12c0.159,1.535,1.457,2.698,3,2.69h21.23c1.657,0,3-1.343,3-3
	c-0.004-3.446,0.264-6.886,0.8-10.29c0-0.11,1.14-11.7,14.36-22.34c7-5.64,16.11-8.44,27.83-8.59c9.32-0.11,16.93,1.47,20.34,3.09
	C291,183,298,192.31,298,204.57c0,18-10.9,26.23-30.18,39.18C247.08,257.68,237,275.1,237,297v11c0,1.657,1.343,3,3,3h22
	c1.657,0,3-1.343,3-3v-11c0-9.16,2.23-19.13,18.44-30c19.95-13.41,42.56-28.6,42.56-62.43C326,181.43,312.7,162.34,288.55,150.84z"
	/>
<path d="M256,64C150,64,64,150,64,256s86,192,192,192s192-86,192-192S362,64,256,64z M266.44,366h-30.21
	c-1.415-0.006-2.56-1.155-2.56-2.57v-30.2c0-1.415,1.145-2.564,2.56-2.57h30.21c1.415,0.006,2.56,1.155,2.56,2.57v30.2
	C269,364.846,267.855,365.995,266.44,366z M283.44,267C267.23,277.88,265,287.85,265,297v11c0,1.657-1.343,3-3,3h-22
	c-1.657,0-3-1.343-3-3v-11c0-21.91,10.08-39.33,30.82-53.26C287.1,230.8,298,222.6,298,204.57c0-12.26-7-21.57-21.49-28.46
	c-3.41-1.62-11-3.2-20.34-3.09c-11.72,0.15-20.82,2.95-27.83,8.59C215.12,192.25,214,203.84,214,204
	c-0.549,3.399-0.83,6.837-0.84,10.28c0,1.657-1.343,3-3,3h-21.25c-1.543,0.008-2.841-1.155-3-2.69c-0.36-3.993-0.33-8.012,0.09-12
	c0.22-2.43,1.8-24.32,24.77-42.8c11.91-9.58,27.06-14.56,45-14.78c12.7-0.15,24.63,2,32.72,5.82c24.21,11.51,37.51,30.6,37.51,53.74
	C326,238.4,303.39,253.59,283.44,267z"/>
</svg>
