<?xml version="1.0" encoding="iso-8859-1"?>
<!-- Generator: Adobe Illustrator 24.3.0, SVG Export Plug-In . SVG Version: 6.00 Build 0)  -->
<svg version="1.1" id="Layer_1" xmlns="http://www.w3.org/2000/svg" xmlns:xlink="http://www.w3.org/1999/xlink" x="0px" y="0px"
	 viewBox="0 0 512 512" style="enable-background:new 0 0 512 512;" xml:space="preserve">
<path d="M256,448C150.131,448,64,361.87,64,256c0-105.869,86.131-192,192-192s192,86.131,192,192C448,361.87,361.869,448,256,448z
	 M256,96c-88.224,0-160,71.776-160,160S167.776,416,256,416c88.225,0,160-71.776,160-160.001S344.225,96,256,96z"/>
<path d="M251,310c-7.732,0-14-6.268-14-14c0-21.943,10.085-39.374,30.832-53.288C287.1,229.792,298,221.601,298,203.54
	c0-12.261-7.028-21.567-21.486-28.449c-3.414-1.625-11.009-3.214-20.335-3.092c-11.729,0.176-20.841,2.997-27.826,8.624
	c-13.166,10.593-14.342,22.126-14.385,22.612c0.016-0.18,0.017-0.274,0.017-0.274l-27.968-1.342
	c0.117-2.435,1.805-24.323,24.777-42.807c11.862-9.556,27.003-14.541,44.997-14.811c12.729-0.17,24.664,1.955,32.758,5.808
	C312.699,161.305,326,180.387,326,203.54c0,33.877-23.605,49.708-42.572,62.427C267.232,276.829,265,286.821,265,296
	C265,303.733,258.732,310,251,310z"/>
<circle cx="250" cy="348" r="20"/>
</svg>
