<?xml version="1.0" encoding="iso-8859-1"?>
<!-- Generator: Adobe Illustrator 24.3.0, SVG Export Plug-In . SVG Version: 6.00 Build 0)  -->
<svg version="1.1" id="Layer_1" xmlns="http://www.w3.org/2000/svg" xmlns:xlink="http://www.w3.org/1999/xlink" x="0px" y="0px"
	 viewBox="0 0 512 512" style="enable-background:new 0 0 512 512;" xml:space="preserve">
<path d="M256,480c-59.833,0-116.084-23.3-158.392-65.608C55.3,372.084,32,315.832,32,256S55.3,139.916,97.608,97.608
	C139.917,55.3,196.167,32,256,32c59.832,0,116.084,23.3,158.392,65.608C456.7,139.916,480,196.167,480,256
	s-23.3,116.084-65.608,158.392C372.084,456.701,315.832,480,256,480z M256,64C150.131,64,64,150.131,64,256
	C64,361.87,150.131,448,256,448S448,361.87,448,256C448,150.131,361.869,64,256,64z"/>
<path d="M256,352c-52.935,0-96-43.065-96-96.001c0-52.935,43.065-96,96-96s96,43.065,96,96C352,308.935,308.935,352,256,352z
	 M256,192c-35.29,0-64,28.71-64,64S220.71,320,256,320c35.29,0,64-28.711,64-64.001S291.29,192,256,192z"/>
<path d="M215.985,202c-8.394,0-15.441-6.542-15.956-15.033l-8-132c-0.535-8.82,6.183-16.404,15.003-16.938
	c8.801-0.537,16.404,6.182,16.938,15.003l8,132c0.535,8.82-6.183,16.404-15.003,16.938C216.639,201.991,216.311,202,215.985,202z"/>
<path d="M296.015,202c-0.326,0-0.652-0.01-0.982-0.03c-8.82-0.535-15.537-8.118-15.003-16.938l8-132
	c0.534-8.821,8.109-15.545,16.938-15.003c8.82,0.535,15.537,8.118,15.003,16.938l-8,132C311.456,195.458,304.408,202,296.015,202z"
	/>
<path d="M208.015,474.001c-0.326,0-0.653-0.011-0.983-0.03c-8.82-0.534-15.538-8.118-15.003-16.938l8-132
	c0.535-8.82,8.116-15.524,16.938-15.003c8.82,0.534,15.538,8.118,15.003,16.938l-8,132
	C223.456,467.458,216.409,474.001,208.015,474.001z"/>
<path d="M303.985,474.001c-8.395,0-15.441-6.542-15.956-15.033l-8-132c-0.534-8.82,6.183-16.404,15.003-16.938
	c8.821-0.519,16.404,6.183,16.938,15.003l8,132c0.534,8.82-6.183,16.404-15.003,16.938
	C304.639,473.991,304.311,474.001,303.985,474.001z"/>
<path d="M325.985,232c-8.395,0-15.441-6.542-15.956-15.033c-0.534-8.82,6.183-16.404,15.003-16.938l132-8
	c8.83-0.536,16.404,6.183,16.938,15.003s-6.183,16.404-15.003,16.938l-132,8C326.639,231.991,326.311,232,325.985,232z"/>
<path d="M458.015,320.001c-0.326,0-0.652-0.011-0.982-0.03l-132-8c-8.82-0.534-15.537-8.118-15.003-16.938
	c0.535-8.82,8.117-15.521,16.938-15.003l132,8c8.82,0.534,15.537,8.118,15.003,16.938
	C473.456,313.458,466.408,320.001,458.015,320.001z"/>
<path d="M186.015,232c-0.326,0-0.653-0.01-0.983-0.03l-132-8c-8.82-0.535-15.538-8.118-15.003-16.938s8.109-15.541,16.938-15.003
	l132,8c8.82,0.535,15.538,8.118,15.003,16.938C201.456,225.458,194.409,232,186.015,232z"/>
<path d="M53.985,320.001c-8.394,0-15.441-6.542-15.956-15.033c-0.535-8.82,6.183-16.404,15.003-16.938l132-8
	c8.799-0.528,16.403,6.182,16.938,15.003c0.535,8.82-6.183,16.404-15.003,16.938l-132,8
	C54.639,319.991,54.311,320.001,53.985,320.001z"/>
</svg>
