<?xml version="1.0" encoding="iso-8859-1"?>
<!-- Generator: Adobe Illustrator 24.3.0, SVG Export Plug-In . SVG Version: 6.00 Build 0)  -->
<svg version="1.1" id="Layer_1" xmlns="http://www.w3.org/2000/svg" xmlns:xlink="http://www.w3.org/1999/xlink" x="0px" y="0px"
	 viewBox="0 0 512 512" style="enable-background:new 0 0 512 512;" xml:space="preserve">
<path d="M268,336h-40v-20c0-33.419,12.697-53.43,50.318-79.3C312.603,213.124,332,198.123,332,164
	c0-23.525-12.86-41.261-39.316-54.218c-5.733-2.795-18.717-5.986-36.438-5.783c-20.931,0.286-37.29,5.512-49.984,15.975
	C180,141.62,180,158.465,180,164v20h-40v-20c0-27.369,13.733-52.566,40.819-74.893c19.714-16.249,44.917-24.696,74.908-25.105
	c21.303-0.256,41.153,3.326,54.519,9.841c15.283,7.486,27.966,16.733,37.729,27.502C363.916,118.931,372,140.011,372,164
	c0,56.823-37.729,82.769-71.017,105.66C269.468,291.331,268,300.454,268,316V336z"/>
<path d="M223.5,368h49c1.933,0,3.5,1.567,3.5,3.5v49c0,1.933-1.567,3.5-3.5,3.5h-49c-1.933,0-3.5-1.567-3.5-3.5v-49
	C220,369.567,221.567,368,223.5,368z"/>
</svg>
