<?xml version="1.0" encoding="iso-8859-1"?>
<!-- Generator: Adobe Illustrator 24.3.0, SVG Export Plug-In . SVG Version: 6.00 Build 0)  -->
<svg version="1.1" id="Layer_1" xmlns="http://www.w3.org/2000/svg" xmlns:xlink="http://www.w3.org/1999/xlink" x="0px" y="0px"
	 viewBox="0 0 512 512" style="enable-background:new 0 0 512 512;" xml:space="preserve">
<path d="M248,344c-11.046,0-20-8.954-20-20c0-36.445,15.519-63.37,50.318-87.3C312.603,213.124,332,198.123,332,164
	c0-23.526-12.86-41.261-39.316-54.218c-5.733-2.795-18.717-5.986-36.438-5.783c-20.931,0.286-37.29,5.512-49.984,15.975
	c-24.305,20.035-26.222,44.122-26.292,45.137l0.012-0.238l-39.962-1.744c0.075-1.71,2.271-42.262,40.8-74.021
	c19.714-16.249,44.917-24.696,74.908-25.105c21.303-0.256,41.153,3.326,54.519,9.841c15.283,7.486,27.966,16.733,37.729,27.502
	C363.916,118.931,372,140.011,372,164c0,56.823-37.729,82.769-71.017,105.66C273.518,288.546,268,304.455,268,324
	C268,335.046,259.046,344,248,344z"/>
<circle cx="248" cy="399.99" r="32"/>
</svg>
