<?xml version="1.0" encoding="iso-8859-1"?>
<!-- Generator: Adobe Illustrator 24.3.0, SVG Export Plug-In . SVG Version: 6.00 Build 0)  -->
<svg version="1.1" id="Layer_1" xmlns="http://www.w3.org/2000/svg" xmlns:xlink="http://www.w3.org/1999/xlink" x="0px" y="0px"
	 viewBox="0 0 512 512" style="enable-background:new 0 0 512 512;" xml:space="preserve">
<path d="M256,32C132.29,32,32,132.29,32,256s100.29,224,224,224s224-100.29,224-224S379.71,32,256,32z M192,256
	c0-35.346,28.654-64,64-64s64,28.654,64,64s-28.654,64-64,64S192,291.346,192,256z M429.24,193.71L342.91,199
	c-7.825-11.875-17.985-22.035-29.86-29.86l5.24-86.33c51.642,18.69,92.31,59.358,111,111L429.24,193.71z M125.89,125.89
	c19.14-19.213,42.303-33.943,67.82-43.13l5.29,86.33c-11.898,7.835-22.075,18.012-29.91,29.91l-86.33-5.24
	C91.94,168.225,106.671,145.045,125.89,125.89z M82.76,318.29l86.33-5.24c7.84,11.88,18.017,22.04,29.91,29.86l-5.24,86.33
	C142.129,410.561,101.462,369.913,82.76,318.29z M386.11,386.11c-19.141,19.213-42.303,33.943-67.82,43.13l-5.24-86.33
	c11.875-7.825,22.035-17.985,29.86-29.86l86.33,5.24C420.053,343.807,405.323,366.97,386.11,386.11L386.11,386.11z"/>
</svg>
