<?xml version="1.0" encoding="iso-8859-1"?>
<!-- Generator: Adobe Illustrator 24.3.0, SVG Export Plug-In . SVG Version: 6.00 Build 0)  -->
<svg version="1.1" id="Layer_1" xmlns="http://www.w3.org/2000/svg" xmlns:xlink="http://www.w3.org/1999/xlink" x="0px" y="0px"
	 viewBox="0 0 512 512" style="enable-background:new 0 0 512 512;" xml:space="preserve">
<path d="M256,64C150,64,64,150,64,256s86,192,192,192s192-86,192-192S362,64,256,64z M250,368c-11.046,0-20-8.954-20-20
	s8.954-20,20-20c11.046,0,20,8.954,20,20S261.046,368,250,368z M283.44,266C267.23,276.88,265,286.85,265,296
	c0,7.732-6.268,14-14,14c-7.732,0-14-6.268-14-14c0-21.91,10.08-39.33,30.82-53.26C287.1,229.8,298,221.6,298,203.57
	c0-12.26-7-21.57-21.49-28.46c-3.41-1.62-11-3.2-20.34-3.09c-11.72,0.15-20.82,2.95-27.83,8.59C215.12,191.25,214,202.83,214,203
	c-0.373,7.732-6.943,13.698-14.675,13.325S185.627,209.382,186,201.65c0.11-2.43,1.8-24.32,24.77-42.8
	c11.91-9.58,27.06-14.56,45-14.78c12.7-0.15,24.63,2,32.72,5.82C312.7,161.34,326,180.43,326,203.57
	C326,237.4,303.39,252.59,283.44,266z"/>
</svg>
