<?xml version="1.0" encoding="iso-8859-1"?>
<!-- Generator: Adobe Illustrator 24.3.0, SVG Export Plug-In . SVG Version: 6.00 Build 0)  -->
<svg version="1.1" id="Layer_1" xmlns="http://www.w3.org/2000/svg" xmlns:xlink="http://www.w3.org/1999/xlink" x="0px" y="0px"
	 viewBox="0 0 512 512" style="enable-background:new 0 0 512 512;" xml:space="preserve">
<path d="M414.39,97.61C327.343,9.704,185.516,9.007,97.61,96.054s-88.603,228.874-1.557,316.78c0.516,0.521,1.035,1.04,1.557,1.557
	c87.047,87.906,228.874,88.603,316.78,1.557s88.603-228.874,1.557-316.78C415.43,98.645,414.911,98.126,414.39,97.61z
	 M192.13,260.18c-2.305-35.271,24.419-65.732,59.69-68.038c35.271-2.305,65.732,24.419,68.038,59.69
	c2.305,35.271-24.419,65.732-59.69,68.038c-2.78,0.182-5.568,0.182-8.348,0C219.776,317.745,194.255,292.224,192.13,260.18z
	 M432.13,193.54l-96.37,5.84c-1.339,0.07-2.626-0.525-3.44-1.59c-5.191-6.802-11.268-12.879-18.07-18.07
	c-1.065-0.814-1.66-2.101-1.59-3.44l5.84-96.37c0.125-2.206,2.015-3.892,4.221-3.767c0.411,0.023,0.815,0.11,1.199,0.257
	c51.46,19.602,92.096,60.253,111.68,111.72c0.788,2.064-0.247,4.376-2.311,5.163c-0.384,0.147-0.789,0.233-1.199,0.257H432.13z
	 M193.54,79.91l5.84,96.37c0.07,1.339-0.525,2.626-1.59,3.44c-6.802,5.191-12.879,11.268-18.07,18.07
	c-0.814,1.065-2.101,1.66-3.44,1.59l-96.37-5.84c-2.206-0.125-3.892-2.015-3.767-4.221c0.023-0.411,0.11-0.815,0.257-1.199
	c19.593-51.475,60.245-92.127,111.72-111.72c2.064-0.788,4.376,0.247,5.163,2.311C193.43,79.095,193.517,79.499,193.54,79.91z
	 M79.91,318.46l96.37-5.84c1.339-0.07,2.626,0.525,3.44,1.59c5.191,6.802,11.268,12.879,18.07,18.07
	c1.065,0.814,1.66,2.101,1.59,3.44l-5.84,96.37c-0.125,2.206-2.015,3.892-4.221,3.767c-0.411-0.023-0.815-0.11-1.199-0.257
	c-51.475-19.593-92.127-60.245-111.72-111.72c-0.788-2.064,0.247-4.376,2.311-5.163C79.095,318.57,79.499,318.483,79.91,318.46z
	 M318.46,432.09l-5.84-96.37c-0.07-1.339,0.525-2.626,1.59-3.44c6.802-5.191,12.879-11.268,18.07-18.07
	c0.814-1.065,2.101-1.66,3.44-1.59l96.37,5.84c2.206,0.125,3.892,2.015,3.767,4.221c-0.023,0.411-0.11,0.815-0.257,1.199
	c-19.593,51.475-60.245,92.127-111.72,111.72c-2.064,0.788-4.376-0.247-5.163-2.311C318.57,432.905,318.483,432.501,318.46,432.09z"
	/>
</svg>
