<?xml version="1.0" encoding="iso-8859-1"?>
<!-- Generator: Adobe Illustrator 24.3.0, SVG Export Plug-In . SVG Version: 6.00 Build 0)  -->
<svg version="1.1" id="Layer_1" xmlns="http://www.w3.org/2000/svg" xmlns:xlink="http://www.w3.org/1999/xlink" x="0px" y="0px"
	 viewBox="0 0 512 512" style="enable-background:new 0 0 512 512;" xml:space="preserve">
<path d="M261.56,101.28c-3.093-2.959-7.967-2.959-11.06,0L66.4,277.15c-1.58,1.511-2.472,3.604-2.47,5.79L63.9,448
	c0,17.673,14.327,32,32,32H192c8.837,0,16-7.163,16-16V328c0-4.418,3.582-8,8-8h80c4.418,0,8,3.582,8,8v136c0,8.837,7.163,16,16,16
	h96.06c17.673,0,32-14.327,32-32V282.94c0.002-2.186-0.89-4.279-2.47-5.79L261.56,101.28z"/>
<path d="M490.91,244.15l-74.8-71.56V64c0-8.837-7.163-16-16-16h-48c-8.837,0-16,7.163-16,16v32l-57.92-55.38
	C272.77,35.14,264.71,32,256,32l0,0c-8.68,0-16.72,3.14-22.14,8.63l-212.7,203.5c-6.22,6-7,15.87-1.34,22.37
	c5.786,6.679,15.891,7.403,22.57,1.617c0.208-0.18,0.412-0.366,0.61-0.557L250.5,69.28c3.093-2.959,7.967-2.959,11.06,0
	l207.52,198.28c6.365,6.104,16.468,5.907,22.59-0.44C497.81,260.76,497.3,250.26,490.91,244.15z"/>
</svg>
