<?xml version="1.0" encoding="iso-8859-1"?>
<!-- Generator: Adobe Illustrator 24.3.0, SVG Export Plug-In . SVG Version: 6.00 Build 0)  -->
<svg version="1.1" id="Layer_1" xmlns="http://www.w3.org/2000/svg" xmlns:xlink="http://www.w3.org/1999/xlink" x="0px" y="0px"
	 viewBox="0 0 512 512" style="enable-background:new 0 0 512 512;" xml:space="preserve">
<path d="M416,480h-96c-8.837,0-16-7.163-16-16V328c0-4.411-3.589-8-8-8h-80c-4.411,0-8,3.589-8,8v136c0,8.837-7.164,16-16,16H96
	c-17.645,0-32-14.355-32-32V212c0-8.836,7.164-16,16-16s16,7.164,16,16V448h80V328c0-22.056,17.944-40,40-40h80
	c22.056,0,40,17.944,40,40v120h80V212c0-8.836,7.163-16,16-16s16,7.164,16,16V448C448,465.645,433.645,480,416,480z"/>
<path d="M32.002,272c-4.213,0-8.417-1.653-11.561-4.937c-6.11-6.384-5.889-16.512,0.494-22.622L233.847,40.633
	c5.418-5.483,13.459-8.615,22.151-8.615c0.02,0,0.04,0,0.059,0c8.691,0.015,16.718,3.153,22.109,8.627l212.897,203.797
	c6.384,6.11,6.605,16.238,0.494,22.622c-6.109,6.385-16.241,6.604-22.621,0.494L256.318,64.03c-0.204-0.017-0.433-0.017-0.637,0
	L43.064,267.558C39.964,270.526,35.979,271.999,32.002,272z M256.691,63.04c-0.003,0.003-0.006,0.006-0.009,0.009
	C256.686,63.046,256.688,63.043,256.691,63.04z M255.272,63.002c0.002,0.003,0.005,0.005,0.008,0.008
	C255.278,63.008,255.275,63.005,255.272,63.002z"/>
<path d="M400,195c-8.837,0-16-7.164-16-16V80h-16v53c0,8.836-7.163,16-16,16s-16-7.164-16-16V64c0-8.836,7.163-16,16-16h48
	c8.837,0,16,7.164,16,16v115C416,187.836,408.837,195,400,195z"/>
</svg>
