<?xml version="1.0" encoding="iso-8859-1"?>
<!-- Generator: Adobe Illustrator 24.3.0, SVG Export Plug-In . SVG Version: 6.00 Build 0)  -->
<svg version="1.1" id="Layer_1" xmlns="http://www.w3.org/2000/svg" xmlns:xlink="http://www.w3.org/1999/xlink" x="0px" y="0px"
	 viewBox="0 0 512 512" style="enable-background:new 0 0 512 512;" xml:space="preserve">
<path d="M366.39,480H145.61c-14.465,0-28.188-6.079-37.647-16.679c-8.896-9.968-13.146-23.16-11.66-36.194
	c8.707-76.642,43.671-108.278,69.201-131.379C183.398,279.556,192,271.103,192,256c0-14.905-8.576-23.204-26.418-39.091
	c-25.833-23.003-61.211-54.507-69.296-132.192c-1.367-13.102,2.983-26.317,11.938-36.254C117.65,38,131.277,32,145.61,32h220.78
	c14.363,0,28.011,6.018,37.445,16.51c8.94,9.943,13.269,23.154,11.875,36.245c-8.106,77.896-43.618,109.635-69.547,132.81
	C328.493,233.356,320,241.587,320,256c0,14.61,8.52,22.996,26.244,39.093c25.626,23.273,60.721,55.147,69.463,132.039
	c1.48,13.038-2.774,26.229-11.674,36.195C394.572,473.923,380.852,480,366.39,480z M145.61,64c-5.283,0-10.245,2.144-13.613,5.883
	c-2.938,3.261-4.317,7.351-3.883,11.517c6.801,65.353,34.399,89.928,58.749,111.611C205.121,209.268,224,226.08,224,256
	c0,29.973-18.823,47.005-37.026,63.476c-24.155,21.856-51.533,46.63-58.876,111.27c-0.623,5.462,2.075,9.404,3.739,11.269
	c3.395,3.805,8.415,5.986,13.772,5.986h220.78c5.357,0,10.378-2.182,13.774-5.986c1.666-1.865,4.367-5.81,3.748-11.27
	c-7.381-64.917-34.901-89.911-59.182-111.963C306.673,302.381,288,285.423,288,256c0-29.371,18.728-46.109,36.838-62.295
	c24.477-21.876,52.218-46.67,59.048-112.301c0.444-4.177-0.923-8.247-3.847-11.499C376.665,66.152,371.689,64,366.39,64H145.61z"/>
<path d="M343.3,432H169.13c-15.6,0-20-18-9.06-29.16C186.55,376,240,356.78,240,326V224c0-19.85-38-35-61.51-67.2
	c-3.88-5.31-3.49-12.8,6.37-12.8h142.73c8.41,0,10.23,7.43,6.4,12.75C310.82,189,272,204.05,272,224v102
	c0,30.53,55.71,47,80.4,76.87C362.35,414.91,358.87,432,343.3,432z"/>
</svg>
