<?xml version="1.0" encoding="iso-8859-1"?>
<!-- Generator: Adobe Illustrator 24.3.0, SVG Export Plug-In . SVG Version: 6.00 Build 0)  -->
<svg version="1.1" id="Layer_1" xmlns="http://www.w3.org/2000/svg" xmlns:xlink="http://www.w3.org/1999/xlink" x="0px" y="0px"
	 viewBox="0 0 512 512" style="enable-background:new 0 0 512 512;" xml:space="preserve">
<path d="M415.7,427.13c-8.74-76.89-43.83-108.76-69.46-132C328.52,279,320,270.61,320,256c0-14.41,8.49-22.64,26.16-38.44
	c25.93-23.17,61.44-54.91,69.56-132.84c1.313-13.24-3.048-26.417-12-36.26C394.16,37.947,380.6,31.968,366.39,32H145.61
	c-14.23-0.044-27.813,5.935-37.39,16.46c-8.925,9.856-13.263,23.029-11.94,36.26c8.09,77.68,43.47,109.19,69.3,132.19
	C183.42,232.8,192,241.09,192,256c0,15.1-8.6,23.56-26.5,39.75c-25.5,23.1-60.5,54.73-69.2,131.38
	c-1.429,13.182,2.827,26.348,11.7,36.2c9.598,10.649,23.274,16.711,37.61,16.67h220.78c14.336,0.041,28.012-6.021,37.61-16.67
	C412.873,453.478,417.129,440.312,415.7,427.13z M343.3,432H169.13c-15.6,0-20-18-9.06-29.16C186.55,376,240,356.78,240,326V224
	c0-19.85-38-35-61.51-67.2c-3.88-5.31-3.49-12.8,6.37-12.8h142.73c8.41,0,10.22,7.43,6.4,12.75C310.82,189,272,204.05,272,224v102
	c0,30.53,55.71,47,80.4,76.87C362.35,414.91,358.87,432,343.3,432z"/>
</svg>
