<?xml version="1.0" encoding="iso-8859-1"?>
<!-- Generator: Adobe Illustrator 24.3.0, SVG Export Plug-In . SVG Version: 6.00 Build 0)  -->
<svg version="1.1" id="Layer_1" xmlns="http://www.w3.org/2000/svg" xmlns:xlink="http://www.w3.org/1999/xlink" x="0px" y="0px"
	 viewBox="0 0 512 512" style="enable-background:new 0 0 512 512;" xml:space="preserve">
<path d="M256,496c-0.002,0-0.004,0-0.007,0c-6.403-0.003-12.188-3.822-14.705-9.71l-62-145c-3.474-8.125,0.296-17.527,8.421-21.002
	c8.125-3.473,17.528,0.296,21.002,8.422l47.305,110.633l81.277-189.646c3.479-8.122,12.883-11.887,21.009-8.404
	c8.122,3.481,11.885,12.887,8.403,21.009l-96,224.001C268.186,492.186,262.4,496,256,496z"/>
<path d="M184.047,352c-22.061-0.064-39.983-17.988-40.047-39.953v-41.279c-36.833-6.584-64-38.823-64-78.768
	c0-41.506,31.776-75.731,72.277-79.63C156.196,58.572,201.22,16,256,16s99.804,42.572,103.723,96.37
	C400.224,116.269,432,150.494,432,192c0,44.112-35.888,80-80,80c-19.649,0-38.329-8.038-52.376-21.87
	c-11.755,11.245-27.323,17.87-43.624,17.87c-11.595,0-23.096-2.97-31.999-6.779L224,312
	C223.936,334.012,206.013,351.936,184.047,352z M160,144c-26.467,0-48,21.533-48,48c0,26.916,20.206,48,46,48h2
	c8.836,0,16,7.164,16,16V312c0.013,4.377,3.623,7.987,8.047,8c4.33-0.013,7.94-3.623,7.953-8.047V250
	c0-10.355,4.925-19.067,13.173-23.305c8.252-4.24,18.413-3.266,26.515,2.538C235.647,232.076,246.287,236,256,236
	c11.929,0,23.194-7.456,28.797-19.027c0.729-1.636,1.741-3.167,3.027-4.517c5.415-5.686,14.161-6.607,20.639-2.167
	c2.292,1.571,4.061,3.648,5.241,5.991C321.725,230.705,336.705,240,352,240c26.467,0,48-21.533,48-48s-21.533-48-48-48h-8
	c-8.837,0-16-7.164-16-16v-8c0-39.701-32.299-72-72-72s-72,32.299-72,72v8c0,8.836-7.164,16-16,16H160z"/>
</svg>
