<?xml version="1.0" encoding="iso-8859-1"?>
<!-- Generator: Adobe Illustrator 24.3.0, SVG Export Plug-In . SVG Version: 6.00 Build 0)  -->
<svg version="1.1" id="Layer_1" xmlns="http://www.w3.org/2000/svg" xmlns:xlink="http://www.w3.org/1999/xlink" x="0px" y="0px"
	 viewBox="0 0 512 512" style="enable-background:new 0 0 512 512;" xml:space="preserve">
<path d="M183,352c-21.84-0.52-39-18.9-39-40.74v-34.07c-0.003-3.646-2.47-6.829-6-7.74c-33.75-8.85-58-39.71-58-77.45
	c0.054-38.867,27.989-72.093,66.27-78.82c3.467-0.575,6.153-3.346,6.62-6.83c7.498-56.946,59.741-97.031,116.687-89.533
	c46.667,6.145,83.389,42.867,89.533,89.533c0.467,3.484,3.153,6.255,6.62,6.83c43.531,7.561,72.691,48.979,65.13,92.51
	c-6.659,38.342-39.944,66.33-78.86,66.31c-17.365-0.083-34.153-6.242-47.45-17.41c-2.866-2.365-6.989-2.423-9.92-0.14
	c-11.005,8.699-24.603,13.468-38.63,13.55c-7.378-0.056-14.713-1.126-21.8-3.18c-4.248-1.215-8.677,1.244-9.892,5.492
	c-0.204,0.715-0.308,1.455-0.308,2.198V312c0.007,22.091-17.896,40.006-39.988,40.013C183.675,352.013,183.337,352.009,183,352z"/>
<path d="M263.39,299.7c-4.144,0.317-7.355,3.754-7.39,7.91V312c-0.042,31.539-20.575,59.392-50.69,68.76
	c-4.208,1.347-6.527,5.85-5.18,10.058c0.078,0.245,0.168,0.486,0.27,0.722l40.91,94.8c2.53,5.863,8.304,9.66,14.69,9.66l0,0
	c6.395-0.007,12.172-3.821,14.69-9.7l73.78-172.15c1.742-4.061-0.138-8.764-4.199-10.506c-0.64-0.274-1.312-0.464-2.001-0.564
	c-12.562-1.692-24.72-5.617-35.9-11.59c-2.214-1.181-4.853-1.255-7.13-0.2C285.194,295.927,274.415,298.773,263.39,299.7z"/>
</svg>
