<?xml version="1.0" encoding="iso-8859-1"?>
<!-- Generator: Adobe Illustrator 24.3.0, SVG Export Plug-In . SVG Version: 6.00 Build 0)  -->
<svg version="1.1" id="Layer_1" xmlns="http://www.w3.org/2000/svg" xmlns:xlink="http://www.w3.org/1999/xlink" x="0px" y="0px"
	 viewBox="0 0 512 512" style="enable-background:new 0 0 512 512;" xml:space="preserve">
<path d="M359.72,112.37c-4.212-57.283-54.063-100.306-111.346-96.094c-51.424,3.781-92.313,44.67-96.094,96.094
	C111.305,116.399,80.054,150.828,80,192c0,39.36,26.37,71.23,62.38,78.46c0.954,0.185,1.638,1.028,1.62,2v38.83
	c0,21.84,17.2,40.22,39,40.74c22.084,0.552,40.435-16.903,40.988-38.987c0.008-0.337,0.013-0.675,0.012-1.013v-47.84
	c0.003-1.105,0.901-1.997,2.006-1.994c0.244,0.001,0.486,0.046,0.714,0.134c9.34,3.632,19.259,5.553,29.28,5.67
	c15.649-0.108,30.7-6.02,42.24-16.59c0.77-0.724,1.97-0.724,2.74,0c13.764,13.11,32.012,20.475,51.02,20.59
	c44.183,0.019,80.016-35.782,80.035-79.965C432.053,150.816,400.749,116.33,359.72,112.37z"/>
<path d="M256,300v12c-0.052,34.423-24.431,64.008-58.21,70.64L256,496l92.06-192.08c-17.326-0.664-34.219-5.597-49.18-14.36
	C285.621,296.403,270.92,299.982,256,300z"/>
</svg>
