<?xml version="1.0" encoding="iso-8859-1"?>
<!-- Generator: Adobe Illustrator 24.3.0, SVG Export Plug-In . SVG Version: 6.00 Build 0)  -->
<svg version="1.1" id="Layer_1" xmlns="http://www.w3.org/2000/svg" xmlns:xlink="http://www.w3.org/1999/xlink" x="0px" y="0px"
	 viewBox="0 0 512 532" style="enable-background:new 0 0 512 532;" xml:space="preserve">
<g id="Page-1">
	<path id="Path_23_" d="M116.741,447.23c-1.651,0-2.99,1.338-2.99,2.99v1.777c0,1.505-1.221,2.724-2.726,2.724
		s-2.726,1.219-2.726,2.724v1.413c0,2.284,1.852,4.137,4.137,4.137h53.531c2.285,0,4.136-1.853,4.136-4.137v-1.413
		c0-1.505-1.22-2.724-2.725-2.724c-1.506,0-2.726-1.219-2.726-2.724v-1.807c0-1.635-1.324-2.959-2.957-2.959
		c-1.633,0-2.957-1.324-2.957-2.957V326.388c0-1.633,1.324-2.957,2.957-2.957c1.633,0,2.957-1.324,2.957-2.957v-1.837
		c0-2.648-2.147-4.794-4.794-4.794h-41.313c-2.648,0-4.794,2.146-4.794,4.794v1.805c0,1.651,1.338,2.989,2.99,2.989
		c1.651,0,2.989,1.338,2.989,2.99v117.82C119.73,445.891,118.392,447.23,116.741,447.23z"/>
	<path id="Path_22_" d="M46.541,447.23c-1.651,0-2.989,1.338-2.989,2.99v1.777c0,1.505-1.221,2.724-2.726,2.724
		s-2.726,1.219-2.726,2.724v1.413c0,2.284,1.852,4.137,4.137,4.137h53.526c2.285,0,4.137-1.853,4.137-4.137v-1.444
		c0-1.49-1.205-2.693-2.692-2.693s-2.692-1.203-2.692-2.693v-1.807c0-1.651-1.338-2.99-2.989-2.99c-1.651,0-2.989-1.338-2.989-2.989
		V326.42c0-1.651,1.338-2.99,2.989-2.99c1.651,0,2.989-1.338,2.989-2.989v-1.805c0-2.648-2.146-4.794-4.794-4.794H48.346
		c-2.648,0-4.794,2.146-4.794,4.794v1.805c0,1.651,1.338,2.989,2.99,2.989c1.651,0,2.989,1.338,2.989,2.99v117.82
		C49.53,445.891,48.191,447.23,46.541,447.23z"/>
	<path id="Path_21_" d="M186.954,447.23c-1.633,0-2.957,1.324-2.957,2.959v1.807c0,1.505-1.219,2.724-2.723,2.724
		s-2.724,1.219-2.724,2.724v1.413c0,2.284,1.852,4.137,4.137,4.137h53.527c2.285,0,4.136-1.853,4.136-4.137v-1.413
		c0-1.505-1.22-2.724-2.726-2.724c-1.505,0-2.725-1.219-2.725-2.724v-1.777c0-1.651-1.338-2.99-2.99-2.99
		c-1.651,0-2.989-1.338-2.989-2.989V326.42c0-1.651,1.338-2.99,2.989-2.99c1.651,0,2.99-1.338,2.99-2.989v-1.805
		c0-2.648-2.147-4.794-4.794-4.794h-41.313c-2.648,0-4.794,2.146-4.794,4.794v1.837c0,1.633,1.324,2.957,2.957,2.957
		c1.633,0,2.957,1.324,2.957,2.957v117.884C189.912,445.906,188.588,447.23,186.954,447.23z"/>
	<path id="Path_20_" d="M350.359,447.23c-1.633,0-2.957,1.324-2.957,2.959v1.807c0,1.505-1.221,2.724-2.726,2.724
		s-2.726,1.219-2.726,2.724v1.413c0,2.284,1.852,4.137,4.137,4.137h53.529c2.289,0,4.137-1.853,4.137-4.137v-1.413
		c0-1.505-1.219-2.724-2.724-2.724s-2.724-1.219-2.724-2.724v-1.777c0-1.651-1.341-2.99-2.99-2.99c-1.654,0-2.99-1.338-2.99-2.989
		V326.42c0-1.651,1.336-2.99,2.99-2.99c1.649,0,2.99-1.338,2.99-2.989v-1.805c0-2.648-2.15-4.794-4.797-4.794h-41.312
		c-2.648,0-4.794,2.146-4.794,4.794v1.837c0,1.633,1.324,2.957,2.957,2.957c1.633,0,2.957,1.324,2.957,2.957v117.884
		C353.316,445.906,351.992,447.23,350.359,447.23z"/>
	<path id="Path_19_" d="M280.191,447.23c-1.651,0-2.99,1.338-2.99,2.99v1.777c0,1.505-1.22,2.724-2.725,2.724
		c-1.506,0-2.726,1.219-2.726,2.724v1.413c0,2.284,1.852,4.137,4.136,4.137h53.527c2.285,0,4.136-1.853,4.136-4.137v-1.413
		c0-1.505-1.219-2.724-2.723-2.724c-1.504,0-2.723-1.219-2.723-2.724v-1.807c0-1.635-1.324-2.959-2.957-2.959
		s-2.957-1.324-2.957-2.957V326.388c0-1.633,1.324-2.957,2.957-2.957s2.957-1.324,2.957-2.957v-1.837
		c0-2.648-2.146-4.794-4.794-4.794h-41.313c-2.648,0-4.794,2.146-4.794,4.794v1.805c0,1.651,1.338,2.989,2.989,2.989
		c1.651,0,2.989,1.338,2.989,2.99v117.82C283.18,445.891,281.842,447.23,280.191,447.23z"/>
	<path id="Path_18_" d="M420.521,447.23c-1.649,0-2.99,1.338-2.99,2.99v1.807c0,1.49-1.203,2.693-2.688,2.693
		c-1.49,0-2.693,1.203-2.693,2.693v1.444c0,2.284,1.853,4.137,4.137,4.137h53.463c2.284,0,4.137-1.853,4.137-4.137v-1.444
		c0-1.485-1.208-2.693-2.693-2.693c-1.49,0-2.693-1.208-2.693-2.693v-1.807c0-1.651-1.341-2.99-2.99-2.99
		c-1.654,0-2.99-1.338-2.99-2.989V326.42c0-1.651,1.336-2.99,2.99-2.99c1.649,0,2.99-1.338,2.99-2.989v-1.805
		c0-2.648-2.15-4.794-4.797-4.794h-41.375c-2.647,0-4.797,2.146-4.797,4.794v1.805c0,1.651,1.341,2.989,2.99,2.989
		c1.654,0,2.99,1.338,2.99,2.989v117.82C423.511,445.891,422.175,447.23,420.521,447.23z"/>
	<path id="Path_17_" d="M12.283,269.592c1.864-0.032,3.701-0.458,5.387-1.251L256.003,152.03l238.333,116.312
		c1.684,0.793,3.523,1.219,5.386,1.251c5.632-0.036,10.527-3.871,11.904-9.332c1.372-5.456-1.121-11.155-6.057-13.853
		L265.923,112.229c-6.116-3.45-13.593-3.45-19.704,0L6.431,246.407c-4.939,2.699-7.431,8.398-6.056,13.853
		c1.379,5.46,6.271,9.295,11.901,9.332H12.283z"/>
	<path id="Path_16_" d="M271.738,179.44c-9.964-4.797-21.564-4.797-31.528,0c-9.804,4.787-16.9,13.771-19.287,24.417
		c-2.392,10.642,0.188,21.797,7.005,30.314c6.817,8.516,17.138,13.477,28.046,13.477s21.23-4.961,28.046-13.477
		c6.817-8.517,9.396-19.671,7.005-30.314C288.638,193.21,281.541,184.227,271.738,179.44z"/>
	<path id="Shape_1_" d="M420.941,108.212h-21.74c0.655,22.723,19.702,36.251,44.063,37.895v15.302h10.906l0.005-15.302
		c24.694-1.773,43.474-15.301,43.474-38.353c0-20.162-13.133-30.341-38.287-35.991l-5.192-1.246l0.005-35.467
		c5.033,0.188,9.836,2.172,13.532,5.594c3.702,3.418,6.052,8.054,6.63,13.057h21.673c-0.788-21.541-17.603-35.793-41.836-37.763
		V0.242h-10.906v15.434c-24.3,1.773-41.702,15.763-41.702,37.368c0,19.704,13.133,30.341,36.91,35.857l4.797,1.118l-0.005,36.974
		c-13.855-1.379-20.751-8.603-22.328-18.783V108.212z M454.175,92.517c15.959,3.875,21.018,8.736,21.018,17.601
		c0,8.864-6.569,15.828-21.018,17.142V92.517z M424.095,51.011c0-7.948,6.569-14.71,19.18-16.286v33.163
		C429.548,64.406,424.095,59.023,424.095,51.011z"/>
	<path id="Path_15_" d="M2.428,138.381c-0.706,6.881,3.431,13.336,9.982,15.566c16.804,3.784,34.001,5.548,51.227,5.255
		c4.535,0,8.209-3.679,8.209-8.209c0-4.535-3.674-8.209-8.209-8.209c-15.03,0.16-30.039-1.205-44.79-4.073
		c2.103-22.397,15.763-40.85,34.28-45.972c3.427-1.076,5.782-4.223,5.846-7.815c0.11-3.592-2.121-6.84-5.515-8.013
		c-9.039-3.188-16.025-10.472-18.838-19.635c-2.808-9.162-1.104-19.113,4.591-26.818c5.699-7.706,14.715-12.25,24.294-12.25
		c9.584,0,18.595,4.545,24.294,12.25c5.694,7.706,7.398,17.656,4.591,26.818c-2.808,9.162-9.8,16.446-18.834,19.635
		c-3.367,1.187-5.58,4.412-5.475,7.981c0.101,3.569,2.502,6.661,5.933,7.651c8.012,2.437,15.164,7.11,20.62,13.464
		c3.014,3.39,8.2,3.697,11.595,0.687c1.627-1.448,2.616-3.477,2.744-5.654c0.128-2.171-0.609-4.311-2.057-5.937
		c-3.844-4.343-8.264-8.145-13.134-11.297c9.721-8.328,15.599-20.281,16.258-33.067c0.66-12.781-3.958-25.274-12.777-34.556
		c-8.814-9.282-21.055-14.54-33.854-14.54c-12.805,0-25.041,5.259-33.86,14.54c-8.814,9.282-13.432,21.774-12.777,34.556
		c0.66,12.786,6.537,24.739,16.259,33.067C14.939,96.285,3.638,116.437,2.427,138.38L2.428,138.381z"/>
	<path id="Path_14_" d="M83.736,115.363c-3.211-3.211-8.416-3.211-11.627,0c-3.211,3.212-3.211,8.416,0,11.622l22.525,22.526v0.005
		c1.562,1.534,3.656,2.405,5.846,2.428c2.171-0.014,4.251-0.889,5.782-2.428l41.638-41.638c3.211-3.212,3.211-8.416,0-11.628
		c-3.212-3.211-8.416-3.211-11.627,0l-35.793,35.857L83.736,115.363z"/>
	<path id="Path_13_" d="M488.294,284.003c-0.036-6.258-5.1-11.324-11.361-11.361H35.061c-6.276,0-11.361,5.085-11.361,11.361
		s5.085,11.361,11.361,11.361h441.872c3.011,0,5.903-1.195,8.033-3.326C487.096,289.909,488.294,287.018,488.294,284.003z"/>
	<path id="Path_12_" d="M496.046,502.264h-11.423c1.229-1.981,1.93-4.239,2.033-6.569c0-7.711-6.211-13.978-13.921-14.054H39.274
		c-7.761,0-14.055,6.292-14.055,14.054c0.11,2.33,0.811,4.588,2.039,6.569H15.961c-7.545,0-13.661,6.113-13.661,13.66
		c0,7.542,6.116,13.66,13.661,13.66h480.091c7.547,0,13.66-6.118,13.66-13.66c0-7.547-6.113-13.66-13.66-13.66H496.046z"/>
</g>
</svg>
