<?xml version="1.0" encoding="iso-8859-1"?>
<!-- Generator: Adobe Illustrator 24.3.0, SVG Export Plug-In . SVG Version: 6.00 Build 0)  -->
<svg version="1.1" id="icons" xmlns="http://www.w3.org/2000/svg" xmlns:xlink="http://www.w3.org/1999/xlink" x="0px" y="0px"
	 viewBox="0 0 512 512" style="enable-background:new 0 0 512 512;" xml:space="preserve">
<path d="M408,16H104c-13.255,0-24,10.745-24,24v432c0,13.255,10.745,24,24,24h304c13.255,0,24-10.745,24-24V40
	C432,26.745,421.255,16,408,16z M346.9,312.77c1.233,23.716-16.994,43.941-40.71,45.174s-43.941-16.994-45.174-40.71
	s16.994-43.941,40.71-45.174c1.487-0.077,2.977-0.077,4.464,0C328.183,273.203,345.757,290.777,346.9,312.77z M192,64h128v32H192V64
	z M384,448H224v-24.6c0-32.72,53.27-49.21,80-49.21s80,16.49,80,49.21V448z"/>
</svg>
