<?xml version="1.0" encoding="iso-8859-1"?>
<!-- Generator: Adobe Illustrator 24.3.0, SVG Export Plug-In . SVG Version: 6.00 Build 0)  -->
<svg version="1.1" id="icons" xmlns="http://www.w3.org/2000/svg" xmlns:xlink="http://www.w3.org/1999/xlink" x="0px" y="0px"
	 viewBox="0 0 512 512" style="enable-background:new 0 0 512 512;" xml:space="preserve">
<path d="M368,496H144c-35.29,0-64-28.71-64-64V80c0-35.29,28.71-64,64-64h224c35.29,0,64,28.71,64,64v352
	C432,467.29,403.29,496,368,496z M144,48c-17.645,0-32,14.355-32,32v352c0,17.645,14.355,32,32,32h224c17.645,0,32-14.355,32-32V80
	c0-17.645-14.355-32-32-32H144z"/>
<path d="M304,96h-96c-8.836,0-16-7.164-16-16s7.164-16,16-16h96c8.837,0,16,7.164,16,16S312.837,96,304,96z"/>
<path d="M333.48,284.51c-7.631-8.129-18.332-12.67-29.48-12.51c-11.6,0-22.09,4.41-29.54,12.43s-11.2,19.12-10.34,31
	C265.83,338.91,283.72,358,304,358s38.14-19.09,39.87-42.55C344.75,303.67,341.05,292.68,333.48,284.51z"/>
<path d="M371.69,448H236.31c-3.568,0.057-6.977-1.47-9.31-4.17c-2.531-3.032-3.546-7.05-2.76-10.92
	c3.25-17.56,13.38-32.31,29.3-42.66C267.68,381.06,285.6,376,304,376s36.32,5.06,50.46,14.25c15.92,10.35,26.05,25.1,29.3,42.66
	c0.786,3.87-0.229,7.888-2.76,10.92C378.667,446.53,375.258,448.057,371.69,448z"/>
</svg>
