<svg width="38" height="38" viewBox="0 0 38 38"  xmlns="http://www.w3.org/2000/svg">
<circle cx="19" cy="19" r="19" fill="#FCEDCA"/>
<g clip-path="url(#clip0_694_22068)">
<path d="M28.6562 12.4355H21.5312V10.4707C21.5312 9.075 20.3957 7.93945 19 7.93945C17.6043 7.93945 16.4688 9.075 16.4688 10.4707V12.4356H9.34375C8.05141 12.4356 7 13.487 7 14.7793V27.7168C7 29.0092 8.05141 30.0606 9.34375 30.0606H16.8906C17.1495 30.0606 17.3594 29.8507 17.3594 29.5918C17.3594 29.333 17.1495 29.1231 16.8906 29.1231H9.34375C8.56834 29.1231 7.9375 28.4922 7.9375 27.7168V14.7793C7.9375 14.0039 8.56834 13.3731 9.34375 13.3731H16.4688V15.0606H15.75C15.4912 15.0606 15.2813 15.2705 15.2813 15.5293C15.2813 15.7882 15.4912 15.9981 15.75 15.9981H22.25C22.5088 15.9981 22.7187 15.7882 22.7187 15.5293C22.7187 15.2705 22.5088 15.0606 22.25 15.0606H21.5312V13.3731H28.6562C29.4317 13.3731 30.0625 14.0039 30.0625 14.7793V27.7168C30.0625 28.4922 29.4317 29.1231 28.6562 29.1231H21.1094C20.8505 29.1231 20.6406 29.333 20.6406 29.5918C20.6406 29.8507 20.8505 30.0606 21.1094 30.0606H28.6562C29.9486 30.0606 31 29.0092 31 27.7168V14.7793C31 13.4869 29.9486 12.4355 28.6562 12.4355ZM17.4062 15.0605V10.4707C17.4062 9.59189 18.1212 8.87695 19 8.87695C19.8788 8.87695 20.5938 9.59189 20.5938 10.4707V15.0606H17.4062V15.0605Z" fill="#482084"/>
<path d="M19 10.002C18.8767 10.002 18.7558 10.0521 18.6686 10.1393C18.5814 10.2265 18.5312 10.3474 18.5312 10.4707C18.5312 10.5945 18.5814 10.7149 18.6686 10.8021C18.7558 10.8897 18.8767 10.9395 19 10.9395C19.1233 10.9395 19.2442 10.8897 19.3314 10.8021C19.4185 10.7149 19.4688 10.594 19.4688 10.4707C19.4688 10.3474 19.4186 10.2265 19.3314 10.1393C19.2442 10.0521 19.1233 10.002 19 10.002Z" fill="#482084"/>
<path d="M21.0625 26.0605H28C28.2588 26.0605 28.4688 25.8506 28.4688 25.5918C28.4688 25.333 28.2588 25.123 28 25.123H21.0625C20.8037 25.123 20.5938 25.333 20.5938 25.5918C20.5938 25.8506 20.8037 26.0605 21.0625 26.0605Z" fill="#482084"/>
<path d="M21.0625 23.0605H28C28.2588 23.0605 28.4688 22.8506 28.4688 22.5918C28.4688 22.333 28.2588 22.123 28 22.123H21.0625C20.8037 22.123 20.5938 22.333 20.5938 22.5918C20.5938 22.8506 20.8037 23.0605 21.0625 23.0605Z" fill="#482084"/>
<path d="M21.0625 20.0605H28C28.2588 20.0605 28.4688 19.8506 28.4688 19.5918C28.4688 19.333 28.2588 19.123 28 19.123H21.0625C20.8037 19.123 20.5938 19.333 20.5938 19.5918C20.5938 19.8506 20.8037 20.0605 21.0625 20.0605Z" fill="#482084"/>
<path d="M14.5 17.5918C11.7602 17.5918 9.53125 19.8208 9.53125 22.5605C9.53125 25.3003 11.7602 27.5293 14.5 27.5293C17.2397 27.5293 19.4688 25.3003 19.4688 22.5605C19.4688 19.8208 17.2397 17.5918 14.5 17.5918ZM12.054 25.762C12.1454 25.0415 12.7618 24.4824 13.5067 24.4824H15.4932C16.2382 24.4824 16.8545 25.0415 16.9459 25.762C16.267 26.2819 15.4192 26.5918 14.5 26.5918C13.5807 26.5918 12.7329 26.2819 12.054 25.762ZM15.4947 22.5503C15.4947 23.0987 15.0484 23.545 14.5 23.545C13.9516 23.545 13.5053 23.0987 13.5053 22.5503V22.2982C13.5053 21.7498 13.9516 21.3035 14.5 21.3035C15.0484 21.3035 15.4947 21.7498 15.4947 22.2982V22.5503ZM17.7028 25.0048C17.414 24.3305 16.8253 23.8141 16.1053 23.6242C16.3116 23.3169 16.4322 22.9475 16.4322 22.5503V22.2982C16.4322 21.2328 15.5654 20.366 14.5 20.366C13.4346 20.366 12.5678 21.2328 12.5678 22.2982V22.5503C12.5678 22.9475 12.6884 23.3169 12.8947 23.6242C12.1747 23.8141 11.586 24.3305 11.2972 25.0048C10.7781 24.3262 10.4688 23.479 10.4688 22.5605C10.4688 20.3377 12.2771 18.5293 14.5 18.5293C16.7229 18.5293 18.5312 20.3377 18.5312 22.5605C18.5312 23.479 18.2219 24.3262 17.7028 25.0048Z" fill="#482084"/>
<path d="M19 29.123C18.8767 29.123 18.7558 29.1732 18.6686 29.2604C18.5814 29.3476 18.5312 29.4685 18.5312 29.5918C18.5312 29.7151 18.5814 29.836 18.6686 29.9232C18.7558 30.0103 18.8767 30.0605 19 30.0605C19.1233 30.0605 19.2442 30.0104 19.3314 29.9232C19.4185 29.836 19.4688 29.7151 19.4688 29.5918C19.4688 29.4685 19.4186 29.3476 19.3314 29.2604C19.2442 29.1732 19.1233 29.123 19 29.123Z" fill="#482084"/>
</g>
<defs>
<clipPath id="clip0_694_22068">
<rect width="24" height="24" fill="white" transform="translate(7 7)"/>
</clipPath>
</defs>
</svg>
