<?xml version="1.0" encoding="iso-8859-1"?>
<!-- Generator: Adobe Illustrator 24.3.0, SVG Export Plug-In . SVG Version: 6.00 Build 0)  -->
<svg version="1.1" id="icons" xmlns="http://www.w3.org/2000/svg" xmlns:xlink="http://www.w3.org/1999/xlink" x="0px" y="0px"
	 viewBox="0 0 512 512" style="enable-background:new 0 0 512 512;" xml:space="preserve">
<path d="M368,16H144c-35.33,0.039-63.961,28.67-64,64v352c0.039,35.33,28.67,63.961,64,64h224c35.33-0.039,63.961-28.67,64-64V80
	C431.961,44.67,403.33,16.039,368,16z M333.48,284.51c7.57,8.17,11.27,19.16,10.39,30.94C342.14,338.91,324.25,358,304,358
	s-38.17-19.09-39.88-42.55c-0.86-11.9,2.81-22.91,10.34-31S292.4,272,304,272C315.148,271.84,325.849,276.381,333.48,284.51z
	 M192,80c0-8.837,7.163-16,16-16h96c8.837,0,16,7.163,16,16s-7.163,16-16,16h-96C199.163,96,192,88.837,192,80z M381,443.83
	c-2.333,2.7-5.742,4.227-9.31,4.17H236.31c-3.568,0.057-6.977-1.47-9.31-4.17c-2.531-3.032-3.546-7.05-2.76-10.92
	c3.25-17.56,13.38-32.31,29.3-42.66C267.68,381.06,285.6,376,304,376s36.32,5.06,50.46,14.25c15.92,10.35,26.05,25.1,29.3,42.66
	C384.546,436.78,383.531,440.798,381,443.83z"/>
</svg>
