<?xml version="1.0" encoding="iso-8859-1"?>
<!-- Generator: Adobe Illustrator 24.3.0, SVG Export Plug-In . SVG Version: 6.00 Build 0)  -->
<svg version="1.1" id="Layer_1" xmlns="http://www.w3.org/2000/svg" xmlns:xlink="http://www.w3.org/1999/xlink" x="0px" y="0px"
	 viewBox="0 0 512 512" style="enable-background:new 0 0 512 512;" xml:space="preserve">
<ellipse style="fill:none;" cx="373.14" cy="219.33" rx="46.29" ry="46"/>
<path d="M80,132v328c0,11.046,8.954,20,20,20h392c11.046,0,20-8.954,20-20V132c0-11.046-8.954-20-20-20H100
	C88.954,112,80,120.954,80,132z M373.14,173.33c25.405,0.155,45.874,20.875,45.719,46.279s-20.875,45.874-46.279,45.719
	c-25.295-0.154-45.72-20.703-45.72-45.998C326.965,193.859,347.669,173.28,373.14,173.33z M111.73,449.33v-95.48l122.76-110.2
	L328.27,337l-113,112.33H111.73z M480,449.33H259l144.58-144L480,370.59V449.33z"/>
<path d="M20,32C8.954,32,0,40.954,0,52v344c0,11.046,8.954,20,20,20h28V100c0-11.046,8.954-20,20-20h380V52c0-11.046-8.954-20-20-20
	H20z"/>
</svg>
