<?xml version="1.0" encoding="iso-8859-1"?>
<!-- Generator: Adobe Illustrator 24.3.0, SVG Export Plug-In . SVG Version: 6.00 Build 0)  -->
<svg version="1.1" id="Layer_1" xmlns="http://www.w3.org/2000/svg" xmlns:xlink="http://www.w3.org/1999/xlink" x="0px" y="0px"
	 viewBox="0 0 512 512" style="enable-background:new 0 0 512 512;" xml:space="preserve">
<path d="M416,448H96c-35.29,0-64-28.71-64-64V128c0-35.29,28.71-64,64-64h320c35.29,0,64,28.71,64,64v256
	C480,419.29,451.29,448,416,448z M96,96c-17.645,0-32,14.355-32,32v256c0,17.645,14.355,32,32,32h320c17.645,0,32-14.355,32-32V128
	c0-17.645-14.355-32-32-32H96z"/>
<path d="M336,224c-26.468,0-48-21.533-48-48s21.532-48,48-48s48,21.533,48,48S362.468,224,336,224z M336,160
	c-8.822,0-16,7.178-16,16s7.178,16,16,16s16-7.178,16-16S344.822,160,336,160z"/>
<path d="M48.006,368c-4.411,0-8.802-1.812-11.963-5.369c-5.872-6.604-5.278-16.717,1.326-22.588l121.47-108.001
	c18.975-16.845,47.879-15.988,65.813,1.942l90.65,90.481c6.255,6.242,6.264,16.373,0.021,22.627
	c-6.243,6.254-16.374,6.263-22.627,0.021l-90.661-90.49c-5.987-5.986-15.622-6.271-21.944-0.66L58.631,363.957
	C55.583,366.667,51.787,368,48.006,368z"/>
<path d="M224,448c-4.095,0-8.189-1.562-11.313-4.687c-6.249-6.248-6.249-16.379,0-22.627l123.34-123.341
	c17.641-17.674,45.439-18.964,64.653-2.989l73.568,61.356c6.786,5.659,7.699,15.749,2.039,22.535
	c-5.659,6.786-15.749,7.7-22.535,2.039l-73.55-61.341c-6.387-5.31-15.653-4.879-21.538,1.016l-123.35,123.352
	C232.189,446.438,228.095,448,224,448z"/>
</svg>
