<?xml version="1.0" encoding="iso-8859-1"?>
<!-- Generator: Adobe Illustrator 24.3.0, SVG Export Plug-In . SVG Version: 6.00 Build 0)  -->
<svg version="1.1" id="Layer_1" xmlns="http://www.w3.org/2000/svg" xmlns:xlink="http://www.w3.org/1999/xlink" x="0px" y="0px"
	 viewBox="0 0 512 512" style="enable-background:new 0 0 512 512;" xml:space="preserve">
<path d="M450.29,112H142c-34,0-62,27.51-62,61.33v245.34c0,33.82,28,61.33,62,61.33h308c34,0,62-26.18,62-60V173.33
	C512,139.51,484.32,112,450.29,112z M373.14,173.34c25.405,0.155,45.874,20.875,45.719,46.279s-20.875,45.874-46.279,45.719
	c-25.295-0.154-45.72-20.703-45.72-45.998c0.099-25.475,20.805-46.06,46.28-46.01V173.34z M141.59,449.34
	c-17,0-29.86-13.75-29.86-30.66v-64.83l90.46-80.79c18.348-16.139,46.053-15.34,63.44,1.83L328.27,337l-113,112.33L141.59,449.34z
	 M480,418.67c-0.005,16.939-13.741,30.666-30.68,30.66c-0.01,0-0.02,0-0.03,0H259L376.08,333c17.15-14.468,42.212-14.535,59.44-0.16
	L480,370.59V418.67z"/>
<path d="M384,32H64C28.654,32,0,60.654,0,96v256c0.024,29.183,19.754,54.667,48,62V152c0-39.764,32.235-72,72-72h326
	C438.667,51.754,413.183,32.024,384,32z"/>
</svg>
