<?xml version="1.0" encoding="iso-8859-1"?>
<!-- Generator: Adobe Illustrator 24.3.0, SVG Export Plug-In . SVG Version: 6.00 Build 0)  -->
<svg version="1.1" id="Layer_1" xmlns="http://www.w3.org/2000/svg" xmlns:xlink="http://www.w3.org/1999/xlink" x="0px" y="0px"
	 viewBox="0 0 512 512" style="enable-background:new 0 0 512 512;" xml:space="preserve">
<path d="M80,416H64c-35.209-0.103-63.898-28.792-64-63.954V96c0.102-35.208,28.791-63.897,63.954-64H384
	c35.208,0.103,63.897,28.792,64,63.953V112h-32V96c-0.051-17.573-14.428-31.949-32.047-32H64c-17.573,0.051-31.949,14.427-32,32.046
	V352c0.051,17.573,14.427,31.949,32.046,32H80V416z"/>
<path d="M450.01,480H141.99C107.809,480,80,452.192,80,418.01V173.99c0-34.182,27.809-61.99,61.99-61.99h308.02
	c34.182,0,61.99,27.809,61.99,61.99v244.02C512,452.192,484.191,480,450.01,480z M141.99,144c-16.537,0-29.99,13.454-29.99,29.99
	v244.02c0,16.537,13.454,29.99,29.99,29.99h308.02c16.537,0,29.99-13.453,29.99-29.99V173.99c0-16.537-13.453-29.99-29.99-29.99
	H141.99z"/>
<path d="M372.92,266.19c-25.789,0-46.77-20.882-46.77-46.55s20.98-46.55,46.77-46.55s46.771,20.882,46.771,46.55
	S398.709,266.19,372.92,266.19z M372.92,205.09c-8.144,0-14.77,6.527-14.77,14.55s6.626,14.55,14.77,14.55
	c8.145,0,14.771-6.527,14.771-14.55S381.064,205.09,372.92,205.09z"/>
<path d="M96.006,403.64c-4.432,0.001-8.841-1.83-12.004-5.414c-5.846-6.627-5.214-16.737,1.412-22.584l116.82-103.07
	c18.434-16.234,46.545-15.429,64.011,1.826l87.169,86.409c6.276,6.221,6.32,16.352,0.1,22.627c-6.222,6.278-16.353,6.32-22.627,0.1
	l-87.151-86.391c-5.536-5.471-14.481-5.727-20.342-0.565L106.585,399.638C103.544,402.322,99.767,403.64,96.006,403.64z"/>
<path d="M265.23,480c-4.114,0-8.227-1.577-11.355-4.728c-6.226-6.271-6.188-16.401,0.083-22.627l118.59-117.73
	c17.228-16.99,44.25-18.208,62.896-2.873l70.756,58.539c6.809,5.633,7.762,15.719,2.129,22.527
	c-5.633,6.81-15.718,7.762-22.527,2.129l-70.72-58.51c-5.913-4.866-14.539-4.478-20.026,0.935L276.503,475.355
	C273.383,478.453,269.306,480,265.23,480z"/>
</svg>
