<?xml version="1.0" encoding="iso-8859-1"?>
<!-- Generator: Adobe Illustrator 24.3.0, SVG Export Plug-In . SVG Version: 6.00 Build 0)  -->
<svg version="1.1" id="Layer_1" xmlns="http://www.w3.org/2000/svg" xmlns:xlink="http://www.w3.org/1999/xlink" x="0px" y="0px"
	 viewBox="0 0 512 512" style="enable-background:new 0 0 512 512;" xml:space="preserve">
<path d="M416,64H96c-35.33,0.039-63.961,28.67-64,64v256c0.039,35.33,28.67,63.961,64,64h320c35.33-0.039,63.961-28.67,64-64V128
	C479.961,92.67,451.33,64.039,416,64z M336,128c26.51,0,48,21.49,48,48s-21.49,48-48,48s-48-21.49-48-48
	C288.028,149.502,309.502,128.028,336,128z M96,416c-17.673,0-32-14.327-32-32v-67.63l94.84-84.3
	c18.993-16.845,47.811-16.012,65.8,1.9l64.95,64.81L172.37,416H96z M448,384c0,17.673-14.327,32-32,32H217.63l121.42-121.42
	c17.752-15.096,43.81-15.164,61.64-0.16L448,333.84V384z"/>
</svg>
