<?xml version="1.0" encoding="iso-8859-1"?>
<!-- Generator: Adobe Illustrator 24.3.0, SVG Export Plug-In . SVG Version: 6.00 Build 0)  -->
<svg version="1.1" id="Layer_1" xmlns="http://www.w3.org/2000/svg" xmlns:xlink="http://www.w3.org/1999/xlink" x="0px" y="0px"
	 viewBox="0 0 512 512" style="enable-background:new 0 0 512 512;" xml:space="preserve">
<path d="M456,64H56c-13.255,0-24,10.745-24,24v336c0,13.255,10.745,24,24,24h400c13.255,0,24-10.745,24-24V88
	C480,74.745,469.255,64,456,64z M331.62,128.2c26.399-2.419,49.761,17.021,52.18,43.42c2.419,26.399-17.021,49.761-43.42,52.18
	c-26.399,2.419-49.761-17.021-52.18-43.42c-0.267-2.914-0.267-5.846,0-8.76C290.312,148.571,308.571,130.312,331.62,128.2z M76,416
	c-6.627,0-12-5.373-12-12v-87.63L192.64,202l96.95,96.75L172.37,416H76z M448,404c0,6.627-5.373,12-12,12H217.63l149.53-149.53
	L448,333.84V404z"/>
</svg>
