<?xml version="1.0" encoding="iso-8859-1"?>
<!-- Generator: Adobe Illustrator 24.3.0, SVG Export Plug-In . SVG Version: 6.00 Build 0)  -->
<svg version="1.1" id="Layer_1" xmlns="http://www.w3.org/2000/svg" xmlns:xlink="http://www.w3.org/1999/xlink" x="0px" y="0px"
	 viewBox="0 0 512 512" style="enable-background:new 0 0 512 512;" xml:space="preserve">
<path d="M130,368C67.14,368,16,317.757,16,256c0-61.757,51.14-112,114-112c36.533,0,72.532,18.416,104.106,53.256
	c22.959,25.334,35.675,50.529,36.205,51.589c3.952,7.904,0.748,17.514-7.155,21.466c-7.899,3.95-17.502,0.752-21.459-7.142
	C241.114,262.019,196.931,176,130,176c-45.215,0-82,35.888-82,80C48,300.113,84.785,336,130,336c27.788,0,57.713-15.562,82.1-42.695
	c5.907-6.571,16.025-7.112,22.595-1.204c6.572,5.906,7.111,16.022,1.205,22.595c-13.607,15.14-29.418,27.901-45.724,36.907
	C170.475,362.484,150.229,368,130,368z"/>
<path d="M382,368c-36.533,0-72.532-18.416-104.105-53.256c-22.96-25.335-35.675-50.529-36.206-51.589
	c-3.952-7.904-0.748-17.515,7.156-21.467c7.897-3.948,17.504-0.751,21.459,7.142C270.886,249.981,315.069,336,382,336
	c45.215,0,82-35.888,82-80.001c0-44.112-36.785-80-82-80c-27.788,0-57.713,15.562-82.101,42.695
	c-5.907,6.572-16.024,7.11-22.595,1.205c-6.572-5.907-7.111-16.023-1.204-22.595c13.606-15.14,29.418-27.902,45.723-36.907
	C341.525,149.517,361.771,144,382,144c62.859,0,114,50.243,114,112C496,317.757,444.859,368,382,368z"/>
</svg>
