<?xml version="1.0" encoding="iso-8859-1"?>
<!-- Generator: Adobe Illustrator 24.3.0, SVG Export Plug-In . SVG Version: 6.00 Build 0)  -->
<svg version="1.1" id="Layer_1" xmlns="http://www.w3.org/2000/svg" xmlns:xlink="http://www.w3.org/1999/xlink" x="0px" y="0px"
	 viewBox="0 0 512 512" style="enable-background:new 0 0 512 512;" xml:space="preserve">
<path d="M382,136c-40.87,0-73.46,20.53-93.6,37.76l-0.71,0.61l-11.47,12.47l25.32,41.61l18.74-18.79
	C339.89,193.1,361.78,184,382,184c40.8,0,74,32.3,74,72s-33.2,72-74,72c-62,0-104.14-81.95-104.56-82.78l0,0
	C275,240.29,221.56,136,130,136C62.73,136,8,189.83,8,256s54.73,120,122,120c32.95,0,65.38-13.11,93.79-37.92l0.61-0.54l11.38-12.38
	l-25.33-41.61l-18.83,18.88C172,319.4,151.26,328,130,328c-40.8,0-74-32.3-74-72s33.2-72,74-72c62,0,104.14,81.95,104.56,82.78l0,0
	C237,271.71,290.44,376,382,376c67.27,0,122-53.83,122-120S449.27,136,382,136z"/>
</svg>
