<?xml version="1.0" encoding="iso-8859-1"?>
<!-- Generator: Adobe Illustrator 24.3.0, SVG Export Plug-In . SVG Version: 6.00 Build 0)  -->
<svg version="1.1" id="Layer_1" xmlns="http://www.w3.org/2000/svg" xmlns:xlink="http://www.w3.org/1999/xlink" x="0px" y="0px"
	 viewBox="0 0 512 512" style="enable-background:new 0 0 512 512;" xml:space="preserve">
<path d="M130,376C62.729,376,8,322.168,8,256s54.729-120,122-120c91.777,0,145.235,104.805,147.466,109.267
	c5.928,11.855,1.123,26.271-10.732,32.199c-11.845,5.922-26.242,1.132-32.182-10.696C233.942,265.569,191.88,184,130,184
	c-40.804,0-74,32.299-74,72C56,295.702,89.196,328,130,328c21.468,0,42.399-8.773,62.213-26.077
	c9.984-8.719,25.145-7.694,33.864,2.29s7.693,25.146-2.291,33.864C195.378,362.887,162.947,376,130,376z"/>
<path d="M382,376c-91.777,0-145.235-104.806-147.466-109.268c-5.928-11.855-1.122-26.271,10.733-32.199
	c11.843-5.92,26.242-1.132,32.181,10.697C278.058,246.431,320.12,328,382,328c40.804,0,74-32.299,74-72.001
	c0-39.701-33.196-72-74-72c-20.454,0-42.616,9.319-62.401,26.24c-10.072,8.614-25.223,7.432-33.838-2.641
	s-7.433-25.223,2.641-33.838C308.544,156.534,341.133,136,382,136c67.271,0,122,53.832,122,120S449.271,376,382,376z"/>
</svg>
