<?xml version="1.0" encoding="iso-8859-1"?>
<!-- Generator: Adobe Illustrator 24.3.0, SVG Export Plug-In . SVG Version: 6.00 Build 0)  -->
<svg version="1.1" id="Layer_1" xmlns="http://www.w3.org/2000/svg" xmlns:xlink="http://www.w3.org/1999/xlink" x="0px" y="0px"
	 viewBox="0 0 512 512" style="enable-background:new 0 0 512 512;" xml:space="preserve">
<path d="M248,448C137.72,448,48,358.281,48,248c0-110.28,89.72-200,200-200s200,89.72,200,200C448,358.281,358.28,448,248,448z
	 M248,80c-92.636,0-168,75.364-168,168C80,340.636,155.364,416,248,416S416,340.636,416,248C416,155.364,340.636,80,248,80z"/>
<path d="M252,352c-8.836,0-16-7.163-16-16V236h-16c-8.836,0-16-7.164-16-16s7.164-16,16-16h32c8.837,0,16,7.164,16,16V336
	C268,344.837,260.837,352,252,352z"/>
<path d="M296,356h-88c-8.836,0-16-7.163-16-16s7.164-16,16-16h88c8.837,0,16,7.163,16,16S304.837,356,296,356z"/>
<circle cx="248" cy="156" r="26"/>
</svg>
