<?xml version="1.0" encoding="iso-8859-1"?>
<!-- Generator: Adobe Illustrator 24.3.0, SVG Export Plug-In . SVG Version: 6.00 Build 0)  -->
<svg version="1.1" id="Layer_1" xmlns="http://www.w3.org/2000/svg" xmlns:xlink="http://www.w3.org/1999/xlink" x="0px" y="0px"
	 viewBox="0 0 512 512" style="enable-background:new 0 0 512 512;" xml:space="preserve">
<path d="M256,56C145.72,56,56,145.72,56,256s89.72,200,200,200s200-89.72,200-200S366.28,56,256,56z M256,138
	c14.359,0,26,11.641,26,26s-11.641,26-26,26s-26-11.641-26-26S241.641,138,256,138z M304,364h-88c-8.837,0-16-7.163-16-16
	s7.163-16,16-16h28v-88h-16c-8.837,0-16-7.163-16-16s7.163-16,16-16h32c8.837,0,16,7.163,16,16v104h28c8.837,0,16,7.163,16,16
	S312.837,364,304,364z"/>
</svg>
