<?xml version="1.0" encoding="iso-8859-1"?>
<!-- Generator: Adobe Illustrator 24.3.0, SVG Export Plug-In . SVG Version: 6.00 Build 0)  -->
<svg version="1.1" id="Layer_1" xmlns="http://www.w3.org/2000/svg" xmlns:xlink="http://www.w3.org/1999/xlink" x="0px" y="0px"
	 viewBox="0 0 512 512" style="enable-background:new 0 0 512 512;" xml:space="preserve">
<path d="M260,412c-11.046,0-20-8.954-20-20V240h-44c-11.046,0-20-8.954-20-20s8.954-20,20-20h64c11.046,0,20,8.954,20,20V392
	C280,403.046,271.046,412,260,412z"/>
<path d="M325,416H187c-11.046,0-20-8.954-20-20s8.954-20,20-20h138c11.046,0,20,8.954,20,20S336.046,416,325,416z"/>
<circle cx="256" cy="128" r="32"/>
</svg>
