<?xml version="1.0" encoding="iso-8859-1"?>
<!-- Generator: Adobe Illustrator 24.3.0, SVG Export Plug-In . SVG Version: 6.00 Build 0)  -->
<svg version="1.1" id="Layer_1" xmlns="http://www.w3.org/2000/svg" xmlns:xlink="http://www.w3.org/1999/xlink" x="0px" y="0px"
	 viewBox="0 0 512 512" style="enable-background:new 0 0 512 512;" xml:space="preserve">
<path d="M414.39,97.61C327.343,9.704,185.516,9.007,97.61,96.054s-88.603,228.874-1.557,316.78c0.516,0.521,1.035,1.04,1.557,1.557
	c87.047,87.906,228.874,88.603,316.78,1.557s88.603-228.874,1.557-316.78C415.43,98.645,414.911,98.126,414.39,97.61z M256,432v-96
	c-44.183,0-80-35.817-80-80s35.817-80,80-80V80c97.05,0,176,79,176,176S353.05,432,256,432z"/>
<path d="M336,256c0-44.183-35.817-80-80-80v160C300.183,336,336,300.183,336,256z"/>
</svg>
