<svg width="24" height="25" viewBox="0 0 24 25"  xmlns="http://www.w3.org/2000/svg">
<g id="037-job" clip-path="url(#clip0_644_20020)">
<g id="XMLID_852_">
<g id="XMLID_724_">
<path id="XMLID_1233_" d="M22.4062 10.0352H18.375V8.55859C18.375 7.87366 17.8178 7.31641 17.1328 7.31641H16.5039V5.25391H16.5028C16.5027 5.13194 16.4562 5.01208 16.3666 4.92245L12.2416 0.797453C12.1568 0.712609 12.0396 0.660156 11.9101 0.660156H0.46875C0.209859 0.660156 0 0.870063 0 1.12891V21.6602C0 21.919 0.209859 22.1289 0.46875 22.1289H4.6875V23.0664C4.6875 23.9452 5.40244 24.6602 6.28125 24.6602H12.2344C12.4933 24.6602 12.7031 24.4503 12.7031 24.1914C12.7031 23.9326 12.4933 23.7227 12.2344 23.7227H6.28125C5.91937 23.7227 5.625 23.4283 5.625 23.0664V16.1909L12.375 18.154V18.6133C12.375 19.6989 13.2582 20.582 14.3438 20.582C15.4293 20.582 16.3125 19.6989 16.3125 18.6133V18.154L23.0625 16.1909V23.0664C23.0625 23.4283 22.7681 23.7227 22.4062 23.7227H16.4531C16.1942 23.7227 15.9844 23.9326 15.9844 24.1914C15.9844 24.4503 16.1942 24.6602 16.4531 24.6602H22.4062C23.2851 24.6602 24 23.9452 24 23.0664V11.6289C24 10.7501 23.2851 10.0352 22.4062 10.0352ZM17.4375 8.55859V10.0352H11.25V8.55859C11.25 8.39059 11.3867 8.25391 11.5547 8.25391H17.1328C17.3008 8.25391 17.4375 8.39059 17.4375 8.55859ZM12.3789 2.26061L14.9035 4.78516H12.3789V2.26061ZM0.9375 21.1914V1.59766H11.4414V5.25391C11.4414 5.51275 11.6512 5.72266 11.9101 5.72266H15.5664V7.31641H11.5547C10.8698 7.31641 10.3125 7.87366 10.3125 8.55859V10.0352H6.28125C5.40244 10.0352 4.6875 10.7501 4.6875 11.6289V21.1914H0.9375ZM14.3438 19.6445C13.7751 19.6445 13.3125 19.1819 13.3125 18.6133V17.207H15.375V18.6133C15.375 19.1819 14.9124 19.6445 14.3438 19.6445ZM15.8438 16.2695H12.8438C12.5849 16.2695 12.375 16.4794 12.375 16.7383V17.1775L5.625 15.2146V11.6289C5.625 11.267 5.91937 10.9727 6.28125 10.9727H22.4062C22.7681 10.9727 23.0625 11.267 23.0625 11.6289V15.2146L16.3125 17.1775V16.7383C16.3125 16.4794 16.1026 16.2695 15.8438 16.2695Z" fill="black"/>
<path id="XMLID_1240_" d="M8.90629 7.87891C8.90629 7.62006 8.69643 7.41016 8.43754 7.41016H2.74561C2.48671 7.41016 2.27686 7.62006 2.27686 7.87891C2.27686 8.13775 2.48671 8.34766 2.74561 8.34766H8.43754C8.69643 8.34766 8.90629 8.13775 8.90629 7.87891Z" fill="black"/>
<path id="XMLID_1241_" d="M2.74561 5.72266H8.43754C8.69643 5.72266 8.90629 5.51275 8.90629 5.25391C8.90629 4.99506 8.69643 4.78516 8.43754 4.78516H2.74561C2.48671 4.78516 2.27686 4.99506 2.27686 5.25391C2.27686 5.51275 2.48671 5.72266 2.74561 5.72266Z" fill="black"/>
<path id="XMLID_1242_" d="M14.3438 23.7227C14.2205 23.7227 14.0995 23.7728 14.0123 23.86C13.9252 23.9472 13.875 24.0681 13.875 24.1914C13.875 24.3147 13.9252 24.4356 14.0123 24.5228C14.0995 24.61 14.2205 24.6602 14.3438 24.6602C14.467 24.6602 14.588 24.61 14.6752 24.5228C14.7623 24.4356 14.8125 24.3147 14.8125 24.1914C14.8125 24.0681 14.7623 23.9472 14.6752 23.86C14.588 23.7728 14.467 23.7227 14.3438 23.7227Z" fill="black"/>
</g>
</g>
</g>
<defs>
<clipPath id="clip0_644_20020">
<rect width="24" height="24" fill="white" transform="translate(0 0.660156)"/>
</clipPath>
</defs>
</svg>
