<svg width="11" height="27.9" viewBox="0 0 11 38"  xmlns="http://www.w3.org/2000/svg">
    <g id="gen052 1" clip-path="url(#clip0_1846_23274)">
        <path id="Vector" d="M6.92228 17.3301C8.06977 17.3301 9 16.4346 9 15.3301C9 14.2255 8.06977 13.3301 6.92228 13.3301C5.77479 13.3301 4.84456 14.2255 4.84456 15.3301C4.84456 16.4346 5.77479 17.3301 6.92228 17.3301Z" fill="#482084"/>
        <path id="Vector_2" d="M6.92228 25.3301C8.06977 25.3301 9 24.4346 9 23.3301C9 22.2255 8.06977 21.3301 6.92228 21.3301C5.77479 21.3301 4.84456 22.2255 4.84456 23.3301C4.84456 24.4346 5.77479 25.3301 6.92228 25.3301Z" fill="#482084"/>
        <path id="Vector_3" d="M6.92228 9.33008C8.06977 9.33008 9 8.43465 9 7.33008C9 6.22551 8.06977 5.33008 6.92228 5.33008C5.77479 5.33008 4.84456 6.22551 4.84456 7.33008C4.84456 8.43465 5.77479 9.33008 6.92228 9.33008Z" fill="#482084"/>
    </g>
    <defs>
        <clipPath id="clip0_1846_23274">
            <rect width="30" height="10" fill="white" transform="matrix(0 1 -1 0 10.8896 0.283203)"/>
        </clipPath>
    </defs>
</svg>
