<?xml version="1.0" encoding="iso-8859-1"?>
<!-- Generator: Adobe Illustrator 24.3.0, SVG Export Plug-In . SVG Version: 6.00 Build 0)  -->
<svg version="1.1" id="Layer_1" xmlns="http://www.w3.org/2000/svg" xmlns:xlink="http://www.w3.org/1999/xlink" x="0px" y="0px"
	 viewBox="0 0 512 512" style="enable-background:new 0 0 512 512;" xml:space="preserve">
<path d="M218.1,167.2c0,13,0,25.6,4.1,37.4C179.1,255.2,54.7,399.1,54.7,399.1l2.9,36.3c0,0,34.8,33,40,28
	c15.4-15,24.8-25.2,24.8-25.2l7.24-43.35l47.11-3.47l3.78-46.8l49.63-0.95l0.49-50.09l52.69,2.1l9-18.84c15.5,6.7,29.6,9.4,47.7,9.4
	c68.5,0,124-53.4,124-119.2S408.5,48,340,48S218.1,101.4,218.1,167.2z M406.85,144c0,21.456-17.394,38.85-38.85,38.85
	s-38.85-17.394-38.85-38.85s17.394-38.85,38.85-38.85c21.434-0.022,38.828,17.336,38.85,38.77
	C406.85,143.947,406.85,143.973,406.85,144z"/>
</svg>
