<?xml version="1.0" encoding="iso-8859-1"?>
<!-- Generator: Adobe Illustrator 24.3.0, SVG Export Plug-In . SVG Version: 6.00 Build 0)  -->
<svg version="1.1" id="Layer_1" xmlns="http://www.w3.org/2000/svg" xmlns:xlink="http://www.w3.org/1999/xlink" x="0px" y="0px"
	 viewBox="0 0 512 512" style="enable-background:new 0 0 512 512;" xml:space="preserve">
<path d="M95.76,480.001c-0.141,0-0.282-0.001-0.424-0.004c-7.706-0.162-16.298-4.695-29.657-15.649
	c-8.511-6.979-16.409-14.54-19.642-17.919C42.745,442.987,32,430.479,32,414.07c0.007-10.139,4.284-19.833,11.747-26.666
	c10.481-10.3,119.305-138.063,160.782-186.762c-2.429-11.285-2.429-22.525-2.429-33.472c0-36.276,14.219-70.25,40.039-95.663
	C268.022,46.031,302.777,32,340,32c77.196,0,140,60.547,140,134.97c0,74.55-62.804,135.2-140,135.2
	c-17.153,0-31.266-2.24-45.587-7.366c-4.687,3.319-9.952,6.681-16.159,8.011c-5.837,1.267-11.7-0.216-22.411-3.172
	c-1.28-0.353-2.911-0.803-4.505-1.224c0.771,1.703,1.66,3.504,2.332,4.865c3.6,7.293,7.324,14.835,5.58,23.02
	c-2.558,11.999-19.983,32.07-37.897,34.158c-7.593,0.878-14.318-1.744-19.933-4.303c1.697,4.05,3.28,8.777,3.178,14.088
	c-0.232,14.507-9.375,22.967-13.819,27.056c-7.398,6.916-15.837,13.668-30.07,13.466c-5.125-0.064-10.088-1.12-14.468-2.052
	c-1.907-0.406-4.661-0.991-6.101-1.135c0.172,1.422,0.518,3.4,0.772,4.858c1.671,9.583,4.469,25.623-7.317,37.162
	c-2.134,2.1-3.897,3.958-6.129,6.31c-3.938,4.149-8.839,9.313-18.7,18.919c-0.025,0.023-0.05,0.048-0.075,0.071
	C105.261,478.2,100.683,480.001,95.76,480.001z M340,64c-28.771,0-55.554,10.766-75.414,30.313
	c-19.659,19.35-30.486,45.224-30.486,72.857c0,11.776,0,22.899,3.214,32.149c1.862,5.36,0.746,11.307-2.934,15.626l-5.209,6.117
	c-79.261,93.06-153.912,180.43-163.376,189.537c-0.134,0.129-0.27,0.255-0.408,0.379c-0.88,0.79-1.385,1.921-1.386,3.103
	c0,2.751,2.219,7.152,5.162,10.229c5.631,5.887,16.798,15.748,24.062,20.911c5.127-5.117,8.318-8.48,11.03-11.337
	c2.125-2.239,3.988-4.202,6.217-6.419c0.212-2.095-0.588-6.683-1.084-9.526c-1.2-6.882-2.56-14.681,0.608-22.072
	c6.093-14.219,15.092-17.897,23.91-19.753c6.462-1.362,12.833-0.008,18.993,1.304c2.93,0.623,6.252,1.329,8.205,1.354
	c1.951,0.029,2.611,0.032,7.868-4.886c0.033-0.03,0.065-0.061,0.098-0.091c2.48-2.281,3.227-3.308,3.45-3.705
	c-0.35-1.024-1.141-2.791-1.694-4.03c-3.212-7.182-10.734-23.998,3.481-37.92c13.781-13.495,30.472-5.713,38.494-1.973
	c1.624,0.757,3.93,1.831,5.307,2.296c2.414-1.086,6.263-4.634,8.561-7.529c-0.551-1.174-1.185-2.458-1.691-3.484
	c-4.021-8.145-9.024-18.281-6.686-28.687c0.01-0.043,0.02-0.086,0.03-0.129c2.032-8.706,12.775-20.648,23.582-22.998
	c5.878-1.278,11.744,0.205,22.456,3.161c2.343,0.646,5.863,1.618,8.181,2.138c1.603-0.953,3.866-2.585,5.371-3.67
	c1.91-1.377,3.886-2.801,5.935-4.076c4.456-2.774,9.988-3.188,14.806-1.104c13.288,5.744,25.269,8.087,41.352,8.087
	c59.552,0,108-46.295,108-103.2C448,110.192,399.552,64,340,64z M111.178,426.766c-0.004,0.004-0.008,0.008-0.012,0.012
	C111.169,426.774,111.174,426.77,111.178,426.766z M140.032,406.139L140.032,406.139z M172.604,369.616c0,0.002,0,0.005,0,0.008
	C172.604,369.621,172.604,369.618,172.604,369.616z M218.848,328.667C218.848,328.668,218.848,328.668,218.848,328.667
	C218.848,328.668,218.848,328.668,218.848,328.667z M249.672,293.906L249.672,293.906z M368,192c-26.467,0-48-21.533-48-48
	s21.533-48,48-48s48,21.533,48,48S394.467,192,368,192z M368,128c-8.822,0-16,7.178-16,16s7.178,16,16,16s16-7.178,16-16
	S376.822,128,368,128z"/>
</svg>
