<?xml version="1.0" encoding="iso-8859-1"?>
<!-- Generator: Adobe Illustrator 24.3.0, SVG Export Plug-In . SVG Version: 6.00 Build 0)  -->
<svg version="1.1" id="Layer_1" xmlns="http://www.w3.org/2000/svg" xmlns:xlink="http://www.w3.org/1999/xlink" x="0px" y="0px"
	 viewBox="0 0 512 512" style="enable-background:new 0 0 512 512;" xml:space="preserve">
<path d="M218.1,167.17c0,13,0,25.6,4.1,37.4c-43.1,50.6-156.9,184.3-167.5,194.5c-4.261,3.823-6.696,9.276-6.7,15
	c0,8.5,5.2,16.7,9.6,21.3c6.6,6.9,34.8,33,40,28c15.4-15,18.5-19,24.8-25.2c9.5-9.3-1-28.3,2.3-36s6.8-9.2,12.5-10.4
	s15.8,2.9,23.7,3c8.3,0.1,12.8-3.4,19-9.2c5-4.6,8.6-8.9,8.7-15.6c0.2-9-12.8-20.9-3.1-30.4s23.7,6.2,34,5s22.8-15.5,24.1-21.6
	s-11.7-21.8-9.7-30.7c0.7-3,6.8-10,11.4-11s25,6.9,29.6,5.9c5.6-1.2,12.1-7.1,17.4-10.4c15.5,6.7,29.6,9.4,47.7,9.4
	c68.5,0,124-53.4,124-119.2S408.5,48,340,48S218.1,101.37,218.1,167.17z M400,144c0,17.673-14.327,32-32,32s-32-14.327-32-32
	s14.327-32,32-32S400,126.327,400,144z"/>
</svg>
