<?xml version="1.0" encoding="iso-8859-1"?>
<!-- Generator: Adobe Illustrator 24.3.0, SVG Export Plug-In . SVG Version: 6.00 Build 0)  -->
<svg version="1.1" id="Layer_1" xmlns="http://www.w3.org/2000/svg" xmlns:xlink="http://www.w3.org/1999/xlink" x="0px" y="0px"
	 viewBox="0 0 512 512" style="enable-background:new 0 0 512 512;" xml:space="preserve">
<path d="M88,16h80c4.418,0,8,3.582,8,8v80c0,4.418-3.582,8-8,8H88c-4.418,0-8-3.582-8-8V24C80,19.582,83.582,16,88,16z"/>
<path d="M216,16h80c4.418,0,8,3.582,8,8v80c0,4.418-3.582,8-8,8h-80c-4.418,0-8-3.582-8-8V24C208,19.582,211.582,16,216,16z"/>
<path d="M344,16h80c4.418,0,8,3.582,8,8v80c0,4.418-3.582,8-8,8h-80c-4.418,0-8-3.582-8-8V24C336,19.582,339.582,16,344,16z"/>
<path d="M88,144h80c4.418,0,8,3.582,8,8v80c0,4.418-3.582,8-8,8H88c-4.418,0-8-3.582-8-8v-80C80,147.582,83.582,144,88,144z"/>
<path d="M216,144h80c4.418,0,8,3.582,8,8v80c0,4.418-3.582,8-8,8h-80c-4.418,0-8-3.582-8-8v-80C208,147.582,211.582,144,216,144z"/>
<path d="M344,144h80c4.418,0,8,3.582,8,8v80c0,4.418-3.582,8-8,8h-80c-4.418,0-8-3.582-8-8v-80C336,147.582,339.582,144,344,144z"/>
<path d="M88,272h80c4.418,0,8,3.582,8,8v80c0,4.418-3.582,8-8,8H88c-4.418,0-8-3.582-8-8v-80C80,275.582,83.582,272,88,272z"/>
<path d="M216,272h80c4.418,0,8,3.582,8,8v80c0,4.418-3.582,8-8,8h-80c-4.418,0-8-3.582-8-8v-80C208,275.582,211.582,272,216,272z"/>
<path d="M216,400h80c4.418,0,8,3.582,8,8v80c0,4.418-3.582,8-8,8h-80c-4.418,0-8-3.582-8-8v-80C208,403.582,211.582,400,216,400z"/>
<path d="M344,272h80c4.418,0,8,3.582,8,8v80c0,4.418-3.582,8-8,8h-80c-4.418,0-8-3.582-8-8v-80C336,275.582,339.582,272,344,272z"/>
</svg>
