<?xml version="1.0" encoding="iso-8859-1"?>
<!-- Generator: Adobe Illustrator 24.3.0, SVG Export Plug-In . SVG Version: 6.00 Build 0)  -->
<svg version="1.1" id="Layer_1" xmlns="http://www.w3.org/2000/svg" xmlns:xlink="http://www.w3.org/1999/xlink" x="0px" y="0px"
	 viewBox="0 0 512 512" style="enable-background:new 0 0 512 512;" xml:space="preserve">
<path d="M256,496c-26.467,0-48-21.532-48-48s21.533-48,48-48c26.468,0,48,21.532,48,48S282.468,496,256,496z M256,432
	c-8.822,0-16,7.178-16,16s7.178,16,16,16s16-7.178,16-16S264.822,432,256,432z"/>
<path d="M256,368c-26.467,0-48-21.532-48-48s21.533-48,48-48c26.468,0,48,21.532,48,48S282.468,368,256,368z M256,304
	c-8.822,0-16,7.178-16,16s7.178,16,16,16s16-7.178,16-16S264.822,304,256,304z"/>
<path d="M256,240c-26.467,0-48-21.533-48-48s21.533-48,48-48c26.468,0,48,21.533,48,48S282.468,240,256,240z M256,176
	c-8.822,0-16,7.178-16,16s7.178,16,16,16s16-7.178,16-16S264.822,176,256,176z"/>
<path d="M256,112c-26.467,0-48-21.533-48-48s21.533-48,48-48c26.468,0,48,21.533,48,48S282.468,112,256,112z M256,48
	c-8.822,0-16,7.178-16,16s7.178,16,16,16s16-7.178,16-16S264.822,48,256,48z"/>
<path d="M384,368c-26.468,0-48-21.532-48-48s21.532-48,48-48s48,21.532,48,48S410.468,368,384,368z M384,304
	c-8.822,0-16,7.178-16,16s7.178,16,16,16s16-7.178,16-16S392.822,304,384,304z"/>
<path d="M384,240c-26.468,0-48-21.533-48-48s21.532-48,48-48s48,21.533,48,48S410.468,240,384,240z M384,176
	c-8.822,0-16,7.178-16,16s7.178,16,16,16s16-7.178,16-16S392.822,176,384,176z"/>
<path d="M384,112c-26.468,0-48-21.533-48-48s21.532-48,48-48s48,21.533,48,48S410.468,112,384,112z M384,48c-8.822,0-16,7.178-16,16
	s7.178,16,16,16s16-7.178,16-16S392.822,48,384,48z"/>
<path d="M128,368c-26.467,0-48-21.532-48-48s21.533-48,48-48s48,21.532,48,48S154.467,368,128,368z M128,304
	c-8.822,0-16,7.178-16,16s7.178,16,16,16s16-7.178,16-16S136.822,304,128,304z"/>
<path d="M128,240c-26.467,0-48-21.533-48-48s21.533-48,48-48s48,21.533,48,48S154.467,240,128,240z M128,176
	c-8.822,0-16,7.178-16,16s7.178,16,16,16s16-7.178,16-16S136.822,176,128,176z"/>
<path d="M128,112c-26.467,0-48-21.533-48-48s21.533-48,48-48s48,21.533,48,48S154.467,112,128,112z M128,48c-8.822,0-16,7.178-16,16
	s7.178,16,16,16s16-7.178,16-16S136.822,48,128,48z"/>
</svg>
