<?xml version="1.0" encoding="iso-8859-1"?>
<!-- Generator: Adobe Illustrator 24.3.0, SVG Export Plug-In . SVG Version: 6.00 Build 0)  -->
<svg version="1.1" id="Layer_1" xmlns="http://www.w3.org/2000/svg" xmlns:xlink="http://www.w3.org/1999/xlink" x="0px" y="0px"
	 viewBox="0 0 512 512" style="enable-background:new 0 0 512 512;" xml:space="preserve">
<path d="M478.33,433.6l-90-218c-4.637-11.231-17.5-16.576-28.731-11.939c-5.409,2.233-9.706,6.53-11.939,11.939l-90,218
	c-4.692,11.208,0.589,24.097,11.797,28.79c11.208,4.692,24.097-0.589,28.79-11.797c0.028-0.067,0.056-0.135,0.084-0.203L316.66,406
	h102.67l18.33,44.39c3.398,8.237,11.429,13.611,20.34,13.61c12.15-0.007,21.994-9.863,21.987-22.013
	c-0.002-2.878-0.568-5.727-1.667-8.387H478.33z M334.83,362L368,281.65L401.17,362H334.83z"/>
<path d="M267.84,342.92c7.117-9.83,4.929-23.567-4.89-30.7c-0.2-0.15-15-11.13-36.49-34.73c39.65-53.68,62.11-114.75,71.27-143.49
	H330c12.15,0,22-9.85,22-22s-9.85-22-22-22H214V70c0-12.15-9.85-22-22-22s-22,9.85-22,22v20H54c-12.15,0-22,9.85-22,22
	s9.85,22,22,22h197.25c-9.52,26.95-27.05,69.5-53.79,108.36c-31.41-41.68-43.08-68.65-43.17-68.87
	c-4.825-11.151-17.776-16.279-28.928-11.454c-10.968,4.746-16.141,17.379-11.652,28.454c0.58,1.38,14.55,34.23,52.86,83.93
	c0.92,1.19,1.83,2.35,2.74,3.51c-39.24,44.35-77.74,71.86-93.85,80.74c-10.667,5.818-14.598,19.183-8.78,29.85
	s19.183,14.598,29.85,8.78l0,0c2.16-1.18,48.6-26.89,101.63-85.59c22.52,24.08,38,35.44,38.93,36.1
	c9.831,7.14,23.589,4.96,30.729-4.871c0.007-0.01,0.014-0.019,0.021-0.029V342.92z"/>
</svg>
