<?xml version="1.0" encoding="iso-8859-1"?>
<!-- Generator: Adobe Illustrator 24.3.0, SVG Export Plug-In . SVG Version: 6.00 Build 0)  -->
<svg version="1.1" id="Layer_1" xmlns="http://www.w3.org/2000/svg" xmlns:xlink="http://www.w3.org/1999/xlink" x="0px" y="0px"
	 viewBox="0 0 512 512" style="enable-background:new 0 0 512 512;" xml:space="preserve">
<path d="M363,176L246,464h47.24l24.49-58h90.54l24.49,58H480L363,176z M336.31,362L363,279.85L389.69,362H336.31z"/>
<path d="M272,320c-0.25-0.19-20.59-15.77-45.42-42.67c39.58-53.64,62-114.61,71.15-143.33H352V90H214V48h-44v42H32v44h219.25
	c-9.52,26.95-27.05,69.5-53.79,108.36c-32.68-43.44-47.14-75.88-47.33-76.22L143,152l-38,22l6.87,13.86
	c0.89,1.56,17.19,37.9,54.71,86.57c0.92,1.21,1.85,2.39,2.78,3.57c-49.72,56.86-89.15,79.09-89.66,79.47L64,368l23,36l19.3-11.47
	c2.2-1.67,41.33-24,92-80.78c24.52,26.28,43.22,40.83,44.3,41.67L255,362L272,320z"/>
</svg>
