<?xml version="1.0" encoding="iso-8859-1"?>
<!-- Generator: Adobe Illustrator 24.3.0, SVG Export Plug-In . SVG Version: 6.00 Build 0)  -->
<svg version="1.1" id="Layer_1" xmlns="http://www.w3.org/2000/svg" xmlns:xlink="http://www.w3.org/1999/xlink" x="0px" y="0px"
	 viewBox="0 0 512 512" style="enable-background:new 0 0 512 512;" xml:space="preserve">
<path d="M336,128H48c-8.836,0-16-7.164-16-16s7.164-16,16-16h288c8.837,0,16,7.164,16,16S344.837,128,336,128z"/>
<path d="M192,128c-8.836,0-16-7.164-16-16V64c0-8.836,7.164-16,16-16s16,7.164,16,16v48C208,120.836,200.836,128,192,128z"/>
<path d="M464.008,464.004c-6.208,0.001-12.114-3.634-14.714-9.701L368,264.618l-81.294,189.686
	c-3.48,8.121-12.884,11.885-21.009,8.403c-8.122-3.48-11.884-12.887-8.403-21.009l96-224.001C355.815,211.814,361.6,208,368,208
	s12.185,3.814,14.706,9.697l96,224.001c3.481,8.122-0.281,17.528-8.403,21.009C468.248,463.587,466.11,464.004,464.008,464.004z"/>
<path d="M434.5,400h-133c-8.837,0-16-7.163-16-16s7.163-16,16-16h133c8.837,0,16,7.163,16,16S443.337,400,434.5,400z"/>
<path d="M80.015,400.003c-5.477,0-10.81-2.813-13.794-7.871c-4.491-7.61-1.963-17.42,5.647-21.911
	c0.575-0.341,59.423-35.626,114.741-103.343c55.141-67.501,78.966-157.977,79.2-158.883c2.212-8.555,10.931-13.699,19.496-11.486
	c8.555,2.211,13.697,10.94,11.486,19.495c-1.028,3.977-25.863,98.237-85.4,171.118C152.267,359.498,90.723,396.25,88.132,397.78
	C85.58,399.286,82.779,400.003,80.015,400.003z"/>
<path d="M255.982,351.999c-3.41,0-6.845-1.086-9.755-3.33c-1.496-1.154-37.072-28.827-74.899-77.9
	c-37.462-48.601-56.758-85.896-57.561-87.46c-4.037-7.861-0.937-17.505,6.924-21.542c7.861-4.04,17.505-0.937,21.542,6.924
	c0.181,0.351,18.897,36.432,54.439,82.542c35.142,45.589,68.777,71.849,69.112,72.109c6.982,5.406,8.27,15.452,2.869,22.439
	C265.5,349.86,260.767,351.999,255.982,351.999z"/>
</svg>
