<?xml version="1.0" encoding="iso-8859-1"?>
<!-- Generator: Adobe Illustrator 24.3.0, SVG Export Plug-In . SVG Version: 6.00 Build 0)  -->
<svg version="1.1" id="Layer_1" xmlns="http://www.w3.org/2000/svg" xmlns:xlink="http://www.w3.org/1999/xlink" x="0px" y="0px"
	 viewBox="0 0 512 512" style="enable-background:new 0 0 512 512;" xml:space="preserve">
<path d="M431.86,416H80.14C53.596,416,32,394.405,32,367.86V128.14C32,101.596,53.596,80,80.14,80h351.72
	c26.544,0,48.14,21.596,48.14,48.14v239.72C480,394.405,458.404,416,431.86,416z M80.14,112c-8.9,0-16.14,7.24-16.14,16.14v239.72
	C64,376.76,71.24,384,80.14,384h351.72c8.899,0,16.14-7.24,16.14-16.141V128.14c0-8.9-7.24-16.14-16.14-16.14H80.14z"/>
<path d="M496,432H16c-8.836,0-16-7.163-16-16s7.164-16,16-16h480c8.837,0,16,7.163,16,16S504.837,432,496,432z"/>
</svg>
