<?xml version="1.0" encoding="iso-8859-1"?>
<!-- Generator: Adobe Illustrator 24.3.0, SVG Export Plug-In . SVG Version: 6.00 Build 0)  -->
<svg version="1.1" id="Layer_1" xmlns="http://www.w3.org/2000/svg" xmlns:xlink="http://www.w3.org/1999/xlink" x="0px" y="0px"
	 viewBox="0 0 512 512" style="enable-background:new 0 0 512 512;" xml:space="preserve">
<path d="M256.089,255.974c-13.467,0-26.932-2.392-37.426-7.175L70.661,181.298C63.89,178.22,48.1,169.206,48.1,152.195
	c0-17.011,15.79-26.025,22.579-29.111l149.24-68.09c20.564-9.399,51.598-9.4,72.173,0.005l149.334,68.088
	c6.795,3.087,22.566,12.091,22.584,29.095c0.019,17.001-15.718,26.023-22.484,29.113L293.52,248.798
	C283.024,253.582,269.556,255.974,256.089,255.974z M83.966,152.195l147.973,67.487c12.639,5.761,35.663,5.762,48.304-0.001
	l147.931-67.468c-0.004-0.002-0.008-0.003-0.012-0.005l-149.359-68.1c-11.94-5.457-33.664-5.458-45.591-0.006L83.966,152.195z
	 M432.776,155.11h0.01H432.776z"/>
<path d="M256.087,463.956c-13.466,0.001-26.925-2.388-37.417-7.165L70.661,389.288C63.89,386.209,48.1,377.196,48.1,360.18
	s15.79-26.029,22.579-29.115l82.771-37.143c8.062-3.617,17.53-0.014,21.148,8.047c3.618,8.062,0.015,17.53-8.047,21.148
	L83.957,360.18l147.982,67.492c12.636,5.754,35.667,5.752,48.31-0.004l147.975-67.488c-0.095-0.043-0.188-0.087-0.282-0.133
	l-79.939-38.471c-7.962-3.832-11.311-13.393-7.479-21.355c3.83-7.962,13.389-11.312,21.355-7.479l79.796,38.401
	c6.88,3.159,22.405,12.164,22.405,29.036c0,17.016-15.79,26.03-22.579,29.116L293.52,456.788
	C283.023,461.567,269.552,463.956,256.087,463.956z"/>
<path d="M255.989,359.964c-13.467,0-26.933-2.392-37.426-7.176L70.562,285.297C63.791,282.22,48,273.206,48,256.19
	s15.791-26.03,22.58-29.116l82.869-37.191c8.064-3.62,17.53-0.015,21.148,8.046c3.618,8.062,0.016,17.53-8.046,21.148L83.857,256.19
	l147.982,67.482c12.638,5.762,35.663,5.762,48.305-0.001l147.998-67.489c0.011-0.005,0.021-0.01,0.032-0.015l-82.72-37.088
	c-8.063-3.615-11.669-13.083-8.054-21.146c3.616-8.063,13.085-11.667,21.146-8.054l82.88,37.16
	c6.866,3.121,22.66,12.137,22.643,29.154c-0.019,17.036-15.88,26.043-22.698,29.125l-147.951,67.468
	C282.924,357.572,269.456,359.964,255.989,359.964z"/>
</svg>
