<?xml version="1.0" encoding="iso-8859-1"?>
<!-- Generator: Adobe Illustrator 24.3.0, SVG Export Plug-In . SVG Version: 6.00 Build 0)  -->
<svg version="1.1" id="Layer_1" xmlns="http://www.w3.org/2000/svg" xmlns:xlink="http://www.w3.org/1999/xlink" x="0px" y="0px"
	 viewBox="0 0 512 512" style="enable-background:new 0 0 512 512;" xml:space="preserve">
<path d="M150.38,253.68l21.94-23.3l11.65,11c73.63,69.36,147.51,111.56,234.45,133.07c11.73-32,12.77-67.22,2.64-101.58
	c-13.44-45.59-44.74-85.31-90.49-114.86c-40.25-26-76.6-32.09-115.09-38.54c-21.12-3.54-43-7.2-66.85-14.43
	C104.85,91.76,58.94,52.3,58.48,51.91L33.4,30.15L32,63.33c-0.1,2.56-2.42,63.57,14.22,147.77c17.58,89,50.24,155.85,97.07,198.63
	c38,34.69,87.62,53.9,136.93,53.9c9.299,0.006,18.585-0.686,27.78-2.07c41.72-6.32,76.43-27.27,96-57.75
	c-89.5-23.28-165.95-67.55-242-139.16L150.38,253.68z"/>
<path d="M467.43,384.19c-16.83-2.59-33.13-5.84-49-9.77c-3.267,8.906-7.326,17.5-12.13,25.68c-0.74,1.25-1.51,2.49-2.29,3.71
	c19.299,4.998,38.841,9.003,58.55,12l15.82,2.44l4.86-31.63L467.43,384.19z"/>
</svg>
