<?xml version="1.0" encoding="iso-8859-1"?>
<!-- Generator: Adobe Illustrator 24.3.0, SVG Export Plug-In . SVG Version: 6.00 Build 0)  -->
<svg version="1.1" id="Layer_1" xmlns="http://www.w3.org/2000/svg" xmlns:xlink="http://www.w3.org/1999/xlink" x="0px" y="0px"
	 viewBox="0 0 512 512" style="enable-background:new 0 0 512 512;" xml:space="preserve">
<path d="M161.35,242c6.057-6.434,16.183-6.74,22.617-0.683c0.001,0.001,0.002,0.002,0.003,0.003
	c73.63,69.36,147.51,111.56,234.45,133.07c11.73-32,12.77-67.22,2.64-101.58c-13.44-45.59-44.74-85.31-90.49-114.86
	c-40.84-26.38-81.66-33.25-121.15-39.89c-49.82-8.38-96.88-16.3-141.79-63.85c-5-5.26-11.81-7.37-18.32-5.66
	c-7.44,2-12.43,7.88-14.82,17.6c-5.6,22.75-2,86.51,13.75,153.82c25.29,108.14,65.65,162.86,95.06,189.73
	c38,34.69,87.62,53.9,136.93,53.9c9.295,0.015,18.577-0.667,27.77-2.04c41.71-6.32,76.43-27.27,96-57.75
	c-89.49-23.28-165.94-67.55-242-139.16c-6.434-6.057-6.738-16.184-0.681-22.617C161.329,242.022,161.34,242.011,161.35,242z"/>
<path d="M467.43,384.19c-16.83-2.59-33.13-5.84-49-9.77c-3.263,8.907-7.323,17.502-12.13,25.68c-0.73,1.25-1.5,2.49-2.29,3.71
	c19.302,4.997,38.848,9.002,58.56,12c8.703,1.53,16.999-4.285,18.528-12.989c1.53-8.703-4.285-16.999-12.989-18.528
	c-0.222-0.039-0.446-0.073-0.67-0.103H467.43z"/>
</svg>
