<?xml version="1.0" encoding="iso-8859-1"?>
<!-- Generator: Adobe Illustrator 24.3.0, SVG Export Plug-In . SVG Version: 6.00 Build 0)  -->
<svg version="1.1" id="Layer_1" xmlns="http://www.w3.org/2000/svg" xmlns:xlink="http://www.w3.org/1999/xlink" x="0px" y="0px"
	 viewBox="0 0 512 512" style="enable-background:new 0 0 512 512;" xml:space="preserve">
<path d="M280.23,463.631c-49.311,0.002-98.92-19.213-136.917-53.894c-29.413-26.869-69.776-81.593-95.063-189.733
	C32.509,152.687,28.898,88.929,34.502,66.179c2.393-9.715,7.38-15.635,14.823-17.593c6.511-1.713,13.359,0.402,18.316,5.658
	c44.905,47.547,91.965,55.464,141.788,63.846c39.48,6.642,80.304,13.51,121.142,39.89l-0.001,0
	c45.755,29.551,77.047,69.268,90.492,114.858c12.926,43.825,7.683,89.021-14.764,127.263c-19.073,32.494-54.9,54.895-98.297,61.458
	C298.811,462.949,289.523,463.631,280.23,463.631z M64.026,94.85c0.002,23.666,3.231,63.97,14.221,112.804
	c18.142,80.609,48.912,143.985,86.644,178.455c19.29,17.605,42.701,30.866,67.697,38.342c23.463,7.017,47.884,8.908,70.628,5.469
	c34.305-5.188,61.112-21.531,75.484-46.018c17.921-30.532,22.065-66.76,11.669-102.011c-11.249-38.141-37.931-71.693-77.161-97.03
	l-0.001,0c-35.294-22.799-71.139-28.829-109.088-35.213C157.874,141.866,110.248,133.852,64.026,94.85z M44.368,76.206
	c0.004,0.004,0.008,0.008,0.012,0.013C44.376,76.215,44.371,76.209,44.368,76.206z"/>
<path d="M465.02,416.002c-0.809,0-1.628-0.062-2.452-0.188C346.81,398.005,254.12,351.384,162.03,264.647
	c-6.433-6.059-6.735-16.185-0.677-22.617c6.059-6.433,16.185-6.735,22.617-0.677c87.082,82.02,174.504,126.07,283.462,142.834
	c8.734,1.343,14.725,9.513,13.381,18.246C479.597,410.342,472.782,416.002,465.02,416.002z"/>
</svg>
