<?xml version="1.0" encoding="UTF-8"?>
<svg width="448px" height="448px" viewBox="0 0 448 448" version="1.1" xmlns="http://www.w3.org/2000/svg" xmlns:xlink="http://www.w3.org/1999/xlink">
    <title>Group 2</title>
    <g id="Page-1" stroke="none" stroke-width="1"  fill-rule="evenodd">
        <g id="Group-2"  fill-rule="nonzero">
            <g id="calendar-clear-outline">
                <path d="M384,448 L64,448 C28.71,448 0,419.29 0,384 L0,96 C0,60.71 28.71,32 64,32 L384,32 C419.29,32 448,60.71 448,96 L448,384 C448,419.29 419.29,448 384,448 Z M64,64 C46.355,64 32,78.355 32,96 L32,384 C32,401.645 46.355,416 64,416 L384,416 C401.645,416 416,401.645 416,384 L416,96 C416,78.355 401.645,64 384,64 L64,64 Z" id="Shape"></path>
                <path d="M96,64 C87.164,64 80,56.836 80,48 L80,16 C80,7.164 87.164,0 96,0 C104.836,0 112,7.164 112,16 L112,48 C112,56.836 104.836,64 96,64 Z" id="Path"></path>
                <path d="M352,64 C343.163,64 336,56.836 336,48 L336,16 C336,7.164 343.163,0 352,0 C360.837,0 368,7.164 368,16 L368,48 C368,56.836 360.837,64 352,64 Z" id="Path"></path>
                <path d="M432,144 L16,144 C7.164,144 0,136.836 0,128 C0,119.164 7.164,112 16,112 L432,112 C440.837,112 448,119.164 448,128 C448,136.836 440.837,144 432,144 Z" id="Path"></path>
            </g>
            <g id="reload-outline" transform="translate(110.000000, 170.000000)">
                <path d="M109.697247,0 C139.692195,0 168.622388,12.4626637 189.188016,34.1992127 L200.000687,46.7991303 C202.676646,49.9214336 203.838932,53.8358038 203.552384,57.6412203 C203.26572,61.4481897 201.529292,65.1443184 198.416242,67.8281011 C195.293737,70.5213058 191.377854,71.6882996 187.571813,71.4000129 C183.768574,71.1119385 180.073125,69.370423 177.389084,66.2388426 L167.218754,54.3721548 C152.278228,38.7782691 131.381781,29.8461538 109.813275,29.8461538 C87.6834098,29.8461538 67.7075592,38.8339165 53.2391066,53.3433734 C38.764998,67.8585025 29.7995765,87.8986618 29.7995765,110 C29.7995765,132.100907 38.7646285,152.140715 53.2370622,166.655814 C67.702041,181.163436 87.671667,190.153846 109.696681,190.153846 C126.591987,190.15248 142.607809,184.781916 155.809956,175.421583 C169.017384,166.057506 179.41062,152.699523 185.049874,136.719658 C186.421203,132.832492 189.235773,129.872227 192.674636,128.226596 C196.12001,126.57785 200.192815,126.247427 204.075715,127.626549 C207.95225,129.002505 210.907511,131.822501 212.548959,135.272877 C214.186677,138.715415 214.515445,142.784802 213.146228,146.665594 C205.40765,168.594591 191.148156,186.927635 173.023484,199.777842 C154.893656,212.631707 132.89819,220 109.697741,220 C79.4516323,220 52.0223793,207.664807 32.1564165,187.740375 C12.2979436,167.823455 0,140.324825 0,110 C0,79.6754077 12.2979619,52.1767463 32.15641,32.2597552 C52.0223129,12.3352873 79.451425,0 109.697247,0 Z" id="Path"></path>
                <path d="M221,30.9882829 L221,86.0351756 C221,90.4342477 217.434026,94 213.03468,94 L157.984358,94 C150.885266,94 147.330742,85.4228797 152.348894,80.4050403 L207.404194,25.3531696 C212.422345,20.3253742 221,23.8896331 221,30.9882829 Z" id="Path"></path>
            </g>
        </g>
    </g>
</svg>