<?xml version="1.0" encoding="iso-8859-1"?>
<!-- Generator: Adobe Illustrator 24.3.0, SVG Export Plug-In . SVG Version: 6.00 Build 0)  -->
<svg version="1.1" id="Layer_1" xmlns="http://www.w3.org/2000/svg" xmlns:xlink="http://www.w3.org/1999/xlink" x="0px" y="0px"
	 viewBox="0 0 512 512" style="enable-background:new 0 0 512 512;" xml:space="preserve">
<path d="M84,480H28c-6.627,0-12-5.373-12-12V92c0-6.627,5.373-12,12-12h56c6.627,0,12,5.373,12,12v376C96,474.627,90.627,480,84,480
	z"/>
<path d="M240,208v-52c0-6.627-5.373-12-12-12H124c-6.627,0-12,5.373-12,12v52H240z"/>
<path d="M112,416v52c0,6.627,5.373,12,12,12h104c6.627,0,12-5.373,12-12v-52H112z"/>
<rect x="112" y="240" width="128" height="144"/>
<path d="M340,480h-72c-6.627,0-12-5.373-12-12V44c0-6.627,5.373-12,12-12h72c6.627,0,12,5.373,12,12v424
	C352,474.627,346.627,480,340,480z"/>
<path d="M369,100.7l30,367.83c0.545,6.605,6.341,11.517,12.946,10.972c0.168-0.014,0.336-0.031,0.504-0.052l72.16-9
	c6.384-0.798,11.002-6.489,10.47-12.9L465,91.21c-0.55-6.605-6.35-11.513-12.954-10.963c-0.082,0.007-0.164,0.014-0.246,0.023
	l-72.13,7.51C373.198,88.479,368.463,94.212,369,100.7z"/>
</svg>
