<?xml version="1.0" encoding="iso-8859-1"?>
<!-- Generator: Adobe Illustrator 24.3.0, SVG Export Plug-In . SVG Version: 6.00 Build 0)  -->
<svg version="1.1" id="Layer_1" xmlns="http://www.w3.org/2000/svg" xmlns:xlink="http://www.w3.org/1999/xlink" x="0px" y="0px"
	 viewBox="0 0 512 512" style="enable-background:new 0 0 512 512;" xml:space="preserve">
<path d="M80,480H48c-17.645,0-32-14.355-32-32V112c0-17.645,14.355-32,32-32h32c17.645,0,32,14.355,32,32v336
	C112,465.645,97.645,480,80,480z M48,112c-0.014,0-0.02,0.001-0.02,0.001L48,448h32V112H48z"/>
<path d="M240,240H112c-8.836,0-16-7.164-16-16s7.164-16,16-16h128c8.836,0,16,7.164,16,16S248.836,240,240,240z"/>
<path d="M240,416H112c-8.836,0-16-7.163-16-16s7.164-16,16-16h128c8.836,0,16,7.163,16,16S248.836,416,240,416z"/>
<path d="M224,480h-96c-17.645,0-32-14.355-32-32V176c0-17.645,14.355-32,32-32h96c17.645,0,32,14.355,32,32v272
	C256,465.645,241.645,480,224,480z M128,176c-0.014,0-0.02,0.001-0.02,0.001L128,448h96V176H128z"/>
<path d="M336,480h-64c-17.645,0-32-14.355-32-32V64c0-17.645,14.355-32,32-32h64c17.645,0,32,14.355,32,32v384
	C368,465.645,353.645,480,336,480z M272,64c-0.014,0-0.021,0.001-0.021,0.001L272,448h64V64H272z"/>
<path d="M419.496,479.997c-18.361,0-34.275-14.203-36.352-33.209l-34.921-321.601c-1.083-9.991,1.769-19.765,8.029-27.523
	c6.071-7.523,14.642-12.217,24.133-13.215l40.4-4.25c19.824-2.083,37.818,12.72,40.112,33.004l34.879,321.614
	c1.082,9.988-1.77,19.762-8.03,27.521c-6.071,7.524-14.642,12.218-24.133,13.216l-40.4,4.25
	C421.966,479.932,420.725,479.997,419.496,479.997z M424.506,112.003c-0.124,0-0.247,0.006-0.371,0.02h-0.001l-40.4,4.25
	c-1.244,0.131-2.089,0.881-2.577,1.487c-0.511,0.632-1.335,1.99-1.119,3.976l34.919,321.587c0.297,2.718,2.604,4.898,4.924,4.653
	l40.387-4.248c1.244-0.131,2.088-0.881,2.577-1.487c0.511-0.633,1.335-1.99,1.119-3.976l-34.87-321.54
	C428.797,114.104,426.738,112.003,424.506,112.003z"/>
</svg>
