<?xml version="1.0" encoding="iso-8859-1"?>
<!-- Generator: Adobe Illustrator 24.3.0, SVG Export Plug-In . SVG Version: 6.00 Build 0)  -->
<svg version="1.1" id="Layer_1" xmlns="http://www.w3.org/2000/svg" xmlns:xlink="http://www.w3.org/1999/xlink" x="0px" y="0px"
	 viewBox="0 0 512 512" style="enable-background:new 0 0 512 512;" xml:space="preserve">
<path d="M64,480H48c-17.673,0-32-14.327-32-32V112c0-17.673,14.327-32,32-32h16c17.673,0,32,14.327,32,32v336
	C96,465.673,81.673,480,64,480z"/>
<path d="M240,176c0-17.673-14.327-32-32-32h-64c-17.673,0-32,14.327-32,32v28c0,2.209,1.791,4,4,4h120c2.209,0,4-1.791,4-4V176z"/>
<path d="M112,448c0,17.673,14.327,32,32,32h64c17.673,0,32-14.327,32-32v-30c0-1.105-0.895-2-2-2H114c-1.105,0-2,0.895-2,2V448z"/>
<path d="M114,240h124c1.105,0,2,0.895,2,2v140c0,1.105-0.895,2-2,2H114c-1.105,0-2-0.895-2-2V242C112,240.895,112.895,240,114,240z"
	/>
<path d="M320,480h-32c-17.673,0-32-14.327-32-32V64c0-17.673,14.327-32,32-32h32c17.673,0,32,14.327,32,32v384
	C352,465.673,337.673,480,320,480z"/>
<path d="M495.89,445.45l-32.23-340c-1.48-15.65-16.94-27-34.53-25.31l-31.85,3c-17.59,1.67-30.65,15.71-29.17,31.36l32.23,340
	c1.48,15.65,16.94,27,34.53,25.31l31.85-3C484.31,475.14,497.37,461.1,495.89,445.45z"/>
</svg>
