<?xml version="1.0" encoding="iso-8859-1"?>
<!-- Generator: Adobe Illustrator 24.3.0, SVG Export Plug-In . SVG Version: 6.00 Build 0)  -->
<svg version="1.1" id="Layer_1" xmlns="http://www.w3.org/2000/svg" xmlns:xlink="http://www.w3.org/1999/xlink" x="0px" y="0px"
	 viewBox="0 0 512 512" style="enable-background:new 0 0 512 512;" xml:space="preserve">
<path d="M224.66,376H144C77.832,376,24,322.168,24,256c0-66.168,53.832-120,120-120h79.41v48H144c-39.701,0-72,32.299-72,72
	C72,295.702,104.299,328,144,328h80.66V376z"/>
<path d="M368,376h-80.66v-48H368c39.701,0,72-32.299,72-72.001c0-39.701-32.299-72-72-72h-79.41v-48H368
	c66.168,0,120,53.832,120,120C488,322.168,434.168,376,368,376z"/>
<rect x="145.07" y="232" width="223.86" height="48"/>
</svg>
