<?xml version="1.0" encoding="iso-8859-1"?>
<!-- Generator: Adobe Illustrator 24.3.0, SVG Export Plug-In . SVG Version: 6.00 Build 0)  -->
<svg version="1.1" id="Layer_1" xmlns="http://www.w3.org/2000/svg" xmlns:xlink="http://www.w3.org/1999/xlink" x="0px" y="0px"
	 viewBox="0 0 512 512" style="enable-background:new 0 0 512 512;" xml:space="preserve">
<path d="M208,370h-64C81.14,370,30,318.86,30,256s51.14-114,114-114h64c9.941,0,18,8.059,18,18s-8.059,18-18,18h-64
	c-43.009,0-78,34.991-78,78S100.991,334,144,334h64c9.941,0,18,8.059,18,18S217.941,370,208,370z"/>
<path d="M368,370h-64c-9.941,0-18-8.059-18-18s8.059-18,18-18h64c43.01,0,78-34.991,78-78.001s-34.99-78-78-78h-64
	c-9.941,0-18-8.059-18-18s8.059-18,18-18h64c62.859,0,114,51.14,114,114S430.859,370,368,370z"/>
<path d="M350.71,274H163.29c-9.941,0-18-8.06-18-18.001c0-9.941,8.059-18,18-18h187.42c9.941,0,18,8.059,18,18
	C368.71,265.941,360.651,274,350.71,274z"/>
</svg>
