<?xml version="1.0" encoding="iso-8859-1"?>
<!-- Generator: Adobe Illustrator 24.3.0, SVG Export Plug-In . SVG Version: 6.00 Build 0)  -->
<svg version="1.1" id="Layer_1" xmlns="http://www.w3.org/2000/svg" xmlns:xlink="http://www.w3.org/1999/xlink" x="0px" y="0px"
	 viewBox="0 0 512 512" style="enable-background:new 0 0 512 512;" xml:space="preserve">
<path d="M200.66,376H144C77.832,376,24,322.168,24,256c0-66.168,53.832-120,120-120h55.41c13.255,0,24,10.745,24,24
	s-10.745,24-24,24H144c-39.701,0-72,32.299-72,72C72,295.702,104.299,328,144,328h56.66c13.255,0,24,10.745,24,24
	S213.915,376,200.66,376z"/>
<path d="M368,376h-56.66c-13.255,0-24-10.745-24-24s10.745-24,24-24H368c39.701,0,72-32.299,72-72.001c0-39.701-32.299-72-72-72
	h-55.41c-13.255,0-24-10.745-24-24s10.745-24,24-24H368c66.168,0,120,53.832,120,120C488,322.168,434.168,376,368,376z"/>
<path d="M344.93,280H169.07c-13.255,0-24-10.746-24-24.001c0-13.255,10.745-24,24-24h175.86c13.255,0,24,10.745,24,24
	C368.93,269.254,358.185,280,344.93,280z"/>
</svg>
