<?xml version="1.0" encoding="iso-8859-1"?>
<!-- Generator: Adobe Illustrator 24.3.0, SVG Export Plug-In . SVG Version: 6.00 Build 0)  -->
<svg version="1.1" id="Layer_1" xmlns="http://www.w3.org/2000/svg" xmlns:xlink="http://www.w3.org/1999/xlink" x="0px" y="0px"
	 viewBox="0 0 512 512" style="enable-background:new 0 0 512 512;" xml:space="preserve">
<path d="M448,168H160c-13.255,0-24-10.745-24-24s10.745-24,24-24h288c13.255,0,24,10.745,24,24S461.255,168,448,168z"/>
<path d="M448,280H160c-13.255,0-24-10.746-24-24.001c0-13.255,10.745-24,24-24h288c13.255,0,24,10.745,24,24
	C472,269.254,461.255,280,448,280z"/>
<path d="M448,392H160c-13.255,0-24-10.745-24-24s10.745-24,24-24h288c13.255,0,24,10.745,24,24S461.255,392,448,392z"/>
<path d="M80,176c-17.645,0-32-14.355-32-32s14.355-32,32-32s32,14.355,32,32S97.645,176,80,176z M80,144
	c-0.014,0-0.02,0.001-0.02,0.001L80,144z"/>
<path d="M80,288C62.355,288,48,273.645,48,256s14.355-32,32-32s32,14.355,32,32S97.645,288,80,288z M80,256
	c-0.014,0-0.02,0.001-0.02,0.001L80,256z"/>
<path d="M80,400c-17.645,0-32-14.355-32-32s14.355-32,32-32s32,14.355,32,32S97.645,400,80,400z M80,368
	c-0.014,0-0.02,0.001-0.02,0.001L80,368z"/>
</svg>
