<?xml version="1.0" encoding="iso-8859-1"?>
<!-- Generator: Adobe Illustrator 24.3.0, SVG Export Plug-In . SVG Version: 6.00 Build 0)  -->
<svg version="1.1" id="Layer_1" xmlns="http://www.w3.org/2000/svg" xmlns:xlink="http://www.w3.org/1999/xlink" x="0px" y="0px"
	 viewBox="0 0 512 512" style="enable-background:new 0 0 512 512;" xml:space="preserve">
<path d="M352,200H224c-8.836,0-16-7.164-16-16s7.164-16,16-16h128c8.837,0,16,7.164,16,16S360.837,200,352,200z"/>
<path d="M352,272H224c-8.836,0-16-7.164-16-16.001c0-8.836,7.164-16,16-16h128c8.837,0,16,7.164,16,16
	C368,264.836,360.837,272,352,272z"/>
<path d="M352,343H224c-8.836,0-16-7.163-16-16s7.164-16,16-16h128c8.837,0,16,7.163,16,16S360.837,343,352,343z"/>
<path d="M256,466c-114.691,0-208-93.309-208-208c0-114.692,93.309-208,208-208s208,93.309,208,208C464,372.692,370.691,466,256,466z
	 M256,82c-97.047,0-176,78.954-176,176s78.953,176,176,176s176-78.953,176-176S353.047,82,256,82z"/>
<path d="M168,208c-13.233,0-24-10.767-24-24s10.767-24,24-24s24,10.767,24,24S181.233,208,168,208z M168,176c-4.411,0-8,3.589-8,8
	s3.589,8,8,8s8-3.589,8-8S172.411,176,168,176z"/>
<path d="M168,281c-13.233,0-24-10.767-24-24C144,243.767,154.767,233,168,233s24,10.767,24,24.001C192,270.234,181.233,281,168,281z
	 M168,249c-4.411,0-8,3.589-8,8c0,4.411,3.589,7.999,8,7.999s8-3.588,8-7.999C176,252.589,172.411,249,168,249z"/>
<path d="M168,352c-13.233,0-24-10.767-24-24s10.767-24,24-24s24,10.767,24,24S181.233,352,168,352z M168,320c-4.411,0-8,3.589-8,8
	s3.589,8,8,8s8-3.589,8-8S172.411,320,168,320z"/>
</svg>
