<?xml version="1.0" encoding="iso-8859-1"?>
<!-- Generator: Adobe Illustrator 24.3.0, SVG Export Plug-In . SVG Version: 6.00 Build 0)  -->
<svg version="1.1" id="Layer_1" xmlns="http://www.w3.org/2000/svg" xmlns:xlink="http://www.w3.org/1999/xlink" x="0px" y="0px"
	 viewBox="0 0 512 512" style="enable-background:new 0 0 512 512;" xml:space="preserve">
<path d="M256,48C141.31,48,48,141.31,48,256s93.31,208,208,208s208-93.31,208-208S370.69,48,256,48z M192,335.5
	c0,8.837-7.163,16-16,16h-16c-8.837,0-16-7.163-16-16v-16c0-8.837,7.163-16,16-16h16c8.837,0,16,7.163,16,16V335.5z M192,264.5
	c0,8.837-7.163,16-16,16h-16c-8.837,0-16-7.163-16-16v-16c0-8.837,7.163-16,16-16h16c8.837,0,16,7.163,16,16V264.5z M192,192.5
	c0,8.837-7.163,16-16,16h-16c-8.837,0-16-7.163-16-16v-16c0-8.837,7.163-16,16-16h16c8.837,0,16,7.163,16,16V192.5z M368,343.5
	H212.67v-32H368V343.5z M368,272.5H212.67v-32H368V272.5z M368,200.5H212.67v-32H368V200.5z"/>
</svg>
