<?xml version="1.0" encoding="iso-8859-1"?>
<!-- Generator: Adobe Illustrator 24.3.0, SVG Export Plug-In . SVG Version: 6.00 Build 0)  -->
<svg version="1.1" id="Layer_1" xmlns="http://www.w3.org/2000/svg" xmlns:xlink="http://www.w3.org/1999/xlink" x="0px" y="0px"
	 viewBox="0 0 512 512" style="enable-background:new 0 0 512 512;" xml:space="preserve">
<rect x="144" y="120" width="320" height="48"/>
<rect x="144" y="232" width="320" height="48"/>
<rect x="144" y="344" width="320" height="48"/>
<path d="M96,176H64c-8.836,0-16-7.164-16-16v-32c0-8.836,7.164-16,16-16h32c8.836,0,16,7.164,16,16v32
	C112,168.836,104.836,176,96,176z"/>
<path d="M96,288H64c-8.836,0-16-7.163-16-16V240c0-8.836,7.164-16,16-16h32c8.836,0,16,7.164,16,16V272
	C112,280.837,104.836,288,96,288z"/>
<path d="M96,400H64c-8.836,0-16-7.163-16-16v-32c0-8.837,7.164-16,16-16h32c8.836,0,16,7.163,16,16v32
	C112,392.837,104.836,400,96,400z"/>
</svg>
