<?xml version="1.0" encoding="iso-8859-1"?>
<!-- Generator: Adobe Illustrator 24.3.0, SVG Export Plug-In . SVG Version: 6.00 Build 0)  -->
<svg version="1.1" id="Layer_1" xmlns="http://www.w3.org/2000/svg" xmlns:xlink="http://www.w3.org/1999/xlink" x="0px" y="0px"
	 viewBox="0 0 512 512" style="enable-background:new 0 0 512 512;" xml:space="preserve">
<path d="M256,48C141.31,48,48,141.31,48,256s93.31,208,208,208s208-93.31,208-208S370.69,48,256,48z M168,350
	c-13.255,0-24-10.745-24-24s10.745-24,24-24s24,10.745,24,24S181.255,350,168,350z M168,279c-13.255,0-24-10.745-24-24
	s10.745-24,24-24s24,10.745,24,24S181.255,279,168,279z M168,206c-13.255,0-24-10.745-24-24s10.745-24,24-24s24,10.745,24,24
	S181.255,206,168,206z M352,341H224c-8.837,0-16-7.163-16-16s7.163-16,16-16h128c8.837,0,16,7.163,16,16S360.837,341,352,341z
	 M352,270H224c-8.837,0-16-7.163-16-16s7.163-16,16-16h128c8.837,0,16,7.163,16,16S360.837,270,352,270z M352,198H224
	c-8.837,0-16-7.163-16-16s7.163-16,16-16h128c8.837,0,16,7.163,16,16S360.837,198,352,198z"/>
</svg>
