<?xml version="1.0" encoding="iso-8859-1"?>
<!-- Generator: Adobe Illustrator 24.3.0, SVG Export Plug-In . SVG Version: 6.00 Build 0)  -->
<svg version="1.1" id="Layer_1" xmlns="http://www.w3.org/2000/svg" xmlns:xlink="http://www.w3.org/1999/xlink" x="0px" y="0px"
	 viewBox="0 0 512 478" style="enable-background:new 0 0 512 478;" xml:space="preserve">
<g id="Page-1">
	<path id="Shape_1_" d="M117.545,477.307H13.06c-7.184,0-13.06-5.876-13.06-13.06V268.334c0-7.184,5.876-13.06,13.06-13.06h104.49
		c7.184,0,13.06,5.876,13.06,13.06v195.914c0,7.184-5.881,13.064-13.065,13.064V477.307z M26.121,451.184h78.365V281.391H26.121
		V451.184z"/>
	<path id="Path_7_" d="M370.939,444.689H117.557c-7.184,0-13.06-5.876-13.06-13.06s5.876-13.06,13.06-13.06h240.267
		c5.065,0,9.936-1.953,13.599-5.451l109.884-104.916c3.265-3.266,5.222-7.184,5.222-11.753c0-4.574-1.957-8.491-5.222-11.753
		c-5.88-5.225-13.717-5.225-19.593-0.651l-75.755,54.204c-1.961,1.308-4.576,2.611-7.837,2.611l-159.996-0.012
		c-5.225,0-9.794-2.611-11.752-7.184c-1.959-4.572-1.959-9.793,1.307-13.716l63.998-84.241c5.225-7.184,4.574-17.633-1.959-23.51
		c-6.532-6.532-16.978-7.184-24.161-1.307l-113.636,87.512c-5.876,4.574-13.716,3.266-18.285-1.959
		c-4.574-5.225-3.266-13.716,1.959-18.285l113.631-88.815c17.634-13.717,42.446-12.409,58.772,3.266
		c15.674,15.674,16.978,40.488,3.917,58.121l-23.689,31.918c-9.644,12.994-0.369,31.428,15.813,31.428h82.503
		c4.131,0,8.16-1.3,11.512-3.717l67.33-48.528c15.675-11.101,37.229-10.45,52.246,2.61C506.778,272.28,512,283.381,512,295.138
		c0,11.753-4.572,23.51-13.06,31.345L380.608,439.644c-0.784,0.744-1.469,1.595-2.265,2.328
		C376.378,443.784,373.657,444.689,370.939,444.689z"/>
	<path id="Path_6_" d="M385.283,235.759c-7.184,0-13.06-5.876-13.06-13.06V13.724c0-7.184,5.876-13.06,13.06-13.06
		s13.06,5.876,13.06,13.06v208.975C398.343,229.883,392.467,235.759,385.283,235.759z"/>
	<path id="Path_5_" d="M385.259,209.59c-37.875,0-60.73-22.202-61.387-23.51c-5.222-5.225-5.222-13.06,0-18.285
		c5.226-5.225,13.06-5.225,18.286,0c0.658,0.651,16.982,15.674,43.102,15.674c13.717,0,39.187-5.225,39.187-26.12
		c0-15.019-13.717-20.9-43.102-30.043c-27.431-8.491-61.387-18.941-61.387-54.86c0-34.612,32.649-52.245,65.302-52.245
		c30.042,0,52.246,15.019,52.896,15.674c5.876,3.917,7.837,12.409,3.269,18.285c-3.919,5.876-12.41,7.835-18.286,3.266
		c0,0-16.978-11.101-38.529-11.101c-13.717,0-39.187,5.225-39.187,26.12c0,15.019,13.717,20.9,43.102,30.043
		c27.431,8.491,61.387,18.936,61.387,54.855C450.565,191.955,417.912,209.59,385.259,209.59z"/>
	<path id="Path_4_" d="M65.328,398.961c-7.184,0-13.06,5.88-13.06,13.06c0,7.184,5.876,13.064,13.06,13.064
		c7.184,0,13.06-5.88,13.06-13.064C78.388,404.845,72.511,398.961,65.328,398.961z"/>
</g>
</svg>
