<?xml version="1.0" encoding="iso-8859-1"?>
<!-- Generator: Adobe Illustrator 24.3.0, SVG Export Plug-In . SVG Version: 6.00 Build 0)  -->
<svg version="1.1" id="Layer_1" xmlns="http://www.w3.org/2000/svg" xmlns:xlink="http://www.w3.org/1999/xlink" x="0px" y="0px"
	 viewBox="0 0 512 512" style="enable-background:new 0 0 512 512;" xml:space="preserve">
<path d="M256.068,479.987c-1.663,0-3.336-0.13-5.011-0.395c-8.358-1.316-15.707-5.8-20.7-12.627C189.934,412.351,96,275.648,96,185
	c0-84.364,71.776-153,160-153c88.225,0,160,68.636,160,153c0,90.718-93.936,227.377-134.359,281.968
	c-1.945,2.659-4.281,4.989-6.945,6.928C269.206,477.892,262.731,479.987,256.068,479.987z M256,64c-70.58,0-128,54.28-128,121
	c0,34.179,17.429,83.718,50.403,143.261c28.127,50.791,60.65,96.659,77.603,119.568c16.993-22.974,49.486-68.791,77.591-119.535
	C366.571,268.758,384,219.208,384,185C384,118.28,326.579,64,256,64z"/>
<path d="M256,256c-35.29,0-64-28.71-64-64s28.71-64,64-64c35.29,0,64,28.71,64,64S291.29,256,256,256z M256,160
	c-17.645,0-32,14.355-32,32s14.355,32,32,32c17.645,0,32-14.355,32-32S273.645,160,256,160z"/>
</svg>
