<?xml version="1.0" encoding="iso-8859-1"?>
<!-- Generator: Adobe Illustrator 24.3.0, SVG Export Plug-In . SVG Version: 6.00 Build 0)  -->
<svg version="1.1" id="Layer_1" xmlns="http://www.w3.org/2000/svg" xmlns:xlink="http://www.w3.org/1999/xlink" x="0px" y="0px"
	 viewBox="0 0 512 512" style="enable-background:new 0 0 512 512;" xml:space="preserve">
<rect x="232" y="32" width="48" height="88"/>
<rect x="232" y="392" width="48" height="88"/>
<path d="M256,424C163.364,424,88,348.636,88,256c0-92.636,75.364-168,168-168s168,75.364,168,168C424,348.636,348.636,424,256,424z
	 M256,136c-66.168,0-120,53.832-120,120S189.832,376,256,376c66.168,0,120-53.832,120-120.001S322.168,136,256,136z"/>
<rect x="392" y="232" width="88" height="48"/>
<rect x="32" y="232" width="88" height="48"/>
</svg>
