<?xml version="1.0" encoding="iso-8859-1"?>
<!-- Generator: Adobe Illustrator 24.3.0, SVG Export Plug-In . SVG Version: 6.00 Build 0)  -->
<svg version="1.1" id="Layer_1" xmlns="http://www.w3.org/2000/svg" xmlns:xlink="http://www.w3.org/1999/xlink" x="0px" y="0px"
	 viewBox="0 0 512 512" style="enable-background:new 0 0 512 512;" xml:space="preserve">
<circle cx="256" cy="192" r="32"/>
<path d="M256,32c-88.22,0-160,68.65-160,153c0,40.17,18.31,93.59,54.42,158.78c29,52.34,62.55,99.67,80,123.22
	c10.365,14.144,30.233,17.208,44.377,6.843c2.617-1.918,4.925-4.226,6.843-6.843c17.42-23.55,51-70.88,80-123.22
	C397.69,278.61,416,225.19,416,185C416,100.65,344.22,32,256,32z M256,256c-35.346,0-64-28.654-64-64s28.654-64,64-64
	s64,28.654,64,64C319.961,227.33,291.33,255.961,256,256z"/>
</svg>
