<?xml version="1.0" encoding="iso-8859-1"?>
<!-- Generator: Adobe Illustrator 24.3.0, SVG Export Plug-In . SVG Version: 6.00 Build 0)  -->
<svg version="1.1" id="Layer_1" xmlns="http://www.w3.org/2000/svg" xmlns:xlink="http://www.w3.org/1999/xlink" x="0px" y="0px"
	 viewBox="0 0 512 512" style="enable-background:new 0 0 512 512;" xml:space="preserve">
<path d="M256,120c-13.255,0-24-10.745-24-24V56c0-13.255,10.745-24,24-24s24,10.745,24,24v40C280,109.255,269.255,120,256,120z"/>
<path d="M256,480c-13.255,0-24-10.745-24-24v-40c0-13.255,10.745-24,24-24s24,10.745,24,24v40C280,469.255,269.255,480,256,480z"/>
<path d="M256,424C163.364,424,88,348.636,88,256c0-92.636,75.364-168,168-168s168,75.364,168,168C424,348.636,348.636,424,256,424z
	 M256,136c-66.168,0-120,53.832-120,120S189.832,376,256,376c66.168,0,120-53.832,120-120.001S322.168,136,256,136z"/>
<path d="M456,280h-40c-13.255,0-24-10.746-24-24.001c0-13.255,10.745-24,24-24h40c13.255,0,24,10.745,24,24
	C480,269.254,469.255,280,456,280z"/>
<path d="M96,280H56C42.745,280,32,269.254,32,256c0-13.255,10.745-24,24-24h40c13.255,0,24,10.745,24,24
	C120,269.254,109.255,280,96,280z"/>
</svg>
