<?xml version="1.0" encoding="iso-8859-1"?>
<!-- Generator: Adobe Illustrator 24.3.0, SVG Export Plug-In . SVG Version: 6.00 Build 0)  -->
<svg version="1.1" id="Layer_1" xmlns="http://www.w3.org/2000/svg" xmlns:xlink="http://www.w3.org/1999/xlink" x="0px" y="0px"
	 viewBox="0 0 512 512" style="enable-background:new 0 0 512 512;" xml:space="preserve">
<path d="M368,192h-16v-80c0-53.019-42.981-96-96-96s-96,42.981-96,96v80h-16c-35.33,0.039-63.961,28.67-64,64v176
	c0.039,35.33,28.67,63.961,64,64h224c35.33-0.039,63.961-28.67,64-64V256C431.961,220.67,403.33,192.039,368,192z M320,192H192v-80
	c0-35.346,28.654-64,64-64s64,28.654,64,64V192z"/>
</svg>
