<?xml version="1.0" encoding="iso-8859-1"?>
<!-- Generator: Adobe Illustrator 24.3.0, SVG Export Plug-In . SVG Version: 6.00 Build 0)  -->
<svg version="1.1" id="Layer_1" xmlns="http://www.w3.org/2000/svg" xmlns:xlink="http://www.w3.org/1999/xlink" x="0px" y="0px"
	 viewBox="0 0 512 512" style="enable-background:new 0 0 512 512;" xml:space="preserve">
<path d="M336,224c-8.837,0-16-7.164-16-16v-95c0-35.29-28.71-64-64-64c-35.29,0-64,28.71-64,64v95c0,8.836-7.164,16-16,16
	s-16-7.164-16-16v-95c0-52.935,43.065-96,96-96s96,43.065,96,96v95C352,216.836,344.837,224,336,224z"/>
<path d="M368,496H144c-35.29,0-64-28.71-64-64V256c0-35.29,28.71-64,64-64h224c35.29,0,64,28.71,64,64V432
	C432,467.29,403.29,496,368,496z M144,224c-17.645,0-32,14.355-32,32V432c0,17.645,14.355,32,32,32h224c17.645,0,32-14.355,32-32
	V256c0-17.645-14.355-32-32-32H144z"/>
</svg>
