<?xml version="1.0" encoding="iso-8859-1"?>
<!-- Generator: Adobe Illustrator 24.3.0, SVG Export Plug-In . SVG Version: 6.00 Build 0)  -->
<svg version="1.1" id="Layer_1" xmlns="http://www.w3.org/2000/svg" xmlns:xlink="http://www.w3.org/1999/xlink" x="0px" y="0px"
	 viewBox="0 0 512 512" style="enable-background:new 0 0 512 512;" xml:space="preserve">
<path d="M420,192H198v-80.75c0.043-32.077,26.081-58.045,58.157-58.003c15.338,0.02,30.046,6.107,40.913,16.933
	C307.994,81.351,314.076,96.376,314,112h38c0-53.019-42.981-96-96-96s-96,42.981-96,96v80H92c-6.627,0-12,5.373-12,12v280
	c0,6.627,5.373,12,12,12l0,0h328c6.627,0,12-5.373,12-12l0,0V204C432,197.373,426.627,192,420,192z"/>
</svg>
