<?xml version="1.0" encoding="iso-8859-1"?>
<!-- Generator: Adobe Illustrator 24.3.0, SVG Export Plug-In . SVG Version: 6.00 Build 0)  -->
<svg version="1.1" id="Layer_1" xmlns="http://www.w3.org/2000/svg" xmlns:xlink="http://www.w3.org/1999/xlink" x="0px" y="0px"
	 viewBox="0 0 512 512" style="enable-background:new 0 0 512 512;" xml:space="preserve">
<path d="M160,256c0-8.837,7.163-16,16-16h144V136c0-32-33.79-56-64-56H104c-30.914,0.033-55.967,25.086-56,56v240
	c0.033,30.914,25.086,55.967,56,56h160c30.914-0.033,55.967-25.086,56-56V272H176C167.163,272,160,264.837,160,256z"/>
<path d="M459.31,244.69l-80-80c-6.406-6.086-16.534-5.827-22.62,0.579c-5.867,6.176-5.867,15.865,0,22.04L409.37,240H320v32h89.37
	l-52.68,52.69c-6.406,6.086-6.666,16.214-0.579,22.62s16.214,6.666,22.62,0.579c0.198-0.188,0.391-0.381,0.579-0.579l80-80
	C465.553,261.063,465.553,250.938,459.31,244.69z"/>
</svg>
