<?xml version="1.0" encoding="iso-8859-1"?>
<!-- Generator: Adobe Illustrator 24.3.0, SVG Export Plug-In . SVG Version: 6.00 Build 0)  -->
<svg version="1.1" id="Layer_1" xmlns="http://www.w3.org/2000/svg" xmlns:xlink="http://www.w3.org/1999/xlink" x="0px" y="0px"
	 viewBox="0 0 512 512" style="enable-background:new 0 0 512 512;" xml:space="preserve">
<path d="M264,432H104c-30.878,0-56-25.121-56-56V136c0-30.878,25.122-56,56-56h152c14.522,0,29.887,5.512,42.151,15.122
	C312.036,106.001,320,120.9,320,136v40c0,8.836-7.163,16-16,16s-16-7.164-16-16v-40c0-11.439-16.748-24-32-24H104
	c-13.234,0-24,10.767-24,24V376c0,13.233,10.766,24,24,24h160c13.233,0,24-10.767,24-24v-40c0-8.837,7.163-16,16-16s16,7.163,16,16
	v40C320,406.879,294.879,432,264,432z"/>
<path d="M368,352c-4.095,0-8.189-1.562-11.313-4.687c-6.249-6.248-6.249-16.379,0-22.627L425.373,256l-68.687-68.687
	c-6.249-6.248-6.249-16.379,0-22.627c6.248-6.248,16.379-6.248,22.627,0l80,80c6.249,6.249,6.249,16.379,0,22.628l-80,80
	C376.189,350.438,372.095,352,368,352z"/>
<path d="M432,272H176c-8.836,0-16-7.164-16-16.001c0-8.836,7.164-16,16-16h256c8.837,0,16,7.164,16,16
	C448,264.836,440.837,272,432,272z"/>
</svg>
