<?xml version="1.0" encoding="iso-8859-1"?>
<!-- Generator: Adobe Illustrator 24.3.0, SVG Export Plug-In . SVG Version: 6.00 Build 0)  -->
<svg version="1.1" id="Layer_1" xmlns="http://www.w3.org/2000/svg" xmlns:xlink="http://www.w3.org/1999/xlink" x="0px" y="0px"
	 viewBox="0 0 512 512" style="enable-background:new 0 0 512 512;" xml:space="preserve">
<path d="M392,80H232c-30.914,0.033-55.967,25.086-56,56v104h153.37l-52.68-52.69c-6.086-6.406-5.827-16.534,0.579-22.62
	c6.176-5.867,15.865-5.867,22.04,0l80,80c6.243,6.248,6.243,16.372,0,22.62l-80,80c-6.406,6.086-16.534,5.827-22.62-0.579
	c-5.867-6.176-5.867-15.865,0-22.04L329.37,272H176v104c0,32.05,33.79,56,64,56h152c30.914-0.033,55.967-25.086,56-56V136
	C447.967,105.086,422.914,80.033,392,80z"/>
<path d="M80,240c-8.837,0-16,7.163-16,16c0,8.837,7.163,16,16,16h96v-32H80z"/>
</svg>
