<?xml version="1.0" encoding="iso-8859-1"?>
<!-- Generator: Adobe Illustrator 24.3.0, SVG Export Plug-In . SVG Version: 6.00 Build 0)  -->
<svg version="1.1" id="Layer_1" xmlns="http://www.w3.org/2000/svg" xmlns:xlink="http://www.w3.org/1999/xlink" x="0px" y="0px"
	 viewBox="0 0 512 512" style="enable-background:new 0 0 512 512;" xml:space="preserve">
<path d="M390,32H120c-49.19,0-88,38.81-88,88v270c0,49.19,38.81,90,88,90h270c49.19,0,90-40.81,90-90V120
	C480,70.81,439.19,32,390,32z M336,396h-52c-42.51,0-72-23.68-72-76v-80h-36v-48c42.51-11,57.95-48.32,60-80h44v72h52v56h-52
	l-0.39,70.51c0,21.87,11,29.43,28.62,29.43L336,340V396z"/>
</svg>
