<?xml version="1.0" encoding="iso-8859-1"?>
<!-- Generator: Adobe Illustrator 24.3.0, SVG Export Plug-In . SVG Version: 6.00 Build 0)  -->
<svg version="1.1" id="Layer_1" xmlns="http://www.w3.org/2000/svg" xmlns:xlink="http://www.w3.org/1999/xlink" x="0px" y="0px"
	 viewBox="0 0 512 512" style="enable-background:new 0 0 512 512;" xml:space="preserve">
<polygon points="295.31,122.8 222.86,64 295.54,186.64 "/>
<path d="M339.43,64v195.6h-41.6L225.6,141.28l1.94,118.32h-45.83V131.2L139.09,96c1.14,1.44,2.28,2.88,3.31,4.44
	c11.43,16.68,17.14,36.6,17.14,60.6c0,59-35,98.52-87.88,98.52H0v0.48L228.11,448H512V205.72L339.43,64z"/>
<path d="M111.89,162.52c0-34.8-16.23-54.12-45.38-54.12H44.57v106.8h21.72C96,215.2,111.89,196.72,111.89,162.52z"/>
</svg>
