<?xml version="1.0" encoding="iso-8859-1"?>
<!-- Generator: Adobe Illustrator 24.3.0, SVG Export Plug-In . SVG Version: 6.00 Build 0)  -->
<svg version="1.1" id="Layer_1" xmlns="http://www.w3.org/2000/svg" xmlns:xlink="http://www.w3.org/1999/xlink" x="0px" y="0px"
	 viewBox="0 0 512 512" style="enable-background:new 0 0 512 512;" xml:space="preserve">
<path d="M475,64H37C16.58,64,0,81.38,0,102.77v306.42C0,430.59,16.58,448,37,448h438c20.38,0,37-17.41,37-38.81V102.77
	C512,81.38,495.42,64,475,64z M288,368h-64V256l-48,64l-48-64v112H64V144h64l48,80l48-80h64V368z M384,368l-80-112h48.05L352,144h64
	v112h48L384,368z"/>
</svg>
