<?xml version="1.0" encoding="iso-8859-1"?>
<!-- Generator: Adobe Illustrator 24.3.0, SVG Export Plug-In . SVG Version: 6.00 Build 0)  -->
<svg version="1.1" id="Layer_1" xmlns="http://www.w3.org/2000/svg" xmlns:xlink="http://www.w3.org/1999/xlink" x="0px" y="0px"
	 viewBox="0 0 512 512" style="enable-background:new 0 0 512 512;" xml:space="preserve">
<path d="M467.16,303.6c3.295-14.823,4.938-29.965,4.9-45.15c0-116.32-95.69-210.7-213.79-210.7c-12.235-0.009-24.45,0.995-36.52,3
	C202.013,38.428,179.198,31.929,155.93,32C87.55,32,32,86.72,32,154.15c-0.073,21.78,5.805,43.167,17,61.85
	c-2.863,13.935-4.31,28.124-4.32,42.35c0,116.44,95.69,210.7,213.67,210.7c13.11,0.033,26.195-1.138,39.09-3.5
	c18.075,9.518,38.202,14.479,58.63,14.45C424.57,480,480,425.28,480,357.85C480.114,339.001,475.712,320.398,467.16,303.6z M368,359
	c-9.92,13.76-24.51,24.73-43.41,32.43S283.36,403,257.69,403c-30.69,0-56.36-5.37-76.55-15.87
	c-13.996-7.366-26.067-17.916-35.24-30.8c-9.11-12.83-13.66-25.66-13.66-38c0-7.7,3-14.35,8.87-19.95
	c5.84-5.37,13.42-8.17,22.29-8.17c7.35,0,13.65,2.1,18.79,6.42c4.9,4.08,9.1,10.15,12.48,18.08
	c3.276,7.595,7.413,14.789,12.33,21.44c4.213,5.48,10.167,10.03,17.86,13.65c7.82,3.62,18.2,5.48,31,5.48
	c17.62,0,32.09-3.73,42.94-11.08c10.74-7.12,15.88-15.75,15.88-26.25c0-8.28-2.69-14.82-8.29-19.95
	c-5.83-5.37-13.42-9.57-22.87-12.37c-9.69-3-22.87-6.18-39.21-9.56c-22.17-4.67-41-10.27-56-16.57
	c-15.28-6.42-27.65-15.4-36.76-26.48c-9.22-11.32-13.77-25.55-13.77-42.24c-0.157-15.425,4.947-30.444,14.47-42.58
	c9.57-12.25,23.46-21.82,41.55-28.35c17.74-6.53,38.86-9.8,62.66-9.8c19.14,0,35.83,2.22,49.83,6.42s25.91,10.15,35.36,17.38
	c9.45,7.23,16.34,14.93,20.77,23s6.66,16.22,6.66,24c0,7.46-2.92,14.35-8.76,20.3c-5.726,5.958-13.678,9.257-21.94,9.1
	c-7.93,0-14.12-1.87-18.43-5.6c-4-3.5-8.17-8.87-12.72-16.69c-5.37-9.91-11.79-17.85-19.14-23.45c-7.24-5.36-19.14-8.16-35.71-8.16
	c-15.29,0-27.77,3-37,9c-8.87,5.72-13.19,12.37-13.19,20.18c-0.11,4.475,1.427,8.834,4.32,12.25c3.52,4.049,7.854,7.31,12.72,9.57
	c5.48,2.754,11.226,4.942,17.15,6.53c6,1.64,15.87,4.09,29.53,7.12c17.38,3.62,33.25,7.82,47.26,12.13
	c14.24,4.55,26.49,10,36.52,16.45c9.962,6.289,18.251,14.898,24.16,25.09c5.72,10,8.64,22.63,8.64,37.1
	C383.125,328.697,378.019,345.342,368,359z"/>
</svg>
