<?xml version="1.0" encoding="iso-8859-1"?>
<!-- Generator: Adobe Illustrator 24.3.0, SVG Export Plug-In . SVG Version: 6.00 Build 0)  -->
<svg version="1.1" id="Layer_1" xmlns="http://www.w3.org/2000/svg" xmlns:xlink="http://www.w3.org/1999/xlink" x="0px" y="0px"
	 viewBox="0 0 512 512" style="enable-background:new 0 0 512 512;" xml:space="preserve">
<polygon points="330.7,352 408.42,160 356.9,160 303.74,284.07 265.93,160 226.32,160 185.74,284.07 157.11,227.54 131.21,307 
	157.51,352 208.21,352 244.89,240.73 279.89,352 "/>
<path d="M48.79,286.09h31.65c8.647,0.121,17.27-0.959,25.62-3.21l8.18-25.19l22.88-70.39c-1.765-2.779-3.773-5.396-6-7.82
	C119.4,166.493,102.223,160,79.59,160H0v192h48.79V286.09z M90.69,204.17c4.593,4.613,6.887,10.787,6.88,18.52s-2.007,13.91-6,18.53
	c-4.427,5.08-12.573,7.617-24.44,7.61H48.79v-51.58h18.42C78.27,197.25,86.097,199.557,90.69,204.17z M376.85,317.61l14.79-37.25
	h42.69l-20.26-56.51L439.41,160L512,352h-53.53l-12.4-34.39H376.85z"/>
</svg>
