<?xml version="1.0" encoding="iso-8859-1"?>
<!-- Generator: Adobe Illustrator 24.3.0, SVG Export Plug-In . SVG Version: 6.00 Build 0)  -->
<svg version="1.1" id="Layer_1" xmlns="http://www.w3.org/2000/svg" xmlns:xlink="http://www.w3.org/1999/xlink" x="0px" y="0px"
	 viewBox="0 0 512 512" style="enable-background:new 0 0 512 512;" xml:space="preserve">
<path d="M444.17,32H70.28C49.85,32,32,46.7,32,66.89V441.6c0,20.31,17.85,38.4,38.28,38.4h373.78c20.54,0,35.94-18.2,35.94-38.39
	V66.89C480.12,46.7,464.6,32,444.17,32z M278,387H174.32l-41.57-248.56l90.75-8.62l22,176.87c20.53-33.45,45.88-86,45.88-121.87
	c0-19.62-3.36-33-8.61-44l82.63-16.72c9.56,15.78,13.86,32,13.86,52.57C379.25,242.17,323.34,327.26,278,387z"/>
</svg>
