<?xml version="1.0" encoding="iso-8859-1"?>
<!-- Generator: Adobe Illustrator 24.3.0, SVG Export Plug-In . SVG Version: 6.00 Build 0)  -->
<svg version="1.1" id="Layer_1" xmlns="http://www.w3.org/2000/svg" xmlns:xlink="http://www.w3.org/1999/xlink" x="0px" y="0px"
	 viewBox="0 0 512 512" style="enable-background:new 0 0 512 512;" xml:space="preserve">
<path d="M256,32C132.26,32,32,132.26,32,256s100.26,224,224,224s224-100.26,224-224S379.74,32,256,32z M171,353.89
	c-2.798,4.772-7.929,7.688-13.46,7.65c-2.77,0.024-5.492-0.724-7.86-2.16c-7.397-4.287-9.919-13.758-5.632-21.155
	c0.011-0.018,0.021-0.037,0.032-0.055l15.29-25.42c1.572-2.67,4.442-4.306,7.54-4.3h2.26c11.09,0,18.85,6.67,21.11,13.13L171,353.89
	z M300.45,303.89L200.32,304h-66.55c-8.538,0.036-15.489-6.856-15.525-15.394c-0.001-0.252,0.004-0.504,0.015-0.756
	c0.32-8.4,7.65-14.76,16-14.76h48.24l57.19-97.35l0,0l-18.52-31.55C217,137,218.85,127.52,226,123
	c7.221-4.67,16.86-2.602,21.529,4.619c0.117,0.181,0.231,0.365,0.341,0.551l9.9,16.91h0.11l9.91-16.91
	c4.388-7.401,13.946-9.844,21.347-5.455c0.156,0.092,0.31,0.188,0.463,0.285c7.11,4.52,8.94,14,4.74,21.22l-18.52,31.55l-18,30.69
	l-39.09,66.66v0.11h57.61c7.22,0,16.27,3.88,19.93,10.12l0.32,0.65c3.23,5.49,5.06,9.26,5.06,14.75
	c-0.053,1.783-0.45,3.538-1.17,5.17L300.45,303.89z M378.2,304h-27.11v0.11l19.82,33.71c4.434,7.386,2.135,16.963-5.17,21.53
	c-2.434,1.484-5.229,2.269-8.08,2.27c-5.513-0.002-10.621-2.894-13.46-7.62l-29.29-49.86l-18.2-31L273.23,233
	c-6.919-11.661-7.166-26.109-0.65-38c4.64-8.19,8.19-10.34,8.19-10.34L333,273h44.91c8.4,0,15.61,6.46,16,14.75
	c0.331,8.637-6.402,15.907-15.038,16.239c-0.214,0.008-0.428,0.012-0.642,0.011H378.2z"/>
</svg>
