<?xml version="1.0" encoding="iso-8859-1"?>
<!-- Generator: Adobe Illustrator 24.3.0, SVG Export Plug-In . SVG Version: 6.00 Build 0)  -->
<svg version="1.1" id="Layer_1" xmlns="http://www.w3.org/2000/svg" xmlns:xlink="http://www.w3.org/1999/xlink" x="0px" y="0px"
	 viewBox="0 0 512 512" style="enable-background:new 0 0 512 512;" xml:space="preserve">
<path d="M505.57,234.62c-3.28-3.53-26.82-32.29-39.51-47.79c-6.75-8.24-12.08-14.75-14.32-17.45l-0.18-0.22l-0.2-0.21
	c-5.22-5.83-12.64-12.51-23.78-12.51c-1.811,0.023-3.619,0.17-5.41,0.44c-0.37,0.05-0.75,0.11-1.15,0.15
	c-2.45,0.27-10.06,1.5-28.14,4.48c-14,2.29-35.11,5.77-38.31,6.07l-0.71,0.06l-0.69,0.13c-10,1.78-16.62,6.22-19.56,13.19
	c-1.55,3.68-3.22,11.15,2.94,19.86c1.53,2.22,6.83,9.56,15.94,22.17c6.06,8.4,12.87,17.82,18.75,26L259.9,275L150.66,96.05
	l-0.2-0.34l-0.23-0.33l-0.44-0.65C145.32,88.17,139.76,80,123.7,80l0,0c-1.13,0-2.31,0-3.63,0.11c-4.6,0.25-21.42,1.57-40.89,3.11
	c-21.49,1.69-50.9,4-54.72,4.1h-0.73l-0.79,0.08c-9.14,0.89-15.77,4.6-19.7,11c-6.55,10.69-1.42,22.69,0.26,26.63
	C6.87,133,37.56,197.7,64.63,254.81c18,37.94,36.58,77.17,38.1,80.65c5.471,13.306,18.556,21.882,32.94,21.59
	c3.316-0.015,6.622-0.384,9.86-1.1h0.21l0.2-0.05c13.86-3.38,57.83-14.54,89.2-22.59c1.9,3.32,3.9,6.83,6,10.44
	c21.93,38.5,37.9,66.35,43.16,73.46C287,421,295,432,310.06,432c5.46,0,10.46-1.4,15.74-2.89l1.53-0.43h0.06h0.06
	c10.53-3,150.69-52.16,157.87-55.35l0.22-0.1c5.44-2.41,13.66-6.05,16.18-15.4c1.65-6.12,0.18-12.33-4.38-18.46l-0.07-0.09
	l-0.07-0.09c-0.85-1.1-4-5.21-8.27-10.9c-9.13-12.07-23.88-31.57-36.84-48.54c17.37-4.5,38.8-10.11,43.38-11.55
	c11.47-3.43,14.94-10.69,16-14.73C512.26,250.32,513.29,242.27,505.57,234.62z M185.57,292.81c-17.81,4.17-30.22,7.08-37.89,8.9
	c-6.67-13.34-19.74-39.65-32.5-65.33c-29.74-59.92-45.1-90.77-53.18-106.9l8.15-0.7c13.34-1.15,31.61-2.72,41.78-3.57
	c16.76,28.26,74.32,125.3,96.3,162.3L185.57,292.81z M427.58,172L427.58,172z M310.06,416.4L310.06,416.4z M363.73,359.45
	c-24.21,8-37.33,12.37-44.42,14.74c-6.3-10.34-20.16-33.52-32.47-54.19l115.7-29.48c5,6.81,14.57,19.72,33.46,44.93
	C417.93,341.49,387.8,351.47,363.73,359.45L363.73,359.45z M419.6,237.82l-23.76-31.53c13.67-2.39,21.54-3.77,26.15-4.6l12,14.88
	l11.94,14.82C437.73,233.38,428.19,235.71,419.6,237.82z"/>
</svg>
