<?xml version="1.0" encoding="iso-8859-1"?>
<!-- Generator: Adobe Illustrator 24.3.0, SVG Export Plug-In . SVG Version: 6.00 Build 0)  -->
<svg version="1.1" id="Layer_1" xmlns="http://www.w3.org/2000/svg" xmlns:xlink="http://www.w3.org/1999/xlink" x="0px" y="0px"
	 viewBox="0 0 512 512" style="enable-background:new 0 0 512 512;" xml:space="preserve">
<path d="M468.41,269.19c-2.64-33.39-11.76-58-31.44-57.39c-0.552,0.005-0.996,0.457-0.991,1.009
	c0.001,0.124,0.025,0.246,0.071,0.361c5.11,12.59,9.68,36.9,9.17,58.07c0.022,0.552-0.408,1.018-0.96,1.04
	c-0.552,0.022-1.018-0.408-1.04-0.96c-2.19-21.21-7.1-41.19-16.22-59.43c-46.006-92.273-158.103-129.78-250.376-83.775
	c-49.799,24.829-85.926,70.577-98.534,124.775c-0.353,1.629-1.68,2.869-3.33,3.11l-8.65,1.22c-17.2,2.4-26.9,34.9-21.7,72.5
	s23.5,66.2,40.7,63.8l13.24-1.85c1.558-0.212,3.095,0.508,3.93,1.84c55.317,87.024,170.707,112.727,257.731,57.41
	c40.742-25.898,69.869-66.569,81.269-113.48c0.406-1.73,1.905-2.985,3.68-3.08l4.4-0.24C464.51,331.59,471.11,302.89,468.41,269.19z
	 M94.5,270.42c-0.276-0.478-0.113-1.09,0.365-1.366c0.4-0.231,0.906-0.158,1.225,0.176c9.63,10,20.25,27.65,23.32,49.86
	c3.24,23.05-2.24,45.2-9.13,57.87c-0.275,0.479-0.886,0.645-1.365,0.37c-0.385-0.221-0.578-0.668-0.475-1.1
	c4.07-14.44,5.16-33.83,2.27-54.74C107.91,301.17,102,283.22,94.5,270.42z M273.27,380.21c-7.909-0.014-14.544-5.969-15.41-13.83
	c-0.911-8.501,5.241-16.131,13.742-17.042c8.501-0.911,16.131,5.241,17.042,13.742c0.911,8.501-5.241,16.131-13.742,17.042
	C274.36,380.18,273.815,380.209,273.27,380.21z M355.11,375.49c-8.479,0.412-15.686-6.127-16.098-14.605s6.127-15.686,14.605-16.098
	c8.439-0.41,15.627,6.068,16.093,14.504C370.147,367.793,363.613,375.043,355.11,375.49z"/>
<path d="M165.51,70L165.51,70c0.057,0.052,0.093,0.123,0.1,0.2l0,0c0.1,0.2,0.2,0.3,0.3,0.5v0.1c0.465,1.119,1.269,2.063,2.3,2.7
	c2,1.5,5,2.4,8.6,3c3.942,0.538,7.926,0.705,11.9,0.5c0.969-0.017,1.937-0.084,2.9-0.2c-0.4-0.4-0.8-0.9-1.2-1.3h-1.3
	c-3.888,0.135-7.779-0.167-11.6-0.9c-3.026-0.466-5.902-1.63-8.4-3.4c-0.515-0.415-0.985-0.885-1.4-1.4c-0.2-0.754-0.2-1.546,0-2.3
	c0.5-2.3,2.4-4.8,5.5-7.4c3.357-2.738,7.014-5.087,10.9-7c0.9-0.4,1.7-0.9,2.6-1.3c0.1-0.1,0.3-0.1,0.5-0.2
	c-0.819,3.445-0.887,7.026-0.2,10.5c2.3,11.9,11.6,20.3,23.2,20.6l4,24.3l12.7-3l-4-23.3c10.8-4.6,16.3-16.1,14-28
	c-0.65-3.396-1.977-6.627-3.9-9.5c-5.3-0.8-15.6-0.8-29.2,2.1c1.1-0.3,2.1-0.7,3.2-1c7.041-1.979,14.232-3.384,21.5-4.2
	c0.6-0.1,1.2-0.1,1.8-0.2l3.5-0.3h0.6c3.602-0.215,7.216-0.115,10.8,0.3c2.078,0.245,4.123,0.715,6.1,1.4
	c-0.611,0.954-0.924,2.068-0.9,3.2c0.019,2.663,1.757,5.008,4.3,5.8l0,0c-0.635,0.98-1.337,1.916-2.1,2.8
	c-0.893,1.007-1.862,1.943-2.9,2.8c-1.1,0.9-2.3,1.8-3.5,2.7l-6.5,3.8l-0.3,1.5c0.076-0.011,0.146-0.046,0.2-0.1l8.4-4.7
	c1.2-0.8,2.4-1.6,3.4-2.4c1.133-0.854,2.203-1.79,3.2-2.8c0.857-0.883,1.658-1.818,2.4-2.8l0.3-0.6c3.046-0.369,5.352-2.932,5.4-6
	c0.022-3.347-2.673-6.078-6.02-6.1c-0.027,0-0.053,0-0.08,0c-0.973,0.031-1.927,0.269-2.8,0.7c-2.553-1.376-5.329-2.29-8.2-2.7
	c-5.123-0.833-10.328-1.034-15.5-0.6c-0.704,0.017-1.406,0.084-2.1,0.2c-0.661,0.116-1.329,0.183-2,0.2
	c-5.506-3.639-12.223-4.968-18.7-3.7c-7.575,1.461-14.103,6.228-17.8,13c-1.3,0.5-2.6,1.1-3.8,1.7c-0.7,0.3-1.3,0.6-2,0.9
	c-5.028,2.382-9.705,5.444-13.9,9.1c-3.1,2.9-4.9,5.7-5.3,8.3c-0.227,1.374,0.02,2.785,0.7,4
	C165.332,69.653,165.433,69.821,165.51,70z"/>
</svg>
