<?xml version="1.0" encoding="iso-8859-1"?>
<!-- Generator: Adobe Illustrator 24.3.0, SVG Export Plug-In . SVG Version: 6.00 Build 0)  -->
<svg version="1.1" id="Layer_1" xmlns="http://www.w3.org/2000/svg" xmlns:xlink="http://www.w3.org/1999/xlink" x="0px" y="0px"
	 viewBox="0 0 512 512" style="enable-background:new 0 0 512 512;" xml:space="preserve">
<path d="M231.8,272v-48H376l8-48H231.8v-8.12c0-38.69,16.47-62.56,87.18-62.56c28.89,0,61.45,2.69,102.5,9.42l10.52-70
	c-38.226-8.725-77.332-13-116.54-12.74C189.26,32,135,76.4,135,158.46V176H80v48h55v48H80v48h55v33.54
	C135,435.6,189.23,480,315.43,480c39.176,0.246,78.25-4.042,116.44-12.78l-10.58-70c-41.05,6.73-73.46,9.42-102.35,9.42
	c-70.7,0-87.14-20.18-87.14-67.94V320h128.47l7.87-48H231.8z"/>
</svg>
