<?xml version="1.0" encoding="iso-8859-1"?>
<!-- Generator: Adobe Illustrator 24.3.0, SVG Export Plug-In . SVG Version: 6.00 Build 0)  -->
<svg version="1.1" id="Layer_1" xmlns="http://www.w3.org/2000/svg" xmlns:xlink="http://www.w3.org/1999/xlink" x="0px" y="0px"
	 viewBox="0 0 512 512" style="enable-background:new 0 0 512 512;" xml:space="preserve">
<path d="M256,153.9c-56.388,0-102.1,45.712-102.1,102.1S199.612,358.1,256,358.1S358.1,312.388,358.1,256
	C358.028,199.641,312.359,153.972,256,153.9z"/>
<circle cx="402.59" cy="116.45" r="46.52"/>
<path d="M459.86,163.2l-1.95-4.28l-3.11,3.52c-7.62,8.653-17.258,15.289-28.06,19.32l-3,1.1l1.22,2.93
	c9.297,22.238,14.07,46.106,14.04,70.21c0,100.92-82.1,183-183,183S73,356.92,73,256S155.08,73,256,73
	c27.14-0.057,53.945,5.993,78.43,17.7l2.87,1.3l1.25-2.92c4.559-10.586,11.654-19.887,20.66-27.08l3.67-2.93L358.71,57
	C326.991,40.504,291.752,31.926,256,32C132.49,32,32,132.49,32,256s100.49,224,224,224s224-100.49,224-224
	C480.053,223.977,473.182,192.321,459.86,163.2z"/>
</svg>
