<?xml version="1.0" encoding="iso-8859-1"?>
<!-- Generator: Adobe Illustrator 24.3.0, SVG Export Plug-In . SVG Version: 6.00 Build 0)  -->
<svg version="1.1" id="Layer_1" xmlns="http://www.w3.org/2000/svg" xmlns:xlink="http://www.w3.org/1999/xlink" x="0px" y="0px"
	 viewBox="0 0 512 512" style="enable-background:new 0 0 512 512;" xml:space="preserve">
<path d="M471.46,194.62v-0.07c-0.22-0.76-0.45-1.52-0.68-2.28c-0.05-0.19-0.11-0.38-0.17-0.56c-0.43-1.44-0.87-2.88-1.33-4.31
	l-0.06-0.2c-2.806-8.717-6.146-17.253-10-25.56c-3.734-8.227-8.045-16.18-12.9-23.8c-18.754-30.127-44.364-55.394-74.74-73.74l0,0
	C336.71,43.04,296.736,31.938,256,32c-7,0-14,0.34-20.82,1c-24.12,2.54-64.78,11.21-97.77,40.18C257.5,11.86,417.94,85.7,404.29,223
	c-4.86,49-46.46,82.67-85.19,88.35c-6.889,1.053-13.892,1.123-20.8,0.21c-94.59-13.15-88.8-90.68-60.06-123.83
	c-38-0.24-67.47,46.79-53.15,93l0,0c-32.95-61.18,0.35-157,70.93-186c-82.95-12-160.71,28.2-185.7,98.07
	c2.984-25.539,8.941-50.643,17.75-74.8c0,0-45.22,35.74-54.44,110.9c-0.14,1.16-0.27,2.32-0.39,3.49c-0.05,0.4-0.09,0.8-0.13,1.21
	c-0.353,3.5-0.62,7.023-0.8,10.57c0,0.27,0,0.54,0,0.81c-0.07,1.48-0.13,3-0.17,4.46v1.25c0,1.76-0.07,3.52-0.07,5.29
	c0,123.71,100.29,224,224,224S480,379.71,480,256C480.011,235.243,477.137,214.586,471.46,194.62z"/>
</svg>
