<?xml version="1.0" encoding="iso-8859-1"?>
<!-- Generator: Adobe Illustrator 24.3.0, SVG Export Plug-In . SVG Version: 6.00 Build 0)  -->
<svg version="1.1" id="Layer_1" xmlns="http://www.w3.org/2000/svg" xmlns:xlink="http://www.w3.org/1999/xlink" x="0px" y="0px"
	 viewBox="0 0 512 512" style="enable-background:new 0 0 512 512;" xml:space="preserve">
<path d="M496,109.5c-18.005,7.824-37.056,12.978-56.55,15.3c20.487-11.996,35.893-31.054,43.33-53.6
	c-19.369,11.326-40.524,19.273-62.56,23.5c-18.752-19.653-44.746-30.75-71.91-30.7c-54.42,0-98.46,43.4-98.46,96.9
	c-0.039,7.442,0.814,14.861,2.54,22.1c-78.906-3.699-152.601-40.474-203-101.3C40.646,96.441,36.021,113.26,36,130.4
	c0,33.6,17.53,63.3,44,80.7c-15.683-0.372-31.044-4.523-44.78-12.1v1.2c0,47,34,86.1,79,95c-8.462,2.256-17.182,3.399-25.94,3.4
	c-6.214,0.011-12.414-0.592-18.51-1.8c12.51,38.5,48.92,66.5,92.05,67.3c-35.046,27.009-78.074,41.607-122.32,41.5
	c-7.854-0.012-15.7-0.479-23.5-1.4c45.012,28.742,97.334,43.945,150.74,43.8c181.36,0,280.44-147.7,280.44-275.8
	c0-4.2-0.11-8.4-0.31-12.5C466.101,146.021,482.738,129.021,496,109.5z"/>
</svg>
