<?xml version="1.0" encoding="iso-8859-1"?>
<!-- Generator: Adobe Illustrator 24.3.0, SVG Export Plug-In . SVG Version: 6.00 Build 0)  -->
<svg version="1.1" id="Layer_1" xmlns="http://www.w3.org/2000/svg" xmlns:xlink="http://www.w3.org/1999/xlink" x="0px" y="0px"
	 viewBox="0 0 512 512" style="enable-background:new 0 0 512 512;" xml:space="preserve">
<path d="M349.33,69.33c51.486,0.154,93.186,41.854,93.34,93.34v186.66c-0.154,51.486-41.854,93.186-93.34,93.34H162.67
	c-51.486-0.154-93.186-41.854-93.34-93.34V162.67c0.154-51.486,41.854-93.186,93.34-93.34H349.33 M349.33,32H162.67
	C90.8,32,32,90.8,32,162.67v186.66C32,421.2,90.8,480,162.67,480h186.66C421.2,480,480,421.2,480,349.33V162.67
	C480,90.8,421.2,32,349.33,32z"/>
<path d="M377.33,162.67c-15.464,0-28-12.536-28-28s12.536-28,28-28s28,12.536,28,28c0.033,15.431-12.449,27.967-27.88,28
	C377.41,162.67,377.37,162.67,377.33,162.67z"/>
<path d="M256,181.33c41.239,0,74.67,33.431,74.67,74.67s-33.431,74.67-74.67,74.67s-74.67-33.431-74.67-74.67
	C181.374,214.779,214.779,181.374,256,181.33 M256,144c-61.856,0-112,50.144-112,112s50.144,112,112,112s112-50.144,112-112
	S317.856,144,256,144z"/>
</svg>
