<?xml version="1.0" encoding="iso-8859-1"?>
<!-- Generator: Adobe Illustrator 24.3.0, SVG Export Plug-In . SVG Version: 6.00 Build 0)  -->
<svg version="1.1" id="Layer_1" xmlns="http://www.w3.org/2000/svg" xmlns:xlink="http://www.w3.org/1999/xlink" x="0px" y="0px"
	 viewBox="0 0 512 512" style="enable-background:new 0 0 512 512;" xml:space="preserve">
<path d="M410.66,180.72L410.66,180.72c-5.113-1.747-10.263-3.373-15.45-4.88c0.86-3.5,1.653-7.02,2.38-10.56
	c11.7-56.9,4.05-102.74-22.06-117.83c-25-14.48-66,0.61-107.36,36.69c-4.067,3.56-8.05,7.227-11.95,11c-2.6-2.507-5.267-4.96-8-7.36
	c-43.35-38.58-86.8-54.83-112.88-39.69c-25,14.51-32.43,57.6-21.9,111.53c1.053,5.333,2.237,10.643,3.55,15.93
	c-6.15,1.75-12.09,3.62-17.77,5.6C48.46,198.9,16,226.73,16,255.59c0,29.82,34.84,59.72,87.77,77.85c4.293,1.46,8.627,2.817,13,4.07
	c-1.42,5.66-2.677,11.383-3.77,17.17c-10,53-2.2,95.07,22.75,109.49c25.77,14.89,69-0.41,111.14-37.31
	c3.333-2.92,6.667-6.003,10-9.25c4.213,4.073,8.547,8.027,13,11.86c40.8,35.18,81.09,49.39,106,34.93
	c25.75-14.94,34.12-60.14,23.25-115.13c-0.833-4.2-1.793-8.487-2.88-12.86c3.04-0.9,6.017-1.83,8.93-2.79
	c55-18.27,90.83-47.81,90.83-78C496,226.62,462.5,198.61,410.66,180.72z M281.66,99.64c35.43-30.91,68.55-43.11,83.65-34.39l0,0
	c16.07,9.29,22.32,46.75,12.22,95.88c-0.667,3.2-1.387,6.39-2.16,9.57c-21.144-4.809-42.585-8.203-64.18-10.16
	c-12.365-17.811-25.919-34.767-40.57-50.75c3.587-3.48,7.26-6.863,11.02-10.15H281.66z M157.73,280.25
	c4.34,8.4,8.877,16.697,13.61,24.89c4.82,8.36,9.843,16.597,15.07,24.71c-14.859-1.616-29.626-3.995-44.24-7.13
	C146.41,309,151.63,294.75,157.73,280.25z M157.73,231.92c-6-14.19-11.08-28.15-15.25-41.63c13.7-3.07,28.3-5.58,43.52-7.48
	c-5.1,7.96-10.007,16.037-14.72,24.23s-9.24,16.487-13.58,24.88H157.73z M168.63,256.09c6.32-13.18,13.127-26.107,20.42-38.78l0,0
	c7.287-12.667,15.043-25.043,23.27-37.13c14.28-1.08,28.92-1.65,43.71-1.65s29.52,0.57,43.79,1.66c8.14,12.06,15.85,24.393,23.13,37
	s14.177,25.473,20.69,38.6c-6.427,13.227-13.307,26.207-20.64,38.94l0,0c-7.273,12.667-14.94,25.08-23,37.24
	c-14.25,1-29,1.55-44,1.55s-29.47-0.47-43.46-1.38c-8.287-12.127-16.107-24.557-23.46-37.29s-14.18-25.653-20.48-38.76H168.63z
	 M340.75,305c4.833-8.387,9.473-16.883,13.92-25.49l0,0c6.096,13.821,11.476,27.946,16.12,42.32
	c-14.786,3.33-29.737,5.883-44.79,7.65C331.08,321.42,335.997,313.26,340.75,305z M354.47,231.93c-4.427-8.433-9.03-16.767-13.81-25
	l0,0c-4.667-8.12-9.53-16.14-14.59-24.06c15.31,1.94,30,4.52,43.77,7.67C365.413,204.585,360.283,218.399,354.47,231.93z
	 M256.23,124.48L256.23,124.48c9.985,10.911,19.414,22.319,28.25,34.18c-18.9-0.9-37.813-0.9-56.74,0
	C237.07,146.32,246.62,134.87,256.23,124.48z M145.66,65.86c16.06-9.32,51.57,4,89,37.27c2.39,2.13,4.8,4.36,7.2,6.67
	c-14.726,15.981-28.376,32.922-40.86,50.71c-21.548,1.941-42.946,5.282-64.06,10c-1.22-4.907-2.32-9.847-3.3-14.82l0,0
	C124.59,109.46,130.58,74.61,145.66,65.86z M122.25,317.71c-4-1.14-7.95-2.377-11.85-3.71c-23.4-8-42.73-18.44-56-29.81
	c-11.88-10.19-17.9-20.36-17.9-28.6c0-17.51,26.06-39.85,69.52-55c5.46-1.9,10.967-3.637,16.52-5.21
	c6.454,20.743,14.271,41.037,23.4,60.75C136.703,276.116,128.789,296.687,122.25,317.71z M233.38,411.38
	c-18.63,16.32-37.29,27.89-53.74,33.72l0,0c-14.78,5.23-26.55,5.38-33.66,1.27c-15.14-8.75-21.44-42.54-12.85-87.86
	c1.02-5.333,2.187-10.667,3.5-16c21.325,4.594,42.939,7.731,64.69,9.39c12.606,17.881,26.368,34.917,41.2,51
	C239.54,405.83,236.49,408.65,233.38,411.38z M256.8,388.16c-9.72-10.51-19.42-22.14-28.88-34.64c9.193,0.36,18.553,0.54,28.08,0.54
	c9.78,0,19.46-0.21,29-0.64C276.196,365.472,266.784,377.067,256.8,388.16L256.8,388.16z M381.32,416.75
	c-2.86,15.44-8.61,25.74-15.72,29.86c-15.13,8.78-47.48-2.63-82.36-32.72c-4-3.44-8-7.13-12.07-11
	c14.543-16.145,27.983-33.251,40.23-51.2c21.872-1.853,43.59-5.211,65-10.05c0.98,3.96,1.847,7.84,2.6,11.64l0,0
	C383.81,377.58,384.5,399.56,381.32,416.75z M398.72,314.11L398.72,314.11c-2.62,0.87-5.32,1.71-8.06,2.53
	c-6.713-20.841-14.836-41.201-24.31-60.94c9.119-19.476,16.923-39.541,23.36-60.06c4.91,1.43,9.68,2.93,14.27,4.52
	c44.42,15.32,71.52,38,71.52,55.43C475.5,274.19,446.23,298.33,398.72,314.11z"/>
<path d="M256,298.55c23.748,0.077,43.062-19.112,43.14-42.86s-19.112-43.062-42.86-43.14s-43.062,19.112-43.14,42.86
	c0,0.047,0,0.093,0,0.14c-0.05,23.699,19.121,42.95,42.82,43C255.973,298.55,255.987,298.55,256,298.55z"/>
</svg>
