<?xml version="1.0" encoding="iso-8859-1"?>
<!-- Generator: Adobe Illustrator 24.3.0, SVG Export Plug-In . SVG Version: 6.00 Build 0)  -->
<svg version="1.1" id="Layer_1" xmlns="http://www.w3.org/2000/svg" xmlns:xlink="http://www.w3.org/1999/xlink" x="0px" y="0px"
	 viewBox="0 0 512 512" style="enable-background:new 0 0 512 512;" xml:space="preserve">
<path id="XMLID_501_-1" d="M408.67,298.53c-11.598,0.055-21.045-9.302-21.1-20.9s9.302-21.045,20.9-21.1
	c11.598-0.055,21.045,9.302,21.1,20.9c0,0.033,0,0.066,0,0.1c0.083,11.515-9.185,20.917-20.699,21
	C408.804,298.53,408.737,298.53,408.67,298.53 M306.5,298.53c-11.598,0.055-21.045-9.302-21.1-20.9s9.302-21.045,20.9-21.1
	c11.598-0.055,21.045,9.302,21.1,20.9c0,0.033,0,0.066,0,0.1c0.088,11.509-9.17,20.911-20.679,20.999
	C306.647,298.53,306.574,298.53,306.5,298.53 M458.59,417.39C491.1,394.08,512,359.13,512,319.51c0-71.08-68.5-129.35-154.41-129.35
	s-154.42,58.27-154.42,129.35s68.5,129.34,154.42,129.34c17.41,0,34.83-2.33,49.92-7c2.49-0.86,3.48-1.17,4.64-1.17
	c2.866,0.068,5.666,0.874,8.13,2.34L454,462.83c1.091,0.572,2.265,0.967,3.48,1.17c2.498-0.17,4.486-2.161,4.65-4.66
	c-0.077-1.316-0.336-2.615-0.77-3.86c-0.41-1.46-5-16-7.36-25.27c-0.216-1.144-0.327-2.306-0.33-3.47
	c0.028-3.749,1.897-7.245,5-9.35"/>
<path id="XMLID_505_-7" d="M246.13,178.51c-13.514,0-24.47-10.956-24.47-24.47s10.956-24.47,24.47-24.47
	c12.77,0,24.38,11.65,24.38,24.47C271.67,166.86,260.06,178.51,246.13,178.51 M123.07,178.51c-13.514,0.05-24.51-10.866-24.56-24.38
	c-0.05-13.514,10.866-24.51,24.38-24.56s24.51,10.866,24.56,24.38c0,0.017,0,0.033,0,0.05c-0.054,13.457-10.924,24.366-24.38,24.47
	 M184.6,48C82.43,48,0,116.75,0,203c0,46.61,24.38,88.56,63.85,116.53C67.34,321.84,68,327,68,329
	c0.084,1.526-0.141,3.053-0.66,4.49C63.85,345.14,59.4,364,59.21,365s-1.16,3.5-1.16,4.66c-0.193,3.026,2.104,5.635,5.129,5.828
	c0.223,0.014,0.447,0.015,0.671,0.002c1.246-0.079,2.449-0.482,3.49-1.17L108,351c3.49-2.33,5.81-2.33,9.29-2.33
	c1.991,0.029,3.96,0.422,5.81,1.16c18.57,5.83,39.47,8.16,60.37,8.16h10.45c-3.807-12.464-5.764-25.418-5.81-38.45
	c0-78.08,75.47-141,168.35-141h10.45C354.1,105.1,277.48,48,184.6,48"/>
</svg>
