<?xml version="1.0" encoding="iso-8859-1"?>
<!-- Generator: Adobe Illustrator 24.3.0, SVG Export Plug-In . SVG Version: 6.00 Build 0)  -->
<svg version="1.1" id="Layer_1" xmlns="http://www.w3.org/2000/svg" xmlns:xlink="http://www.w3.org/1999/xlink" x="0px" y="0px"
	 viewBox="0 0 512 512" style="enable-background:new 0 0 512 512;" xml:space="preserve">
<path d="M32,32v448h448V32H32z M272,380c0,43.61-25.76,64.87-63.05,64.87c-33.68,0-53.23-17.44-63.15-38.49l0,0l34.28-20.75
	c6.61,11.73,11.63,21.65,26.06,21.65c12,0,21.86-5.41,21.86-26.46V240h44V380z M371.35,443.87c-39.09,0-64.35-17.64-76.68-42l0,0
	L329,382c9,14.74,20.75,24.56,41.5,24.56c17.44,0,27.57-7.72,27.57-19.75c0-14.43-10.43-19.54-29.68-28l-10.52-4.52
	c-30.38-12.92-50.52-29.16-50.52-63.45c0-31.57,24.05-54.63,61.64-54.63c26.77,0,46,8.32,59.85,32.68L396,290
	c-7.22-12.93-15-18-27.06-18c-12.33,0-20.15,7.82-20.15,18c0,12.63,7.82,17.74,25.86,25.56l10.52,4.51
	c35.79,15.34,55.94,31,55.94,66.16C441.12,424.13,411.35,443.87,371.35,443.87z"/>
</svg>
