<?xml version="1.0" encoding="iso-8859-1"?>
<!-- Generator: Adobe Illustrator 24.3.0, SVG Export Plug-In . SVG Version: 6.00 Build 0)  -->
<svg version="1.1" id="Layer_1" xmlns="http://www.w3.org/2000/svg" xmlns:xlink="http://www.w3.org/1999/xlink" x="0px" y="0px"
	 viewBox="0 0 512 512" style="enable-background:new 0 0 512 512;" xml:space="preserve">
<path d="M256,32C132.33,32,32,132.33,32,256s100.33,224,224,224s224-100.22,224-224S379.67,32,256,32z M398.22,135.25
	c25.918,30.468,41.345,68.467,44,108.38c-40.37-2.1-88.67-2.1-127.4,1.52c-4.9-12.37-9.92-24.5-15.4-36.17
	C344.08,189.62,378.5,164.18,398.22,135.25z M256,69.33c43.509-0.075,85.665,15.121,119.12,42.94c-20.3,25.66-52.15,48-91.82,64.86
	C261.6,137,236.63,102.47,210,75.28C225.028,71.401,240.48,69.402,256,69.33z M171.53,89.75c26.95,26.83,52.27,61,74.44,101
	C203.85,203.62,155.55,211,104,211c-9.8,0-19.36-0.35-28.81-0.94C88.488,157.959,123.596,114.116,171.53,89.75z M69.68,247.13
	c10.62,0.47,21.35,0.7,32.2,0.59c58.8-0.7,113.52-9.92,160.54-25c4.433,9.22,8.633,18.67,12.6,28.35
	c-5.681,1.244-11.261,2.915-16.69,5c-64.28,27-114.91,70.51-142.33,123.13C85.934,345.203,69.335,301.385,69.33,256
	C69.33,253,69.45,250.05,69.68,247.13z M256,442.67c-41.472,0.05-81.765-13.793-114.45-39.32c24.85-49.23,69.18-90,125.07-115.27
	c5.25-2.45,12.25-4.43,20.3-6.18c6.667,18.427,12.617,37.56,17.85,57.4c7.816,29.944,13.573,60.389,17.23,91.12
	C300.931,438.493,278.563,442.644,256,442.67z M356.92,412.92c-3.65-31.05-9.461-61.808-17.39-92.05
	c-4-15.17-8.51-29.87-13.41-44.22c36.63-3,80.5-2.57,115.38,0C435.275,332.496,404.202,382.558,356.92,412.92L356.92,412.92z"/>
</svg>
