<?xml version="1.0" encoding="iso-8859-1"?>
<!-- Generator: Adobe Illustrator 24.3.0, SVG Export Plug-In . SVG Version: 6.00 Build 0)  -->
<svg version="1.1" id="Layer_1" xmlns="http://www.w3.org/2000/svg" xmlns:xlink="http://www.w3.org/1999/xlink" x="0px" y="0px"
	 viewBox="0 0 512 512" style="enable-background:new 0 0 512 512;" xml:space="preserve">
<polygon points="392,440 392,320 432,320 432,480 64,480 64,320 104,320 104,440 "/>
<path d="M149.1,308.77l198.57,40.87l8.4-39.32L157.5,269.45L149.1,308.77z M175.37,215.65L359.22,300L376,263.76l-183.82-84.84
	L175.37,215.65z M226.32,126.65l156,127.78l25.74-30.52l-156-127.78L226.32,126.65z M328,32l-33.39,23.8l120.82,160.37L448,192
	L328,32z M144,400h204v-40H144V400z"/>
</svg>
