<?xml version="1.0" encoding="iso-8859-1"?>
<!-- Generator: Adobe Illustrator 24.3.0, SVG Export Plug-In . SVG Version: 6.00 Build 0)  -->
<svg version="1.1" id="Layer_1" xmlns="http://www.w3.org/2000/svg" xmlns:xlink="http://www.w3.org/1999/xlink" x="0px" y="0px"
	 viewBox="0 0 512 512" style="enable-background:new 0 0 512 512;" xml:space="preserve">
<path d="M483.13,32.23c-0.841-0.132-1.689-0.208-2.54-0.23h-449C23,31.88,16.12,38.88,16,47.75c-0.039,0.939,0.039,1.88,0.23,2.8
	l65.3,411.25c0.817,4.979,3.282,9.539,7,12.95l0,0c3.678,3.368,8.482,5.241,13.47,5.25h313.18c7.757,0.012,14.321-5.73,15.34-13.42
	l38.88-247.91H325.19l-18.46,112H205.21l-25.73-148h295.58l20.76-132C497.09,41.92,491.44,33.63,483.13,32.23z"/>
</svg>
