<?xml version="1.0" encoding="iso-8859-1"?>
<!-- Generator: Adobe Illustrator 24.3.0, SVG Export Plug-In . SVG Version: 6.00 Build 0)  -->
<svg version="1.1" id="Layer_1" xmlns="http://www.w3.org/2000/svg" xmlns:xlink="http://www.w3.org/1999/xlink" x="0px" y="0px"
	 viewBox="0 0 512 512" style="enable-background:new 0 0 512 512;" xml:space="preserve">
<path d="M476.9,114c-5-23.39-17.51-38.78-40.61-46.27s-64.92-4.5-94.12,16.79c-26.79,19.51-46.26,54.42-54,78.28
	c-0.676,2.103,0.48,4.356,2.583,5.033c0.83,0.267,1.724,0.255,2.547-0.033c10.77-3.8,21.72-7.1,34-6.45c15,0.8,24.51,12,24.91,25.29
	c0.3,9.79-0.2,18.69-3.6,27.68C337.87,243,321,270.78,301.06,295.07c-3.005,3.613-6.354,6.925-10,9.89
	c-10.21,8.29-18.81,6.1-25.41-5.2c-5.4-9.29-9-18.88-12.2-29.08c-12.4-39.67-16.81-80.84-23.81-121.52c-3.3-19.48-7-39.77-18-56.86
	c-11.6-17.79-28.61-24.58-50-22c-14.7,1.8-36.91,17.49-47.81,26.39c0,0-56,46.87-81.82,71.35l21.2,27c0,0,17.91-12.49,27.51-18.29
	c5.7-3.39,12.4-4.09,17.2,0.2c4.51,3.9,9.61,9,12.31,14.1c5.7,10.69,11.2,21.88,14.7,33.37c13.2,44.27,25.51,88.64,37.81,133.22
	c6.3,22.78,13.9,44.17,28,63.55c19.31,26.59,39.61,32.68,70.92,21.49c25.41-9.09,46.61-26.18,66-43.87
	c33.11-30.18,59.12-65.36,85.52-101.14c20.41-27.67,37.31-55.67,51.41-86.95C478.5,179.74,484,147.26,476.9,114z"/>
</svg>
