<?xml version="1.0" encoding="iso-8859-1"?>
<!-- Generator: Adobe Illustrator 24.3.0, SVG Export Plug-In . SVG Version: 6.00 Build 0)  -->
<svg version="1.1" id="Layer_1" xmlns="http://www.w3.org/2000/svg" xmlns:xlink="http://www.w3.org/1999/xlink" x="0px" y="0px"
	 viewBox="0 0 512 512" style="enable-background:new 0 0 512 512;" xml:space="preserve">
<path d="M126.8,248.3c39.7-58.6,77.9-92.8,77.9-92.8s-42.1-48.9-92.8-67.4l-3.3-0.8C20.138,164.649,6.435,297.188,77.2,391
	C77.2,386.6,77.8,320.7,126.8,248.3z"/>
<path d="M480,256c0.047-64.661-27.886-126.179-76.6-168.7l-3.2,0.9c-50.7,18.5-92.9,67.4-92.9,67.4s38.2,34.2,77.9,92.8
	c49,72.4,49.6,138.3,49.5,142.7C464.182,352.24,480.096,304.778,480,256z"/>
<path d="M201.2,80.9c29.3,13.1,54.6,34.6,54.6,34.6s25.5-21.4,54.8-34.6c36.8-16.5,64.9-11.3,72.3-9.5
	c-76.445-52.533-177.355-52.533-253.8,0C136.3,69.6,164.3,64.3,201.2,80.9z"/>
<path d="M358.7,292.9C312.4,236,255.8,199,255.8,199s-56.3,37-102.7,93.9c-39.8,48.9-54.6,84.8-62.6,107.8l-1.3,4.8
	c82.573,92.121,224.191,99.861,316.312,17.288c6.073-5.444,11.845-11.215,17.288-17.288l-1.4-4.8
	C413.4,377.7,398.5,341.8,358.7,292.9z"/>
</svg>
