<?xml version="1.0" encoding="iso-8859-1"?>
<!-- Generator: Adobe Illustrator 24.3.0, SVG Export Plug-In . SVG Version: 6.00 Build 0)  -->
<svg version="1.1" id="Layer_1" xmlns="http://www.w3.org/2000/svg" xmlns:xlink="http://www.w3.org/1999/xlink" x="0px" y="0px"
	 viewBox="0 0 512 512" style="enable-background:new 0 0 512 512;" xml:space="preserve">
<path d="M507,211.16c-1.42-1.19-14.25-10.94-41.79-10.94c-7.243,0.042-14.471,0.677-21.61,1.9c-5.22-36.4-35.38-54-36.57-55
	l-7.36-4.28l-4.75,6.9c-5.989,9.367-10.401,19.654-13.06,30.45c-5,20.7-1.9,40.2,8.55,56.85c-12.59,7.14-33,8.8-37.28,9H15.94
	C7.142,246.034,0.005,253.162,0,261.96c0,0.037,0,0.074,0,0.11c-0.453,29.603,4.547,59.037,14.75,86.83
	C26.39,379.35,43.72,402,66,415.74C91.22,431.2,132.3,440,178.6,440c20.947,0.001,41.85-1.911,62.45-5.71
	c28.718-5.208,56.342-15.261,81.69-29.73c20.867-12.124,39.633-27.547,55.57-45.67c26.83-30.21,42.74-64,54.38-94h4.75
	c29.21,0,47.26-11.66,57.23-21.65c6.618-6.272,11.803-13.899,15.2-22.36l2.14-6.18L507,211.16z"/>
<path d="M47.29,236.37H92.4c2.209,0,4-1.791,4-4l0,0v-40.48c0-2.209-1.791-4-4-4H47.29c-2.209,0-4,1.791-4,4l0,0v40.44
	c0.082,2.174,1.826,3.918,4,4l0,0"/>
<path d="M109.5,236.37h45.12c2.209,0,4-1.791,4-4l0,0v-40.48c0-2.209-1.791-4-4-4H109.5c-2.209,0-4,1.791-4,4v40.44
	c0.082,2.174,1.826,3.918,4,4"/>
<path d="M172.9,236.37H218c2.209,0,4-1.791,4-4l0,0v-40.48c0-2.209-1.791-4-4-4h-45.1c-2.209,0-4,1.791-4,4l0,0v40.44
	c-0.073,2.136,1.599,3.927,3.735,4c0.088,0.003,0.176,0.003,0.265,0l0,0"/>
<path d="M235.36,236.37h45.12c2.209,0,4-1.791,4-4v-40.48c0-2.209-1.791-4-4-4h-45.12c-2.209,0-4,1.791-4,4l0,0v40.44
	c0,2.209,1.791,4,4,4l0,0"/>
<path d="M109.5,178.57h45.12c2.174-0.082,3.918-1.826,4-4v-40.48c0-2.209-1.791-4-4-4H109.5c-2.209,0-4,1.791-4,4v40.44
	c0.162,2.139,1.862,3.838,4,4"/>
<path d="M172.9,178.57H218c2.174-0.082,3.918-1.826,4-4v-40.48c0-2.209-1.791-4-4-4h-45.1c-2.209,0-4,1.791-4,4l0,0v40.44
	c0,2.209,1.791,4,4,4"/>
<path d="M235.36,178.57h45.12c2.174-0.082,3.918-1.826,4-4v-40.48c-0.082-2.174-1.826-3.918-4-4h-45.12c-2.209,0-4,1.791-4,4l0,0
	v40.44c0.082,2.174,1.826,3.918,4,4"/>
<path d="M235.36,120.53h45.12c2.209,0,4-1.791,4-4V76c-0.082-2.174-1.826-3.918-4-4h-45.12c-2.209,0-4,1.791-4,4l0,0v40.44
	c0.087,2.172,1.828,3.913,4,4"/>
<path d="M298.28,236.37h45.12c2.209,0,4-1.791,4-4v-40.48c0-2.209-1.791-4-4-4h-45.12c-2.209,0-4,1.791-4,4l0,0v40.44
	c0.082,2.174,1.826,3.918,4,4"/>
</svg>
