<?xml version="1.0" encoding="iso-8859-1"?>
<!-- Generator: Adobe Illustrator 24.3.0, SVG Export Plug-In . SVG Version: 6.00 Build 0)  -->
<svg version="1.1" id="Layer_1" xmlns="http://www.w3.org/2000/svg" xmlns:xlink="http://www.w3.org/1999/xlink" x="0px" y="0px"
	 viewBox="0 0 512 512" style="enable-background:new 0 0 512 512;" xml:space="preserve">
<polygon style="fill:none;" points="179.9,388 179.9,388 103.74,256 "/>
<polygon style="fill:none;" points="179.9,388 332.11,388 408.26,256 332.11,124 179.9,124 103.74,256 "/>
<polygon style="fill:none;" points="103.74,256 179.9,124 179.9,124 "/>
<polygon points="496,256 376,48 239.74,48 195.9,124 332.11,124 408.26,256 332.11,388 195.9,388 239.74,464 376,464 "/>
<polygon points="179.9,388 103.74,256 179.9,124 179.9,124 223.74,48 136,48 16,256 136,464 223.74,464 179.9,388 "/>
</svg>
