<?xml version="1.0" encoding="iso-8859-1"?>
<!-- Generator: Adobe Illustrator 24.3.0, SVG Export Plug-In . SVG Version: 6.00 Build 0)  -->
<svg version="1.1" id="Layer_1" xmlns="http://www.w3.org/2000/svg" xmlns:xlink="http://www.w3.org/1999/xlink" x="0px" y="0px"
	 viewBox="0 0 512 512" style="enable-background:new 0 0 512 512;" xml:space="preserve">
<path d="M108.56,342.78c-33.325,0.122-60.241,27.235-60.12,60.56s27.235,60.241,60.56,60.12c33.2-0.121,60.065-27.039,60.12-60.239
	C169.015,369.837,141.944,342.818,108.56,342.78z"/>
<path d="M48,186.67v86.55c52,0,101.94,15.39,138.67,52.11s52,86.56,52,138.67h86.66C325.33,312.44,199.67,186.67,48,186.67z"/>
<path d="M48,48v86.56c185.25,0,329.22,144.08,329.22,329.44H464C464,234.66,277.67,48,48,48z"/>
</svg>
