<?xml version="1.0" encoding="iso-8859-1"?>
<!-- Generator: Adobe Illustrator 24.3.0, SVG Export Plug-In . SVG Version: 6.00 Build 0)  -->
<svg version="1.1" id="Layer_1" xmlns="http://www.w3.org/2000/svg" xmlns:xlink="http://www.w3.org/1999/xlink" x="0px" y="0px"
	 viewBox="0 0 512 512" style="enable-background:new 0 0 512 512;" xml:space="preserve">
<path d="M188.8,255.93c-0.011,37.114,30.066,67.209,67.18,67.22s67.209-30.066,67.22-67.18s-30.066-67.209-67.18-67.22
	c-0.007,0-0.013,0-0.02,0C218.935,188.849,188.91,218.865,188.8,255.93z"/>
<path d="M476.75,217.79c0,0,0,0,0,0.05c-1.639-9.769-3.978-19.407-7-28.84h-0.11c3.068,9.479,5.431,19.172,7.07,29l0,0
	c-1.644-9.827-4.007-19.519-7.07-29h-155.4c19.05,17,31.36,40.17,31.36,67.05c0.044,15.752-4.213,31.218-12.31,44.73L231,478.45
	c0.005,0.09,0.005,0.18,0,0.27V479l0,0v-0.26c8.303,0.886,16.65,1.306,25,1.26c6.84,0,13.61-0.39,20.3-1
	c10.022-0.906,19.972-2.49,29.78-4.74C405.68,451.52,480,362.4,480,255.94C480.001,243.154,478.914,230.391,476.75,217.79z"/>
<path d="M256,345.5c-33.6,0-61.6-17.91-77.29-44.79L76,123.05l-0.14-0.24c-73.501,99.51-52.416,239.763,47.095,313.264
	c25.154,18.579,53.92,31.686,84.445,38.476v-0.05l77.69-134.6C275.801,343.473,265.952,345.369,256,345.5z"/>
<path d="M91.29,104.57l77.35,133.25c8.28-41.702,44.844-71.762,87.36-71.82h205.17c-7.053-15.498-15.692-30.223-25.78-43.94
	l0.12,0.08c10.049,13.692,18.648,28.391,25.66,43.86h0.17c-7.007-15.515-15.607-30.261-25.66-44c-0.124-0.077-0.241-0.164-0.35-0.26
	C361.253,22.707,220.919,2.476,121.886,76.554C110.8,84.845,100.508,94.147,91.14,104.34l0.14,0.24L91.29,104.57z"/>
</svg>
