<?xml version="1.0" encoding="iso-8859-1"?>
<!-- Generator: Adobe Illustrator 24.3.0, SVG Export Plug-In . SVG Version: 6.00 Build 0)  -->
<svg version="1.1" id="Layer_1" xmlns="http://www.w3.org/2000/svg" xmlns:xlink="http://www.w3.org/1999/xlink" x="0px" y="0px"
	 viewBox="0 0 512 512" style="enable-background:new 0 0 512 512;" xml:space="preserve">
<path d="M126.12,315.1c-0.022,25.991-21.109,47.042-47.1,47.02S31.978,341.011,32,315.02C32.022,289.045,53.085,268,79.06,268h47.06
	L126.12,315.1z"/>
<path d="M149.84,315.1c0.011-25.991,21.09-47.051,47.081-47.039c25.974,0.011,47.028,21.065,47.039,47.039v117.84
	c0.011,25.991-21.049,47.069-47.039,47.081c-25.991,0.011-47.069-21.049-47.081-47.039c0-0.014,0-0.028,0-0.041V315.1z"/>
<path d="M196.9,126.12c-25.991-0.022-47.042-21.109-47.02-47.1c0.022-25.991,21.109-47.042,47.1-47.02
	C222.955,32.022,244,53.085,244,79.06v47.06L196.9,126.12z"/>
<path d="M196.9,149.84c25.991,0.011,47.051,21.09,47.039,47.081c-0.011,25.974-21.065,47.028-47.039,47.039H79.06
	c-25.991-0.011-47.051-21.09-47.039-47.081c0.011-25.974,21.065-47.028,47.039-47.039H196.9z"/>
<path d="M385.88,196.9c0.022-25.991,21.109-47.042,47.1-47.02c25.991,0.022,47.042,21.109,47.02,47.1
	c-0.022,25.975-21.085,47.02-47.06,47.02h-47.06V196.9z"/>
<path d="M362.16,196.9c-0.011,25.991-21.09,47.051-47.081,47.039c-25.974-0.011-47.028-21.065-47.039-47.039V79.06
	c-0.011-25.991,21.049-47.069,47.039-47.081c25.991-0.011,47.069,21.049,47.081,47.039c0,0.014,0,0.028,0,0.041V196.9z"/>
<path d="M315.1,385.88c25.991,0.022,47.042,21.109,47.02,47.1c-0.022,25.991-21.109,47.042-47.1,47.02
	c-25.975-0.022-47.02-21.085-47.02-47.06v-47.06H315.1z"/>
<path d="M315.1,362.16c-25.991-0.011-47.051-21.09-47.039-47.081c0.011-25.974,21.065-47.028,47.039-47.039h117.84
	c25.991-0.011,47.069,21.049,47.081,47.039c0.011,25.991-21.049,47.069-47.039,47.081c-0.014,0-0.028,0-0.041,0H315.1z"/>
</svg>
