<?xml version="1.0" encoding="iso-8859-1"?>
<!-- Generator: Adobe Illustrator 24.3.0, SVG Export Plug-In . SVG Version: 6.00 Build 0)  -->
<svg version="1.1" id="Layer_1" xmlns="http://www.w3.org/2000/svg" xmlns:xlink="http://www.w3.org/1999/xlink" x="0px" y="0px"
	 viewBox="0 0 512 512" style="enable-background:new 0 0 512 512;" xml:space="preserve">
<path d="M313.8,303.9L469,32H365L209.4,303.8c-0.402,0.496-0.402,1.204,0,1.7l98.9,173.8c0.4,0.7,0.8,0.7,1.6,0.7H413l-99.3-174.7
	C313.535,304.84,313.572,304.332,313.8,303.9z"/>
<path d="M221.9,216.2L163,113c-0.401-0.71-1.192-1.105-2-1H65l58.9,104.4c0.131,0.245,0.166,0.53,0.1,0.8L43,352h96.8
	c0.673,0.085,1.323-0.28,1.6-0.9l80.5-133.7C222.001,217.005,222.008,216.593,221.9,216.2z"/>
</svg>
