<?xml version="1.0" encoding="iso-8859-1"?>
<!-- Generator: Adobe Illustrator 24.3.0, SVG Export Plug-In . SVG Version: 6.00 Build 0)  -->
<svg version="1.1" id="Layer_1" xmlns="http://www.w3.org/2000/svg" xmlns:xlink="http://www.w3.org/1999/xlink" x="0px" y="0px"
	 viewBox="0 0 512 512" style="enable-background:new 0 0 512 512;" xml:space="preserve">
<path d="M424.81,148.79c-0.43,2.76-0.93,5.58-1.49,8.48c-19.17,98-84.76,131.8-168.54,131.8h-42.65
	c-10.196-0.025-18.887,7.388-20.47,17.46l-21.84,137.84l-6.18,39.07c-0.932,5.925,3.116,11.484,9.041,12.415
	c0.01,0.002,0.019,0.003,0.029,0.005c0.562,0.088,1.131,0.132,1.7,0.13h75.65c8.938,0.027,16.569-6.447,18-15.27l0.74-3.83l14.24-90
	l0.91-4.94c1.41-8.839,9.049-15.333,18-15.3h11.31c73.3,0,130.67-29.62,147.44-115.32c7-35.8,3.38-65.69-15.16-86.72
	C439.646,158.123,432.622,152.763,424.81,148.79z"/>
<path d="M385.52,51.09C363.84,26.52,324.71,16,274.63,16H129.25c-10.216-0.024-18.93,7.391-20.54,17.48l-60.55,382
	c-1.068,6.781,3.563,13.145,10.344,14.213c0.015,0.002,0.03,0.005,0.046,0.007c0.642,0.1,1.29,0.15,1.94,0.15h89.76l22.54-142.29
	l-0.7,4.46c1.583-10.072,10.274-17.485,20.47-17.46h42.65c83.77,0,149.36-33.86,168.54-131.8c0.57-2.9,1.05-5.72,1.49-8.48l0,0
	C410.94,98.06,405.19,73.41,385.52,51.09z"/>
</svg>
