<?xml version="1.0" encoding="iso-8859-1"?>
<!-- Generator: Adobe Illustrator 24.3.0, SVG Export Plug-In . SVG Version: 6.00 Build 0)  -->
<svg version="1.1" id="Layer_1" xmlns="http://www.w3.org/2000/svg" xmlns:xlink="http://www.w3.org/1999/xlink" x="0px" y="0px"
	 viewBox="0 0 512 512" style="enable-background:new 0 0 512 512;" xml:space="preserve">
<path d="M172.86,290.12c-9.75,0-18.11,4.56-24.86,13.87s-10.07,20.58-10.07,34s3.43,24.91,10.07,34.12S163,386,172.86,386
	c9.1,0,17-4.66,23.68-13.87s10.07-20.58,10.07-34.12s-3.43-24.81-10.07-34S182,290.12,172.86,290.12z"/>
<path d="M340.32,290.12c-9.64,0-18.11,4.56-24.86,13.87s-10.07,20.58-10.07,34s3.43,24.91,10.07,34.12S330.57,386,340.32,386
	c9.11,0,17-4.66,23.79-13.87s10.07-20.58,10.07-34.12s-3.43-24.81-10.07-34S349.54,290.12,340.32,290.12z"/>
<path d="M459.36,165L459.36,165c-0.11,0,2.89-15.49,0.32-42.47c-2.36-27-8-51.78-17.25-74.53c0,0-4.72,0.87-13.72,3.14
	S405,58,384.89,67.18c-19.82,9.2-40.71,21.44-62.46,36.29c-14.79-4.23-36.86-6.39-66.43-6.39c-28.18,0-50.25,2.16-66.43,6.39
	C141.79,69.99,101.753,51.5,69.46,48c-9.207,22.753-14.92,47.67-17.14,74.75c-2.57,27,0.43,42.58,0.43,42.58
	C26.71,193.82,16,234.88,16,268.78c0,26.22,0.75,49.94,6.54,71c6,20.91,13.6,38,22.6,51.14c9.312,13.288,20.752,24.947,33.86,34.51
	c13.39,10.08,25.71,17.34,36.86,21.89c11.25,4.76,24,8.23,38.57,10.72c10.798,2.089,21.711,3.538,32.68,4.34c0,0,30,1.62,69,1.62
	s68.89-1.62,68.89-1.62c10.969-0.829,21.88-2.291,32.68-4.38c13.18-2.127,26.08-5.723,38.46-10.72c11.15-4.66,23.47-11.81,37-21.89
	c13.102-9.549,24.511-21.227,33.75-34.55c9-13.11,16.6-30.23,22.6-51.14s6.51-44.81,6.51-71.03C496,235.85,485.29,194.25,459.36,165
	z M389.29,418.07C359.39,432.26,315.46,438,257.18,438h-2.25c-58.29,0-102.22-5.63-131.57-19.93s-44.25-43.45-44.25-87.43
	c0-26.32,9.21-47.66,27.32-64c7.93-7,17.57-11.92,29.57-14.84s22.93-3,33.21-2.71c10.08,0.43,24.22,2.38,42.11,3.79
	s31.39,3.25,44.79,3.25c12.53,0,29.14-2.17,55.82-4.33s46.61-3.25,59.46-1.09c13.18,2.17,24.65,6.72,34.4,15.93
	c18.96,17.113,28.46,38.447,28.5,64C434.18,374.62,419.07,403.88,389.29,418.07z"/>
</svg>
