<?xml version="1.0" encoding="iso-8859-1"?>
<!-- Generator: Adobe Illustrator 24.3.0, SVG Export Plug-In . SVG Version: 6.00 Build 0)  -->
<svg version="1.1" id="Layer_1" xmlns="http://www.w3.org/2000/svg" xmlns:xlink="http://www.w3.org/1999/xlink" x="0px" y="0px"
	 viewBox="0 0 512 512" style="enable-background:new 0 0 512 512;" xml:space="preserve">
<path d="M48,59.49v393c0.007,2.391,1.952,4.324,4.343,4.317c1.133-0.004,2.22-0.451,3.027-1.247L260,256L55.37,56.42
	c-1.703-1.679-4.444-1.66-6.123,0.043C48.451,57.27,48.003,58.357,48,59.49z"/>
<path d="M345.8,174L89.22,32.64l-0.16-0.09c-4.42-2.4-8.62,3.58-5,7.06l201.13,192.32L345.8,174z"/>
<path d="M84.08,472.39c-3.64,3.48,0.56,9.46,5,7.06l0.16-0.09L345.8,338l-60.61-57.95L84.08,472.39z"/>
<path d="M449.38,231l-71.65-39.46L310.36,256l67.37,64.43L449.38,281C468.87,270.23,468.87,241.77,449.38,231z"/>
</svg>
