<?xml version="1.0" encoding="iso-8859-1"?>
<!-- Generator: Adobe Illustrator 24.3.0, SVG Export Plug-In . SVG Version: 6.00 Build 0)  -->
<svg version="1.1" id="Layer_1" xmlns="http://www.w3.org/2000/svg" xmlns:xlink="http://www.w3.org/1999/xlink" x="0px" y="0px"
	 viewBox="0 0 512 512" style="enable-background:new 0 0 512 512;" xml:space="preserve">
<circle cx="324" cy="292" r="36"/>
<circle cx="188.003" cy="291.998" r="36"/>
<path d="M496,253.77c0-31.19-25.14-56.56-56-56.56c-13.007-0.001-25.605,4.548-35.61,12.86c-35-23.77-80.78-38.32-129.65-41.27
	l22-79l66.41,13.2c1.9,26.48,24,47.49,50.65,47.49c28,0,50.78-23,50.78-51.21S441,48,413,48c-19.53,0-36.31,11.19-44.85,28.77
	l-90-17.89l-31.1,109.52l-4.63,0.13c-50.63,2.21-98.34,16.93-134.77,41.53c-10.003-8.342-22.625-12.892-35.65-12.85
	c-30.89,0-56,25.37-56,56.56c-0.09,20.207,10.632,38.919,28.11,49.06c-0.598,4.421-0.895,8.878-0.89,13.34
	c0.11,39.74,22.49,77,63,105C146.36,448.77,199.51,464,256,464s109.76-15.23,149.83-42.89c40.53-28,62.85-65.27,62.85-105.06
	c-0.009-4.446-0.29-8.888-0.84-13.3C485.329,292.653,496.074,273.965,496,253.77z M414,75c13.255,0,24,10.745,24,24
	s-10.745,24-24,24s-24-10.745-24-24S400.745,75,414,75z M42.72,253.77c-0.061-16.32,13.1-29.611,29.42-29.71
	c4.752,0.01,9.43,1.188,13.62,3.43c-15.5,14.41-26.93,30.41-34.07,47.68C45.972,269.514,42.744,261.813,42.72,253.77z M390.82,399
	c-35.74,24.59-83.6,38.14-134.77,38.14S157,423.61,121.29,399c-33-22.79-51.24-52.26-51.24-83c0.018-9.315,1.695-18.552,4.95-27.28
	c5.68-15.74,16.16-30.48,31.15-43.79c4.683-4.137,9.612-7.987,14.76-11.53l0.3-0.21l0,0l0.24-0.17c35.72-24.52,83.52-38,134.61-38
	s98.9,13.51,134.62,38l0.23,0.17l0.34,0.25c5.141,3.53,10.066,7.363,14.75,11.48c15,13.32,25.48,28.05,31.16,43.81
	c2.061,5.72,3.506,11.643,4.31,17.67c0.401,3.201,0.602,6.424,0.6,9.65C442.06,346.77,423.86,376.24,390.82,399z M460.42,275.08
	c-7.13-17.28-18.56-33.29-34.07-47.72c4.207-2.219,8.894-3.373,13.65-3.36c16.319,0.099,29.476,13.391,29.41,29.71
	c-0.014,8.046-3.252,15.75-8.99,21.39V275.08z"/>
<path d="M323.23,362.22c-0.25,0.25-25.56,26.07-67.15,26.27c-42-0.2-66.28-25.23-67.31-26.27l0,0c-1.614-1.6-4.216-1.6-5.83,0
	l-13.7,13.47c-1.626,1.615-1.636,4.242-0.021,5.869c0.007,0.007,0.014,0.014,0.021,0.021l0,0c3.4,3.4,34.7,34.23,86.78,34.45
	c51.94-0.22,83.38-31.05,86.78-34.45l0,0c1.629-1.62,1.637-4.254,0.017-5.883c-0.006-0.006-0.011-0.011-0.017-0.017l-13.71-13.47
	c-1.609-1.592-4.201-1.592-5.81,0L323.23,362.22z"/>
</svg>
