<?xml version="1.0" encoding="iso-8859-1"?>
<!-- Generator: Adobe Illustrator 24.3.0, SVG Export Plug-In . SVG Version: 6.00 Build 0)  -->
<svg version="1.1" id="Layer_1" xmlns="http://www.w3.org/2000/svg" xmlns:xlink="http://www.w3.org/1999/xlink" x="0px" y="0px"
	 viewBox="0 0 512 512" style="enable-background:new 0 0 512 512;" xml:space="preserve">
<path d="M48.48,378.73c39.931,46.884,93.302,80.367,152.89,95.92c53.6,10.988,109.294,4.957,159.3-17.25
	c24.938-11.471,47.573-27.399,66.79-47c1.71-2.922,0.831-6.672-2-8.53c-2.579-0.951-5.409-0.969-8-0.05
	c-36.601,19.016-75.912,32.285-116.55,39.34c-42.616,4.7-85.731,1.709-127.29-8.83c-42.507-14.08-82.656-34.472-119.1-60.49
	c-2.627-0.852-5.447,0.586-6.299,3.213c-0.394,1.214-0.309,2.534,0.239,3.687L48.48,378.73z"/>
<path d="M387.15,388.44c16.117-3.129,32.605-3.88,48.94-2.23l0.67,0.13c5.358,1.298,8.655,6.688,7.37,12.05
	c-3.2,15.905-8.279,31.374-15.13,46.08c-0.412,1.336,0.329,2.754,1.66,3.18c0.76,0.237,1.587,0.1,2.23-0.37
	c19.531-15.701,30.957-39.361,31.11-64.42c0.5-6.379-3.92-12.098-10.22-13.22c-23.947-4.126-48.567,1.008-68.87,14.36
	c-1.134,0.825-1.388,2.411-0.57,3.55C384.987,388.421,386.119,388.779,387.15,388.44z"/>
<path d="M304.24,324.92c-8.615,9.537-18.322,18.029-28.92,25.3c-20.221,11.948-43.206,18.421-66.69,18.78
	c-20.766-0.453-40.869-7.394-57.49-19.85c-27.717-25.34-38.368-64.374-27.36-100.28c10.478-31.547,34.389-56.834,65.3-69.06
	c33.967-10.206,69.233-15.444,104.7-15.55V127c-2.374-16.933-15.813-30.167-32.78-32.28c-10.568-1.439-21.329-0.031-31.17,4.08
	c-14.029,6.601-24.096,19.465-27.13,34.67c-2.263,4.759-7.366,7.485-12.58,6.72l-50.9-4.5c-4.668-1.262-8.029-5.337-8.38-10.16
	c4.074-24.901,17.091-47.46,36.61-63.45c25.842-20.003,57.725-30.612,90.4-30.08c30.277,0.277,59.722,9.945,84.27,27.67
	c20.569,17.379,31.91,43.319,30.7,70.22V258.8c0.63,10.844,3.347,21.465,8,31.28l15.87,23.23c1.7,3.55,1.7,7.68,0,11.23
	l-46.99,39.71c-3.993,2.169-8.847,2-12.68-0.44C324.773,352.02,313.787,338.986,304.24,324.92z M293.64,208.09
	c-14.722-0.296-29.443,0.671-44,2.89c-17.794,3.997-32.982,15.509-41.64,31.56c-7.149,17.546-6.021,37.377,3.07,54
	c11.259,14.066,30.441,19.03,47.11,12.19c19.393-12.436,32.355-32.752,35.46-55.58V208.09"/>
</svg>
