<?xml version="1.0" encoding="iso-8859-1"?>
<!-- Generator: Adobe Illustrator 24.3.0, SVG Export Plug-In . SVG Version: 6.00 Build 0)  -->
<svg version="1.1" id="Layer_1" xmlns="http://www.w3.org/2000/svg" xmlns:xlink="http://www.w3.org/1999/xlink" x="0px" y="0px"
	 viewBox="0 0 512 512" style="enable-background:new 0 0 512 512;" xml:space="preserve">
<path d="M314,36.38c-18.59-3.06-45.8-4.47-64.27-4.38c-17.312,0.02-34.592,1.485-51.66,4.38c-45.74,8-54.07,24.7-54.07,55.54V128
	h112v16H107.62C66.06,144,32.33,193.67,32,255.12c0,0.29,0,0.58,0,0.88c-0.014,10.744,1.034,21.463,3.13,32
	c9.29,46.28,38.23,80,72.49,80H128v-54c0-31.3,20.84-59.95,55-66.1l9.87-1.23H314c5.087,0.02,10.154-0.653,15.06-2
	c23.068-6.16,39.07-27.114,38.94-50.99V91.92C368,63,343.32,41.19,314,36.38z M194.93,105.5c-11.25,0.039-20.401-9.05-20.44-20.3
	s9.05-20.401,20.3-20.44s20.401,9.05,20.44,20.3c0,0.047,0,0.093,0,0.14c0.006,11.206-9.074,20.294-20.28,20.3
	C194.943,105.5,194.937,105.5,194.93,105.5z"/>
<path d="M475.28,217c-10.7-42.61-38.41-73-70.9-73h-17.71v47.45c0,39.57-26,68.22-57.74,73.13c-3.206,0.497-6.446,0.748-9.69,0.75
	H198.08c-5.139-0.005-10.258,0.65-15.23,1.95C160.54,273.14,144,291.7,144,315.77v101.77c0,29,29.14,46,57.73,54.31
	c34.21,9.95,71.48,11.75,112.42,0c27.19-7.77,53.85-23.48,53.85-54.31V384H256v-16h148.38c29.44,0,54.95-24.93,67.45-61.31
	c5.49-16.333,8.25-33.459,8.17-50.69C480.028,242.856,478.443,229.758,475.28,217z M316.51,404c11.25-0.039,20.401,9.05,20.44,20.3
	c0.039,11.25-9.05,20.401-20.3,20.44c-11.25,0.039-20.401-9.05-20.44-20.3c0-0.047,0-0.093,0-0.14
	c-0.006-11.206,9.074-20.294,20.28-20.3C316.497,404,316.503,404,316.51,404z"/>
</svg>
