<?xml version="1.0" encoding="iso-8859-1"?>
<!-- Generator: Adobe Illustrator 24.3.0, SVG Export Plug-In . SVG Version: 6.00 Build 0)  -->
<svg version="1.1" id="Layer_1" xmlns="http://www.w3.org/2000/svg" xmlns:xlink="http://www.w3.org/1999/xlink" x="0px" y="0px"
	 viewBox="0 0 512 512" style="enable-background:new 0 0 512 512;" xml:space="preserve">
<path d="M241.24,303.94c-15.32-10.36-30.74-20.57-46.06-30.93c-2-1.38-3.43-1.48-5.5,0l-38.88,26.12
	C182,319.9,244,361.32,244,361.32v-53.79C244,306.31,242.45,304.75,241.24,303.94z"/>
<path d="M195.09,240.67c15.46-10.16,30.83-20.447,46.11-30.86c1.635-1.313,2.65-3.248,2.8-5.34v-51.7c0,0-62,41.12-93.26,61.94
	c13.7,9.16,26.67,17.91,39.78,26.44C191.54,241.81,193.92,241.43,195.09,240.67z"/>
<path d="M269.84,209.35c15.807,10.713,31.683,21.32,47.63,31.82c1.206,0.6,2.624,0.6,3.83,0l39.76-26.47L268,152.48v53.35
	C268.075,207.214,268.746,208.498,269.84,209.35z"/>
<path d="M258.11,230.37c-1.518-0.698-3.276-0.635-4.74,0.17c-4.82,3-9.47,6.2-14.17,9.35c-8.25,5.53-25.35,17-25.35,17l38.84,25.86
	c1.912,1.169,4.308,1.211,6.26,0.11l39-26C297.95,256.86,263.88,234.2,258.11,230.37z"/>
<polygon points="141,237.12 141,276.73 170.62,256.89 "/>
<path d="M256,32C132.29,32,32,132.29,32,256s100.29,224,224,224s224-100.29,224-224S379.71,32,256,32z M395,297
	c0,5.78-2.65,9.86-7.51,13.09c-41.14,27.333-82.237,54.73-123.29,82.19c-5.85,3.92-11.17,3.75-17-0.14
	c-40.78-27.333-81.657-54.557-122.63-81.67c-5.11-3.39-7.59-7.56-7.59-13.73V217c0-6.14,2.52-10.34,7.62-13.72
	c40.91-27.13,81.94-54.36,122.73-81.68c5.82-3.89,11.09-4,16.94-0.09c41.027,27.473,82.113,54.87,123.26,82.19
	c4.68,3.11,7.45,6.95,7.45,12.66L395,297z"/>
<path d="M316.25,273.23c-15.06,10.227-30.19,20.34-45.39,30.34c-2.41,1.58-2.89,3.31-2.86,6.19v51.34l93-62l-38.53-25.88
	C320.17,271.61,318.58,271.65,316.25,273.23z"/>
<polygon points="370,276.68 370,237.06 340.41,256.93 "/>
</svg>
