<?xml version="1.0" encoding="iso-8859-1"?>
<!-- Generator: Adobe Illustrator 24.3.0, SVG Export Plug-In . SVG Version: 6.00 Build 0)  -->
<svg version="1.1" id="Layer_1" xmlns="http://www.w3.org/2000/svg" xmlns:xlink="http://www.w3.org/1999/xlink" x="0px" y="0px"
	 viewBox="0 0 512 512" style="enable-background:new 0 0 512 512;" xml:space="preserve">
<path d="M429.76,130.07L274.33,36.85c-11.359-6.476-25.291-6.476-36.65,0L82.24,130.06c-11.393,6.982-18.31,19.408-18.24,32.77V349
	c-0.068,13.369,6.847,25.804,18.24,32.8L123,406.14l0.23,0.13c20.58,10.53,28.46,10.53,37.59,10.53c32.14,0,52.11-20.8,52.11-54.29
	V182c0.039-4.692-3.728-8.531-8.42-8.58h-22.38c-4.692,0.049-8.459,3.888-8.42,8.58v180.51c0.166,5.256-2.433,10.215-6.85,13.07
	c-5.9,3.6-14.47,2.84-24.14-2.15l-39.06-23.51c-0.304-0.207-0.484-0.552-0.48-0.92V165.46c0.013-0.428,0.233-0.823,0.59-1.06
	l151.84-93c0.23-0.114,0.5-0.114,0.73,0l151.93,93c0.351,0.256,0.556,0.666,0.55,1.1V349c0.008,0.384-0.158,0.751-0.45,1
	l-152.06,90.65c-0.259,0.09-0.541,0.09-0.8,0l-38.83-23.06c-2.347-1.534-5.336-1.69-7.83-0.41l-0.34,0.2
	c-10.72,6.35-13.6,8-23.54,11.62c-1.62,0.59-5.43,2-5.76,5.77s3.29,6.45,6.51,8.32l51.9,31.87c5.53,3.312,11.854,5.065,18.3,5.07
	h0.58l0,0c6.285-0.099,12.434-1.847,17.83-5.07l155.43-93.13c11.386-7.017,18.297-19.456,18.24-32.83V162.83
	C448.064,149.473,441.148,137.051,429.76,130.07z"/>
<path d="M307.88,318.05c-37.29,0-45.24-10.42-47.6-27.24c-0.549-4.139-4.045-7.252-8.22-7.32h-19.8
	c-4.646,0.098-8.338,3.934-8.26,8.58c0,14.58,5.12,62.17,83.92,62.17l0,0c24.38,0,44.66-5.7,58.63-16.49S388,311.26,388,292.55
	c0-37.55-24.5-47.83-72.75-54.55c-49.05-6.82-49.05-10.29-49.05-17.89c0-5.47,0-18.28,35.46-18.28c25.23,0,38.74,3.19,43.06,20
	c0.788,3.839,4.141,6.614,8.06,6.67h19.87c2.369-0.023,4.613-1.065,6.16-2.86c1.528-1.783,2.29-4.098,2.12-6.44
	c-2.57-35.55-28.56-53.58-79.24-53.58c-46.06,0-73.55,20.75-73.55,55.5c0,38.1,28.49,48.87,71.29,53.33c50,5.17,50,12.71,50,19.37
	C349.46,304.2,345.15,318.05,307.88,318.05z"/>
</svg>
