<?xml version="1.0" encoding="iso-8859-1"?>
<!-- Generator: Adobe Illustrator 24.3.0, SVG Export Plug-In . SVG Version: 6.00 Build 0)  -->
<svg version="1.1" id="Layer_1" xmlns="http://www.w3.org/2000/svg" xmlns:xlink="http://www.w3.org/1999/xlink" x="0px" y="0px"
	 viewBox="0 0 512 512" style="enable-background:new 0 0 512 512;" xml:space="preserve">
<path d="M508.64,148.79c0-45-33.1-81.2-74-81.2C379.24,65,322.74,64,265,64h-18c-57.6,0-114.2,1-169.6,3.6
	C36.6,67.6,3.5,104,3.5,149C1,184.59-0.06,220.19,0,255.79c-0.1,35.6,1.033,71.233,3.4,106.9c0,45,33.1,81.5,73.9,81.5
	c58.2,2.7,117.9,3.9,178.6,3.8c60.8,0.2,120.333-1.067,178.6-3.8c40.9,0,74-36.5,74-81.5c2.4-35.7,3.5-71.3,3.4-107
	C512.127,220.09,511.04,184.457,508.64,148.79z M207,353.89v-196.5l145,98.2L207,353.89z"/>
</svg>
