<?xml version="1.0" encoding="iso-8859-1"?>
<!-- Generator: Adobe Illustrator 24.3.0, SVG Export Plug-In . SVG Version: 6.00 Build 0)  -->
<svg version="1.1" id="Layer_1" xmlns="http://www.w3.org/2000/svg" xmlns:xlink="http://www.w3.org/1999/xlink" x="0px" y="0px"
	 viewBox="0 0 512 512" style="enable-background:new 0 0 512 512;" xml:space="preserve">
<path d="M494.07,281.6l-25.18-78.08c-0.133-0.719-0.337-1.422-0.61-2.1l-50.5-156.94c-2.716-8.277-10.459-13.859-19.17-13.82
	c-8.695-0.026-16.386,5.632-18.95,13.94l-48.14,149.55h-152L131.34,44.59c-2.551-8.278-10.197-13.93-18.86-13.94h-0.11
	c-8.734,0.03-16.454,5.683-19.12,14L42.7,201.73c0,0.14-0.11,0.26-0.16,0.4l-25.63,79.48c-3.871,11.939,0.335,25.016,10.44,32.46
	l221.44,162.41c3.991,2.92,9.42,2.891,13.38-0.07l221.48-162.34C493.758,306.623,497.957,293.538,494.07,281.6 M163.07,217.09
	l61.73,191.76L76.63,217.09 M286.27,408.89l59.19-183.84l2.55-8h86.52L300.47,390.44 M398.8,59.31l43.37,134.83h-86.82 M324.16,217
	l-43,133.58l-25.66,79.56L186.94,217 M112.27,59.31l43.46,134.83H69 M40.68,295.58c-2.146-1.584-3.037-4.364-2.21-6.9l19-59
	l139.61,180.59 M470.34,295.58L313.92,410.22l0.52-0.69L453.5,229.64l19,59c0.838,2.538-0.045,5.326-2.19,6.92"/>
</svg>
