<?xml version="1.0" encoding="iso-8859-1"?>
<!-- Generator: Adobe Illustrator 24.3.0, SVG Export Plug-In . SVG Version: 6.00 Build 0)  -->
<svg version="1.1" id="icons" xmlns="http://www.w3.org/2000/svg" xmlns:xlink="http://www.w3.org/1999/xlink" x="0px" y="0px"
	 viewBox="0 0 512 512" style="enable-background:new 0 0 512 512;" xml:space="preserve">
<path d="M412.19,118.66c-3.24-1.674-6.394-3.51-9.45-5.5c-8.887-5.875-17.036-12.799-24.27-20.62
	c-18.1-20.71-24.86-41.72-27.35-56.43h0.1C349.14,23.9,350,16,350.13,16h-82.44v318.78c0,4.28,0,8.51-0.18,12.69
	c0,0.52-0.05,1-0.08,1.56c0,0.23,0,0.47-0.05,0.71c0,0.06,0,0.12,0,0.18c-1.765,23.226-14.967,44.053-35.22,55.56
	c-10.395,5.914-22.151,9.016-34.11,9c-38.41,0-69.54-31.32-69.54-70s31.13-70,69.54-70c7.271-0.007,14.497,1.137,21.41,3.39
	l0.1-83.94c-42.428-5.481-85.215,7.036-118,34.52c-14.209,12.346-26.155,27.077-35.3,43.53c-3.48,6-16.61,30.11-18.2,69.24
	c-1,22.21,5.67,45.22,8.85,54.73v0.2c2,5.6,9.75,24.71,22.38,40.82c10.184,12.923,22.217,24.275,35.71,33.69v-0.2l0.2,0.2
	c39.91,27.12,84.16,25.34,84.16,25.34c7.66-0.31,33.32,0,62.46-13.81c32.32-15.31,50.72-38.12,50.72-38.12
	c11.755-13.629,21.102-29.161,27.64-45.93c7.46-19.61,9.95-43.13,9.95-52.53V176.49c1,0.6,14.32,9.41,14.32,9.41
	s19.19,12.3,49.13,20.31c21.48,5.7,50.42,6.9,50.42,6.9v-81.84C453.86,132.37,433.27,129.17,412.19,118.66z"/>
</svg>
