<?xml version="1.0" encoding="iso-8859-1"?>
<!-- Generator: Adobe Illustrator 24.3.0, SVG Export Plug-In . SVG Version: 6.00 Build 0)  -->
<svg version="1.1" id="Layer_1" xmlns="http://www.w3.org/2000/svg" xmlns:xlink="http://www.w3.org/1999/xlink" x="0px" y="0px"
	 viewBox="0 0 512 512" style="enable-background:new 0 0 512 512;" xml:space="preserve">
<path d="M86.76,255c1.707-0.002,3.385-0.447,4.87-1.29c4.712-2.685,6.356-8.681,3.671-13.394c-0.007-0.012-0.014-0.024-0.021-0.036
	c-16.46-28.56-17.81-52.12-7.45-70c14.26-24.57,53.61-33.65,105.27-24.29c5.34,0.967,10.458-2.564,11.45-7.9
	c0.97-5.347-2.577-10.469-7.925-11.439c-0.002,0-0.004-0.001-0.005-0.001c-29.19-5.28-56-5.18-77.39,0.3
	c-22.3,5.71-39,17.28-48.45,33.48c-14,24.19-12.7,54.73,7.42,89.62C79.958,253.116,83.225,255.006,86.76,255z"/>
<path d="M361.61,143.73c32.24,0.42,52.61,9.31,62.79,26.86c14.21,24.48,2.52,62.81-31.27,102.52
	c-3.513,4.132-3.01,10.33,1.122,13.842c1.783,1.515,4.048,2.344,6.388,2.338c2.892,0.003,5.641-1.262,7.52-3.46
	c19.12-22.47,32.35-45.54,38.25-66.71c6.14-22,4.43-42.21-5-58.38c-13.8-23.78-40.13-36.15-79.59-36.67h-0.14
	c-5.429-0.033-9.857,4.341-9.89,9.77c-0.033,5.429,4.341,9.857,9.77,9.89l0,0H361.61z"/>
<path d="M326.47,414.89c-4.657-2.777-10.681-1.282-13.5,3.35c-16.41,27.15-36.57,42.1-56.77,42.1c-28.49,0-56-29.31-73.73-78.42
	c-1.856-5.098-7.48-7.743-12.59-5.92c-5.122,1.799-7.816,7.41-6.017,12.532c0.006,0.016,0.011,0.032,0.017,0.048
	c10,27.77,23.47,50.75,39,66.46c16.11,16.34,34.55,25,53.32,25c27.38,0,53.54-18.33,73.65-51.61
	c2.8-4.638,1.311-10.668-3.327-13.469c-0.017-0.011-0.035-0.021-0.053-0.031V414.89z"/>
<path d="M431.7,338.54c-17.75-0.089-32.212,14.228-32.301,31.978c-0.021,4.235,0.795,8.433,2.401,12.352
	c-41.8,19.5-119.8,4.79-191.87-36.62c-32.91-18.9-62.16-41.86-84.6-66.39c-3.675-3.992-9.879-4.282-13.91-0.65
	c-4.016,3.628-4.331,9.825-0.703,13.841c0.018,0.02,0.035,0.039,0.053,0.059c23.79,26,54.68,50.28,89.33,70.18
	c40.28,23.13,82.27,38.63,121.43,44.81c11.573,1.878,23.275,2.851,35,2.91c23.12,0,43-4.3,58.51-12.79
	c15.177,9.269,34.994,4.48,44.264-10.697c9.269-15.177,4.48-34.994-10.697-44.264c-5.078-3.102-10.916-4.735-16.867-4.72
	L431.7,338.54z M431.7,383.2c-2.839,0-5.594-0.958-7.82-2.72c-0.613-0.847-1.356-1.593-2.2-2.21
	c-4.242-5.524-3.202-13.44,2.321-17.681s13.44-3.202,17.681,2.321c4.242,5.524,3.202,13.44-2.321,17.681
	c-2.203,1.692-4.904,2.609-7.681,2.609H431.7z"/>
<path d="M82.09,338.59c0.57-21.26,12.41-47,33.68-73.16c23.19-28.45,56.69-56,94.34-77.65c33.25-19.1,65.2-31.9,98.07-38.91
	c5.329-1.039,8.806-6.201,7.766-11.53c-1.039-5.329-6.202-8.806-11.53-7.766c-0.119,0.023-0.238,0.049-0.356,0.076
	c-34.85,7.43-68.78,21-103.79,41.09C116.09,219.09,59.9,289.88,62.46,343.9c-14.889,9.845-18.979,29.896-9.134,44.785
	s29.896,18.979,44.785,9.134s18.979-29.896,9.134-44.785C101.613,344.515,92.286,339.16,82.09,338.59z M80.3,383.2
	c-6.903-0.05-12.459-5.686-12.41-12.59c0.05-6.903,5.686-12.459,12.59-12.41c6.868,0.049,12.41,5.631,12.41,12.499
	C92.857,377.625,87.225,383.217,80.3,383.2z"/>
<path d="M256.2,96.32c10.573,0.027,20.487-5.134,26.53-13.81c17.89,11.69,34,35,45.81,66.12c13,34.39,19.84,75.38,19.84,118.54
	c0,37.18-5.19,72.35-15,103.6c-0.794,2.484-0.556,5.183,0.66,7.49c1.211,2.322,3.299,4.065,5.8,4.84
	c5.183,1.601,10.689-1.272,12.34-6.44c10.42-33.14,15.93-70.34,15.93-109.49c0-47.17-7.77-91.77-22.47-129
	c-14.41-36.48-34.13-62.4-57.14-75.16c-0.558-17.83-15.464-31.832-33.294-31.274c-17.83,0.558-31.832,15.464-31.274,33.294
	C224.477,82.461,238.761,96.312,256.2,96.32z M256.2,51.66c6.903,0.05,12.459,5.686,12.41,12.59
	c-0.05,6.903-5.686,12.459-12.59,12.41c-6.868-0.049-12.41-5.631-12.41-12.499C243.643,57.235,249.275,51.643,256.2,51.66z"/>
<path d="M251,243.36L251,243.36c-13.15,2.816-21.527,15.759-18.711,28.909c2.41,11.251,12.365,19.279,23.871,19.251
	c1.735-0.001,3.464-0.186,5.16-0.55c13.185-2.674,21.706-15.531,19.032-28.716c-2.674-13.185-15.531-21.706-28.716-19.032
	C251.424,243.265,251.211,243.311,251,243.36z"/>
</svg>
