<?xml version="1.0" encoding="iso-8859-1"?>
<!-- Generator: Adobe Illustrator 24.3.0, SVG Export Plug-In . SVG Version: 6.00 Build 0)  -->
<svg version="1.1" id="Layer_1" xmlns="http://www.w3.org/2000/svg" xmlns:xlink="http://www.w3.org/1999/xlink" x="0px" y="0px"
	 viewBox="0 0 512 512" style="enable-background:new 0 0 512 512;" xml:space="preserve">
<path d="M255.5,15L255.5,15c-132,0-240,108-240,240s108,240,240,240l0,0c85.4,0,160.8-45.2,203.3-112.9
	c2.027-3.207,1.071-7.451-2.137-9.478c-2.109-1.333-4.774-1.418-6.963-0.222c-5.851,3.435-12.012,6.314-18.4,8.6
	c-36.8,12.6-57.1,13.1-82.1,12c-27.9-1.2-61.9-10.8-85.8-25s-43.5-34.6-54.1-52.3s-17-39.9-14.1-68.3c2.9-29,29.4-52.6,60.4-52.6
	l0,0c33.5,0,60.8,26.6,60.8,60.1c0,17-8.1,31.7-18.5,43.5l0,0c-2.3,2.1-7.6,9.7,5.8,20c15.9,12.2,51.6,18,79.9,16.6
	s59.1-12.6,80.2-34.8c16.8-17.7,31.8-46.1,31.8-77.4C495.5,97.7,379.5,15,255.5,15z"/>
</svg>
