<?xml version="1.0" encoding="iso-8859-1"?>
<!-- Generator: Adobe Illustrator 24.3.0, SVG Export Plug-In . SVG Version: 6.00 Build 0)  -->
<svg version="1.1" id="Layer_1" xmlns="http://www.w3.org/2000/svg" xmlns:xlink="http://www.w3.org/1999/xlink" x="0px" y="0px"
	 viewBox="0 0 512 512" style="enable-background:new 0 0 512 512;" xml:space="preserve">
<path d="M0,80v352h512V80H0z M464,255.78c0,25.74-1.6,45.32-3.77,77.22s-19.2,54.34-59.09,57.86s-95.77,3.85-145.14,3.74
	c-49,0.11-105.14-0.11-145.14-3.74s-56.8-26-59.09-57.86S48,281.52,48,255.78s0.11-42.46,3.77-77.22s23-54.12,59.09-57.64
	s98.28-3.52,145.14-3.52s109,0,145.14,3.52s55.43,23,59.09,57.64S464,230.15,464,255.78z"/>
<path d="M367.57,282.84v0.77c0,17.93-11.11,28.49-25.95,28.49s-24.84-11.88-26.27-28.49c0,0-1.31-8.69-1.31-26.29
	c-0.086-9.556,0.425-19.108,1.53-28.6c2.64-18.7,11.77-28.49,26.6-28.49s26.49,12.76,26.49,32.12v0.55h49.58
	c0-24.09-6.05-45.76-18.25-59.4S369.76,153,345.8,153c-11.178-0.14-22.311,1.456-33,4.73c-9.969,3.134-18.922,8.867-25.94,16.61
	c-7.23,7.96-12.86,18.52-16.86,31.83s-6,30-6,50.27c0,19.8,1.65,36.3,4.84,49.61s8,23.87,14.4,31.79
	c6.175,7.771,14.533,13.517,24,16.5c9.667,3.08,21,4.62,34,4.62c27.47,0,47.26-7,59.13-20.57S418,305.06,418,279.1h-50.65
	C367.57,279.1,367.57,281.85,367.57,282.84z"/>
<path d="M197.3,282.84v0.77c0,17.93-11.1,28.49-25.94,28.49s-24.84-11.88-26.27-28.49c0,0-1.31-8.69-1.31-26.29
	c-0.086-9.556,0.425-19.108,1.53-28.6c2.64-18.7,11.77-28.49,26.6-28.49S198.4,213,198.4,232.35v0.55H248
	c0-24.09-6-45.76-18.25-59.4S199.5,153,175.54,153c-11.178-0.14-22.311,1.456-33,4.73c-9.969,3.134-18.922,8.867-25.94,16.61
	c-7.26,7.92-12.86,18.48-16.93,31.79s-6,30-6,50.27c0,19.8,1.65,36.3,4.84,49.61s8,23.87,14.4,31.79
	c6.175,7.771,14.533,13.517,24,16.5c9.673,3.08,21.007,4.62,34,4.62c27.48,0,47.27-7,59.14-20.57s17.81-33.33,17.81-59.29h-50.78
	C197.3,279.1,197.3,281.85,197.3,282.84z"/>
</svg>
