<?xml version="1.0" encoding="iso-8859-1"?>
<!-- Generator: Adobe Illustrator 24.3.0, SVG Export Plug-In . SVG Version: 6.00 Build 0)  -->
<svg version="1.1" id="Layer_1" xmlns="http://www.w3.org/2000/svg" xmlns:xlink="http://www.w3.org/1999/xlink" x="0px" y="0px"
	 viewBox="0 0 512 512" style="enable-background:new 0 0 512 512;" xml:space="preserve">
<path d="M240,480v-36.42C160.53,439,112.25,398.06,112,336h72c1.77,26.34,23.86,46.45,56,50v-98l-26.77-7
	c-61-14.18-93.64-49.39-93.64-102.08C119.59,116.81,164.08,76.08,240,70V32h32v38c77.39,6.3,119,47.74,120,106h-72
	c-0.76-24.06-15.83-43.39-48-46v92l30.82,7.28C367.61,243.46,400,277,400,332c0,64.34-43.74,105.88-128,111.32V480H240z M240,216
	v-86c-27.59,1.52-47.27,18.47-47.27,42.53C192.73,194.83,209.12,209.41,240,216z M272,294v92c38.15-1.54,56.38-18.92,56.38-45.77
	C328.38,315.65,310.15,299.1,272,294z"/>
</svg>
