<?xml version="1.0" encoding="iso-8859-1"?>
<!-- Generator: Adobe Illustrator 24.3.0, SVG Export Plug-In . SVG Version: 6.00 Build 0)  -->
<svg version="1.1" id="Layer_1" xmlns="http://www.w3.org/2000/svg" xmlns:xlink="http://www.w3.org/1999/xlink" x="0px" y="0px"
	 viewBox="0 0 512 512" style="enable-background:new 0 0 512 512;" xml:space="preserve">
<path d="M464,66.52c-0.263-27.38-22.499-49.456-49.88-49.52L97.64,16C70.274,16.005,48.072,38.154,48,65.52V392
	c0,27.3,22.28,48,49.64,48H368l-13-44l109,100V66.52z M324.65,329.81c0,0-8.72-10.39-16-19.32C340.39,301.55,352.5,282,352.5,282
	c-8.718,5.783-18.06,10.563-27.85,14.25c-11.304,4.693-23.073,8.176-35.11,10.39c-20.741,3.81-42.009,3.728-62.72-0.24
	c-12.183-2.262-24.106-5.747-35.59-10.4c-6.075-2.327-11.982-5.07-17.68-8.21c-0.73-0.48-1.45-0.72-2.18-1.21
	c-0.49-0.24-0.73-0.48-1-0.48c-4.36-2.42-6.78-4.11-6.78-4.11s11.62,19.09,42.38,28.26c-7.27,9.18-16.23,19.81-16.23,19.81
	c-53.51-1.69-73.85-36.47-73.85-36.47c0-77.06,34.87-139.62,34.87-139.62c34.87-25.85,67.8-25.12,67.8-25.12l2.42,2.9
	c-43.59,12.32-63.44,31.4-63.44,31.4s5.32-2.9,14.28-6.77c25.91-11.35,46.5-14.25,55-15.21c1.357-0.282,2.735-0.446,4.12-0.49
	c16.226-2.105,32.646-2.267,48.91-0.48c25.538,2.934,50.278,10.723,72.89,22.95c0,0-19.13-18.15-60.3-30.45l3.39-3.86
	c0,0,33.17-0.73,67.81,25.16c0,0,34.87,62.56,34.87,139.62C398.51,293.34,378.16,328.12,324.65,329.81z"/>
<path d="M212.05,218c-13.8,0-24.7,11.84-24.7,26.57c0,14.73,11.14,26.57,24.7,26.57c13.8,0,24.7-11.83,24.7-26.57
	C237,229.81,225.85,218,212.05,218z"/>
<ellipse cx="300.43" cy="244.57" rx="24.7" ry="26.57"/>
</svg>
