<?xml version="1.0" encoding="iso-8859-1"?>
<!-- Generator: Adobe Illustrator 24.3.0, SVG Export Plug-In . SVG Version: 6.00 Build 0)  -->
<svg version="1.1" id="Layer_1" xmlns="http://www.w3.org/2000/svg" xmlns:xlink="http://www.w3.org/1999/xlink" x="0px" y="0px"
	 viewBox="0 0 512 512" style="enable-background:new 0 0 512 512;" xml:space="preserve">
<path d="M511.78,328.07L511.78,328.07c-1.47-11.92-7.51-22.26-18-30.77c-0.13-0.159-0.274-0.306-0.43-0.44l0,0l-0.53-0.38
	l-0.17-0.12l-5.57-4l-0.19-0.14l-0.71-0.5l0,0c-0.26-0.152-0.539-0.27-0.83-0.35c-17.62-10.49-46.79-17.84-91.42-2.09
	C383.28,271.36,382.07,257,389.2,235c1.27-3.83,0.09-6.36-3.71-8c-7.64-3.25-18.1-1.59-25.52,0.37c-3.46,0.9-5.54,2.86-6.2,5.83
	c-4.7,22-18.36,42.1-31.57,61.5l-0.78,1.14c-8.14-17.26-6.45-30.63-0.78-47.38c1.13-3.34,0.24-5.56-2.89-7.22
	c-8.74-4.51-21.85-1.41-27.07,0.13c-6.62,1.93-13.72,19.82-21.65,41.24c-2,5.39-3.72,10-4.75,12.15c-2.45,5-4.79,10.7-7.27,16.75
	c-5.6,13.69-11.91,29.1-20.93,38.78c-3.28-7.25,1.88-18.68,6.89-29.77c5.93-13.11,11.53-25.5,5.08-33.41
	c-2.062-2.528-5.076-4.091-8.33-4.32c-2.1-0.16-4.209,0.183-6.15,1c0.67-5.65,0.7-10.11-0.95-15.5c-2.36-7.69-8.49-12-16.93-11.77
	c-19.22,0.56-35.48,14.88-45.75,26.8c-6.84,8-22,14.1-35.31,19.45C129.37,305,124.37,307,120.2,309c-6.65-5.62-15.1-11.29-24-17.28
	c-25-16.78-53.33-35.81-54.31-61.61c-1.4-38.11,42-65.14,79.88-84.43c28.71-14.6,53.67-24.28,76.31-29.57
	c31.8-7.43,58.66-5.93,79.82,4.44c11.58,5.67,17,18,13.56,30.68c-9,32.95-46.29,55.53-78.18,65.69c-19.21,6.12-35.56,8.68-50,7.84
	c-18.1-1.05-32.88-10.13-39.2-14c-1.013-0.691-2.083-1.294-3.2-1.8l-0.29-0.07c-1.167-0.29-2.398,0.096-3.19,1
	c-1.3,1.55-0.84,4-0.37,5.24c6.15,16.07,18.85,26.22,37.74,30.17c6.182,1.238,12.475,1.838,18.78,1.79
	c44.21,0,100.62-25.49,121.34-46.48c14.13-14.3,24.42-29,28.68-54.35c4.45-26.55-13.55-45-31.89-53.5
	c-44.57-20.57-95.19-12.44-129.81-2c-40.5,12.21-82.4,34.41-114.94,60.93c-40.12,32.67-54.62,63-43.12,90.25
	c11.81,27.93,40.61,45.4,68.46,62.3c9,5.45,17.56,10.64,25.27,16c-2.32,1.13-4.69,2.28-7.1,3.43
	c-23.38,11.33-49.9,24.08-64.61,45.15c-10.68,15.35-12.68,30.63-5.94,45.42c3.6,7.87,10,13.21,18.89,15.87
	c4.625,1.31,9.414,1.947,14.22,1.89c17.31,0,36.36-7,46.73-13.47c18.32-11.5,30.19-26.94,35.29-45.89
	c4.54-16.86,3.45-33.61-3.15-48.56l22.45-11.32c-10.83,36-2.53,57.5,6.59,69.36c3.36,4.37,9.42,7,16.19,7.12s13-2.43,16.52-6.77
	c6.66-8.25,11.58-17.9,16.11-27.55c-0.24,6.3,0.06,12.68,2.21,18.09c1.93,4.87,5.11,8.1,9.21,9.34c4.36,1.33,9.47,0.21,14.39-3.15
	c22.17-15.17,37.33-51.58,49.51-80.85c1.73-4.16,3.39-8.16,5-11.9c3.013,10.784,7.205,21.204,12.5,31.07
	c1.18,2.14,1.08,3.08-0.52,4.84c-2.41,2.64-5.77,5.83-9.33,9.21c-10.78,10.23-24.2,23-26,34.23c-0.7,4.5,2.4,8.6,7.21,9.53
	c14.47,2.88,31.9-1.33,46.64-11.25c13.4-9,18.44-21.55,15-37.19c-3.33-15.06,4.27-33.76,22.59-55.62c3,12.53,7,22.66,12.52,31.53
	l-0.15,0.12c-13.34,11.65-31.62,27.6-28.78,46.95c0.482,3.721,2.507,7.067,5.58,9.22c3.283,2.217,7.343,2.963,11.2,2.06
	c17.47-3.67,30.62-11.06,40.18-22.57s6.07-24.27,2.85-34.17c25-6.78,47.26-6.61,68.1,0.5c11.7,4,20.09,10.57,24.93,19.64
	c6.09,11.41,2.8,21.94-9.29,29.65c-3.71,2.37-5.5,3.82-5.61,5.65c-0.05,0.862,0.323,1.694,1,2.23c1.4,1.15,5.72,3.15,15.49-3
	c9-5.65,14.28-13.34,15.63-23C512.062,333.417,512.058,330.733,511.78,328.07z M112.05,353.13l-0.1,1.28
	c-1.56,14.64-9,27.4-22.15,38c-8.26,6.66-17.23,10.75-25.25,11.53c-5.6,0.54-9.67-0.22-12.09-2.27c-1.81-1.53-2.78-3.82-3-7
	c-1.64-25.48,38.32-50.8,60.81-59.13C111.875,341.257,112.477,347.208,112.05,353.13z M214.4,281.27L214.4,281.27
	c-3.7,21.09-14.49,60.9-31.45,76.35c-0.81,0.74-1.49,1-1.8,0.93s-0.55-0.44-0.8-1c-5.66-13.12-3.57-35.28,5-52.69
	c6.59-13.42,16-22.31,26.52-25c0.437-0.12,0.887-0.184,1.34-0.19c0.354-0.025,0.706,0.07,1,0.27
	C214.46,280.336,214.529,280.82,214.4,281.27z M297.89,358.15c-3.19,3.33-7.56,2.88-6.53,1.66l16.24-17.24
	C306.29,348.5,302.42,353.41,297.89,358.15L297.89,358.15z M365.26,343.24c-1.544,0.761-3.215,1.232-4.93,1.39
	c-0.46-9.07,8.33-19.28,17-26.09C379.66,328,374.89,338,365.26,343.24L365.26,343.24z"/>
</svg>
