<?xml version="1.0" encoding="iso-8859-1"?>
<!-- Generator: Adobe Illustrator 24.3.0, SVG Export Plug-In . SVG Version: 6.00 Build 0)  -->
<svg version="1.1" id="Layer_1" xmlns="http://www.w3.org/2000/svg" xmlns:xlink="http://www.w3.org/1999/xlink" x="0px" y="0px"
	 viewBox="0 0 512 512" style="enable-background:new 0 0 512 512;" xml:space="preserve">
<path d="M410.47,279.2c-5-11.5-12.7-21.6-28.1-30.1c-7.96-4.5-16.509-7.866-25.4-10c5.982-2.779,11.484-6.492,16.3-11
	c7.08-6.329,12.446-14.343,15.6-23.3c2.904-9.102,4.09-18.664,3.5-28.2c-1.1-16.8-4.4-33.1-13.2-44.8s-21.2-20.7-37.6-27
	c-12.6-4.8-25.5-7.8-45.5-8.9V32h-40v64h-32V32h-41v64H96v48h27.87c8.7,0,14.6,0.8,17.6,2.3c2.791,1.194,5.087,3.313,6.5,6
	c1.3,2.5,1.9,8.4,1.9,17.5V343c0,9-0.6,14.8-1.9,17.4s-2,4.9-5.1,6.3s-3.2,1.3-11.8,1.3h-26.4L96,416h87v64h41v-64h32v64h40v-64.4
	c26-1.3,44.5-4.7,59.4-10.3c19.3-7.2,34.1-17.7,44.7-31.5s14-34.9,14.93-51.2C415.7,308.1,415,289.4,410.47,279.2z M224,150h32v74
	h-32V150z M224,362v-90h32v90H224z M296,153.9c6,2.5,9.9,7.5,13.8,12.7c4.3,5.7,6.5,13.3,6.5,21.4c0,7.8-2.9,14.5-7.5,20.5
	c-3.8,4.9-6.8,8.3-12.8,11.1V153.9z M324.8,340.6c-7.8,6.9-12.3,10.1-22.1,13.8c-2.192,0.772-4.429,1.406-6.7,1.9v-82.8
	c3.912,0.579,7.718,1.724,11.3,3.4c7.8,3.3,15.2,6.9,19.8,13.2c5.101,7.236,7.89,15.848,8,24.7c-0.03,10.9-2.83,19.2-10.33,25.8
	L324.8,340.6z"/>
</svg>
