<?xml version="1.0" encoding="iso-8859-1"?>
<!-- Generator: Adobe Illustrator 24.3.0, SVG Export Plug-In . SVG Version: 6.00 Build 0)  -->
<svg version="1.1" id="Layer_1" xmlns="http://www.w3.org/2000/svg" xmlns:xlink="http://www.w3.org/1999/xlink" x="0px" y="0px"
	 viewBox="0 0 512 512" style="enable-background:new 0 0 512 512;" xml:space="preserve">
<path d="M39.93,149.25l197.4,95.32c5.14,2.45,12,3.73,18.79,3.73s13.65-1.28,18.78-3.73l197.4-95.32c10.38-5,10.38-13.18,0-18.2
	L274.9,35.73c-5.13-2.45-12-3.73-18.78-3.73s-13.65,1.28-18.79,3.73l-197.4,95.32C29.55,136.07,29.55,144.23,39.93,149.25z"/>
<path d="M472.3,246.9c0,0-36.05-17.38-40.83-19.72s-6.07-2.21-11.09,0.12s-145.6,70.23-145.6,70.23
	c-5.926,2.559-12.326,3.833-18.78,3.74c-6.77,0-13.65-1.29-18.78-3.74c0,0-136.85-66-143.27-69.18C87,225,85,225,78.67,228
	l-39,18.78c-10.38,5-10.38,13.19,0,18.2L237.1,360.3c5.13,2.45,12,3.73,18.78,3.73s13.65-1.28,18.79-3.73l197.4-95.3
	C482.68,260.08,482.68,251.92,472.3,246.9z"/>
<path d="M472.3,362.75c0,0-36.05-17.38-40.83-19.75s-6.07-2.21-11.09,0.12S274.9,413.5,274.9,413.5
	c-5.927,2.554-12.327,3.826-18.78,3.73c-6.77,0-13.65-1.28-18.79-3.73c0,0-136.85-66-143.26-69.18c-7-3.39-9-3.39-15.29-0.35
	l-39,18.78c-10.39,5-10.39,13.18,0,18.2l197.4,95.32c5.13,2.56,12,3.73,18.78,3.73s13.65-1.28,18.78-3.73L472.18,381
	C482.68,375.93,482.68,367.77,472.3,362.75z"/>
</svg>
