<?xml version="1.0" encoding="iso-8859-1"?>
<!-- Generator: Adobe Illustrator 24.3.0, SVG Export Plug-In . SVG Version: 6.00 Build 0)  -->
<svg version="1.1" id="icons" xmlns="http://www.w3.org/2000/svg" xmlns:xlink="http://www.w3.org/1999/xlink" x="0px" y="0px"
	 viewBox="0 0 512 512" style="enable-background:new 0 0 512 512;" xml:space="preserve">
<path id="icon" d="M93.19,329.38l47.45-304.07c1.64-10.37,15.55-12.82,20.46-3.55l51,95.45L93.19,329.38z M432,400l-46.74-276.79
	c-1.026-5.988-6.712-10.01-12.7-8.984c-2.205,0.378-4.242,1.419-5.84,2.984L80,400l159.36,91.91c9.938,5.451,21.972,5.451,31.91,0
	L432,400z M302.36,158.93l-36.54-69.54c-2.719-5.346-9.257-7.476-14.603-4.757c-2.049,1.042-3.715,2.708-4.757,4.757L85.83,375.74
	L302.36,158.93z"/>
</svg>
