<?xml version="1.0" encoding="iso-8859-1"?>
<!-- Generator: Adobe Illustrator 24.3.0, SVG Export Plug-In . SVG Version: 6.00 Build 0)  -->
<svg version="1.1" id="icons" xmlns="http://www.w3.org/2000/svg" xmlns:xlink="http://www.w3.org/1999/xlink" x="0px" y="0px"
	 viewBox="0 0 512 512" style="enable-background:new 0 0 512 512;" xml:space="preserve">
<path d="M310.846,80.002c-2.738,0-5.512-0.703-8.047-2.182L256,50.523l-46.798,27.298c-7.633,4.453-17.43,1.874-21.882-5.759
	c-4.452-7.633-1.874-17.43,5.759-21.882l54.86-32c4.981-2.905,11.14-2.905,16.123,0l54.86,32c7.633,4.453,10.212,14.25,5.759,21.882
	C321.708,77.159,316.35,80.002,310.846,80.002z"/>
<path d="M256,128c-8.836,0-16-7.164-16-16V32c0-8.836,7.164-16,16-16c8.837,0,16,7.164,16,16v80C272,120.836,264.837,128,256,128z"
	/>
<path d="M256,496c-2.786,0-5.57-0.727-8.062-2.18l-54.86-32c-7.633-4.452-10.211-14.249-5.759-21.882
	c4.453-7.632,14.25-10.213,21.882-5.759L256,461.477l46.799-27.297c7.635-4.451,17.43-1.875,21.882,5.759
	c4.453,7.633,1.874,17.43-5.759,21.882l-54.86,32C261.571,495.274,258.785,496,256,496z"/>
<path d="M256,496c-8.836,0-16-7.163-16-16v-80c0-8.837,7.164-16,16-16c8.837,0,16,7.163,16,16v80C272,488.837,264.837,496,256,496z"
	/>
<path d="M64,223.51c-8.836,0-16-7.164-16-16V144c0-5.65,2.98-10.882,7.84-13.763l53.15-31.51c7.602-4.505,17.417-1.997,21.923,5.604
	c4.506,7.602,1.998,17.417-5.604,21.923L80,153.115v54.396C80,216.347,72.836,223.51,64,223.51z"/>
<path d="M131.275,200.002c-2.781,0-5.597-0.725-8.161-2.249l-67.29-40c-7.596-4.515-10.093-14.333-5.578-21.929
	c4.515-7.595,14.333-10.092,21.929-5.578l67.29,40c7.596,4.515,10.093,14.333,5.578,21.929
	C142.052,197.207,136.733,200.002,131.275,200.002z"/>
<path d="M394.864,415.513c-5.465,0-10.789-2.802-13.777-7.844c-4.507-7.601-1.998-17.416,5.604-21.922L432,358.885V304.49
	c0-8.837,7.163-16,16-16s16,7.163,16,16V368c0,5.65-2.98,10.882-7.841,13.763l-53.15,31.51
	C400.45,414.79,397.639,415.513,394.864,415.513z"/>
<path d="M447.985,384.003c-2.781,0-5.598-0.726-8.161-2.249l-67.29-40c-7.596-4.516-10.093-14.334-5.578-21.93
	c4.514-7.596,14.333-10.093,21.93-5.578l67.29,40c7.596,4.516,10.093,14.334,5.578,21.93
	C458.763,381.208,453.442,384.003,447.985,384.003z"/>
<path d="M117.135,416.002c-2.81,0-5.655-0.74-8.238-2.295l-53.15-32C50.94,378.813,48,373.612,48,368V304.49c0-8.837,7.164-16,16-16
	s16,7.163,16,16v54.468l45.403,27.336c7.57,4.558,10.012,14.39,5.455,21.96C127.854,413.241,122.562,416.002,117.135,416.002z"/>
<path d="M64.015,384.002c-5.435,0-10.733-2.769-13.733-7.768c-4.548-7.576-2.093-17.405,5.484-21.953l66.64-40
	c7.576-4.546,17.406-2.093,21.953,5.484c4.548,7.576,2.093,17.405-5.484,21.953l-66.64,40
	C69.657,383.266,66.817,384.002,64.015,384.002z"/>
<path d="M448,223.51c-8.837,0-16-7.164-16-16v-54.396l-45.31-26.861c-7.602-4.506-10.11-14.321-5.604-21.922
	c4.506-7.602,14.322-10.109,21.922-5.604l53.15,31.51C461.02,133.118,464,138.35,464,144v63.51
	C464,216.347,456.837,223.51,448,223.51z"/>
<path d="M380.726,200.002c-5.459,0-10.777-2.794-13.77-7.827c-4.515-7.596-2.018-17.414,5.578-21.929l67.29-40
	c7.597-4.515,17.413-2.018,21.93,5.578c4.515,7.596,2.018,17.414-5.578,21.929l-67.29,40
	C386.322,199.277,383.505,200.002,380.726,200.002z"/>
<path d="M256,336c-8.836,0-16-7.163-16-16v-73.191l62.799-36.63c7.635-4.451,17.43-1.874,21.882,5.759
	c4.453,7.633,1.874,17.43-5.759,21.882L272,265.19V320C272,328.837,264.837,336,256,336z"/>
<path d="M255.985,272.002c-2.738,0-5.511-0.703-8.046-2.182l-54.86-32c-7.633-4.453-10.211-14.25-5.759-21.882
	c4.453-7.633,14.251-10.209,21.882-5.759l54.86,32c7.633,4.453,10.211,14.25,5.759,21.883
	C266.847,269.16,261.489,272.002,255.985,272.002z"/>
</svg>
