<?xml version="1.0" encoding="iso-8859-1"?>
<!-- Generator: Adobe Illustrator 24.3.0, SVG Export Plug-In . SVG Version: 6.00 Build 0)  -->
<svg version="1.1" id="Layer_1" xmlns="http://www.w3.org/2000/svg" xmlns:xlink="http://www.w3.org/1999/xlink" x="0px" y="0px"
	 viewBox="0 0 512 512" style="enable-background:new 0 0 512 512;" xml:space="preserve">
<path d="M102.41,32C62.38,32,32,64.12,32,103.78v304.45C32,447.86,64.38,480,104.41,480h303.2c40,0,72.39-32.14,72.39-71.77v-3.11
	c-1.35-0.56-115.47-48.57-174.5-76.7c-39.82,48.57-91.18,78-144.5,78c-90.18,0-120.8-78.22-78.1-129.72
	c9.31-11.22,25.15-21.94,49.73-28c38.45-9.36,99.64,5.85,157,24.61c10.685-19.579,19.221-40.256,25.46-61.67H138.34V194h91.13
	v-31.83H119.09v-17.75h110.38V99c0,0,0-7.65,7.82-7.65h44.55v53H391v17.75H281.84V194h89.08c-8.035,33.105-20.735,64.9-37.72,94.43
	c27,9.69,49.31,18.88,67.39,24.89c60.32,20,77.23,22.45,79.41,22.7V103.78C480,64.12,447.6,32,407.61,32H102.41z M152,274.73
	c-3.873,0.04-7.763,0.25-11.67,0.63c-11.3,1.13-32.5,6.07-44.09,16.23c-34.74,30-13.94,84.93,56.37,84.93
	c40.87,0,81.71-25.9,113.79-67.37C225.04,289.15,189.4,274.3,152,274.73L152,274.73z"/>
</svg>
