<?xml version="1.0" encoding="iso-8859-1"?>
<!-- Generator: Adobe Illustrator 24.3.0, SVG Export Plug-In . SVG Version: 6.00 Build 0)  -->
<svg version="1.1" id="Layer_1" xmlns="http://www.w3.org/2000/svg" xmlns:xlink="http://www.w3.org/1999/xlink" x="0px" y="0px"
	 viewBox="0 0 512 512" style="enable-background:new 0 0 512 512;" xml:space="preserve">
<rect x="360" y="256" width="16" height="48"/>
<polygon points="112,304 241.6,304 193.6,256 112,256 "/>
<path d="M364.5,60.1c-0.346-0.178-0.68-0.378-1-0.6c-11.023-5.907-22.531-10.859-34.4-14.8l-5.4-1.8
	C301.829,35.801,278.993,32.125,256,32C132.3,32,32,132.3,32,256c-0.021,81.401,44.175,156.389,115.4,195.8c0.4,0.2,0.7,0.5,1.1,0.7
	c11.023,5.907,22.531,10.859,34.4,14.8l5.4,1.8c21.869,7.107,44.706,10.784,67.7,10.9c123.7,0,224-100.3,224-224
	C480.026,174.545,435.787,99.51,364.5,60.1z M256,426.4c-9.118-0.032-18.217-0.835-27.2-2.4c-9.693-1.606-19.229-4.048-28.5-7.3
	c-1.9-0.6-3.8-1.2-5.6-1.9c-6.511-2.457-12.857-5.329-19-8.6c-55.478-29.624-90.118-87.408-90.1-150.3c0-37.2,12.4-71.4,32.7-99.4
	l237.2,237.2C327.4,414,293.2,426.4,256,426.4z M393.8,355.4L156.6,118.2c28-20.2,62.1-32.6,99.4-32.6
	c9.118,0.037,18.217,0.84,27.2,2.4c9.693,1.606,19.229,4.048,28.5,7.3c1.8,0.6,3.7,1.2,5.6,1.9c6.159,2.332,12.17,5.037,18,8.1
	c56.076,29.398,91.206,87.486,91.2,150.8C426.4,293.3,414,327.4,393.8,355.4z"/>
<polygon points="352,256 318,256 352,290 "/>
<rect x="384" y="256" width="16" height="48"/>
<path d="M360.1,212.7c-8.8-4.1-22-5.7-45.6-5.7h-3.6c-12.7,0.1-15.9-0.1-20-6.1c-2.8-4.2-1-14.8,3.7-21.9
	c1.633-2.451,1.786-5.601,0.4-8.2c-1.405-2.574-4.069-4.211-7-4.3c-6.281-0.218-12.475-1.538-18.3-3.9
	c-10.6-4.5-15.6-12.1-15.6-23.1c0-25.8,21.8-27.7,22.8-27.7v-16c-12,0-38.8,11-38.8,43.7c0,17.5,9,31,25.7,38
	c3.878,1.575,7.896,2.78,12,3.6c-3.3,9.8-3.6,20.9,1.7,28.7c9,13.3,20.3,13.2,33.3,13.1h3.5c26.3,0,34.6,2.3,38.9,4.3
	c5.7,2.6,6.8,7.5,6.6,15.7v1h16v-1C375.8,235.8,376.1,220.1,360.1,212.7z"/>
<path d="M400,244c0-25.7-3-39.2-9.1-49.6C382.3,180,368.5,172,352,172h-17.4c2.9-8.3,5.4-19.8,3.5-30.9c-3.2-18.8-19.1-30-43.1-30
	v16c21,0,26.1,9.1,27.4,16.7c2.5,14.5-6.8,32.1-6.9,32.3c-1.36,2.467-1.322,5.468,0.1,7.9c1.458,2.419,4.076,3.899,6.9,3.9H352
	c10.9,0,19.4,4.9,25.1,14.6c3.1,5.3,6.9,13.5,6.9,41.4h16V244z"/>
</svg>
