<?xml version="1.0" encoding="iso-8859-1"?>
<!-- Generator: Adobe Illustrator 24.3.0, SVG Export Plug-In . SVG Version: 6.00 Build 0)  -->
<svg version="1.1" id="Layer_1" xmlns="http://www.w3.org/2000/svg" xmlns:xlink="http://www.w3.org/1999/xlink" x="0px" y="0px"
	 viewBox="0 0 512 512" style="enable-background:new 0 0 512 512;" xml:space="preserve">
<path d="M473.16,221.48l-2.26-9.59H262.46v88.22H387c-12.93,61.4-72.93,93.72-121.94,93.72c-35.66,0-73.25-15-98.13-39.11
	c-26.511-26.101-41.55-61.677-41.8-98.88c0-37.16,16.7-74.33,41-98.78s61-38.13,97.49-38.13c41.79,0,71.74,22.19,82.94,32.31
	l62.69-62.36C390.86,72.72,340.34,32,261.6,32l0,0c-60.75,0-119,23.27-161.58,65.71C58,139.5,36.25,199.93,36.25,256
	s20.58,113.48,61.3,155.6c43.51,44.92,105.13,68.4,168.58,68.4c57.73,0,112.45-22.62,151.45-63.66
	c38.34-40.4,58.17-96.3,58.17-154.9C475.75,236.77,473.27,222.12,473.16,221.48z"/>
</svg>
