<?xml version="1.0" encoding="iso-8859-1"?>
<!-- Generator: Adobe Illustrator 24.3.0, SVG Export Plug-In . SVG Version: 6.00 Build 0)  -->
<svg version="1.1" id="Layer_1" xmlns="http://www.w3.org/2000/svg" xmlns:xlink="http://www.w3.org/1999/xlink" x="0px" y="0px"
	 viewBox="0 0 512 512" style="enable-background:new 0 0 512 512;" xml:space="preserve">
<path d="M478.8,208.2c0,19.882-16.118,36-36,36s-36-16.118-36-36s16.118-36,36-36l0,0C462.682,172.2,478.8,188.318,478.8,208.2z
	 M442.6,139c-38.052,0.009-69.005,30.65-69.4,68.7l-43.2,62c-1.793-0.2-3.596-0.3-5.4-0.3c-9.299-0.006-18.425,2.518-26.4,7.3
	L102.4,198c-6.13-27.944-33.753-45.627-61.697-39.497S-4.924,192.256,1.207,220.2C6.42,243.965,27.47,260.899,51.8,260.9
	c9.299,0.006,18.425-2.518,26.4-7.3L274,332.2c6.05,27.939,33.604,45.683,61.542,39.633c21.973-4.758,38.362-23.157,40.558-45.533
	l66.5-48.6c38.301,0.005,69.354-31.04,69.359-69.341c0.005-38.301-31.04-69.354-69.341-69.359C442.612,139,442.606,139,442.6,139
	L442.6,139z M442.6,161.9c25.654,0.028,46.428,20.846,46.4,46.5c-0.028,25.654-20.846,46.428-46.5,46.4
	c-25.615-0.028-46.372-20.785-46.4-46.4C396.122,182.728,416.928,161.922,442.6,161.9z M51.8,170.9
	c14.102-0.007,27.059,7.76,33.7,20.2l-18.9-7.6v0.1c-15.666-5.741-33.019,2.305-38.76,17.971C22.36,216.525,29.431,233.165,44,239.6
	v0.1l16.1,6.4c-2.691,0.606-5.442,0.908-8.2,0.9c-21.014,0.028-38.072-16.986-38.1-38C13.772,187.986,30.786,170.928,51.8,170.9z
	 M324.6,283.1c21.042,0.008,38.094,17.072,38.086,38.114c-0.008,21.042-17.072,38.094-38.114,38.086
	c-14.118-0.005-27.077-7.817-33.673-20.3c6.3,2.5,12.5,5,18.8,7.6c15.454,6.375,33.151-0.984,39.526-16.439
	c6.375-15.454-0.984-33.151-16.439-39.526c-0.195-0.08-0.391-0.159-0.587-0.235l-15.9-6.4
	C319.034,283.454,321.812,283.152,324.6,283.1z"/>
</svg>
