<?xml version="1.0" encoding="iso-8859-1"?>
<!-- Generator: Adobe Illustrator 24.3.0, SVG Export Plug-In . SVG Version: 6.00 Build 0)  -->
<svg version="1.1" id="Layer_1" xmlns="http://www.w3.org/2000/svg" xmlns:xlink="http://www.w3.org/1999/xlink" x="0px" y="0px"
	 viewBox="0 0 512 512" style="enable-background:new 0 0 512 512;" xml:space="preserve">
<path d="M5.8,278c-1.081,0.055-1.945,0.919-2,2L0,308.64l3.74,28.16c0.062,1.097,0.952,1.965,2.05,2c1.075-0.068,1.932-0.925,2-2
	l0,0l4.44-28.17L7.83,280c-0.068-1.075-0.925-1.932-2-2H5.8z"/>
<path d="M26.85,262.32c0-1.176-0.954-2.13-2.13-2.13c-1.176,0-2.13,0.954-2.13,2.13l-5,46.32l5,45.3c0,1.176,0.954,2.13,2.13,2.13
	c1.176,0,2.13-0.954,2.13-2.13l5.73-45.31l-5.73-46.32L26.85,262.32z"/>
<path d="M106.17,219.59c-2.109,0.067-3.803,1.761-3.87,3.87l-4,85.22l4,55.08c0.109,2.14,1.932,3.787,4.072,3.678
	c1.988-0.101,3.577-1.69,3.678-3.678l0,0l4.53-55.08l-4.53-85.22C109.982,221.348,108.283,219.652,106.17,219.59z"/>
<path d="M65.12,249.21c-1.637,0.047-2.953,1.363-3,3l-4.52,56.45l4.51,54.63c0,1.657,1.343,3,3,3s3-1.343,3-3l5.13-54.63
	l-5.13-56.48C68.043,250.561,66.74,249.266,65.12,249.21z"/>
<path d="M147.88,367.6c2.602-0.043,4.702-2.138,4.75-4.74l3.93-54.15l-3.93-113.46c0-2.623-2.127-4.75-4.75-4.75
	s-4.75,2.127-4.75,4.75l-3.49,113.45l3.49,54.17C143.173,365.472,145.278,367.568,147.88,367.6z"/>
<path d="M233.28,367.85c3.575-0.054,6.457-2.945,6.5-6.52l0,0l2.74-52.6l-2.74-131c0-3.59-2.91-6.5-6.5-6.5s-6.5,2.91-6.5,6.5
	l-2.45,131c0,0.08,2.45,52.67,2.45,52.67C226.855,364.95,229.729,367.802,233.28,367.85z"/>
<path d="M190.26,367.65c3.1-0.027,5.604-2.54,5.62-5.64l0,0l3.34-53.33l-3.34-114.28c0.131-3.107-2.281-5.731-5.388-5.862
	s-5.731,2.281-5.862,5.388c-0.007,0.158-0.007,0.316,0,0.474l-3,114.29l3,53.32c0.033,3.091,2.539,5.584,5.63,5.6V367.65z"/>
<path d="M85.56,367.15c1.869-0.047,3.377-1.542,3.44-3.41l4.83-55.09L89,256.25c-0.002-1.9-1.543-3.439-3.443-3.437
	c-1.897,0.002-3.435,1.539-3.437,3.437l-4.26,52.38l4.26,55.08C82.152,365.596,83.674,367.118,85.56,367.15z"/>
<path d="M44.84,364.13c1.379-0.05,2.493-1.142,2.57-2.52l5.43-53l-5.42-55c-0.001-1.419-1.152-2.569-2.571-2.569
	c-1.418,0.001-2.568,1.15-2.569,2.569l-4.78,55l4.78,53c0.047,1.389,1.171,2.499,2.56,2.53V364.13z"/>
<path d="M211.69,192.53c-3.353,0.016-6.065,2.737-6.07,6.09l-2.71,110.11l2.71,53c0.136,3.35,2.962,5.955,6.311,5.819
	c3.159-0.128,5.69-2.66,5.819-5.819l0,0l3-53l-3-110.13C217.734,195.258,215.032,192.552,211.69,192.53L211.69,192.53z"/>
<path d="M127,367.71c2.354-0.053,4.252-1.946,4.31-4.3l4.23-54.71L131.26,204c-0.115-2.383-2.14-4.222-4.523-4.107
	c-2.222,0.107-4,1.885-4.107,4.107l-3.74,104.7l3.75,54.73C122.694,365.802,124.627,367.7,127,367.71z"/>
<path d="M174.17,362.54L174.17,362.54l3.63-53.8l-3.63-117.28c0.126-2.864-2.094-5.287-4.957-5.413
	c-2.864-0.126-5.287,2.094-5.413,4.957c-0.007,0.152-0.007,0.304,0,0.456l-3.23,117.28l3.23,53.83c0,2.861,2.319,5.18,5.18,5.18
	c2.861,0,5.18-2.319,5.18-5.18l0,0L174.17,362.54z"/>
<path d="M449,241.1c-8.356-0.012-16.63,1.655-24.33,4.9c-5-57.18-52.61-102-110.66-102c-13.779,0.026-27.434,2.595-40.28,7.58
	c-4.75,1.85-6,3.76-6.06,7.46V360.4c0.056,3.855,2.969,7.068,6.8,7.5c0.16,0,173.44,0.11,174.56,0.11c34.78,0,63-28.41,63-63.45
	s-28.2-63.46-63-63.46L449,241.1z"/>
<path d="M254.79,158.87c-3.843,0.033-6.94,3.157-6.94,7L245,308.75l2.85,51.87c-0.128,3.831,2.874,7.04,6.704,7.168
	c3.831,0.128,7.04-2.874,7.168-6.704c0.006-0.174,0.005-0.349-0.002-0.523v0.06l3.09-51.87l-3.09-142.93
	C261.693,162.001,258.609,158.908,254.79,158.87L254.79,158.87z"/>
</svg>
