<?xml version="1.0" encoding="iso-8859-1"?>
<!-- Generator: Adobe Illustrator 24.3.0, SVG Export Plug-In . SVG Version: 6.00 Build 0)  -->
<svg version="1.1" id="Layer_1" xmlns="http://www.w3.org/2000/svg" xmlns:xlink="http://www.w3.org/1999/xlink" x="0px" y="0px"
	 viewBox="0 0 512 512" style="enable-background:new 0 0 512 512;" xml:space="preserve">
<path id="path80319" d="M380.91,199l42.47-73.57c2.37-4.111,0.976-9.364-3.12-11.76c-4.058-2.382-9.279-1.023-11.661,3.035
	c-0.017,0.028-0.033,0.057-0.049,0.085l-43,74.52c-32.83-15-69.78-23.35-109.52-23.35s-76.69,8.36-109.52,23.35l-43-74.52
	c-2.386-4.109-7.651-5.506-11.76-3.12c-4.109,2.386-5.506,7.651-3.12,11.76L131,199C57.8,238.64,8.19,312.77,0,399.55h512
	C503.81,312.77,454.2,238.64,380.91,199z M138.45,327.65c-11.852,0-21.46-9.608-21.46-21.46c0-11.852,9.608-21.46,21.46-21.46
	c11.852,0,21.46,9.608,21.46,21.46C159.904,318.04,150.3,327.645,138.45,327.65z M373.45,327.65
	c-11.852-0.05-21.42-9.698-21.37-21.55c0.05-11.852,9.698-21.42,21.55-21.37c11.817,0.05,21.37,9.643,21.37,21.46
	c-0.005,11.858-9.622,21.466-21.48,21.46c-0.01,0-0.02,0-0.03,0H373.45z"/>
</svg>
