<?xml version="1.0" encoding="iso-8859-1"?>
<!-- Generator: Adobe Illustrator 24.3.0, SVG Export Plug-In . SVG Version: 6.00 Build 0)  -->
<svg version="1.1" id="Layer_1" xmlns="http://www.w3.org/2000/svg" xmlns:xlink="http://www.w3.org/1999/xlink" x="0px" y="0px"
	 viewBox="0 0 512 512" style="enable-background:new 0 0 512 512;" xml:space="preserve">
<path d="M376.76,32H138.54C105.67,32,96,56.8,96,72.41v379.64c0,17.59,9.42,24.12,14.72,26.27s19.91,4,28.67-6.17
	c0,0,112.47-130.89,114.4-132.83c2.92-2.93,2.92-2.93,5.84-2.93h72.77c30.58,0,35.49-21.87,38.69-34.75
	c2.65-10.79,32.48-164,42.45-212.56C421.14,52,411.74,32,376.76,32z M371.09,301.64c2.65-10.79,32.48-164,42.45-212.56
	 M362.69,96.67l-10,51.73c-1.19,5.65-8.28,11.6-14.86,11.6h-95.92c-10.44,0-17.91,6.14-17.91,16.6v13.45
	c0,10.47,7.52,17.89,18,17.89h81.85c7.38,0,14.61,8.11,13,16s-9.09,46.57-10,50.89s-5.84,11.72-14.61,11.72H248
	c-11.7,0-15.24,1.54-23.07,11.3s-78.26,94.59-78.26,94.59c-0.71,0.82-1.41,0.58-1.41-0.31V95.9c0-6.69,5.8-14.53,14.48-14.53h191.14
	c6.858,0.15,12.296,5.83,12.146,12.688C363.007,94.938,362.894,95.814,362.69,96.67L362.69,96.67z"/>
</svg>
