<?xml version="1.0" encoding="iso-8859-1"?>
<!-- Generator: Adobe Illustrator 24.3.0, SVG Export Plug-In . SVG Version: 6.00 Build 0)  -->
<svg version="1.1" id="Layer_1" xmlns="http://www.w3.org/2000/svg" xmlns:xlink="http://www.w3.org/1999/xlink" x="0px" y="0px"
	 viewBox="0 0 512 512" style="enable-background:new 0 0 512 512;" xml:space="preserve">
<path d="M496,347.21c-11.064-0.811-22.036-2.588-32.79-5.31c-27.28-6.63-54.84-24.26-68.12-52.43c-6.9-14.63-2.64-18.59,11.86-24
	c14.18-5.27,29.8-7.72,36.86-23c5.89-12.76,1.13-27.76-10.41-35.49c-15.71-10.53-30.35-0.21-46.62,2.07
	c3.73-46.66,8.66-88.57-22.67-127.73C338.14,48.86,297.34,32,256.29,32s-81.86,16.86-107.81,49.33
	c-31.38,39.26-26.4,81.18-22.67,127.92C109.49,207,95,196.46,79.18,207.07c-14.72,9.85-17,29.76-5.44,43s31.64,9.5,43.45,20.6
	c6.49,6.09,3.49,12.61-0.35,20.14c-14.48,28.4-39.26,45.74-69.84,51.56c-4,0.76-22.31,2.87-31,3.65c0,9.28,0.52,16.78,1.63,21.73
	c2.94,13.06,12.32,23.58,23.69,30.1c11.18,6.4,35.48,6.43,41.68,15.51c3,4.48,1.76,12.28,5.33,17.38
	c3.629,5.158,9.157,8.665,15.37,9.75c18.61,3.61,37.32-7.2,56.42-2.1c14.85,3.95,26.52,15.87,39.26,24
	c15.51,9.85,32.34,16.42,50.83,17.49c38.1,2.21,59.93-18.91,90.58-36.42c19.5-11.14,38.15-3.86,58.88-2.68
	c20.1,1.15,23.53-9.25,29.62-24.88c0.663-1.565,1.178-3.189,1.54-4.85c0.82-0.39,1.587-0.884,2.28-1.47
	c2-1.57,10.55-2.34,12.76-2.86c10.28-2.44,20.34-5.15,29.17-11.2c11.31-7.76,17.65-18.5,19.58-32.64
	C495.518,357.705,495.98,352.463,496,347.21z M208,128c8.84,0,16,10.74,16,24s-7.16,24-16,24s-16-10.74-16-24S199.16,128,208,128z
	 M311.62,205.7c-15.25,15-35,23.3-55.62,23.3c-20.925-0.037-40.967-8.441-55.66-23.34c-3.126-3.126-3.126-8.194,0-11.32
	s8.194-3.126,11.32,0c11.696,11.891,27.661,18.61,44.34,18.66c16.39,0,32.15-6.64,44.39-18.7c3.148-3.101,8.214-3.063,11.315,0.085
	S314.768,202.599,311.62,205.7L311.62,205.7L311.62,205.7z M304,176c-8.84,0-16-10.75-16-24s7.16-24,16-24s16,10.75,16,24
	S312.84,176,304,176z"/>
</svg>
