<?xml version="1.0" encoding="iso-8859-1"?>
<!-- Generator: Adobe Illustrator 24.3.0, SVG Export Plug-In . SVG Version: 6.00 Build 0)  -->
<svg version="1.1" id="Layer_1" xmlns="http://www.w3.org/2000/svg" xmlns:xlink="http://www.w3.org/1999/xlink" x="0px" y="0px"
	 viewBox="0 0 512 512" style="enable-background:new 0 0 512 512;" xml:space="preserve">
<path d="M444.17,32H70.28C49.85,32,32,46.7,32,66.89v374.72C32,461.91,49.85,480,70.28,480h373.78c20.54,0,35.94-18.21,35.94-38.39
	V66.89C480.12,46.7,464.6,32,444.17,32z M170.87,405.43h-64.18V205.88h64.18V405.43z M141,175.54h-0.46
	c-20.54,0-33.84-15.29-33.84-34.43c0-19.49,13.65-34.42,34.65-34.42s33.85,14.82,34.31,34.42
	C175.65,160.25,162.35,175.54,141,175.54z M405.43,405.43h-64.18V296.32c0-26.14-9.34-44-32.56-44c-17.74,0-28.24,12-32.91,23.69
	c-1.75,4.2-2.22,9.92-2.22,15.76v113.66h-64.18V205.88h64.18v27.77c9.34-13.3,23.93-32.44,57.88-32.44c42.13,0,74,27.77,74,87.64
	L405.43,405.43z"/>
</svg>
