<?xml version="1.0" encoding="iso-8859-1"?>
<!-- Generator: Adobe Illustrator 24.3.0, SVG Export Plug-In . SVG Version: 6.00 Build 0)  -->
<svg version="1.1" id="Layer_1" xmlns="http://www.w3.org/2000/svg" xmlns:xlink="http://www.w3.org/1999/xlink" x="0px" y="0px"
	 viewBox="0 0 512 512" style="enable-background:new 0 0 512 512;" xml:space="preserve">
<path d="M443.66,405.05c-1.46-0.79-2.85-1.54-4-2.2c-6.47-3.83-13-10.52-11.85-17.83c2.42-15.94,2.89-23.47-0.49-28.79
	c-1.819-2.841-4.51-5.017-7.67-6.2v-0.06c1.41-2.56,2.26-5.66,2.83-10.12c1.44-11-5-44-13.7-70.7c-8.08-24.68-29.24-50-44.7-68.56
	l-3.61-4.34c-23.88-28.93-24.34-38.19-26.55-82.67c-0.32-6.47-0.69-13.8-1.17-22C329.87,41.43,304,16,256,16
	c-25.2,0-44.62,7.15-57.72,21.26C187.79,48.55,182,64,182,80.78c0,29.52,2,53,2.15,54.29c1.4,35.7,1,41.22-8.31,57.55
	c-2.23,3.93-8.38,10.87-14.89,18.21c-8.48,9.57-18.09,20.41-23.36,29.22c-3.77,6.31-5.88,12.63-8.11,19.33
	c-3.4,10.21-7.26,21.78-18.15,36.57c-12.57,17.07-15.52,29.61-11,47.45l0,0c-4.94,6.45-4.83,14.37-4.75,20.23
	c0.141,2.035,0.04,4.079-0.3,6.09c-2.29,7.59-12.42,9.4-22,10.18c-1.58,0.12-3.1,0.21-4.55,0.29c-7.26,0.39-13.53,0.74-17.13,6.3
	c-3.47,5.36-1.12,13.8,2.14,25.48c0.72,2.58,1.46,5.25,2.19,8.06c1.83,7-0.16,10.48-2.68,14.84c-2.44,4.21-5.21,9-5.21,17.55
	c0,14.67,20,18,43.05,21.94c7.36,1.24,15,2.53,22.63,4.24c11.624,2.654,23.02,6.225,34.08,10.68c9.72,3.73,17.4,6.68,26.43,6.68
	c16.18,0,28.25-9.77,39.92-19.21l2.15-1.75c5.53-4.49,21.5-4,34.34-3.64c3.46,0.1,6.73,0.2,9.65,0.2h6.22
	c13.48-0.08,31.94-0.18,42.23,2.5c3.75,1,6.2,3.72,9.29,7.19c5.87,6.56,13.17,14.75,33.39,14.75c19.39,0,29.55-8.71,41.32-18.8
	c7.16-6.13,14.56-12.48,25.07-17.86c3.92-2,7.62-3.87,11.08-5.61c22.64-11.38,35.11-17.65,35.11-27.82
	C464,416,451.76,409.41,443.66,405.05z M211.11,88.38c5.588,0.221,10.5,3.766,12.47,9c1.95,5.55,1.81,10.42,0.21,12.94
	c0,0-0.22-1-0.36-1.44c-1-3.566-3.297-6.63-6.44-8.59c-2.647-1.71-5.885-2.242-8.94-1.47c-4.26,1.13-8.41,5-8.91,18.79
	c-5.16-10.47-2.31-18,0.92-23C202.37,90.88,207.53,88.28,211.11,88.38z M193.61,463.38C192,479.24,175.2,479,170.09,478.59
	c-9.81-0.82-21.66-4.69-33.13-8.43c-4.52-1.47-9.19-3-13.73-4.34c-13.2-3.89-30.12-6.74-43.72-9c-3.22-0.55-6.27-1.06-9.05-1.55
	s-4.61-1.27-5.2-2.3c-1-1.65,0.38-5.25,1.93-9.41C69.27,438,72.11,430.34,72,421c0-3.91-1.47-8.3-2.84-12.56
	c-1.62-5-3.28-10.17-1.93-12.62c1.23-2.23,6.75-2.49,11.6-2.49h2.26c3.55,0,6.62,0.06,8.75-0.53c6.51-1.81,14.86-6.92,17.81-13.88
	c0.9-2.17,1.37-6.94,2-14c0.37-4.12,0.74-8.37,1.22-10.58c0.24-1.146,1.029-2.1,2.11-2.55c1.65-0.77,6.78-1.91,18.63,4.08
	c11.18,5.65,22.88,25.84,34.2,45.37c3.56,6.14,6.92,11.94,10.3,17.36c14.04,22.54,18.83,31.6,17.5,44.8V463.38z M322.45,431.82
	c-1.201,3.757-2.723,7.404-4.55,10.9c-0.13,0.293-0.472,0.425-0.765,0.296c-0.274-0.121-0.411-0.432-0.315-0.716
	c1.712-5.986,2.425-12.212,2.11-18.43c-0.25-4.73-0.4-7.59-2.66-8.51s-4.26,0.83-9.45,5.54c-1.1,1-2.36,2.14-3.78,3.4
	c-10.8,9.47-26.88,20.68-55.61,23.37c-16.84,1.59-27.59-4.63-30.92-8.14c-0.817-0.87-2.184-0.913-3.053-0.096
	c-0.006,0.005-0.011,0.011-0.017,0.016c-0.59,0.605-0.788,1.492-0.51,2.29c2.12,6.84,1.2,12.26-0.49,16.19
	c-0.95,2.2-1.85,2.05-2-0.34c-0.25-4.64-1-9.88-3-14.19c-3.11-6.94-7-14.34-8.89-17.88v-0.05c3.24-1.49,8.86-4.83,11.37-10.88
	s4.48-18-9.82-31.74c-6.28-6.05-22.1-17.16-36.06-27c-10.9-7.65-22.17-15.56-23.65-17.51c-4.49-5.89-6.37-9.3-6.94-19.65
	c0.07-2.3,0.13-4.59,0.19-6.89l0.27-2.49c0.042-0.318,0.333-0.541,0.651-0.499c0.26,0.034,0.465,0.239,0.499,0.499
	c0.41,3.288,1.079,6.538,2,9.72c1.08,3.73,2.4,7.58,3.62,9.18c3.19,4.22,7.56,7.39,11.67,8.49c1.684,0.588,3.55,0.32,5-0.72
	c2.93-2.33,2.65-7.6,2.19-16.34c-0.47-9-1.11-21.34,1.85-34.55c5.62-25,10.91-32.51,17.61-42c0.86-1.22,1.75-2.47,2.65-3.79
	c1.44-2.08,3-4.1,4.67-6.23c7.47-9.61,15.93-20.49,13.92-40.95c-0.51-5.19-0.76-8.83-0.86-11.39c-0.073-0.547,0.312-1.05,0.86-1.123
	c0.418-0.055,0.827,0.158,1.02,0.533l0.49,0.77l1.21,2c4.86,8,13.64,22.57,25.1,22.57c0.791-0.001,1.581-0.072,2.36-0.21
	c23.39-3.93,51.9-30.25,52.17-30.51c3.12-3,2.84-6.14,1.64-7.91c-1.445-2.067-4.168-2.793-6.45-1.72c-3.29,1.4-7.14,3.15-11.22,5
	c-13.82,6.27-37,16.75-42.25,14.34c-2.394-1.323-4.533-3.06-6.32-5.13c-0.456-0.315-0.57-0.939-0.255-1.395
	c0.315-0.456,0.939-0.57,1.395-0.255l0,0c5.59,2.29,9.55,1.45,14.2-0.08l1-0.34c9.37-3.09,14.2-4.77,30.76-12.08
	c5.234-2.455,10.675-4.439,16.26-5.93c4-1,6.42-1.63,7.71-4.34c1.233-2.272,1.038-5.053-0.5-7.13c-1.53-1.87-4.07-2.57-7-1.9
	c-3.22,0.75-4.7,3-6.41,4.49c-2.4,2.05-5,4.16-17.19,8.65c-27,10-34.58,10.61-45.21,3.43c-9.84-6.69-15.15-13.23-15.15-16
	c0-2.13,5.45-5.7,8.71-7.84c1.33-0.87,2.59-1.69,3.62-2.46c4.34-3.22,13-11.39,13.38-11.73c5.4-5.41,17.91-2.18,25,2.58
	c0.492,0.368,1.115,0.516,1.72,0.41c1.16-0.224,1.92-1.346,1.695-2.507c-0.005-0.024-0.01-0.049-0.015-0.073
	c-4.2-17.46-0.13-27.34,4-32.55c4.251-5.317,10.673-8.433,17.48-8.48c12.81,0,21.76,10,21.76,24.42c0,11-2.82,16.79-5.48,20.3
	c-0.583,0.757-1.67,0.897-2.426,0.314c-0.054-0.041-0.105-0.086-0.154-0.134c-0.582-0.588-0.681-1.5-0.24-2.2
	c2.214-3.796,3.37-8.116,3.35-12.51c0.051-9.157-7.331-16.621-16.488-16.672c-0.117-0.001-0.235,0-0.352,0.002
	c-3.94,0-13.48,1.5-16.77,15.44c-0.804,3.636-0.919,7.391-0.34,11.07l0.08,0.71c0.9,7.38,15.3,12.51,27.23,15.51
	c11.36,2.85,13,6.22,8.84,19.63s3.11,26.23,5.7,29.57c3.162,3.881,5.945,8.057,8.31,12.47c2.723,5.272,4.94,10.79,6.62,16.48
	c2.17,6.79,4.05,12.65,10.63,21.22c11.07,14.4,17.66,48.64,15,78c-0.21,2.41-0.53,4.29-0.77,5.67c-0.43,2.53-0.72,4.2,0.66,5.38
	s3.16,0.7,7.26-0.63l3.43-1.09c4.135-1.18,8.335-2.115,12.58-2.8c0.686-0.107,1.278-0.539,1.59-1.16c3.43-6.91,3.85-15.22,4-22.47
	c0-0.873,0.02-1.803,0.06-2.79c0.19-7.77,0.45-18.93-2.95-32c-0.177-0.533,0.112-1.108,0.645-1.285s1.108,0.112,1.285,0.645
	c3.424,8.157,5.666,16.76,6.66,25.55c2.55,22.58-1.9,32.09-1.94,32.17c-0.396,0.796-0.071,1.763,0.725,2.158
	c0.073,0.036,0.148,0.067,0.225,0.092c2.668,0.957,5.056,2.562,6.95,4.67c1.46,1.66,0.93,2.4-1.14,1.62
	c-4.084-1.525-8.41-2.301-12.77-2.29c-10.4,0-18.09,4.95-21.51,9.19c-3.19,3.94-3.7,7.67-3.83,11.27l-0.06,0.05
	c-7.48-0.75-12.94,1.21-17.47,6.21l-0.08,0.09c-6.26,7.75-4,24.63-1.29,38.48l0,0c1.28,6.45,5.59,25.52,1.73,37.68V431.82z
	 M418.55,441.89c-15.71,6.71-25.43,14.51-34,21.39c-5.65,4.53-11,8.81-17.28,12.14c-10.12,5.34-24.91,6.53-33.27-7.7
	c-2.37-4-0.71-9.86,1.58-17.95c3.05-10.75,7.23-25.46,3.71-44.65c-0.94-5.12-1.77-9.51-2.49-13.31C334,377,332.9,371.43,334,367
	c0.63-2.45,3.43-3,5.87-3c0.88,0.008,1.758,0.071,2.63,0.19l0,0c1.331,4.536,3.731,8.686,7,12.1c5.7,5.86,13.63,8.83,23.56,8.85
	c2.1,0.17,25.94,1.55,36.54-22.4l0,0c1.46,0.18,3.65,0.7,4.3,2.3c1.28,3.19-0.27,8.91-1.52,13.5c-0.9,3.31-1.68,6.16-1.63,8.37
	c0.31,16,11,22.78,25.83,32.16c1.79,1.13,3.66,2.31,5.55,3.54S445,425,445,426c-0.52,4.79-20,13.16-26.45,15.91L418.55,441.89z"/>
</svg>
