<?xml version="1.0" encoding="iso-8859-1"?>
<!-- Generator: Adobe Illustrator 24.3.0, SVG Export Plug-In . SVG Version: 6.00 Build 0)  -->
<svg version="1.1" id="Layer_1" xmlns="http://www.w3.org/2000/svg" xmlns:xlink="http://www.w3.org/1999/xlink" x="0px" y="0px"
	 viewBox="0 0 512 512" style="enable-background:new 0 0 512 512;" xml:space="preserve">
<path style="fill-rule:evenodd;clip-rule:evenodd;" d="M414.73,97.1C372.902,55.252,316.108,31.82,256.94,32
	C134,32,33.92,131.58,33.87,254c-0.054,38.981,10.221,77.281,29.78,111L32,480l118.25-30.87c32.732,17.732,69.373,27.013,106.6,27
	h0.09c122.93,0,223-99.59,223.06-222C480.15,195.158,456.638,138.59,414.73,97.1z M256.94,438.66h-0.08
	c-33.186,0.01-65.769-8.871-94.36-25.72l-6.77-4l-70.17,18.32l18.73-68.09l-4.41-7C81.324,322.792,71.492,288.748,71.53,254
	c0-101.73,83.21-184.5,185.48-184.5c102.161-0.182,185.131,82.479,185.33,184.64C442.3,355.88,359.13,438.66,256.94,438.66z
	 M358.63,300.47c-5.57-2.78-33-16.2-38.08-18.05s-8.83-2.78-12.54,2.78s-14.4,18-17.65,21.75s-6.5,4.16-12.07,1.38
	s-23.54-8.63-44.83-27.53c-16.57-14.71-27.75-32.87-31-38.42s-0.35-8.56,2.44-11.32c2.51-2.49,5.57-6.48,8.36-9.72
	s3.72-5.56,5.57-9.26s0.93-6.94-0.46-9.71s-12.54-30.08-17.18-41.19c-4.53-10.82-9.12-9.35-12.54-9.52c-3.25-0.16-7-0.2-10.69-0.2
	c-5.702,0.148-11.086,2.663-14.86,6.94c-5.11,5.56-19.51,19-19.51,46.28s20,53.68,22.76,57.38s39.3,59.73,95.21,83.76
	c10.382,4.446,20.99,8.345,31.78,11.68c13.35,4.22,25.5,3.63,35.1,2.2c10.71-1.59,33-13.42,37.63-26.38s4.64-24.06,3.25-26.37
	S364.21,303.24,358.63,300.47z"/>
</svg>
