<?xml version="1.0" encoding="iso-8859-1"?>
<!-- Generator: Adobe Illustrator 24.3.0, SVG Export Plug-In . SVG Version: 6.00 Build 0)  -->
<svg version="1.1" id="Layer_1" xmlns="http://www.w3.org/2000/svg" xmlns:xlink="http://www.w3.org/1999/xlink" x="0px" y="0px"
	 viewBox="0 0 512 512" style="enable-background:new 0 0 512 512;" xml:space="preserve">
<polygon points="242.69,340.3 269.31,340.3 269.31,267.7 336.31,267.7 336.31,241.88 269.31,241.88 269.31,169.28 242.69,169.28 
	242.69,241.88 176.54,241.88 176.54,267.7 242.69,267.7 "/>
<polygon points="119.26,445.18 141.85,445.18 141.85,380.64 201.55,380.64 201.55,360.47 141.85,360.47 141.85,295.13 
	119.26,295.13 119.26,360.47 59.56,360.47 59.56,380.64 119.26,380.64 "/>
<polygon points="370.15,212 392.74,212 392.74,147.5 453.24,147.5 453.24,128.13 392.74,128.13 392.74,62.79 370.15,62.79 
	370.15,128.13 310.45,128.13 310.45,147.5 370.15,147.5 "/>
<polygon points="246.72,496 266.08,496 266.08,450 307.23,450 307.23,433.08 266.08,433.08 266.08,387.08 246.72,387.08 
	246.72,433.08 206.39,433.08 206.39,450 246.72,450 "/>
<polygon points="120.07,212 141.07,212 141.07,146.69 201.58,146.69 201.58,128.13 141,128.13 141,62.79 120,62.79 120,128.13 
	59.56,128.13 59.56,146.69 120.07,146.69 "/>
<polygon points="435.72,308.84 455.08,308.84 455.08,263.66 496,263.66 496,245.92 455.08,245.92 455.08,200.74 435.72,200.74 
	435.72,245.92 395.39,245.92 395.39,263.66 435.72,263.66 "/>
<polygon style="fill-rule:evenodd;clip-rule:evenodd;" points="370.15,445.18 392.74,445.18 392.74,380.64 453.24,380.64 
	453.24,360.47 392.74,360.47 392.74,295.13 370.15,295.13 370.15,360.47 310.45,360.47 310.45,380.64 370.15,380.64 "/>
<path d="M307,74.08V60.37h-40.34V16h-14.52v44.37h-40.33v13.71h40.33v44.37h14.52V74.08H307z M56.11,305.61h14.52v-44.37H111v-13.71
	H70.63V204H56.11v43.56H16v14.52L56.11,262V305.61z"/>
</svg>
