<?xml version="1.0" encoding="iso-8859-1"?>
<!-- Generator: Adobe Illustrator 24.3.0, SVG Export Plug-In . SVG Version: 6.00 Build 0)  -->
<svg version="1.1" id="Layer_1" xmlns="http://www.w3.org/2000/svg" xmlns:xlink="http://www.w3.org/1999/xlink" x="0px" y="0px"
	 viewBox="0 0 512 512" style="enable-background:new 0 0 512 512;" xml:space="preserve">
<rect x="175.98" y="399.581" width="32" height="80"/>
<rect x="67.131" y="388.43" transform="matrix(0.7071 -0.7071 0.7071 0.7071 -254.5999 194.2112)" width="79.998" height="32"/>
<rect x="31.98" y="303.581" width="80" height="32"/>
<path d="M422.2,89.82c-56.199-56.272-147.374-56.332-203.647-0.133c-0.021,0.021-0.042,0.042-0.063,0.063l-67.88,67.88l67.88,67.89
	l67.88-67.89c18.746-18.745,49.138-18.744,67.882,0.002c0.194,0.194,0.387,0.39,0.578,0.588c18.3,18.92,17.48,49.24-1.14,67.86
	l-67.32,67.32l67.88,67.88l66.91-66.91C477.53,238,478.53,146.22,422.2,89.82z"/>
<rect x="107.287" y="188.831" transform="matrix(0.7071 -0.7071 0.7071 0.7071 -126.6688 167.8571)" width="64" height="96"/>
<rect x="243.058" y="324.584" transform="matrix(0.7071 -0.7071 0.7071 0.7071 -182.8943 303.6225)" width="64" height="96"/>
</svg>
