<?xml version="1.0" encoding="iso-8859-1"?>
<!-- Generator: Adobe Illustrator 24.3.0, SVG Export Plug-In . SVG Version: 6.00 Build 0)  -->
<svg version="1.1" id="Layer_1" xmlns="http://www.w3.org/2000/svg" xmlns:xlink="http://www.w3.org/1999/xlink" x="0px" y="0px"
	 viewBox="0 0 512 512" style="enable-background:new 0 0 512 512;" xml:space="preserve">
<path d="M433.144,305.133l-22.627-22.627c49.907-49.908,49.907-131.114,0-181.023c-24.177-24.176-56.321-37.491-90.512-37.491
	s-66.335,13.314-90.511,37.491l-22.628-22.627c30.22-30.221,70.4-46.864,113.139-46.864s82.919,16.643,113.139,46.863
	C495.528,141.241,495.528,242.749,433.144,305.133z"/>
<path d="M365.346,237.161l-22.811-22.442c12.375-12.578,12.209-32.878-0.369-45.253c-12.373-12.174-32.509-12.175-44.886,0
	l-22.441-22.812c12.046-11.851,27.986-18.378,44.885-18.378c16.899,0,32.84,6.527,44.886,18.378
	C389.765,171.404,390.096,212.005,365.346,237.161z"/>
<path d="M192,480c-8.836,0-16-7.163-16-16v-48c0-8.837,7.164-16,16-16s16,7.163,16,16v48C208,472.837,200.836,480,192,480z"/>
<path d="M90.18,437.82c-4.095,0-8.189-1.562-11.314-4.687c-6.248-6.248-6.248-16.379,0-22.627l33.94-33.939
	c6.248-6.249,16.379-6.249,22.627,0c6.248,6.248,6.248,16.379,0,22.627l-33.94,33.939C98.37,436.257,94.274,437.82,90.18,437.82z"/>
<path d="M96,336H48c-8.836,0-16-7.163-16-16s7.164-16,16-16h48c8.836,0,16,7.163,16,16S104.836,336,96,336z"/>
<path d="M150.295,296.538c-12.291,0-24.581-4.678-33.938-14.033l-22.658-22.607c-18.728-18.725-18.732-49.177-0.019-67.894
	L206.869,78.854l22.623,22.632l-113.18,113.14c-6.239,6.241-6.238,16.392,0.001,22.629l22.659,22.608
	c6.249,6.249,16.398,6.249,22.636,0.012l113.139-113.129l22.627,22.628l-113.14,113.13
	C174.876,291.86,162.585,296.538,150.295,296.538z"/>
<path d="M286.06,432.352c-12.239,0-24.477-4.638-33.819-13.915c-0.042-0.042-0.085-0.084-0.127-0.126l-22.62-22.631
	c-9.063-9.061-14.057-21.113-14.059-33.935c-0.001-12.783,4.96-24.805,13.975-33.862c0.029-0.029,0.058-0.059,0.086-0.087
	l113.128-113.168l22.631,22.623L252.195,350.352c-0.025,0.025-0.051,0.052-0.077,0.077c-6.236,6.237-6.234,16.388,0.004,22.625
	l22.523,22.534c0.034,0.034,0.069,0.069,0.104,0.104c6.238,6.236,16.389,6.234,22.627-0.004l113.139-113.18l22.631,22.623
	l-113.14,113.181C310.647,427.672,298.354,432.352,286.06,432.352z"/>
<rect x="157.54" y="155.923" transform="matrix(0.7072 -0.7071 0.7071 0.7072 -93.3664 182.4194)" width="32" height="96.004"/>
<rect x="293.306" y="291.689" transform="matrix(0.7071 -0.7072 0.7072 0.7071 -149.6055 318.2378)" width="31.999" height="96.004"/>
</svg>
