<?xml version="1.0" encoding="iso-8859-1"?>
<!-- Generator: Adobe Illustrator 24.3.0, SVG Export Plug-In . SVG Version: 6.00 Build 0)  -->
<svg version="1.1" id="Layer_1" xmlns="http://www.w3.org/2000/svg" xmlns:xlink="http://www.w3.org/1999/xlink" x="0px" y="0px"
	 viewBox="0 0 512 512" style="enable-background:new 0 0 512 512;" xml:space="preserve">
<path d="M191.98,479.79c-8.836,0-16-7.163-16-16v-48c0-8.837,7.164-16,16-16s16,7.163,16,16v48
	C207.98,472.627,200.816,479.79,191.98,479.79z"/>
<path d="M90.16,437.61c-4.095,0-8.189-1.562-11.314-4.687c-6.248-6.248-6.248-16.379,0-22.627l33.94-33.939
	c6.248-6.249,16.379-6.249,22.627,0c6.248,6.248,6.248,16.379,0,22.627l-33.94,33.939C98.35,436.047,94.254,437.61,90.16,437.61z"/>
<path d="M95.98,335.79h-48c-8.836,0-16-7.163-16-16s7.164-16,16-16h48c8.836,0,16,7.163,16,16S104.816,335.79,95.98,335.79z"/>
<path d="M267.56,312.32l-31.11,31.11c-6.249,6.248-6.25,16.378-0.003,22.627c0.001,0.001,0.002,0.002,0.003,0.003l45.26,45.25
	c6.248,6.243,16.372,6.243,22.62,0l31.12-31.11c1.563-1.561,1.564-4.094,0.003-5.657c-0.001-0.001-0.002-0.002-0.003-0.003
	l-62.23-62.22c-1.561-1.563-4.094-1.564-5.657-0.003C267.562,312.318,267.561,312.319,267.56,312.32z"/>
<path d="M131.8,176.55l-31.11,31.12c-6.243,6.248-6.243,16.372,0,22.62l45.25,45.26c6.248,6.249,16.378,6.25,22.627,0.003
	c0.001-0.001,0.002-0.002,0.003-0.003l31.11-31.11c1.563-1.561,1.564-4.094,0.003-5.657c-0.001-0.001-0.002-0.002-0.003-0.003
	l-62.22-62.23c-1.561-1.563-4.094-1.564-5.657-0.003C131.802,176.548,131.801,176.549,131.8,176.55z"/>
<path d="M428.85,83.28c-56.201-56.27-147.377-56.325-203.647-0.123c-0.021,0.021-0.042,0.042-0.063,0.063l-65.06,65.05
	c-1.563,1.561-1.564,4.094-0.003,5.657c0.001,0.001,0.002,0.002,0.003,0.003l62.23,62.22c1.561,1.563,4.094,1.564,5.657,0.003
	c0.001-0.001,0.002-0.002,0.003-0.003l65-65.05c18.746-18.745,49.138-18.744,67.882,0.002c0.194,0.194,0.387,0.39,0.578,0.588
	c18.3,18.92,17.47,49.24-1.14,67.85L295.85,284c-1.563,1.561-1.564,4.094-0.003,5.657c0.001,0.001,0.002,0.002,0.003,0.003
	l62.22,62.23c1.561,1.563,4.094,1.564,5.657,0.003c0.001-0.001,0.002-0.002,0.003-0.003l64.08-64.08
	C484.18,231.47,485.18,139.68,428.85,83.28z"/>
</svg>
