<?xml version="1.0" encoding="iso-8859-1"?>
<!-- Generator: Adobe Illustrator 24.3.0, SVG Export Plug-In . SVG Version: 6.00 Build 0)  -->
<svg version="1.1" id="Layer_1" xmlns="http://www.w3.org/2000/svg" xmlns:xlink="http://www.w3.org/1999/xlink" x="0px" y="0px"
	 viewBox="0 0 512 512" style="enable-background:new 0 0 512 512;" xml:space="preserve">
<path d="M496,128.05c0.051-35.346-28.561-64.041-63.908-64.092C416.45,63.935,401.341,69.642,389.62,80l0,0
	c-5.002,4.412-9.29,9.574-12.71,15.3v0.06c-0.54,0.9-1.05,1.82-1.55,2.74l-0.24,0.49c-0.42,0.79-0.81,1.59-1.19,2.4
	c-0.12,0.25-0.23,0.5-0.34,0.75c-0.33,0.73-0.65,1.47-0.95,2.22c-0.13,0.31-0.25,0.62-0.37,0.93c-0.27,0.7-0.53,1.4-0.78,2.11
	l-0.36,1.06c-0.22,0.68-0.43,1.37-0.63,2.06c-0.12,0.39-0.23,0.77-0.33,1.16c-0.19,0.67-0.35,1.35-0.51,2
	c-0.1,0.41-0.2,0.82-0.29,1.23c-0.14,0.68-0.27,1.37-0.39,2c-0.08,0.42-0.16,0.84-0.23,1.26c-0.11,0.7-0.2,1.41-0.29,2.12
	c-0.05,0.41-0.11,0.82-0.16,1.24c-0.08,0.77-0.13,1.54-0.19,2.32c0,0.36-0.06,0.72-0.08,1.08c-0.06,1.14-0.1,2.28-0.1,3.44l0,0
	c0,1,0,2,0.08,2.94v0.64c0.053,0.94,0.123,1.88,0.21,2.82l0.06,0.48c0.09,0.85,0.19,1.69,0.32,2.52c0,0.17,0,0.35,0.07,0.52
	c0.14,0.91,0.31,1.81,0.49,2.71c0,0.22,0.09,0.43,0.13,0.65c0.18,0.86,0.38,1.72,0.6,2.57c0,0.07,0,0.13,0,0.19
	c0.23,0.89,0.48,1.76,0.75,2.63l0.21,0.68c0.27,0.85,0.55,1.68,0.85,2.51c0.06,0.18,0.13,0.36,0.2,0.54
	c0.27,0.71,0.55,1.42,0.84,2.12c0.08,0.21,0.16,0.41,0.25,0.61c0.34,0.79,0.69,1.58,1.06,2.36l0.33,0.67c0.35,0.7,0.7,1.4,1.07,2.09
	c5.22,9.701,12.843,17.9,22.14,23.81l0,0c2.44,1.559,4.987,2.946,7.62,4.15l0.39,0.18c1.773,0.8,3.583,1.52,5.43,2.16l0.95,0.32
	l1.5,0.47c0.45,0.14,0.9,0.26,1.36,0.39l1.92,0.5l1.73,0.4l1.15,0.23l1.83,0.33l0.94,0.15c0.9,0.13,1.81,0.25,2.72,0.35l0.77,0.07
	c0.73,0.06,1.47,0.12,2.21,0.16l0.86,0.05c1,0,1.94,0.08,2.92,0.08l0,0c1.16,0,2.3,0,3.44-0.1l1.08-0.08
	c0.78-0.06,1.55-0.11,2.32-0.19l1.25-0.16c0.7-0.09,1.41-0.18,2.11-0.29l1.26-0.23c0.68-0.12,1.37-0.25,2-0.39l1.23-0.29
	c0.68-0.16,1.36-0.32,2-0.51c0.39-0.1,0.77-0.21,1.16-0.33c0.69-0.2,1.38-0.41,2.06-0.63l1.06-0.36c0.71-0.25,1.41-0.51,2.11-0.78
	l0.93-0.37c0.75-0.3,1.49-0.62,2.22-0.95l0.75-0.34c0.81-0.38,1.61-0.77,2.4-1.19l0.49-0.24c0.92-0.5,1.84-1,2.74-1.55h0.06
	c5.772-3.393,10.982-7.664,15.44-12.66l0,0C490.326,158.699,496.017,143.641,496,128.05z"/>
<path d="M371.38,202.53l-105.56,82.1c-5.777,4.491-13.863,4.491-19.64,0l-144-112c-7.052-5.325-8.451-15.359-3.126-22.41
	c5.325-7.052,15.359-8.451,22.41-3.126c0.12,0.091,0.238,0.183,0.356,0.277L256,251.73l94.22-73.28
	c-18.575-30.05-19.117-67.881-1.41-98.45H88c-30.914,0.033-55.967,25.086-56,56v240c0.033,30.914,25.086,55.967,56,56h336
	c30.914-0.033,55.967-25.086,56-56V211.19C445.514,231.166,402.265,227.718,371.38,202.53z"/>
</svg>
