<?xml version="1.0" encoding="iso-8859-1"?>
<!-- Generator: Adobe Illustrator 24.3.0, SVG Export Plug-In . SVG Version: 6.00 Build 0)  -->
<svg version="1.1" id="Layer_1" xmlns="http://www.w3.org/2000/svg" xmlns:xlink="http://www.w3.org/1999/xlink" x="0px" y="0px"
	 viewBox="0 0 512 512" style="enable-background:new 0 0 512 512;" xml:space="preserve">
<path d="M424,432H88c-30.878,0-56-25.121-56-56V136c0-30.878,25.122-56,56-56h336c30.879,0,56,25.122,56,56V376
	C480,406.879,454.879,432,424,432z M88,112c-13.234,0-24,10.766-24,24V376c0,13.233,10.766,24,24,24h336c13.233,0,24-10.767,24-24
	V136c0-13.234-10.767-24-24-24H88z"/>
<path d="M256,288c-3.467,0-6.934-1.123-9.823-3.37l-144-112.001c-6.975-5.425-8.231-15.478-2.806-22.453
	c5.425-6.974,15.478-8.231,22.453-2.806L256,251.73l134.177-104.36c6.975-5.424,17.027-4.169,22.453,2.806
	c5.425,6.975,4.168,17.028-2.807,22.453l-144,112.001C262.935,286.877,259.467,288,256,288z"/>
</svg>
