<?xml version="1.0" encoding="iso-8859-1"?>
<!-- Generator: Adobe Illustrator 24.3.0, SVG Export Plug-In . SVG Version: 6.00 Build 0)  -->
<svg version="1.1" id="Layer_1" xmlns="http://www.w3.org/2000/svg" xmlns:xlink="http://www.w3.org/1999/xlink" x="0px" y="0px"
	 viewBox="0 0 512 512" style="enable-background:new 0 0 512 512;" xml:space="preserve">
<path d="M423.52,448h-335C57.355,448,32,422.879,32,392V207.39c0.075-21.513,12.092-40.708,31.36-50.148l174.688-86.22
	c11.242-5.546,24.662-5.545,35.9-0.001l174.71,86.23c19.272,9.432,31.296,28.616,31.382,50.075V392
	C480.04,422.879,454.686,448,423.52,448z M256.001,98.841c-1.303,0-2.605,0.292-3.792,0.878L77.481,185.958
	c-8.3,4.066-13.449,12.292-13.481,21.488V392c0,13.233,11,24,24.52,24h335c13.521,0,24.521-10.767,24.521-24V207.39
	c-0.036-9.139-5.195-17.364-13.464-21.404c-0.02-0.009-0.039-0.019-0.058-0.028l-174.729-86.24
	C258.604,99.133,257.303,98.841,256.001,98.841z"/>
<path d="M109.341,384.001c-4.769,0-9.487-2.123-12.641-6.178c-5.425-6.976-4.168-17.028,2.807-22.453l129.27-100.54
	c14.459-11.246,34.656-11.247,49.116,0l129.26,100.54c6.976,5.426,8.231,15.479,2.807,22.453c-5.425,6.976-15.479,8.23-22.453,2.807
	l-129.26-100.54c-2.893-2.25-6.932-2.249-9.823-0.001L119.153,380.63C116.233,382.901,112.774,384.001,109.341,384.001z"/>
<path d="M309.342,311.001c-4.839,0-9.62-2.186-12.767-6.341c-5.335-7.045-3.949-17.08,3.095-22.415l136-103.001
	c7.045-5.333,17.08-3.95,22.415,3.095c5.335,7.044,3.949,17.08-3.095,22.415l-136,103.001
	C316.101,309.944,312.707,311.001,309.342,311.001z"/>
<path d="M200.318,313.001c-3.359,0-6.745-1.054-9.632-3.234l-139-105.001c-7.051-5.326-8.449-15.36-3.123-22.411
	c5.326-7.051,15.36-8.45,22.411-3.123l139,105.001c7.051,5.326,8.449,15.359,3.123,22.411
	C209.951,310.809,205.163,313.001,200.318,313.001z"/>
</svg>
