<?xml version="1.0" encoding="iso-8859-1"?>
<!-- Generator: Adobe Illustrator 24.3.0, SVG Export Plug-In . SVG Version: 6.00 Build 0)  -->
<svg version="1.1" id="Layer_1" xmlns="http://www.w3.org/2000/svg" xmlns:xlink="http://www.w3.org/1999/xlink" x="0px" y="0px"
	 viewBox="0 0 512 512" style="enable-background:new 0 0 512 512;" xml:space="preserve">
<path d="M471.05,168.36L263.24,65.69c-4.564-2.251-9.916-2.251-14.48,0L41,168.36c-5.481,2.666-8.97,8.215-9,14.31V432
	c0.05,8.886,7.293,16.05,16.179,16c0.004,0,0.007,0,0.011,0h415.62c8.886,0.055,16.135-7.103,16.19-15.989c0-0.004,0-0.007,0-0.011
	V182.67C479.98,176.586,476.511,171.041,471.05,168.36z M256,97.89l173,85.44l-175.7,86.78l-173-85.44L256,97.89z"/>
</svg>
