<?xml version="1.0" encoding="iso-8859-1"?>
<!-- Generator: Adobe Illustrator 24.3.0, SVG Export Plug-In . SVG Version: 6.00 Build 0)  -->
<svg version="1.1" id="Layer_1" xmlns="http://www.w3.org/2000/svg" xmlns:xlink="http://www.w3.org/1999/xlink" x="0px" y="0px"
	 viewBox="0 0 512 512" style="enable-background:new 0 0 512 512;" xml:space="preserve">
<path d="M422.73,432H88c-30.878,0-56-25.121-56-56V136c0-30.878,25.122-56,56-56h232c8.837,0,16,7.164,16,16s-7.163,16-16,16H88
	c-13.233,0-24,10.766-24,24V376c0,13.233,10.767,24,24,24h334.73c13.233,0,24-10.767,24-24V239c0-8.836,7.163-16,16-16
	s16,7.164,16,16V376C478.73,406.879,453.609,432,422.73,432z"/>
<path d="M256,288c-3.469,0-6.936-1.125-9.823-3.37l-144-112.001c-6.975-5.425-8.231-15.478-2.806-22.453
	c5.425-6.974,15.478-8.231,22.453-2.806l134.322,104.473l77.215-58.284c7.052-5.322,17.086-3.922,22.41,3.131
	c5.323,7.053,3.922,17.086-3.131,22.41l-87,65.67C262.785,286.925,259.392,288,256,288z"/>
<circle cx="431.95" cy="128.05" r="47.95"/>
<path d="M432,192c-35.319,0-63.95-28.631-63.95-63.95S396.681,64.1,432,64.1s63.95,28.631,63.95,63.95
	C495.922,163.357,467.307,191.972,432,192z M432,96.1c-17.673-0.028-32.022,14.277-32.05,31.95
	c-0.028,17.673,14.277,32.022,31.95,32.05c17.673,0.028,32.022-14.277,32.05-31.95c0-0.017,0-0.033,0-0.05
	C463.95,110.446,449.654,96.128,432,96.1z"/>
</svg>
