<?xml version="1.0" encoding="iso-8859-1"?>
<!-- Generator: Adobe Illustrator 24.3.0, SVG Export Plug-In . SVG Version: 6.00 Build 0)  -->
<svg version="1.1" id="Layer_1" xmlns="http://www.w3.org/2000/svg" xmlns:xlink="http://www.w3.org/1999/xlink" x="0px" y="0px"
	 viewBox="0 0 512 512" style="enable-background:new 0 0 512 512;" xml:space="preserve">
<path d="M424,80H88c-30.914,0.033-55.967,25.086-56,56v240c0.033,30.914,25.086,55.967,56,56h336c30.914-0.033,55.967-25.086,56-56
	V136C479.967,105.086,454.914,80.033,424,80z M409.82,172.63l-144,112c-5.777,4.491-13.863,4.491-19.64,0l-144-112
	c-7.052-5.325-8.451-15.359-3.126-22.41c5.325-7.052,15.359-8.451,22.41-3.126c0.12,0.091,0.238,0.183,0.356,0.277L256,251.73
	l134.18-104.36c7.052-5.325,17.085-3.926,22.41,3.126C417.81,157.408,416.582,167.218,409.82,172.63L409.82,172.63z"/>
</svg>
