<?xml version="1.0" encoding="iso-8859-1"?>
<!-- Generator: Adobe Illustrator 24.3.0, SVG Export Plug-In . SVG Version: 6.00 Build 0)  -->
<svg version="1.1" id="Layer_1" xmlns="http://www.w3.org/2000/svg" xmlns:xlink="http://www.w3.org/1999/xlink" x="0px" y="0px"
	 viewBox="0 0 512 512" style="enable-background:new 0 0 512 512;" xml:space="preserve">
<path d="M374.09,101c-0.11,0.23-0.21,0.46-0.31,0.7c-0.34,0.75-0.67,1.5-1,2.26l-0.36,0.9c-0.27,0.71-0.54,1.42-0.79,2.14
	c-0.12,0.35-0.24,0.7-0.35,1c-0.23,0.68-0.44,1.37-0.64,2.07l-0.33,1.15c-0.18,0.667-0.35,1.333-0.51,2
	c-0.1,0.41-0.2,0.82-0.28,1.23c-0.15,0.67-0.28,1.36-0.4,2c-0.08,0.42-0.16,0.84-0.23,1.27c-0.11,0.69-0.2,1.4-0.29,2.1
	c-0.05,0.42-0.11,0.83-0.16,1.25c-0.08,0.77-0.13,1.54-0.19,2.31c0,0.36-0.06,0.72-0.08,1.09c-0.06,1.13-0.09,2.27-0.09,3.41l0,0
	c0,1,0,2,0.07,2.94v0.62c0.05,0.95,0.12,1.89,0.21,2.83l0.06,0.46c0.09,0.87,0.2,1.72,0.32,2.57c0,0.15,0,0.31,0.07,0.46
	c0.14,0.92,0.31,1.84,0.49,2.75l0.12,0.59c0.2,0.92,0.4,1.84,0.64,2.75l0,0c0.23,0.92,0.5,1.82,0.77,2.71
	c0.06,0.19,0.12,0.38,0.17,0.57c0.28,0.88,0.57,1.74,0.88,2.59c0.05,0.15,0.11,0.29,0.16,0.43c0.29,0.78,0.6,1.55,0.92,2.32
	c0.05,0.14,0.11,0.28,0.17,0.42c0.35,0.83,0.73,1.65,1.11,2.47l0.27,0.53c0.4,0.82,0.81,1.64,1.24,2.44l0,0l0,0
	c6.618,12.155,16.986,21.846,29.56,27.63l0.37,0.17c1.78,0.8,3.59,1.53,5.45,2.17l0.95,0.32l1.5,0.47c0.45,0.14,0.9,0.26,1.36,0.39
	l1.92,0.5c0.57,0.14,1.14,0.27,1.72,0.39l1.15,0.24l1.83,0.32l0.93,0.16c0.9,0.13,1.81,0.24,2.72,0.34l0.77,0.07
	c0.73,0.07,1.47,0.13,2.22,0.17l0.85,0.05c1,0,1.94,0.07,2.93,0.07l0,0c1.15,0,2.29,0,3.43-0.09l1.09-0.09
	c0.77,0,1.54-0.11,2.3-0.19c0.42,0,0.83-0.1,1.25-0.16c0.7-0.08,1.41-0.17,2.1-0.28l1.27-0.23c0.68-0.12,1.36-0.25,2-0.39l1.24-0.29
	c0.67-0.16,1.35-0.32,2-0.51c0.39-0.1,0.78-0.21,1.16-0.33c0.69-0.2,1.37-0.41,2.05-0.63l1.07-0.36c0.7-0.24,1.4-0.5,2.1-0.77
	l0.94-0.37c0.74-0.3,1.47-0.62,2.19-0.95l0.77-0.34c0.8-0.37,1.58-0.77,2.36-1.17c0.17-0.09,0.35-0.17,0.52-0.27
	c0.91-0.48,1.8-1,2.68-1.5l0.12-0.07c30.356-18.054,40.329-57.297,22.275-87.653c-18.054-30.356-57.297-40.329-87.653-22.275
	c-10.093,6.003-18.339,14.669-23.832,25.048l-0.21,0.39C374.9,99.34,374.48,100.17,374.09,101z"/>
<path d="M371.51,202.43l-105.69,82.2c-5.777,4.491-13.863,4.491-19.64,0L89.55,162.81l19.64-25.26L256,251.73l94.36-73.39
	C331.833,148.311,331.311,110.53,349,80H48c-8.837,0-16,7.163-16,16v320c0,8.837,7.163,16,16,16h416c8.837,0,16-7.163,16-16V211.13
	C445.544,231.063,402.349,227.6,371.51,202.43L371.51,202.43z"/>
</svg>
