<?xml version="1.0" encoding="iso-8859-1"?>
<!-- Generator: Adobe Illustrator 24.3.0, SVG Export Plug-In . SVG Version: 6.00 Build 0)  -->
<svg version="1.1" id="Layer_1" xmlns="http://www.w3.org/2000/svg" xmlns:xlink="http://www.w3.org/1999/xlink" x="0px" y="0px"
	 viewBox="0 0 512 512" style="enable-background:new 0 0 512 512;" xml:space="preserve">
<path d="M448.67,154.45L274.1,68.2c-11.417-5.6-24.783-5.6-36.2,0L63.33,154.45c-19.181,9.306-31.352,28.761-31.33,50.08v184.61
	c0,30.88,25.42,56,56.67,56h334.66c31.25,0,56.67-25.12,56.67-56V204.53C480.022,183.211,467.851,163.756,448.67,154.45z
	 M252.38,96.82c2.283-1.12,4.957-1.12,7.24,0L429,180.48l-172,85c-2.283,1.12-4.957,1.12-7.24,0L80.35,181.81L252.38,96.82z"/>
</svg>
