<?xml version="1.0" encoding="iso-8859-1"?>
<!-- Generator: Adobe Illustrator 24.3.0, SVG Export Plug-In . SVG Version: 6.00 Build 0)  -->
<svg version="1.1" id="Layer_1" xmlns="http://www.w3.org/2000/svg" xmlns:xlink="http://www.w3.org/1999/xlink" x="0px" y="0px"
	 viewBox="0 0 512 512" style="enable-background:new 0 0 512 512;" xml:space="preserve">
<path d="M442,48h-90c-12.15,0-22,9.85-22,22s9.85,22,22,22h36.89l-60.39,60.39c-68.19-52.86-167-48-229.54,14.57l0,0
	C31.12,234.81,31.12,345.19,99,413c67.991,67.787,178.009,67.787,246,0c62.57-62.58,67.43-161.35,14.57-229.54L420,123.11V160
	c0,12.15,9.85,22,22,22s22-9.85,22-22V70C464,57.85,454.15,48,442,48z M313.92,381.92c-50.797,50.691-133.043,50.691-183.84,0
	c-50.69-50.68-50.69-133.16,0-183.84s133.16-50.69,183.84,0S364.61,331.24,313.92,381.92z"/>
</svg>
