<?xml version="1.0" encoding="iso-8859-1"?>
<!-- Generator: Adobe Illustrator 24.3.0, SVG Export Plug-In . SVG Version: 6.00 Build 0)  -->
<svg version="1.1" id="Layer_1" xmlns="http://www.w3.org/2000/svg" xmlns:xlink="http://www.w3.org/1999/xlink" x="0px" y="0px"
	 viewBox="0 0 512 512" style="enable-background:new 0 0 512 512;" xml:space="preserve">
<path d="M216,464c-92.636,0-168-75.364-168-168s75.364-168,168-168s168,75.365,168,168S308.636,464,216,464z M216,160
	C141.009,160,80,221.01,80,296c0,74.99,61.009,136,136,136c74.99,0,136-61.01,136-136C352,221.01,290.99,160,216,160z"/>
<path d="M448,176c-8.837,0-16-7.164-16-16V80h-80c-8.837,0-16-7.164-16-16s7.163-16,16-16h96c8.837,0,16,7.164,16,16v96
	C464,168.836,456.837,176,448,176z"/>
<path d="M324,204c-4.095,0-8.189-1.562-11.313-4.687c-6.249-6.248-6.249-16.379,0-22.627l124-124c6.248-6.249,16.379-6.249,22.627,0
	c6.249,6.248,6.249,16.379,0,22.627l-124,124C332.189,202.438,328.095,204,324,204z"/>
</svg>
