<?xml version="1.0" encoding="iso-8859-1"?>
<!-- Generator: Adobe Illustrator 24.3.0, SVG Export Plug-In . SVG Version: 6.00 Build 0)  -->
<svg version="1.1" id="Layer_1" xmlns="http://www.w3.org/2000/svg" xmlns:xlink="http://www.w3.org/1999/xlink" x="0px" y="0px"
	 viewBox="0 0 512 512" style="enable-background:new 0 0 512 512;" xml:space="preserve">
<path d="M426,16h-74c-12.15,0-22,9.85-22,22s9.85,22,22,22h20.89l-37.1,37.09C305.823,62.112,262.06,41.986,216,42
	c-87.12,0-158,70.88-158,158c0,79.66,59.26,145.72,136,156.46V394h-28c-12.15,0-22,9.85-22,22s9.85,22,22,22h28v36
	c0,12.15,9.85,22,22,22s22-9.85,22-22v-36h28c12.15,0,22-9.85,22-22s-9.85-22-22-22h-28v-37.54c76.74-10.74,136-76.8,136-156.46
	c0.011-22.39-4.762-44.524-14-64.92l44-44V112c0,12.15,9.85,22,22,22s22-9.85,22-22V38C448,25.85,438.15,16,426,16z M216,314
	c-62.96,0-114-51.04-114-114S153.04,86,216,86s114,51.04,114,114C329.928,262.931,278.931,313.928,216,314z"/>
</svg>
