<?xml version="1.0" encoding="iso-8859-1"?>
<!-- Generator: Adobe Illustrator 24.3.0, SVG Export Plug-In . SVG Version: 6.00 Build 0)  -->
<svg version="1.1" id="Layer_1" xmlns="http://www.w3.org/2000/svg" xmlns:xlink="http://www.w3.org/1999/xlink" x="0px" y="0px"
	 viewBox="0 0 512 512" style="enable-background:new 0 0 512 512;" xml:space="preserve">
<path d="M216,352C132.187,352,64,283.813,64,200S132.187,48,216,48c83.813,0,152,68.187,152,152S299.813,352,216,352z M216,80
	c-66.168,0-120,53.832-120,120C96,266.168,149.832,320,216,320S336,266.168,336,200C336,133.832,282.168,80,216,80z"/>
<path d="M216,496c-8.836,0-16-7.163-16-16V352c0-8.837,7.164-16,16-16s16,7.163,16,16v128C232,488.837,224.836,496,216,496z"/>
<path d="M272,432H160c-8.836,0-16-7.163-16-16s7.164-16,16-16h112c8.837,0,16,7.163,16,16S280.837,432,272,432z"/>
<path d="M432,128c-8.837,0-16-7.164-16-16V48h-64c-8.837,0-16-7.164-16-16s7.163-16,16-16h80c8.837,0,16,7.164,16,16v80
	C448,120.836,440.837,128,432,128z"/>
<path d="M335.28,144.72c-4.095,0-8.189-1.562-11.313-4.686c-6.249-6.249-6.249-16.379,0-22.627l96.72-96.72
	c6.248-6.249,16.379-6.249,22.627,0c6.249,6.249,6.249,16.379,0,22.627l-96.72,96.72C343.47,143.158,339.375,144.72,335.28,144.72z"
	/>
</svg>
