<?xml version="1.0" encoding="iso-8859-1"?>
<!-- Generator: Adobe Illustrator 24.3.0, SVG Export Plug-In . SVG Version: 6.00 Build 0)  -->
<svg version="1.1" id="Layer_1" xmlns="http://www.w3.org/2000/svg" xmlns:xlink="http://www.w3.org/1999/xlink" x="0px" y="0px"
	 viewBox="0 0 512 512" style="enable-background:new 0 0 512 512;" xml:space="preserve">
<path d="M330,16v44h42.89l-37.1,37.09C305.823,62.111,262.06,41.985,216,42c-87.12,0-158,70.88-158,158
	c0,79.66,59.26,145.72,136,156.46V394h-50v44h50v58h44v-58h50v-44h-50v-37.54c76.74-10.74,136-76.8,136-156.46
	c0.01-22.393-4.763-44.531-14-64.93l44-44V134h44V16H330z M216,314c-62.96,0-114-51.04-114-114S153.04,86,216,86s114,51.04,114,114
	C329.928,262.931,278.931,313.928,216,314z"/>
</svg>
