<?xml version="1.0" encoding="iso-8859-1"?>
<!-- Generator: Adobe Illustrator 24.3.0, SVG Export Plug-In . SVG Version: 6.00 Build 0)  -->
<svg version="1.1" id="Layer_1" xmlns="http://www.w3.org/2000/svg" xmlns:xlink="http://www.w3.org/1999/xlink" x="0px" y="0px"
	 viewBox="0 0 512 512" style="enable-background:new 0 0 512 512;" xml:space="preserve">
<path d="M232.277,512.002c-0.183,0.001-0.365,0.001-0.549,0c-0.148,0-0.296-0.001-0.444-0.003
	c-21.884-0.251-39.482-18.223-39.284-40.084V208c0-8.836,7.164-16,16-16s16,7.164,16,16l-0.001,264.183
	c-0.049,4.263,3.379,7.77,7.642,7.818h0.542c0.029,0,0.06,0.001,0.089,0.001c4.222,0,7.681-3.41,7.729-7.642v-0.188
	c-0.096-8.836,6.99-16.076,15.826-16.172c0.059-0.001,0.118-0.001,0.177-0.001c8.756,0,15.9,7.05,15.995,15.827
	c0.003,0.295,0.003,0.591,0,0.888C271.75,494.478,253.975,512.001,232.277,512.002z"/>
<path d="M280.277,512.002c-0.183,0-0.364,0-0.549,0c-0.148,0-0.297-0.001-0.444-0.003c-21.884-0.251-39.482-18.223-39.284-40.084
	V336c0-8.837,7.164-16,16-16c8.837,0,16,7.163,16,16l-0.001,136.183c-0.049,4.263,3.379,7.77,7.642,7.818h0.542
	c4.26,0.016,7.77-3.38,7.818-7.642L288,208c0-8.836,7.163-16,16-16s16,7.164,16,16v263.925c0.002,0.263,0.002,0.526-0.001,0.79
	C319.749,494.478,301.974,512.001,280.277,512.002z"/>
<path d="M327.706,320.002c-10.43,0-20.264-4.003-27.739-11.303c-7.59-7.413-11.84-17.338-11.966-27.947
	c-0.003-0.288-0.003-0.558-0.001-0.825V192c0-8.836,7.163-16,16-16s16,7.164,16,16l-0.001,88.396
	c0.05,4.203,3.504,7.606,7.719,7.606c0.031,0,0.062,0,0.093-0.001l0.178-0.002l0.408,0.002c4.233-0.051,7.655-3.555,7.604-7.812
	L336,280V192c0-17.645-14.355-32-32-32h-96c-17.645,0-32,14.355-32,32l-0.001,88.355c0.051,4.274,3.549,7.741,7.812,7.646
	l0.178-0.002l0.409,0.002c4.232-0.051,7.654-3.555,7.604-7.811L192,280V192c0-8.836,7.164-16,16-16s16,7.164,16,16v87.917
	c0.201,21.851-17.382,39.822-39.246,40.083c-0.259,0.002-0.504,0.001-0.742,0.002c-0.1,0-0.201,0.001-0.3,0.001
	c-21.684,0.001-39.452-17.509-39.711-39.249c-0.003-0.271-0.004-0.555-0.001-0.841V192c0-35.29,28.71-64,64-64h96
	c35.29,0,64,28.71,64,64v87.918c0.2,21.85-17.383,39.82-39.246,40.081c-0.258,0.003-0.502,0.003-0.741,0.002
	C327.91,320.001,327.808,320.002,327.706,320.002z"/>
<path d="M256,112c-30.878,0-56-25.122-56-56s25.122-56,56-56c30.879,0,56,25.122,56,56S286.879,112,256,112z M256,32
	c-13.234,0-24,10.766-24,24s10.766,24,24,24c13.233,0,24-10.766,24-24S269.233,32,256,32z"/>
</svg>
