<?xml version="1.0" encoding="iso-8859-1"?>
<!-- Generator: Adobe Illustrator 24.3.0, SVG Export Plug-In . SVG Version: 6.00 Build 0)  -->
<svg version="1.1" id="Layer_1" xmlns="http://www.w3.org/2000/svg" xmlns:xlink="http://www.w3.org/1999/xlink" x="0px" y="0px"
	 viewBox="0 0 512 512" style="enable-background:new 0 0 512 512;" xml:space="preserve">
<circle cx="256" cy="56" r="56"/>
<path d="M304,128h-96c-35.303,0.104-63.896,28.697-64,64v107.52c0,10.85,8.43,20.08,19.27,20.47
	c11.038,0.403,20.314-8.218,20.717-19.257c0.009-0.244,0.013-0.489,0.013-0.733v-99.73c-0.053-4.281,3.205-7.879,7.47-8.25
	c4.409-0.293,8.22,3.044,8.512,7.452c0.012,0.182,0.018,0.365,0.018,0.548V489c0,12.703,10.297,23,23,23l0,0
	c12.703,0,23-10.297,23-23V346.34c-0.073-5.357,3.994-9.864,9.33-10.34c5.51-0.37,10.278,3.797,10.648,9.307
	c0.016,0.23,0.023,0.461,0.022,0.693v143c0,12.703,10.297,23,23,23l0,0c12.703,0,23-10.297,23-23V200.27
	c-0.053-4.281,3.205-7.879,7.47-8.25c4.409-0.293,8.22,3.044,8.512,7.452c0.012,0.182,0.018,0.365,0.018,0.548v99.52
	c0,10.85,8.43,20.08,19.27,20.47c11.038,0.403,20.314-8.218,20.717-19.257c0.009-0.251,0.014-0.502,0.013-0.753V192
	C367.896,156.697,339.303,128.104,304,128z"/>
</svg>
