<?xml version="1.0" encoding="UTF-8"?>
<svg width="514px" height="448px" viewBox="0 0 514 448" version="1.1" xmlns="http://www.w3.org/2000/svg" xmlns:xlink="http://www.w3.org/1999/xlink">
    <title>Group</title>
    <g id="Page-1" stroke="none" stroke-width="1"  fill-rule="evenodd">
        <g id="Group"  fill-rule="nonzero">
            <g id="person-outline" transform="translate(97.000000, 0.000000)">
                <path d="M208.00873,224 C155.13573,224 108.50073,174.278 104.05073,113.162 C101.79773,82.186 111.36973,53.499 131.00473,32.385 C150.42473,11.501 177.77173,0 208.00873,0 C238.04773,0 265.33773,11.572 284.85073,32.583 C304.60973,53.86 314.23973,82.484 311.96473,113.182 C311.96473,113.182 311.96473,113.182 311.96473,113.183 C307.43473,174.288 260.79973,224 208.00873,224 Z M208.00873,32 C186.76173,32 167.73673,39.875 154.43873,54.176 C140.92673,68.707 134.36673,88.83 135.96673,110.839 C139.16973,154.832 172.16073,192 208.00873,192 C243.79773,192 276.78973,154.823 280.05273,110.817 L280.05273,110.818 C281.66173,89.094 275.03773,69.043 261.40273,54.36 C248.01173,39.94 229.04973,32 208.00873,32 Z" id="Shape"></path>
                <path d="M384.00873,448 L32.0087303,448 C22.3997303,448 13.8047303,444.048 7.80773031,436.872 C1.30773031,429.094 -1.31126969,418.483 0.622730313,407.76 C9.06673031,360.944 35.4147303,321.61 76.8167303,294.012 C113.59073,269.499 160.18173,256 208.00873,256 C255.83473,256 302.42673,269.499 339.20073,294.012 C380.60473,321.609 406.95573,360.942 415.40473,407.758 C417.33873,418.482 414.71973,429.092 408.21973,436.869 C402.22173,444.047 393.62273,448 384.00873,448 Z M32.2057303,416 L383.82073,416 C383.97673,415.536 384.13273,414.664 383.91273,413.439 C377.04573,375.387 355.44673,343.296 321.45273,320.638 C289.87673,299.591 249.58773,288 208.00873,288 C166.42873,288 126.14073,299.591 94.5657303,320.639 C60.5727303,343.297 38.9777303,375.387 32.1147303,413.44 C31.8937303,414.664 32.0497303,415.535 32.2057303,416 Z" id="Shape"></path>
            </g>
            <g id="settings-outline" transform="translate(0.000000, 95.000000)">
                <path d="M115.515917,200 L78.4814854,200 C78.4416541,200 78.4018228,200 78.3619915,200 C72.8276083,199.902609 68.1838006,196.033478 67.0685248,190.588261 C67.0390842,190.444783 67.0144062,190.3 66.9940576,190.154783 L64.0846423,169.363478 C64.0729527,169.357826 64.0482746,169.353043 64.036585,169.347391 C60.4777467,167.622174 57.0297433,165.593913 53.7886894,163.31913 L34.3666108,171.183913 C34.3263466,171.2 34.2856494,171.216087 34.2453852,171.231304 C28.9595145,173.252174 23.0250867,171.175652 20.1360201,166.292609 C20.1217328,166.268261 20.1078784,166.244783 20.094024,166.220435 L1.57680825,134.046522 C-1.27892136,129.115217 -0.171871539,122.876522 4.2186612,119.227826 C4.26412081,119.189565 4.31044633,119.152174 4.35720478,119.115217 L20.9001745,106.071739 C20.8984427,106.053043 20.8759294,106.038696 20.8741976,106.02 C20.6880297,103.852609 20.5975434,101.87913 20.5975434,99.9869565 C20.5975434,98.0326087 20.6888955,96.0708696 20.8772282,93.9891304 L4.33469145,80.9834783 C4.2693162,80.9317391 4.20480684,80.8791304 4.14116338,80.8247826 C-0.16148077,77.1713043 -1.23172995,70.9673913 1.59672389,66.0734783 L20.1078784,33.91 C20.1208669,33.8873913 20.1342883,33.8647826 20.1472767,33.8421739 C23.0341786,28.9552174 28.9681735,26.8743478 34.2557759,28.8930435 C34.297772,28.9091304 34.339768,28.9256522 34.381764,28.9426087 L53.8211605,36.8034783 C53.8112027,36.7991304 53.8276547,36.7973913 53.8406432,36.7882609 C57.1180648,34.5217391 60.5608729,32.5086957 64.1054239,30.7834783 L66.999253,9.97521739 C67.0100767,9.89826087 67.0221992,9.82173913 67.0351877,9.74565217 C67.9971997,4.21869565 72.7501105,0.120434783 78.3360146,0 C78.3849378,0 78.433861,0 78.4827842,0 L115.517216,0 C115.55748,0 115.597744,0 115.637143,0 C121.171526,0.0973913043 125.815766,3.9673913 126.930609,9.41130435 C126.96005,9.55521739 126.985161,9.69956522 127.005509,9.84478261 L129.914925,30.636087 C129.925748,30.6417391 129.951292,30.6469565 129.962116,30.6521739 C133.52182,32.3773913 136.969824,34.4056522 140.210878,36.6804348 L159.632523,28.816087 C159.672788,28.7995652 159.713485,28.783913 159.754182,28.7682609 C165.040053,26.746087 170.973614,28.823913 173.863547,33.7069565 C173.877834,33.7313043 173.891689,33.7552174 173.905976,33.7795652 L192.423192,65.9534783 C195.278921,70.8843478 194.171872,77.1234783 189.781339,80.7721739 C189.735879,80.8104348 189.689121,80.8478261 189.642795,80.8843478 L173.099825,93.9278261 C173.102423,93.956087 173.105887,93.9965217 173.108052,94.0252174 C173.282963,96.2282609 173.368254,98.1826087 173.368254,99.9995652 C173.368254,100.013043 173.368254,100.026522 173.368254,100.039565 C173.356997,102.008696 173.266078,103.98913 173.096795,105.961739 L189.627642,118.982174 C189.676565,119.02087 189.725055,119.06 189.773113,119.1 C194.155419,122.747391 195.262036,128.982609 192.404142,133.926957 L173.89342,166.09 C173.880432,166.112609 173.867011,166.135217 173.853589,166.157826 C170.96712,171.044783 165.034424,173.126522 159.74509,171.106522 C159.703094,171.090435 159.661531,171.074348 159.619535,171.057391 L140.180138,163.196522 C140.190096,163.20087 140.173644,163.202609 140.161089,163.211304 C136.883667,165.477826 133.440859,167.49087 129.895875,169.216522 L127.001613,190.024783 C126.990789,190.101739 126.978667,190.178696 126.965245,190.254783 C126.0028,195.781739 121.250322,199.879565 115.663985,200 C115.613763,200 115.56484,200 115.515917,200 Z M80.3121101,181 L111.666593,181 L114.157489,163.291682 C114.758711,158.977409 117.464621,155.257136 121.394682,153.349136 C124.159568,152.010591 126.838857,150.452364 129.364564,148.715364 C132.971079,146.204364 137.600246,145.671727 141.718291,147.309318 L158.339141,153.994273 L173.987304,126.9505 L157.017516,113.655455 C155.17617,112.213 154.24444,109.899182 154.573719,107.585364 C154.930439,105.072727 155.119243,102.515091 155.134806,99.9824091 C155.134396,98.6365 155.068049,97.1543636 154.933306,95.4525455 C154.540955,91.0278182 156.389673,86.7479091 159.885199,83.9971818 L174,72.9275909 L158.353065,45.8858636 L141.757199,52.5589545 C137.644887,54.2120909 133.018178,53.6888636 129.378899,51.1602727 C126.874488,49.4118182 124.222229,47.8597273 121.484784,46.54 C117.53875,44.6643182 114.789018,40.9346364 114.160765,36.5790455 L111.68789,19 L80.3334068,19 L77.8421019,36.7083182 C77.2416987,41.0221818 74.5357885,44.7424545 70.6057274,46.6508636 C67.8408418,47.9894091 65.1615525,49.5476364 62.6358453,51.2850455 C59.0305589,53.7956364 54.4009829,54.3286818 50.2825279,52.6915 L33.661269,46.0061364 L18.0131057,73.0486818 L32.07876,84.0855455 C35.5615903,86.8137727 37.4201374,91.0773182 37.0462164,95.4881364 C36.901235,97.0889091 36.8320207,98.5477273 36.8320207,99.9881364 C36.8320207,101.383545 36.901235,102.8665 37.0437591,104.520045 C37.4504442,108.941909 35.6164703,113.227136 32.1332304,115.9885 L18,127.072818 L33.6473442,154.114955 L50.2432109,147.441864 C54.3559322,145.789545 58.9826413,146.311955 62.6211014,148.840545 C65.1259215,150.589 67.7785899,152.141091 70.5160355,153.461227 C74.4616596,155.3365 77.2118014,159.066182 77.8396446,163.422591 L80.3121101,181 Z M96.5645532,135 C95.4183131,135 94.2660357,134.942692 93.1103084,134.826763 C74.1796667,132.930348 60.2992949,115.763743 62.168727,96.5594213 C64.0385904,77.3555369 80.9626651,63.2743798 99.8915818,65.1712326 C99.8954629,65.1712326 99.8993441,65.1716701 99.902794,65.1721075 C116.188631,66.8314162 129.19617,80.0267045 130.832301,96.5476097 C131.055684,98.8416816 131.055684,101.156314 130.833594,103.438575 C129.927556,112.741728 125.505174,121.129702 118.37977,127.058241 C112.153073,132.240027 104.513197,135 96.5645532,135 Z M95.9845254,79 C85.325526,79 76.1719288,87.1109933 75.1027039,97.9355668 C73.9647932,109.457893 82.4135945,119.757949 93.9366361,120.895352 C99.5198798,121.449179 104.981064,119.791634 109.317899,116.234626 C113.654735,112.677618 116.347047,107.644611 116.898284,102.062589 C117.033905,100.693331 117.033905,99.3048246 116.898284,97.9351294 C115.902995,88.026165 107.980493,80.1019682 98.0604141,79.1023662 C97.364368,79.0341221 96.6700718,79 95.9845254,79 Z" id="Shape"></path>
            </g>
        </g>
    </g>
</svg>