<?xml version="1.0" encoding="iso-8859-1"?>
<!-- Generator: Adobe Illustrator 24.3.0, SVG Export Plug-In . SVG Version: 6.00 Build 0)  -->
<svg version="1.1" id="Layer_1" xmlns="http://www.w3.org/2000/svg" xmlns:xlink="http://www.w3.org/1999/xlink" x="0px" y="0px"
	 viewBox="0 0 512 512" style="enable-background:new 0 0 512 512;" xml:space="preserve">
<path d="M325.197,480.015c-7.48,0.001-14.959-1.738-21.79-5.218c-0.509-0.26-1.004-0.546-1.481-0.857l-111.017-72.45
	c-4.317-1.96-9.298-1.905-13.572,0.157L80.23,464.972c-0.405,0.264-0.822,0.51-1.25,0.736c-4.598,2.436-9.776,3.723-14.976,3.723
	c-0.004,0-0.008,0-0.012,0c-8.542,0-16.578-3.329-22.622-9.374c-6.043-6.044-9.372-14.081-9.371-22.629V141.63
	c-0.001-11.556,6.169-22.124,16.168-27.811l112.367-75.396c0.46-0.309,0.936-0.593,1.425-0.853
	c13.665-7.239,30.084-7.436,43.919-0.524c0.505,0.252,0.997,0.531,1.473,0.836l113.696,72.74c4.283,1.904,9.218,1.83,13.442-0.204
	l97.283-63.394c0.403-0.263,0.819-0.507,1.244-0.733c4.598-2.436,9.777-3.723,14.979-3.723c0.002,0,0.004,0,0.006,0
	c8.546,0,16.582,3.33,22.625,9.374c6.044,6.045,9.372,14.082,9.371,22.629V370.29c-0.002,11.673-6.266,22.292-16.411,27.944
	l-114.854,75.562c-0.46,0.303-0.936,0.582-1.424,0.835C340.396,478.22,332.796,480.015,325.197,480.015z M318.572,446.592
	c4.248,1.93,9.155,1.907,13.384-0.062l114.62-75.408c0.46-0.303,0.936-0.581,1.425-0.835L448,74.646l-96.755,63.049
	c-0.407,0.265-0.825,0.511-1.255,0.738c-13.648,7.218-30.044,7.414-43.86,0.525c-0.509-0.254-1.004-0.535-1.483-0.841
	L190.945,65.374c-4.264-1.9-9.173-1.84-13.39,0.166L65.424,140.776c-0.459,0.309-0.935,0.593-1.424,0.852v295.725l96.57-62.976
	c0.405-0.264,0.822-0.51,1.25-0.736c13.796-7.31,30.338-7.442,44.25-0.358c0.51,0.26,1.005,0.546,1.484,0.858L318.572,446.592z"/>
<path d="M328,480c-8.837,0-16-7.163-16-16V128c0-8.836,7.163-16,16-16s16,7.164,16,16v336C344,472.837,336.837,480,328,480z"/>
<path d="M184,400c-8.836,0-16-7.163-16-16V48c0-8.836,7.164-16,16-16s16,7.164,16,16v336C200,392.837,192.836,400,184,400z"/>
</svg>
