<?xml version="1.0" encoding="iso-8859-1"?>
<!-- Generator: Adobe Illustrator 24.3.0, SVG Export Plug-In . SVG Version: 6.00 Build 0)  -->
<svg version="1.1" id="Layer_1" xmlns="http://www.w3.org/2000/svg" xmlns:xlink="http://www.w3.org/1999/xlink" x="0px" y="0px"
	 viewBox="0 0 512 512" style="enable-background:new 0 0 512 512;" xml:space="preserve">
<path d="M48.17,113.34c-10.024,5.706-16.202,16.365-16.17,27.9V438c-0.057,17.673,14.223,32.046,31.896,32.103
	c5.265,0.017,10.453-1.265,15.104-3.733c0.43-0.23,0.85-0.47,1.26-0.74l84.14-55.05c2.27-1.48,3.636-4.01,3.63-6.72V46.45
	c0.012-4.418-3.559-8.01-7.978-8.022c-1.617-0.005-3.197,0.481-4.532,1.392L48.17,113.34z"/>
<path d="M212.36,39.31c-3.704-2.408-8.66-1.357-11.067,2.347c-0.84,1.293-1.289,2.801-1.293,4.343v357.56
	c-0.006,2.71,1.36,5.24,3.63,6.72l96,62.42c3.701,2.413,8.658,1.37,11.071-2.331c0.848-1.3,1.299-2.818,1.299-4.369V108.67
	c0.008-2.716-1.363-5.25-3.64-6.73L212.36,39.31z"/>
<path d="M464.53,46.47c-9.597-5.873-21.59-6.208-31.5-0.88c-0.431,0.221-0.849,0.468-1.25,0.74l-84.15,55
	c-2.27,1.48-3.636,4.01-3.63,6.72v357.46c-0.016,4.418,3.552,8.013,7.971,8.029c1.623,0.006,3.21-0.482,4.549-1.399l107.07-73.46
	c10.148-5.661,16.43-16.379,16.41-28v-296C480.134,63.218,474.267,52.519,464.53,46.47z"/>
</svg>
