<?xml version="1.0" encoding="iso-8859-1"?>
<!-- Generator: Adobe Illustrator 24.3.0, SVG Export Plug-In . SVG Version: 6.00 Build 0)  -->
<svg version="1.1" id="Layer_1" xmlns="http://www.w3.org/2000/svg" xmlns:xlink="http://www.w3.org/1999/xlink" x="0px" y="0px"
	 viewBox="0 0 512 512" style="enable-background:new 0 0 512 512;" xml:space="preserve">
<circle cx="256" cy="352" r="32"/>
<path d="M99.78,32c-18.183-0.004-34.807,10.267-42.94,26.53l-31,62c-6.127,12.332-6.695,26.693-1.56,39.47h278.2
	c1.376,0.001,2.657-0.705,3.39-1.87l75.5-120c1.176-1.87,0.614-4.339-1.256-5.516c-0.633-0.399-1.366-0.611-2.114-0.614H99.78z"/>
<path d="M486.17,120.56l-31-62c-6.47-13.047-18.546-22.424-32.79-25.46L342.5,160l0,0L298,231.08c-27.203-9.449-56.797-9.449-84,0
	l-23.32-37.2c-0.731-1.169-2.012-1.879-3.39-1.88H51.14c-2.209,0.004-3.997,1.798-3.993,4.007c0.001,0.764,0.221,1.511,0.633,2.153
	l82.7,128.73c-13.903,69.312,31.014,136.771,100.326,150.674c69.312,13.903,136.771-31.014,150.674-100.326
	c3.333-16.617,3.333-33.731,0-50.349L483.62,168C492.741,153.732,493.709,135.724,486.17,120.56z M260.17,415.87
	c-35.271,2.305-65.732-24.419-68.038-59.69c-2.305-35.271,24.419-65.732,59.69-68.038c35.271-2.305,65.732,24.419,68.038,59.69
	c0.182,2.78,0.182,5.568,0,8.348c-2.129,32.039-27.641,57.556-59.68,59.69H260.17z"/>
</svg>
