<?xml version="1.0" encoding="iso-8859-1"?>
<!-- Generator: Adobe Illustrator 24.3.0, SVG Export Plug-In . SVG Version: 6.00 Build 0)  -->
<svg version="1.1" id="Layer_1" xmlns="http://www.w3.org/2000/svg" xmlns:xlink="http://www.w3.org/1999/xlink" x="0px" y="0px"
	 viewBox="0 0 512 512" style="enable-background:new 0 0 512 512;" xml:space="preserve">
<path d="M256,480c-70.58,0-128-57.421-128-128C128,281.42,185.42,224,256,224c70.579,0,128,57.42,128,128.001
	C384,422.58,326.579,480,256,480z M256,256c-52.935,0-96,43.066-96,96.001s43.065,96,96,96s96-43.065,96-96S308.935,256,256,256z"/>
<path d="M256,416c-35.29,0-64-28.71-64-64s28.71-64,64-64c35.29,0,64,28.71,64,64S291.29,416,256,416z M256,320
	c-17.645,0-32,14.355-32,32s14.355,32,32,32c17.645,0,32-14.355,32-32S273.645,320,256,320z"/>
<path d="M147.015,339.002c-5.265,0-10.419-2.596-13.477-7.354l-105.16-163.68c-9.108-14.175-10.085-32.343-2.549-47.415l31-62
	C65.002,42.179,81.458,32,99.771,32c0.005,0,0.008,0,0.012,0H412.22c18.299,0.001,34.749,10.169,42.932,26.535l30.999,62
	c7.536,15.07,6.559,33.239-2.55,47.415L378.463,331.647c-4.775,7.435-14.676,9.591-22.109,4.816
	c-7.436-4.775-9.591-14.674-4.816-22.109l105.14-163.7c3.038-4.729,3.364-10.785,0.853-15.808l-31-62
	C423.802,67.39,418.318,64,412.219,64H99.78c-0.001,0-0.003,0-0.004,0c-6.109,0-11.593,3.393-14.32,8.855l-31.005,62.01
	c-2.512,5.024-2.187,11.081,0.85,15.806l105.161,163.681c4.776,7.435,2.622,17.333-4.813,22.109
	C152.972,338.181,149.976,339.002,147.015,339.002z"/>
<path d="M371,160H37c-8.836,0-16-7.164-16-16s7.164-16,16-16h334c8.837,0,16,7.164,16,16S379.837,160,371,160z"/>
<path d="M304.984,266.002c-2.902,0-5.841-0.79-8.482-2.445c-7.487-4.693-9.752-14.568-5.059-22.055l123.74-197.4
	c4.692-7.486,14.564-9.754,22.055-5.059c7.487,4.693,9.752,14.567,5.059,22.055l-123.74,197.399
	C315.52,263.344,310.312,266.002,304.984,266.002z"/>
<path d="M207.015,266.002c-5.326,0-10.534-2.658-13.572-7.504l-66.45-106c-4.693-7.487-2.429-17.361,5.058-22.055
	c7.487-4.693,17.361-2.429,22.055,5.058l66.45,106c4.693,7.487,2.429,17.361-5.058,22.055
	C212.857,265.212,209.918,266.002,207.015,266.002z"/>
</svg>
