<?xml version="1.0" encoding="iso-8859-1"?>
<!-- Generator: Adobe Illustrator 24.3.0, SVG Export Plug-In . SVG Version: 6.00 Build 0)  -->
<svg version="1.1" id="Layer_1" xmlns="http://www.w3.org/2000/svg" xmlns:xlink="http://www.w3.org/1999/xlink" x="0px" y="0px"
	 viewBox="0 0 512 512" style="enable-background:new 0 0 512 512;" xml:space="preserve">
<polygon points="80,32 16,160 305.11,160 385.33,32 "/>
<path d="M496,144L424,32L298,231.08c-27.203-9.449-56.797-9.449-84,0L189.53,192H43.82l86.66,134.89
	c-13.903,69.312,31.014,136.771,100.326,150.674c69.312,13.903,136.771-31.014,150.674-100.326c3.333-16.617,3.333-33.731,0-50.349
	L496,144z M256,422c-38.66,0-70-31.34-70-70s31.34-70,70-70s70,31.34,70,70l0,0C325.956,390.642,294.642,421.956,256,422z"/>
<circle cx="256" cy="352" r="32"/>
</svg>
