<?xml version="1.0" encoding="iso-8859-1"?>
<!-- Generator: Adobe Illustrator 24.3.0, SVG Export Plug-In . SVG Version: 6.00 Build 0)  -->
<svg version="1.1" id="Layer_1" xmlns="http://www.w3.org/2000/svg" xmlns:xlink="http://www.w3.org/1999/xlink" x="0px" y="0px"
	 viewBox="0 0 512 512" style="enable-background:new 0 0 512 512;" xml:space="preserve">
<path d="M272,464h-32c-17.673,0-32-14.327-32-32l0.05-85.82c0.003-2.209-1.785-4.003-3.994-4.006
	c-0.704-0.001-1.396,0.184-2.006,0.536l-74.34,43.06c-15.055,8.692-34.306,3.534-43-11.52l-16.5-28.64l-0.06-0.1
	c-8.451-15.033-3.311-34.066,11.56-42.8l74.61-43.25c1.911-1.108,2.561-3.556,1.453-5.467c-0.35-0.603-0.85-1.103-1.453-1.453
	l-74.54-43.21c-15.049-8.629-20.253-27.824-11.623-42.873c0.024-0.042,0.049-0.085,0.073-0.127l16.44-28.55
	c4.196-7.291,11.135-12.599,19.27-14.74c8.042-2.158,16.614-1.006,23.8,3.2l74.31,43c1.913,1.105,4.36,0.449,5.464-1.464
	c0.352-0.61,0.537-1.302,0.536-2.006L208,80c0-17.673,14.327-32,32-32h32c17.673,0,32,14.327,32,32v85.72
	c-0.003,2.209,1.785,4.003,3.994,4.006c0.704,0.001,1.396-0.184,2.006-0.536l74.34-43.06c15.058-8.674,34.295-3.52,43,11.52
	l16.49,28.64l0.06,0.09c8.553,15.058,3.355,34.197-11.64,42.86l-74.53,43.2c-1.911,1.108-2.561,3.556-1.453,5.467
	c0.35,0.603,0.85,1.103,1.453,1.453l74.53,43.2c15.053,8.633,20.258,27.834,11.625,42.887c-0.022,0.038-0.043,0.075-0.065,0.113
	l-16.44,28.55c-4.196,7.291-11.135,12.599-19.27,14.74c-8.042,2.158-16.614,1.006-23.8-3.2l-74.31-43
	c-1.913-1.105-4.36-0.449-5.464,1.464c-0.35,0.607-0.535,1.295-0.536,1.996L304,432C304,449.673,289.673,464,272,464z
	 M178.44,266.52L178.44,266.52z M178.44,245.52L178.44,245.52z M333.54,245.44L333.54,245.44z"/>
</svg>
