<?xml version="1.0" encoding="iso-8859-1"?>
<!-- Generator: Adobe Illustrator 24.3.0, SVG Export Plug-In . SVG Version: 6.00 Build 0)  -->
<svg version="1.1" id="Layer_1" xmlns="http://www.w3.org/2000/svg" xmlns:xlink="http://www.w3.org/1999/xlink" x="0px" y="0px"
	 viewBox="0 0 512 512" style="enable-background:new 0 0 512 512;" xml:space="preserve">
<path d="M272,464h-32c-17.645,0-32-14.355-32-32l0.065-92.787l-80.355,46.552c-15.091,8.68-34.379,3.482-43.038-11.564
	l-16.466-28.583c-8.541-15.042-3.361-34.253,11.498-42.912L160.293,256l-80.557-46.687c-0.015-0.009-0.029-0.017-0.044-0.026
	c-0.002-0.001-0.003-0.002-0.005-0.003c-14.993-8.672-20.138-27.925-11.47-42.921l16.445-28.574
	c8.661-15.047,27.947-20.245,42.997-11.587l80.397,46.577L208,80.01C208,62.355,222.355,48,240,48h32c17.645,0,32,14.355,32,32
	l-0.065,92.687l80.354-46.552c15.09-8.681,34.379-3.483,43.038,11.564l16.467,28.583c0.009,0.016,0.018,0.032,0.027,0.047
	c8.563,14.984,3.388,34.224-11.54,42.887l-80.565,46.692l80.541,46.677c0.007,0.004,0.014,0.008,0.021,0.012
	c0.013,0.008,0.025,0.015,0.038,0.022c14.998,8.67,20.147,27.927,11.478,42.926l-16.459,28.57
	c-8.656,15.042-27.941,20.24-42.993,11.581l-80.398-46.576L304,431.991C304,449.645,289.645,464,272,464z M240.08,318.472
	L240,432.012L272,432l-0.07-113.619c-0.023-5.307,2.01-10.312,5.73-14.101c3.744-3.812,8.748-5.938,14.092-5.985
	c3.55-0.058,7.09,0.894,10.187,2.684l97.919,56.728l15.941-27.672l-98.062-56.832c-9.586-5.625-12.783-17.903-7.203-27.414
	c1.726-2.94,4.188-5.403,7.125-7.127l98.136-56.875l-15.947-27.683l-97.907,56.721c-4.646,2.683-10.035,3.392-15.197,2.01
	c-5.16-1.383-9.473-4.692-12.144-9.318c-1.771-3.065-2.697-6.558-2.68-10.101L272,79.989L240,80l0.07,113.511
	c0.026,5.311-2.007,10.318-5.731,14.109c-3.743,3.811-8.746,5.937-14.088,5.985c-3.547,0.052-7.087-0.894-10.177-2.676
	l-97.932-56.735l-15.931,27.681l98.062,56.832c4.681,2.746,7.96,7.082,9.307,12.251c1.347,5.171,0.599,10.557-2.106,15.165
	c-1.719,2.934-4.186,5.401-7.129,7.127l-98.134,56.874l15.941,27.672l97.907-56.721c9.57-5.526,21.827-2.242,27.341,7.309
	C239.168,311.441,240.096,314.93,240.08,318.472z M208.081,318.3c0,0.002,0,0.003,0,0.005
	C208.081,318.303,208.081,318.302,208.081,318.3z M303.929,318.189c0,0.009,0.001,0.017,0.001,0.025
	C303.93,318.206,303.929,318.198,303.929,318.189z M303.919,193.607c0,0.001,0,0.002,0,0.003
	C303.919,193.609,303.919,193.608,303.919,193.607z"/>
</svg>
