<?xml version="1.0" encoding="iso-8859-1"?>
<!-- Generator: Adobe Illustrator 24.3.0, SVG Export Plug-In . SVG Version: 6.00 Build 0)  -->
<svg version="1.1" id="Layer_1" xmlns="http://www.w3.org/2000/svg" xmlns:xlink="http://www.w3.org/1999/xlink" x="0px" y="0px"
	 viewBox="0 0 512 512" style="enable-background:new 0 0 512 512;" xml:space="preserve">
<rect x="168" y="72" style="fill:none;" width="176" height="24"/>
<path d="M484,96H384V40c0-4.418-3.582-8-8-8H136c-4.418,0-8,3.582-8,8v56H28c-6.627,0-12,5.373-12,12v360c0,6.627,5.373,12,12,12
	h456c6.627,0,12-5.373,12-12V108C496,101.373,490.627,96,484,96z M168,72h176v24H168V72z M352,310h-74v74h-44v-74h-74v-44h74v-74h44
	v74h74V310z"/>
</svg>
