<?xml version="1.0" encoding="iso-8859-1"?>
<!-- Generator: Adobe Illustrator 24.3.0, SVG Export Plug-In . SVG Version: 6.00 Build 0)  -->
<svg version="1.1" id="Layer_1" xmlns="http://www.w3.org/2000/svg" xmlns:xlink="http://www.w3.org/1999/xlink" x="0px" y="0px"
	 viewBox="0 0 512 512" style="enable-background:new 0 0 512 512;" xml:space="preserve">
<path style="fill:none;" d="M336,64H176c-8.837,0-16,7.163-16,16v16h192V80C352,71.163,344.837,64,336,64z"/>
<path d="M432,96h-48V80c-0.028-26.498-21.502-47.972-48-48H176c-26.498,0.028-47.972,21.502-48,48v16H80
	c-35.33,0.039-63.961,28.67-64,64v256c0,35.346,28.654,64,64,64h352c35.346,0,64-28.654,64-64V160
	C495.961,124.67,467.33,96.039,432,96z M336,304h-64v64c0,8.837-7.163,16-16,16c-8.837,0-16-7.163-16-16v-64h-64
	c-8.837,0-16-7.163-16-16s7.163-16,16-16h64v-64c0-8.837,7.163-16,16-16c8.837,0,16,7.163,16,16v64h64c8.837,0,16,7.163,16,16
	S344.837,304,336,304z M352,96H160V80c0-8.837,7.163-16,16-16h160c8.837,0,16,7.163,16,16V96z"/>
</svg>
