<svg width="33" height="33" viewBox="0 0 33 33"  xmlns="http://www.w3.org/2000/svg">
<g clip-path="url(#clip0_8552_54389)">
<path d="M31.8498 19.5129C31.9617 18.7344 31.9996 17.9531 31.9465 17.2163C31.9281 16.9635 31.7744 16.7536 31.563 16.6923L30.2263 16.3041C30.2326 16.2238 30.2379 16.1431 30.2436 16.0628C30.2634 15.78 30.2762 15.4993 30.2854 15.2198C30.2765 14.9419 29.9632 14.8164 29.9632 14.8164L29.6413 14.7229V14.7221C29.5216 14.6937 29.4015 14.6653 29.2833 14.6357C28.8821 14.5356 28.4872 14.4294 28.0995 14.317C23.4515 12.9681 19.8009 10.7946 17.3155 8.96072C16.0729 8.04439 15.1217 7.21287 14.484 6.6131C14.1653 6.31342 13.9249 6.07179 13.7652 5.90589C13.7365 5.87625 13.7113 5.84991 13.688 5.82521C13.3261 5.29748 12.8618 4.90436 12.3087 4.74505C11.6685 4.55775 11.0063 4.71212 10.404 5.08466C9.49708 5.64655 8.66882 6.68226 7.94573 8.03822C7.22512 9.39501 6.61783 11.0807 6.21272 12.964C5.67483 15.4763 5.59339 17.8716 5.91598 19.7697C6.07887 20.7194 6.34268 21.5484 6.72618 22.2087C7.10685 22.8665 7.62881 23.3646 8.26974 23.5499L8.27258 23.5507C8.82463 23.7108 9.39298 23.617 9.9252 23.349C10.8013 23.0921 14.3969 22.1647 19.4086 22.529C19.0053 23.7977 18.5169 25.1306 18.1062 26.2021C17.8608 26.8418 17.6426 27.3889 17.4865 27.7754C17.4412 27.887 17.4011 27.9854 17.3672 28.0681C17.0832 28.085 16.6405 28.12 16.183 28.1891C15.7988 28.2484 15.4065 28.3287 15.064 28.4588C14.8919 28.525 14.7312 28.6016 14.5782 28.7198C14.4305 28.8363 14.2616 29.0112 14.1929 29.3133C14.1487 29.5085 14.1749 29.7266 14.2404 29.8913C14.3579 30.1832 14.5399 30.3635 14.7715 30.5508C15.1225 30.8253 15.6225 31.0987 16.3576 31.4169C17.0913 31.733 18.0566 32.0866 19.3148 32.488L19.3261 32.4913C19.495 32.5402 19.6742 32.4855 19.8006 32.3451C19.8257 32.3118 22.8948 28.9178 24.9854 23.4334C25.3463 23.5244 25.71 23.6227 26.0779 23.7294C26.4653 23.8417 26.8569 23.964 27.2517 24.0949C27.4313 24.1542 27.6115 24.2163 27.7925 24.2801L27.7928 24.2797L28.0354 24.3662C28.0354 24.3662 28.2273 24.4209 28.3336 24.22C28.4522 23.9385 28.5676 23.6528 28.6763 23.3605C28.704 23.286 28.7316 23.2123 28.7585 23.1374L30.0952 23.5256C30.3067 23.5869 30.5273 23.4857 30.6459 23.2724C30.9904 22.6513 31.273 21.9412 31.4887 21.1928C31.5676 20.9199 31.6381 20.642 31.6983 20.3613C31.7585 20.0801 31.8088 19.7969 31.8498 19.5129ZM11.0877 20.7507C10.6242 21.411 10.1423 21.8926 9.69893 22.1639C9.65785 22.189 9.61784 22.21 9.57817 22.2318C9.47619 22.2865 9.3774 22.3302 9.28143 22.3631C9.00487 22.4594 8.75169 22.4697 8.5162 22.4018C8.16741 22.2997 7.85331 22.0301 7.56896 21.5456C7.14403 20.8235 6.84339 19.6339 6.7662 18.1832C6.68581 16.7326 6.81896 15.0239 7.19998 13.2509C7.70671 10.886 8.56011 8.86316 9.49071 7.54383C9.95424 6.88314 10.4362 6.40193 10.8795 6.13065C11.3268 5.85814 11.7131 5.79228 12.0622 5.89231C12.2974 5.96146 12.5166 6.10842 12.722 6.34471C12.7931 6.42621 12.8629 6.51883 12.9309 6.62339C12.9571 6.66414 12.9836 6.70449 13.0098 6.74894C13.4344 7.47056 13.7354 8.66022 13.8126 10.1113C13.8363 10.5381 13.8409 10.9877 13.8264 11.4541C12.4819 11.0885 11.421 11.1371 10.6026 11.557C9.75275 11.9888 9.23469 12.8421 9.03958 13.7844C8.83065 14.7229 8.9429 15.7586 9.51868 16.605C10.0711 17.4221 10.9872 18.0445 12.3215 18.4566C11.9461 19.3515 11.5258 20.1295 11.0877 20.7507ZM13.723 12.6408C13.7322 12.6437 13.7411 12.6466 13.7506 12.6495C13.6766 13.4213 13.5541 14.2253 13.3781 15.044C13.2032 15.8624 12.9854 16.6383 12.7382 17.3599C12.729 17.3575 12.7198 17.3554 12.711 17.3529C11.4287 16.9821 10.6887 16.4296 10.3204 15.8764C9.95566 15.3231 9.88802 14.7509 10.0268 14.0709C10.1791 13.3954 10.4705 12.9273 11.0162 12.638C11.5647 12.351 12.4411 12.2675 13.723 12.6408ZM13.3041 21.3937C13.2779 21.4307 13.2521 21.4653 13.2259 21.5011C13.0123 21.5279 12.8076 21.5559 12.6104 21.5855C12.2857 21.6332 11.9833 21.6835 11.7039 21.7349C12.0297 21.3006 12.3402 20.8054 12.6331 20.2563C12.7967 19.9484 12.9539 19.6219 13.1051 19.2811C13.6186 18.1223 14.0527 16.7861 14.3657 15.3305C14.6773 13.8745 14.8353 12.4585 14.8505 11.1552C14.8615 10.2097 14.7981 9.32256 14.6625 8.52437C14.6448 8.42229 14.6256 8.32226 14.6058 8.22264C14.8314 8.42064 15.0782 8.63017 15.3455 8.84999C15.5081 8.98377 15.6777 9.12126 15.8555 9.26163C15.9404 9.7165 15.9999 10.2175 16.0286 10.7543C16.1086 12.2053 15.9755 13.9136 15.5941 15.687C15.0878 18.0511 14.2344 20.0739 13.3041 21.3937ZM21.5711 28.0212C20.8973 29.1322 20.2747 30.0041 19.8229 30.596C19.603 30.8838 19.4238 31.1048 19.2985 31.2551C17.5757 30.696 16.4631 30.2358 15.8211 29.8793C15.6246 29.7711 15.4727 29.6711 15.365 29.5887C15.4334 29.5611 15.5137 29.5331 15.5998 29.5109C15.9971 29.3965 16.5346 29.3236 16.9613 29.2845C17.1756 29.2648 17.3633 29.2524 17.4964 29.2454C17.6299 29.2384 17.7053 29.2364 17.7057 29.2359C17.8955 29.2306 18.0676 29.1022 18.1508 28.9037C18.1529 28.8988 18.4826 28.1126 18.9259 26.9678L20.3197 27.1851C20.5984 27.2288 20.8544 27.0011 20.8916 26.6776C20.9288 26.354 20.7337 26.056 20.455 26.0128L19.3541 25.8411C19.4762 25.5122 19.6016 25.1693 19.7269 24.8182C19.728 24.8186 19.7291 24.819 19.7301 24.819L21.7014 25.1265C21.9798 25.1701 22.2358 24.9425 22.2733 24.6189C22.3105 24.295 22.115 23.9974 21.8367 23.9541L20.1189 23.6861C20.2379 23.3309 20.3537 22.9744 20.4624 22.6233C21.5733 22.7414 22.745 22.9242 23.9646 23.1918C23.2234 25.0849 22.3626 26.7175 21.5711 28.0212ZM24.5846 21.4459C24.5163 21.66 24.4458 21.8708 24.3739 22.0795C23.3824 21.8551 22.4213 21.6847 21.4968 21.56C18.8473 21.201 16.4968 21.2093 14.5909 21.3611C14.678 21.2117 14.7645 21.0578 14.8487 20.8997C15.5693 19.5425 16.1766 17.8572 16.5817 15.9735C17.0329 13.8688 17.1618 11.8472 17.0021 10.1298C18.6228 11.305 20.6936 12.5964 23.1763 13.7272C24.0124 14.1079 24.8944 14.4702 25.8222 14.804C25.8105 15.0255 25.7967 15.2453 25.7794 15.4635C25.6869 16.6305 25.5152 17.7551 25.2843 18.8295C25.0892 19.7393 24.8516 20.6124 24.5846 21.4459ZM28.2659 21.3109C28.0949 21.8938 27.9054 22.4639 27.6972 23.0127C27.2351 22.8571 26.7769 22.713 26.3247 22.5817C26.0085 22.4899 25.6954 22.4047 25.3845 22.324C25.4862 22.0235 25.5839 21.7172 25.6781 21.4064C25.9005 20.6716 26.1012 19.9076 26.2716 19.1164C26.4787 18.152 26.6402 17.1471 26.7443 16.1073C26.7758 15.7903 26.8017 15.4701 26.8222 15.1465C27.1604 15.2568 27.5039 15.3631 27.853 15.4647C28.3056 15.596 28.768 15.7191 29.239 15.8344C29.2008 16.4325 29.1377 17.0393 29.0527 17.6473C28.9667 18.2656 28.8576 18.8851 28.7259 19.4984C28.5945 20.1114 28.4398 20.7182 28.2659 21.3109ZM30.3952 21.2331C30.2723 21.6003 30.1317 21.9506 29.9766 22.2717L29.1289 22.026C29.2061 21.7765 29.279 21.525 29.3488 21.2714C29.4833 20.782 29.6055 20.2855 29.7135 19.785C29.8208 19.2844 29.9136 18.7793 29.9925 18.2742C30.0336 18.012 30.0708 17.7498 30.1037 17.488L30.9515 17.7337C30.9582 18.1021 30.9409 18.4879 30.9005 18.8797C30.8601 19.2762 30.7964 19.6783 30.711 20.0743C30.6264 20.4708 30.5195 20.861 30.3952 21.2331ZM4.68935 13.1315C4.96201 13.2106 5.23822 13.0179 5.30621 12.7005C5.3742 12.384 5.20847 12.0629 4.93581 11.9838L1.52185 10.9926C1.24918 10.9136 0.972977 11.1066 0.904988 11.4232C0.836999 11.7402 1.00272 12.0616 1.27539 12.1407L4.68935 13.1315ZM9.60615 4.02261C9.67697 4.17163 9.7956 4.27124 9.92768 4.30953C10.0484 4.34452 10.1802 4.32846 10.2977 4.25272C10.5435 4.09383 10.632 3.73405 10.4957 3.44836L9.38837 1.12915C9.25204 0.843055 8.9422 0.740144 8.6968 0.898627C8.45069 1.05711 8.36252 1.4173 8.49885 1.70298L9.60615 4.02261ZM4.75344 3.94357L7.20742 6.52048C7.27151 6.58799 7.34658 6.63286 7.42484 6.6555C7.60154 6.70696 7.79595 6.64603 7.92626 6.47808C8.11464 6.23562 8.09835 5.86185 7.88978 5.64285L5.43546 3.06594C5.22724 2.84695 4.90571 2.86588 4.71697 3.10834C4.52858 3.3508 4.54523 3.72458 4.75344 3.94357ZM2.46979 7.68873L5.88376 9.55802C5.91457 9.57448 5.94608 9.58766 5.97795 9.59712C6.20883 9.66381 6.45564 9.53455 6.56117 9.27481C6.68086 8.97924 6.57179 8.62687 6.31754 8.48774L2.90358 6.61845C2.64933 6.47932 2.34621 6.6061 2.22617 6.90166C2.10648 7.19681 2.21554 7.54918 2.46979 7.68873ZM5.59197 22.7101L3.67695 24.1525C3.44112 24.3304 3.37348 24.6963 3.5261 24.9705C3.5994 25.1014 3.70953 25.1878 3.83028 25.2228C3.96201 25.2611 4.10684 25.238 4.23007 25.1454L6.14544 23.703C6.38128 23.5252 6.44856 23.1592 6.29594 22.8851C6.14297 22.6109 5.82781 22.5323 5.59197 22.7101ZM5.10259 19.6244C5.03425 19.3079 4.75805 19.1152 4.48538 19.1947L1.27751 20.1287C1.00485 20.2077 0.839124 20.5288 0.907467 20.8458C0.954563 21.0648 1.10152 21.2249 1.27822 21.2759C1.35648 21.299 1.44075 21.3002 1.52468 21.2759L4.73255 20.3423C5.00521 20.2629 5.17058 19.9414 5.10259 19.6244ZM5.02858 16.4103C5.0424 16.0843 4.82603 15.8064 4.54523 15.7903L0.776093 15.5746C0.495284 15.5586 0.256615 15.8105 0.242805 16.1365C0.230765 16.423 0.396134 16.6725 0.627013 16.7392C0.658883 16.7486 0.691815 16.7544 0.726163 16.7565L4.4953 16.9718C4.77611 16.9882 5.01477 16.7367 5.02858 16.4103Z" fill="#100E0C" stroke="black" stroke-width="0.666667"/>
</g>
<defs>
<clipPath id="clip0_8552_54389">
<rect width="32" height="32" fill="white" transform="translate(0.109375 0.666016)"/>
</clipPath>
</defs>
</svg>
