<?xml version="1.0" encoding="iso-8859-1"?>
<!-- Generator: Adobe Illustrator 24.3.0, SVG Export Plug-In . SVG Version: 6.00 Build 0)  -->
<svg version="1.1" id="Layer_1" xmlns="http://www.w3.org/2000/svg" xmlns:xlink="http://www.w3.org/1999/xlink" x="0px" y="0px"
	 viewBox="0 0 512 512" style="enable-background:new 0 0 512 512;" xml:space="preserve">
<path d="M128,144v332c0,2.209,1.791,4,4,4h100.07c4.418,0.001,8.001-3.579,8.003-7.997c0-0.572-0.061-1.143-0.183-1.703L208.71,352
	H232c4.418,0,8-3.582,8-8V144H128z"/>
<path d="M452.18,186.55L448,185.5V36c0-2.209-1.791-4-4-4h-42.5c-0.969,0.004-1.903,0.359-2.63,1L272,144v160l126.87,111
	c0.727,0.641,1.661,0.996,2.63,1H444c2.209,0,4-1.791,4-4V262.5l4.18-1.05C461.8,258.84,480,247.67,480,224
	S461.8,189.16,452.18,186.55z"/>
<path d="M96,144H52c-2.209,0-4,1.791-4,4v35.59c-1.514,1.348-2.931,2.802-4.24,4.35C38.4,194.32,32,205.74,32,224
	c0,20.19,7.89,33.13,16,40.42V300c0,2.209,1.791,4,4,4h44V144z"/>
</svg>
