<?xml version="1.0" encoding="iso-8859-1"?>
<!-- Generator: Adobe Illustrator 24.3.0, SVG Export Plug-In . SVG Version: 6.00 Build 0)  -->
<svg version="1.1" id="Layer_1" xmlns="http://www.w3.org/2000/svg" xmlns:xlink="http://www.w3.org/1999/xlink" x="0px" y="0px"
	 viewBox="0 0 512 512" style="enable-background:new 0 0 512 512;" xml:space="preserve">
<path d="M416.434,416.019c-8.4,0.001-16.075-3.467-21.061-9.885c-1.424-1.756-22.224-27.195-51.688-52.177
	C305.137,321.276,269.283,304,240,304H80c-17.645,0-32-14.355-32-32V176c0-17.645,14.355-32,32-32h160
	c29.295,0,65.157-17.205,103.709-49.754c29.754-25.121,50.671-50.708,51.726-52.007c7.343-9.282,19.762-12.63,31.688-8.524
	C439.609,38.013,448,49.38,448,62v324.4c0,12.622-8.274,23.558-21.079,27.859C423.395,415.444,419.854,416.019,416.434,416.019z
	 M80,176V272h160c77.987,0,156.563,86.103,176,108.901V67.528C396.598,90.196,317.997,176,240,176H80z M407.94,52.22h0.01H407.94z"
	/>
<path d="M63.998,272.004c-1.867,0-3.765-0.329-5.616-1.023C48.583,267.307,32,253.277,32,224c0-18.257,6.396-29.685,11.761-36.056
	c6.215-7.381,12.762-10.228,14.621-10.925c8.274-3.103,17.497,1.089,20.6,9.363c3.017,8.044-0.862,16.985-8.684,20.327
	C69.315,207.271,64,210.92,64,224c0,8.604,2.305,13.147,4.239,15.444c0.157,0.187,1.378,1.575,1.379,1.575
	c8.274,3.103,12.466,12.326,9.363,20.599C76.573,268.041,70.476,272.004,63.998,272.004z M69.642,206.972
	c-0.008,0.003-0.016,0.006-0.023,0.009C69.626,206.978,69.634,206.975,69.642,206.972z M69.651,206.969
	c-0.003,0.001-0.005,0.002-0.009,0.003C69.646,206.971,69.648,206.97,69.651,206.969z"/>
<path d="M452.18,261.445l-8.359-30.889c0,0-0.152,0.031-0.417,0.122C448,229.115,448,225.265,448,224s0-5.115-4.597-6.677
	c0.265,0.09,0.417,0.122,0.417,0.122l8.359-30.889C461.802,189.16,480,200.337,480,224S461.802,258.84,452.18,261.445z"/>
<path d="M256,304c-8.836,0-16-7.163-16-16V160c0-8.836,7.164-16,16-16c8.837,0,16,7.164,16,16V288C272,296.837,264.837,304,256,304z
	"/>
<path d="M112,304c-8.836,0-16-7.163-16-16V160c0-8.836,7.164-16,16-16s16,7.164,16,16V288C128,296.837,120.836,304,112,304z"/>
<path d="M205.006,480c-0.004,0-0.007,0-0.011,0H152c-13.234,0-24-10.767-24-24V288c0-8.837,7.164-16,16-16s16,7.163,16,16v160h45
	c-1.997-6.421-4.921-13.526-8.017-21.049C187.635,404.237,176,375.966,176,336c0-8.837,7.164-16,16-16h16v-16h-16
	c-8.836,0-16-7.163-16-16s7.164-16,16-16h16c17.645,0,32,14.355,32,32v16c0,17.389-13.942,31.582-31.234,31.991
	c2.479,25.533,10.548,45.14,17.809,62.781c3.373,8.194,6.558,15.935,8.99,23.735c0.96,3.103,1.442,6.291,1.44,9.507
	c-0.002,8.543-3.333,16.578-9.379,22.62C221.583,476.674,213.549,480,205.006,480z"/>
</svg>
