<?xml version="1.0" encoding="iso-8859-1"?>
<!-- Generator: Adobe Illustrator 24.3.0, SVG Export Plug-In . SVG Version: 6.00 Build 0)  -->
<svg version="1.1" id="Layer_1" xmlns="http://www.w3.org/2000/svg" xmlns:xlink="http://www.w3.org/1999/xlink" x="0px" y="0px"
	 viewBox="0 0 512 512" style="enable-background:new 0 0 512 512;" xml:space="preserve">
<path d="M432,176H80c-8.836,0-16-7.164-16-16s7.164-16,16-16h352c8.837,0,16,7.164,16,16S440.837,176,432,176z"/>
<path d="M432,272H80c-8.836,0-16-7.164-16-16.001c0-8.836,7.164-16,16-16h352c8.837,0,16,7.164,16,16
	C448,264.836,440.837,272,432,272z"/>
<path d="M432,368H80c-8.836,0-16-7.163-16-16s7.164-16,16-16h352c8.837,0,16,7.163,16,16S440.837,368,432,368z"/>
</svg>
