<?xml version="1.0" encoding="iso-8859-1"?>
<!-- Generator: Adobe Illustrator 24.3.0, SVG Export Plug-In . SVG Version: 6.00 Build 0)  -->
<svg version="1.1" id="Layer_1" xmlns="http://www.w3.org/2000/svg" xmlns:xlink="http://www.w3.org/1999/xlink" x="0px" y="0px"
	 viewBox="0 0 512 512" style="enable-background:new 0 0 512 512;" xml:space="preserve">
<path d="M424,176H88c-13.255,0-24-10.745-24-24s10.745-24,24-24h336c13.255,0,24,10.745,24,24S437.255,176,424,176z"/>
<path d="M424,280H88C74.745,280,64,269.254,64,256c0-13.255,10.745-24,24-24h336c13.255,0,24,10.745,24,24
	C448,269.254,437.255,280,424,280z"/>
<path d="M424,384H88c-13.255,0-24-10.745-24-24s10.745-24,24-24h336c13.255,0,24,10.745,24,24S437.255,384,424,384z"/>
</svg>
