<?xml version="1.0" encoding="iso-8859-1"?>
<!-- Generator: Adobe Illustrator 24.3.0, SVG Export Plug-In . SVG Version: 6.00 Build 0)  -->
<svg version="1.1" id="Layer_1" xmlns="http://www.w3.org/2000/svg" xmlns:xlink="http://www.w3.org/1999/xlink" x="0px" y="0px"
	 viewBox="0 0 512 512" style="enable-background:new 0 0 512 512;" xml:space="preserve">
<path d="M432,416c-4.096,0-8.189-1.562-11.313-4.687l-336-336c-6.248-6.249-6.248-16.379,0-22.627
	c6.248-6.249,16.378-6.249,22.627,0l336,336c6.249,6.248,6.249,16.379,0,22.627C440.189,414.438,436.095,416,432,416z"/>
<path d="M400,240v-31.55c0-8.61-6.62-16-15.23-16.43c-8.826-0.425-16.326,6.385-16.751,15.211C368.006,207.488,368,207.744,368,208
	v32c0.004,8.2-0.894,16.376-2.68,24.38c-0.147,0.664,0.052,1.357,0.53,1.84l22.59,22.59c0.781,0.781,2.047,0.781,2.828,0
	c0.204-0.204,0.361-0.45,0.462-0.72C397.216,272.651,400.013,256.385,400,240z"/>
<path d="M256,352c-61.774-0.198-111.802-50.226-112-112v-31.55c0-8.61-6.62-16-15.23-16.43c-8.826-0.425-16.326,6.385-16.751,15.211
	C112.006,207.487,112,207.744,112,208v32c0,74,56.1,135.12,128,143.11V432h-47.55c-8.61,0-16,6.62-16.43,15.23
	c-0.425,8.826,6.385,16.326,15.211,16.751c0.256,0.012,0.512,0.018,0.769,0.019h127.55c8.61,0,16-6.62,16.43-15.23
	c0.425-8.826-6.385-16.326-15.211-16.751C320.513,432.006,320.256,432,320,432h-48v-48.89c18.212-2.027,35.865-7.533,52-16.22
	c1.941-1.055,2.659-3.484,1.603-5.425c-0.185-0.34-0.419-0.652-0.693-0.925l-18.4-18.39c-0.9-0.895-2.265-1.127-3.41-0.58
	C288.354,348.458,272.275,352.018,256,352z"/>
<path d="M257.14,48c-27.62-0.507-53.532,13.332-68.47,36.57c-1.021,1.586-0.796,3.669,0.54,5L332.59,233
	c0.783,0.779,2.05,0.775,2.828-0.008c0.373-0.375,0.582-0.883,0.582-1.412V128.91C336,85,301,48.6,257.14,48z"/>
<path d="M179.41,215c-0.783-0.779-2.05-0.775-2.828,0.008c-0.373,0.375-0.582,0.883-0.582,1.412V239
	c0.014,21.316,8.442,41.764,23.45,56.9c20.053,20.851,49.943,28.992,77.8,21.19c1.063-0.3,1.682-1.405,1.382-2.468
	c-0.094-0.334-0.274-0.638-0.522-0.882L179.41,215z"/>
</svg>
