<?xml version="1.0" encoding="iso-8859-1"?>
<!-- Generator: Adobe Illustrator 24.3.0, SVG Export Plug-In . SVG Version: 6.00 Build 0)  -->
<svg version="1.1" id="Layer_1" xmlns="http://www.w3.org/2000/svg" xmlns:xlink="http://www.w3.org/1999/xlink" x="0px" y="0px"
	 viewBox="0 0 512 512" style="enable-background:new 0 0 512 512;" xml:space="preserve">
<path d="M256,48C141.31,48,48,141.31,48,256s93.31,208,208,208s208-93.31,208-208S370.69,48,256,48z M208,176
	c0.077-26.478,21.522-47.923,48-48l0,0c26.478,0.077,47.923,21.522,48,48v64c-0.077,26.478-21.522,47.923-48,48l0,0
	c-26.478-0.077-47.923-21.522-48-48V176z M352,248.22c0,23.36-10.94,45.61-30.79,62.66c-14.027,12.04-31.016,20.111-49.21,23.38V352
	h16c8.837,0,16,7.163,16,16s-7.163,16-16,16h-64c-8.837,0-16-7.163-16-16s7.163-16,16-16h16v-17.74
	c-18.194-3.269-35.183-11.34-49.21-23.38c-19.85-17.05-30.79-39.3-30.79-62.66V224.3c0-8.837,7.163-16,16-16s16,7.163,16,16v23.92
	c0,25.66,28,55.48,64,55.48c29.6,0,64-24.23,64-55.48V224.3c0-8.837,7.163-16,16-16s16,7.163,16,16V248.22z"/>
</svg>
