<?xml version="1.0" encoding="iso-8859-1"?>
<!-- Generator: Adobe Illustrator 24.3.0, SVG Export Plug-In . SVG Version: 6.00 Build 0)  -->
<svg version="1.1" id="Layer_1" xmlns="http://www.w3.org/2000/svg" xmlns:xlink="http://www.w3.org/1999/xlink" x="0px" y="0px"
	 viewBox="0 0 512 512" style="enable-background:new 0 0 512 512;" xml:space="preserve">
<rect x="176" y="432" width="160" height="32"/>
<path d="M256,384C176.598,384,112,319.402,112,240v-48h32v48c0,29.775,11.689,57.862,32.914,79.086
	C198.139,340.311,226.225,352,256,352c29.775,0,57.861-11.689,79.087-32.914C356.312,297.862,368,269.775,368,240v-48h32v48
	C400,319.402,335.402,384,256,384z"/>
<rect x="240" y="352" width="32" height="112"/>
<path d="M256,320c-21.335-0.05-41.738-8.745-56.55-24.1c-15.008-15.136-23.436-35.584-23.45-56.9V128
	c-0.172-44.011,35.368-79.828,79.379-80c0.207-0.001,0.414-0.001,0.621,0c44.86,0,80,35.14,80,80v111C336,283.66,300.11,320,256,320
	z"/>
</svg>
