<?xml version="1.0" encoding="iso-8859-1"?>
<!-- Generator: Adobe Illustrator 24.3.0, SVG Export Plug-In . SVG Version: 6.00 Build 0)  -->
<svg version="1.1" id="Layer_1" xmlns="http://www.w3.org/2000/svg" xmlns:xlink="http://www.w3.org/1999/xlink" x="0px" y="0px"
	 viewBox="0 0 512 512" style="enable-background:new 0 0 512 512;" xml:space="preserve">
<path d="M256,464C141.309,464,48,370.692,48,256c0-114.691,93.309-208,208-208s208,93.309,208,208C464,370.692,370.691,464,256,464z
	 M256,80c-97.047,0-176,78.953-176,176C80,353.047,158.953,432,256,432S432,353.047,432,256C432,158.953,353.047,80,256,80z"/>
<path d="M288,384h-64c-8.836,0-16-7.163-16-16s7.164-16,16-16h64c8.837,0,16,7.163,16,16S296.837,384,288,384z"/>
<path d="M256,335.7c-23.071,0-46.837-9.046-65.206-24.818C170.936,293.83,160,271.577,160,248.22V224.3c0-8.836,7.164-16,16-16
	s16,7.164,16,16v23.92c0,25.656,27.957,55.48,64,55.48c29.597,0,64-24.234,64-55.48V224.3c0-8.836,7.163-16,16-16s16,7.164,16,16
	v23.92c0,23.356-10.937,45.609-30.794,62.661C302.838,326.654,279.071,335.7,256,335.7z"/>
<path d="M256,384c-8.836,0-16-7.163-16-16v-48c0-8.837,7.164-16,16-16c8.837,0,16,7.163,16,16v48C272,376.837,264.837,384,256,384z"
	/>
<path d="M256,128L256,128c26.51,0,48,21.49,48,48v64c0,26.51-21.49,48-48,48l0,0c-26.51,0-48-21.49-48-48v-64
	C208,149.49,229.49,128,256,128z"/>
</svg>
