<?xml version="1.0" encoding="iso-8859-1"?>
<!-- Generator: Adobe Illustrator 24.3.0, SVG Export Plug-In . SVG Version: 6.00 Build 0)  -->
<svg version="1.1" id="Layer_1" xmlns="http://www.w3.org/2000/svg" xmlns:xlink="http://www.w3.org/1999/xlink" x="0px" y="0px"
	 viewBox="0 0 512 512" style="enable-background:new 0 0 512 512;" xml:space="preserve">
<path d="M256,48C141.31,48,48,141.31,48,256s93.31,208,208,208s208-93.31,208-208S370.69,48,256,48z M256,128L256,128
	c26.478,0.077,47.923,21.522,48,48v64c-0.002,2.583-0.212,5.161-0.63,7.71c-0.186,1.089-1.219,1.821-2.307,1.636
	c-0.445-0.076-0.851-0.3-1.152-0.636l-84.42-92.86c-1.197-1.31-1.389-3.252-0.47-4.77C223.728,136.775,239.253,128.031,256,128z
	 M288,384h-63.55c-8.61,0-16-6.62-16.43-15.23c-0.425-8.826,6.385-16.326,15.211-16.751c0.256-0.012,0.512-0.018,0.769-0.019h16
	v-17.74c-18.194-3.269-35.183-11.34-49.21-23.38c-19.85-17.05-30.79-39.3-30.79-62.66V224c-0.054-8.787,7.026-15.953,15.812-16.007
	c0.193-0.001,0.385,0.001,0.578,0.007c8.78,0.351,15.693,7.614,15.61,16.4v23.82c0,25.66,28,55.48,64,55.48
	c1.67,0,3.37-0.09,5.06-0.24c1.239-0.113,2.458,0.365,3.29,1.29l21.07,23.19c0.745,0.816,0.687,2.081-0.129,2.825
	c-0.218,0.199-0.478,0.348-0.761,0.435c-4.107,1.288-8.292,2.31-12.53,3.06V352h15.55c8.61,0,16,6.62,16.43,15.23
	c0.425,8.826-6.385,16.326-15.211,16.751C288.513,383.994,288.256,384,288,384z M210.11,245.09l36.46,40.11
	c0.378,0.402,0.359,1.035-0.044,1.414c-0.242,0.228-0.582,0.32-0.906,0.246c-19.805-4.47-34.694-20.858-37.25-41
	c-0.057-0.549,0.342-1.041,0.891-1.098C209.58,244.729,209.896,244.851,210.11,245.09z M362.76,364.84
	c-6.539,5.942-16.657,5.458-22.6-1.08l-192-210c-5.864-6.61-5.259-16.723,1.351-22.587c6.498-5.765,16.41-5.291,22.329,1.067
	l192,210C369.782,348.779,369.298,358.897,362.76,364.84z M352,248.22c-0.063,14.473-4.197,28.636-11.93,40.87
	c-0.576,0.943-1.806,1.241-2.749,0.665c-0.164-0.1-0.312-0.223-0.441-0.365l-19.19-21.1c-1.026-1.128-1.32-2.742-0.76-4.16
	c2.014-5.063,3.056-10.461,3.07-15.91v-23.8c-0.078-8.036,5.712-14.929,13.64-16.24c9.88-1.48,18.36,6.51,18.36,16.12V248.22z"/>
</svg>
