<?xml version="1.0" encoding="iso-8859-1"?>
<!-- Generator: Adobe Illustrator 24.3.0, SVG Export Plug-In . SVG Version: 6.00 Build 0)  -->
<svg version="1.1" id="Layer_1" xmlns="http://www.w3.org/2000/svg" xmlns:xlink="http://www.w3.org/1999/xlink" x="0px" y="0px"
	 viewBox="0 0 512 512" style="enable-background:new 0 0 512 512;" xml:space="preserve">
<path d="M320,464H192c-8.836,0-16-7.163-16-16s7.164-16,16-16h128c8.837,0,16,7.163,16,16S328.837,464,320,464z"/>
<path d="M256,384C176.598,384,112,319.402,112,240v-32c0-8.836,7.164-16,16-16s16,7.164,16,16v32
	c0,29.775,11.689,57.862,32.914,79.086C198.139,340.311,226.225,352,256,352c29.774,0,57.861-11.689,79.086-32.914
	C356.312,297.862,368,269.775,368,240v-32c0-8.836,7.163-16,16-16s16,7.164,16,16v32C400,319.402,335.401,384,256,384z"/>
<path d="M256,464c-8.836,0-16-7.163-16-16v-80c0-8.837,7.164-16,16-16c8.837,0,16,7.163,16,16v80C272,456.837,264.837,464,256,464z"
	/>
<path d="M256,320c-21.222,0-41.304-8.558-56.547-24.096C184.329,280.488,176,260.279,176,239V127.285
	c0.107-21.291,8.496-41.258,23.622-56.231C214.736,56.091,234.793,47.865,256.034,48C300.879,48.017,336,83.151,336,128v111
	C336,283.664,300.112,320,256,320z M255.672,79.999c-12.645,0-24.545,4.893-33.538,13.796c-9.051,8.96-14.071,20.909-14.135,33.644
	V239C208,265.561,229.981,288,256,288c26.467,0,48-21.981,48-49.001V128c0-13.138-4.906-25.278-13.813-34.187
	C281.278,84.906,269.138,80,256,80C255.891,79.999,255.781,79.998,255.672,79.999z"/>
</svg>
