<?xml version="1.0" encoding="iso-8859-1"?>
<!-- Generator: Adobe Illustrator 24.3.0, SVG Export Plug-In . SVG Version: 6.00 Build 0)  -->
<svg version="1.1" id="Layer_1" xmlns="http://www.w3.org/2000/svg" xmlns:xlink="http://www.w3.org/1999/xlink" x="0px" y="0px"
	 viewBox="0 0 512 512" style="enable-background:new 0 0 512 512;" xml:space="preserve">
<path d="M256,48C141.31,48,48,141.31,48,256s93.31,208,208,208s208-93.31,208-208S370.69,48,256,48z M320,248.22V208h32v40.22
	c-0.083,15.378-4.736,30.384-13.37,43.11L316,266.4C318.611,260.694,319.975,254.496,320,248.22z M256,128L256,128
	c26.478,0.077,47.923,21.522,48,48v64c-0.003,3.924-0.487,7.833-1.44,11.64l-89-97.92C221.856,137.952,238.183,128.057,256,128z
	 M304,384h-96v-32h32v-17.74c-18.194-3.269-35.183-11.34-49.21-23.38c-19.85-17.05-30.79-39.3-30.79-62.66V208h32v40.22
	c0,25.66,28,55.48,64,55.48c2.34-0.006,4.678-0.156,7-0.45l24.52,27c-5.051,1.747-10.234,3.085-15.5,4V352h32L304,384z
	 M208.09,242.87l40.5,44.55C226.335,283.865,209.514,265.362,208.09,242.87z M344.16,367.76l-200.5-218.5l23.68-21.52l200.5,218.5
	L344.16,367.76z"/>
</svg>
