<?xml version="1.0" encoding="iso-8859-1"?>
<!-- Generator: Adobe Illustrator 24.3.0, SVG Export Plug-In . SVG Version: 6.00 Build 0)  -->
<svg version="1.1" id="Layer_1" xmlns="http://www.w3.org/2000/svg" xmlns:xlink="http://www.w3.org/1999/xlink" x="0px" y="0px"
	 viewBox="0 0 512 512" style="enable-background:new 0 0 512 512;" xml:space="preserve">
<path d="M256,464c-114.69,0-208-93.31-208-208S141.31,48,256,48s208,93.31,208,208S370.69,464,256,464z M256,80
	c-97,0-176,79-176,176s79,176,176,176s176-78.95,176-176S353.05,80,256,80z"/>
<path d="M352,369c-4.511,0.008-8.813-1.896-11.84-5.24l-192-210c-5.864-6.61-5.259-16.723,1.351-22.587
	c6.498-5.765,16.41-5.291,22.329,1.067l192,210c5.943,6.54,5.458,16.659-1.082,22.602C359.814,367.517,355.978,369,352,369z"/>
<path d="M352,248.22v-23.8c0.078-8.036-5.712-14.929-13.64-16.24c-9.88-1.48-18.36,6.51-18.36,16.12v23.92
	c-0.014,5.449-1.056,10.847-3.07,15.91c-0.56,1.418-0.266,3.032,0.76,4.16l19.19,21.1c0.741,0.819,2.006,0.882,2.825,0.141
	c0.142-0.129,0.265-0.277,0.365-0.441C347.803,276.856,351.937,262.693,352,248.22z"/>
<path d="M304,240v-64c-0.077-26.478-21.522-47.923-48-48l0,0c-16.759,0.028-32.293,8.781-41,23.1c-0.919,1.518-0.727,3.46,0.47,4.77
	l84.42,92.86c0.738,0.822,2.002,0.89,2.824,0.152c0.336-0.301,0.56-0.708,0.636-1.152C303.776,245.175,303.993,242.59,304,240z"/>
<path d="M246.57,285.2l-36.46-40.11c-0.366-0.414-0.998-0.453-1.411-0.088c-0.251,0.222-0.375,0.555-0.329,0.888
	c2.556,20.142,17.445,36.53,37.25,41c0.533,0.144,1.082-0.171,1.226-0.705C246.942,285.831,246.836,285.453,246.57,285.2z"/>
<path d="M287.55,352H272v-17.74c4.238-0.75,8.423-1.772,12.53-3.06c1.056-0.324,1.649-1.443,1.325-2.499
	c-0.087-0.283-0.235-0.543-0.435-0.761l-21.07-23.19c-0.832-0.925-2.051-1.404-3.29-1.29c-1.69,0.15-3.39,0.24-5.06,0.24
	c-36,0-64-29.82-64-55.48V224.4c0.083-8.786-6.83-16.049-15.61-16.4c-8.783-0.265-16.118,6.64-16.383,15.422
	c-0.006,0.192-0.008,0.385-0.007,0.578v24.22c0,23.36,10.94,45.61,30.79,62.66c14.027,12.04,31.016,20.111,49.21,23.38V352h-15.55
	c-8.61,0-16,6.62-16.43,15.23c-0.425,8.826,6.385,16.326,15.211,16.751c0.256,0.012,0.512,0.018,0.769,0.019h64
	c8.837,0.01,16.008-7.145,16.019-15.981c0-0.263-0.006-0.526-0.019-0.789C303.58,358.62,296.16,352,287.55,352z"/>
</svg>
