<?xml version="1.0" encoding="iso-8859-1"?>
<!-- Generator: Adobe Illustrator 24.3.0, SVG Export Plug-In . SVG Version: 6.00 Build 0)  -->
<svg version="1.1" id="Layer_1" xmlns="http://www.w3.org/2000/svg" xmlns:xlink="http://www.w3.org/1999/xlink" x="0px" y="0px"
	 viewBox="0 0 512 512" style="enable-background:new 0 0 512 512;" xml:space="preserve">
<rect x="248" y="-21.588" transform="matrix(0.7071 -0.7071 0.7071 0.7071 -86.725 254.6273)" width="32" height="507.176"/>
<path d="M368,192v48c0.002,8.568-0.981,17.107-2.93,25.45L390.65,291c6.197-16.289,9.366-33.572,9.35-51v-48H368z"/>
<path d="M272,432v-48.89c19.997-2.225,39.3-8.641,56.65-18.83L305,340.65c-55.737,26.99-122.8,3.687-149.79-52.05
	c-7.338-15.153-11.169-31.764-11.21-48.6v-48h-32v48c0,74,56.1,135.12,128,143.11V432h-64v32h160v-32H272z"/>
<path d="M336,236.37V128c0-44.86-35.14-80-80-80c-28.362-0.102-54.641,14.881-69,39.34"/>
<path d="M176,211.63V239c0.014,21.316,8.442,41.764,23.45,56.9c20.889,21.714,52.359,29.566,81,20.21L176,211.63z"/>
</svg>
