<?xml version="1.0" encoding="iso-8859-1"?>
<!-- Generator: Adobe Illustrator 24.3.0, SVG Export Plug-In . SVG Version: 6.00 Build 0)  -->
<svg version="1.1" id="Layer_1" xmlns="http://www.w3.org/2000/svg" xmlns:xlink="http://www.w3.org/1999/xlink" x="0px" y="0px"
	 viewBox="0 0 512 512" style="enable-background:new 0 0 512 512;" xml:space="preserve">
<path d="M320,464H192c-8.836,0-16-7.163-16-16s7.164-16,16-16h128c8.837,0,16,7.163,16,16S328.837,464,320,464z"/>
<path d="M256,384C176.598,384,112,319.402,112,240v-32c0-8.836,7.164-16,16-16s16,7.164,16,16v32
	c0,29.775,11.689,57.862,32.914,79.086C198.139,340.311,226.225,352,256,352c29.774,0,57.861-11.689,79.086-32.914
	C356.312,297.862,368,269.775,368,240v-32c0-8.836,7.163-16,16-16s16,7.164,16,16v32C400,319.402,335.401,384,256,384z"/>
<path d="M256,464c-8.836,0-16-7.163-16-16v-80c0-8.837,7.164-16,16-16c8.837,0,16,7.163,16,16v80C272,456.837,264.837,464,256,464z"
	/>
<path d="M256,320c-21.335-0.05-41.738-8.745-56.55-24.1c-15.008-15.136-23.436-35.584-23.45-56.9V128
	c-0.172-44.011,35.368-79.828,79.379-80c0.207-0.001,0.414-0.001,0.621,0c44.86,0,80,35.14,80,80v111C336,283.66,300.11,320,256,320
	z"/>
</svg>
