<?xml version="1.0" encoding="iso-8859-1"?>
<!-- Generator: Adobe Illustrator 24.3.0, SVG Export Plug-In . SVG Version: 6.00 Build 0)  -->
<svg version="1.1" id="Layer_1" xmlns="http://www.w3.org/2000/svg" xmlns:xlink="http://www.w3.org/1999/xlink" x="0px" y="0px"
	 viewBox="0 0 512 512" style="enable-background:new 0 0 512 512;" xml:space="preserve">
<path d="M264,480C135.87,480,32,376.13,32,248c0-94,54-178.28,137.61-214.67c8.101-3.53,17.53,0.174,21.06,8.275
	c1.777,4.076,1.777,8.708,0,12.785C181.07,76.43,176,104.66,176,136c0,110.28,89.72,200,200,200c31.34,0,59.57-5.07,81.61-14.67
	c8.101-3.53,17.53,0.174,21.06,8.275c1.777,4.076,1.777,8.708,0,12.785C442.28,426,358,480,264,480z"/>
</svg>
