<?xml version="1.0" encoding="iso-8859-1"?>
<!-- Generator: Adobe Illustrator 24.3.0, SVG Export Plug-In . SVG Version: 6.00 Build 0)  -->
<svg version="1.1" id="Layer_1" xmlns="http://www.w3.org/2000/svg" xmlns:xlink="http://www.w3.org/1999/xlink" x="0px" y="0px"
	 viewBox="0 0 512 512" style="enable-background:new 0 0 512 512;" xml:space="preserve">
<path d="M264,480c-61.968,0-120.228-24.133-164.047-67.952C56.133,368.228,32,309.968,32,248c0-94.018,54.017-178.28,137.614-214.67
	c6.03-2.625,13.052-1.293,17.7,3.357c4.65,4.65,5.981,11.671,3.356,17.701C181.073,76.429,176,104.65,176,136
	C176,246.281,265.72,336,376,336c31.348,0,59.569-5.073,81.613-14.67c6.027-2.626,13.05-1.295,17.7,3.355
	c4.649,4.65,5.981,11.671,3.356,17.7C442.281,425.984,358.018,480,264,480z M149.086,81.315C96.448,118.115,64,180.077,64,248
	C64,358.281,153.72,448,264,448c67.924,0,129.886-32.448,166.685-85.086C413.853,366.296,395.579,368,376,368
	c-61.968,0-120.228-24.133-164.047-67.953C168.133,256.227,144,197.968,144,136C144,116.42,145.704,98.147,149.086,81.315z"/>
</svg>
