<?xml version="1.0" encoding="iso-8859-1"?>
<!-- Generator: Adobe Illustrator 24.3.0, SVG Export Plug-In . SVG Version: 6.00 Build 0)  -->
<svg version="1.1" id="Layer_1" xmlns="http://www.w3.org/2000/svg" xmlns:xlink="http://www.w3.org/1999/xlink" x="0px" y="0px"
	 viewBox="0 0 512 512" style="enable-background:new 0 0 512 512;" xml:space="preserve">
<path d="M336,128c-4.095,0-8.189-1.562-11.313-4.687L256,54.627l-68.687,68.686c-6.248,6.249-16.379,6.249-22.627,0
	c-6.249-6.248-6.249-16.379,0-22.627l80-80c6.248-6.249,16.379-6.249,22.627,0l80,80c6.249,6.248,6.249,16.379,0,22.627
	C344.189,126.438,340.095,128,336,128z"/>
<path d="M256.001,496c-8.837,0-16-7.163-16.001-15.999L239.98,32c0-8.836,7.163-16,15.999-16c8.836,0,16,7.163,16,16l0.021,448
	C272,488.836,264.837,496,256.001,496z"/>
<path d="M256,496c-4.095,0-8.189-1.562-11.313-4.687l-80-80c-6.249-6.248-6.249-16.379,0-22.627c6.248-6.248,16.379-6.248,22.627,0
	L256,457.373l68.687-68.687c6.248-6.248,16.379-6.248,22.627,0c6.249,6.248,6.249,16.379,0,22.627l-80,80
	C264.189,494.438,260.095,496,256,496z"/>
<path d="M400,352c-4.095,0-8.189-1.562-11.313-4.687c-6.249-6.248-6.249-16.379,0-22.627L457.373,256l-68.687-68.687
	c-6.249-6.248-6.249-16.379,0-22.627c6.248-6.248,16.379-6.248,22.627,0l80,80c6.249,6.249,6.249,16.379,0,22.628l-80,80
	C408.189,350.438,404.095,352,400,352z"/>
<path d="M112,352c-4.095,0-8.189-1.562-11.314-4.687l-80-80c-6.248-6.249-6.248-16.379,0-22.628l80-80
	c6.248-6.248,16.379-6.248,22.627,0c6.249,6.249,6.249,16.379,0,22.627L54.627,256l68.687,68.687c6.248,6.248,6.248,16.379,0,22.627
	C120.19,350.438,116.094,352,112,352z"/>
<path d="M480,272H32c-8.836,0-16-7.164-16-16.001c0-8.836,7.164-16,16-16h448c8.837,0,16,7.164,16,16
	C496,264.836,488.837,272,480,272z"/>
</svg>
