<?xml version="1.0" encoding="iso-8859-1"?>
<!-- Generator: Adobe Illustrator 24.3.0, SVG Export Plug-In . SVG Version: 6.00 Build 0)  -->
<svg version="1.1" id="Layer_1" xmlns="http://www.w3.org/2000/svg" xmlns:xlink="http://www.w3.org/1999/xlink" x="0px" y="0px"
	 viewBox="0 0 512 512" style="enable-background:new 0 0 512 512;" xml:space="preserve">
<path d="M183.83,480c-11.629-0.02-22.954-3.713-32.36-10.55c-14.728-10.641-23.457-27.701-23.47-45.87
	c-0.054-21.592,13.689-40.805,34.14-47.73L213,358.73c6.617-2.259,11.048-8.498,11-15.49V92c-0.03-14.668,9.886-27.49,24.09-31.15
	l108.39-28.14c11.762-3.049,23.768,4.015,26.816,15.776c0.467,1.801,0.703,3.653,0.704,5.514v57.75
	c0.039,14.716-9.936,27.572-24.2,31.19l-91.65,23.13c-7.2,1.874-12.206,8.4-12.15,15.84V424c0.055,20.728-13.143,39.173-32.78,45.81
	l-21.47,7.23C195.978,478.995,189.925,479.995,183.83,480z"/>
</svg>
