<?xml version="1.0" encoding="iso-8859-1"?>
<!-- Generator: Adobe Illustrator 24.3.0, SVG Export Plug-In . SVG Version: 6.00 Build 0)  -->
<svg version="1.1" id="Layer_1" xmlns="http://www.w3.org/2000/svg" xmlns:xlink="http://www.w3.org/1999/xlink" x="0px" y="0px"
	 viewBox="0 0 512 512" style="enable-background:new 0 0 512 512;" xml:space="preserve">
<path d="M381.55,32.05c-18.13,4.28-126.57,31.07-156,38.19c-0.904,0.209-1.546,1.012-1.55,1.94V353.3c0,0.842-0.528,1.594-1.32,1.88
	L182,369.88c-29.82,10.66-54,18.94-54,59.06c0,32.47,23.53,47.18,37.95,50c4.956,0.82,9.977,1.182,15,1.08
	c8.89,0,31-3.59,47.52-14.24C256,448,256,448,256,415.93V169.16c-0.003-0.91,0.61-1.708,1.49-1.94l125-33
	c0.88-0.232,1.493-1.03,1.49-1.94V34c-0.002-1.105-0.899-1.999-2.003-1.997C381.833,32.004,381.69,32.019,381.55,32.05z"/>
</svg>
