<?xml version="1.0" encoding="iso-8859-1"?>
<!-- Generator: Adobe Illustrator 24.3.0, SVG Export Plug-In . SVG Version: 6.00 Build 0)  -->
<svg version="1.1" id="Layer_1" xmlns="http://www.w3.org/2000/svg" xmlns:xlink="http://www.w3.org/1999/xlink" x="0px" y="0px"
	 viewBox="0 0 512 512" style="enable-background:new 0 0 512 512;" xml:space="preserve">
<path d="M192,234c-8.836,0-16-7.164-16-16v-6c0-22.057,14.544-40.557,36.206-46.073l174.492-46.654
	c19.172-5.131,38.947,6.296,44.079,25.471c0.805,3.004,1.217,6.107,1.224,9.22V176c0,8.836-7.163,16-16,16s-16-7.164-16-16v-22
	c-0.001-0.307-0.046-0.648-0.135-0.98c-0.571-2.135-2.775-3.404-4.899-2.834l-174.593,46.681c-0.074,0.02-0.147,0.039-0.222,0.058
	C212.77,198.786,208,204.703,208,212v6C208,226.836,200.836,234,192,234z"/>
<path d="M135.337,480.099c-11.354,0.001-22.494-3.554-32.101-10.464C88.469,459.014,80,442.38,80,424
	c0-21.888,12.88-40.383,32.819-47.138l51.947-17.982c0.043-0.015,0.085-0.029,0.128-0.044C171.641,356.566,176,350.742,176,344
	V118.054c-0.087-14.565,9.628-27.491,23.651-31.452c0.064-0.019,0.129-0.036,0.194-0.054l199.4-53.61
	c2.162-0.582,4.396-0.882,6.636-0.893c0.04,0,0.081,0,0.121,0c14.28,0,25.932,11.584,25.997,25.88V375.94
	c0,20.308-13.128,38.403-32.689,45.094l-21.843,7.943c-0.12,0.043-0.241,0.086-0.362,0.127c-17.153,5.773-35.334,3.092-49.88-7.358
	c-14.744-10.594-23.207-27.263-23.226-45.743c-0.15-21.497,13.42-40.431,33.812-47.199l50.824-18.087
	c0.086-0.03,0.173-0.061,0.259-0.09c6.851-2.306,11.105-7.934,11.105-14.687V65.872l-191.679,51.534
	c-0.192,0.067-0.323,0.251-0.321,0.457c0,0.045,0,0.091,0,0.137v306c0,20.321-13.129,38.417-32.696,45.096l-21.836,7.941
	c-0.125,0.045-0.251,0.089-0.378,0.132C147.241,479.132,141.259,480.099,135.337,480.099z M175.175,389.14l-51.941,17.98
	c-0.041,0.014-0.082,0.027-0.122,0.041C116.05,409.542,112,415.68,112,424c0,7.957,3.616,15.121,9.921,19.656
	c6.108,4.394,13.688,5.567,20.823,3.229l21.788-7.923c0.12-0.043,0.241-0.086,0.362-0.127C171.745,436.531,176,430.845,176,424
	v-35.147C175.726,388.952,175.453,389.046,175.175,389.14z M399.248,340.906l-50.884,18.108c-0.13,0.046-0.261,0.091-0.393,0.134
	c-7.226,2.362-12.036,9.056-11.973,16.656C336,375.85,336,375.895,336,375.94c0,8.075,3.607,15.298,9.897,19.817
	c6.032,4.334,13.615,5.45,20.837,3.072l21.798-7.927c0.117-0.042,0.234-0.083,0.353-0.123c6.856-2.313,11.115-8,11.115-14.84
	v-35.296C399.75,340.733,399.5,340.82,399.248,340.906z"/>
</svg>
