<?xml version="1.0" encoding="iso-8859-1"?>
<!-- Generator: Adobe Illustrator 24.3.0, SVG Export Plug-In . SVG Version: 6.00 Build 0)  -->
<svg version="1.1" id="Layer_1" xmlns="http://www.w3.org/2000/svg" xmlns:xlink="http://www.w3.org/1999/xlink" x="0px" y="0px"
	 viewBox="0 0 512 512" style="enable-background:new 0 0 512 512;" xml:space="preserve">
<path d="M183.836,480.007c-11.444,0-22.675-3.583-32.368-10.55C136.773,458.896,128,441.738,128,423.56
	c-0.06-21.562,13.643-40.752,34.099-47.708l50.917-17.136c6.533-2.226,10.958-8.391,10.983-15.343v-0.063c0-0.015,0-0.03,0-0.045
	V221.332c0-0.011,0-0.021,0-0.032v-39.39c0-0.114,0-0.227,0-0.341V92c-0.047-14.615,9.832-27.442,24.023-31.142l108.447-28.145
	c11.733-3.051,23.768,4.017,26.821,15.757c0.465,1.786,0.704,3.639,0.708,5.499v57.791c0.043,14.672-9.885,27.508-24.143,31.167
	l-91.701,23.146c-7.121,1.826-12.129,8.262-12.156,15.662V221.3c0,0.01,0,0.021,0,0.031V343.24c0,0.074,0,0.147,0,0.223V424
	c0.059,20.693-13.093,39.115-32.725,45.796l-21.519,7.247C195.853,479.029,189.814,480.007,183.836,480.007z M224,388.774
	c-0.24,0.086-0.479,0.17-0.721,0.252l-50.925,17.139c-7.392,2.514-12.375,9.493-12.354,17.351c0,8.066,3.697,15.324,10.144,19.958
	c6.29,4.52,14.091,5.702,21.406,3.242l21.464-7.229c6.572-2.236,11.006-8.448,10.986-15.441V388.774z M352,66.934l-95.921,24.894
	c-0.039,0.01-0.08,0.062-0.079,0.122v44.416c1.391-0.496,2.813-0.932,4.266-1.304l91.698-23.145l0,0
	c-0.003,0,0.036-0.051,0.036-0.11V66.934z"/>
</svg>
