<?xml version="1.0" encoding="iso-8859-1"?>
<!-- Generator: Adobe Illustrator 24.3.0, SVG Export Plug-In . SVG Version: 6.00 Build 0)  -->
<svg version="1.1" id="Layer_1" xmlns="http://www.w3.org/2000/svg" xmlns:xlink="http://www.w3.org/1999/xlink" x="0px" y="0px"
	 viewBox="0 0 512 512" style="enable-background:new 0 0 512 512;" xml:space="preserve">
<path d="M421.84,37.37c-6.419-4.945-14.784-6.596-22.6-4.46L199.92,86.49C185.695,90.311,175.856,103.271,176,118v226
	c0,6.74-4.36,12.56-11.11,14.83l-0.12,0.05l-52,18C92.88,383.53,80,402,80,423.91c-0.148,18.085,8.519,35.109,23.23,45.63
	c9.335,6.781,20.572,10.442,32.11,10.46c6.036-0.011,12.031-1,17.75-2.93l0.38-0.13l21.84-7.94
	c19.424-6.485,32.567-24.613,32.69-45.09v-212c0-7.29,4.77-13.21,12.16-15.07l0.21-0.06L395,150.14
	c2.139-0.552,4.321,0.734,4.873,2.873c0.083,0.322,0.126,0.654,0.127,0.987v141.93c0,6.75-4.25,12.38-11.11,14.68l-0.25,0.09
	l-50.89,18.11c-20.308,6.679-33.958,25.733-33.75,47.11c-0.181,18.14,8.487,35.23,23.23,45.8
	c14.434,10.435,33.049,13.178,49.88,7.35l0.36-0.12l21.84-7.95c19.422-6.481,32.565-24.605,32.69-45.08V58
	C432.044,49.909,428.281,42.268,421.84,37.37z"/>
</svg>
