<?xml version="1.0" encoding="iso-8859-1"?>
<!-- Generator: Adobe Illustrator 24.3.0, SVG Export Plug-In . SVG Version: 6.00 Build 0)  -->
<svg version="1.1" id="Layer_1" xmlns="http://www.w3.org/2000/svg" xmlns:xlink="http://www.w3.org/1999/xlink" x="0px" y="0px"
	 viewBox="0 0 512 512" style="enable-background:new 0 0 512 512;" xml:space="preserve">
<path d="M272.006,464.002c-1.132,0-2.275-0.121-3.418-0.37C261.239,462.029,256,455.522,256,448V256.14H64
	c-7.521,0-14.027-5.238-15.631-12.586c-1.605-7.348,2.125-14.821,8.96-17.957l384-176.14c6.078-2.789,13.253-1.501,17.982,3.228
	c4.73,4.729,6.021,11.901,3.233,17.982l-176,384C283.898,460.442,278.154,464.002,272.006,464.002z M137.257,224.14H264
	c13.233,0,24,10.766,24,24v126.55L415.498,96.511L137.257,224.14z"/>
</svg>
