<?xml version="1.0" encoding="iso-8859-1"?>
<!-- Generator: Adobe Illustrator 24.3.0, SVG Export Plug-In . SVG Version: 6.00 Build 0)  -->
<svg version="1.1" id="Layer_1" xmlns="http://www.w3.org/2000/svg" xmlns:xlink="http://www.w3.org/1999/xlink" x="0px" y="0px"
	 viewBox="0 0 512 512" style="enable-background:new 0 0 512 512;" xml:space="preserve">
<path d="M336.76,161l-186.53,82.35c-10.47,4.8-6.95,20.67,4.57,20.67H244c2.209,0,4,1.791,4,4v89.18c0,11.52,16,15,20.78,4.56
	L351,175.24c2.484-5.38,0.137-11.756-5.243-14.24C342.903,159.682,339.614,159.682,336.76,161z"/>
<path d="M256,464C141.309,464,48,370.692,48,256c0-114.691,93.309-208,208-208s208,93.309,208,208C464,370.692,370.691,464,256,464z
	 M256,80c-97.047,0-176,78.953-176,176C80,353.047,158.953,432,256,432S432,353.047,432,256C432,158.953,353.047,80,256,80z"/>
</svg>
