<?xml version="1.0" encoding="iso-8859-1"?>
<!-- Generator: Adobe Illustrator 24.3.0, SVG Export Plug-In . SVG Version: 6.00 Build 0)  -->
<svg version="1.1" id="Layer_1" xmlns="http://www.w3.org/2000/svg" xmlns:xlink="http://www.w3.org/1999/xlink" x="0px" y="0px"
	 viewBox="0 0 512 512" style="enable-background:new 0 0 512 512;" xml:space="preserve">
<path d="M258.9,48C141.92,46.42,46.42,141.92,48,258.9c1.56,112.19,92.91,203.54,205.1,205.1c117,1.6,212.48-93.9,210.88-210.88
	C462.44,140.91,371.09,49.56,258.9,48z M351,175.24l-82.24,186.52c-4.79,10.47-20.78,7-20.78-4.56V268c0-2.209-1.791-4-4-4H154.8
	c-11.52,0-15-15.87-4.57-20.67L336.76,161c5.38-2.484,11.756-0.137,14.24,5.243C352.318,169.097,352.318,172.386,351,175.24z"/>
</svg>
