<?xml version="1.0" encoding="iso-8859-1"?>
<!-- Generator: Adobe Illustrator 24.3.0, SVG Export Plug-In . SVG Version: 6.00 Build 0)  -->
<svg version="1.1" id="Layer_1" xmlns="http://www.w3.org/2000/svg" xmlns:xlink="http://www.w3.org/1999/xlink" x="0px" y="0px"
	 viewBox="0 0 512 512" style="enable-background:new 0 0 512 512;" xml:space="preserve">
<path style="fill:none;" d="M112,112h64c8.837,0,16,7.163,16,16v64c0,8.837-7.163,16-16,16h-64c-8.837,0-16-7.163-16-16v-64
	C96,119.163,103.163,112,112,112z"/>
<path d="M468,112h-52v304c0,17.673,14.327,32,32,32l0,0c17.673,0,32-14.327,32-32V124C480,117.373,474.627,112,468,112z"/>
<path d="M431.15,477.75c-27.819-7.631-47.116-32.903-47.15-61.75V44c0-6.627-5.373-12-12-12H44c-6.627,0-12,5.373-12,12v380
	c0,30.928,25.072,56,56,56h342.85c0.629,0.024,1.159-0.466,1.183-1.095C432.054,478.358,431.683,477.873,431.15,477.75z M96,208v-96
	h96v96H96z M320,400H96v-32h224V400z M320,336H96v-32h224V336z M320,272H96v-32h224V272z M320,208h-96v-32h96V208z M320,144h-96v-32
	h96V144z"/>
</svg>
