<?xml version="1.0" encoding="iso-8859-1"?>
<!-- Generator: Adobe Illustrator 24.3.0, SVG Export Plug-In . SVG Version: 6.00 Build 0)  -->
<svg version="1.1" id="Layer_1" xmlns="http://www.w3.org/2000/svg" xmlns:xlink="http://www.w3.org/1999/xlink" x="0px" y="0px"
	 viewBox="0 0 512 512" style="enable-background:new 0 0 512 512;" xml:space="preserve">
<path d="M439.91,112h-23.82c-0.05,0-0.09,0.04-0.09,0.09V416c0,17.673,14.327,32,32,32l0,0c17.673,0,32-14.327,32-32V152.09
	C480,129.949,462.051,112,439.91,112z"/>
<path d="M384,416V72c0-22.091-17.909-40-40-40H72c-22.091,0-40,17.909-40,40v352c0,30.928,25.072,56,56,56h342.85
	c0.63,0.006,1.144-0.5,1.15-1.13c0-0.007,0-0.013,0-0.02l0,0c-0.001-0.517-0.35-0.969-0.85-1.1
	C403.331,470.119,384.034,444.847,384,416z M96,128c0-8.837,7.163-16,16-16h64c8.837,0,16,7.163,16,16v64c0,8.837-7.163,16-16,16
	h-64c-8.837,0-16-7.163-16-16V128z M304,400H112.45c-8.61,0-16-6.62-16.43-15.23c-0.425-8.826,6.385-16.326,15.211-16.751
	c0.256-0.012,0.512-0.018,0.769-0.019h191.55c8.61,0,16,6.62,16.43,15.23c0.425,8.826-6.385,16.326-15.211,16.751
	C304.513,399.994,304.256,400,304,400z M304,336H112.45c-8.61,0-16-6.62-16.43-15.23c-0.425-8.826,6.385-16.326,15.211-16.751
	c0.256-0.012,0.512-0.018,0.769-0.019h191.55c8.61,0,16,6.62,16.43,15.23c0.425,8.826-6.385,16.326-15.211,16.751
	C304.513,335.994,304.256,336,304,336z M304,272H112.45c-8.61,0-16-6.62-16.43-15.23c-0.425-8.826,6.385-16.326,15.211-16.751
	c0.256-0.012,0.512-0.019,0.769-0.019h191.55c8.61,0,16,6.62,16.43,15.23c0.425,8.826-6.385,16.326-15.211,16.751
	C304.513,271.994,304.256,272,304,272z M304,208h-63.55c-8.61,0-16-6.62-16.43-15.23c-0.425-8.826,6.385-16.326,15.211-16.751
	c0.256-0.012,0.512-0.019,0.769-0.019h63.55c8.61,0,16,6.62,16.43,15.23c0.425,8.826-6.385,16.326-15.211,16.751
	C304.513,207.994,304.256,208,304,208z M304,144h-63.55c-8.61,0-16-6.62-16.43-15.23c-0.425-8.826,6.385-16.326,15.211-16.751
	c0.256-0.012,0.512-0.019,0.769-0.019h63.55c8.61,0,16,6.62,16.43,15.23c0.425,8.826-6.385,16.326-15.211,16.751
	C304.513,143.994,304.256,144,304,144z"/>
</svg>
