<?xml version="1.0" encoding="iso-8859-1"?>
<!-- Generator: Adobe Illustrator 24.3.0, SVG Export Plug-In . SVG Version: 6.00 Build 0)  -->
<svg version="1.1" id="Layer_1" xmlns="http://www.w3.org/2000/svg" xmlns:xlink="http://www.w3.org/1999/xlink" x="0px" y="0px"
	 viewBox="0 0 512 512" style="enable-background:new 0 0 512 512;" xml:space="preserve">
<path d="M416,480H88c-30.808-0.093-55.908-25.192-56-55.952V72c0.064-22.013,17.987-39.936,39.954-40H344
	c22.014,0.064,39.937,17.987,40,39.954V415.86h-32V72c-0.013-4.378-3.622-7.987-8.047-8H72c-4.377,0.013-7.987,3.623-8,8.046V424
	c0.04,13.173,10.828,23.96,24.048,24H416V480z"/>
<path d="M416,480c-35.29,0-64-28.71-64-64V128c0-8.836,7.163-16,16-16h72c22.056,0,40,17.944,40,40v264
	C480,451.29,451.29,480,416,480z M384,144v272c0,17.645,14.355,32,32,32s32-14.355,32-32V152c0-4.411-3.589-8-8-8H384z"/>
<path d="M304,144h-64c-8.836,0-16-7.164-16-16s7.164-16,16-16h64c8.837,0,16,7.164,16,16S312.837,144,304,144z"/>
<path d="M304,208h-64c-8.836,0-16-7.164-16-16s7.164-16,16-16h64c8.837,0,16,7.164,16,16S312.837,208,304,208z"/>
<path d="M304,272H112c-8.836,0-16-7.164-16-16.001c0-8.836,7.164-16,16-16h192c8.837,0,16,7.164,16,16
	C320,264.836,312.837,272,304,272z"/>
<path d="M304,336H112c-8.836,0-16-7.163-16-16s7.164-16,16-16h192c8.837,0,16,7.163,16,16S312.837,336,304,336z"/>
<path d="M304,400H112c-8.836,0-16-7.163-16-16s7.164-16,16-16h192c8.837,0,16,7.163,16,16S312.837,400,304,400z"/>
<path d="M176,208h-64c-8.837,0-16-7.163-16-16v-64c0-8.837,7.163-16,16-16h64c8.837,0,16,7.163,16,16v64
	C192,200.837,184.837,208,176,208z"/>
</svg>
