<?xml version="1.0" encoding="iso-8859-1"?>
<!-- Generator: Adobe Illustrator 24.3.0, SVG Export Plug-In . SVG Version: 6.00 Build 0)  -->
<svg version="1.1" id="Layer_1" xmlns="http://www.w3.org/2000/svg" xmlns:xlink="http://www.w3.org/1999/xlink" x="0px" y="0px"
	 viewBox="0 0 512 512" style="enable-background:new 0 0 512 512;" xml:space="preserve">
<path d="M448,464c-4.244,0.007-8.316-1.681-11.31-4.69l-384-384c-6.086-6.406-5.827-16.534,0.579-22.62
	c6.176-5.867,15.865-5.867,22.041,0l384,384c6.246,6.25,6.243,16.381-0.007,22.627C456.304,462.314,452.239,463.998,448,464z"/>
<path d="M440.08,341.31c-1.66-2-3.29-4-4.89-5.93c-22-26.61-35.31-42.67-35.31-118c0-39-9.33-71-27.72-95
	c-13.56-17.73-31.89-31.18-56.05-41.12c-0.311-0.173-0.589-0.4-0.82-0.67C306.6,51.49,282.82,32,256,32s-50.59,19.49-59.28,48.56
	c-0.232,0.26-0.506,0.48-0.81,0.65c-7.567,3.095-14.882,6.772-21.88,11c-3.772,2.3-4.966,7.223-2.666,10.995
	c0.331,0.543,0.726,1.045,1.176,1.495l261.78,261.74c3.123,3.126,8.188,3.128,11.314,0.006c1.743-1.742,2.587-4.19,2.286-6.636
	C447.149,353.015,444.426,346.59,440.08,341.31z"/>
<path d="M112.14,217.35c0,75.36-13.29,91.42-35.31,118c-1.6,1.93-3.23,3.89-4.89,5.93c-8.756,10.559-10.571,25.247-4.65,37.62
	c6.17,13,19.32,21.07,34.33,21.07H312.8c4.418,0.003,8.003-3.575,8.006-7.994c0.002-2.125-0.843-4.164-2.346-5.666l-192-192
	c-3.129-3.119-8.195-3.111-11.314,0.018c-1.332,1.337-2.149,3.101-2.306,4.982C112.373,205.103,112.14,211.117,112.14,217.35z"/>
<path d="M256,480c29.44-0.024,56.492-16.203,70.44-42.13c1.033-1.953,0.287-4.373-1.666-5.406c-0.577-0.305-1.221-0.465-1.874-0.464
	H189.12c-2.209-0.008-4.006,1.777-4.014,3.986c-0.002,0.657,0.157,1.304,0.464,1.884C199.516,463.793,226.563,479.973,256,480z"/>
</svg>
