<?xml version="1.0" encoding="iso-8859-1"?>
<!-- Generator: Adobe Illustrator 24.3.0, SVG Export Plug-In . SVG Version: 6.00 Build 0)  -->
<svg version="1.1" id="Layer_1" xmlns="http://www.w3.org/2000/svg" xmlns:xlink="http://www.w3.org/1999/xlink" x="0px" y="0px"
	 viewBox="0 0 512 512" style="enable-background:new 0 0 512 512;" xml:space="preserve">
<path d="M256,48C141.31,48,48,141.31,48,256s93.31,208,208,208s208-93.31,208-208S370.69,48,256,48z M146.83,313
	c16.33-19.34,27.86-27.47,27.86-80.8c0-2.5,0.067-4.92,0.2-7.26c0.068-2.208,1.914-3.943,4.122-3.875
	c1.105,0.034,2.147,0.525,2.878,1.355l98,106.87c1.491,1.63,1.379,4.16-0.251,5.651c-0.735,0.672-1.693,1.046-2.689,1.049H158
	C146.18,336,140.06,321,146.83,313z M295.76,356.41C293.53,375.14,276.92,384,256,384s-37.51-8.86-39.75-27.58
	c-0.232-2.197,1.361-4.166,3.558-4.398c0.147-0.016,0.295-0.023,0.442-0.022h71.53c2.209-0.001,4.001,1.789,4.002,3.998
	c0,0.141-0.007,0.282-0.022,0.422V356.41z M362.76,373.83c-6.539,5.942-16.657,5.458-22.6-1.08l-192-212
	c-5.864-6.61-5.259-16.723,1.351-22.587c6.498-5.765,16.41-5.291,22.329,1.067l192,212c5.946,6.537,5.466,16.656-1.071,22.602
	c-0.003,0.003-0.006,0.005-0.009,0.008V373.83z M361,323.21L216.49,165.53c-1.498-1.624-1.395-4.155,0.229-5.652
	c0.317-0.292,0.679-0.531,1.071-0.708c1.31-0.58,2.61-1.12,3.89-1.63c2.956-1.233,5.252-3.66,6.32-6.68
	c3.72-12.26,14.15-22.86,28-22.86s24.29,10.6,28,22.86c1.073,3.023,3.377,5.45,6.34,6.68c21.21,8.44,47,25.81,47,74.67
	c0,53.33,11.54,61.46,27.87,80.8c1.691,2.048,2.661,4.596,2.76,7.25c0.156,2.204-1.505,4.116-3.708,4.272
	C363.029,324.619,361.825,324.131,361,323.21z"/>
</svg>
