<?xml version="1.0" encoding="iso-8859-1"?>
<!-- Generator: Adobe Illustrator 24.3.0, SVG Export Plug-In . SVG Version: 6.00 Build 0)  -->
<svg version="1.1" id="Layer_1" xmlns="http://www.w3.org/2000/svg" xmlns:xlink="http://www.w3.org/1999/xlink" x="0px" y="0px"
	 viewBox="0 0 512 512" style="enable-background:new 0 0 512 512;" xml:space="preserve">
<path d="M295.68,351.43c0,0.19,0,0.38,0,0.57H296L295.68,351.43z"/>
<path style="fill:none;" d="M256,384c22.28,0,39.36-10.63,39.66-32H216C216,373.75,233.53,384,256,384z"/>
<path style="fill:none;" d="M295.67,352H296l-0.32-0.57C295.68,351.62,295.67,351.81,295.67,352z"/>
<path d="M256,48C141.31,48,48,141.31,48,256s93.31,208,208,208s208-93.31,208-208S370.69,48,256,48z M256,384
	c-22.48,0-40-10.25-40-32h80C295.7,373.37,278.29,384,256,384z M368,336H144v-28l28-36v-32.3c0-40.41,15.82-75.35,56-84.27l4-27.43
	h48l4,27.43c40,8.92,56,44,56,84.27V272l28,36V336z"/>
</svg>
