<?xml version="1.0" encoding="iso-8859-1"?>
<!-- Generator: Adobe Illustrator 24.3.0, SVG Export Plug-In . SVG Version: 6.00 Build 0)  -->
<svg version="1.1" id="Layer_1" xmlns="http://www.w3.org/2000/svg" xmlns:xlink="http://www.w3.org/1999/xlink" x="0px" y="0px"
	 viewBox="0 0 512 512" style="enable-background:new 0 0 512 512;" xml:space="preserve">
<path d="M440.08,341.31c-1.66-2-3.29-4-4.89-5.93c-22-26.61-35.31-42.67-35.31-118c0-39-9.33-71-27.72-95
	c-13.56-17.73-31.89-31.18-56.05-41.12c-0.311-0.173-0.589-0.4-0.82-0.67C306.6,51.49,282.82,32,256,32s-50.59,19.49-59.28,48.56
	c-0.232,0.26-0.506,0.48-0.81,0.65c-56.38,23.21-83.78,67.74-83.78,136.14c0,75.36-13.29,91.42-35.31,118
	c-1.6,1.93-3.23,3.89-4.89,5.93c-8.756,10.559-10.571,25.247-4.65,37.62c6.17,13,19.32,21.07,34.33,21.07H410.5
	c14.94,0,28-8.06,34.19-21C450.637,366.593,448.837,351.887,440.08,341.31z"/>
<path d="M256,480c29.44-0.024,56.492-16.203,70.44-42.13c1.033-1.953,0.287-4.373-1.666-5.406c-0.577-0.305-1.221-0.465-1.874-0.464
	H189.12c-2.209-0.008-4.006,1.777-4.014,3.986c-0.002,0.657,0.157,1.304,0.464,1.884C199.516,463.793,226.563,479.973,256,480z"/>
</svg>
