<?xml version="1.0" encoding="iso-8859-1"?>
<!-- Generator: Adobe Illustrator 24.3.0, SVG Export Plug-In . SVG Version: 6.00 Build 0)  -->
<svg version="1.1" id="Layer_1" xmlns="http://www.w3.org/2000/svg" xmlns:xlink="http://www.w3.org/1999/xlink" x="0px" y="0px"
	 viewBox="0 0 512 512" style="enable-background:new 0 0 512 512;" xml:space="preserve">
<path d="M256,464C141.309,464,48,370.692,48,256c0-114.691,93.309-208,208-208s208,93.309,208,208C464,370.692,370.691,464,256,464z
	 M256,80c-97.047,0-176,78.953-176,176C80,353.047,158.953,432,256,432S432,353.047,432,256C432,158.953,353.047,80,256,80z"/>
<path d="M365.2,313c-16.33-19.34-27.86-27.47-27.86-80.8c0-48.86-25.78-66.23-47-74.67c-2.959-1.235-5.261-3.66-6.34-6.68
	C280.29,138.6,269.88,128,256,128s-24.31,10.6-28,22.86c-1.072,3.021-3.371,5.447-6.33,6.68c-21.24,8.46-47,25.8-47,74.67
	c0,53.33-11.54,61.46-27.87,80.8c-6.77,8-0.65,23,11.19,23H354C365.77,336,371.94,321,365.2,313z"/>
<path d="M220.24,352c-2.209-0.012-4.01,1.769-4.022,3.978c-0.001,0.148,0.007,0.295,0.022,0.442C218.49,375.14,235.11,384,256,384
	c20.67,0,37.14-9.15,39.66-27.52c0.265-2.193-1.298-4.186-3.491-4.451c-0.169-0.02-0.339-0.03-0.509-0.029H220.24z"/>
</svg>
