<?xml version="1.0" encoding="iso-8859-1"?>
<!-- Generator: Adobe Illustrator 24.3.0, SVG Export Plug-In . SVG Version: 6.00 Build 0)  -->
<svg version="1.1" id="Layer_1" xmlns="http://www.w3.org/2000/svg" xmlns:xlink="http://www.w3.org/1999/xlink" x="0px" y="0px"
	 viewBox="0 0 512 512" style="enable-background:new 0 0 512 512;" xml:space="preserve">
<path d="M256,48C141.31,48,48,141.31,48,256s93.31,208,208,208s208-93.31,208-208S370.69,48,256,48z M144,308l28-36v-32.3
	c-0.044-8.529,0.74-17.042,2.34-25.42L285.92,336H144V308z M256.18,384C233.6,384,216,373.75,216,352h80
	C295.7,373.37,278.55,384,256.18,384z M349.66,380.26l-211-227l23.68-21.52l211,227L349.66,380.26z M368,330.85l-0.32-0.38l0,0l0,0
	l-155.5-169.63c5.05-2.4,10.358-4.215,15.82-5.41l4-27.43h48l4,27.43c40,8.92,56,44,56,84.27V272l28,36V330.85z"/>
</svg>
