<?xml version="1.0" encoding="iso-8859-1"?>
<!-- Generator: Adobe Illustrator 24.3.0, SVG Export Plug-In . SVG Version: 6.00 Build 0)  -->
<svg version="1.1" id="Layer_1" xmlns="http://www.w3.org/2000/svg" xmlns:xlink="http://www.w3.org/1999/xlink" x="0px" y="0px"
	 viewBox="0 0 512 512" style="enable-background:new 0 0 512 512;" xml:space="preserve">
<path d="M410.49,400H101.61c-15.011,0-28.165-8.074-34.329-21.072c-5.911-12.464-4.129-26.88,4.65-37.623
	c1.66-2.032,3.291-4.001,4.886-5.93c22.025-26.611,35.319-42.673,35.363-118.035c0-68.387,27.404-112.92,83.777-136.135
	c0.231-0.102,0.607-0.409,0.809-0.646C205.376,51.513,229.137,32,256,32c26.8,0,50.569,19.476,59.274,48.515
	c0.203,0.251,0.593,0.585,0.826,0.694c24.151,9.943,42.489,23.401,56.052,41.141c18.392,24.057,27.718,56.02,27.718,95
	c0,75.359,13.293,91.42,35.315,118.028c1.595,1.928,3.224,3.896,4.885,5.929c0.001,0.001,0.002,0.003,0.004,0.005
	c8.766,10.738,10.531,25.165,4.605,37.651C438.522,391.94,425.422,400,410.49,400z M256,64c-14.574,0-24.883,13.026-28.636,25.936
	c-2.673,9.107-10.039,17.086-19.235,20.864c-19.062,7.85-32.675,17.691-42.826,30.965c-14.016,18.327-21.123,43.758-21.123,75.585
	c-0.05,86.886-18.876,109.631-42.711,138.429c-1.554,1.878-3.141,3.795-4.759,5.775c-0.353,0.432-1.425,1.744-0.516,3.662
	c0.493,1.04,1.853,2.784,5.416,2.784h308.88c3.456,0,4.791-1.727,5.279-2.756c0.932-1.962-0.134-3.267-0.484-3.695
	c-1.615-1.978-3.2-3.893-4.752-5.768c-23.836-28.8-42.663-51.548-42.663-138.432c0-31.794-7.112-57.217-21.14-75.565
	c-10.17-13.302-23.777-23.149-42.821-30.99c-9.146-3.758-16.507-11.727-19.198-20.792C280.902,77.039,270.556,64,256,64z"/>
<path d="M256,480c-44.112,0-80-35.888-80-80v-16c0-8.837,7.164-16,16-16s16,7.163,16,16v16c0,26.467,21.533,48,48,48
	c26.467,0,48-21.533,48-48v-16c0-8.837,7.163-16,16-16s16,7.163,16,16v16C336,444.113,300.112,480,256,480z"/>
</svg>
