<?xml version="1.0" encoding="iso-8859-1"?>
<!-- Generator: Adobe Illustrator 24.3.0, SVG Export Plug-In . SVG Version: 6.00 Build 0)  -->
<svg version="1.1" id="Layer_1" xmlns="http://www.w3.org/2000/svg" xmlns:xlink="http://www.w3.org/1999/xlink" x="0px" y="0px"
	 viewBox="0 0 512 512" style="enable-background:new 0 0 512 512;" xml:space="preserve">
<path d="M320,400H101.62c-15.013,0-28.168-8.073-34.332-21.07c-5.911-12.464-4.127-26.881,4.653-37.625
	c1.662-2.034,3.295-4.009,4.895-5.941c22.016-26.608,35.305-42.669,35.305-118.014c0-4.708,0.134-9.324,0.398-13.72
	c0.531-8.821,8.115-15.541,16.932-15.011c8.821,0.531,15.541,8.111,15.011,16.932c-0.226,3.759-0.341,7.729-0.341,11.799
	c0,86.866-18.821,109.613-42.65,138.413c-1.557,1.882-3.147,3.804-4.768,5.788c-0.356,0.436-1.43,1.75-0.521,3.668
	c0.493,1.038,1.852,2.781,5.418,2.781H320c8.837,0,16,7.163,16,16S328.837,400,320,400z"/>
<path d="M414.511,351.301c-4.733,0-9.42-2.091-12.577-6.098c-22.086-28.024-34.054-56.708-34.054-127.903
	c0-31.771-7.112-57.18-21.139-75.519c-10.173-13.3-23.782-23.146-42.831-30.986c-9.147-3.758-16.508-11.727-19.199-20.792
	C280.907,77.035,270.564,64,256,64c-14.565,0-24.878,13.03-28.638,25.943c-2.681,9.134-10.088,17.122-19.341,20.881
	c-5.485,2.237-10.894,4.878-16.054,7.841c-7.662,4.402-17.441,1.756-21.843-5.908c-4.4-7.663-1.755-17.442,5.908-21.842
	c6.396-3.673,13.1-6.946,19.925-9.73c0.237-0.102,0.61-0.4,0.811-0.633C205.395,51.506,229.153,32,256,32
	c26.811,0,50.58,19.478,59.275,48.515c0.202,0.251,0.592,0.584,0.825,0.694c24.152,9.94,42.493,23.396,56.059,41.132
	c18.394,24.049,27.721,55.999,27.721,94.959c0,68.319,11.269,87.897,27.187,108.097c5.47,6.94,4.277,17-2.663,22.47
	C421.47,350.179,417.978,351.301,414.511,351.301z"/>
<path d="M256,480c-44.112,0-80-35.888-80-80v-16c0-8.837,7.164-16,16-16s16,7.163,16,16v16c0,26.467,21.533,48,48,48
	c26.467,0,48-21.533,48-48v-16c0-8.837,7.163-16,16-16s16,7.163,16,16v16C336,444.113,300.112,480,256,480z"/>
<path d="M448,464c-4.095,0-8.189-1.562-11.313-4.687l-384-384c-6.248-6.248-6.248-16.379,0-22.627
	c6.249-6.249,16.379-6.249,22.628,0l384,384c6.249,6.248,6.249,16.379,0,22.627C456.189,462.438,452.095,464,448,464z"/>
</svg>
