<?xml version="1.0" encoding="iso-8859-1"?>
<!-- Generator: Adobe Illustrator 24.3.0, SVG Export Plug-In . SVG Version: 6.00 Build 0)  -->
<svg version="1.1" id="Layer_1" xmlns="http://www.w3.org/2000/svg" xmlns:xlink="http://www.w3.org/1999/xlink" x="0px" y="0px"
	 viewBox="0 0 512 512" style="enable-background:new 0 0 512 512;" xml:space="preserve">
<path d="M256,48C141.31,48,48,141.31,48,256s93.31,208,208,208s208-93.31,208-208S370.69,48,256,48z M256,384
	c-20.9,0-37.52-8.86-39.75-27.58c-0.232-2.197,1.361-4.166,3.558-4.398c0.147-0.016,0.295-0.023,0.442-0.022h71.45
	c2.209-0.016,4.013,1.762,4.029,3.971c0.001,0.17-0.008,0.34-0.029,0.509C293.15,374.85,276.68,384,256,384z M354,336H158
	c-11.84,0-18-15-11.19-23c16.33-19.34,27.87-27.47,27.87-80.8c0-48.87,25.74-66.21,47-74.67c2.959-1.233,5.258-3.659,6.33-6.68
	C231.7,138.6,242.14,128,256,128c13.86,0,24.28,10.6,28,22.86c1.079,3.02,3.381,5.445,6.34,6.68c21.21,8.44,47,25.81,47,74.67
	c0,53.33,11.53,61.46,27.86,80.8C371.94,321,365.77,336,354,336z"/>
</svg>
