<?xml version="1.0" encoding="iso-8859-1"?>
<!-- Generator: Adobe Illustrator 24.3.0, SVG Export Plug-In . SVG Version: 6.00 Build 0)  -->
<svg version="1.1" id="Layer_1" xmlns="http://www.w3.org/2000/svg" xmlns:xlink="http://www.w3.org/1999/xlink" x="0px" y="0px"
	 viewBox="0 0 512 512" style="enable-background:new 0 0 512 512;" xml:space="preserve">
<path d="M256,464C141.309,464,48,370.692,48,256c0-114.691,93.309-208,208-208s208,93.309,208,208C464,370.692,370.691,464,256,464z
	 M256,80c-97.047,0-176,78.953-176,176C80,353.047,158.953,432,256,432S432,353.047,432,256C432,158.953,353.047,80,256,80z"/>
<path d="M220.24,352c-2.209-0.012-4.01,1.769-4.022,3.978c-0.001,0.148,0.007,0.295,0.022,0.442C218.49,375.14,235.11,384,256,384
	s37.5-8.86,39.73-27.58c0.232-2.197-1.361-4.166-3.558-4.398c-0.147-0.016-0.294-0.023-0.442-0.022H220.24z"/>
<path d="M352,378c-4.511,0.008-8.813-1.896-11.84-5.24l-192-212c-5.864-6.61-5.259-16.723,1.351-22.587
	c6.498-5.765,16.41-5.291,22.329,1.067l192,212c5.943,6.54,5.458,16.659-1.082,22.602C359.814,376.517,355.978,378,352,378z"/>
<path d="M174.68,232.21c0,53.33-11.54,61.46-27.87,80.8c-6.77,8-0.65,23,11.19,23h118.83c2.209-0.001,3.999-1.792,3.999-4.001
	c0-0.999-0.374-1.962-1.049-2.699l-98-106.87c-1.495-1.626-4.026-1.732-5.652-0.237c-0.776,0.713-1.239,1.704-1.288,2.757
	C174.74,227.29,174.68,229.71,174.68,232.21z"/>
<path d="M365.2,313c-16.33-19.34-27.86-27.47-27.86-80.8c0-48.86-25.78-66.23-47-74.67c-2.959-1.235-5.261-3.66-6.34-6.68
	C280.29,138.6,269.88,128,256,128s-24.31,10.6-28,22.86c-1.072,3.021-3.371,5.447-6.33,6.68c-1.28,0.51-2.57,1.05-3.88,1.63
	c-2.015,0.906-2.914,3.274-2.008,5.289c0.177,0.393,0.416,0.755,0.708,1.071L361,323.21c1.493,1.628,4.024,1.737,5.652,0.244
	c0.889-0.816,1.363-1.989,1.288-3.194C367.856,317.603,366.892,315.05,365.2,313z"/>
</svg>
