<?xml version="1.0" encoding="iso-8859-1"?>
<!-- Generator: Adobe Illustrator 24.3.0, SVG Export Plug-In . SVG Version: 6.00 Build 0)  -->
<svg version="1.1" id="Layer_1" xmlns="http://www.w3.org/2000/svg" xmlns:xlink="http://www.w3.org/1999/xlink" x="0px" y="0px"
	 viewBox="0 0 512 512" style="enable-background:new 0 0 512 512;" xml:space="preserve">
<rect x="239.999" y="-31.53" transform="matrix(0.7071 -0.7071 0.7071 0.7071 -106.0391 255.9991)" width="32" height="575.06"/>
<path d="M256,480c31.795-0.032,60.561-18.869,73.3-48H182.7C195.439,461.131,224.205,479.968,256,480z"/>
<path d="M112,227.47V288l-48,64v48h268.12L115.87,183.75C113.229,198.172,111.933,212.808,112,227.47z"/>
<path d="M448,352l-48-64v-60.53C400,157,372.64,95.61,304,80l-8-48h-80l-8,48c-15.038,3.251-29.292,9.424-41.95,18.17l282,282
	L448,352z"/>
</svg>
