<svg width="38" height="38" viewBox="0 0 38 38"  xmlns="http://www.w3.org/2000/svg">
<circle cx="19" cy="19" r="19" fill="#ECFFB3"/>
<path d="M27.7039 26.668H10.3C9.5832 26.668 9 26.0848 9 25.368V13.3C9 12.5832 9.5832 12 10.3 12H27.7039C28.4186 12 29 12.5832 29 13.3V25.368C29 26.0848 28.4186 26.668 27.7039 26.668ZM10.3 12.8C10.0242 12.8 9.8 13.0242 9.8 13.3V25.368C9.8 25.6438 10.0242 25.868 10.3 25.868H27.7039C27.9775 25.868 28.2 25.6438 28.2 25.368V13.3C28.2 13.0242 27.9775 12.8 27.7039 12.8H10.3Z" fill="#482084"/>
<path d="M17.6086 24.2197H11.6754C11.4545 24.2197 11.2754 24.0406 11.2754 23.8197V20.6029C11.2754 19.7115 12.0006 18.9863 12.892 18.9863H16.392C17.2834 18.9863 18.0086 19.7115 18.0086 20.6029V23.8197C18.0086 24.0406 17.8295 24.2197 17.6086 24.2197ZM12.0754 23.4197H17.2086V20.6029C17.2086 20.1527 16.8422 19.7863 16.392 19.7863H12.892C12.4418 19.7863 12.0754 20.1527 12.0754 20.6029V23.4197Z" fill="#482084"/>
<path d="M14.6418 18.5787C13.5023 18.5787 12.5752 17.6516 12.5752 16.5121C12.5752 15.3725 13.5023 14.4453 14.6418 14.4453C15.7813 14.4453 16.7084 15.3725 16.7084 16.5121C16.7084 17.6516 15.7813 18.5787 14.6418 18.5787ZM14.6418 15.2453C13.9434 15.2453 13.3752 15.8137 13.3752 16.5121C13.3752 17.2105 13.9434 17.7787 14.6418 17.7787C15.3402 17.7787 15.9084 17.2105 15.9084 16.5121C15.9084 15.8137 15.3402 15.2453 14.6418 15.2453Z" fill="#482084"/>
<path d="M26.3248 17.0695H22.3248C22.1039 17.0695 21.9248 16.8904 21.9248 16.6695C21.9248 16.4486 22.1039 16.2695 22.3248 16.2695H26.3248C26.5457 16.2695 26.7248 16.4486 26.7248 16.6695C26.7248 16.8904 26.5457 17.0695 26.3248 17.0695Z" fill="#482084"/>
<path d="M26.3248 20.4719H19.5748C19.3539 20.4719 19.1748 20.2928 19.1748 20.0719C19.1748 19.851 19.3539 19.6719 19.5748 19.6719H26.3248C26.5457 19.6719 26.7248 19.851 26.7248 20.0719C26.7248 20.2928 26.5457 20.4719 26.3248 20.4719Z" fill="#482084"/>
<path d="M26.3248 23.8703H19.5748C19.3539 23.8703 19.1748 23.6912 19.1748 23.4703C19.1748 23.2494 19.3539 23.0703 19.5748 23.0703H26.3248C26.5457 23.0703 26.7248 23.2494 26.7248 23.4703C26.7248 23.6912 26.5457 23.8703 26.3248 23.8703Z" fill="#482084"/>
</svg>
