<svg width="38" height="38" viewBox="0 0 38 38"  xmlns="http://www.w3.org/2000/svg">
<circle cx="19" cy="19" r="19" fill="#FFEBCC"/>
<path d="M14.14 18.8821L14.1274 18.8949L14.3805 19.1669C15.3761 20.2367 16.758 20.8787 18.209 20.9548C18.3057 20.9599 18.4027 20.9624 18.5 20.9624C18.5002 20.9624 18.5003 20.9624 18.5005 20.9624C18.6949 20.9624 18.8886 20.9521 19.0805 20.932C19.2726 20.9119 19.4632 20.8819 19.6513 20.8423C19.7454 20.8225 19.8389 20.8003 19.9317 20.7758C20.9526 20.5058 21.8905 19.9513 22.6206 19.1669L22.8734 18.8951L22.8608 18.8825C23.6753 17.8811 24.1243 16.6381 24.1243 15.3381C24.1243 14.0388 23.6754 12.7963 22.8608 11.7946L22.8734 11.782L22.6206 11.5103C21.5594 10.3699 20.0585 9.71572 18.5024 9.71503C18.5018 9.71503 18.5012 9.71484 18.5006 9.71484C18.5001 9.71484 18.4997 9.71499 18.4992 9.71499C18.1104 9.71503 17.7251 9.75591 17.3491 9.83505C16.2206 10.0726 15.1769 10.6546 14.3805 11.5103L14.1277 11.782L14.1404 11.7947C13.3259 12.796 12.877 14.0386 12.877 15.3381C12.877 16.6379 13.3257 17.8806 14.14 18.8821ZM15.2701 11.7223C15.3181 11.6792 15.3683 11.6393 15.4177 11.5983C15.4914 11.5372 15.5657 11.477 15.6423 11.4207C15.6959 11.3813 15.7509 11.3444 15.8059 11.3074C15.8824 11.2559 15.9598 11.2061 16.0389 11.1593C16.0966 11.1251 16.1551 11.0924 16.2141 11.0607C16.2944 11.0177 16.3758 10.9772 16.4583 10.9389C16.5188 10.9107 16.5795 10.8831 16.6411 10.8575C16.7261 10.8223 16.8126 10.7907 16.8997 10.7604C16.9359 10.7478 16.9722 10.7354 17.0088 10.7237C16.7127 11.1796 16.4675 11.7733 16.2875 12.4706C15.9057 12.2822 15.5461 12.0451 15.2236 11.7675C15.2394 11.7529 15.2541 11.7366 15.2701 11.7223ZM20.3564 10.8625C20.4183 10.8881 20.4792 10.9158 20.5399 10.944C20.623 10.9825 20.7051 11.0231 20.7859 11.0663C20.8454 11.0981 20.9043 11.1308 20.9625 11.165C21.0417 11.2117 21.1192 11.2613 21.1958 11.3124C21.2515 11.3495 21.3071 11.3865 21.3612 11.426C21.4372 11.4814 21.5106 11.5406 21.5835 11.6005C21.6337 11.6419 21.6848 11.6821 21.7335 11.7255C21.7487 11.7391 21.7625 11.7545 21.7776 11.7683C21.4536 12.0484 21.0977 12.2834 20.714 12.4715C20.5349 11.7774 20.291 11.186 19.9968 10.7308C20.0299 10.7416 20.0628 10.7528 20.0956 10.7642C20.1834 10.7949 20.2706 10.8269 20.3564 10.8625ZM21.7336 18.9515C21.6847 18.9951 21.6334 19.0355 21.5829 19.077C21.5104 19.1367 21.4374 19.1956 21.3618 19.2507C21.3071 19.2906 21.2509 19.328 21.1946 19.3656C21.1187 19.4162 21.042 19.4654 20.9635 19.5116C20.9046 19.5463 20.8449 19.5793 20.7848 19.6115C20.7047 19.6542 20.6235 19.6944 20.5413 19.7326C20.4798 19.7612 20.418 19.7892 20.3553 19.8152C20.2704 19.8504 20.184 19.8821 20.0972 19.9125C20.0638 19.9241 20.0304 19.9355 19.9968 19.9464C20.291 19.4913 20.5349 18.8999 20.7139 18.2058C21.0977 18.3939 21.4536 18.6289 21.7775 18.909C21.7625 18.9227 21.7488 18.938 21.7336 18.9515ZM16.6411 19.8198C16.5795 19.7942 16.5188 19.7666 16.4583 19.7384C16.3758 19.7001 16.2944 19.6597 16.2142 19.6166C16.1551 19.5849 16.0966 19.5522 16.0388 19.518C15.9599 19.4712 15.8826 19.4215 15.8062 19.3701C15.7511 19.333 15.6959 19.296 15.6422 19.2565C15.5657 19.2003 15.4915 19.1402 15.418 19.0792C15.3684 19.0382 15.3182 18.9982 15.2701 18.9551C15.254 18.9406 15.2392 18.9243 15.2233 18.9096C15.5485 18.6286 15.9045 18.3936 16.2873 18.206C16.4673 18.9036 16.7127 19.4976 17.0089 19.9537C16.9722 19.9419 16.9359 19.9295 16.8996 19.9169C16.8126 19.8866 16.7261 19.855 16.6411 19.8198ZM18.4997 10.4877L18.5 10.4877C18.5007 10.4877 18.5015 10.4878 18.5022 10.4878C19.0492 10.4895 19.6364 11.3752 19.9799 12.7585C19.0213 13.0526 17.9806 13.0528 17.0213 12.7585C17.365 11.3746 17.9525 10.4887 18.4997 10.4877ZM18.5009 20.1896C18.5008 20.1896 18.5006 20.1896 18.5006 20.1896C17.9531 20.1895 17.3653 19.3035 17.0214 17.9193C17.9814 17.6246 19.0217 17.625 19.9799 17.9189C19.6361 19.3032 19.0482 20.1893 18.5009 20.1896ZM16.866 13.5208C17.3948 13.6764 17.9421 13.7575 18.5 13.7575C19.0584 13.7575 19.6062 13.6763 20.1352 13.5208C20.207 13.9652 20.254 14.445 20.2701 14.9523H16.7311C16.7472 14.445 16.7942 13.9652 16.866 13.5208ZM20.2701 15.725C20.254 16.2325 20.207 16.7125 20.1351 17.1571C19.0733 16.8468 17.9288 16.8465 16.8662 17.1575C16.7943 16.7128 16.7472 16.2326 16.7311 15.725H20.2701ZM20.8781 17.4374C20.9695 16.9063 21.0256 16.3318 21.0427 15.725H23.3334C23.2573 16.685 22.8994 17.5945 22.301 18.3491C21.873 17.9752 21.3966 17.6707 20.8781 17.4374ZM21.0427 14.9523C21.0256 14.3455 20.9695 13.771 20.8781 13.2399C21.3966 13.0066 21.8731 12.7021 22.3011 12.3282C22.8996 13.0831 23.2575 13.9926 23.3335 14.9523H21.0427ZM16.122 13.2471C16.0313 13.7763 15.9755 14.3482 15.9585 14.9523H13.6677C13.7436 13.9939 14.1004 13.0856 14.6972 12.3316C15.1241 12.7028 15.6067 13.0141 16.122 13.2471ZM15.9585 15.725C15.9756 16.3319 16.0318 16.9064 16.1232 17.4376C15.6062 17.6699 15.1298 17.9743 14.7003 18.3493C14.1018 17.5945 13.7439 16.6851 13.6678 15.725H15.9585Z" fill="#482084"/>
<path d="M26.6136 8H10.3864C10.1729 8 10 8.17293 10 8.38636V29.1212C10 29.3346 10.1729 29.5076 10.3864 29.5076H26.6136C26.8271 29.5076 27 29.3346 27 29.1212V8.38636C27 8.17293 26.8271 8 26.6136 8ZM26.2273 28.7348H10.7727V8.77273H26.2273V28.7348Z" fill="#482084"/>
<path d="M13.2623 24.0969H23.7372C23.9506 24.0969 24.1235 23.924 24.1235 23.7106C24.1235 23.4972 23.9506 23.3242 23.7372 23.3242H13.2623C13.0489 23.3242 12.876 23.4972 12.876 23.7106C12.876 23.924 13.0489 24.0969 13.2623 24.0969Z" fill="#482084"/>
<path d="M22.3371 25.3203H14.6627C14.4493 25.3203 14.2764 25.4932 14.2764 25.7067C14.2764 25.9201 14.4493 26.093 14.6627 26.093H22.3371C22.5505 26.093 22.7234 25.9201 22.7234 25.7067C22.7234 25.4932 22.5505 25.3203 22.3371 25.3203Z" fill="#482084"/>
</svg>
