<svg width="38" height="38" viewBox="0 0 38 38"  xmlns="http://www.w3.org/2000/svg">
<circle cx="19" cy="19" r="19" fill="url(#paint0_linear_644_20917)"/>
<g opacity="0.8" clip-path="url(#clip0_644_20917)">
<path d="M26.9398 28.4989C21.3946 32.1089 13.9462 30.5345 10.3361 24.9893C6.72607 19.444 8.30047 11.9956 13.8457 8.38557C14.8114 7.75691 15.862 7.27081 16.9684 6.94086L19.851 6.0815L17.8986 8.36967C14.9811 11.7888 14.6573 16.8095 17.1112 20.5787C19.5649 24.3478 24.2869 26.0829 28.594 24.7988L31.4753 23.9394L29.5244 26.2276C28.775 27.1061 27.9056 27.8702 26.94 28.4988L26.9398 28.4989ZM14.8158 9.87563C10.092 12.9509 8.75107 19.296 11.8262 24.0197C14.9014 28.7433 21.2462 30.0848 25.9702 27.0095L25.9963 26.9925C21.9092 27.0878 17.9187 25.0774 15.6216 21.5488C13.3247 18.0206 13.1012 13.5578 14.8416 9.85884L14.8158 9.87559L14.8158 9.87563Z" fill="#482084"/>
</g>
<defs>
<linearGradient id="paint0_linear_644_20917" x1="8.25749" y1="-16.1634" x2="53.0307" y2="3.1436" gradientUnits="userSpaceOnUse">
<stop offset="0.0730543" stop-color="#CCC1DD"/>
<stop offset="0.937084" stop-color="#FEF1F7"/>
</linearGradient>
<clipPath id="clip0_644_20917">
<rect width="24" height="24" fill="white" transform="translate(1.39648 16.4902) rotate(-33.0648)"/>
</clipPath>
</defs>
</svg>
