<?xml version="1.0" encoding="iso-8859-1"?>
<!-- Generator: Adobe Illustrator 24.3.0, SVG Export Plug-In . SVG Version: 6.00 Build 0)  -->
<svg version="1.1" id="Layer_1" xmlns="http://www.w3.org/2000/svg" xmlns:xlink="http://www.w3.org/1999/xlink" x="0px" y="0px"
	 viewBox="0 0 512 512" style="enable-background:new 0 0 512 512;" xml:space="preserve">
<circle cx="256" cy="256" r="48"/>
<path style="fill:none;" d="M223.47,335.59l-51.71,68c52.196,29.841,116.284,29.841,168.48,0l-51.71-68"/>
<path d="M403.08,108.92c-81.23-81.23-212.93-81.23-294.16,0s-81.23,212.93,0,294.16s212.93,81.23,294.16,0
	S484.31,190.15,403.08,108.92z M342,256c-0.044,34.915-21.162,66.35-53.47,79.59l51.71,68c-52.196,29.841-116.284,29.841-168.48,0
	l51.71-68c-40.058-16.371-61.712-59.958-50.56-101.77l-85.48,0.09c6.396-48.422,33.286-91.764,73.83-119l37.94,76.59
	c32.441-28.666,81.159-28.666,113.6,0l37.94-76.59c40.544,27.236,67.434,70.578,73.83,119l-85.48-0.09
	C341.023,241.055,342.001,248.511,342,256z"/>
</svg>
