<?xml version="1.0" encoding="iso-8859-1"?>
<!-- Generator: Adobe Illustrator 24.3.0, SVG Export Plug-In . SVG Version: 6.00 Build 0)  -->
<svg version="1.1" id="Layer_1" xmlns="http://www.w3.org/2000/svg" xmlns:xlink="http://www.w3.org/1999/xlink" x="0px" y="0px"
	 viewBox="0 0 512 512" style="enable-background:new 0 0 512 512;" xml:space="preserve">
<path d="M258.9,48C141.92,46.42,46.42,141.92,48,258.9c1.56,112.19,92.91,203.54,205.1,205.1c117,1.6,212.48-93.9,210.88-210.88
	C462.44,140.91,371.09,49.56,258.9,48z M429,239.92l-93.08-0.1c-0.938-0.002-1.748-0.654-1.95-1.57
	c-3.979-17.366-13.635-32.909-27.44-44.17c-0.724-0.586-0.947-1.593-0.54-2.43l41.32-83.43c0.485-0.992,1.682-1.404,2.675-0.919
	c0.067,0.033,0.132,0.069,0.195,0.109c45.416,28.82,75.181,76.807,80.82,130.3c0.116,1.098-0.68,2.083-1.779,2.199
	C429.148,239.917,429.074,239.92,429,239.92z M208.2,260.38c-2.419-26.399,17.021-49.761,43.42-52.18s49.761,17.021,52.18,43.42
	c2.419,26.399-17.021,49.761-43.42,52.18c-2.914,0.267-5.846,0.267-8.76,0C228.571,301.688,210.312,283.429,208.2,260.38z
	 M164.65,108.22L206,191.65c0.407,0.837,0.184,1.844-0.54,2.43c-13.813,11.258-23.476,26.802-27.46,44.17
	c-0.205,0.934-1.044,1.592-2,1.57l-93.08,0.1c-1.105,0.006-2.005-0.884-2.011-1.989c0-0.074,0.003-0.148,0.011-0.221
	c5.639-53.493,35.404-101.48,80.82-130.3c0.921-0.609,2.162-0.357,2.771,0.565C164.563,108.053,164.61,108.135,164.65,108.22z
	 M164.28,403.56l56.31-74.09c0.569-0.745,1.579-0.994,2.43-0.6c20.97,9.519,45.03,9.519,66,0c0.851-0.394,1.861-0.145,2.43,0.6
	l56.31,74.09c0.672,0.877,0.506,2.132-0.371,2.804c-0.054,0.042-0.111,0.08-0.169,0.116c-56.025,34.026-126.335,34.026-182.36,0
	c-0.95-0.563-1.263-1.79-0.7-2.74C164.197,403.678,164.237,403.618,164.28,403.56z"/>
</svg>
