<?xml version="1.0" encoding="iso-8859-1"?>
<!-- Generator: Adobe Illustrator 24.3.0, SVG Export Plug-In . SVG Version: 6.00 Build 0)  -->
<svg version="1.1" id="Layer_1" xmlns="http://www.w3.org/2000/svg" xmlns:xlink="http://www.w3.org/1999/xlink" x="0px" y="0px"
	 viewBox="0 0 512 512" style="enable-background:new 0 0 512 512;" xml:space="preserve">
<path d="M256,464C141.309,464,48,370.692,48,256c0-114.691,93.309-208,208-208s208,93.309,208,208C464,370.692,370.691,464,256,464z
	 M256,80c-97.047,0-176,78.953-176,176C80,353.047,158.953,432,256,432S432,353.047,432,256C432,158.953,353.047,80,256,80z"/>
<path d="M256,336c-44.112,0-80-35.888-80-80.001c0-44.112,35.888-80,80-80s80,35.888,80,80C336,300.113,300.112,336,256,336z
	 M256,208c-26.467,0-48,21.533-48,48S229.533,304,256,304c26.467,0,48-21.533,48-48.001S282.467,208,256,208z"/>
<path d="M224.012,208.003c-5.891,0-11.558-3.266-14.35-8.902l-53-107c-3.922-7.918-0.683-17.517,7.236-21.439
	c7.917-3.92,17.518-0.682,21.439,7.236l53,107c3.922,7.918,0.683,17.517-7.236,21.439
	C228.82,207.468,226.397,208.003,224.012,208.003z"/>
<path d="M287.988,208.003c-2.386,0-4.808-0.535-7.09-1.666c-7.919-3.922-11.158-13.521-7.236-21.439l53-107
	c3.924-7.919,13.523-11.158,21.439-7.236c7.919,3.922,11.158,13.521,7.236,21.439l-53,107
	C299.546,204.737,293.878,208.003,287.988,208.003z"/>
<path d="M446.96,271.94c-0.006,0-0.012,0-0.018,0l-119.41-0.13c-8.836-0.01-15.992-7.181-15.982-16.018
	c0.01-8.831,7.171-15.982,16-15.982c0.006,0,0.012,0,0.018,0l119.41,0.13c8.836,0.01,15.992,7.181,15.982,16.018
	C462.95,264.788,455.789,271.94,446.96,271.94z"/>
<path d="M371.352,424.191c-4.829,0-9.603-2.178-12.75-6.319l-72.25-95.06c-5.347-7.035-3.979-17.073,3.057-22.42
	c7.036-5.346,17.074-3.979,22.42,3.057l72.25,95.06c5.347,7.035,3.979,17.073-3.057,22.42
	C378.128,423.127,374.726,424.191,371.352,424.191z"/>
<path d="M65.04,271.94c-8.829,0-15.99-7.151-16-15.982c-0.01-8.837,7.146-16.008,15.982-16.018l119.41-0.13c0.005,0,0.013,0,0.018,0
	c8.829,0,15.99,7.151,16,15.982c0.01,8.837-7.146,16.008-15.982,16.018l-119.41,0.13C65.052,271.94,65.045,271.94,65.04,271.94z"/>
<path d="M140.648,424.191c-3.375,0-6.776-1.063-9.67-3.263c-7.035-5.347-8.404-15.385-3.057-22.42l72.25-95.06
	c5.347-7.037,15.385-8.403,22.42-3.057c7.035,5.347,8.404,15.385,3.057,22.42l-72.25,95.06
	C150.251,422.013,145.477,424.191,140.648,424.191z"/>
</svg>
