<?xml version="1.0" encoding="iso-8859-1"?>
<!-- Generator: Adobe Illustrator 24.3.0, SVG Export Plug-In . SVG Version: 6.00 Build 0)  -->
<svg version="1.1" id="Layer_1" xmlns="http://www.w3.org/2000/svg" xmlns:xlink="http://www.w3.org/1999/xlink" x="0px" y="0px"
	 viewBox="0 0 512 512" style="enable-background:new 0 0 512 512;" xml:space="preserve">
<path d="M336.8,496c-30.775,0-47.151-9.438-59.109-16.33c-8.299-4.783-13.308-7.67-21.69-7.67c-8.384,0-13.395,2.888-21.696,7.671
	C222.345,486.563,205.968,496,175.2,496c-40.172,0-74.338-51.758-87.163-74.011C62.967,378.489,48,328.4,48,288
	c0-51.243,8.816-92.24,26.203-121.852c18.77-31.968,47.922-50.668,84.304-54.079c20.256-1.885,39.141,3.325,57.408,8.362
	C230.027,124.324,243.357,128,256,128c12.683,0,26.046-3.672,40.194-7.561c18.218-5.006,37.059-10.184,57.233-8.375
	c38.109,3.413,66.902,21.657,85.577,54.228C455.824,195.623,464,235.435,464,288c0,40.4-14.966,90.49-40.033,133.989
	C411.143,444.243,376.978,496,336.8,496z M256,440c16.944,0,27.955,6.346,37.67,11.945C304.426,458.145,314.586,464,336.8,464
	c12.953,0,36.356-17.931,59.441-57.989C418.298,367.737,432,322.518,432,288c0-46.18-6.983-81.773-20.755-105.792
	c-13.356-23.293-33.202-35.813-60.672-38.273h-0.001c-14.411-1.287-29.709,2.911-45.898,7.36C289.102,155.575,273,160,256,160
	c-16.974,0-33.048-4.433-48.592-8.719c-16.207-4.469-31.514-8.687-45.926-7.35c-26.434,2.478-45.96,15.046-59.685,38.42
	C87.333,206.985,80,242.53,80,288c0,34.516,13.704,79.734,35.763,118.011C138.849,446.07,162.25,464,175.2,464
	c22.208,0,32.369-5.855,43.126-12.055C228.043,446.347,239.056,440,256,440z"/>
<path d="M323.92,83.14c-21,21-45.66,27-58.82,28.79c-4.373,0.63-8.429-2.404-9.059-6.777c-0.093-0.647-0.107-1.303-0.041-1.953
	c2.374-22.494,12.486-43.466,28.61-59.33c22-22,46-26.9,58.72-27.85c4.4-0.402,8.292,2.84,8.694,7.24
	c0.051,0.559,0.043,1.122-0.024,1.68C349.489,46.957,339.591,67.473,323.92,83.14z"/>
<ellipse cx="216" cy="304" rx="24" ry="48"/>
<ellipse cx="296" cy="304" rx="24" ry="48"/>
</svg>
