<?xml version="1.0" encoding="iso-8859-1"?>
<!-- Generator: Adobe Illustrator 24.3.0, SVG Export Plug-In . SVG Version: 6.00 Build 0)  -->
<svg version="1.1" id="Layer_1" xmlns="http://www.w3.org/2000/svg" xmlns:xlink="http://www.w3.org/1999/xlink" x="0px" y="0px"
	 viewBox="0 0 512 512" style="enable-background:new 0 0 512 512;" xml:space="preserve">
<path d="M439,166.29c-18.67-32.57-47.46-50.81-85.57-54.23c-20.18-1.8-39,3.37-57.23,8.38c-14.15,3.89-27.52,7.56-40.2,7.56
	s-26-3.68-40.06-7.57c-18.28-5-37.18-10.26-57.43-8.36c-36.39,3.41-65.51,22.11-84.31,54.08C56.82,195.76,48,236.76,48,288
	c0,40.4,15,90.49,40,134c12.82,22.25,47,74,87.16,74c30.77,0,47.15-9.44,59.11-16.33c8.3-4.78,13.31-7.67,21.69-7.67
	c8.38,0,13.39,2.89,21.69,7.67c12,6.89,28.35,16.33,59.15,16.33c40.17,0,74.34-51.76,87.16-74c25.07-43.5,40-93.59,40-134
	C464,235.43,455.82,195.62,439,166.29z M216,352c-13.25,0-24-21.49-24-48s10.75-48,24-48s24,21.49,24,48S229.25,352,216,352z
	 M296,352c-13.25,0-24-21.49-24-48s10.75-48,24-48s24,21.49,24,48S309.25,352,296,352z"/>
<path d="M265.1,111.93c13.16-1.75,37.86-7.83,58.83-28.79c15.641-15.679,25.511-36.193,28-58.2c0.532-4.386-2.593-8.373-6.979-8.905
	c-0.521-0.063-1.048-0.075-1.571-0.035c-12.71,0.95-36.76,5.87-58.73,27.85C268.508,59.713,258.38,80.693,256,103.2
	c-0.448,4.395,2.751,8.322,7.147,8.771C263.797,112.037,264.453,112.023,265.1,111.93z"/>
</svg>
