<?xml version="1.0" encoding="UTF-8"?>
<svg width="509px" height="448px" viewBox="0 0 509 448" version="1.1" xmlns="http://www.w3.org/2000/svg" xmlns:xlink="http://www.w3.org/1999/xlink">
    <title>Group</title>
    <g id="Page-1" stroke="none" stroke-width="1"  fill-rule="evenodd">
        <g id="Group"  fill-rule="nonzero">
            <path d="M224,448 C164.167,448 107.916,424.7 65.608,382.392 C23.3,340.084 0,283.832 0,224 C0,164.168 23.3,107.916 65.608,65.608 C107.917,23.3 164.167,0 224,0 C283.832,0 340.084,23.3 382.392,65.608 C424.7,107.916 448,164.167 448,224 C448,283.833 424.7,340.084 382.392,382.392 C340.084,424.701 283.832,448 224,448 Z M224,32 C118.131,32 32,118.131 32,224 C32,329.87 118.131,416 224,416 C329.869,416 416,329.87 416,224 C416,118.131 329.869,32 224,32 Z" id="Shape"></path>
            <path d="M224,318 C172.168232,318 130,275.831768 130,224 C130,172.168232 172.168232,130 224,130 C275.831768,130 318,172.168232 318,224 C318,275.831768 275.831768,318 224,318 Z M224,157 C187.0562,157 157,187.0562 157,224 C157,260.944637 187.0562,291 224,291 C260.9438,291 291,260.9438 291,223.999163 C291,187.0562 260.9438,157 224,157 Z" id="Shape"></path>
            <path d="M224,385 C135.224312,385 63,312.775688 63,224 C63,135.224312 135.224312,63 224,63 C312.775688,63 385,135.224312 385,224 C385,312.775688 312.775688,385 224,385 Z M224.5,91 C150.8881,91 91,150.8881 91,224.5 C91,298.113569 150.8881,358 224.5,358 C298.1119,358 358,298.1119 358,224.498331 C358,150.8881 298.1119,91 224.5,91 Z" id="Shape"></path>
            <circle id="Oval" cx="224" cy="224" r="32"></circle>
            <path d="M443.157928,89.88427 C448.468549,86.9339249 455.165385,88.8473067 458.11573,94.1579278 C461.066075,99.4685488 459.152693,106.165385 453.842072,109.11573 L228.842072,234.11573 C223.531451,237.066075 216.834615,235.152693 213.88427,229.842072 C210.933925,224.531451 212.847307,217.834615 218.157928,214.88427 L443.157928,89.88427 Z" id="Line"></path>
            <path d="M455.751898,41.095828 C461.82703,41.095828 466.751898,46.0206958 466.751898,52.095828 L466.751898,101.095828 C466.751898,107.17096 461.82703,112.095828 455.751898,112.095828 C449.676766,112.095828 444.751898,107.17096 444.751898,101.095828 L444.751898,52.095828 C444.751898,46.0206958 449.676766,41.095828 455.751898,41.095828 Z" id="Line" transform="translate(455.751898, 76.595828) rotate(18.000000) translate(-455.751898, -76.595828) "></path>
            <path d="M471.851829,70.2886488 C477.926962,70.2886488 482.851829,75.2135165 482.851829,81.2886488 L482.851829,130.288649 C482.851829,136.363781 477.926962,141.288649 471.851829,141.288649 C465.776697,141.288649 460.851829,136.363781 460.851829,130.288649 L460.851829,81.2886488 C460.851829,75.2135165 465.776697,70.2886488 471.851829,70.2886488 Z" id="Line" transform="translate(471.851829, 105.788649) rotate(285.000000) translate(-471.851829, -105.788649) "></path>
        </g>
    </g>
</svg>