<?xml version="1.0" encoding="iso-8859-1"?>
<!-- Generator: Adobe Illustrator 24.3.0, SVG Export Plug-In . SVG Version: 6.00 Build 0)  -->
<svg version="1.1" id="Layer_1" xmlns="http://www.w3.org/2000/svg" xmlns:xlink="http://www.w3.org/1999/xlink" x="0px" y="0px"
	 viewBox="0 0 512 512" style="enable-background:new 0 0 512 512;" xml:space="preserve">
<path d="M224,304c-8.837-0.004-15.997-7.171-15.993-16.007c0.002-4.239,1.686-8.304,4.683-11.303l157.94-157.94
	c-8.174-4.438-17.329-6.759-26.63-6.75H104c-30.914,0.033-55.967,25.086-56,56v240c0.033,30.914,25.086,55.967,56,56h240
	c30.914-0.033,55.967-25.086,56-56V168c0.009-9.301-2.312-18.456-6.75-26.63L235.31,299.31C232.316,302.319,228.244,304.007,224,304
	z"/>
<path d="M448,48H336c-8.837,0-16,7.163-16,16s7.163,16,16,16h73.37l-38.74,38.75c9.567,5.197,17.423,13.053,22.62,22.62L432,102.63
	V176c0,8.837,7.163,16,16,16s16-7.163,16-16V64C464,55.163,456.837,48,448,48z"/>
</svg>
