<?xml version="1.0" encoding="iso-8859-1"?>
<!-- Generator: Adobe Illustrator 24.3.0, SVG Export Plug-In . SVG Version: 6.00 Build 0)  -->
<svg version="1.1" id="Layer_1" xmlns="http://www.w3.org/2000/svg" xmlns:xlink="http://www.w3.org/1999/xlink" x="0px" y="0px"
	 viewBox="0 0 512 512" style="enable-background:new 0 0 512 512;" xml:space="preserve">
<path d="M344,464H104c-30.878,0-56-25.121-56-56V168c0-30.878,25.122-56,56-56h167.48c8.837,0,16,7.164,16,16s-7.163,16-16,16H104
	c-13.234,0-24,10.767-24,24V408c0,13.233,10.766,24,24,24h240c13.233,0,24-10.767,24-24V224c0-8.836,7.163-16,16-16s16,7.164,16,16
	V408C400,438.879,374.879,464,344,464z"/>
<path d="M448,192c-8.837,0-16-7.164-16-16V80h-96c-8.837,0-16-7.164-16-16s7.163-16,16-16h112c8.837,0,16,7.164,16,16v112
	C464,184.836,456.837,192,448,192z"/>
<path d="M224,304c-4.095,0-8.189-1.562-11.313-4.687c-6.249-6.248-6.249-16.379,0-22.627l216-216c6.248-6.249,16.379-6.249,22.627,0
	c6.249,6.248,6.249,16.379,0,22.627l-216,216C232.189,302.438,228.095,304,224,304z"/>
</svg>
