<?xml version="1.0" encoding="iso-8859-1"?>
<!-- Generator: Adobe Illustrator 24.3.0, SVG Export Plug-In . SVG Version: 6.00 Build 0)  -->
<svg version="1.1" id="Layer_1" xmlns="http://www.w3.org/2000/svg" xmlns:xlink="http://www.w3.org/1999/xlink" x="0px" y="0px"
	 viewBox="0 0 512 512" style="enable-background:new 0 0 512 512;" xml:space="preserve">
<path d="M64,144h226.75c8.844,24.991,36.273,38.08,61.264,29.236c13.658-4.834,24.403-15.578,29.236-29.236H448
	c8.837,0,16-7.163,16-16c0-8.837-7.163-16-16-16h-66.75c-8.844-24.991-36.273-38.08-61.264-29.236
	C306.328,87.597,295.584,98.342,290.75,112H64c-8.837,0-16,7.163-16,16C48,136.837,55.163,144,64,144z"/>
<path d="M448,368h-66.75c-8.844-24.991-36.273-38.08-61.264-29.236c-13.658,4.834-24.403,15.578-29.236,29.236H64
	c-8.837,0-16,7.163-16,16s7.163,16,16,16h226.75c8.844,24.991,36.273,38.08,61.264,29.236c13.658-4.834,24.403-15.578,29.236-29.236
	H448c8.837,0,16-7.163,16-16S456.837,368,448,368z"/>
<path d="M448,240H221.25c-8.844-24.991-36.273-38.08-61.264-29.236c-13.658,4.834-24.403,15.578-29.236,29.236H64
	c-8.837,0-16,7.163-16,16c0,8.837,7.163,16,16,16h66.75c8.844,24.991,36.273,38.08,61.264,29.236
	c13.658-4.834,24.403-15.578,29.236-29.236H448c8.837,0,16-7.163,16-16C464,247.163,456.837,240,448,240z"/>
</svg>
