<?xml version="1.0" encoding="iso-8859-1"?>
<!-- Generator: Adobe Illustrator 24.3.0, SVG Export Plug-In . SVG Version: 6.00 Build 0)  -->
<svg version="1.1" id="Layer_1" xmlns="http://www.w3.org/2000/svg" xmlns:xlink="http://www.w3.org/1999/xlink" x="0px" y="0px"
	 viewBox="0 0 512 512" style="enable-background:new 0 0 512 512;" xml:space="preserve">
<path d="M448,144h-80c-8.837,0-16-7.164-16-16s7.163-16,16-16h80c8.837,0,16,7.164,16,16S456.837,144,448,144z"/>
<path d="M304,144H64c-8.836,0-16-7.164-16-16s7.164-16,16-16h240c8.837,0,16,7.164,16,16S312.837,144,304,144z"/>
<path d="M448,400h-80c-8.837,0-16-7.163-16-16s7.163-16,16-16h80c8.837,0,16,7.163,16,16S456.837,400,448,400z"/>
<path d="M304,400H64c-8.836,0-16-7.163-16-16s7.164-16,16-16h240c8.837,0,16,7.163,16,16S312.837,400,304,400z"/>
<path d="M448,272H208c-8.836,0-16-7.164-16-16.001c0-8.836,7.164-16,16-16h240c8.837,0,16,7.164,16,16
	C464,264.836,456.837,272,448,272z"/>
<path d="M144,272H64c-8.836,0-16-7.164-16-16.001c0-8.836,7.164-16,16-16h80c8.836,0,16,7.164,16,16
	C160,264.836,152.836,272,144,272z"/>
<path d="M336,176c-26.468,0-48-21.533-48-48s21.532-48,48-48s48,21.533,48,48S362.468,176,336,176z M336,112
	c-8.822,0-16,7.178-16,16s7.178,16,16,16s16-7.178,16-16S344.822,112,336,112z"/>
<path d="M176,304c-26.467,0-48-21.533-48-48.001s21.533-48,48-48s48,21.533,48,48S202.467,304,176,304z M176,240
	c-8.822,0-16,7.178-16,16c0,8.823,7.178,16.001,16,16.001s16-7.178,16-16.001C192,247.178,184.822,240,176,240z"/>
<path d="M336,432c-26.468,0-48-21.532-48-48s21.532-48,48-48s48,21.532,48,48S362.468,432,336,432z M336,368
	c-8.822,0-16,7.178-16,16s7.178,16,16,16s16-7.178,16-16S344.822,368,336,368z"/>
</svg>
