<?xml version="1.0" encoding="iso-8859-1"?>
<!-- Generator: Adobe Illustrator 24.3.0, SVG Export Plug-In . SVG Version: 6.00 Build 0)  -->
<svg version="1.1" id="Layer_1" xmlns="http://www.w3.org/2000/svg" xmlns:xlink="http://www.w3.org/1999/xlink" x="0px" y="0px"
	 viewBox="0 0 512 512" style="enable-background:new 0 0 512 512;" xml:space="preserve">
<path d="M381.25,112c-8.844-24.991-36.273-38.08-61.264-29.236C306.328,87.597,295.584,98.342,290.75,112H48v32h242.75
	c8.844,24.991,36.273,38.08,61.264,29.236c13.658-4.834,24.403-15.578,29.236-29.236H464v-32H381.25z"/>
<path d="M176,208c-20.331,0.029-38.448,12.84-45.25,32H48v32h82.75c8.844,24.991,36.273,38.08,61.264,29.236
	c13.658-4.834,24.403-15.578,29.236-29.236H464v-32H221.25C214.448,220.841,196.331,208.029,176,208z"/>
<path d="M336,336c-20.331,0.029-38.448,12.84-45.25,32H48v32h242.75c8.844,24.991,36.273,38.08,61.264,29.236
	c13.658-4.834,24.403-15.578,29.236-29.236H464v-32h-82.75C374.448,348.841,356.331,336.029,336,336z"/>
</svg>
