<?xml version="1.0" encoding="UTF-8"?>
<svg width="384px" height="448px" viewBox="0 0 384 448" version="1.1" xmlns="http://www.w3.org/2000/svg" xmlns:xlink="http://www.w3.org/1999/xlink">
    <title>organisation-chart</title>
    <g id="Page-1" stroke="none" stroke-width="1"  fill-rule="evenodd">
        <g id="organisation-chart" transform="translate(192.000000, 224.000000) scale(1, -1) translate(-192.000000, -224.000000) "  fill-rule="nonzero">
            <path d="M64,128 C28.71,128 0,99.29 0,64 C0,28.71 28.71,0 64,0 C99.29,0 128,28.71 128,64 C128,99.29 99.29,128 64,128 Z M64,32 C46.355,32 32,46.355 32,64 C32,81.645 46.355,96 64,96 C81.645,96 96,81.645 96,64 C96,46.355 81.645,32 64,32 Z" id="Shape"></path>
            <path d="M192,448 C156.71,448 128,419.29 128,384 C128,348.71 156.71,320 192,320 C227.29,320 256,348.71 256,384 C256,419.29 227.29,448 192,448 Z M192,352 C174.355,352 160,366.355 160,384 C160,401.645 174.355,416 192,416 C209.645,416 224,401.645 224,384 C224,366.355 209.645,352 192,352 Z" id="Shape"></path>
            <path d="M192,352 C183.164,352 176,344.837 176,336 L176,224 C176,215.164 183.164,208 192,208 C200.837,208 208,215.164 208,224 L208,336 C208,344.837 200.837,352 192,352 Z" id="Path"></path>
            <path d="M320,128 C284.71,128 256,99.29 256,64 C256,28.71 284.71,0 320,0 C355.29,0 384,28.71 384,64 C384,99.29 355.29,128 320,128 Z M320,32 C302.355,32 288,46.355 288,64 C288,81.645 302.355,96 320,96 C337.645,96 352,81.645 352,64 C352,46.355 337.645,32 320,32 Z" id="Shape"></path>
            <path d="M192,240 C157.292,240 122.366,228.609 96.177,208.749 C64.659,184.849 48,151.393 48,112 C48,103.164 55.164,96 64,96 C72.836,96 80,103.164 80,112 C80,148.632 99.312,170.967 115.513,183.252 C136.252,198.98 164.131,208 192,208 C200.837,208 208,215.164 208,224 C208,232.836 200.837,240 192,240 Z" id="Path"></path>
            <path d="M192,240 C183.164,240 176,232.836 176,223.999 C176,215.163 183.164,207.999 192,207.999 C219.869,207.999 247.748,198.979 268.487,183.251 C284.688,170.967 304,148.632 304,112 C304,103.164 311.163,96 320,96 C328.837,96 336,103.164 336,112 C336,151.394 319.341,184.849 287.823,208.75 C261.634,228.61 226.708,240 192,240 Z" id="Path"></path>
        </g>
    </g>
</svg>