<?xml version="1.0" encoding="iso-8859-1"?>
<!-- Generator: Adobe Illustrator 24.3.0, SVG Export Plug-In . SVG Version: 6.00 Build 0)  -->
<svg version="1.1" id="Layer_1" xmlns="http://www.w3.org/2000/svg" xmlns:xlink="http://www.w3.org/1999/xlink" x="0px" y="0px"
	 viewBox="0 0 512 512" style="enable-background:new 0 0 512 512;" xml:space="preserve">
<path d="M473,39.05c-6.684-6.682-16.666-8.82-25.5-5.46L47.47,185h-0.08c-12.371,4.758-18.543,18.644-13.785,31.016
	c2.571,6.685,7.993,11.872,14.785,14.144l0.41,0.13l137.3,58.63c5.45,1.654,11.368,0.287,15.54-3.59L422,80
	c2.761-2.761,7.239-2.761,10,0s2.761,7.239,0,10L226.66,310.26c-3.877,4.172-5.244,10.09-3.59,15.54l58.65,137.38
	c0.06,0.2,0.12,0.38,0.19,0.57c3.2,9.27,11.3,15.81,21.09,16.25c0.43,0,0.58,0,1,0c10.114,0.058,19.235-6.073,23-15.46L478.39,64.62
	C481.798,55.78,479.686,45.762,473,39.05z"/>
</svg>
