<?xml version="1.0" encoding="iso-8859-1"?>
<!-- Generator: Adobe Illustrator 24.3.0, SVG Export Plug-In . SVG Version: 6.00 Build 0)  -->
<svg version="1.1" id="Layer_1" xmlns="http://www.w3.org/2000/svg" xmlns:xlink="http://www.w3.org/1999/xlink" x="0px" y="0px"
	 viewBox="0 0 512 512" style="enable-background:new 0 0 512 512;" xml:space="preserve">
<path d="M304.628,479.946c-2.991,0-5.984-0.566-8.849-1.702c-6.348-2.518-11.3-7.593-13.663-13.976l-67.282-165.802
	c-0.127-0.312-0.244-0.629-0.351-0.949c-0.319-0.106-0.634-0.223-0.946-0.35L47.802,229.971
	c-5.804-2.101-10.503-6.276-13.277-11.817c-2.87-5.732-3.335-12.24-1.312-18.322c2.276-6.841,7.443-12.247,14.175-14.83
	c0.023-0.009,0.045-0.018,0.068-0.026l400-151.39c5.934-2.271,12.455-2.092,18.31,0.522c5.854,2.615,10.338,7.353,12.628,13.341
	c2.115,5.526,2.115,11.617-0.001,17.148l-151.37,399.946c-0.029,0.078-0.059,0.155-0.09,0.232
	c-2.361,5.96-6.903,10.643-12.788,13.187C311.09,479.284,307.86,479.946,304.628,479.946z M244.643,286.819L304.368,434
	L442.216,69.785L77.932,207.657l147.245,59.699C234.218,270.565,241.432,277.778,244.643,286.819z M58.51,199.818
	c0.004,0.001,0.009,0.003,0.013,0.004C58.519,199.821,58.515,199.819,58.51,199.818z M458.836,63.494l-0.049,0.019
	C458.804,63.507,458.82,63.5,458.836,63.494z M448.486,53.217c-0.007,0.017-0.013,0.033-0.019,0.05L448.486,53.217z"/>
<path d="M227,301c-4.095,0-8.189-1.562-11.313-4.687c-6.249-6.248-6.249-16.379,0-22.627l233-233c6.248-6.249,16.379-6.249,22.627,0
	c6.249,6.249,6.249,16.379,0,22.627l-233,233C235.189,299.438,231.095,301,227,301z"/>
</svg>
