<?xml version="1.0" encoding="iso-8859-1"?>
<!-- Generator: Adobe Illustrator 24.3.0, SVG Export Plug-In . SVG Version: 6.00 Build 0)  -->
<svg version="1.1" id="Layer_1" xmlns="http://www.w3.org/2000/svg" xmlns:xlink="http://www.w3.org/1999/xlink" x="0px" y="0px"
	 viewBox="0 0 512 512" style="enable-background:new 0 0 512 512;" xml:space="preserve">
<path d="M340,480H106c-29.5,0-54.92-7.83-73.53-22.64C11.23,440.44,0,415.35,0,384.8c0-26.66,10.08-49.8,29.14-66.91
	c15.24-13.68,36.17-23.21,59-26.84l0,0c0.06,0,0.08,0,0.09-0.05c6.44-39,23.83-72.09,50.31-95.68
	c25.761-22.848,59.027-35.42,93.46-35.32c30.23,0,58.48,9.39,81.71,27.17c20.309,15.764,35.981,36.723,45.36,60.66
	c29.41,4.82,54.72,17.11,73.19,35.54C453,304.11,464,331.71,464,363.2c0,32.85-13.13,62.87-37,84.52
	C404.11,468.54,373.2,480,340,480z"/>
<path d="M381.5,219.89c15.992,4.084,31.301,10.485,45.44,19c17.074-50.195-9.776-104.727-59.971-121.801
	c-28.969-9.854-60.901-5.307-85.969,12.241c-1.9,1.333-3.747,2.733-5.54,4.2c20.931,5.472,40.558,15.07,57.73,28.23
	C353.346,177.375,369.836,197.217,381.5,219.89z"/>
<rect x="448" y="192" width="64" height="32"/>
<rect x="320" y="32" width="32" height="64"/>
<path d="M255.35,129.63l12.45-12.45l-44.62-44.63l-22.63,22.63l33.17,33.17h0.6C241.35,128.347,248.373,128.774,255.35,129.63z"/>
<rect x="406.275" y="90.172" transform="matrix(0.7071 -0.7071 0.7071 0.7071 53.1627 340.6892)" width="63.11" height="32"/>
</svg>
