<?xml version="1.0" encoding="iso-8859-1"?>
<!-- Generator: Adobe Illustrator 24.3.0, SVG Export Plug-In . SVG Version: 6.00 Build 0)  -->
<svg version="1.1" id="Layer_1" xmlns="http://www.w3.org/2000/svg" xmlns:xlink="http://www.w3.org/1999/xlink" x="0px" y="0px"
	 viewBox="0 0 512 512" style="enable-background:new 0 0 512 512;" xml:space="preserve">
<path d="M340,480H106c-29.495,0-54.921-7.831-73.528-22.646C11.229,440.442,0,415.353,0,384.8c0-26.657,10.076-49.794,29.139-66.908
	c15.234-13.677,36.171-23.21,58.952-26.843c0.022-0.003,0.044-0.007,0.067-0.01c0.03-0.005,0.054-0.028,0.059-0.058
	c6.418-38.983,23.808-72.07,50.285-95.664C164.059,172.543,197.265,160,232,160c30.23,0,58.484,9.395,81.706,27.168
	c19.939,15.261,36.047,36.802,45.364,60.666c29.409,4.811,54.716,17.098,73.185,35.536C453.022,304.103,464,331.708,464,363.2
	c0,32.856-13.129,62.873-36.969,84.521C404.107,468.537,373.199,480,340,480z M93.096,322.656
	c-16.759,2.678-31.88,9.442-42.58,19.048C38.23,352.734,32,367.234,32,384.8c0,57.042,51.75,63.2,74,63.2h234
	c25.228,0,48.496-8.513,65.52-23.971C422.596,408.524,432,386.92,432,363.2c0-16.669-5.638-71.975-78.174-83.798
	c-11.059-1.807-20.456-9.409-24.53-19.842C316.569,226.893,284.33,192,232,192c-27.265,0-52.235,9.409-72.21,27.209
	c-20.951,18.669-34.783,45.292-40.002,76.991C117.515,309.896,106.793,320.517,93.096,322.656z"/>
<path d="M384.812,287.401c-4.791,0-9.529-2.143-12.682-6.229c-5.396-6.997-4.099-17.045,2.898-22.441
	c13.537-10.44,22.198-25.526,24.388-42.48c2.189-16.955-2.354-33.747-12.794-47.283c-21.552-27.944-61.82-33.145-89.764-11.594
	c-9.311,7.181-16.458,16.779-20.67,27.758c-3.164,8.251-12.424,12.372-20.669,9.208c-8.25-3.165-12.373-12.419-9.208-20.669
	c6.317-16.468,17.038-30.865,31.004-41.636c41.917-32.327,102.318-24.525,134.646,17.39
	c32.327,41.917,24.525,102.319-17.391,134.646C391.661,286.314,388.223,287.401,384.812,287.401z"/>
<path d="M496,224h-32c-8.837,0-16-7.164-16-16s7.163-16,16-16h32c8.837,0,16,7.164,16,16S504.837,224,496,224z"/>
<path d="M336,96c-8.837,0-16-7.164-16-16V48c0-8.836,7.163-16,16-16s16,7.164,16,16v32C352,88.836,344.837,96,336,96z"/>
<path d="M245.49,133.49c-4.095,0-8.189-1.562-11.313-4.686l-22.63-22.63c-6.249-6.249-6.249-16.379,0-22.627
	c6.249-6.249,16.379-6.249,22.627,0l22.63,22.63c6.249,6.249,6.249,16.379,0,22.627C253.68,131.928,249.585,133.49,245.49,133.49z"
	/>
<path d="M426.51,133.49c-4.095,0-8.189-1.562-11.313-4.687c-6.249-6.248-6.249-16.379,0-22.627l22.63-22.63
	c6.248-6.249,16.379-6.249,22.627,0c6.249,6.248,6.249,16.379,0,22.627l-22.63,22.63C434.699,131.928,430.604,133.49,426.51,133.49z
	"/>
</svg>
