<?xml version="1.0" encoding="iso-8859-1"?>
<!-- Generator: Adobe Illustrator 24.3.0, SVG Export Plug-In . SVG Version: 6.00 Build 0)  -->
<svg version="1.1" id="Layer_1" xmlns="http://www.w3.org/2000/svg" xmlns:xlink="http://www.w3.org/1999/xlink" x="0px" y="0px"
	 viewBox="0 0 512 512" style="enable-background:new 0 0 512 512;" xml:space="preserve">
<path d="M340,480H106c-29.5,0-54.92-7.83-73.53-22.64C11.23,440.44,0,415.35,0,384.8c0-26.66,10.08-49.8,29.14-66.91
	c15.24-13.68,36.17-23.21,59-26.84l0,0c0.06,0,0.08,0,0.09-0.05c6.44-39,23.83-72.09,50.31-95.68
	c25.761-22.848,59.027-35.42,93.46-35.32c30.23,0,58.48,9.39,81.71,27.17c18.153,14.07,32.629,32.327,42.19,53.21
	c2.099,4.599,6.248,7.936,11.19,9c26,5.61,48.4,17.29,65.17,34C453,304.11,464,331.71,464,363.2c0,32.85-13.13,62.87-37,84.52
	C404.11,468.54,373.2,480,340,480z"/>
<path d="M387.89,221.68c12.1,3.588,23.76,8.523,34.76,14.71c1.926,1.082,4.364,0.398,5.447-1.528
	c0.162-0.288,0.287-0.594,0.373-0.912c2.411-8.686,3.599-17.666,3.53-26.68c-0.39-52.43-43.48-95.22-95.91-95.27
	c-19.712-0.05-38.956,6.004-55.09,17.33h-0.06c-1.523,1.079-1.883,3.189-0.803,4.712c0.439,0.62,1.074,1.073,1.803,1.288
	c18.531,5.671,35.898,14.612,51.28,26.4c18.479,14.283,33.892,32.141,45.32,52.51C380.579,217.834,383.93,220.501,387.89,221.68z"/>
<path d="M496,224h-32c-8.837,0-16-7.163-16-16s7.163-16,16-16h32c8.837,0,16,7.163,16,16S504.837,224,496,224z"/>
<path d="M336,96c-8.837,0-16-7.163-16-16V48c0-8.837,7.163-16,16-16s16,7.163,16,16v32C352,88.837,344.837,96,336,96z"/>
<path d="M245.49,133.49c-4.244,0.007-8.316-1.681-11.31-4.69l-22.63-22.62c-6.249-6.249-6.249-16.381,0-22.63
	c6.249-6.249,16.381-6.249,22.63,0l0,0l22.62,22.63c6.246,6.25,6.243,16.381-0.007,22.627
	C253.794,131.804,249.729,133.488,245.49,133.49L245.49,133.49z"/>
<path d="M426.51,133.49c-8.837-0.004-15.997-7.171-15.993-16.007c0.002-4.239,1.686-8.304,4.683-11.303l22.62-22.63
	c6.249-6.249,16.381-6.249,22.63,0c6.249,6.249,6.249,16.381,0,22.63l-22.63,22.62C434.826,131.809,430.754,133.497,426.51,133.49z"
	/>
</svg>
