<?xml version="1.0" encoding="iso-8859-1"?>
<!-- Generator: Adobe Illustrator 24.3.0, SVG Export Plug-In . SVG Version: 6.00 Build 0)  -->
<svg version="1.1" id="Layer_1" xmlns="http://www.w3.org/2000/svg" xmlns:xlink="http://www.w3.org/1999/xlink" x="0px" y="0px"
	 viewBox="0 0 512 512" style="enable-background:new 0 0 512 512;" xml:space="preserve">
<path d="M192,432h-16c-8.836,0-16-7.163-16-16V96c0-8.836,7.164-16,16-16h16c8.836,0,16,7.164,16,16v320
	C208,424.837,200.836,432,192,432z"/>
<path d="M336,432h-16c-8.837,0-16-7.163-16-16V96c0-8.836,7.163-16,16-16h16c8.837,0,16,7.164,16,16v320
	C352,424.837,344.837,432,336,432z"/>
</svg>
