<?xml version="1.0" encoding="iso-8859-1"?>
<!-- Generator: Adobe Illustrator 24.3.0, SVG Export Plug-In . SVG Version: 6.00 Build 0)  -->
<svg version="1.1" id="Layer_1" xmlns="http://www.w3.org/2000/svg" xmlns:xlink="http://www.w3.org/1999/xlink" x="0px" y="0px"
	 viewBox="0 0 512 512" style="enable-background:new 0 0 512 512;" xml:space="preserve">
<path d="M208,432h-48c-8.837,0-16-7.163-16-16V96c0-8.837,7.163-16,16-16h48c8.837,0,16,7.163,16,16v320
	C224,424.837,216.837,432,208,432z"/>
<path d="M352,432h-48c-8.837,0-16-7.163-16-16V96c0-8.837,7.163-16,16-16h48c8.837,0,16,7.163,16,16v320
	C368,424.837,360.837,432,352,432z"/>
</svg>
