<?xml version="1.0" encoding="iso-8859-1"?>
<!-- Generator: Adobe Illustrator 24.3.0, SVG Export Plug-In . SVG Version: 6.00 Build 0)  -->
<svg version="1.1" id="Layer_1" xmlns="http://www.w3.org/2000/svg" xmlns:xlink="http://www.w3.org/1999/xlink" x="0px" y="0px"
	 viewBox="0 0 512 512" style="enable-background:new 0 0 512 512;" xml:space="preserve">
<path d="M256,464C141.309,464,48,370.692,48,256c0-114.691,93.309-208,208-208s208,93.309,208,208C464,370.692,370.691,464,256,464z
	 M256,80c-97.047,0-176,78.953-176,176C80,353.047,158.953,432,256,432S432,353.047,432,256C432,158.953,353.047,80,256,80z"/>
<path d="M208,336c-8.836,0-16-7.163-16-16V192c0-8.836,7.164-16,16-16s16,7.164,16,16V320C224,328.837,216.836,336,208,336z"/>
<path d="M304,336c-8.837,0-16-7.163-16-16V192c0-8.836,7.163-16,16-16s16,7.164,16,16V320C320,328.837,312.837,336,304,336z"/>
</svg>
