<?xml version="1.0" encoding="iso-8859-1"?>
<!-- Generator: Adobe Illustrator 24.3.0, SVG Export Plug-In . SVG Version: 6.00 Build 0)  -->
<svg version="1.1" id="Layer_1" xmlns="http://www.w3.org/2000/svg" xmlns:xlink="http://www.w3.org/1999/xlink" x="0px" y="0px"
	 viewBox="0 0 512 512" style="enable-background:new 0 0 512 512;" xml:space="preserve">
<path d="M442.8,361.82c-8.8-25.1-29.31-37.82-49.11-50.12c-17.23-10.71-33.5-20.83-44.14-39c-29.33-50.33-45.44-80.7-93.49-80.7
	s-64.21,30.38-93.61,80.69c-10.65,18.21-27,28.35-44.25,39.08c-19.8,12.31-40.27,25-49.1,50.05c-3.437,9.033-5.166,18.626-5.1,28.29
	C64,430.85,96.45,464,132.4,464s83.31-18.13,123.76-18.13S343.31,464,379.71,464S448,430.85,448,390.11
	C448.028,380.44,446.265,370.848,442.8,361.82z"/>
<ellipse cx="72" cy="216" rx="56" ry="72"/>
<ellipse cx="184" cy="120" rx="56" ry="72"/>
<ellipse cx="328" cy="120" rx="56" ry="72"/>
<ellipse cx="440" cy="216" rx="56" ry="72"/>
</svg>
