<?xml version="1.0" encoding="iso-8859-1"?>
<!-- Generator: Adobe Illustrator 24.3.0, SVG Export Plug-In . SVG Version: 6.00 Build 0)  -->
<svg version="1.1" id="Layer_1" xmlns="http://www.w3.org/2000/svg" xmlns:xlink="http://www.w3.org/1999/xlink" x="0px" y="0px"
	 viewBox="0 0 512 512" style="enable-background:new 0 0 512 512;" xml:space="preserve">
<path d="M417.291,312c-5.782,0-11.479-1.081-16.895-3.214c-12.037-4.826-21.28-14.334-26.821-27.532
	c-8.38-19.96-7.193-46.743,3.173-71.644c14.146-34.048,41.955-57.204,69.193-57.609L446.58,152c5.79,0.007,11.56,1.064,17.016,3.21
	l0.123,0.049c11.901,4.794,21.123,14.299,26.667,27.488c8.392,19.964,7.264,46.732-3.02,71.606
	C473.01,288.848,444.902,312,417.41,312C417.371,312,417.33,312,417.291,312z M446.319,184
	c-11.892,0.249-29.923,13.585-40.024,37.899c-7.045,16.922-8.274,34.915-3.214,46.969c2.184,5.201,5.257,8.627,9.134,10.182
	c1.585,0.624,3.318,0.989,5.154,0.951c11.977,0,30.191-13.286,40.439-37.908c6.971-16.863,8.155-34.864,3.077-46.944
	c-2.181-5.189-5.23-8.615-9.062-10.182c-1.652-0.642-3.389-0.966-5.161-0.966c-0.014,0-0.026,0-0.039,0H446.319z"/>
<path d="M368.8,464c-17.759,0-36.6-6.151-56.547-12.663c-19.165-6.258-38.982-12.728-56.153-12.728
	c-17.177,0-37.051,6.472-56.271,12.73C179.836,457.851,160.953,464,143.2,464c-34.387,0-62.366-29.212-62.4-65.133
	c-0.065-8.588,1.493-16.989,4.633-24.979c8.047-22.104,26.736-33.338,44.811-44.202c15.762-9.473,30.65-18.421,40.364-34.486
	C197.429,250.802,213.621,224,256,224c42.377,0,58.533,26.8,85.293,71.204c9.7,16.04,24.543,24.961,40.258,34.406
	c18.066,10.858,36.746,22.085,44.806,44.25c3.179,7.989,4.773,16.397,4.743,24.997C431.1,434.751,403.152,464,368.8,464z
	 M256.1,406.61c22.263,0,44.541,7.273,66.085,14.308C339.643,426.617,356.133,432,368.8,432c16.707,0,30.3-14.894,30.3-33.2
	c0.017-4.604-0.838-9.049-2.539-13.269l-0.226-0.593c-3.949-11.043-14.455-17.797-31.269-27.902
	c-17.51-10.523-37.354-22.45-51.158-45.277l-0.013-0.021C284.7,263.292,277.125,256,256,256c-22.229,0-30.275,9.849-58.005,55.753
	c-13.819,22.855-33.713,34.812-51.266,45.361c-15.157,9.11-27.129,16.306-31.27,27.841l-0.191,0.506
	c-1.677,4.219-2.508,8.66-2.468,13.2l0,0.139c0,18.307,13.638,33.2,30.4,33.2c12.674,0,29.211-5.386,46.72-11.087
	C211.515,413.881,233.844,406.61,256.1,406.61z"/>
<path d="M192.529,212c-0.01,0-0.021,0-0.031,0c-15.518-0.004-30.618-8.224-42.52-23.146c-10.604-13.295-17.978-31.197-20.763-50.408
	c-6.623-45.73,13.553-85.237,45.932-89.973c2.085-0.313,4.212-0.473,6.324-0.473c0.01,0,0.021,0,0.031,0
	c15.516,0,30.618,8.204,42.514,23.102c10.61,13.288,17.987,31.208,20.77,50.459c6.622,45.723-13.548,85.229-45.927,89.966
	C196.771,211.841,194.642,212,192.529,212z M181.482,80c-0.54,0-1.07,0.04-1.588,0.119l-0.105,0.016
	c-12.337,1.791-23.043,25.146-18.904,53.723C164.887,161.457,180.468,180,192.51,180h0.012c0.002,0,0.005,0,0.008,0
	c0.529,0,1.061-0.04,1.582-0.119l0.1-0.015c12.337-1.792,23.043-25.147,18.904-53.723C209.125,98.54,193.542,80,181.49,80
	C181.488,80,181.485,80,181.482,80z"/>
<path d="M319.46,212c-2.099,0-4.224-0.159-6.308-0.472c-32.382-4.733-52.56-44.242-45.938-89.971
	c2.789-19.252,10.159-37.168,20.753-50.449C299.854,56.206,314.952,48,330.48,48c2.136,0.006,4.253,0.158,6.351,0.474
	c32.374,4.741,52.545,44.245,45.924,89.969c-2.771,19.209-10.134,37.11-20.735,50.409C350.119,203.779,335.015,212,319.49,212
	C319.48,212,319.47,212,319.46,212z M330.5,80c-0.003,0-0.005,0-0.008,0c-12.042,0-27.609,18.542-31.607,46.144
	c-4.139,28.575,6.567,51.931,18.904,53.722l0.101,0.015c0.521,0.079,1.052,0.119,1.581,0.119c0.003,0,0.005,0,0.008,0
	c12.059,0,27.628-18.537,31.605-46.132l0.001-0.011c4.139-28.576-6.566-51.932-18.903-53.723l-0.104-0.016
	C331.559,80.04,331.027,80,330.5,80z"/>
<path d="M94.7,312c-0.041,0-0.08,0-0.121,0c-27.427,0-55.511-23.154-69.843-57.617c-10.355-24.88-11.539-51.66-3.164-71.631
	c5.534-13.195,14.763-22.704,26.69-27.499l0.106-0.042c5.454-2.147,11.159-3.208,17.054-3.212c27.425,0,55.509,23.154,69.841,57.616
	c10.355,24.88,11.539,51.66,3.164,71.63c-5.534,13.195-14.763,22.705-26.69,27.499l-0.104,0.041
	C106.218,310.919,100.521,312,94.7,312z M60.146,184.967c-3.842,1.563-6.891,4.982-9.063,10.162
	c-5.061,12.068-3.835,30.063,3.199,46.963C64.521,266.716,82.708,280,94.62,280c0.013,0,0.025,0,0.039,0
	c1.813,0,3.548-0.325,5.197-0.968c3.841-1.563,6.89-4.982,9.062-10.161c5.061-12.068,3.835-30.063-3.199-46.963
	C95.479,197.285,77.292,184,65.38,184C63.561,184.034,61.807,184.32,60.146,184.967z"/>
</svg>
