<?xml version="1.0" encoding="iso-8859-1"?>
<!-- Generator: Adobe Illustrator 24.3.0, SVG Export Plug-In . SVG Version: 6.00 Build 0)  -->
<svg version="1.1" id="Layer_1" xmlns="http://www.w3.org/2000/svg" xmlns:xlink="http://www.w3.org/1999/xlink" x="0px" y="0px"
	 viewBox="0 0 512 512" style="enable-background:new 0 0 512 512;" xml:space="preserve">
<path d="M490.39,182.75c-5.55-13.19-14.77-22.7-26.67-27.49l-0.16-0.06c-5.416-2.122-11.183-3.207-17-3.2h-0.64
	c-27.24,0.41-55.05,23.56-69.19,57.61c-10.37,24.9-11.56,51.68-3.18,71.64c5.54,13.2,14.78,22.71,26.73,27.5l0.13,0.05
	c5.417,2.12,11.183,3.205,17,3.2c27.5,0,55.6-23.15,70-57.65C497.65,229.48,498.78,202.72,490.39,182.75z"/>
<path d="M381.55,329.61c-15.71-9.44-30.56-18.37-40.26-34.41C314.53,250.8,298.37,224,256,224s-58.57,26.8-85.39,71.2
	c-9.72,16.06-24.6,25-40.36,34.48c-18.07,10.86-36.74,22.08-44.8,44.16c-3.133,7.96-4.712,16.446-4.65,25c0,35.95,28,65.2,62.4,65.2
	c17.75,0,36.64-6.15,56.63-12.66c19.22-6.26,39.09-12.73,56.27-12.73s37,6.47,56.15,12.73C332.2,457.85,351,464,368.8,464
	c34.35,0,62.3-29.25,62.3-65.2c0.028-8.56-1.584-17.047-4.75-25C418.29,351.7,399.61,340.47,381.55,329.61z"/>
<path d="M150,188.85c11.9,14.93,27,23.15,42.52,23.15c2.119,0,4.235-0.157,6.33-0.47c32.37-4.76,52.54-44.26,45.92-90
	C242,102.3,234.6,84.39,224,71.11C212.12,56.21,197,48,181.49,48c-2.119,0-4.235,0.157-6.33,0.47c-32.37,4.76-52.54,44.26-45.92,90
	C132,157.67,139.4,175.56,150,188.85z"/>
<path d="M313.16,211.53c2.095,0.313,4.211,0.47,6.33,0.47c15.53,0,30.62-8.22,42.52-23.15c10.59-13.29,17.95-31.18,20.75-50.4l0,0
	c6.62-45.72-13.55-85.22-45.92-90c-2.095-0.313-4.211-0.47-6.33-0.47C315,48,299.88,56.21,288,71.11
	c-10.6,13.28-18,31.19-20.76,50.44C260.62,167.27,280.79,206.77,313.16,211.53z"/>
<path d="M111.59,308.8l0.14-0.05c11.93-4.79,21.16-14.29,26.69-27.48c8.38-20,7.2-46.75-3.15-71.65
	C120.94,175.16,92.85,152,65.38,152c-5.817-0.008-11.584,1.077-17,3.2l-0.14,0.05c-11.9,4.75-21.13,14.29-26.66,27.48
	c-8.38,20-7.2,46.75,3.15,71.65C39.06,288.84,67.15,312,94.62,312C100.427,312.005,106.183,310.919,111.59,308.8z"/>
</svg>
