<?xml version="1.0" encoding="UTF-8"?>
<svg width="513px" height="410px" viewBox="0 0 513 410" version="1.1" xmlns="http://www.w3.org/2000/svg" xmlns:xlink="http://www.w3.org/1999/xlink">
    <title>Group</title>
    <g id="Page-1" stroke="none" stroke-width="1"  fill-rule="evenodd">
        <g id="Group" transform="translate(0.500000, 0.000000)"  fill-rule="nonzero">
            <path d="M477.866667,0 L34.1333333,0 C15.2820949,0 0,15.2820949 0,34.1333333 L0,273.066667 C0,291.9168 15.2823553,307.2 34.1333333,307.2 L477.866667,307.2 C496.71654,307.2 512,291.91654 512,273.066667 L512,34.1333333 C512,15.2823553 496.7168,0 477.866667,0 Z M477.866667,34.1333333 L477.866667,273.066667 L34.1333333,273.066667 L34.1333333,34.1333333 L477.866667,34.1333333 Z" id="Path"></path>
            <path d="M460.8,324.266667 C470.22566,324.266667 477.866667,331.907674 477.866667,341.333333 C477.866667,350.758993 470.22566,358.4 460.8,358.4 L51.2,358.4 C41.7743403,358.4 34.1333333,350.758993 34.1333333,341.333333 C34.1333333,331.907674 41.7743403,324.266667 51.2,324.266667 L460.8,324.266667 Z" id="Path"></path>
            <path d="M426.666667,375.466667 C436.092326,375.466667 443.733333,383.107674 443.733333,392.533333 C443.733333,401.958993 436.092326,409.6 426.666667,409.6 L85.3333333,409.6 C75.9076736,409.6 68.2666667,401.958993 68.2666667,392.533333 C68.2666667,383.107674 75.9076736,375.466667 85.3333333,375.466667 L426.666667,375.466667 Z" id="Path"></path>
            <path d="M256,51.2 C199.446106,51.2 153.6,97.0461056 153.6,153.6 C153.6,210.153894 199.446106,256 256,256 C312.553894,256 358.4,210.153894 358.4,153.6 C358.4,97.0461056 312.553894,51.2 256,51.2 Z M256,85.3333333 C293.702575,85.3333333 324.266667,115.897425 324.266667,153.6 C324.266667,191.302575 293.702575,221.866667 256,221.866667 C218.297425,221.866667 187.733333,191.302575 187.733333,153.6 C187.733333,115.897425 218.297425,85.3333333 256,85.3333333 Z" id="Path"></path>
            <path d="M409.6,0 C419.02566,0 426.666667,7.64100694 426.666667,17.0666667 C426.666667,35.1717063 433.859061,52.5361794 446.65961,65.3378215 C459.464221,78.140794 476.828986,85.3333333 494.933333,85.3333333 C504.358993,85.3333333 512,92.9743403 512,102.4 C512,111.82566 504.358993,119.466667 494.933333,119.466667 C467.776736,119.466667 441.73077,108.678347 422.523956,89.4739902 C403.321605,70.2700004 392.533333,44.2240619 392.533333,17.0666667 C392.533333,7.64100694 400.17434,0 409.6,0 Z" id="Path"></path>
            <path d="M102.4,0 C111.82566,0 119.466667,7.64100694 119.466667,17.0666667 C119.466667,30.5140986 116.818074,43.8297794 111.671881,56.2537153 C106.525754,68.6770827 98.9831154,79.9654852 89.4742451,89.474765 C79.9654852,98.9831154 68.6770827,106.525754 56.2535315,111.671957 C43.8297794,116.818074 30.5140986,119.466667 17.0666667,119.466667 C7.64100694,119.466667 0,111.82566 0,102.4 C0,92.9743403 7.64100694,85.3333333 17.0666667,85.3333333 C26.0316846,85.3333333 34.9087761,83.5676107 43.1910207,80.1369724 C51.4735181,76.7061163 58.9994319,71.6774822 65.3383337,65.3388535 C71.6774822,58.9994319 76.7061163,51.4735181 80.1368963,43.1912045 C83.5676107,34.9087761 85.3333333,26.0316846 85.3333333,17.0666667 C85.3333333,7.64100694 92.9743403,0 102.4,0 Z" id="Path"></path>
            <path d="M494.933333,187.733333 C504.358993,187.733333 512,195.37434 512,204.8 C512,214.22566 504.358993,221.866667 494.933333,221.866667 C476.828986,221.866667 459.464221,229.059206 446.660897,241.860892 C433.859061,254.663821 426.666667,272.028294 426.666667,290.133333 C426.666667,299.558993 419.02566,307.2 409.6,307.2 C400.17434,307.2 392.533333,299.558993 392.533333,290.133333 C392.533333,262.975938 403.321605,236.93 422.525243,217.724723 C441.73077,198.521653 467.776736,187.733333 494.933333,187.733333 Z" id="Path"></path>
            <path d="M17.0666667,187.733333 C30.5140986,187.733333 43.8297794,190.381926 56.2537153,195.528119 C68.6770827,200.674246 79.9654852,208.216885 89.474765,217.725755 C98.9831154,227.234515 106.525754,238.522917 111.671957,250.946468 C116.818074,263.370221 119.466667,276.685901 119.466667,290.133333 C119.466667,299.558993 111.82566,307.2 102.4,307.2 C92.9743403,307.2 85.3333333,299.558993 85.3333333,290.133333 C85.3333333,281.168315 83.5676107,272.291224 80.1369724,264.008979 C76.7061163,255.726482 71.6774822,248.200568 65.3388535,241.861666 C58.9994319,235.522518 51.4735181,230.493884 43.1912045,227.063104 C34.9087761,223.632389 26.0316846,221.866667 17.0666667,221.866667 C7.64100694,221.866667 0,214.22566 0,204.8 C0,195.37434 7.64100694,187.733333 17.0666667,187.733333 Z" id="Path"></path>
        </g>
    </g>
</svg>