<?xml version="1.0" encoding="iso-8859-1"?>
<!-- Generator: Adobe Illustrator 24.3.0, SVG Export Plug-In . SVG Version: 6.00 Build 0)  -->
<svg version="1.1" id="Layer_1" xmlns="http://www.w3.org/2000/svg" xmlns:xlink="http://www.w3.org/1999/xlink" x="0px" y="0px"
	 viewBox="0 0 512 512" style="enable-background:new 0 0 512 512;" xml:space="preserve">
<path d="M70.005,464.001c-5.726,0-11.353-2.236-15.561-6.444c-6.287-6.287-8.171-15.739-4.777-23.956l16.49-39.92
	c1.103-2.668,2.719-5.094,4.758-7.138l272.13-272.8c4.124-4.134,9.723-6.459,15.562-6.463c0.005,0,0.01,0,0.014,0
	c5.835,0,11.431,2.318,15.557,6.444l24.1,24.1c4.129,4.129,6.447,9.73,6.443,15.57s-2.329,11.438-6.463,15.562l-272.8,272.129
	c-2.044,2.039-4.469,3.656-7.138,4.758l-39.92,16.49C75.684,463.456,72.832,464.001,70.005,464.001z"/>
<path d="M425.38,132.72L425.38,132.72c-5.835,0-11.431-2.318-15.557-6.444l-24.1-24.1c-4.127-4.127-6.444-9.725-6.443-15.561
	s2.321-11.433,6.45-15.558l11.79-11.78c7.273-7.269,16.942-11.273,27.226-11.273c0,0-0.001,0,0,0
	c10.287,0,19.958,4.007,27.231,11.281l0.749,0.749c15.003,15.015,15.003,39.436,0.006,54.446l-11.796,11.796
	C436.811,130.402,431.214,132.72,425.38,132.72z"/>
</svg>
