<?xml version="1.0" encoding="iso-8859-1"?>
<!-- Generator: Adobe Illustrator 24.3.0, SVG Export Plug-In . SVG Version: 6.00 Build 0)  -->
<svg version="1.1" id="Layer_1" xmlns="http://www.w3.org/2000/svg" xmlns:xlink="http://www.w3.org/1999/xlink" x="0px" y="0px"
	 viewBox="0 0 512 512" style="enable-background:new 0 0 512 512;" xml:space="preserve">
<path d="M64.005,464c-4.15,0-8.244-1.612-11.318-4.686c-4.907-4.907-6.092-12.417-2.934-18.597l23-45
	c0.758-1.483,1.744-2.839,2.921-4.019l277.13-277.751c2.999-3.006,7.07-4.696,11.317-4.699c0.003,0,0.006,0,0.009,0
	c4.243,0,8.312,1.686,11.313,4.686l22.62,22.621c3.003,3.002,4.688,7.076,4.687,11.323s-1.693,8.318-4.699,11.317l-277.76,277.13
	c-1.179,1.177-2.535,2.162-4.018,2.92l-44.99,23C68.975,463.427,66.479,464,64.005,464z"/>
<path d="M420.69,129.94c-4.244,0-8.315-1.687-11.316-4.689l-22.62-22.63c-6.246-6.249-6.245-16.377,0.003-22.625l22.62-22.62
	c0.001-0.001,0.002-0.002,0.003-0.004c12.473-12.465,32.768-12.465,45.24,0c12.473,12.48,12.473,32.775,0.006,45.248l-22.619,22.63
	C429.006,128.253,424.936,129.94,420.69,129.94z"/>
</svg>
