<?xml version="1.0" encoding="iso-8859-1"?>
<!-- Generator: Adobe Illustrator 24.3.0, SVG Export Plug-In . SVG Version: 6.00 Build 0)  -->
<svg version="1.1" id="Layer_1" xmlns="http://www.w3.org/2000/svg" xmlns:xlink="http://www.w3.org/1999/xlink" x="0px" y="0px"
	 viewBox="0 0 512 512" style="enable-background:new 0 0 512 512;" xml:space="preserve">
<path d="M336,256c-20.56,0-40.44-9.18-56-25.84c-15.13-16.25-24.37-37.92-26-61c-1.74-24.62,5.77-47.26,21.14-63.76S312,80,336,80
	c23.83,0,45.38,9.06,60.7,25.52c15.47,16.62,23,39.22,21.26,63.63l0,0c-1.67,23.11-10.9,44.77-26,61
	C376.44,246.82,356.57,256,336,256z M402,168L402,168z"/>
<path d="M467.83,432H204.18c-8.591,0.046-16.717-3.895-22-10.67c-5.602-7.341-7.539-16.841-5.26-25.79
	c8.42-33.81,29.28-61.85,60.32-81.08C264.79,297.4,299.86,288,336,288c36.85,0,71,9,98.71,26.05c31.11,19.13,52,47.33,60.38,81.55
	c2.251,8.955,0.293,18.448-5.32,25.78C484.493,428.123,476.392,432.044,467.83,432z"/>
<path d="M147,260c-35.19,0-66.13-32.72-69-72.93c-1.42-20.6,5-39.65,18-53.62c12.86-13.83,31-21.45,51-21.45s38,7.66,50.93,21.57
	c13.1,14.08,19.5,33.09,18,53.52C213.06,227.29,182.13,260,147,260z"/>
<path d="M212.66,291.45c-17.59-8.6-40.42-12.9-65.65-12.9c-29.46,0-58.07,7.68-80.57,21.62c-25.51,15.83-42.67,38.88-49.6,66.71
	c-2.055,8.11-0.29,16.713,4.79,23.36c4.822,6.191,12.243,9.796,20.09,9.76h111c3.866-0.001,7.179-2.766,7.87-6.57
	c0.11-0.63,0.25-1.26,0.41-1.88c8.48-34.06,28.35-62.84,57.71-83.82c3.584-2.584,4.395-7.584,1.812-11.168
	c-0.651-0.902-1.482-1.659-2.442-2.222C216.51,293.42,214.71,292.45,212.66,291.45z"/>
</svg>
