<?xml version="1.0" encoding="iso-8859-1"?>
<!-- Generator: Adobe Illustrator 24.3.0, SVG Export Plug-In . SVG Version: 6.00 Build 0)  -->
<svg version="1.1" id="Layer_1" xmlns="http://www.w3.org/2000/svg" xmlns:xlink="http://www.w3.org/1999/xlink" x="0px" y="0px"
	 viewBox="0 0 512 512" style="enable-background:new 0 0 512 512;" xml:space="preserve">
<path d="M256,48C141.31,48,48,141.31,48,256s93.31,208,208,208s208-93.31,208-208S370.69,48,256,48z M325.3,144.17
	c40.041,0.055,72.455,32.559,72.4,72.6s-32.559,72.455-72.6,72.4c-40.002-0.055-72.4-32.498-72.4-72.5
	C252.728,176.602,285.232,144.142,325.3,144.17L325.3,144.17z M170.2,170.53c32.762,0.044,59.284,26.638,59.24,59.4
	s-26.638,59.284-59.4,59.24c-32.73-0.044-59.24-26.59-59.24-59.32c0.017-32.778,26.602-59.337,59.38-59.32
	C170.187,170.53,170.193,170.53,170.2,170.53z M94.35,325.53c24.5-13.29,55.87-19.94,75.85-19.94c15,0,34.32,3,53.33,10.2
	c-12.743,7.111-24.23,16.27-34,27.11c-13.19,15-20.76,32.92-20.76,50.83v15c-33.121-18.971-59.224-48.137-74.42-83.15V325.53z
	 M256,432c-20.248,0.017-40.346-3.478-59.4-10.33v-27.05c0-52.59,85.75-79.09,128.7-79.09c23,0,58.38,7.63,86.21,22.81
	C380.992,395.925,321.172,431.954,256,432z"/>
</svg>
