<?xml version="1.0" encoding="iso-8859-1"?>
<!-- Generator: Adobe Illustrator 24.3.0, SVG Export Plug-In . SVG Version: 6.00 Build 0)  -->
<svg version="1.1" id="Layer_1" xmlns="http://www.w3.org/2000/svg" xmlns:xlink="http://www.w3.org/1999/xlink" x="0px" y="0px"
	 viewBox="0 0 512 512" style="enable-background:new 0 0 512 512;" xml:space="preserve">
<path d="M258.9,48C141.92,46.42,46.42,141.92,48,258.9c1.56,112.19,92.91,203.54,205.1,205.1c117,1.6,212.48-93.9,210.88-210.88
	C462.44,140.91,371.09,49.56,258.9,48z M255.22,200.11c0.21-1.2,0.44-2.4,0.71-3.59c2.526-11.679,8.153-22.46,16.29-31.21
	c12.89-13.73,31.16-21.31,51.45-21.31c8.536-0.035,17.015,1.406,25.06,4.26c10.001,3.561,19.007,9.458,26.27,17.2
	c10.684,11.548,17.044,26.437,18,42.14c0.276,3.795,0.276,7.605,0,11.4l0,0c-0.77,10.755-3.552,21.271-8.2,31
	c-0.507,1.06-1.037,2.11-1.59,3.15c-1.11,2.07-2.3,4.1-3.58,6.06c-2.548,3.913-5.436,7.594-8.63,11
	c-13.12,14-29.92,21.73-47.31,21.73c-6.521-0.004-12.997-1.079-19.17-3.18c-2.074-0.704-4.11-1.515-6.1-2.43
	c-8.334-3.888-15.831-9.363-22.07-16.12c-12.987-14.087-20.752-32.201-22-51.32c-0.18-2.587-0.24-5.147-0.18-7.68
	c0.077-3.714,0.428-7.417,1.05-11.08V200.11z M105.49,224.45c0.487-7.135,2.248-14.126,5.2-20.64c0.833-1.814,1.761-3.583,2.78-5.3
	c2.039-3.441,4.45-6.647,7.19-9.56c4.059-4.331,8.786-7.983,14-10.82c2.604-1.423,5.316-2.64,8.11-3.64
	c10.707-3.745,22.218-4.57,33.35-2.39c11.795,2.281,22.568,8.231,30.78,17c9.745,10.519,15.236,24.282,15.41,38.62
	c0.05,2.11,0,4.23-0.15,6.38c-0.61,8.233-2.64,16.299-6,23.84c-1.609,3.631-3.526,7.117-5.73,10.42
	c-4.239,6.406-9.574,12.015-15.76,16.57c-1.5,1.07-3.06,2.07-4.67,3.07c-3.167,1.886-6.517,3.444-10,4.65
	c-5.208,1.82-10.684,2.753-16.2,2.76c-0.93,0-1.86,0-2.78-0.08c-1.837-0.101-3.667-0.308-5.48-0.62
	c-1.804-0.314-3.59-0.725-5.35-1.23c-2.644-0.764-5.225-1.73-7.72-2.89c-0.84-0.39-1.66-0.8-2.48-1.23
	c-18-9.49-31.57-29.16-34.23-52.12c-0.12-1.05-0.22-2.1-0.29-3.16C105.244,230.874,105.251,227.655,105.49,224.45z M159.41,403.05
	c-26.625-17.55-48.024-41.957-61.94-70.65c-0.944-1.905-0.232-4.216,1.62-5.26C117.67,316.69,141.4,311,163.82,311
	c17,0,30.7,2,42.69,5.88c4.197,1.381,6.479,5.903,5.098,10.1c-0.473,1.436-1.342,2.708-2.508,3.67c-23.35,19-38.4,42.54-45.47,70.75
	l0,0c-0.364,1.486-1.864,2.395-3.35,2.031C159.97,403.355,159.676,403.226,159.41,403.05z M256,432
	c-22.514,0.023-44.821-4.296-65.7-12.72c-1.759-0.726-2.763-2.592-2.4-4.46c0.4-2.05,0.84-3.92,1.23-5.48
	c7.12-28.43,24.76-52,51-68.18c23.29-14.35,53-22.25,83.52-22.25c31.16,0,60,7.58,83.48,21.91l0,0
	c1.243,0.778,1.646,2.401,0.91,3.67C376.53,398.624,318.637,431.945,256,432z"/>
<path d="M161,295.28c-1.837-0.101-3.667-0.308-5.48-0.62C157.333,294.972,159.163,295.179,161,295.28z"/>
<path d="M134.64,178.13c-5.214,2.837-9.941,6.489-14,10.82c-2.74,2.913-5.151,6.119-7.19,9.56c2.039-3.441,4.45-6.647,7.19-9.56
	C124.699,184.619,129.426,180.967,134.64,178.13z"/>
<path d="M216.17,257.89c3.36-7.541,5.39-15.607,6-23.84c0.15-2.15,0.2-4.27,0.15-6.38c0.053,2.1,0.003,4.227-0.15,6.38
	C221.56,242.283,219.53,250.349,216.17,257.89z"/>
<path d="M134.64,178.13c2.604-1.423,5.316-2.64,8.11-3.64C139.956,175.49,137.244,176.707,134.64,178.13z"/>
<path d="M150.21,293.43c-2.644-0.764-5.225-1.73-7.72-2.89C144.985,291.7,147.566,292.667,150.21,293.43z"/>
<path d="M105.78,237.19c2.66,23,16.26,42.63,34.23,52.12C122,279.82,108.44,260.15,105.78,237.19z"/>
<path d="M254.34,219c1.248,19.119,9.013,37.233,22,51.32c6.239,6.757,13.736,12.232,22.07,16.12
	c-8.334-3.888-15.831-9.363-22.07-16.12C263.353,256.233,255.588,238.119,254.34,219c-0.18-2.587-0.24-5.147-0.18-7.68
	C254.1,213.82,254.16,216.38,254.34,219z"/>
<path d="M304.5,288.82c-2.074-0.704-4.11-1.515-6.1-2.43C300.39,287.305,302.426,288.116,304.5,288.82z"/>
<path d="M255.93,196.54c2.526-11.679,8.153-22.46,16.29-31.21C264.083,174.08,258.456,184.861,255.93,196.54z"/>
<path d="M375,165.46c10.684,11.548,17.044,26.437,18,42.14C392.044,191.897,385.684,177.008,375,165.46
	c-7.263-7.742-16.269-13.639-26.27-17.2C358.731,151.821,367.737,157.718,375,165.46z"/>
<path d="M393,219L393,219c-0.77,10.755-3.552,21.271-8.2,31C389.448,240.271,392.23,229.755,393,219z"/>
<path d="M254.16,211.27c0.078-3.734,0.432-7.458,1.06-11.14C254.592,203.812,254.238,207.536,254.16,211.27z"/>
<path d="M383.19,253.16c-1.11,2.07-2.3,4.1-3.58,6.06C380.89,257.26,382.08,255.23,383.19,253.16z"/>
<path d="M206.88,189.05c9.745,10.519,15.236,24.282,15.41,38.62C222.116,213.332,216.625,199.569,206.88,189.05
	c-8.212-8.769-18.985-14.719-30.78-17C187.895,174.331,198.668,180.281,206.88,189.05z"/>
<path d="M190,288c-3.167,1.886-6.517,3.444-10,4.65C183.483,291.444,186.833,289.886,190,288z"/>
<path d="M105.49,224.45c0.487-7.135,2.248-14.126,5.2-20.64C107.738,210.324,105.977,217.315,105.49,224.45z"/>
<path d="M194.68,284.88C193.17,286,191.61,287,190,288C191.61,287,193.17,286,194.68,284.88z"/>
<path d="M216.17,257.89c-1.609,3.631-3.526,7.117-5.73,10.42C212.644,265.007,214.561,261.521,216.17,257.89z"/>
<path d="M110.69,203.81c0.833-1.814,1.761-3.583,2.78-5.3C112.451,200.227,111.523,201.996,110.69,203.81z"/>
<path d="M194.68,284.88c6.186-4.555,11.521-10.164,15.76-16.57C206.201,274.716,200.866,280.325,194.68,284.88z"/>
</svg>
