<?xml version="1.0" encoding="iso-8859-1"?>
<!-- Generator: Adobe Illustrator 24.3.0, SVG Export Plug-In . SVG Version: 6.00 Build 0)  -->
<svg version="1.1" id="Layer_1" xmlns="http://www.w3.org/2000/svg" xmlns:xlink="http://www.w3.org/1999/xlink" x="0px" y="0px"
	 viewBox="0 0 512 512" style="enable-background:new 0 0 512 512;" xml:space="preserve">
<path d="M336,256c-20.572,0-40.448-9.177-55.967-25.841c-15.126-16.242-24.357-37.916-25.993-61.029
	c-1.745-24.613,5.758-47.256,21.129-63.754C290.413,89.012,312.017,80,336,80c23.83,0,45.391,9.068,60.71,25.534
	c15.465,16.622,23.011,39.215,21.248,63.618c-1.665,23.105-10.901,44.769-26.007,61C376.438,246.82,356.567,256,336,256z M336,112
	c-15.005,0-28.293,5.394-37.417,15.188c-9.385,10.073-13.749,23.794-12.623,39.68c1.122,15.844,7.333,30.575,17.491,41.483
	C312.85,218.442,324.408,224,336,224c11.583,0,23.135-5.558,32.526-15.649c10.153-10.908,16.373-25.646,17.515-41.5
	c0-0.001,0-0.002,0.001-0.003c1.114-15.44-3.417-29.474-12.761-39.517C364.083,117.445,350.843,112,336,112z"/>
<path d="M467.83,432H204.18c-8.677,0-16.692-3.89-21.99-10.67c-5.547-7.102-7.512-16.743-5.255-25.792
	c8.418-33.804,29.276-61.84,60.316-81.074C264.792,297.399,299.861,288,336,288c36.847,0,70.98,9.01,98.709,26.056
	c31.113,19.126,51.992,47.323,60.381,81.544c2.225,9.052,0.237,18.691-5.317,25.777C484.479,428.128,476.481,432,467.83,432z
	 M208.861,400h254.304c-6.845-24.435-22.42-44.672-45.214-58.684C395.589,327.571,366.485,320,336,320
	c-30.264,0-59.347,7.694-81.894,21.665C231.323,355.784,215.737,375.901,208.861,400z"/>
<path d="M147,260c-35.178,0-66.114-32.717-68.96-72.931c-1.458-20.604,4.911-39.647,17.932-53.622
	C108.859,119.617,126.981,112,147,112c19.896,0,37.983,7.663,50.93,21.576c13.098,14.076,19.501,33.081,18.028,53.514v0
	C213.062,227.292,182.128,260,147,260z M147,144c-11.041,0-20.849,4-27.616,11.263c-7.001,7.514-10.26,17.731-9.424,29.548
	C111.617,208.222,128.58,228,147,228c18.391,0,35.354-19.788,37.042-43.21l0,0c0.827-11.471-2.561-21.917-9.538-29.415
	C167.678,148.039,157.91,144,147,144z"/>
<path d="M154,400H41.72c-7.92,0-15.242-3.553-20.089-9.747c-5.04-6.441-6.838-15.17-4.811-23.351
	c6.941-27.852,24.104-50.921,49.636-66.736C88.96,286.227,117.565,278.55,147,278.55c25.235,0,46.714,4.221,65.665,12.904
	c8.033,3.681,11.562,13.178,7.881,21.211c-3.682,8.033-13.176,11.56-21.211,7.881c-14.679-6.727-31.798-9.996-52.335-9.996
	c-23.562,0-46.182,5.974-63.693,16.82C67.109,337.404,55.651,351.354,49.848,368H154c8.836,0,16,7.163,16,16S162.836,400,154,400z"
	/>
</svg>
