<?xml version="1.0" encoding="iso-8859-1"?>
<!-- Generator: Adobe Illustrator 24.3.0, SVG Export Plug-In . SVG Version: 6.00 Build 0)  -->
<svg version="1.1" id="Layer_1" xmlns="http://www.w3.org/2000/svg" xmlns:xlink="http://www.w3.org/1999/xlink" x="0px" y="0px"
	 viewBox="0 0 512 512" style="enable-background:new 0 0 512 512;" xml:space="preserve">
<path d="M256,464c-114.69,0-208-93.31-208-208S141.31,48,256,48s208,93.31,208,208S370.69,464,256,464z M256,80
	c-97,0-176,79-176,176s79,176,176,176s176-78.95,176-176S353.05,80,256,80z"/>
<path d="M323.67,292c-17.4,0-34.21-7.72-47.34-21.73c-12.987-14.087-20.752-32.201-22-51.32c-1.47-20.7,4.88-39.75,17.88-53.62
	S303.38,144,323.67,144c20.14,0,38.37,7.62,51.33,21.46s19.47,33,18,53.51l0,0c-1.271,19.108-9.033,37.208-22,51.3
	C357.86,284.28,341.06,292,323.67,292z M379.48,218L379.48,218z"/>
<path d="M163.82,295.36c-29.76,0-55.93-27.51-58.33-61.33c-1.23-17.32,4.15-33.33,15.17-45.08s26.22-18,43.15-18
	s32.12,6.44,43.07,18.14s16.5,27.82,15.25,45C219.69,267.86,193.53,295.36,163.82,295.36z"/>
<path d="M420.37,355.28c-1.59-4.7-5.46-9.71-13.22-14.46c-23.46-14.33-52.32-21.91-83.48-21.91c-30.57,0-60.23,7.9-83.53,22.25
	c-26.25,16.17-43.89,39.75-51,68.18c-1.68,6.69-4.13,19.14-1.51,26.11c86.764,32.994,184.71-0.743,232.75-80.17L420.37,355.28z"/>
<path d="M163.63,401.37c7.07-28.21,22.12-51.73,45.47-70.75c3.408-2.812,3.892-7.854,1.08-11.262
	c-0.962-1.166-2.234-2.035-3.67-2.508c-12-3.83-25.7-5.88-42.69-5.88c-23.82,0-49.11,6.45-68.14,18.17
	c-5.4,3.33-10.7,4.61-14.78,5.75c16.381,36.204,43.546,66.464,77.78,86.64l1.79-0.14C160.861,414.629,161.92,407.923,163.63,401.37z
	"/>
</svg>
