<?xml version="1.0" encoding="UTF-8"?>
<svg width="476px" height="448px" viewBox="0 0 476 448" version="1.1" xmlns="http://www.w3.org/2000/svg" xmlns:xlink="http://www.w3.org/1999/xlink">
    <title>Combined Shape</title>
    <g id="Page-1" stroke-width="1" fill-rule="evenodd">
        <path d="M208,256 C234.709765,256 261.034649,260.210306 285.479422,268.19806 C283.205702,277.425107 282,287.07175 282,297 C282,298.288273 282.020301,299.571805 282.0606,300.850293 C259.048186,292.453132 233.771895,288 208,288 C166.42,288 126.132,299.591 94.557,320.639 C60.564,343.297 38.969,375.387 32.106,413.44 C31.885,414.664 32.041,415.535 32.197,416 L383.812,416 C383.84574,415.899644 383.879481,415.780203 383.909417,415.642232 C389.809219,416.537447 395.850592,417 402,417 C406.731804,417 411.399641,416.726128 415.988525,416.19337 C415.673469,423.895313 412.992139,431.148551 408.211,436.869 C402.213,444.047 393.614,448 384,448 L32,448 C22.391,448 13.796,444.048 7.799,436.872 C1.299,429.094 -1.32,418.483 0.614,407.76 C9.058,360.944 35.406,321.61 76.808,294.012 C113.582,269.499 160.173,256 208,256 Z M404.907923,224 C409.928807,224.088139 414.142139,227.590489 415.153543,232.51723 C415.180251,232.647472 415.203033,232.778107 415.221493,232.909528 L417.860963,251.725659 C417.870782,251.730774 417.893956,251.735496 417.903775,251.740217 C421.133198,253.301539 424.261283,255.137115 427.201621,257.195793 L444.821258,250.078559 C444.857787,250.063607 444.894708,250.049441 444.931629,250.035276 C449.727058,248.205209 455.110083,250.085641 457.731878,254.504796 C457.744839,254.52683 457.757408,254.548472 457.77037,254.570507 L474.569494,283.687898 C477.160259,288.150335 476.155925,293.796748 472.172761,297.098817 C472.131519,297.133443 472.089099,297.167283 472.047072,297.200335 L457.039017,309.004683 L457.04648,309.092822 C457.205162,311.086576 457.282539,312.855261 457.282539,314.499607 L457.282539,314.535807 C457.272327,316.31787 457.189844,318.110163 457.036267,319.895374 L472.033325,331.678867 C472.077709,331.713887 472.1217,331.7493 472.165298,331.7855 C476.140999,335.086389 477.14494,340.729261 474.552211,345.203896 L457.758979,374.31145 C457.747196,374.331911 457.73502,374.352372 457.722844,374.372833 C455.104192,378.795528 449.721952,380.679502 444.923381,378.851402 C444.885281,378.836843 444.847574,378.822285 444.809475,378.806939 L427.173734,371.692852 C427.182768,371.696787 427.167842,371.698361 427.156452,371.70623 C424.183121,373.757433 421.059748,375.579237 417.84368,377.140952 L415.217958,395.972428 C415.208139,396.042074 415.197141,396.11172 415.184965,396.180578 C414.311819,401.182474 410.000293,404.891007 404.932275,405 L371.091291,405 C366.070408,404.911861 361.857469,401.410298 360.845672,396.482376 C360.818963,396.352528 360.796575,396.2215 360.778114,396.090078 L358.138645,377.273948 L358.095046,377.259389 C354.866409,375.698067 351.738324,373.862491 348.797986,371.803813 L331.177956,378.921441 C331.141428,378.936 331.104507,378.950559 331.067978,378.96433 C326.272549,380.793217 320.888738,378.913965 318.26773,374.494811 C318.254768,374.472776 318.242199,374.451528 318.22963,374.429493 L301.430506,345.312102 C298.839741,340.849272 299.844075,335.203252 303.827239,331.901183 C303.868481,331.866557 303.910508,331.832717 303.952928,331.799272 L318.960983,319.994924 C318.959412,319.978004 318.938987,319.96502 318.937416,319.9481 C318.768522,317.986611 318.686431,316.200613 318.686431,314.488196 C318.686431,312.719511 318.769307,310.944137 318.940166,309.060163 L303.932504,297.290048 C303.873194,297.243224 303.81467,297.195613 303.756932,297.146428 C299.853502,293.84003 298.882554,288.225489 301.448574,283.796498 L318.242199,254.68855 C318.253982,254.668089 318.266158,254.647628 318.277942,254.627167 C320.896987,250.204472 326.280405,248.321285 331.077405,250.148204 C331.115504,250.162763 331.153604,250.177715 331.191703,250.193061 L348.827445,257.307148 C348.818411,257.303213 348.833336,257.301639 348.84512,257.293376 C351.818451,255.242174 354.941823,253.42037 358.157498,251.859048 L360.782827,233.027572 C360.792647,232.957926 360.803645,232.888674 360.815428,232.819815 C361.688181,227.81792 366.0001,224.108993 371.067725,224 L404.907923,224 Z M401.130669,246.5 L374.884801,246.5 L372.799407,261.366242 C372.296828,264.987758 370.031794,268.110949 366.742062,269.713071 C364.427662,270.836788 362.184911,272.144929 360.07072,273.603495 C357.052846,275.711152 353.177572,276.158646 349.73014,274.784222 L335.816999,269.171818 L322.718405,291.874202 L334.492329,301.139717 C337.407699,303.430081 338.963431,307.009354 338.650433,310.712263 C338.529074,312.056121 338.471137,313.280808 338.471137,314.49004 C338.471137,315.661495 338.529074,316.906444 338.648377,318.294606 C338.9888,322.006788 337.453637,325.604263 334.537925,327.922444 L322.707435,337.227798 L335.805343,359.929838 L349.697229,354.327737 C353.139861,352.940606 357.012736,353.379172 360.058378,355.501939 C362.155086,356.969778 364.375552,358.272768 366.666983,359.38103 C369.969743,360.955333 372.271802,364.086424 372.79735,367.743657 L374.866974,382.5 L401.112842,382.5 L403.197893,367.633758 C403.701158,364.011899 405.966192,360.888707 409.255924,359.286929 C411.570325,358.163212 413.813075,356.855071 415.927266,355.396848 C418.946168,353.288848 422.8211,352.841697 426.268189,354.216465 L440.180987,359.828525 L453.279581,337.125111 L439.074697,325.963838 C437.533363,324.752889 436.75344,322.810424 437.02907,320.86796 C437.327669,318.758586 437.485711,316.611434 437.498738,314.485232 C437.498395,313.355333 437.442858,312.111071 437.330069,310.682384 C437.001644,306.967798 438.549148,303.374788 441.475145,301.065535 L453.290208,291.772545 L440.192643,269.070848 L426.300757,274.672949 C422.858468,276.060768 418.985593,275.621515 415.939265,273.498747 C413.8429,272.030909 411.622777,270.727919 409.331345,269.62 C406.028243,268.045354 403.726527,264.914263 403.200636,261.257717 L401.130669,246.5 Z M391.726557,276.686614 C391.730824,276.686614 391.735091,276.687089 391.738884,276.687564 C409.643954,278.489099 423.944778,292.815412 425.743582,310.752395 C425.989176,313.243102 425.989176,315.756132 425.745005,318.234014 C424.748883,328.33458 419.886801,337.441523 412.052948,343.878224 C405.207157,349.504162 396.807681,352.500704 388.068736,352.500704 C386.80853,352.500704 385.541686,352.438484 384.27105,352.312619 C363.458214,350.253654 348.197775,331.615626 350.253076,310.765219 C352.308853,289.915287 370.915617,274.627174 391.726557,276.686614 Z M387.984289,295.611863 C378.414641,295.611863 370.196543,302.907343 369.236593,312.64357 C368.214977,323.007393 375.800309,332.271839 386.145694,333.294883 C391.15833,333.793026 396.06138,332.302137 399.95499,329.102765 C403.8486,325.903393 406.265757,321.376426 406.760658,316.355643 C406.882419,315.124057 406.882419,313.875157 406.760658,312.643176 C405.867088,303.7305 398.754267,296.603035 389.848021,295.703937 C389.223111,295.642554 388.599772,295.611863 387.984289,295.611863 Z M208,0 C238.039,0 265.329,11.572 284.842,32.583 C304.40341,53.64723 314.037387,81.9122547 312.02068,112.261687 L311.956,113.182 C307.426,174.288 260.791,224 208,224 C155.127,224 108.492,174.278 104.042,113.162 C101.789,82.186 111.361,53.499 130.996,32.385 C150.416,11.501 177.763,0 208,0 Z M208,32 C186.753,32 167.728,39.875 154.43,54.176 C140.918,68.707 134.358,88.83 135.958,110.839 C139.161,154.832 172.152,192 208,192 C243.43111,192 276.12088,155.562822 279.937218,112.135101 L280.044,110.818 C281.653,89.094 275.029,69.043 261.394,54.36 C248.003,39.94 229.041,32 208,32 Z" id="Combined-Shape" fill-rule="nonzero"></path>
    </g>
</svg>