<?xml version="1.0" encoding="iso-8859-1"?>
<!-- Generator: Adobe Illustrator 24.3.0, SVG Export Plug-In . SVG Version: 6.00 Build 0)  -->
<svg version="1.1" id="Layer_1" xmlns="http://www.w3.org/2000/svg" xmlns:xlink="http://www.w3.org/1999/xlink" x="0px" y="0px"
	 viewBox="0 0 512 512" style="enable-background:new 0 0 512 512;" xml:space="preserve">
<path d="M288,256c-52.873,0-99.508-49.722-103.958-110.838c-2.253-30.976,7.319-59.663,26.954-80.777
	C230.416,43.501,257.763,32,288,32c30.039,0,57.329,11.572,76.842,32.583c19.759,21.277,29.389,49.901,27.114,80.599
	c0,0,0,0,0,0.001C387.426,206.288,340.791,256,288,256z M288,64c-21.247,0-40.272,7.875-53.57,22.176
	c-13.512,14.531-20.072,34.654-18.472,56.663C219.161,186.832,252.152,224,288,224c35.789,0,68.781-37.177,72.044-81.183v0.001
	c1.609-21.724-5.015-41.775-18.65-56.458C328.003,71.94,309.041,64,288,64z M376,144h0.01H376z"/>
<path d="M464,480H112.01c-9.637,0-18.251-3.968-24.256-11.172c-6.494-7.791-9.094-18.402-7.132-29.111
	c8.436-46.773,34.784-86.107,76.187-113.705C193.582,301.499,240.173,288,288,288c47.826,0,94.418,13.499,131.192,38.012
	c41.404,27.597,67.755,66.93,76.204,113.746c1.934,10.724-0.685,21.334-7.185,29.111C482.213,476.047,473.614,480,464,480z
	 M112.185,448h351.628c0.156-0.464,0.312-1.336,0.092-2.561c-6.867-38.052-28.466-70.143-62.46-92.801
	C369.868,331.591,329.579,320,288,320c-41.58,0-81.868,11.591-113.443,32.639c-33.993,22.658-55.588,54.748-62.451,92.801
	C111.879,446.676,112.032,447.542,112.185,448z M464.245,447.985L464.245,447.985L464.245,447.985z M111.762,447.985
	L111.762,447.985L111.762,447.985z"/>
<path d="M88,304c-8.836,0-16-7.163-16-16V176c0-8.836,7.164-16,16-16s16,7.164,16,16V288C104,296.837,96.836,304,88,304z"/>
<path d="M144,248H32c-8.836,0-16-7.164-16-16s7.164-16,16-16h112c8.836,0,16,7.164,16,16S152.836,248,144,248z"/>
</svg>
