<?xml version="1.0" encoding="iso-8859-1"?>
<!-- Generator: Adobe Illustrator 24.3.0, SVG Export Plug-In . SVG Version: 6.00 Build 0)  -->
<svg version="1.1" id="Layer_1" xmlns="http://www.w3.org/2000/svg" xmlns:xlink="http://www.w3.org/1999/xlink" x="0px" y="0px"
	 viewBox="0 0 512 512" style="enable-background:new 0 0 512 512;" xml:space="preserve">
<path d="M256,48C141.31,48,48,141.31,48,256s93.31,208,208,208s208-93.31,208-208S370.69,48,256,48z M205.78,164.82
	C218.45,151.39,236.28,144,256,144s37.39,7.44,50.11,20.94c12.89,13.68,19.16,32.06,17.68,51.82C320.83,256,290.43,288,256,288
	s-64.89-32-67.79-71.25C186.74,196.83,193,178.39,205.78,164.82z M256,432c-47.469,0.031-92.926-19.169-126-53.22
	c9.376-13.37,21.322-24.738,35.14-33.44C190.63,329,222.89,320,256,320s65.37,9,90.83,25.34c13.83,8.698,25.786,20.066,35.17,33.44
	C348.929,412.835,303.47,432.036,256,432z"/>
</svg>
