<?xml version="1.0" encoding="iso-8859-1"?>
<!-- Generator: Adobe Illustrator 24.3.0, SVG Export Plug-In . SVG Version: 6.00 Build 0)  -->
<svg version="1.1" id="Layer_1" xmlns="http://www.w3.org/2000/svg" xmlns:xlink="http://www.w3.org/1999/xlink" x="0px" y="0px"
	 viewBox="0 0 512 512" style="enable-background:new 0 0 512 512;" xml:space="preserve">
<path d="M256,256c-52.873,0-99.508-49.722-103.958-110.838c-2.253-30.976,7.319-59.663,26.954-80.777
	C198.416,43.501,225.763,32,256,32c30.039,0,57.329,11.572,76.842,32.583c19.759,21.277,29.389,49.901,27.114,80.599
	c0,0,0,0,0,0.001C355.426,206.288,308.791,256,256,256z M256,64c-21.247,0-40.272,7.875-53.57,22.176
	c-13.512,14.531-20.072,34.654-18.472,56.663C187.161,186.832,220.152,224,256,224c35.789,0,68.781-37.177,72.044-81.183v0.001
	c1.609-21.724-5.015-41.775-18.65-56.458C296.003,71.94,277.041,64,256,64z M344,144h0.01H344z"/>
<path d="M432,480H80c-9.609,0-18.204-3.952-24.201-11.128c-6.5-7.778-9.119-18.389-7.185-29.112
	c8.444-46.816,34.792-86.15,76.194-113.748C161.582,301.499,208.173,288,256,288c47.826,0,94.418,13.499,131.192,38.012
	c41.404,27.597,67.755,66.93,76.204,113.746c1.934,10.724-0.685,21.334-7.185,29.111C450.213,476.047,441.614,480,432,480z
	 M80.197,448h351.615c0.156-0.464,0.312-1.336,0.092-2.561c-6.867-38.052-28.466-70.143-62.46-92.801
	C337.868,331.591,297.579,320,256,320c-41.58,0-81.868,11.591-113.443,32.639c-33.993,22.658-55.588,54.748-62.451,92.801
	C79.885,446.664,80.041,447.535,80.197,448z M79.76,447.985L79.76,447.985L79.76,447.985z M432.245,447.985L432.245,447.985
	L432.245,447.985z"/>
</svg>
