<?xml version="1.0" encoding="iso-8859-1"?>
<!-- Generator: Adobe Illustrator 24.3.0, SVG Export Plug-In . SVG Version: 6.00 Build 0)  -->
<svg version="1.1" id="Layer_1" xmlns="http://www.w3.org/2000/svg" xmlns:xlink="http://www.w3.org/1999/xlink" x="0px" y="0px"
	 viewBox="0 0 512 512" style="enable-background:new 0 0 512 512;" xml:space="preserve">
<path d="M258.9,48C141.92,46.42,46.42,141.92,48,258.9c1.56,112.19,92.91,203.54,205.1,205.1c117,1.6,212.48-93.9,210.88-210.88
	C462.44,140.91,371.09,49.56,258.9,48z M385.32,375.25c-1.5,1.622-4.031,1.721-5.653,0.221c-0.179-0.165-0.342-0.346-0.487-0.541
	c-8.945-11.703-19.898-21.722-32.35-29.59C321.37,329,289.11,320,256,320s-65.37,9-90.83,25.34
	c-12.451,7.865-23.405,17.881-32.35,29.58c-1.323,1.769-3.83,2.131-5.599,0.807c-0.195-0.146-0.376-0.309-0.541-0.487
	C97.337,343.564,80.715,302.173,80,259c-1.63-97.31,78.22-178.76,175.57-179S432,158.81,432,256
	C432.034,300.214,415.36,342.808,385.32,375.25z"/>
<path d="M256,144c-19.72,0-37.55,7.39-50.22,20.82s-19,32-17.57,51.93C191.11,256,221.52,288,256,288s64.83-32,67.79-71.24
	c1.48-19.74-4.8-38.14-17.68-51.82C293.39,151.44,275.59,144,256,144z"/>
</svg>
