<?xml version="1.0" encoding="iso-8859-1"?>
<!-- Generator: Adobe Illustrator 24.3.0, SVG Export Plug-In . SVG Version: 6.00 Build 0)  -->
<svg version="1.1" id="Layer_1" xmlns="http://www.w3.org/2000/svg" xmlns:xlink="http://www.w3.org/1999/xlink" x="0px" y="0px"
	 viewBox="0 0 512 512" style="enable-background:new 0 0 512 512;" xml:space="preserve">
<path d="M288,256c52.79,0,99.43-49.71,104-110.82c2.27-30.7-7.36-59.33-27.12-80.6C345.33,43.57,318,32,288,32
	c-30.24,0-57.59,11.5-77,32.38c-19.63,21.11-29.2,49.8-27,80.78C188.49,206.28,235.12,256,288,256z"/>
<path d="M495.38,439.76c-8.44-46.82-34.79-86.15-76.19-113.75C382.42,301.5,335.83,288,288,288s-94.42,13.5-131.19,38
	c-41.4,27.6-67.75,66.93-76.19,113.75c-1.93,10.73,0.69,21.34,7.19,29.11c5.971,7.171,14.859,11.265,24.19,11.14h352
	c9.336,0.133,18.233-3.957,24.21-11.13C494.69,461.1,497.31,450.49,495.38,439.76z"/>
<path d="M104,288v-40h40c8.837,0,16-7.163,16-16s-7.163-16-16-16h-40v-40c0-8.837-7.163-16-16-16s-16,7.163-16,16v40H32
	c-8.837,0-16,7.163-16,16s7.163,16,16,16h40v40c0,8.837,7.163,16,16,16S104,296.837,104,288z"/>
</svg>
