<?xml version="1.0" encoding="iso-8859-1"?>
<!-- Generator: Adobe Illustrator 24.3.0, SVG Export Plug-In . SVG Version: 6.00 Build 0)  -->
<svg version="1.1" id="Layer_1" xmlns="http://www.w3.org/2000/svg" xmlns:xlink="http://www.w3.org/1999/xlink" x="0px" y="0px"
	 viewBox="0 0 512 512" style="enable-background:new 0 0 512 512;" xml:space="preserve">
<path d="M332.64,64.58C313.18,43.57,286,32,256,32c-30.16,0-57.43,11.5-76.8,32.38c-19.58,21.11-29.12,49.8-26.88,80.78
	C156.76,206.28,203.27,256,256,256s99.16-49.71,103.67-110.82C361.94,114.48,352.34,85.85,332.64,64.58z"/>
<path d="M432,480H80c-9.331,0.121-18.22-3.967-24.2-11.13c-6.5-7.77-9.12-18.38-7.18-29.11C57.06,392.94,83.4,353.61,124.8,326
	c36.78-24.51,83.37-38,131.2-38s94.42,13.5,131.2,38c41.4,27.6,67.74,66.93,76.18,113.75c1.94,10.73-0.68,21.34-7.18,29.11
	C450.222,476.027,441.332,480.119,432,480z"/>
</svg>
