<?xml version="1.0" encoding="iso-8859-1"?>
<!-- Generator: Adobe Illustrator 24.3.0, SVG Export Plug-In . SVG Version: 6.00 Build 0)  -->
<svg version="1.1" id="Layer_1" xmlns="http://www.w3.org/2000/svg" xmlns:xlink="http://www.w3.org/1999/xlink" x="0px" y="0px"
	 viewBox="0 0 512 512" style="enable-background:new 0 0 512 512;" xml:space="preserve">
<path d="M256,48C141.31,48,48,141.31,48,256s93.31,208,208,208s208-93.31,208-208S370.69,48,256,48z M258,144
	c39.764,0,72,32.236,72,72s-32.236,72-72,72s-72-32.236-72-72S218.236,144,258,144z M256,432
	c-49.079,0.02-95.925-20.505-129.18-56.6C135.66,329.62,215.06,320,256,320s120.34,9.62,129.18,55.39
	C351.929,411.492,305.081,432.021,256,432z"/>
</svg>
