<?xml version="1.0" encoding="iso-8859-1"?>
<!-- Generator: Adobe Illustrator 24.3.0, SVG Export Plug-In . SVG Version: 6.00 Build 0)  -->
<svg version="1.1" id="Layer_1" xmlns="http://www.w3.org/2000/svg" xmlns:xlink="http://www.w3.org/1999/xlink" x="0px" y="0px"
	 viewBox="0 0 512 512" style="enable-background:new 0 0 512 512;" xml:space="preserve">
<path d="M448,400H64c-35.29,0-64-28.71-64-64V176c0-35.29,28.71-64,64-64h384c35.29,0,64,28.71,64,64V336
	C512,371.29,483.29,400,448,400z M64,144c-17.645,0-32,14.355-32,32V336c0,17.645,14.355,32,32,32h384c17.645,0,32-14.355,32-32V176
	c0-17.645-14.355-32-32-32H64z"/>
<path d="M16,352c-8.836,0-16-7.163-16-16v-24c0-13.233,10.766-24,24-24V224c-13.234,0-24-10.767-24-24v-24c0-8.836,7.164-16,16-16
	s16,7.164,16,16v17.012c13.787,3.562,24,16.104,24,30.988V288c0,14.884-10.213,27.427-24,30.987V336C32,344.837,24.836,352,16,352z"
	/>
</svg>
