<?xml version="1.0" encoding="iso-8859-1"?>
<!-- Generator: Adobe Illustrator 24.3.0, SVG Export Plug-In . SVG Version: 6.00 Build 0)  -->
<svg version="1.1" id="Layer_1" xmlns="http://www.w3.org/2000/svg" xmlns:xlink="http://www.w3.org/1999/xlink" x="0px" y="0px"
	 viewBox="0 0 512 512" style="enable-background:new 0 0 512 512;" xml:space="preserve">
<path d="M336,512H176c-35.29,0-64-28.71-64-64V64c0-35.29,28.71-64,64-64h160c35.29,0,64,28.71,64,64v384
	C400,483.29,371.29,512,336,512z M176,32c-17.645,0-32,14.355-32,32v384c0,17.645,14.355,32,32,32h160c17.645,0,32-14.355,32-32V64
	c0-17.645-14.355-32-32-32H176z"/>
<path d="M288,56h-64c-14.883,0-27.426-10.213-30.988-24H176c-8.836,0-16-7.164-16-16s7.164-16,16-16h24c13.234,0,24,10.766,24,24h64
	c0-13.234,10.767-24,24-24h24c8.837,0,16,7.164,16,16s-7.163,16-16,16h-17.013C315.427,45.787,302.884,56,288,56z M200,32h0.01H200z
	"/>
</svg>
