<?xml version="1.0" encoding="iso-8859-1"?>
<!-- Generator: Adobe Illustrator 24.3.0, SVG Export Plug-In . SVG Version: 6.00 Build 0)  -->
<svg version="1.1" id="Layer_1" xmlns="http://www.w3.org/2000/svg" xmlns:xlink="http://www.w3.org/1999/xlink" x="0px" y="0px"
	 viewBox="0 0 512 512" style="enable-background:new 0 0 512 512;" xml:space="preserve">
<path d="M336,0H176c-35.346,0-64,28.654-64,64v384c0,35.346,28.654,64,64,64h160c35.346,0,64-28.654,64-64V64
	C400,28.654,371.346,0,336,0z M368,448c0,17.673-14.327,32-32,32H176c-17.673,0-32-14.327-32-32V64c0-17.673,14.327-32,32-32h11.35
	c3.162-0.012,6.03,1.854,7.3,4.75C199.728,48.438,211.256,56,224,56h64c12.744,0,24.272-7.562,29.35-19.25
	c1.27-2.896,4.138-4.762,7.3-4.75H336c17.673,0,32,14.327,32,32V448z"/>
<path d="M336,48L336,48c-3.738-0.023-7.268,1.715-9.53,4.69C317.413,64.838,303.152,71.996,288,72h-64
	c-15.152-0.004-29.413-7.162-38.47-19.31c-2.262-2.975-5.792-4.713-9.53-4.69l0,0c-8.837,0-16,7.163-16,16v384
	c0,8.837,7.163,16,16,16h160c8.837,0,16-7.163,16-16V64C352,55.163,344.837,48,336,48z"/>
<path d="M336,0H176c-35.346,0-64,28.654-64,64v384c0,35.346,28.654,64,64,64h160c35.346,0,64-28.654,64-64V64
	C400,28.654,371.346,0,336,0z M368,448c0,17.673-14.327,32-32,32H176c-17.673,0-32-14.327-32-32V64c0-17.673,14.327-32,32-32h11.35
	c3.162-0.012,6.03,1.854,7.3,4.75C199.728,48.438,211.256,56,224,56h64c12.744,0,24.272-7.562,29.35-19.25
	c1.27-2.896,4.138-4.762,7.3-4.75H336c17.673,0,32,14.327,32,32V448z"/>
</svg>
