<?xml version="1.0" encoding="iso-8859-1"?>
<!-- Generator: Adobe Illustrator 24.3.0, SVG Export Plug-In . SVG Version: 6.00 Build 0)  -->
<svg version="1.1" id="Layer_1" xmlns="http://www.w3.org/2000/svg" xmlns:xlink="http://www.w3.org/1999/xlink" x="0px" y="0px"
	 viewBox="0 0 512 512" style="enable-background:new 0 0 512 512;" xml:space="preserve">
<path d="M0,176v160c0,35.346,28.654,64,64,64h384c35.346,0,64-28.654,64-64V176c0-35.346-28.654-64-64-64H64
	C28.654,112,0,140.654,0,176z M448,144c17.673,0,32,14.327,32,32v160c0,17.673-14.327,32-32,32H64c-17.673,0-32-14.327-32-32v-11.35
	c-0.012-3.162,1.854-6.03,4.75-7.3C48.438,312.273,56,300.744,56,288v-64c0-12.744-7.562-24.272-19.25-29.35
	c-2.896-1.27-4.762-4.138-4.75-7.3V176c0-17.673,14.327-32,32-32H448z"/>
<path d="M48,176L48,176c-0.023,3.738,1.715,7.268,4.69,9.53C64.838,194.587,71.996,208.848,72,224v64
	c-0.004,15.152-7.162,29.413-19.31,38.47c-2.975,2.262-4.713,5.792-4.69,9.53l0,0c0,8.837,7.163,16,16,16h384
	c8.837,0,16-7.163,16-16V176c0-8.837-7.163-16-16-16H64C55.163,160,48,167.163,48,176z"/>
<path d="M0,176v160c0,35.346,28.654,64,64,64h384c35.346,0,64-28.654,64-64V176c0-35.346-28.654-64-64-64H64
	C28.654,112,0,140.654,0,176z M448,144c17.673,0,32,14.327,32,32v160c0,17.673-14.327,32-32,32H64c-17.673,0-32-14.327-32-32v-11.35
	c-0.012-3.162,1.854-6.03,4.75-7.3C48.438,312.273,56,300.744,56,288v-64c0-12.744-7.562-24.272-19.25-29.35
	c-2.896-1.27-4.762-4.138-4.75-7.3V176c0-17.673,14.327-32,32-32H448z"/>
</svg>
