<?xml version="1.0" encoding="iso-8859-1"?>
<!-- Generator: Adobe Illustrator 24.3.0, SVG Export Plug-In . SVG Version: 6.00 Build 0)  -->
<svg version="1.1" id="Layer_1" xmlns="http://www.w3.org/2000/svg" xmlns:xlink="http://www.w3.org/1999/xlink" x="0px" y="0px"
	 viewBox="0 0 512 512" style="enable-background:new 0 0 512 512;" xml:space="preserve">
<path d="M272,480c-44.359-0.002-86.75-13.817-122.592-39.952s-61.957-62.272-75.521-104.506
	c-2.702-8.413,1.927-17.424,10.341-20.126c8.415-2.703,17.424,1.929,20.126,10.341c11.479,35.739,33.578,66.319,63.908,88.436
	c30.33,22.115,66.203,33.806,103.74,33.808C369.047,448,448,369.047,448,272S369.047,96,272,96c-4.91,0-9.835,0.201-14.637,0.596
	c-8.816,0.739-16.535-5.826-17.26-14.633s5.827-16.534,14.633-17.259C260.409,64.237,266.217,64,272,64
	c114.691,0,208,93.309,208,208C480,386.692,386.691,480,272,480z"/>
<path d="M66.099,357.004c-6.115,0-11.953-3.524-14.613-9.467C38.509,318.546,31.953,287.741,32,255.976
	c0-59.811,23.299-116.063,65.606-158.37C139.913,55.299,196.165,32,256,32c8.837,0,16,7.164,16,16v208
	c0,6.308-3.706,12.027-9.464,14.604l-189.91,85C70.503,356.554,68.283,357.004,66.099,357.004z M240,64.66
	C141.59,72.819,64,155.52,64,256c-0.032,21.864,3.581,43.184,10.758,63.591L240,245.632V64.66z"/>
</svg>
