<?xml version="1.0" encoding="iso-8859-1"?>
<!-- Generator: Adobe Illustrator 24.3.0, SVG Export Plug-In . SVG Version: 6.00 Build 0)  -->
<svg version="1.1" id="Layer_1" xmlns="http://www.w3.org/2000/svg" xmlns:xlink="http://www.w3.org/1999/xlink" x="0px" y="0px"
	 viewBox="0 0 512 512" style="enable-background:new 0 0 512 512;" xml:space="preserve">
<path d="M66.1,357c-6.309,0.003-12.031-3.702-14.61-9.46C0.934,234.63,51.482,102.114,164.392,51.558
	C193.208,38.656,224.427,31.99,256,32c8.837,0,16,7.163,16,16v208c0.001,6.312-3.708,12.034-9.47,14.61l-189.9,84.95
	C70.58,356.497,68.354,356.987,66.1,357z"/>
<path d="M313.59,68.18c-4.33-0.878-8.552,1.92-9.43,6.25c-0.105,0.517-0.158,1.042-0.16,1.57v180
	c-0.016,18.923-11.133,36.077-28.4,43.82L103.13,377c-4.035,1.801-5.845,6.532-4.044,10.566c0.194,0.434,0.426,0.851,0.694,1.244
	c13.199,19.413,29.583,36.456,48.46,50.41C184.005,465.826,227.425,480.133,272,480c114.69,0,208-93.31,208-208
	C480,171.55,408.42,87.5,313.59,68.18z"/>
</svg>
