<?xml version="1.0" encoding="iso-8859-1"?>
<!-- Generator: Adobe Illustrator 24.3.0, SVG Export Plug-In . SVG Version: 6.00 Build 0)  -->
<svg version="1.1" id="Layer_1" xmlns="http://www.w3.org/2000/svg" xmlns:xlink="http://www.w3.org/1999/xlink" x="0px" y="0px"
	 viewBox="0 0 512 512" style="enable-background:new 0 0 512 512;" xml:space="preserve">
<path d="M256,176c-44.112,0-80-35.888-80-80s35.888-80,80-80s80,35.888,80,80S300.112,176,256,176z M256,48
	c-26.467,0-48,21.533-48,48s21.533,48,48,48c26.467,0,48-21.533,48-48S282.467,48,256,48z"/>
<path d="M272,164c0-4.971-4.029-9-9-9h-14c-4.971,0-9,4.029-9,9v293.56c0.002,4.251,0.848,8.459,2.49,12.38l10.07,24
	c1.038,1.9,3.42,2.598,5.32,1.56c0.659-0.36,1.2-0.902,1.56-1.56l10.07-24c1.642-3.921,2.488-8.129,2.49-12.38V164z"/>
<circle cx="280" cy="72" r="24"/>
</svg>
