<?xml version="1.0" encoding="iso-8859-1"?>
<!-- Generator: Adobe Illustrator 24.3.0, SVG Export Plug-In . SVG Version: 6.00 Build 0)  -->
<svg version="1.1" id="Layer_1" xmlns="http://www.w3.org/2000/svg" xmlns:xlink="http://www.w3.org/1999/xlink" x="0px" y="0px"
	 viewBox="0 0 512 512" style="enable-background:new 0 0 512 512;" xml:space="preserve">
<path d="M336,96c-0.004-44.183-35.824-79.997-80.006-79.994C211.811,16.01,175.997,51.83,176,96.013
	c0.003,38.013,26.755,70.775,64,78.377v283.17c0.002,4.251,0.848,8.459,2.49,12.38l10.07,24c1.038,1.9,3.42,2.598,5.32,1.56
	c0.659-0.36,1.2-0.902,1.56-1.56l10.07-24c1.642-3.921,2.488-8.129,2.49-12.38V174.39C309.222,166.741,335.953,134,336,96z M280,96
	c-13.255,0-24-10.745-24-24s10.745-24,24-24s24,10.745,24,24S293.255,96,280,96z"/>
</svg>
