<?xml version="1.0" encoding="iso-8859-1"?>
<!-- Generator: Adobe Illustrator 24.3.0, SVG Export Plug-In . SVG Version: 6.00 Build 0)  -->
<svg version="1.1" id="Layer_1" xmlns="http://www.w3.org/2000/svg" xmlns:xlink="http://www.w3.org/1999/xlink" x="0px" y="0px"
	 viewBox="0 0 512 512" style="enable-background:new 0 0 512 512;" xml:space="preserve">
<path d="M399,99.29c-0.15-2.13-0.3-4.35-0.44-6.68L395.69,46c-1.055-16.853-15.024-29.986-31.91-30H148.21
	c-16.886,0.014-30.855,13.147-31.91,30l-2.91,46.63c-0.14,2.31-0.29,4.51-0.43,6.62c-1.29,19.24-2.23,33.14,3.73,65.66
	c1.67,9.11,5.22,22.66,9.73,39.82c12.61,48,33.71,128.36,33.71,195.63V472c0,13.255,10.745,24,24,24h143.74
	c13.255,0,24-10.745,24-24v-71.62c0-77.09,21.31-153.29,34-198.81c4.38-15.63,7.83-28,9.41-36.62
	C401.27,132.44,400.33,118.53,399,99.29z M364,51.75l1.5,24c0.138,2.205-1.537,4.104-3.742,4.242
	C361.672,79.998,361.586,80,361.5,80h-211c-2.209,0.004-4.003-1.783-4.008-3.992c0-0.086,0.002-0.172,0.008-0.258l1.48-24
	c0.133-2.119,1.897-3.765,4.02-3.75h208C362.115,47.996,363.868,49.639,364,51.75z"/>
</svg>
