<?xml version="1.0" encoding="iso-8859-1"?>
<!-- Generator: Adobe Illustrator 24.3.0, SVG Export Plug-In . SVG Version: 6.00 Build 0)  -->
<svg version="1.1" id="Layer_1" xmlns="http://www.w3.org/2000/svg" xmlns:xlink="http://www.w3.org/1999/xlink" x="0px" y="0px"
	 viewBox="0 0 512 512" style="enable-background:new 0 0 512 512;" xml:space="preserve">
<path d="M327.86,496H184.12c-13.234,0-24-10.767-24-24V400.37c0.007-67.24-21.082-147.584-33.682-195.588
	c-4.511-17.186-8.074-30.761-9.745-39.893l0,0c-5.959-32.472-5.027-46.38-3.736-65.63c0.142-2.12,0.29-4.321,0.434-6.64
	l2.911-46.615c1.052-16.795,15.055-29.973,31.88-30.003H363.78c16.854,0.03,30.856,13.208,31.908,30l2.91,46.613
	c0.146,2.328,0.295,4.538,0.438,6.667c1.299,19.246,2.237,33.151-3.729,65.668c-1.586,8.636-5.037,20.978-9.407,36.604
	c-12.731,45.528-34.04,121.728-34.04,198.828V472C351.86,485.234,341.094,496,327.86,496z M192.12,464h127.74v-63.62
	c0-81.49,22.049-160.337,35.223-207.446c4.15-14.842,7.428-26.565,8.751-33.764c5.243-28.578,4.503-39.553,3.275-57.736
	c-0.146-2.178-0.299-4.44-0.448-6.825l-2.91-46.612L148.21,48l-2.881,46.607c-0.147,2.369-0.298,4.622-0.444,6.792
	c-1.22,18.191-1.956,29.171,3.283,57.713c0,0.003,0.001,0.007,0.002,0.01c1.451,7.938,4.88,20.999,9.22,37.535
	c12.992,49.499,34.738,132.344,34.73,203.714V464z"/>
<path d="M376.79,112H135.21c-8.836,0-16-7.164-16-16s7.164-16,16-16h241.58c8.837,0,16,7.164,16,16S385.627,112,376.79,112z"/>
</svg>
