<?xml version="1.0" encoding="iso-8859-1"?>
<!-- Generator: Adobe Illustrator 24.3.0, SVG Export Plug-In . SVG Version: 6.00 Build 0)  -->
<svg version="1.1" id="Layer_1" xmlns="http://www.w3.org/2000/svg" xmlns:xlink="http://www.w3.org/1999/xlink" x="0px" y="0px"
	 viewBox="0 0 512 512" style="enable-background:new 0 0 512 512;" xml:space="preserve">
<path d="M442.3,67.82L442.3,67.82C383.92,44.72,317.78,32,256,32c-63.57,0-129.8,12.51-186.56,35.25C49.18,75.48,42,80,42,80l22,44
	l37.53-16.14C147.58,89.53,199.19,80,256.51,80c57.49,0,108.09,9.23,154.75,28.25l0,0L448,124l22-44C470,80,463,76,442.3,67.82z"/>
<ellipse transform="matrix(0.7074 -0.7069 0.7069 0.7074 -53.2445 287.409)" style="fill:none;" cx="320.482" cy="208.008" rx="31.97" ry="32.03"/>
<ellipse transform="matrix(0.7074 -0.7069 0.7069 0.7074 -79.387 192.2451)" style="fill:none;" cx="192.481" cy="191.998" rx="31.97" ry="32.03"/>
<ellipse transform="matrix(0.7074 -0.7069 0.7069 0.7074 -151.1447 274.9455)" style="fill:none;" cx="256.48" cy="320.011" rx="31.97" ry="32.03"/>
<path d="M409.66,140.85C364.15,122.52,308.16,112,256,112c-52.58,0.043-104.695,9.842-153.7,28.9c-0.25,0.1-9.24,4.23-19,8.71
	c7.46,16.22,18,39.16,22.2,48.33L256,480l173.74-330.84l-19.92-8.24L409.66,140.85z M224.41,194.07
	c-1.141,17.636-16.364,31.008-34,29.866c-17.636-1.141-31.008-16.364-29.866-34c1.038-16.045,13.821-28.828,29.866-29.866
	c17.707-1.071,32.929,12.416,34,30.123C224.488,191.484,224.488,192.779,224.41,194.07z M288.41,322.07
	c-1.141,17.636-16.364,31.008-34,29.866s-31.008-16.364-29.866-34c1.038-16.045,13.821-28.828,29.866-29.866
	c17.707-1.071,32.929,12.416,34,30.123C288.488,319.484,288.488,320.779,288.41,322.07z M352.41,210.07
	c-1.141,17.636-16.364,31.008-34,29.866c-17.636-1.141-31.008-16.364-29.866-34c1.038-16.045,13.821-28.828,29.866-29.866
	c17.707-1.071,32.929,12.416,34,30.123C352.488,207.484,352.488,208.779,352.41,210.07z"/>
</svg>
