<?xml version="1.0" encoding="iso-8859-1"?>
<!-- Generator: Adobe Illustrator 24.3.0, SVG Export Plug-In . SVG Version: 6.00 Build 0)  -->
<svg version="1.1" id="Layer_1" xmlns="http://www.w3.org/2000/svg" xmlns:xlink="http://www.w3.org/1999/xlink" x="0px" y="0px"
	 viewBox="0 0 512 512" style="enable-background:new 0 0 512 512;" xml:space="preserve">
<path d="M256.07,480.018c-11.892,0.001-23.326-6.662-28.824-18.072c-27.955-57.848-89.136-191.644-122.005-263.523
	c-12.006-26.257-21.49-46.996-22.558-49.16c-4.88-9.872-3.635-17.938-1.731-22.966c3.038-8.022,9.8-14.223,20.1-18.429
	C145.164,89.645,198.765,80,256,80c57.479,0,108.111,9.244,154.788,28.259l0,0c11.642,4.735,16.744,12.471,18.975,18.127
	c2.932,7.433,2.644,15.64-0.811,23.109L284.794,461.946c-3.126,6.488-8.421,11.783-14.909,14.909
	C265.429,479.001,260.714,480.018,256.07,480.018z M112.616,137.718c2.783,5.975,9.715,21.129,21.727,47.396
	c32.8,71.728,93.837,205.208,121.675,262.823l142.989-309.921c-0.087-0.038-0.179-0.077-0.275-0.116l-0.009-0.003
	C355.95,120.471,309.265,112,256,112c-52.323,0-103.034,9.045-142.791,25.468C112.999,137.554,112.802,137.637,112.616,137.718z
	 M111.174,134.63C111.174,134.63,111.174,134.63,111.174,134.63C111.174,134.63,111.174,134.63,111.174,134.63z"/>
<path d="M427.632,144.342c-0.918,0-1.829-0.031-2.729-0.082c-0.77-0.043-1.435-0.081-2.022-0.081c-4.696,0-8.397-1.443-13.083-3.27
	l-0.175-0.069C364.115,122.512,308.122,112,256,112c-52.796,0.076-104.542,9.811-153.777,28.935l-0.081,0.032
	c-4.027,1.589-8.191,3.233-12.992,3.233c-7.359,0-21.058,0-29.44-17.186l-0.468-1.056l-10.054-25.154
	C45.7,90.026,49.183,75.557,69.418,67.273l0.112-0.045C126.237,44.511,192.46,32,256,32c61.758,0,127.908,12.715,186.266,35.802
	l0.032,0.012c20.624,8.21,23.945,23.052,20.524,33.268l-0.346,0.934l-10,24.618C445.778,141.552,436.385,144.342,427.632,144.342z
	 M81.984,96.711l6.165,15.36c0.682-0.253,1.543-0.593,2.244-0.869l0.164-0.065C143.566,90.547,199.194,80.081,255.977,80
	c56.056,0,116.371,11.344,165.519,31.126c0.822,0.321,1.697,0.661,2.379,0.915l5.979-14.735C375.312,75.826,313.599,64,256,64
	C196.647,64,134.875,75.614,81.984,96.711z"/>
<circle cx="192" cy="192" r="32"/>
<circle cx="320" cy="208" r="32"/>
<circle cx="256" cy="320" r="32"/>
</svg>
