<?xml version="1.0" encoding="iso-8859-1"?>
<!-- Generator: Adobe Illustrator 24.3.0, SVG Export Plug-In . SVG Version: 6.00 Build 0)  -->
<svg version="1.1" id="Layer_1" xmlns="http://www.w3.org/2000/svg" xmlns:xlink="http://www.w3.org/1999/xlink" x="0px" y="0px"
	 viewBox="0 0 512 512" style="enable-background:new 0 0 512 512;" xml:space="preserve">
<path d="M441.82,67.83L441.82,67.83C383.44,44.73,317.3,32,255.56,32C192,32,125.76,44.53,69,67.26
	C48.7,75.49,45.21,90,48.71,100.82L52.78,111c3.286,8.203,12.599,12.189,20.802,8.904c0.171-0.068,0.34-0.14,0.508-0.214
	c10.8-4.76,23.93-10.54,27-11.78C145.1,89.64,198.71,80,256,80c57.47,0,108.09,9.24,154.76,28.25l0,0
	c4.42,1.8,14.88,6.42,26.17,11.46c8.068,3.604,17.53-0.015,21.134-8.084c0.075-0.168,0.147-0.336,0.216-0.506L462,102l0.34-0.9
	C465.79,90.89,462.48,76.05,441.82,67.83z"/>
<path d="M409.18,140.86C363.67,122.53,307.68,112,255.56,112c-52.593,0.035-104.722,9.83-153.74,28.89
	c-0.53,0.21-2.06,0.88-4.29,1.88c-8.064,3.614-11.671,13.081-8.057,21.144c0.019,0.042,0.038,0.084,0.057,0.126
	c4,8.71,9.42,20.58,15.5,33.89C137.94,270,199.21,404,227.26,462c5.303,11.044,16.489,18.049,28.74,18l0,0
	c12.273,0.049,23.473-6.985,28.76-18.06l0.06-0.13l137.3-297.57c3.721-7.978,0.271-17.463-7.708-21.184
	c-0.199-0.093-0.4-0.181-0.602-0.266c-2.26-0.95-3.85-1.61-4.5-1.87L409.18,140.86z M194.08,223.93
	c-17.636,1.15-32.864-12.214-34.014-29.85c-1.15-17.636,12.214-32.864,29.85-34.014c17.636-1.15,32.864,12.214,34.014,29.85
	c0.09,1.387,0.09,2.778,0,4.164C222.885,210.113,210.113,222.885,194.08,223.93L194.08,223.93z M258.08,351.93
	c-17.636,1.15-32.864-12.214-34.014-29.85c-1.15-17.636,12.214-32.864,29.85-34.014c17.636-1.15,32.864,12.214,34.014,29.85
	c0.09,1.387,0.09,2.778,0,4.164C286.885,338.113,274.113,350.885,258.08,351.93z M322.08,239.93
	c-17.636,1.15-32.864-12.214-34.014-29.85s12.214-32.864,29.85-34.014c17.636-1.15,32.864,12.214,34.014,29.85
	c0.09,1.387,0.09,2.778,0,4.164C350.885,226.113,338.113,238.885,322.08,239.93z"/>
</svg>
