<?xml version="1.0" encoding="UTF-8"?>
<svg width="448px" height="448px" viewBox="0 0 448 448" version="1.1" xmlns="http://www.w3.org/2000/svg" xmlns:xlink="http://www.w3.org/1999/xlink">
    <title>planer-outline</title>
    <g id="Page-1" stroke="none" stroke-width="1"  fill-rule="evenodd">
        <g id="planer-outline"  fill-rule="nonzero">
            <path d="M384,448 L64,448 C28.71,448 0,419.29 0,384 L0,96 C0,60.71 28.71,32 64,32 L384,32 C419.29,32 448,60.71 448,96 L448,384 C448,419.29 419.29,448 384,448 Z M64,64 C46.355,64 32,78.355 32,96 L32,384 C32,401.645 46.355,416 64,416 L384,416 C401.645,416 416,401.645 416,384 L416,96 C416,78.355 401.645,64 384,64 L64,64 Z" id="Shape"></path>
            <circle id="Oval" cx="264" cy="200" r="24"></circle>
            <circle id="Oval" cx="344" cy="200" r="24"></circle>
            <circle id="Oval" cx="264" cy="280" r="24"></circle>
            <circle id="Oval" cx="344" cy="280" r="24"></circle>
            <circle id="Oval-Copy-3" cx="344" cy="360" r="24"></circle>
            <circle id="Oval" cx="104" cy="280" r="24"></circle>
            <circle id="Oval" cx="184" cy="280" r="24"></circle>
            <circle id="Oval" cx="104" cy="360" r="24"></circle>
            <circle id="Oval" cx="184" cy="360" r="24"></circle>
            <circle id="Oval" cx="264" cy="360" r="24"></circle>
            <path d="M96,64 C87.164,64 80,56.836 80,48 L80,16 C80,7.164 87.164,0 96,0 C104.836,0 112,7.164 112,16 L112,48 C112,56.836 104.836,64 96,64 Z" id="Path"></path>
            <path d="M352,64 C343.163,64 336,56.836 336,48 L336,16 C336,7.164 343.163,0 352,0 C360.837,0 368,7.164 368,16 L368,48 C368,56.836 360.837,64 352,64 Z" id="Path"></path>
            <rect id="Rectangle" x="16" y="112" width="416" height="32"></rect>
            <rect id="Rectangle" x="160" y="176" width="128" height="48" rx="24"></rect>
            <rect id="Rectangle-Copy" x="160" y="256" width="208" height="48" rx="24"></rect>
            <rect id="Rectangle-Copy-2" x="80" y="336" width="208" height="48" rx="24"></rect>
            <path d="M104,176 C90.7665385,176 80,186.766538 80,200 C80,213.233462 90.7665385,224 104,224 C117.233462,224 128,213.233462 128,200 C128,186.766538 117.233462,176 104,176 Z M116.490385,191.956538 L100.982692,210.418077 C100.6385,210.828038 100.133346,211.068385 99.5980769,211.076923 L99.5669231,211.076923 C99.0436538,211.076692 98.5449615,210.854462 98.195,210.465385 L91.5488462,203.080769 C90.8493846,202.338962 90.8837692,201.170462 91.6255769,200.471 C92.3673846,199.771538 93.5358846,199.805923 94.2353462,200.547731 C94.2549615,200.5685 94.2741154,200.589731 94.2926923,200.611423 L99.5184615,206.417577 L113.663462,189.581808 C114.3305,188.810692 115.496346,188.726231 116.267462,189.393269 C117.023,190.046808 117.121769,191.182538 116.490385,191.956538 L116.490385,191.956538 Z" id="Shape"></path>
        </g>
    </g>
</svg>