<?xml version="1.0" encoding="iso-8859-1"?>
<!-- Generator: Adobe Illustrator 24.3.0, SVG Export Plug-In . SVG Version: 6.00 Build 0)  -->
<svg version="1.1" id="Layer_1" xmlns="http://www.w3.org/2000/svg" xmlns:xlink="http://www.w3.org/1999/xlink" x="0px" y="0px"
	 viewBox="0 0 512 512" style="enable-background:new 0 0 512 512;" xml:space="preserve">
<path d="M81,274.71C90.36,363,165.26,432,256,432c24.634,0.027,48.996-5.149,71.49-15.19c-40.3-16.53-84.05-38.17-127.77-63.36
	C157,328.86,115.84,301.5,81,274.71z"/>
<path d="M492.72,339.51c-8.5-11.31-20-23.8-34-37c-2.671,11.632-6.352,23.008-11,34c28.72,29.5,33.2,45.34,32.17,48.45
	c-2,2.23-17.05,6.89-58.15-3.53c-5.887-1.493-12.327-3.313-19.32-5.46c-4.507-1.387-9.103-2.883-13.79-4.49l0,0
	c7.362-8.444,13.905-17.568,19.54-27.25c0.17-0.29,0.35-0.58,0.52-0.88c15.27-26.579,23.307-56.697,23.31-87.35
	c0.004-6.347-0.33-12.689-1-19c-9.57-88.17-84.4-157-175-157c-38.442-0.022-75.826,12.588-106.4,35.89
	c-18.531,14.104-34.104,31.719-45.83,51.84c-0.16,0.29-0.34,0.58-0.51,0.87c-5.573,9.709-10.204,19.929-13.83,30.52
	c-3.727-3.247-7.323-6.47-10.79-9.67c-5.39-5-10.17-9.63-14.42-14C34.65,145.19,31.13,129.84,32.06,127
	c2.16-2.43,18.1-6.54,58.13,3.55c7.229-9.521,15.258-18.406,24-26.56c-18.86-5.61-35.79-9.35-50.05-11
	C33.41,89.47,13.3,95.52,4.35,111c-3.24,5.58-6.35,15.09-2.72,28.6C7,159.66,26.14,184,53.23,209.5
	c8.63,8.13,18.06,16.37,28.12,24.64c7.32,6,15,12.06,22.9,18.08c5.273,4,10.657,8,16.15,12s11.06,7.927,16.7,11.78
	c25.41,17.61,52.26,34.52,78.59,49.69c9.56,5.507,19.107,10.84,28.64,16c9.533,5.16,18.99,10.097,28.37,14.81
	c21.9,11,43.35,20.92,63.86,29.43c8.793,3.653,17.397,7.04,25.81,10.16c11.89,4.42,23.37,8.31,34.31,11.59l1.1,0.33
	c25.73,7.66,47.42,11.69,64.48,12H464c21.64,0,36.3-6.38,43.58-19C516.67,385.39,511.66,364.69,492.72,339.51z"/>
</svg>
