<?xml version="1.0" encoding="iso-8859-1"?>
<!-- Generator: Adobe Illustrator 24.3.0, SVG Export Plug-In . SVG Version: 6.00 Build 0)  -->
<svg version="1.1" id="Layer_1" xmlns="http://www.w3.org/2000/svg" xmlns:xlink="http://www.w3.org/1999/xlink" x="0px" y="0px"
	 viewBox="0 0 512 512" style="enable-background:new 0 0 512 512;" xml:space="preserve">
<path d="M464.049,419.998c-0.587,0-1.18-0.005-1.777-0.015c-17.3-0.271-39.365-4.403-65.584-12.28
	c-52.163-15.672-116.438-44.786-180.986-81.98C119.052,270.031,15.38,190.882,1.639,139.601
	c-3.619-13.504-0.517-23.014,2.722-28.613c8.949-15.459,29.062-21.506,59.785-17.972c24.05,2.766,55.663,11.456,91.419,25.13
	l-11.43,29.889c-80.509-30.788-109.117-24.341-112.068-21.02c-1.058,3.259,3.729,22.88,46.613,62.463
	c37.85,34.937,92.186,73.476,152.999,108.518c60.869,35.074,121.523,62.78,170.789,78.015c55.821,17.263,75.187,11.54,77.466,8.984
	c1.429-4.287-7.598-32.793-76.466-88.057l20.027-24.957c30.458,24.44,54.401,47.789,69.241,67.52
	c18.935,25.175,23.949,45.871,14.907,61.516C500.352,413.619,485.69,419.998,464.049,419.998z"/>
<path d="M256,432C158.953,432,80,353.047,80,256c0-97.047,78.953-176,176-176s176,78.953,176,176C432,353.047,353.047,432,256,432z
	 M256,112c-79.402,0-144,64.598-144,144S176.598,400,256,400c79.401,0,144-64.599,144-144.001S335.401,112,256,112z"/>
</svg>
