<?xml version="1.0" encoding="iso-8859-1"?>
<!-- Generator: Adobe Illustrator 24.3.0, SVG Export Plug-In . SVG Version: 6.00 Build 0)  -->
<svg version="1.1" id="Layer_1" xmlns="http://www.w3.org/2000/svg" xmlns:xlink="http://www.w3.org/1999/xlink" x="0px" y="0px"
	 viewBox="0 0 512 512" style="enable-background:new 0 0 512 512;" xml:space="preserve">
<path d="M96.85,286.62c-3.561-2.615-8.568-1.849-11.183,1.712c-1.38,1.879-1.872,4.266-1.347,6.538C102.07,373.28,172.3,432,256,432
	c17.775,0.006,35.447-2.692,52.41-8c4.222-1.302,6.59-5.78,5.288-10.002c-0.692-2.246-2.337-4.074-4.498-4.998
	c-37.483-16.521-74.031-35.085-109.48-55.61C164.243,333.018,129.902,310.729,96.85,286.62z"/>
<path d="M492.72,339.51c-4.19-5.58-9.11-11.44-14.7-17.53c-5.877-6.473-15.888-6.956-22.361-1.079
	c-1.877,1.704-3.317,3.833-4.199,6.209c0,0.16-0.11,0.31-0.17,0.47c-2.032,5.521-0.817,11.715,3.15,16.06
	c22.74,25,26.42,38.51,25.48,41.36c-2,2.23-17.05,6.89-58.15-3.53c-5.887-1.493-12.327-3.313-19.32-5.46
	c-4.507-1.387-9.103-2.883-13.79-4.49l0,0c7.362-8.444,13.905-17.568,19.54-27.25c0.17-0.29,0.35-0.58,0.52-0.88
	c15.266-26.594,23.293-56.726,23.28-87.39c0.004-6.347-0.33-12.689-1-19c-9.57-88.17-84.4-157-175-157
	c-38.442-0.022-75.826,12.588-106.4,35.89c-18.531,14.104-34.104,31.719-45.83,51.84c-0.16,0.29-0.34,0.58-0.51,0.87
	c-5.573,9.709-10.204,19.929-13.83,30.52c-3.727-3.247-7.323-6.47-10.79-9.67c-5.39-5-10.17-9.63-14.42-14
	C34.65,145.19,31.13,129.84,32.06,127c2-2.23,15.54-5.87,48.62,1.31c5.765,1.268,11.756-0.779,15.54-5.31l0.36-0.44
	c5.56-6.682,4.651-16.606-2.031-22.167c-1.922-1.6-4.198-2.718-6.639-3.263c-7.852-1.779-15.788-3.157-23.78-4.13
	c-30.72-3.53-50.83,2.52-59.78,18c-3.24,5.58-6.35,15.09-2.72,28.6C7,159.66,26.14,184,53.23,209.5
	c8.63,8.13,18.06,16.37,28.12,24.64c7.32,6,15,12.06,22.9,18.08c5.273,4,10.657,8,16.15,12s11.06,7.927,16.7,11.78
	c25.41,17.61,52.26,34.52,78.59,49.69c9.56,5.507,19.107,10.84,28.64,16c9.533,5.16,18.99,10.097,28.37,14.81
	c21.9,11,43.35,20.92,63.86,29.43c8.793,3.653,17.397,7.04,25.81,10.16c11.89,4.42,23.37,8.31,34.31,11.59l1.1,0.33
	c25.73,7.66,47.42,11.69,64.48,12H464c21.64,0,36.3-6.38,43.58-19C516.67,385.39,511.66,364.69,492.72,339.51z"/>
</svg>
