<?xml version="1.0" encoding="iso-8859-1"?>
<!-- Generator: Adobe Illustrator 24.3.0, SVG Export Plug-In . SVG Version: 6.00 Build 0)  -->
<svg version="1.1" id="Layer_1" xmlns="http://www.w3.org/2000/svg" xmlns:xlink="http://www.w3.org/1999/xlink" x="0px" y="0px"
	 viewBox="0 0 512 512" style="enable-background:new 0 0 512 512;" xml:space="preserve">
<path d="M30.71,229.47l188.87-113c9.517-5.79,21.431-5.94,31.09-0.39c10.475,6.1,16.873,17.349,16.76,29.47v79.05l180.72-108.16
	c9.517-5.79,21.431-5.94,31.09-0.39c10.475,6.1,16.873,17.349,16.76,29.47v221c0.118,12.125-6.281,23.38-16.76,29.48
	c-9.659,5.55-21.573,5.4-31.09-0.39L267.43,287.4v79.08c0.133,12.139-6.268,23.413-16.76,29.52c-9.659,5.55-21.573,5.4-31.09-0.39
	l-188.87-113c-14.636-9.168-19.068-28.465-9.9-43.1c2.509-4.006,5.894-7.391,9.9-9.9L30.71,229.47z"/>
</svg>
