<?xml version="1.0" encoding="iso-8859-1"?>
<!-- Generator: Adobe Illustrator 24.3.0, SVG Export Plug-In . SVG Version: 6.00 Build 0)  -->
<svg version="1.1" id="Layer_1" xmlns="http://www.w3.org/2000/svg" xmlns:xlink="http://www.w3.org/1999/xlink" x="0px" y="0px"
	 viewBox="0 0 512 512" style="enable-background:new 0 0 512 512;" xml:space="preserve">
<path d="M256,464C141.309,464,48,370.692,48,256c0-114.691,93.309-208,208-208s208,93.309,208,208C464,370.692,370.691,464,256,464z
	 M256,80c-97.047,0-176,78.953-176,176C80,353.047,158.953,432,256,432S432,353.047,432,256C432,158.953,353.047,80,256,80z"/>
<path d="M216.32,334.44l114.45-69.14c5.136-3.129,6.763-9.83,3.634-14.966c-0.904-1.484-2.15-2.73-3.634-3.634l-114.45-69.14
	c-5.107-3.06-11.728-1.4-14.788,3.707c-1.014,1.692-1.544,3.63-1.532,5.603v138.26c-0.035,5.954,4.764,10.808,10.717,10.842
	C212.69,335.984,214.628,335.454,216.32,334.44z"/>
</svg>
