<?xml version="1.0" encoding="iso-8859-1"?>
<!-- Generator: Adobe Illustrator 24.3.0, SVG Export Plug-In . SVG Version: 6.00 Build 0)  -->
<svg version="1.1" id="Layer_1" xmlns="http://www.w3.org/2000/svg" xmlns:xlink="http://www.w3.org/1999/xlink" x="0px" y="0px"
	 viewBox="0 0 512 512" style="enable-background:new 0 0 512 512;" xml:space="preserve">
<path d="M464.021,400.047c-5.466,0-10.925-1.486-15.875-4.452L259.281,282.528c-9.211-5.513-14.711-15.431-14.711-26.528
	c0-11.098,5.501-21.015,14.714-26.529l188.871-113c9.63-5.798,21.254-5.963,31.059-0.422C489.568,121.9,496,133.193,496,145.52v221
	c0,12.315-6.424,23.606-16.766,29.466C474.452,398.695,469.234,400.047,464.021,400.047z M277.269,256l186.526,111.667
	c0.11-0.253,0.205-0.623,0.205-1.147v-221c0-0.509-0.089-0.872-0.195-1.123L277.269,256z"/>
<path d="M235.452,400.047c-5.466,0-10.925-1.486-15.875-4.452L30.712,282.528C21.5,277.015,16,267.097,16,255.999
	c0-11.098,5.501-21.015,14.714-26.529l188.871-113c9.64-5.799,21.266-5.962,31.068-0.419c10.348,5.852,16.778,17.144,16.778,29.469
	v221c0,12.315-6.425,23.605-16.766,29.465C245.883,398.695,240.665,400.047,235.452,400.047z M48.699,256l186.525,111.667
	c0.111-0.253,0.206-0.623,0.206-1.147v-221c0-0.509-0.089-0.872-0.194-1.124L48.699,256z"/>
</svg>
