<?xml version="1.0" encoding="iso-8859-1"?>
<!-- Generator: Adobe Illustrator 24.3.0, SVG Export Plug-In . SVG Version: 6.00 Build 0)  -->
<svg version="1.1" id="Layer_1" xmlns="http://www.w3.org/2000/svg" xmlns:xlink="http://www.w3.org/1999/xlink" x="0px" y="0px"
	 viewBox="0 0 512 512" style="enable-background:new 0 0 512 512;" xml:space="preserve">
<path d="M48,256c0,114.69,93.31,208,208,208s208-93.31,208-208S370.69,48,256,48S48,141.31,48,256z M117.23,246.7l114.45-69.14
	c5.107-3.06,11.728-1.4,14.788,3.707c1.014,1.692,1.544,3.63,1.532,5.603v53.32l103.68-62.63c5.107-3.06,11.728-1.4,14.788,3.707
	c1.014,1.692,1.544,3.63,1.532,5.603v138.26c0.035,5.954-4.764,10.808-10.717,10.842c-1.973,0.011-3.911-0.519-5.603-1.532
	L248,271.81v53.32c0.035,5.954-4.764,10.808-10.717,10.842c-1.973,0.011-3.911-0.519-5.603-1.532L117.23,265.3
	c-5.136-3.129-6.763-9.83-3.634-14.966C114.5,248.85,115.746,247.604,117.23,246.7z"/>
</svg>
