<?xml version="1.0" encoding="iso-8859-1"?>
<!-- Generator: Adobe Illustrator 24.3.0, SVG Export Plug-In . SVG Version: 6.00 Build 0)  -->
<svg version="1.1" id="Layer_1" xmlns="http://www.w3.org/2000/svg" xmlns:xlink="http://www.w3.org/1999/xlink" x="0px" y="0px"
	 viewBox="0 0 512 512" style="enable-background:new 0 0 512 512;" xml:space="preserve">
<path d="M481.29,229.47l-188.87-113c-9.517-5.79-21.431-5.94-31.09-0.39c-10.475,6.1-16.873,17.349-16.76,29.47v79.05L63.85,116.44
	c-9.517-5.79-21.431-5.94-31.09-0.39c-10.475,6.1-16.873,17.349-16.76,29.47v221c-0.116,12.124,6.282,23.379,16.76,29.48
	c9.659,5.55,21.573,5.4,31.09-0.39L244.57,287.4v79.08c-0.131,12.139,6.27,23.412,16.76,29.52c9.659,5.55,21.573,5.4,31.09-0.39
	l188.87-113c14.636-9.168,19.068-28.465,9.9-43.1c-2.509-4.006-5.894-7.391-9.9-9.9L481.29,229.47z"/>
</svg>
