<?xml version="1.0" encoding="iso-8859-1"?>
<!-- Generator: Adobe Illustrator 24.3.0, SVG Export Plug-In . SVG Version: 6.00 Build 0)  -->
<svg version="1.1" id="Layer_1" xmlns="http://www.w3.org/2000/svg" xmlns:xlink="http://www.w3.org/1999/xlink" x="0px" y="0px"
	 viewBox="0 0 512 512" style="enable-background:new 0 0 512 512;" xml:space="preserve">
<path d="M256,464C141.309,464,48,370.692,48,256c0-114.691,93.309-208,208-208s208,93.309,208,208C464,370.692,370.691,464,256,464z
	 M256,80c-97.047,0-176,78.953-176,176C80,353.047,158.953,432,256,432S432,353.047,432,256C432,158.953,353.047,80,256,80z"/>
<path d="M320,176c-8.837,0-16,7.163-16,16v53l-111.68-67.44c-5.107-3.06-11.728-1.4-14.788,3.707
	c-1.014,1.692-1.544,3.63-1.532,5.603v138.26c-0.035,5.954,4.764,10.808,10.717,10.842c1.973,0.011,3.911-0.519,5.603-1.532L304,267
	v53c0,8.837,7.163,16,16,16s16-7.163,16-16V192C336,183.163,328.837,176,320,176z"/>
</svg>
