<?xml version="1.0" encoding="iso-8859-1"?>
<!-- Generator: Adobe Illustrator 24.3.0, SVG Export Plug-In . SVG Version: 6.00 Build 0)  -->
<svg version="1.1" id="Layer_1" xmlns="http://www.w3.org/2000/svg" xmlns:xlink="http://www.w3.org/1999/xlink" x="0px" y="0px"
	 viewBox="0 0 512 512" style="enable-background:new 0 0 512 512;" xml:space="preserve">
<path d="M132.935,440.004c-6.003,0-12.004-1.557-17.501-4.676C103.447,428.525,96,415.371,96,401V111
	c0-14.371,7.447-27.525,19.435-34.329c11.251-6.386,24.622-6.225,35.769,0.432l247.914,148.377
	c10.564,6.32,16.873,17.729,16.873,30.52c0,12.79-6.309,24.199-16.876,30.521L151.217,434.888
	C145.509,438.297,139.221,440.004,132.935,440.004z M132.961,103.999c-0.512,0-1.088,0.137-1.731,0.502
	c-1.562,0.886-3.23,3.059-3.23,6.499v290c0,3.439,1.668,5.611,3.229,6.498c1.565,0.888,2.728,0.426,3.567-0.076l247.887-148.36
	c0.965-0.577,1.307-2.01,1.307-3.062c0-1.052-0.342-2.484-1.304-3.06L134.783,104.569
	C134.297,104.279,133.694,103.999,132.961,103.999z"/>
<path d="M400,448c-8.837,0-16-7.163-16-16V80c0-8.836,7.163-16,16-16s16,7.164,16,16v352C416,440.837,408.837,448,400,448z"/>
</svg>
