<?xml version="1.0" encoding="iso-8859-1"?>
<!-- Generator: Adobe Illustrator 24.3.0, SVG Export Plug-In . SVG Version: 6.00 Build 0)  -->
<svg version="1.1" id="Layer_1" xmlns="http://www.w3.org/2000/svg" xmlns:xlink="http://www.w3.org/1999/xlink" x="0px" y="0px"
	 viewBox="0 0 512 512" style="enable-background:new 0 0 512 512;" xml:space="preserve">
<path d="M47.981,400.047c-5.213,0-10.432-1.352-15.215-4.062C22.424,390.126,16,378.835,16,366.52v-221
	c0-12.354,6.449-23.652,16.831-29.487c9.804-5.51,21.408-5.311,31.055,0.531L252.715,229.54c9.215,5.515,14.716,15.433,14.716,26.53
	c0,11.098-5.501,21.015-14.714,26.529L63.845,395.601C58.901,398.563,53.443,400.047,47.981,400.047z M48.172,144.453
	C48.078,144.7,48,145.046,48,145.52v221c0,0.524,0.095,0.895,0.205,1.147L234.731,256.07L48.172,144.453z"/>
<path d="M276.552,400.047c-5.214,0-10.432-1.352-15.216-4.062c-10.341-5.859-16.766-17.15-16.766-29.466v-221
	c0-12.352,6.446-23.649,16.822-29.484c9.802-5.513,21.412-5.314,31.063,0.529L481.285,229.54C490.5,235.056,496,244.973,496,256.07
	c0,11.097-5.5,21.015-14.712,26.529L292.415,395.601C287.472,398.563,282.014,400.047,276.552,400.047z M276.742,144.453
	c-0.095,0.246-0.172,0.593-0.172,1.067v221c0,0.524,0.095,0.895,0.205,1.147L463.302,256.07L276.742,144.453z"/>
</svg>
