<?xml version="1.0" encoding="iso-8859-1"?>
<!-- Generator: Adobe Illustrator 24.3.0, SVG Export Plug-In . SVG Version: 6.00 Build 0)  -->
<svg version="1.1" id="Layer_1" xmlns="http://www.w3.org/2000/svg" xmlns:xlink="http://www.w3.org/1999/xlink" x="0px" y="0px"
	 viewBox="0 0 512 512" style="enable-background:new 0 0 512 512;" xml:space="preserve">
<path d="M256,48C141.31,48,48,141.31,48,256s93.31,208,208,208s208-93.31,208-208S370.69,48,256,48z M330.77,265.3l-114.45,69.14
	c-5.107,3.06-11.728,1.4-14.788-3.707c-1.014-1.692-1.544-3.63-1.532-5.603V186.87c-0.035-5.954,4.764-10.808,10.717-10.842
	c1.973-0.011,3.911,0.519,5.603,1.532l114.45,69.14c5.136,3.129,6.763,9.83,3.634,14.966C333.5,263.15,332.254,264.396,330.77,265.3
	z"/>
</svg>
