<?xml version="1.0" encoding="iso-8859-1"?>
<!-- Generator: Adobe Illustrator 24.3.0, SVG Export Plug-In . SVG Version: 6.00 Build 0)  -->
<svg version="1.1" id="Layer_1" xmlns="http://www.w3.org/2000/svg" xmlns:xlink="http://www.w3.org/1999/xlink" x="0px" y="0px"
	 viewBox="0 0 512 512" style="enable-background:new 0 0 512 512;" xml:space="preserve">
<path d="M379.061,440.005c-6.283,0-12.563-1.705-18.264-5.108L112.873,286.52C102.309,280.2,96,268.79,96,256
	c0-12.79,6.309-24.2,16.876-30.521L360.783,77.111c11.16-6.666,24.532-6.825,35.782-0.44C408.553,83.475,416,96.629,416,111v290
	c0,14.37-7.446,27.524-19.435,34.328C391.068,438.449,385.063,440.005,379.061,440.005z M379.041,104
	c-0.735,0-1.343,0.281-1.838,0.577L129.307,252.939c-0.965,0.577-1.307,2.01-1.307,3.062c0,1.052,0.341,2.483,1.304,3.06
	l247.913,148.37c0.825,0.494,1.988,0.956,3.554,0.068C382.332,406.612,384,404.44,384,401V111c0-3.44-1.668-5.612-3.229-6.499
	C380.128,104.137,379.554,104,379.041,104z"/>
<path d="M112,448c-8.836,0-16-7.163-16-16V80c0-8.836,7.164-16,16-16s16,7.164,16,16v352C128,440.837,120.836,448,112,448z"/>
</svg>
