<?xml version="1.0" encoding="iso-8859-1"?>
<!-- Generator: Adobe Illustrator 24.3.0, SVG Export Plug-In . SVG Version: 6.00 Build 0)  -->
<svg version="1.1" id="Layer_1" xmlns="http://www.w3.org/2000/svg" xmlns:xlink="http://www.w3.org/1999/xlink" x="0px" y="0px"
	 viewBox="0 0 512 512" style="enable-background:new 0 0 512 512;" xml:space="preserve">
<path d="M320,32H192c-17.673,0-32,14.327-32,32v412c0,2.209,1.791,4,4,4h184c2.209,0,4-1.791,4-4V64C352,46.327,337.673,32,320,32z"
	/>
<path d="M464,192h-72c-4.418,0-8,3.582-8,8v272c0,4.418,3.582,8,8,8h80c13.255,0,24-10.745,24-24V224
	C496,206.327,481.673,192,464,192z"/>
<path d="M48,128c-17.673,0-32,14.327-32,32v296c0,13.255,10.745,24,24,24h80c4.418,0,8-3.582,8-8V136c0-4.418-3.582-8-8-8H48z"/>
</svg>
