<?xml version="1.0" encoding="iso-8859-1"?>
<!-- Generator: Adobe Illustrator 24.3.0, SVG Export Plug-In . SVG Version: 6.00 Build 0)  -->
<svg version="1.1" id="Layer_1" xmlns="http://www.w3.org/2000/svg" xmlns:xlink="http://www.w3.org/1999/xlink" x="0px" y="0px"
	 viewBox="0 0 512 532" style="enable-background:new 0 0 512 532;" xml:space="preserve">
<g id="Page-1">
	<path id="Shape_3_" d="M450.968,0.527H115.904c-33.677,0-61.029,27.353-61.029,61.03v23.19c0,7.302-5.92,13.222-13.222,13.222
		H25.728C11.537,97.969,0,109.506,0,123.696c0,14.19,11.455,25.727,25.728,25.727h15.926c7.302,0,13.222,5.92,13.222,13.222v17.063
		c0,7.302-5.92,13.222-13.222,13.222H25.728C11.537,192.931,0,204.386,0,218.658c0,14.103,11.455,25.728,25.728,25.728h15.926
		c7.302,0,13.222,5.919,13.222,13.222v16.978c0,7.302-5.919,13.221-13.22,13.222l-15.928,0.002C11.537,287.81,0,299.265,0,313.537
		c0,14.103,11.455,25.728,25.728,25.728h15.926c7.302,0,13.222,5.919,13.222,13.222v16.976c0,7.3-5.92,13.224-13.222,13.224H25.728
		C11.537,382.687,0,394.221,0,408.412s11.455,25.73,25.728,25.73h15.926c7.302,0,13.222,5.919,13.222,13.222v23.275
		c0,33.676,27.352,61.028,61.029,61.028h335.063c33.681,0,61.032-27.352,61.032-61.028V61.56
		C512,27.883,484.565,0.527,450.968,0.527z M494.86,470.471c0.026,0,0.044,0.022,0.044,0.044
		c-0.022,24.17-19.762,43.892-43.936,43.892H185.197c-7.302,0-13.222-5.919-13.222-13.222V30.848
		c0-7.302,5.919-13.222,13.222-13.222H450.88c24.187,0,43.936,19.746,43.936,43.935v408.862
		C494.816,470.449,494.834,470.467,494.86,470.471z"/>
	<path id="Path_5_" d="M429.839,401.832H225.985c-4.702,0-8.547,3.843-8.547,8.546c0,4.703,3.845,8.55,8.547,8.55h203.854
		c4.703,0,8.546-3.848,8.546-8.55C438.385,405.596,434.542,401.832,429.839,401.832z"/>
	<path id="Path_4_" d="M429.839,438.501H225.985c-4.702,0-8.547,3.848-8.547,8.55c0,4.703,3.845,8.546,8.547,8.546h203.854
		c4.703,0,8.546-3.843,8.546-8.546C438.385,442.353,434.542,438.501,429.839,438.501z"/>
	<path id="Path_3_" d="M429.839,364.991H225.985c-4.702,0-8.547,3.845-8.547,8.547c0,4.703,3.845,8.546,8.547,8.546h203.854
		c4.703,0,8.546-3.843,8.546-8.546C438.385,368.839,434.542,364.991,429.839,364.991z"/>
	<path id="Shape_2_" d="M325.749,76.106c-62.481,0-113.26,50.77-113.26,113.169c0,62.395,50.77,113.169,113.26,113.169
		c62.393,0,113.17-50.77,113.17-113.169C438.914,126.88,388.142,76.106,325.749,76.106z M325.749,130.383
		c14.532,0,26.239,11.797,26.239,26.239c0,14.532-11.711,26.239-26.239,26.239c-14.533,0-26.24-11.711-26.24-26.239
		C299.418,142.18,311.216,130.383,325.749,130.383z M366.603,248.166h-81.885c-7.693,0-12.907-7.52-10.598-14.871
		c7.008-21.797,27.439-37.608,51.542-37.608c24.532,0,45.133,16.24,51.797,38.549C379.596,241.157,373.955,248.166,366.603,248.166z
		"/>
</g>
</svg>
