<?xml version="1.0" encoding="UTF-8"?>
<svg width="314px" height="266px" viewBox="0 0 314 266" version="1.1" xmlns="http://www.w3.org/2000/svg" xmlns:xlink="http://www.w3.org/1999/xlink">
    <title>Group</title>
    <g id="Page-1" stroke="none" stroke-width="1"  fill-rule="evenodd">
        <g id="Group"  fill-rule="nonzero">
            <path d="M231.28022,0 C251.714756,0 268.28022,16.5654643 268.28022,37 C268.28022,57.4345357 251.714756,74 231.28022,74 L37,74 C16.5654643,74 0,57.4345357 0,37 C0,16.5654643 16.5654643,0 37,0 L231.28022,0 Z M231.28022,18 L37,18 C26.5065898,18 18,26.5065898 18,37 C18,47.4934102 26.5065898,56 37,56 L231.28022,56 C241.77363,56 250.28022,47.4934102 250.28022,37 C250.28022,26.5065898 241.77363,18 231.28022,18 Z" id="Rectangle"></path>
            <path d="M231.28022,192 C251.714756,192 268.28022,208.565464 268.28022,229 C268.28022,249.434536 251.714756,266 231.28022,266 L37,266 C16.5654643,266 0,249.434536 0,229 C0,208.565464 16.5654643,192 37,192 L231.28022,192 Z M231.28022,210 L37,210 C26.5065898,210 18,218.50659 18,229 C18,239.49341 26.5065898,248 37,248 L231.28022,248 C241.77363,248 250.28022,239.49341 250.28022,229 C250.28022,218.50659 241.77363,210 231.28022,210 Z" id="Rectangle"></path>
            <path d="M277,96 C297.434536,96 314,112.565464 314,133 C314,153.434536 297.434536,170 277,170 L82.7197802,170 C62.2852445,170 45.7197802,153.434536 45.7197802,133 C45.7197802,112.565464 62.2852445,96 82.7197802,96 L277,96 Z M277,114 L82.7197802,114 C72.22637,114 63.7197802,122.50659 63.7197802,133 C63.7197802,143.49341 72.22637,152 82.7197802,152 L277,152 C287.49341,152 296,143.49341 296,133 C296,122.50659 287.49341,114 277,114 Z" id="Rectangle"></path>
        </g>
    </g>
</svg>