<?xml version="1.0" encoding="iso-8859-1"?>
<!-- Generator: Adobe Illustrator 24.3.0, SVG Export Plug-In . SVG Version: 6.00 Build 0)  -->
<svg version="1.1" id="Layer_1" xmlns="http://www.w3.org/2000/svg" xmlns:xlink="http://www.w3.org/1999/xlink" x="0px" y="0px"
	 viewBox="0 0 512 512" style="enable-background:new 0 0 512 512;" xml:space="preserve">
<path d="M256,464c-114.69,0-208-93.47-208-208.35c0-62.45,27.25-121,74.76-160.55c9.315-7.801,23.191-6.573,30.992,2.743
	s6.573,23.191-2.743,30.992c-0.026,0.022-0.053,0.044-0.079,0.066C113.48,160.1,92,206.3,92,255.65C92,346.27,165.57,420,256,420
	s164-73.73,164-164.35c-0.005-49.038-21.955-95.502-59.83-126.65c-9.577-7.477-11.28-21.302-3.803-30.879s21.302-11.28,30.879-3.803
	c0.315,0.246,0.623,0.5,0.923,0.762c48.015,39.492,75.835,98.4,75.83,160.57C464,370.53,370.69,464,256,464z"/>
<path d="M256,272c-12.15,0-22-9.85-22-22V70c0-12.15,9.85-22,22-22s22,9.85,22,22v180C278,262.15,268.15,272,256,272z"/>
</svg>
