<?xml version="1.0" encoding="iso-8859-1"?>
<!-- Generator: Adobe Illustrator 24.3.0, SVG Export Plug-In . SVG Version: 6.00 Build 0)  -->
<svg version="1.1" id="Layer_1" xmlns="http://www.w3.org/2000/svg" xmlns:xlink="http://www.w3.org/1999/xlink" x="0px" y="0px"
	 viewBox="0 0 512 512" style="enable-background:new 0 0 512 512;" xml:space="preserve">
<path d="M256,464C141.309,464,48,370.692,48,256c-0.185-62.059,27.061-120.499,74.75-160.286c6.787-5.662,16.875-4.748,22.536,2.036
	c5.661,6.785,4.75,16.875-2.036,22.536C102.897,153.952,79.844,203.4,80,255.953C80,353.047,158.953,432,256,432
	S432,353.047,432,256c0.006-52.742-23.375-102.177-64.148-135.63c-6.832-5.605-7.826-15.687-2.221-22.519
	c5.606-6.831,15.688-7.825,22.518-2.221c48.212,39.557,75.859,98.01,75.852,160.372C464,370.692,370.691,464,256,464z"/>
<path d="M256,272c-8.836,0-16-7.164-16-16.001V64c0-8.836,7.164-16,16-16c8.837,0,16,7.164,16,16v192
	C272,264.836,264.837,272,256,272z"/>
</svg>
