<svg width="50" height="50" viewBox="0 0 50 50"  xmlns="http://www.w3.org/2000/svg">
<g filter="url(#filter0_d_4164_242588)">
<rect x="5" y="5" width="40" height="40" rx="6" fill="#F9F5FF"/>
<rect x="5.5" y="5.5" width="39" height="39" rx="5.5" stroke="#B380FF" stroke-dasharray="2 2"/>
</g>
<path d="M31.1689 14.5H19.5008C18.1199 14.5 17.0005 15.6194 17.0005 17.0003V33.6691C17.0005 35.0499 18.1199 36.1694 19.5008 36.1694H31.1689C32.5498 36.1694 33.6692 35.0499 33.6692 33.6691V17.0003C33.6692 15.6194 32.5498 14.5 31.1689 14.5Z" stroke="#B380FF" stroke-width="1.5" stroke-linejoin="round"/>
<path d="M21.168 18.668H29.5023" stroke="#B380FF" stroke-width="1.5" stroke-linecap="round" stroke-linejoin="round"/>
<path d="M21.168 22.835H29.5023" stroke="#B380FF" stroke-width="1.5" stroke-linecap="round" stroke-linejoin="round"/>
<path d="M21.168 27.002H25.3352" stroke="#B380FF" stroke-width="1.5" stroke-linecap="round" stroke-linejoin="round"/>
<path d="M29.0682 27C28.4613 27 27.8681 27.1799 27.3636 27.5171C26.859 27.8542 26.4658 28.3334 26.2336 28.894C26.0013 29.4547 25.9406 30.0716 26.059 30.6667C26.1773 31.2619 26.4696 31.8086 26.8986 32.2377C27.3277 32.6668 27.8744 32.959 28.4696 33.0774C29.0648 33.1958 29.6817 33.135 30.2423 32.9028C30.8029 32.6706 31.2821 32.2773 31.6193 31.7727C31.9564 31.2682 32.1363 30.675 32.1363 30.0682C32.1363 29.2545 31.813 28.4741 31.2376 27.8987C30.6622 27.3233 29.8819 27.0001 29.0682 27V27Z" stroke="#B380FF" stroke-miterlimit="10"/>
<path d="M31.3574 32.3574L33.5002 34.5002" stroke="#B380FF" stroke-miterlimit="10" stroke-linecap="round"/>
<defs>
<filter id="filter0_d_4164_242588" x="0" y="0" width="50" height="50" filterUnits="userSpaceOnUse" color-interpolation-filters="sRGB">
<feFlood flood-opacity="0" result="BackgroundImageFix"/>
<feColorMatrix in="SourceAlpha" type="matrix" values="0 0 0 0 0 0 0 0 0 0 0 0 0 0 0 0 0 0 127 0" result="hardAlpha"/>
<feOffset/>
<feGaussianBlur stdDeviation="2.5"/>
<feComposite in2="hardAlpha" operator="out"/>
<feColorMatrix type="matrix" values="0 0 0 0 0 0 0 0 0 0 0 0 0 0 0 0 0 0 0.1 0"/>
<feBlend mode="normal" in2="BackgroundImageFix" result="effect1_dropShadow_4164_242588"/>
<feBlend mode="normal" in="SourceGraphic" in2="effect1_dropShadow_4164_242588" result="shape"/>
</filter>
</defs>
</svg>
