<?xml version="1.0" encoding="iso-8859-1"?>
<!-- Generator: Adobe Illustrator 24.3.0, SVG Export Plug-In . SVG Version: 6.00 Build 0)  -->
<svg version="1.1" id="Layer_1" xmlns="http://www.w3.org/2000/svg" xmlns:xlink="http://www.w3.org/1999/xlink" x="0px" y="0px"
	 viewBox="0 0 512 512" style="enable-background:new 0 0 512 512;" xml:space="preserve">
<path d="M161.745,463.957c-11.458,0-22.91-4.339-31.63-13.015L13.086,333.914c-17.387-17.472-17.387-45.855-0.028-63.3
	L258.848,24.885C264.629,19.142,272.252,16,280.351,16c0.007,0,0.013,0,0.02,0l123.233,0.001
	c24.58,0.12,44.517,20.251,44.396,44.877V183.8c0.006,8.094-3.137,15.725-8.849,21.476l-245.73,245.64
	C184.682,459.611,173.211,463.957,161.745,463.957z M280.987,48L35.712,293.215c-4.945,4.969-4.945,13.101,0.029,18.099
	l116.972,116.973c4.973,4.946,13.111,4.948,18.111-0.029L416,183.172V60.8c0.034-7.059-5.617-12.766-12.598-12.8l-0.112,0H280.987z
	 M280.36,48L280.36,48L280.36,48L280.36,48z"/>
<circle cx="352" cy="112" r="32"/>
<path d="M230,496c-4.095,0-8.189-1.562-11.313-4.687c-6.249-6.248-6.249-16.379,0-22.627L480,207.372V80c0-8.836,7.163-16,16-16
	s16,7.164,16,16v127.868c0.108,7.956-3.034,15.746-8.639,21.398L241.313,491.314C238.189,494.438,234.095,496,230,496z"/>
</svg>
