<?xml version="1.0" encoding="iso-8859-1"?>
<!-- Generator: Adobe Illustrator 24.3.0, SVG Export Plug-In . SVG Version: 6.00 Build 0)  -->
<svg version="1.1" id="Layer_1" xmlns="http://www.w3.org/2000/svg" xmlns:xlink="http://www.w3.org/1999/xlink" x="0px" y="0px"
	 viewBox="0 0 512 512" style="enable-background:new 0 0 512 512;" xml:space="preserve">
<path d="M193.79,479.957c-11.457,0-22.907-4.34-31.626-13.017L45.136,349.914c-17.387-17.472-17.387-45.855-0.027-63.3
	L290.837,40.886C296.619,35.142,304.242,32,312.34,32c0.007,0,0.013,0,0.02,0l123.2,0.001c24.574,0.12,44.511,20.252,44.391,44.877
	V199.8c0.006,8.092-3.136,15.722-8.847,21.474l-245.64,245.64C216.725,475.611,205.254,479.957,193.79,479.957z M312.978,64
	L67.764,309.213c-4.946,4.971-4.946,13.103,0.028,18.101l116.972,116.973c4.97,4.944,13.102,4.946,18.1-0.027L447.95,199.172V76.8
	c0.034-7.059-5.617-12.766-12.598-12.8l-0.103,0H312.978z M312.35,64L312.35,64L312.35,64L312.35,64z"/>
<circle cx="384" cy="128" r="32"/>
</svg>
