<?xml version="1.0" encoding="iso-8859-1"?>
<!-- Generator: Adobe Illustrator 24.3.0, SVG Export Plug-In . SVG Version: 6.00 Build 0)  -->
<svg version="1.1" id="Layer_1" xmlns="http://www.w3.org/2000/svg" xmlns:xlink="http://www.w3.org/1999/xlink" x="0px" y="0px"
	 viewBox="0 0 512 512" style="enable-background:new 0 0 512 512;" xml:space="preserve">
<path d="M448,183.8v-123c0.077-24.665-19.855-44.722-44.52-44.8c-0.063,0-0.127,0-0.19,0H280.36
	c-8.061,0.017-15.79,3.211-21.51,8.89L13.09,270.58c-17.451,17.507-17.451,45.833,0,63.34l117,117
	c17.502,17.456,45.828,17.456,63.33,0l245.69-245.61C444.791,199.591,447.986,191.861,448,183.8z M352,144
	c-17.673,0-32-14.327-32-32s14.327-32,32-32s32,14.327,32,32S369.673,144,352,144z"/>
<path d="M496,64c-8.837,0-16,7.163-16,16v127.37L218.69,468.69c-6.406,6.086-6.666,16.214-0.579,22.62s16.214,6.666,22.62,0.579
	c0.198-0.188,0.391-0.381,0.579-0.579l262-262c5.63-5.656,8.759-13.33,8.69-21.31V80C512,71.163,504.837,64,496,64z"/>
</svg>
