<?xml version="1.0" encoding="iso-8859-1"?>
<!-- Generator: Adobe Illustrator 24.3.0, SVG Export Plug-In . SVG Version: 6.00 Build 0)  -->
<svg version="1.1" id="Layer_1" xmlns="http://www.w3.org/2000/svg" xmlns:xlink="http://www.w3.org/1999/xlink" x="0px" y="0px"
	 viewBox="0 0 512 512" style="enable-background:new 0 0 512 512;" xml:space="preserve">
<path d="M467,45.2c-8.374-8.471-19.798-13.227-31.71-13.2H312.36c-8.064,0.015-15.797,3.209-21.52,8.89L45.09,286.59
	c-17.46,17.496-17.46,45.824,0,63.32l117,117c17.5,17.468,45.84,17.468,63.34,0l245.65-245.6c5.692-5.714,8.898-13.445,8.92-21.51
	v-123C480.073,64.951,475.39,53.567,467,45.2z M384,160c-17.673,0-32-14.327-32-32s14.327-32,32-32s32,14.327,32,32
	S401.673,160,384,160z"/>
</svg>
