<?xml version="1.0" encoding="iso-8859-1"?>
<!-- Generator: Adobe Illustrator 24.3.0, SVG Export Plug-In . SVG Version: 6.00 Build 0)  -->
<svg version="1.1" id="Layer_1" xmlns="http://www.w3.org/2000/svg" xmlns:xlink="http://www.w3.org/1999/xlink" x="0px" y="0px"
	 viewBox="0 0 512 512" style="enable-background:new 0 0 512 512;" xml:space="preserve">
<path d="M400,96V56c0-4.418-3.582-8-8-8H120c-4.418,0-8,3.582-8,8v40"/>
<path style="fill:none;" d="M156,264h200c2.209,0,4,1.791,4,4v152c0,2.209-1.791,4-4,4H156c-2.209,0-4-1.791-4-4V268
	C152,265.791,153.791,264,156,264z"/>
<path style="fill:none;" d="M156,264h200c2.209,0,4,1.791,4,4v152c0,2.209-1.791,4-4,4H156c-2.209,0-4-1.791-4-4V268
	C152,265.791,153.791,264,156,264z"/>
<path d="M408,112H104c-30.928,0-56,25.072-56,56v208c0,4.418,3.582,8,8,8h56v72c0,4.418,3.582,8,8,8h272c4.418,0,8-3.582,8-8v-72h56
	c4.418,0,8-3.582,8-8V168C464,137.072,438.928,112,408,112z M360,420c0,2.209-1.791,4-4,4H156c-2.209,0-4-1.791-4-4V268
	c0-2.209,1.791-4,4-4h200c2.209,0,4,1.791,4,4V420z M394,207.92c-13.212,1.062-24.784-8.788-25.846-22
	c-1.062-13.212,8.788-24.784,22-25.846c13.212-1.062,24.784,8.788,25.846,22c0.103,1.28,0.103,2.566,0,3.846
	C415.057,197.657,405.737,206.977,394,207.92z"/>
</svg>
