<?xml version="1.0" encoding="iso-8859-1"?>
<!-- Generator: Adobe Illustrator 24.3.0, SVG Export Plug-In . SVG Version: 6.00 Build 0)  -->
<svg version="1.1" id="Layer_1" xmlns="http://www.w3.org/2000/svg" xmlns:xlink="http://www.w3.org/1999/xlink" x="0px" y="0px"
	 viewBox="0 0 512 512" style="enable-background:new 0 0 512 512;" xml:space="preserve">
<path d="M408,112H106c-32.033,0-58,25.967-58,58v158c0,30.928,25.072,56,56,56h8v39.68c0,22.268,18.052,40.32,40.32,40.32h0h207.36
	c22.268,0,40.32-18.052,40.32-40.32l0,0V384h8c30.928,0,56-25.072,56-56V168C464,137.072,438.928,112,408,112z M368,423.68
	c-0.016,4.588-3.732,8.304-8.32,8.32H152.32c-4.588-0.016-8.304-3.732-8.32-8.32V264.32c0.016-4.588,3.732-8.304,8.32-8.32h207.36
	c4.588,0.016,8.304,3.732,8.32,8.32V423.68z M394,207.92c-13.212,1.062-24.784-8.788-25.846-22
	c-1.062-13.212,8.788-24.784,22-25.846c13.212-1.062,24.784,8.788,25.846,22c0.103,1.28,0.103,2.566,0,3.846
	C415.057,197.657,405.737,206.977,394,207.92z"/>
<path d="M344,48H168c-27.821,0.041-51.407,20.47-55.42,48h286.84C395.407,68.47,371.821,48.041,344,48z"/>
</svg>
