<?xml version="1.0" encoding="iso-8859-1"?>
<!-- Generator: Adobe Illustrator 24.3.0, SVG Export Plug-In . SVG Version: 6.00 Build 0)  -->
<svg version="1.1" id="Layer_1" xmlns="http://www.w3.org/2000/svg" xmlns:xlink="http://www.w3.org/1999/xlink" x="0px" y="0px"
	 viewBox="0 0 512 512" style="enable-background:new 0 0 512 512;" xml:space="preserve">
<path d="M384,384v-32h24c13.173-0.04,23.961-10.827,24-24.048V168c-0.039-13.173-10.827-23.96-24.048-24H104
	c-13.173,0.04-23.96,10.827-24,24.048V328c0.04,13.173,10.828,23.96,24.048,24H128v32h-24c-30.808-0.093-55.908-25.192-56-55.952
	V168c0.092-30.808,25.192-55.908,55.952-56H408c30.809,0.092,55.908,25.192,56,55.953V328c-0.092,30.808-25.191,55.907-55.952,56
	H384z"/>
<path d="M359.68,464H152.32c-22.232,0-40.32-18.088-40.32-40.32V264.32c0-22.232,18.087-40.32,40.32-40.32h207.36
	c22.232,0,40.32,18.087,40.32,40.32v159.36C400,445.913,381.912,464,359.68,464z M152.32,256c-4.587,0-8.32,3.732-8.32,8.32v159.36
	c0,4.588,3.732,8.32,8.32,8.32h207.36c4.588,0,8.32-3.732,8.32-8.32V264.32c0-4.588-3.732-8.32-8.32-8.32H152.32z"/>
<path d="M400,128h-32v-24c-0.039-13.173-10.827-23.96-24.048-24H168c-13.173,0.04-23.96,10.827-24,24.048V128h-32v-24
	c0.092-30.808,25.192-55.908,55.952-56H344c30.809,0.092,55.909,25.192,56,55.953V128z"/>
<circle cx="392" cy="184" r="24"/>
</svg>
