<?xml version="1.0" encoding="iso-8859-1"?>
<!-- Generator: Adobe Illustrator 24.3.0, SVG Export Plug-In . SVG Version: 6.00 Build 0)  -->
<svg version="1.1" id="icons" xmlns="http://www.w3.org/2000/svg" xmlns:xlink="http://www.w3.org/1999/xlink" x="0px" y="0px"
	 viewBox="0 0 512 512" style="enable-background:new 0 0 512 512;" xml:space="preserve">
<path d="M255.961,496.014c-7.726,0-15.452-1.879-22.496-5.639L41.312,387.909c-1.542-0.82-3.061-1.741-4.507-2.73
	c-21.749-14.863-27.353-44.66-12.484-66.416L216.51,36.867c0.001-0.001,0.002-0.003,0.003-0.004
	c3.378-4.952,7.602-9.174,12.551-12.55c10.547-7.195,23.266-9.854,35.811-7.48c12.546,2.37,23.418,9.485,30.612,20.032
	l192.162,281.874c0.981,1.436,1.901,2.954,2.723,4.497c5.996,11.268,7.247,24.197,3.52,36.406s-11.985,22.235-23.254,28.233
	L278.449,490.377C271.41,494.135,263.686,496.014,255.961,496.014z M242.95,54.893l-192.2,281.91
	c-4.922,7.203-3.071,17.048,4.117,21.96c0.481,0.329,0.981,0.632,1.492,0.904l192.169,102.475
	c4.656,2.485,10.209,2.486,14.857,0.003l192.205-102.512c7.698-4.098,10.623-13.679,6.532-21.364
	c-0.271-0.508-0.573-1.009-0.902-1.49L269.05,54.893c-2.376-3.483-5.97-5.834-10.116-6.618c-4.148-0.785-8.35,0.094-11.837,2.473
	c-1.637,1.116-3.033,2.512-4.15,4.149L242.95,54.893z"/>
<path d="M256,496c-8.836,0-16-7.163-16-16V32c0-8.836,7.164-16,16-16c8.837,0,16,7.164,16,16v448C272,488.837,264.837,496,256,496z"
	/>
</svg>
