<?xml version="1.0" encoding="iso-8859-1"?>
<!-- Generator: Adobe Illustrator 24.3.0, SVG Export Plug-In . SVG Version: 6.00 Build 0)  -->
<svg version="1.1" id="icons" xmlns="http://www.w3.org/2000/svg" xmlns:xlink="http://www.w3.org/1999/xlink" x="0px" y="0px"
	 viewBox="0 0 512 512" style="enable-background:new 0 0 512 512;" xml:space="preserve">
<path d="M487.83,319.44L295.63,36.88c-14.957-21.887-44.825-27.505-66.713-12.547c-4.926,3.366-9.181,7.622-12.547,12.547
	L24.17,319.44c-14.631,21.508-9.055,50.804,12.453,65.435c1.441,0.98,2.936,1.88,4.477,2.695l192.2,102.75
	c14.179,7.6,31.221,7.6,45.4,0l192.2-102.75c22.997-12.158,31.783-40.656,19.625-63.653
	C489.71,322.376,488.81,320.881,487.83,319.44z M56.57,360.44c-4.016-2.171-6.924-5.943-8-10.38c-1.201-4.67-0.338-9.63,2.37-13.62
	L232.66,69.26c2.18-3.21,7.34-1.72,7.34,2.13v374c0,5.9-6.54,9.63-11.87,6.78L56.57,360.44z"/>
</svg>
