<?xml version="1.0" encoding="iso-8859-1"?>
<!-- Generator: Adobe Illustrator 24.3.0, SVG Export Plug-In . SVG Version: 6.00 Build 0)  -->
<svg version="1.1" id="Layer_1" xmlns="http://www.w3.org/2000/svg" xmlns:xlink="http://www.w3.org/1999/xlink" x="0px" y="0px"
	 viewBox="0 0 512 512" style="enable-background:new 0 0 512 512;" xml:space="preserve">
<path d="M240.007,464c-0.303,0-0.606-0.009-0.912-0.025c-7.469-0.423-13.647-5.965-14.877-13.344l-51.353-308.12l-45.342,181.37
	C125.742,331.003,119.342,336,112,336H48c-8.836,0-16-7.163-16-16s7.164-16,16-16h51.507l60.97-243.881
	c1.838-7.354,8.556-12.426,16.161-12.107c7.575,0.303,13.897,5.879,15.144,13.357l52.332,313.991l44.501-155.756
	c1.928-6.745,8.023-11.448,15.037-11.601c7.048-0.138,13.308,4.281,15.526,10.937L347.532,304H400c8.837,0,16,7.163,16,16
	s-7.163,16-16,16h-64c-6.887,0-13.001-4.407-15.179-10.94l-15.646-46.936l-49.792,174.271C253.413,459.294,247.109,464,240.007,464z
	"/>
<path d="M432,368c-26.468,0-48-21.532-48-48s21.532-48,48-48s48,21.532,48,48S458.468,368,432,368z M432,304
	c-8.822,0-16,7.178-16,16s7.178,16,16,16s16-7.178,16-16S440.822,304,432,304z"/>
</svg>
