<?xml version="1.0" encoding="iso-8859-1"?>
<!-- Generator: Adobe Illustrator 24.3.0, SVG Export Plug-In . SVG Version: 6.00 Build 0)  -->
<svg version="1.1" id="Layer_1" xmlns="http://www.w3.org/2000/svg" xmlns:xlink="http://www.w3.org/1999/xlink" x="0px" y="0px"
	 viewBox="0 0 512 512" style="enable-background:new 0 0 512 512;" xml:space="preserve">
<path d="M432,272c-20.331,0.029-38.448,12.84-45.25,32h-39.22l-28.35-85.06c-2.796-8.382-11.858-12.911-20.241-10.115
	c-5.006,1.67-8.867,5.701-10.319,10.775l-44.51,155.76l-52.33-314c-1.459-8.715-9.707-14.598-18.422-13.139
	c-6.275,1.05-11.331,5.718-12.878,11.889L99.51,304H48c-8.837,0-16,7.163-16,16s7.163,16,16,16h64
	c7.341-0.001,13.74-4.998,15.52-12.12l45.34-181.37l51.36,308.12c1.219,7.39,7.402,12.946,14.88,13.37c0.3,0,0.6,0,0.91,0
	c7.137-0.006,13.407-4.738,15.37-11.6l49.8-174.28l15.64,46.94c2.178,6.534,8.293,10.941,15.18,10.94h50.75
	c8.837,24.994,36.261,38.091,61.255,29.255c24.994-8.837,38.091-36.261,29.255-61.255C470.479,284.82,452.343,271.998,432,272z"/>
</svg>
