<?xml version="1.0" encoding="iso-8859-1"?>
<!-- Generator: Adobe Illustrator 24.3.0, SVG Export Plug-In . SVG Version: 6.00 Build 0)  -->
<svg version="1.1" id="Layer_1" xmlns="http://www.w3.org/2000/svg" xmlns:xlink="http://www.w3.org/1999/xlink" x="0px" y="0px"
	 viewBox="0 0 512 512" style="enable-background:new 0 0 512 512;" xml:space="preserve">
<path d="M426,266c-21.302,0.024-40.605,12.553-49.3,32h-24.84l-27-81c-3.866-11.519-16.338-17.723-27.856-13.857
	c-6.857,2.301-12.145,7.826-14.144,14.777l-37.2,130.2l-48-281.74c-2.055-11.975-13.428-20.018-25.403-17.963
	c-8.557,1.468-15.45,7.831-17.597,16.243L94.82,298H32v44h80c10.093-0.001,18.89-6.869,21.34-16.66L171.69,172l46.61,273.62
	c1.678,10.16,10.179,17.797,20.46,18.38c0.42,0,0.82,0,1.24,0c9.834-0.007,18.468-6.539,21.15-16l44.47-149.62l9.51,28.62
	c3.009,8.966,11.412,15.006,20.87,15h40.7c12.15,27.236,44.079,39.466,71.315,27.315c27.236-12.15,39.466-44.079,27.315-71.315
	C466.645,278.531,447.319,265.994,426,266z"/>
</svg>
