<?xml version="1.0" encoding="iso-8859-1"?>
<!-- Generator: Adobe Illustrator 24.3.0, SVG Export Plug-In . SVG Version: 6.00 Build 0)  -->
<svg version="1.1" id="Layer_1" xmlns="http://www.w3.org/2000/svg" xmlns:xlink="http://www.w3.org/1999/xlink" x="0px" y="0px"
	 viewBox="0 0 512 512" style="enable-background:new 0 0 512 512;" xml:space="preserve">
<path d="M376,352h-40c-8.837,0-16-7.163-16-16s7.163-16,16-16h40c13.233,0,24-10.767,24-24V88c0-13.233-10.767-24-24-24H136
	c-13.234,0-24,10.767-24,24v208c0,13.233,10.766,24,24,24h40c8.836,0,16,7.163,16,16s-7.164,16-16,16h-40c-30.878,0-56-25.121-56-56
	V88c0-30.878,25.122-56,56-56h240c30.879,0,56,25.122,56,56v208C432,326.879,406.879,352,376,352z"/>
<path d="M336,256c-4.095,0-8.189-1.562-11.313-4.687L256,182.627l-68.687,68.686c-6.248,6.25-16.379,6.25-22.627,0
	c-6.249-6.248-6.249-16.379,0-22.627l80-80c6.248-6.249,16.379-6.249,22.627,0l80,80c6.249,6.248,6.249,16.379,0,22.627
	C344.189,254.438,340.095,256,336,256z"/>
<path d="M256,480c-8.836,0-16-7.163-16-16V176c0-8.836,7.164-16,16-16c8.837,0,16,7.164,16,16v288C272,472.837,264.837,480,256,480z
	"/>
</svg>
