<?xml version="1.0" encoding="iso-8859-1"?>
<!-- Generator: Adobe Illustrator 24.3.0, SVG Export Plug-In . SVG Version: 6.00 Build 0)  -->
<svg version="1.1" id="Layer_1" xmlns="http://www.w3.org/2000/svg" xmlns:xlink="http://www.w3.org/1999/xlink" x="0px" y="0px"
	 viewBox="0 0 512 512" style="enable-background:new 0 0 512 512;" xml:space="preserve">
<path d="M344,336h64c4.418,0,8,3.582,8,8v64c0,4.418-3.582,8-8,8h-64c-4.418,0-8-3.582-8-8v-64C336,339.582,339.582,336,344,336z"/>
<path d="M280,272h48c4.418,0,8,3.582,8,8v48c0,4.418-3.582,8-8,8h-48c-4.418,0-8-3.582-8-8v-48C272,275.582,275.582,272,280,272z"/>
<path d="M424,416h48c4.418,0,8,3.582,8,8v48c0,4.418-3.582,8-8,8h-48c-4.418,0-8-3.582-8-8v-48C416,419.582,419.582,416,424,416z"/>
<path d="M440,272h32c4.418,0,8,3.582,8,8v32c0,4.418-3.582,8-8,8h-32c-4.418,0-8-3.582-8-8v-32C432,275.582,435.582,272,440,272z"/>
<path d="M280,432h32c4.418,0,8,3.582,8,8v32c0,4.418-3.582,8-8,8h-32c-4.418,0-8-3.582-8-8v-32C272,435.582,275.582,432,280,432z"/>
<path d="M344,96h64c4.418,0,8,3.582,8,8v64c0,4.418-3.582,8-8,8h-64c-4.418,0-8-3.582-8-8v-64C336,99.582,339.582,96,344,96z"/>
<path d="M448,240H304c-17.645,0-32-14.355-32-32V64c0-17.645,14.355-32,32-32h144c17.645,0,32,14.355,32,32v144
	C480,225.645,465.645,240,448,240z M304,64c-0.014,0-0.021,0.001-0.021,0.001L304,208h144V64H304z"/>
<path d="M104,96h64c4.418,0,8,3.582,8,8v64c0,4.418-3.582,8-8,8h-64c-4.418,0-8-3.582-8-8v-64C96,99.582,99.582,96,104,96z"/>
<path d="M208,240H64c-17.645,0-32-14.355-32-32V64c0-17.645,14.355-32,32-32h144c17.645,0,32,14.355,32,32v144
	C240,225.645,225.645,240,208,240z M64,64c-0.014,0-0.02,0.001-0.02,0.001L64,208h144V64H64z"/>
<path d="M104,336h64c4.418,0,8,3.582,8,8v64c0,4.418-3.582,8-8,8h-64c-4.418,0-8-3.582-8-8v-64C96,339.582,99.582,336,104,336z"/>
<path d="M208,480H64c-17.645,0-32-14.355-32-32V304c0-17.645,14.355-32,32-32h144c17.645,0,32,14.355,32,32v144
	C240,465.645,225.645,480,208,480z M64,304c-0.014,0-0.02,0.001-0.021,0.001L64,448h144V304H64z"/>
</svg>
