<?xml version="1.0" encoding="iso-8859-1"?>
<!-- Generator: Adobe Illustrator 24.3.0, SVG Export Plug-In . SVG Version: 6.00 Build 0)  -->
<svg version="1.1" id="Layer_1" xmlns="http://www.w3.org/2000/svg" xmlns:xlink="http://www.w3.org/1999/xlink" x="0px" y="0px"
	 viewBox="0 0 512 512" style="enable-background:new 0 0 512 512;" xml:space="preserve">
<path d="M344,336h64c4.418,0,8,3.582,8,8v64c0,4.418-3.582,8-8,8h-64c-4.418,0-8-3.582-8-8v-64C336,339.582,339.582,336,344,336z"/>
<path d="M280,272h48c4.418,0,8,3.582,8,8v48c0,4.418-3.582,8-8,8h-48c-4.418,0-8-3.582-8-8v-48C272,275.582,275.582,272,280,272z"/>
<path d="M424,416h48c4.418,0,8,3.582,8,8v48c0,4.418-3.582,8-8,8h-48c-4.418,0-8-3.582-8-8v-48C416,419.582,419.582,416,424,416z"/>
<path d="M440,272h32c4.418,0,8,3.582,8,8v32c0,4.418-3.582,8-8,8h-32c-4.418,0-8-3.582-8-8v-32C432,275.582,435.582,272,440,272z"/>
<path d="M280,432h32c4.418,0,8,3.582,8,8v32c0,4.418-3.582,8-8,8h-32c-4.418,0-8-3.582-8-8v-32C272,435.582,275.582,432,280,432z"/>
<path d="M448,32H304c-17.673,0-32,14.327-32,32v144c0,17.673,14.327,32,32,32h144c17.673,0,32-14.327,32-32V64
	C480,46.327,465.673,32,448,32z M416,168c0,4.418-3.582,8-8,8h-64c-4.418,0-8-3.582-8-8v-64c0-4.418,3.582-8,8-8h64
	c4.418,0,8,3.582,8,8V168z"/>
<path d="M208,32H64c-17.673,0-32,14.327-32,32v144c0,17.673,14.327,32,32,32h144c17.673,0,32-14.327,32-32V64
	C240,46.327,225.673,32,208,32z M176,168c0,4.418-3.582,8-8,8h-64c-4.418,0-8-3.582-8-8v-64c0-4.418,3.582-8,8-8h64
	c4.418,0,8,3.582,8,8V168z"/>
<path d="M208,272H64c-17.673,0-32,14.327-32,32v144c0,17.673,14.327,32,32,32h144c17.673,0,32-14.327,32-32V304
	C240,286.327,225.673,272,208,272z M176,408c0,4.418-3.582,8-8,8h-64c-4.418,0-8-3.582-8-8v-64c0-4.418,3.582-8,8-8h64
	c4.418,0,8,3.582,8,8V408z"/>
</svg>
