<?xml version="1.0" encoding="iso-8859-1"?>
<!-- Generator: Adobe Illustrator 24.3.0, SVG Export Plug-In . SVG Version: 6.00 Build 0)  -->
<svg version="1.1" id="Layer_1" xmlns="http://www.w3.org/2000/svg" xmlns:xlink="http://www.w3.org/1999/xlink" x="0px" y="0px"
	 viewBox="0 0 512 512" style="enable-background:new 0 0 512 512;" xml:space="preserve">
<circle cx="256" cy="256" r="36"/>
<path d="M190.24,341.77c-6.289,0.006-12.28-2.68-16.46-7.38c-39.723-44.704-39.723-112.056,0-156.76
	c7.917-9.217,21.806-10.272,31.023-2.355c9.217,7.917,10.272,21.806,2.355,31.023c-0.166,0.194-0.336,0.384-0.509,0.572
	c-24.901,28.032-24.901,70.258,0,98.29c8.069,9.084,7.246,22.989-1.838,31.058c-4.022,3.572-9.213,5.547-14.592,5.552L190.24,341.77
	z"/>
<path d="M321.76,341.77c-12.15-0.01-21.992-9.868-21.982-22.018c0.004-5.379,1.979-10.57,5.552-14.592
	c24.901-28.032,24.901-70.258,0-98.29c-8.232-8.936-7.661-22.854,1.275-31.087c8.936-8.232,22.854-7.662,31.087,1.275
	c0.173,0.188,0.342,0.378,0.509,0.572c39.723,44.704,39.723,112.056,0,156.76C334.025,339.085,328.042,341.77,321.76,341.77z"/>
<path d="M139.29,392.72c-6.101,0.006-11.928-2.531-16.08-7c-68.263-73.028-68.263-186.462,0-259.49
	c8.252-8.918,22.171-9.459,31.089-1.207c8.918,8.252,9.459,22.171,1.207,31.089c-0.055,0.06-0.111,0.119-0.166,0.178
	c-52.444,56.114-52.444,143.266,0,199.38c8.284,8.888,7.795,22.809-1.093,31.093c-4.064,3.788-9.411,5.898-14.967,5.907
	L139.29,392.72z"/>
<path d="M372.71,392.72c-12.15-0.018-21.985-9.883-21.967-22.033c0.008-5.556,2.119-10.902,5.907-14.967
	c52.444-56.114,52.444-143.266,0-199.38c-8.35-8.827-7.964-22.751,0.863-31.101c8.827-8.35,22.751-7.964,31.101,0.863
	c0.056,0.059,0.111,0.118,0.166,0.178c68.263,73.028,68.263,186.462,0,259.49C384.621,390.218,378.799,392.736,372.71,392.72z"/>
<path d="M429,438c-12.15-0.003-21.998-9.855-21.995-22.005c0.001-5.411,1.997-10.632,5.605-14.665
	c73.858-82.811,73.858-207.849,0-290.66c-7.938-9.199-6.916-23.091,2.283-31.029c8.964-7.735,22.442-6.989,30.497,1.689
	c88.805,99.515,88.805,249.825,0,349.34C441.218,435.333,435.257,437.999,429,438z"/>
<path d="M83,438c-6.266,0.012-12.238-2.656-16.41-7.33c-88.805-99.515-88.805-249.825,0-349.34
	c8.266-8.905,22.186-9.423,31.091-1.157c8.678,8.055,9.424,21.533,1.689,30.497c-73.858,82.811-73.858,207.849,0,290.66
	c8.102,9.055,7.33,22.963-1.725,31.065C93.618,435.999,88.404,437.994,83,438z"/>
</svg>
