<?xml version="1.0" encoding="iso-8859-1"?>
<!-- Generator: Adobe Illustrator 24.3.0, SVG Export Plug-In . SVG Version: 6.00 Build 0)  -->
<svg version="1.1" id="Layer_1" xmlns="http://www.w3.org/2000/svg" xmlns:xlink="http://www.w3.org/1999/xlink" x="0px" y="0px"
	 viewBox="0 0 512 512" style="enable-background:new 0 0 512 512;" xml:space="preserve">
<circle cx="256" cy="256.02" r="32"/>
<path d="M184.256,335.77c-4.413,0-8.806-1.814-11.967-5.373c-37.675-42.407-37.675-106.366,0-148.773
	c5.868-6.607,15.981-7.204,22.588-1.335c6.606,5.869,7.204,15.982,1.335,22.588c-26.911,30.291-26.911,75.976,0,106.267
	c5.869,6.606,5.271,16.72-1.335,22.588C191.829,334.439,188.035,335.77,184.256,335.77z"/>
<path d="M327.764,335.77c-3.779,0-7.573-1.331-10.621-4.039c-6.605-5.868-7.203-15.981-1.334-22.588
	c26.911-30.291,26.911-75.976,0-106.266c-5.869-6.606-5.271-16.719,1.334-22.588c6.606-5.868,16.719-5.272,22.588,1.334
	c37.676,42.408,37.676,106.367,0,148.774C336.569,333.955,332.177,335.77,327.764,335.77z"/>
<path d="M133.283,386.72c-4.277,0-8.542-1.703-11.692-5.074C89.62,347.442,72.013,302.82,72.013,256
	c0-46.819,17.607-91.441,49.578-125.646c6.034-6.455,16.158-6.797,22.615-0.763c6.456,6.034,6.797,16.159,0.763,22.615
	c-26.411,28.255-40.956,65.117-40.956,103.794s14.545,75.539,40.956,103.794c6.034,6.456,5.692,16.581-0.763,22.614
	C141.121,385.292,137.197,386.72,133.283,386.72z"/>
<path d="M378.717,386.72c-3.915,0-7.838-1.428-10.923-4.312c-6.455-6.034-6.797-16.158-0.763-22.614
	c26.41-28.256,40.956-65.117,40.956-103.794s-14.546-75.539-40.956-103.794c-6.034-6.456-5.692-16.581,0.763-22.615
	c6.455-6.033,16.581-5.693,22.614,0.763C422.38,164.559,439.987,209.18,439.987,256s-17.607,91.442-49.579,125.646
	C387.258,385.016,382.992,386.72,378.717,386.72z"/>
<path d="M434.994,432c-3.79,0-7.595-1.339-10.646-4.061c-6.594-5.883-7.171-15.997-1.288-22.591
	c75.961-85.143,75.961-213.555,0-298.698c-5.883-6.594-5.306-16.708,1.288-22.59c6.595-5.884,16.708-5.306,22.591,1.287
	c86.796,97.288,86.796,244.017,0,341.304C443.778,430.195,439.396,432,434.994,432z"/>
<path d="M77.006,432c-4.402,0-8.784-1.806-11.945-5.349c-86.796-97.287-86.796-244.016,0-341.303
	c5.882-6.593,15.996-7.171,22.59-1.288c6.594,5.882,7.17,15.997,1.288,22.59c-75.96,85.143-75.96,213.555,0,298.698
	c5.883,6.594,5.307,16.708-1.288,22.591C84.601,430.662,80.795,432,77.006,432z"/>
</svg>
