<?xml version="1.0" encoding="iso-8859-1"?>
<!-- Generator: Adobe Illustrator 24.3.0, SVG Export Plug-In . SVG Version: 6.00 Build 0)  -->
<svg version="1.1" id="Layer_1" xmlns="http://www.w3.org/2000/svg" xmlns:xlink="http://www.w3.org/1999/xlink" x="0px" y="0px"
	 viewBox="0 0 512 512" style="enable-background:new 0 0 512 512;" xml:space="preserve">
<ellipse cx="256" cy="256" rx="36" ry="35.99"/>
<path d="M188.4,350.8l-14.62-16.44c-39.734-44.681-39.734-112.029,0-156.71l14.62-16.43l32.87,29.24l-14.62,16.43
	c-24.909,28.014-24.909,70.236,0,98.25l14.62,16.44L188.4,350.8z"/>
<path d="M323.6,350.8l-32.89-29.22l14.62-16.44c24.909-28.014,24.909-70.236,0-98.25l-14.62-16.43l32.87-29.24l14.62,16.43
	c39.734,44.681,39.734,112.029,0,156.71L323.6,350.8z"/>
<path d="M138.24,401.76l-15-16.06c-68.281-72.987-68.281-186.413,0-259.4l15-16.07l32.14,30.05l-15,16.06
	c-52.465,56.083-52.465,143.238,0,199.32l15,16.06L138.24,401.76z"/>
<path d="M373.76,401.76l-32.14-30l15-16.06c52.465-56.083,52.465-143.238,0-199.32l-15-16.06l32.14-30l15,16.07
	c68.281,72.987,68.281,186.413,0,259.4L373.76,401.76z"/>
<path d="M430.73,447l-32.79-29.33l14.66-16.39c73.862-82.771,73.862-207.789,0-290.56l-14.67-16.38L430.72,65l14.67,16.39
	c88.806,99.469,88.806,249.751,0,349.22L430.73,447z"/>
<path d="M81.27,447L66.6,430.61c-88.806-99.469-88.806-249.751,0-349.22L81.28,65l32.79,29.34l-14.68,16.38
	c-73.862,82.771-73.862,207.789,0,290.56l14.66,16.39L81.27,447z"/>
</svg>
