<?xml version="1.0" encoding="iso-8859-1"?>
<!-- Generator: Adobe Illustrator 24.3.0, SVG Export Plug-In . SVG Version: 6.00 Build 0)  -->
<svg version="1.1" id="Layer_1" xmlns="http://www.w3.org/2000/svg" xmlns:xlink="http://www.w3.org/1999/xlink" x="0px" y="0px"
	 viewBox="0 0 512 512" style="enable-background:new 0 0 512 512;" xml:space="preserve">
<path d="M456.26,139.37c-16.77-16.73-39.17-28.41-65.17-34c-4.942-1.064-9.091-4.401-11.19-9
	c-9.561-20.883-24.037-39.14-42.19-53.21C314.48,25.39,286.23,16,256,16c-34.447-0.109-67.729,12.463-93.5,35.32
	c-24.2,21.56-40.91,51.34-48.43,85.83c-1.279,5.955-5.819,10.673-11.72,12.18c-25,6.3-35.71,12.54-49.21,24.56
	C34,190.93,24,214.14,24,240.8c0,30.55,11.23,55.64,32.47,72.56C75.08,328.17,100.5,336,130,336h234c33.2,0,64.11-11.46,87-32.28
	c23.84-21.65,37-51.67,37-84.52C488,187.71,477,160.11,456.26,139.37z"/>
<path d="M112,448c-8.837-0.005-15.996-7.173-15.99-16.01c0.002-3.158,0.938-6.244,2.69-8.87l32-48
	c4.904-7.351,14.839-9.334,22.19-4.43s9.334,14.839,4.43,22.19l-32,48C122.35,445.332,117.351,448.004,112,448z"/>
<path d="M160,496c-8.837-0.011-15.991-7.183-15.98-16.02c0.004-3.154,0.94-6.237,2.69-8.86l64-96
	c4.904-7.351,14.839-9.334,22.19-4.43s9.334,14.839,4.43,22.19l-64,96C170.358,493.335,165.355,496.007,160,496z"/>
<path d="M272,448c-8.837-0.005-15.996-7.173-15.99-16.01c0.002-3.158,0.938-6.244,2.69-8.87l32-48
	c4.904-7.351,14.839-9.334,22.19-4.43s9.334,14.839,4.43,22.19l-32,48C282.35,445.332,277.351,448.004,272,448z"/>
<path d="M320,496c-8.837-0.005-15.996-7.173-15.99-16.01c0.002-3.158,0.938-6.244,2.69-8.87l64-96
	c4.904-7.351,14.839-9.334,22.19-4.43s9.334,14.839,4.43,22.19l-64,96C330.35,493.332,325.351,496.004,320,496z"/>
</svg>
