<?xml version="1.0" encoding="iso-8859-1"?>
<!-- Generator: Adobe Illustrator 24.3.0, SVG Export Plug-In . SVG Version: 6.00 Build 0)  -->
<svg version="1.1" id="Layer_1" xmlns="http://www.w3.org/2000/svg" xmlns:xlink="http://www.w3.org/1999/xlink" x="0px" y="0px"
	 viewBox="0 0 512 512" style="enable-background:new 0 0 512 512;" xml:space="preserve">
<path d="M364,336H130c-29.495,0-54.921-7.831-73.528-22.646C35.229,296.442,24,271.353,24,240.8
	c0-26.658,10.076-49.794,29.139-66.909c15.234-13.677,36.171-23.21,58.952-26.842c0.022-0.004,0.044-0.007,0.066-0.011
	c0.03-0.004,0.054-0.027,0.059-0.057c6.418-38.983,23.808-72.07,50.285-95.664C188.059,28.543,221.265,16,256,16
	c30.23,0,58.484,9.395,81.706,27.168c19.939,15.261,36.047,36.802,45.364,60.666c29.409,4.81,54.715,17.096,73.185,35.535
	C477.022,160.103,488,187.708,488,219.2c0,32.856-13.129,62.873-36.969,84.52C428.107,324.537,397.199,336,364,336z
	 M117.106,178.654c-16.764,2.676-31.888,9.441-42.59,19.049C62.23,208.734,56,223.234,56,240.8c0,57.042,51.75,63.2,74,63.2h234
	c25.228,0,48.496-8.513,65.52-23.971C446.596,264.524,456,242.92,456,219.2c0-16.669-5.638-71.975-78.174-83.798
	c-11.061-1.808-20.457-9.411-24.53-19.842C340.569,82.893,308.33,48,256,48c-27.265,0-52.235,9.409-72.21,27.209
	c-20.951,18.669-34.783,45.292-40.002,76.99C141.516,165.892,130.797,176.511,117.106,178.654z"/>
<path d="M111.985,448.002c-3.05,0-6.132-0.87-8.86-2.689c-7.353-4.901-9.339-14.835-4.438-22.188l32-48
	c4.901-7.354,14.835-9.341,22.188-4.438c7.353,4.901,9.339,14.835,4.438,22.188l-32,48
	C122.23,445.5,117.155,448.002,111.985,448.002z"/>
<path d="M159.985,496.002c-3.05,0-6.132-0.87-8.86-2.689c-7.353-4.901-9.339-14.835-4.438-22.188l64-96
	c4.901-7.354,14.836-9.341,22.188-4.438c7.353,4.901,9.339,14.835,4.438,22.188l-64,96
	C170.23,493.5,165.155,496.002,159.985,496.002z"/>
<path d="M271.985,448.002c-3.05,0-6.133-0.87-8.86-2.689c-7.353-4.901-9.339-14.835-4.438-22.188l32-48
	c4.901-7.354,14.836-9.341,22.188-4.438c7.353,4.901,9.34,14.835,4.438,22.188l-32,48
	C282.229,445.5,277.155,448.002,271.985,448.002z"/>
<path d="M319.985,496.002c-3.05,0-6.133-0.87-8.86-2.689c-7.353-4.901-9.34-14.835-4.438-22.188l64-96
	c4.901-7.354,14.836-9.341,22.188-4.438c7.353,4.901,9.34,14.835,4.438,22.188l-64,96
	C330.229,493.5,325.155,496.002,319.985,496.002z"/>
</svg>
