<?xml version="1.0" encoding="iso-8859-1"?>
<!-- Generator: Adobe Illustrator 24.3.0, SVG Export Plug-In . SVG Version: 6.00 Build 0)  -->
<svg version="1.1" id="Layer_1" xmlns="http://www.w3.org/2000/svg" xmlns:xlink="http://www.w3.org/1999/xlink" x="0px" y="0px"
	 viewBox="0 0 512 512" style="enable-background:new 0 0 512 512;" xml:space="preserve">
<path d="M364,336H130c-29.5,0-54.92-7.83-73.53-22.64C35.23,296.44,24,271.35,24,240.8c0-26.66,10.08-49.8,29.14-66.91
	c15.24-13.68,36.17-23.21,59-26.84l0,0c0.06,0,0.08,0,0.09-0.05c6.44-39,23.83-72.09,50.31-95.68
	C188.301,28.472,221.567,15.901,256,16c30.23,0,58.48,9.39,81.71,27.17c20.309,15.764,35.981,36.723,45.36,60.66
	c29.41,4.82,54.72,17.11,73.19,35.54C477,160.11,488,187.71,488,219.2c0,32.85-13.13,62.87-37,84.52
	C428.11,324.54,397.2,336,364,336z"/>
<rect x="87.163" y="385.984" transform="matrix(0.5547 -0.8321 0.8321 0.5547 -275.6883 288.8409)" width="89.69" height="32"/>
<rect x="122.315" y="409.99" transform="matrix(0.5547 -0.8321 0.8321 0.5547 -267.1642 352.7796)" width="147.38" height="32"/>
<rect x="247.154" y="385.986" transform="matrix(0.5547 -0.8321 0.8321 0.5547 -204.4453 421.9631)" width="89.69" height="32"/>
<rect x="282.307" y="409.992" transform="matrix(0.5547 -0.8321 0.8321 0.5547 -195.9212 485.9018)" width="147.38" height="32"/>
</svg>
