<?xml version="1.0" encoding="iso-8859-1"?>
<!-- Generator: Adobe Illustrator 24.3.0, SVG Export Plug-In . SVG Version: 6.00 Build 0)  -->
<svg version="1.1" id="Layer_1" xmlns="http://www.w3.org/2000/svg" xmlns:xlink="http://www.w3.org/1999/xlink" x="0px" y="0px"
	 viewBox="0 0 512 512" style="enable-background:new 0 0 512 512;" xml:space="preserve">
<path d="M368,480H144c-35.29,0-64-28.71-64-64V96c0-35.29,28.71-64,64-64h224c35.29,0,64,28.71,64,64v320
	C432,451.29,403.29,480,368,480z M144,64c-17.645,0-32,14.355-32,32v320c0,17.645,14.355,32,32,32h224c17.645,0,32-14.355,32-32V96
	c0-17.645-14.355-32-32-32H144z"/>
<path d="M336,144H176c-8.836,0-16-7.164-16-16s7.164-16,16-16h160c8.837,0,16,7.164,16,16S344.837,144,336,144z"/>
<path d="M336,224H176c-8.836,0-16-7.164-16-16s7.164-16,16-16h160c8.837,0,16,7.164,16,16S344.837,224,336,224z"/>
<path d="M256,304h-80c-8.836,0-16-7.163-16-16s7.164-16,16-16h80c8.837,0,16,7.163,16,16S264.837,304,256,304z"/>
</svg>
