<?xml version="1.0" encoding="iso-8859-1"?>
<!-- Generator: Adobe Illustrator 24.3.0, SVG Export Plug-In . SVG Version: 6.00 Build 0)  -->
<svg version="1.1" id="Layer_1" xmlns="http://www.w3.org/2000/svg" xmlns:xlink="http://www.w3.org/1999/xlink" x="0px" y="0px"
	 viewBox="0 0 512 512" style="enable-background:new 0 0 512 512;" xml:space="preserve">
<path d="M368,32H144c-35.33,0.039-63.961,28.67-64,64v320c0.039,35.33,28.67,63.961,64,64h224c35.33-0.039,63.961-28.67,64-64V96
	C431.961,60.67,403.33,32.039,368,32z M256,304h-80c-8.837,0-16-7.163-16-16s7.163-16,16-16h80c8.837,0,16,7.163,16,16
	S264.837,304,256,304z M336,224H176c-8.837,0-16-7.163-16-16s7.163-16,16-16h160c8.837,0,16,7.163,16,16S344.837,224,336,224z
	 M336,144H176c-8.837,0-16-7.163-16-16c0-8.837,7.163-16,16-16h160c8.837,0,16,7.163,16,16C352,136.837,344.837,144,336,144z"/>
</svg>
