<svg width="25" height="24" viewBox="0 0 25 24"  xmlns="http://www.w3.org/2000/svg">
<path d="M7.25 21.75H17.75C18.9926 21.75 20 20.7426 20 19.5L20 4.5C20 3.25736 18.9926 2.25 17.75 2.25H7.25C6.00736 2.25 5 3.25736 5 4.5L5 19.5C5 20.7426 6.00736 21.75 7.25 21.75Z" stroke="black" stroke-width="1.5" stroke-linejoin="round"/>
<path d="M16.25 17H8.75" stroke="black" stroke-width="1.5" stroke-linecap="round" stroke-linejoin="round"/>
<path d="M16.25 12.25L8.75 12.25" stroke="black" stroke-width="1.5" stroke-linecap="round" stroke-linejoin="round"/>
<path d="M16.25 7.5H13.25" stroke="black" stroke-width="1.5" stroke-linecap="round" stroke-linejoin="round"/>
<mask id="mask0_2208_89405" style="mask-type:alpha" maskUnits="userSpaceOnUse" x="5" y="3" width="9" height="8">
<rect x="5.5" y="3" width="8" height="8" fill="#D9D9D9"/>
</mask>
<g mask="url(#mask0_2208_89405)">
<path d="M9.52459 10.125C9.41348 10.125 9.31903 10.0875 9.24126 10.0125C9.16348 9.9375 9.12459 9.84444 9.12459 9.73333V9.38333C8.85792 9.32222 8.62598 9.21528 8.42876 9.0625C8.23153 8.90972 8.07181 8.70556 7.94959 8.45C7.89959 8.33889 7.90237 8.22361 7.95792 8.10417C8.01348 7.98472 8.10514 7.90278 8.23292 7.85833C8.33848 7.81389 8.44542 7.81667 8.55376 7.86667C8.66209 7.91667 8.75514 8 8.83292 8.11667C8.92181 8.25 9.03014 8.35 9.15792 8.41667C9.2857 8.48333 9.43014 8.51667 9.59126 8.51667C9.80237 8.51667 9.96903 8.47778 10.0913 8.4C10.2135 8.32222 10.2746 8.2 10.2746 8.03333C10.2746 7.87778 10.2107 7.74444 10.0829 7.63333C9.95514 7.52222 9.67459 7.40278 9.24126 7.275C8.7857 7.13611 8.46348 6.95 8.27459 6.71667C8.0857 6.48333 7.99126 6.20556 7.99126 5.88333C7.99126 5.54444 8.10098 5.26111 8.32042 5.03333C8.53987 4.80556 8.80792 4.66111 9.12459 4.6V4.26667C9.12459 4.15556 9.16348 4.0625 9.24126 3.9875C9.31903 3.9125 9.41348 3.875 9.52459 3.875C9.64126 3.875 9.7357 3.9125 9.80792 3.9875C9.88014 4.0625 9.91626 4.15556 9.91626 4.26667V4.6C10.1274 4.65 10.3149 4.72639 10.4788 4.82917C10.6426 4.93194 10.7801 5.06389 10.8913 5.225C10.9635 5.325 10.976 5.4375 10.9288 5.5625C10.8815 5.6875 10.7913 5.77778 10.6579 5.83333C10.569 5.87222 10.4718 5.875 10.3663 5.84167C10.2607 5.80833 10.144 5.74167 10.0163 5.64167C9.95514 5.58611 9.88153 5.54306 9.79542 5.5125C9.70931 5.48194 9.6107 5.46667 9.49959 5.46667C9.29403 5.46667 9.14542 5.50417 9.05376 5.57917C8.96209 5.65417 8.91626 5.74722 8.91626 5.85833C8.91626 6.00278 8.97876 6.11944 9.10376 6.20833C9.22876 6.29722 9.50792 6.40556 9.94126 6.53333C10.3468 6.65556 10.6579 6.84444 10.8746 7.1C11.0913 7.35556 11.1996 7.66111 11.1996 8.01667C11.1996 8.43333 11.0774 8.75278 10.8329 8.975C10.5885 9.19722 10.2829 9.33889 9.91626 9.4V9.73333C9.91626 9.84444 9.87876 9.9375 9.80376 10.0125C9.72876 10.0875 9.6357 10.125 9.52459 10.125Z" fill="#1C1B1F"/>
</g>
</svg>
