<?xml version="1.0" encoding="UTF-8" standalone="no"?>
<svg
   width="25"
   height="24"
   viewBox="0 0 25 24"

   version="1.1"
   id="svg1827"
   sodipodi:docname="reader-outline.svg"
   inkscape:version="1.2.2 (b0a84865, 2022-12-01)"
   xmlns:inkscape="http://www.inkscape.org/namespaces/inkscape"
   xmlns:sodipodi="http://sodipodi.sourceforge.net/DTD/sodipodi-0.dtd"
   xmlns="http://www.w3.org/2000/svg"
   xmlns:svg="http://www.w3.org/2000/svg">
  <defs
     id="defs1831" />
  <sodipodi:namedview
     id="namedview1829"
     pagecolor="#ffffff"
     bordercolor="#000000"
     borderopacity="0.25"
     inkscape:showpageshadow="2"
     inkscape:pageopacity="0.0"
     inkscape:pagecheckerboard="0"
     inkscape:deskcolor="#d1d1d1"
     showgrid="false"
     inkscape:zoom="9.8333333"
     inkscape:cx="9.4067797"
     inkscape:cy="12.915254"
     inkscape:window-width="1098"
     inkscape:window-height="734"
     inkscape:window-x="171"
     inkscape:window-y="97"
     inkscape:window-maximized="0"
     inkscape:current-layer="svg1827" />
  <path
     style="color:#000000;fill:#000000;stroke-linejoin:round;-inkscape-stroke:none"
     d="m 7.25,1.5 c -1.6479689,0 -3,1.3520311 -3,3 v 15 c 0,1.647942 1.352015,3 3,3 h 10.5 c 1.647958,0 3,-1.352042 3,-3 v -15 c 0,-1.647985 -1.352058,-3 -3,-3 z m 0,1.5 h 10.5 c 0.837256,0 1.5,0.6627075 1.5,1.5 v 15 c 0,0.837239 -0.662761,1.5 -1.5,1.5 H 7.25 C 6.4127075,21 5.75,20.337256 5.75,19.5 V 4.5 C 5.75,3.6626914 6.4126914,3 7.25,3 Z"
     id="path1812" />
  <path
     style="color:#000000;fill:#000000;stroke-linecap:round;stroke-linejoin:round;-inkscape-stroke:none"
     d="M 8.75,16.25 A 0.75,0.75 0 0 0 8,17 0.75,0.75 0 0 0 8.75,17.75 h 7.5 A 0.75,0.75 0 0 0 17,17 0.75,0.75 0 0 0 16.25,16.25 Z"
     id="path1814" />
  <path
     style="color:#000000;fill:#000000;stroke-linecap:round;stroke-linejoin:round;-inkscape-stroke:none"
     d="M 8.75,11.5 A 0.75,0.75 0 0 0 8,12.25 0.75,0.75 0 0 0 8.75,13 h 7.5 A 0.75,0.75 0 0 0 17,12.25 0.75,0.75 0 0 0 16.25,11.5 Z"
     id="path1816" />
  <path
     style="color:#000000;fill:#000000;stroke-linecap:round;stroke-linejoin:round;-inkscape-stroke:none"
     d="M 13.25,6.75 A 0.75,0.75 0 0 0 12.5,7.5 0.75,0.75 0 0 0 13.25,8.25 h 3 A 0.75,0.75 0 0 0 17,7.5 0.75,0.75 0 0 0 16.25,6.75 Z"
     id="path1818" />
  <mask
     id="mask0_2208_89405"
     style="mask-type:alpha"
     maskUnits="userSpaceOnUse"
     x="5"
     y="3"
     width="9"
     height="8">
    <rect
       x="5.5"
       y="3"
       width="8"
       height="8"
       fill="#D9D9D9"
       id="rect1820" />
  </mask>
  <g
     mask="url(#mask0_2208_89405)"
     id="g1825">
    <path
       d="M9.52459 10.125C9.41348 10.125 9.31903 10.0875 9.24126 10.0125C9.16348 9.9375 9.12459 9.84444 9.12459 9.73333V9.38333C8.85792 9.32222 8.62598 9.21528 8.42876 9.0625C8.23153 8.90972 8.07181 8.70556 7.94959 8.45C7.89959 8.33889 7.90237 8.22361 7.95792 8.10417C8.01348 7.98472 8.10514 7.90278 8.23292 7.85833C8.33848 7.81389 8.44542 7.81667 8.55376 7.86667C8.66209 7.91667 8.75514 8 8.83292 8.11667C8.92181 8.25 9.03014 8.35 9.15792 8.41667C9.2857 8.48333 9.43014 8.51667 9.59126 8.51667C9.80237 8.51667 9.96903 8.47778 10.0913 8.4C10.2135 8.32222 10.2746 8.2 10.2746 8.03333C10.2746 7.87778 10.2107 7.74444 10.0829 7.63333C9.95514 7.52222 9.67459 7.40278 9.24126 7.275C8.7857 7.13611 8.46348 6.95 8.27459 6.71667C8.0857 6.48333 7.99126 6.20556 7.99126 5.88333C7.99126 5.54444 8.10098 5.26111 8.32042 5.03333C8.53987 4.80556 8.80792 4.66111 9.12459 4.6V4.26667C9.12459 4.15556 9.16348 4.0625 9.24126 3.9875C9.31903 3.9125 9.41348 3.875 9.52459 3.875C9.64126 3.875 9.7357 3.9125 9.80792 3.9875C9.88014 4.0625 9.91626 4.15556 9.91626 4.26667V4.6C10.1274 4.65 10.3149 4.72639 10.4788 4.82917C10.6426 4.93194 10.7801 5.06389 10.8913 5.225C10.9635 5.325 10.976 5.4375 10.9288 5.5625C10.8815 5.6875 10.7913 5.77778 10.6579 5.83333C10.569 5.87222 10.4718 5.875 10.3663 5.84167C10.2607 5.80833 10.144 5.74167 10.0163 5.64167C9.95514 5.58611 9.88153 5.54306 9.79542 5.5125C9.70931 5.48194 9.6107 5.46667 9.49959 5.46667C9.29403 5.46667 9.14542 5.50417 9.05376 5.57917C8.96209 5.65417 8.91626 5.74722 8.91626 5.85833C8.91626 6.00278 8.97876 6.11944 9.10376 6.20833C9.22876 6.29722 9.50792 6.40556 9.94126 6.53333C10.3468 6.65556 10.6579 6.84444 10.8746 7.1C11.0913 7.35556 11.1996 7.66111 11.1996 8.01667C11.1996 8.43333 11.0774 8.75278 10.8329 8.975C10.5885 9.19722 10.2829 9.33889 9.91626 9.4V9.73333C9.91626 9.84444 9.87876 9.9375 9.80376 10.0125C9.72876 10.0875 9.6357 10.125 9.52459 10.125Z"
       fill="#1C1B1F"
       id="path1823" />
  </g>
</svg>
