<svg width="33" height="33" viewBox="0 0 33 33" fill="white" xmlns="http://www.w3.org/2000/svg" stroke="white">
<path d="M9.33203 29.666L23.332 29.666C24.9889 29.666 26.332 28.3229 26.332 26.666L26.332 6.66602C26.332 5.00916 24.9889 3.66602 23.332 3.66602L9.33203 3.66602C7.67518 3.66602 6.33203 5.00916 6.33203 6.66602L6.33203 26.666C6.33203 28.3229 7.67518 29.666 9.33203 29.666Z" stroke="black" stroke-width="2" stroke-linejoin="round"/>
<path d="M21.332 23.332H11.332" stroke="black" stroke-width="2" stroke-linecap="round" stroke-linejoin="round"/>
<path d="M21.332 17H11.332" stroke="black" stroke-width="2" stroke-linecap="round" stroke-linejoin="round"/>
<path d="M21.332 10.666H17.332" stroke="black" stroke-width="2" stroke-linecap="round" stroke-linejoin="round"/>
<mask id="mask0_8552_54394" style="mask-type:alpha" maskUnits="userSpaceOnUse" x="6" y="4" width="12" height="12">
<rect x="6.99609" y="4.66602" width="10.6667" height="10.6667" fill="#D9D9D9"/>
</mask>
<g mask="url(#mask0_8552_54394)">
<path d="M12.3622 14.1654C12.2141 14.1654 12.0881 14.1154 11.9844 14.0154C11.8807 13.9154 11.8289 13.7913 11.8289 13.6431V13.1765C11.4733 13.095 11.1641 12.9524 10.9011 12.7487C10.6381 12.545 10.4252 12.2728 10.2622 11.932C10.1955 11.7839 10.1992 11.6302 10.2733 11.4709C10.3474 11.3117 10.4696 11.2024 10.64 11.1431C10.7807 11.0839 10.9233 11.0876 11.0678 11.1543C11.2122 11.2209 11.3363 11.332 11.44 11.4876C11.5585 11.6654 11.703 11.7987 11.8733 11.8876C12.0437 11.9765 12.2363 12.0209 12.4511 12.0209C12.7326 12.0209 12.9548 11.9691 13.1178 11.8654C13.2807 11.7617 13.3622 11.5987 13.3622 11.3765C13.3622 11.1691 13.277 10.9913 13.1067 10.8431C12.9363 10.695 12.5622 10.5357 11.9844 10.3654C11.377 10.1802 10.9474 9.93203 10.6955 9.62092C10.4437 9.30981 10.3178 8.93944 10.3178 8.50981C10.3178 8.05796 10.4641 7.68018 10.7567 7.37648C11.0492 7.07277 11.4067 6.88018 11.8289 6.7987V6.35425C11.8289 6.20611 11.8807 6.08203 11.9844 5.98203C12.0881 5.88203 12.2141 5.83203 12.3622 5.83203C12.5178 5.83203 12.6437 5.88203 12.74 5.98203C12.8363 6.08203 12.8844 6.20611 12.8844 6.35425V6.7987C13.1659 6.86536 13.4159 6.96722 13.6344 7.10425C13.853 7.24129 14.0363 7.41722 14.1844 7.63203C14.2807 7.76536 14.2974 7.91536 14.2344 8.08203C14.1715 8.2487 14.0511 8.36907 13.8733 8.44314C13.7548 8.49499 13.6252 8.4987 13.4844 8.45425C13.3437 8.40981 13.1881 8.32092 13.0178 8.18759C12.9363 8.11351 12.8381 8.05611 12.7233 8.01536C12.6085 7.97462 12.477 7.95425 12.3289 7.95425C12.0548 7.95425 11.8567 8.00425 11.7344 8.10425C11.6122 8.20425 11.5511 8.32833 11.5511 8.47648C11.5511 8.66907 11.6344 8.82462 11.8011 8.94314C11.9678 9.06166 12.34 9.20611 12.9178 9.37648C13.4585 9.53944 13.8733 9.79129 14.1622 10.132C14.4511 10.4728 14.5955 10.8802 14.5955 11.3543C14.5955 11.9098 14.4326 12.3357 14.1067 12.632C13.7807 12.9283 13.3733 13.1172 12.8844 13.1987V13.6431C12.8844 13.7913 12.8344 13.9154 12.7344 14.0154C12.6344 14.1154 12.5104 14.1654 12.3622 14.1654Z" fill="#1C1B1F"/>
</g>
</svg>
