<?xml version="1.0" encoding="iso-8859-1"?>
<!-- Generator: Adobe Illustrator 24.3.0, SVG Export Plug-In . SVG Version: 6.00 Build 0)  -->
<svg version="1.1" id="Layer_1" xmlns="http://www.w3.org/2000/svg" xmlns:xlink="http://www.w3.org/1999/xlink" x="0px" y="0px"
	 viewBox="0 0 512 512" style="enable-background:new 0 0 512 512;" xml:space="preserve">
<path d="M448,48l-32-16l-32,16l-32-16l-32,16l-32-16l-32,16l-32-16l-32,16l-48-16v256v0.05h224V424c0,30.93,33.07,56,64,56h12
	c30.93,0,52-25.07,52-56V32L448,48z M272.5,240l-0.5-32h159.5l0.5,32H272.5z M208.5,160l-0.5-32h223.5l0.5,32H208.5z"/>
<path d="M336,424V320H16v32c0,50.55,5.78,71.62,14.46,87.63C45.19,466.8,71.86,480,112,480h256C368,480,336,460,336,424z"/>
</svg>
