<?xml version="1.0" encoding="iso-8859-1"?>
<!-- Generator: Adobe Illustrator 24.3.0, SVG Export Plug-In . SVG Version: 6.00 Build 0)  -->
<svg version="1.1" id="Layer_1" xmlns="http://www.w3.org/2000/svg" xmlns:xlink="http://www.w3.org/1999/xlink" x="0px" y="0px"
	 viewBox="0 0 512 512" style="enable-background:new 0 0 512 512;" xml:space="preserve">
<path d="M483.82,32.45c-3.787-0.9-7.771-0.414-11.23,1.37L448,46.1l0,0l-24.8-12.4c-4.504-2.252-9.806-2.252-14.31,0l-25.11,12.41
	l0,0L359,33.7c-4.518-2.269-9.842-2.269-14.36,0L320,46.07l0,0l-24.45-12.34c-4.506-2.284-9.825-2.306-14.35-0.06L256,46.12l0,0
	l-24.8-12.43c-4.512-2.251-9.818-2.251-14.33,0L192,46.1l0,0l-24.84-12.41c-6.59-3.304-14.585-1.677-19.36,3.94
	c-2.501,2.981-3.849,6.76-3.8,10.65V288 M144.05,288.05H336c17.673,0,32,14.327,32,32V424c0,30.93,33.07,56,64,56h12
	c28.719,0,52-23.281,52-52V48c0.006-7.37-5.023-13.79-12.18-15.55L144.05,288.05z M416,240H288.5c-8.64,0-16.1-6.64-16.48-15.28
	c-0.398-8.828,6.436-16.306,15.264-16.704c0.239-0.011,0.477-0.016,0.716-0.016h127.5c8.64,0,16.1,6.64,16.48,15.28
	c0.398,8.828-6.436,16.306-15.264,16.704C416.478,239.995,416.239,240,416,240z M416,160H224.5c-8.64,0-16.1-6.64-16.48-15.28
	c-0.398-8.828,6.436-16.306,15.264-16.704c0.239-0.011,0.477-0.016,0.716-0.016h191.5c8.64,0,16.1,6.64,16.48,15.28
	c0.398,8.828-6.436,16.306-15.264,16.704C416.478,159.995,416.239,160,416,160z"/>
<path d="M336,424v-88c0-8.837-7.163-16-16-16H48c-17.67,0.055-31.973,14.38-32,32.05c0,50.55,5.78,71.57,14.46,87.57
	C45.19,466.79,71.86,480,112,480h245.68c2.209,0.002,4.001-1.788,4.003-3.997c0.001-1.053-0.414-2.064-1.153-2.813
	C351.07,463.7,336,451,336,424z"/>
</svg>
