<?xml version="1.0" encoding="iso-8859-1"?>
<!-- Generator: Adobe Illustrator 24.3.0, SVG Export Plug-In . SVG Version: 6.00 Build 0)  -->
<svg version="1.1" id="Layer_1" xmlns="http://www.w3.org/2000/svg" xmlns:xlink="http://www.w3.org/1999/xlink" x="0px" y="0px"
	 viewBox="0 0 512 512" style="enable-background:new 0 0 512 512;" xml:space="preserve">
<path d="M176,336h-32V48c0-5.545,2.871-10.695,7.588-13.61c4.716-2.915,10.606-3.18,15.567-0.701L192,46.111l24.845-12.422
	c4.508-2.253,9.816-2.251,14.321,0.005l24.822,12.434l25.232-12.472c4.511-2.231,9.81-2.208,14.301,0.061l24.491,12.365
	l24.585-12.374c4.518-2.274,9.842-2.278,14.361-0.013l24.801,12.428l25.136-12.458c4.494-2.228,9.774-2.218,14.259,0.024
	l24.854,12.423l24.835-12.421c4.962-2.481,10.852-2.216,15.568,0.699C493.128,37.304,496,42.455,496,48v224h-32V73.892l-8.833,4.418
	c-4.505,2.252-9.806,2.254-14.311,0.001L415.97,65.872l-25.145,12.463c-4.497,2.229-9.784,2.218-14.273-0.031l-24.746-12.4
	l-24.612,12.388c-4.532,2.281-9.876,2.277-14.404-0.009l-24.556-12.397l-25.204,12.458c-4.495,2.222-9.772,2.208-14.255-0.038
	l-24.781-12.414l-24.838,12.419c-4.504,2.252-9.807,2.252-14.311,0L176,73.889V336z"/>
<path d="M400,480H112c-40.139,0-66.81-13.207-81.539-40.374C18.467,417.5,16.003,388.622,16,352.07
	c-0.001-0.173-0.001-0.345,0.001-0.518c0.075-8.484,3.46-16.456,9.531-22.42c6.001-5.896,13.917-9.133,22.319-9.133
	c0.069,0,0.138,0.001,0.208,0.001H320c8.837,0,16,7.163,16,16v48c0,35.29,28.71,64,64,64s64-28.71,64-64V272h32v112
	C496,436.935,452.935,480,400,480z M48,352c0,31.713,1.801,56.157,10.594,72.374C69.946,445.315,93.098,448,112,448h216.504
	C313.274,431.004,304,408.565,304,384v-32H48z"/>
<path d="M416,160H224c-8.836,0-16-7.164-16-16s7.164-16,16-16h192c8.837,0,16,7.164,16,16S424.837,160,416,160z"/>
<path d="M416,240H288c-8.837,0-16-7.164-16-16s7.163-16,16-16h128c8.837,0,16,7.164,16,16S424.837,240,416,240z"/>
</svg>
