<?xml version="1.0" encoding="iso-8859-1"?>
<!-- Generator: Adobe Illustrator 24.3.0, SVG Export Plug-In . SVG Version: 6.00 Build 0)  -->
<svg version="1.1" id="Layer_1" xmlns="http://www.w3.org/2000/svg" xmlns:xlink="http://www.w3.org/1999/xlink" x="0px" y="0px"
	 viewBox="0 0 512 512" style="enable-background:new 0 0 512 512;" xml:space="preserve">
<path d="M128,368C66.243,368,16,317.757,16,256c0-61.757,50.243-112,112-112s112,50.243,112,112C240,317.757,189.757,368,128,368z
	 M128,176c-44.112,0-80,35.888-80,80C48,300.113,83.888,336,128,336s80-35.888,80-80.001C208,211.888,172.112,176,128,176z"/>
<path d="M384,368C322.243,368,272,317.757,272,256c0-61.757,50.243-112,112-112s112,50.243,112,112C496,317.757,445.757,368,384,368
	z M384,176c-44.112,0-80,35.888-80,80C304,300.113,339.888,336,384,336s80-35.888,80-80.001C464,211.888,428.112,176,384,176z"/>
<path d="M384,368H128c-8.836,0-16-7.163-16-16s7.164-16,16-16h256c8.837,0,16,7.163,16,16S392.837,368,384,368z"/>
</svg>
