<?xml version="1.0" encoding="iso-8859-1"?>
<!-- Generator: Adobe Illustrator 24.3.0, SVG Export Plug-In . SVG Version: 6.00 Build 0)  -->
<svg version="1.1" id="Layer_1" xmlns="http://www.w3.org/2000/svg" xmlns:xlink="http://www.w3.org/1999/xlink" x="0px" y="0px"
	 viewBox="0 0 512 512" style="enable-background:new 0 0 512 512;" xml:space="preserve">
<path d="M380.79,144.05c-59.1,1.65-107.12,49.71-108.79,108.81c-0.845,29.562,10.074,58.251,30.36,79.77
	c0.758,0.804,0.721,2.069-0.083,2.827c-0.347,0.328-0.8,0.52-1.277,0.543h-90c-1.105-0.009-1.992-0.912-1.983-2.017
	c0.004-0.503,0.198-0.986,0.543-1.353c20.315-21.506,31.264-50.197,30.44-79.77c-1.63-59.1-49.65-107.16-108.75-108.81
	c-61.898-1.73-113.478,47.047-115.208,108.945c-0.024,0.845-0.038,1.69-0.042,2.535C15.75,317.77,67,368,129.24,368h253.52
	C445,368,496.25,317.77,496,255.53c-0.33-61.921-50.794-111.851-112.716-111.521C382.453,144.013,381.621,144.027,380.79,144.05z"/>
</svg>
