<?xml version="1.0" encoding="iso-8859-1"?>
<!-- Generator: Adobe Illustrator 24.3.0, SVG Export Plug-In . SVG Version: 6.00 Build 0)  -->
<svg version="1.1" id="Layer_1" xmlns="http://www.w3.org/2000/svg" xmlns:xlink="http://www.w3.org/1999/xlink" x="0px" y="0px"
	 viewBox="0 0 512 512" style="enable-background:new 0 0 512 512;" xml:space="preserve">
<path d="M384,138c-65.131-0.041-117.963,52.726-118.003,117.857c-0.017,26.98,9.218,53.149,26.163,74.143h-72.32
	c40.869-50.762,32.849-125.044-17.913-165.913S76.883,131.238,36.014,182S3.165,307.044,53.927,347.913
	C74.915,364.811,101.055,374.017,128,374h256c65.17,0,118-52.83,118-118S449.17,138,384,138z M54,256c0-40.869,33.131-74,74-74
	s74,33.131,74,74s-33.131,74-74,74l0,0C87.151,329.95,54.05,296.849,54,256z M384,330c-40.869,0-74-33.131-74-74s33.131-74,74-74
	s74,33.131,74,74l0,0C457.95,296.849,424.849,329.95,384,330z"/>
</svg>
