<?xml version="1.0" encoding="iso-8859-1"?>
<!-- Generator: Adobe Illustrator 24.3.0, SVG Export Plug-In . SVG Version: 6.00 Build 0)  -->
<svg version="1.1" id="Layer_1" xmlns="http://www.w3.org/2000/svg" xmlns:xlink="http://www.w3.org/1999/xlink" x="0px" y="0px"
	 viewBox="0 0 512 512" style="enable-background:new 0 0 512 512;" xml:space="preserve">
<path d="M256,361c-51.832,0-94-42.168-94-94S204.168,173,256,173c27.18,0,43.917,1.001,47.149,14.877
	c1.658,7.118-1.944,14.224-8.963,17.681c-6.011,2.961-13.114,1.214-17.127-3.818c-3.937-0.38-10.465-0.74-21.06-0.74
	c-36.393,0-66,29.608-66,66.001s29.607,66,66,66s66-29.607,66-66c0-7.732,6.268-14,14-14s14,6.268,14,14
	C350,318.832,307.832,361,256,361z M281.813,180.441c-0.005,0.002-0.009,0.004-0.013,0.006
	C281.805,180.445,281.809,180.443,281.813,180.441z"/>
<path d="M256,243c-3.583,0-7.166-1.367-9.899-4.101c-5.467-5.467-5.467-14.332,0-19.799L276.201,189l-30.101-30.101
	c-5.467-5.467-5.467-14.332,0-19.799c5.467-5.468,14.332-5.468,19.799,0l40,40c5.468,5.467,5.468,14.332,0,19.799l-40,40
	C263.166,241.633,259.583,243,256,243z"/>
<path d="M256,464C141.309,464,48,370.692,48,256c0-114.691,93.309-208,208-208s208,93.309,208,208C464,370.692,370.691,464,256,464z
	 M256,80c-97.047,0-176,78.953-176,176C80,353.047,158.953,432,256,432S432,353.047,432,256C432,158.953,353.047,80,256,80z"/>
</svg>
