<?xml version="1.0" encoding="iso-8859-1"?>
<!-- Generator: Adobe Illustrator 24.3.0, SVG Export Plug-In . SVG Version: 6.00 Build 0)  -->
<svg version="1.1" id="Layer_1" xmlns="http://www.w3.org/2000/svg" xmlns:xlink="http://www.w3.org/1999/xlink" x="0px" y="0px"
	 viewBox="0 0 512 512" style="enable-background:new 0 0 512 512;" xml:space="preserve">
<path d="M256,470c-97.047,0-176-78.953-176-176s78.953-176,176-176c25.633,0,44.044,0.963,56.286,2.945
	c6.916,1.119,23.112,3.741,26.325,17.532c2.023,8.687-2.614,17.479-11.541,21.875l-14.353,7.07l-7.482-15.189
	C297.509,151.164,282.915,150,256,150C176.598,150,112,214.598,112,294c0,79.401,64.598,144,144,144c79.401,0,144-64.599,144-144
	v-16h32v16C432,391.047,353.047,470,256,470z"/>
<polygon points="256,240.627 233.373,218 313.373,138 233.373,58 256,35.372 358.627,138 "/>
</svg>
