<?xml version="1.0" encoding="iso-8859-1"?>
<!-- Generator: Adobe Illustrator 24.3.0, SVG Export Plug-In . SVG Version: 6.00 Build 0)  -->
<svg version="1.1" id="Layer_1" xmlns="http://www.w3.org/2000/svg" xmlns:xlink="http://www.w3.org/1999/xlink" x="0px" y="0px"
	 viewBox="0 0 512 512" style="enable-background:new 0 0 512 512;" xml:space="preserve">
<path d="M256,470c-97.047,0-176-78.953-176-176s78.953-176,176-176c25.633,0,44.044,0.963,56.286,2.945
	c6.916,1.119,23.112,3.741,26.325,17.532c2.023,8.687-2.614,17.479-11.541,21.875c-7.926,3.905-17.519,0.644-21.424-7.283
	c-0.135-0.275-0.263-0.553-0.381-0.832C297.548,151.167,282.952,150,256,150C176.598,150,112,214.598,112,294
	c0,79.401,64.598,144,144,144c79.401,0,144-64.599,144-144c0-8.837,7.163-16,16-16s16,7.163,16,16C432,391.047,353.047,470,256,470z
	"/>
<path d="M256,234c-4.095,0-8.189-1.562-11.313-4.687c-6.249-6.248-6.249-16.379,0-22.627L313.373,138l-68.687-68.687
	c-6.249-6.248-6.249-16.379,0-22.627c6.248-6.249,16.379-6.249,22.627,0l80,80c6.249,6.248,6.249,16.379,0,22.627l-80,80
	C264.189,232.438,260.095,234,256,234z"/>
</svg>
