<?xml version="1.0" encoding="iso-8859-1"?>
<!-- Generator: Adobe Illustrator 24.3.0, SVG Export Plug-In . SVG Version: 6.00 Build 0)  -->
<svg version="1.1" id="Layer_1" xmlns="http://www.w3.org/2000/svg" xmlns:xlink="http://www.w3.org/1999/xlink" x="0px" y="0px"
	 viewBox="0 0 512 512" style="enable-background:new 0 0 512 512;" xml:space="preserve">
<path d="M256,48C141.31,48,48,141.32,48,256c0,114.86,93.14,208,208,208c114.69,0,208-93.31,208-208C464,141.13,370.87,48,256,48z
	 M256,361c-51.915,0-94-42.085-94-94s42.085-94,94-94h4.21l-14.11-14.1c-5.468-5.468-5.468-14.332,0-19.8
	c5.468-5.468,14.332-5.468,19.8,0l40,40c5.468,5.467,5.468,14.331,0.001,19.799c0,0-0.001,0.001-0.001,0.001l-40,40
	c-5.468,5.468-14.332,5.468-19.8,0s-5.468-14.332,0-19.8l0,0l18-18c-2.38-0.1-5.1-0.1-8.1-0.1c-36.451,0-66,29.549-66,66
	s29.549,66,66,66s66-29.549,66-66c0-7.732,6.268-14,14-14s14,6.268,14,14C349.939,318.89,307.89,360.939,256,361z"/>
</svg>
