<?xml version="1.0" encoding="iso-8859-1"?>
<!-- Generator: Adobe Illustrator 24.3.0, SVG Export Plug-In . SVG Version: 6.00 Build 0)  -->
<svg version="1.1" id="Layer_1" xmlns="http://www.w3.org/2000/svg" xmlns:xlink="http://www.w3.org/1999/xlink" x="0px" y="0px"
	 viewBox="0 0 512 512" style="enable-background:new 0 0 512 512;" xml:space="preserve">
<path d="M256,48C141.31,48,48,141.32,48,256c0,114.86,93.14,208,208,208c114.69,0,208-93.31,208-208C464,141.13,370.87,48,256,48z
	 M350,267c0,51.915-42.085,94-94,94s-94-42.085-94-94s42.085-94,94-94h4.21l-24-24L256,129.2l59.8,59.8L256,248.8L236.2,229
	l27.92-27.92C261.72,201,259,201,256,201c-36.451,0-66,29.549-66,66s29.549,66,66,66s66-29.549,66-66v-14h28V267z"/>
</svg>
