<?xml version="1.0" encoding="iso-8859-1"?>
<!-- Generator: Adobe Illustrator 24.3.0, SVG Export Plug-In . SVG Version: 6.00 Build 0)  -->
<svg version="1.1" id="Layer_1" xmlns="http://www.w3.org/2000/svg" xmlns:xlink="http://www.w3.org/1999/xlink" x="0px" y="0px"
	 viewBox="0 0 512 512" style="enable-background:new 0 0 512 512;" xml:space="preserve">
<path d="M256,464C141.309,464,48,370.692,48,256c0-114.691,93.309-208,208-208s208,93.309,208,208C464,370.692,370.691,464,256,464z
	 M256,80c-97.047,0-176,78.953-176,176C80,353.047,158.953,432,256,432S432,353.047,432,256C432,158.953,353.047,80,256,80z"/>
<path d="M255.443,375.331c-31.495,0.003-62.93-12.348-86.349-36.867c-45.461-47.6-43.723-123.31,3.876-168.771
	c23.058-22.023,53.317-33.743,85.188-33.015c31.877,0.732,61.56,13.833,83.582,36.892l0.564,0.622l11.37,13.23
	c5.759,6.702,4.995,16.804-1.706,22.563c-6.702,5.759-16.804,4.996-22.563-1.706l-11.084-12.898
	c-16.091-16.697-37.7-26.179-60.897-26.711c-23.341-0.555-45.475,8.046-62.352,24.165s-26.466,37.845-27.002,61.176
	c-0.536,23.331,8.046,45.475,24.165,62.352c33.274,34.838,88.688,36.109,123.527,2.837c9.867-9.425,17.485-21.205,22.031-34.069
	c2.944-8.332,12.089-12.699,20.417-9.755c8.332,2.944,12.699,12.086,9.755,20.417c-6.212,17.576-16.62,33.672-30.102,46.548
	C314.785,364.381,285.088,375.328,255.443,375.331z"/>
<path d="M367.32,162c-2.259,0.009-4.421,0.924-6,2.54l-59.54,59.54c-3.369,3.356-3.38,8.807-0.024,12.176
	c1.619,1.625,3.82,2.537,6.114,2.534h59.54c4.761,0,8.62-3.859,8.62-8.62v-59.56c0.011-4.755-3.835-8.619-8.59-8.63
	c-0.03,0-0.06,0-0.09,0L367.32,162z"/>
</svg>
