<?xml version="1.0" encoding="iso-8859-1"?>
<!-- Generator: Adobe Illustrator 24.3.0, SVG Export Plug-In . SVG Version: 6.00 Build 0)  -->
<svg version="1.1" id="Layer_1" xmlns="http://www.w3.org/2000/svg" xmlns:xlink="http://www.w3.org/1999/xlink" x="0px" y="0px"
	 viewBox="0 0 512 512" style="enable-background:new 0 0 512 512;" xml:space="preserve">
<path d="M256,48C141.31,48,48,141.31,48,256s93.31,208,208,208s208-93.31,208-208S370.69,48,256,48z M376,230.15
	c0,4.761-3.859,8.62-8.62,8.62h-59.54c-4.755,0.008-8.616-3.841-8.624-8.596c-0.004-2.294,0.908-4.495,2.534-6.114l22.17-22.17
	l-5.6-6.51c-33.48-34.757-88.796-35.792-123.552-2.312s-35.792,88.796-2.312,123.552c16.469,17.097,39.186,26.758,62.925,26.76
	c37.027-0.035,70.028-23.358,82.42-58.25c2.946-8.34,12.095-12.711,20.435-9.765S370.946,287.461,368,295.8
	c-21.97,62.175-90.183,94.768-152.358,72.798c-62.175-21.97-94.768-90.183-72.798-152.358
	c16.856-47.702,61.945-79.602,112.537-79.62c32.651-0.125,63.904,13.247,86.36,36.95l0.56,0.62l4.31,5l14.68-14.68
	c1.579-1.616,3.741-2.531,6-2.54c4.755-0.039,8.641,3.785,8.68,8.54c0,0.03,0,0.06,0,0.09L376,230.15z"/>
</svg>
