<?xml version="1.0" encoding="iso-8859-1"?>
<!-- Generator: Adobe Illustrator 24.3.0, SVG Export Plug-In . SVG Version: 6.00 Build 0)  -->
<svg version="1.1" id="Layer_1" xmlns="http://www.w3.org/2000/svg" xmlns:xlink="http://www.w3.org/1999/xlink" x="0px" y="0px"
	 viewBox="0 0 512 512" style="enable-background:new 0 0 512 512;" xml:space="preserve">
<path d="M240.001,464C125.309,464,32,370.692,32,256c0-114.691,93.309-208,208-208c0.083,0,0.171,0,0.254,0
	c56.497,0,111.239,23.461,150.213,64.397l0.546,0.603l31.55,36.703l-24.267,20.859l-31.279-36.388
	C334.074,99.732,287.898,80,240.235,80c-0.073,0-0.142,0-0.215,0C142.953,80,64,158.953,64,256C64,353.047,142.953,432,240,432
	c74.443-0.006,141.148-47.16,165.987-117.339l5.338-15.083l30.167,10.677l-5.339,15.084C406.801,408.27,327.974,463.995,240.001,464
	z"/>
<path d="M464,68.45V220c0,2.209-1.791,4-4,4H308.45c-2.209,0.002-4.001-1.788-4.003-3.997c-0.001-1.063,0.421-2.082,1.173-2.833
	L457.17,65.62c1.561-1.563,4.094-1.564,5.657-0.003C463.579,66.368,464.001,67.387,464,68.45z"/>
</svg>
