<?xml version="1.0" encoding="iso-8859-1"?>
<!-- Generator: Adobe Illustrator 24.3.0, SVG Export Plug-In . SVG Version: 6.00 Build 0)  -->
<svg version="1.1" id="Layer_1" xmlns="http://www.w3.org/2000/svg" xmlns:xlink="http://www.w3.org/1999/xlink" x="0px" y="0px"
	 viewBox="0 0 512 512" style="enable-background:new 0 0 512 512;" xml:space="preserve">
<path d="M240.001,464C125.309,464,32,370.692,32,256c0-114.691,93.309-208,208-208c0.083,0,0.171,0,0.254,0
	c56.497,0,111.239,23.461,150.213,64.397l0.546,0.603l21.12,24.57c5.76,6.701,4.997,16.803-1.704,22.563
	c-6.699,5.761-16.801,4.999-22.563-1.704l-20.849-24.255C334.074,99.732,287.898,80,240.235,80c-0.073,0-0.142,0-0.215,0
	C142.953,80,64,158.953,64,256C64,353.047,142.953,432,240,432c74.443-0.006,141.148-47.16,165.987-117.339
	c2.947-8.329,12.089-12.695,20.422-9.744c8.33,2.948,12.692,12.091,9.744,20.422C406.801,408.27,327.974,463.995,240.001,464z"/>
<path d="M464,97.42V208c0,8.837-7.163,16-16,16H337.42c-14.26,0-21.4-17.23-11.32-27.31L436.69,86.1C446.77,76,464,83.16,464,97.42z
	"/>
</svg>
