<?xml version="1.0" encoding="UTF-8"?>
<svg width="513px" height="404px" viewBox="0 0 513 404" version="1.1" xmlns="http://www.w3.org/2000/svg" xmlns:xlink="http://www.w3.org/1999/xlink">
<path d="M146.785714,0.75 C156.884635,0.75 165.071429,8.93679315 165.071429,19.0357143 L165.071,340.596 L261.855762,243.820047 C268.347594,237.328215 278.506252,236.738048 285.664779,242.049548 L287.715667,243.820047 C294.856682,250.961063 294.856682,262.538937 287.715667,269.679953 L159.715667,397.679953 C152.574651,404.820968 140.996777,404.820968 133.855762,397.679953 L5.85576172,269.679953 C-1.28525391,262.538937 -1.28525391,250.961063 5.85576172,243.820047 C12.9967773,236.679032 24.5746512,236.679032 31.7156669,243.820047 L128.5,340.597 L128.5,19.0357143 C128.5,8.93679315 136.686793,0.75 146.785714,0.75 Z M379.144238,6.10576172 L507.144238,134.105762 C514.285254,141.246777 514.285254,152.824651 507.144238,159.965667 C500.003223,167.106682 488.425349,167.106682 481.284333,159.965667 L384.499572,63.188 L384.5,384.745124 C384.5,394.844045 376.313207,403.030838 366.214286,403.030838 C356.115365,403.030838 347.928571,394.844045 347.928571,384.745124 L347.927572,63.188 L251.144238,159.965667 C244.652406,166.457499 234.493748,167.047666 227.335221,161.736167 L225.284333,159.965667 C218.143318,152.824651 218.143318,141.246777 225.284333,134.105762 L353.284333,6.10576172 C360.425349,-1.03525391 372.003223,-1.03525391 379.144238,6.10576172 Z" id="reorder"></path>
</svg>