<?xml version="1.0" encoding="iso-8859-1"?>
<!-- Generator: Adobe Illustrator 24.3.0, SVG Export Plug-In . SVG Version: 6.00 Build 0)  -->
<svg version="1.1" id="Layer_1" xmlns="http://www.w3.org/2000/svg" xmlns:xlink="http://www.w3.org/1999/xlink" x="0px" y="0px"
	 viewBox="0 0 512 512" style="enable-background:new 0 0 512 512;" xml:space="preserve">
<path d="M416,320H96c-8.836,0-16-7.163-16-16s7.164-16,16-16h320c8.837,0,16,7.163,16,16S424.837,320,416,320z"/>
<path d="M416,224H96c-8.836,0-16-7.164-16-16s7.164-16,16-16h320c8.837,0,16,7.164,16,16S424.837,224,416,224z"/>
<path d="M416,128H96c-8.836,0-16-7.164-16-16s7.164-16,16-16h320c8.837,0,16,7.164,16,16S424.837,128,416,128z"/>
<path d="M416,416H96c-8.836,0-16-7.163-16-16s7.164-16,16-16h320c8.837,0,16,7.163,16,16S424.837,416,416,416z"/>
</svg>
