<?xml version="1.0" encoding="iso-8859-1"?>
<!-- Generator: Adobe Illustrator 24.3.0, SVG Export Plug-In . SVG Version: 6.00 Build 0)  -->
<svg version="1.1" id="Layer_1" xmlns="http://www.w3.org/2000/svg" xmlns:xlink="http://www.w3.org/1999/xlink" x="0px" y="0px"
	 viewBox="0 0 512 512" style="enable-background:new 0 0 512 512;" xml:space="preserve">
<path d="M410,278H102C89.85,278,80,268.15,80,256c0-12.15,9.85-22,22-22h308c12.15,0,22,9.85,22,22C432,268.15,422.15,278,410,278z"
	/>
<path d="M410,198H102c-12.15,0-22-9.85-22-22s9.85-22,22-22h308c12.15,0,22,9.85,22,22S422.15,198,410,198z"/>
<path d="M410,358H102c-12.15,0-22-9.85-22-22s9.85-22,22-22h308c12.15,0,22,9.85,22,22S422.15,358,410,358z"/>
</svg>
