<?xml version="1.0" encoding="iso-8859-1"?>
<!-- Generator: Adobe Illustrator 24.3.0, SVG Export Plug-In . SVG Version: 6.00 Build 0)  -->
<svg version="1.1" id="Layer_1" xmlns="http://www.w3.org/2000/svg" xmlns:xlink="http://www.w3.org/1999/xlink" x="0px" y="0px"
	 viewBox="0 0 512 512" style="enable-background:new 0 0 512 512;" xml:space="preserve">
<path d="M416,272H96c-8.836,0-16-7.164-16-16.001c0-8.836,7.164-16,16-16h320c8.837,0,16,7.164,16,16
	C432,264.836,424.837,272,416,272z"/>
<path d="M416,192H96c-8.836,0-16-7.164-16-16s7.164-16,16-16h320c8.837,0,16,7.164,16,16S424.837,192,416,192z"/>
<path d="M416,352H96c-8.836,0-16-7.163-16-16s7.164-16,16-16h320c8.837,0,16,7.163,16,16S424.837,352,416,352z"/>
</svg>
