<?xml version="1.0" encoding="iso-8859-1"?>
<!-- Generator: Adobe Illustrator 24.3.0, SVG Export Plug-In . SVG Version: 6.00 Build 0)  -->
<svg version="1.1" id="Layer_1" xmlns="http://www.w3.org/2000/svg" xmlns:xlink="http://www.w3.org/1999/xlink" x="0px" y="0px"
	 viewBox="0 0 512 512" style="enable-background:new 0 0 512 512;" xml:space="preserve">
<path d="M320,232c-4.095,0-8.189-1.562-11.313-4.686c-6.249-6.249-6.249-16.379,0-22.628L345.372,168l-36.686-36.686
	c-6.249-6.249-6.249-16.379,0-22.628c6.248-6.248,16.379-6.248,22.627,0l48,48c6.249,6.249,6.249,16.379,0,22.628l-48,48
	C328.189,230.438,324.095,232,320,232z"/>
<path d="M64,280c-8.836,0-16-7.163-16-16V248c0.158-52.798,43.202-95.842,95.952-96H352c8.837,0,16,7.164,16,16s-7.163,16-16,16H144
	c-35.163,0.105-63.895,28.837-64,64.048V264C80,272.837,72.836,280,64,280z"/>
<path d="M192,408c-4.095,0-8.189-1.562-11.314-4.687l-48-48c-6.248-6.248-6.248-16.379,0-22.627l48-48
	c6.249-6.248,16.379-6.248,22.628,0c6.248,6.248,6.248,16.379,0,22.627L166.627,344l36.687,36.687
	c6.248,6.248,6.248,16.379,0,22.627C200.189,406.438,196.095,408,192,408z"/>
<path d="M160,360c-8.836,0-16-7.163-16-16s7.164-16,16-16h208c35.163-0.105,63.895-28.837,64-64.048V248c0-8.836,7.163-16,16-16
	s16,7.164,16,16V264c-0.157,52.799-43.201,95.843-95.952,96H160z"/>
</svg>
