<?xml version="1.0" encoding="iso-8859-1"?>
<!-- Generator: Adobe Illustrator 24.3.0, SVG Export Plug-In . SVG Version: 6.00 Build 0)  -->
<svg version="1.1" id="Layer_1" xmlns="http://www.w3.org/2000/svg" xmlns:xlink="http://www.w3.org/1999/xlink" x="0px" y="0px"
	 viewBox="0 0 512 512" style="enable-background:new 0 0 512 512;" xml:space="preserve">
<path d="M416,224c-8.837,0-16-7.164-16-16v-96h-96c-8.837,0-16-7.164-16-16s7.163-16,16-16h112c8.837,0,16,7.164,16,16v112
	C432,216.836,424.837,224,416,224z"/>
<path d="M111.98,416.02c-4.095,0-8.189-1.562-11.313-4.686c-6.249-6.248-6.25-16.379-0.001-22.628l293.79-293.819
	c6.248-6.249,16.378-6.25,22.628-0.001c6.248,6.248,6.249,16.379,0.001,22.627l-293.79,293.82
	C120.17,414.457,116.075,416.02,111.98,416.02z"/>
<path d="M208,432H96c-8.836,0-16-7.163-16-16V304c0-8.837,7.164-16,16-16s16,7.163,16,16v96h96c8.836,0,16,7.163,16,16
	S216.836,432,208,432z"/>
</svg>
