<?xml version="1.0" encoding="iso-8859-1"?>
<!-- Generator: Adobe Illustrator 24.3.0, SVG Export Plug-In . SVG Version: 6.00 Build 0)  -->
<svg version="1.1" id="Layer_1" xmlns="http://www.w3.org/2000/svg" xmlns:xlink="http://www.w3.org/1999/xlink" x="0px" y="0px"
	 viewBox="0 0 512 512" style="enable-background:new 0 0 512 512;" xml:space="preserve">
<path d="M399.559,495.776c-13.643,0.001-27.283-5.189-37.669-15.568c-0.033-0.033-0.066-0.067-0.1-0.101l-90-91.55
	c-8.88-9.018-13.781-20.967-13.79-33.637v-5.54c0.001-4.182-1.674-8.263-4.604-11.237l-11.391-10.519
	c-4.023-3.713-9.594-5.102-14.896-3.716c-22.068,5.764-45.792-0.673-61.92-16.791l-85.435-85.444
	c-35.117-35.118-56.871-82.652-56.772-124.052c0.06-25.064,8.099-46.244,23.248-61.249c6.256-6.198,16.346-6.173,22.573,0.054
	l368.429,368.43c20.772,20.773,20.772,54.573,0.001,75.347C426.847,490.584,413.201,495.776,399.559,495.776z M384.555,457.618
	c8.302,8.248,21.771,8.232,30.055-0.045c8.293-8.293,8.293-21.792-0.004-30.089L59.701,72.579c-3.703,8.611-4.701,17.8-4.718,25.119
	c-0.078,32.694,18.528,72.476,47.401,101.349l85.431,85.44c8.125,8.122,20.086,11.365,31.205,8.462
	c15.895-4.157,32.606,0.012,44.69,11.162l11.625,10.734c0.131,0.12,0.26,0.243,0.386,0.368c9.078,8.961,14.282,21.416,14.279,34.171
	v5.525c0.003,4.212,1.637,8.194,4.601,11.204L384.555,457.618z"/>
<path d="M288,208c-4.095,0-8.189-1.562-11.313-4.686c-6.248-6.248-6.249-16.379,0-22.627l11.31-11.31L288,154.51
	c0-21.373,8.323-41.465,23.438-56.575l77.249-77.249c6.248-6.249,16.379-6.249,22.627,0c6.249,6.248,6.249,16.379,0,22.627
	l-77.25,77.25C324.994,129.631,320,141.686,320,154.51v14.86c0.002,8.55-3.33,16.591-9.381,22.638l-11.306,11.305
	C296.189,206.437,292.095,208,288,208z"/>
<path d="M320,240c-4.095,0-8.189-1.562-11.313-4.686c-6.248-6.248-6.249-16.379,0-22.627l11.31-11.31
	c6.042-6.045,14.081-9.376,22.632-9.376c0.002,0,0.002,0,0.004,0h14.858c12.823,0,24.878-4.994,33.945-14.062l77.251-77.251
	c6.248-6.249,16.379-6.249,22.627,0c6.249,6.248,6.249,16.379,0,22.627l-77.25,77.25C398.954,215.676,378.862,224,357.49,224h-14.86
	l-11.316,11.313C328.189,238.437,324.095,240,320,240z"/>
<path d="M360,168c-4.095,0-8.189-1.562-11.313-4.687c-6.249-6.248-6.249-16.379,0-22.627l80-80c6.248-6.249,16.379-6.249,22.627,0
	c6.249,6.248,6.249,16.379,0,22.627l-80,80C368.189,166.438,364.095,168,360,168z"/>
<path d="M71.988,495.959c-14.337,0-28.668-5.456-39.58-16.364c-21.828-21.834-21.828-57.356-0.003-79.188l84.319-83.759
	c6.269-6.227,16.4-6.192,22.627,0.075c6.228,6.27,6.193,16.4-0.076,22.628l-84.28,83.72c-9.314,9.316-9.314,24.54,0.04,33.896
	c9.352,9.351,24.575,9.352,33.932-0.003l99.687-100.246c6.23-6.266,16.361-6.294,22.627-0.063
	c6.266,6.231,6.294,16.362,0.063,22.628l-99.72,100.279C100.689,490.495,86.335,495.959,71.988,495.959z"/>
</svg>
