<?xml version="1.0" encoding="iso-8859-1"?>
<!-- Generator: Adobe Illustrator 24.3.0, SVG Export Plug-In . SVG Version: 6.00 Build 0)  -->
<svg version="1.1" id="Layer_1" xmlns="http://www.w3.org/2000/svg" xmlns:xlink="http://www.w3.org/1999/xlink" x="0px" y="0px"
	 viewBox="0 0 512 512" style="enable-background:new 0 0 512 512;" xml:space="preserve">
<path d="M342.7,223.94h14.87c21.234,0.058,41.608-8.382,56.58-23.44L496,118l-22.22-22.4l-83.58,83.58l-17.37-17.37l83.58-83.59
	l-23-22.31l-83.27,83.26l-17.32-17.37l83.58-83.59L394,16l-82.5,81.85c-15.059,14.975-23.5,35.353-23.44,56.59v14.86l-43.13,43.13
	L48,16C3.72,70.87,29.87,171.71,79.72,221.57l85.5,85.5c26.55,26.55,31.82,28.92,61.94,16.8c6.49-2.61,8.85-2.32,14.9,3.72l13,12.13
	c2.93,3,3,3.88,3,9.62v5.54c0,21.08,13.48,33.2,22.36,42.24L384,496l72-72L299.57,267.07L342.7,223.94z"/>
<path d="M227.37,354.59c-29.82,6.11-48.11,11.74-83.08-23.23c-0.56-0.56-1.14-1.1-1.7-1.66l-19.5-19.5L16,416l80,80l144-144
	L227.37,354.59z"/>
</svg>
