<?xml version="1.0" encoding="iso-8859-1"?>
<!-- Generator: Adobe Illustrator 24.3.0, SVG Export Plug-In . SVG Version: 6.00 Build 0)  -->
<svg version="1.1" id="Layer_1" xmlns="http://www.w3.org/2000/svg" xmlns:xlink="http://www.w3.org/1999/xlink" x="0px" y="0px"
	 viewBox="0 0 512 512" style="enable-background:new 0 0 512 512;" xml:space="preserve">
<path d="M357.57,223.94c21.234,0.058,41.608-8.382,56.58-23.44l77-76.95c6.09-6.09,6.65-16,0.85-22.39
	c-5.936-6.545-16.055-7.039-22.601-1.103c-0.194,0.176-0.384,0.357-0.569,0.543l-68.63,68.58c-4.798,4.792-12.572,4.792-17.37,0
	c-4.79-4.78-4.53-12.86,0.25-17.64l68.33-68.33c6.248-6.249,6.248-16.379-0.001-22.627c-0.182-0.182-0.368-0.36-0.559-0.533
	c-2.896-2.626-6.671-4.072-10.58-4.05c-4.431,0.003-8.679,1.766-11.81,4.9l-68.27,68.26c-4.798,4.792-12.572,4.792-17.37,0
	c-4.78-4.78-4.53-12.86,0.25-17.64l68.33-68.31c6.248-6.249,6.248-16.379-0.001-22.627c-0.182-0.182-0.368-0.36-0.559-0.533
	c-2.896-2.626-6.671-4.072-10.58-4.05c-4.43,0.005-8.677,1.767-11.81,4.9L311.5,97.85c-15.059,14.975-23.5,35.353-23.44,56.59v8.23
	c0.003,4.25-1.684,8.326-4.69,11.33l-35.61,35.62c-1.561,1.563-4.094,1.564-5.657,0.003c-0.001-0.001-0.002-0.002-0.003-0.003
	L68.82,36.33c-6.226-6.233-16.321-6.26-22.58-0.06C31.09,51.28,23,72.47,23,97.54c-0.1,41.4,21.66,89,56.79,124.08l85.45,85.45
	c12.145,12.12,28.602,18.928,45.76,18.93c5.47,0.002,10.918-0.697,16.21-2.08c1.329-0.348,2.696-0.526,4.07-0.53
	c4.017,0.001,7.885,1.519,10.83,4.25l11.39,10.52c2.938,3.001,4.588,7.03,4.6,11.23v5.54c-0.029,12.594,4.92,24.689,13.77,33.65
	l90.05,91.57l0.09,0.1c20.813,20.81,54.555,20.808,75.365-0.005c20.81-20.813,20.808-54.555-0.005-75.365L302.39,269.9
	c-1.563-1.561-1.564-4.094-0.003-5.657c0.001-0.001,0.002-0.002,0.003-0.003L338,228.63c3.002-3.003,7.074-4.691,11.32-4.69H357.57z
	"/>
<path d="M211,358c-25.617-0.053-50.179-10.203-68.36-28.25l-13.86-13.86c-3.123-3.115-8.177-3.115-11.3,0l-85,84.56
	c-15.15,15.15-20.56,37.45-13.06,59.29c0.42,1.23,0.917,2.433,1.49,3.6C31,484,50.58,496,72,496
	c14.879,0.037,29.154-5.884,39.64-16.44L225,365.66c0.966-0.985,1.449-2.346,1.32-3.72v-0.26c-0.182-2.551-2.397-4.471-4.948-4.289
	c-0.068,0.005-0.135,0.011-0.202,0.019C217.793,357.785,214.398,357.982,211,358z"/>
</svg>
