<?xml version="1.0" encoding="iso-8859-1"?>
<!-- Generator: Adobe Illustrator 24.3.0, SVG Export Plug-In . SVG Version: 6.00 Build 0)  -->
<svg version="1.1" id="Layer_1" xmlns="http://www.w3.org/2000/svg" xmlns:xlink="http://www.w3.org/1999/xlink" x="0px" y="0px"
	 viewBox="0 0 512 512" style="enable-background:new 0 0 512 512;" xml:space="preserve">
<path d="M400,368c-4.095,0-8.189-1.562-11.313-4.687c-6.249-6.248-6.249-16.379,0-22.627L441.373,288l-52.687-52.687
	c-6.249-6.248-6.249-16.379,0-22.627c6.249-6.247,16.38-6.249,22.627,0l64,64.001c6.249,6.248,6.249,16.379,0,22.627l-64,64
	C408.189,366.438,404.095,368,400,368z"/>
<path d="M448,304H154c-32.642,0-63.361-13.082-86.497-36.835C44.609,243.659,32,212.704,32,180v-20c0-8.836,7.164-16,16-16
	s16,7.164,16,16v20c0,24.315,9.385,47.341,26.427,64.838C107.487,262.354,130.065,272,154,272h294c8.837,0,16,7.163,16,16
	S456.837,304,448,304z"/>
</svg>
