<?xml version="1.0" encoding="iso-8859-1"?>
<!-- Generator: Adobe Illustrator 24.3.0, SVG Export Plug-In . SVG Version: 6.00 Build 0)  -->
<svg version="1.1" id="Layer_1" xmlns="http://www.w3.org/2000/svg" xmlns:xlink="http://www.w3.org/1999/xlink" x="0px" y="0px"
	 viewBox="0 0 512 512" style="enable-background:new 0 0 512 512;" xml:space="preserve">
<path d="M112,368c-4.095,0-8.189-1.562-11.313-4.687l-64-64c-6.249-6.248-6.249-16.379,0-22.627l64-64.001
	c6.249-6.249,16.379-6.249,22.627,0c6.249,6.249,6.249,16.379,0,22.627L70.627,288l52.686,52.687c6.249,6.248,6.249,16.379,0,22.627
	C120.189,366.438,116.095,368,112,368z"/>
<path d="M358,304H64c-8.836,0-16-7.163-16-16s7.164-16,16-16h294c23.936,0,46.513-9.646,63.573-27.163
	C438.615,227.341,448,204.315,448,180v-20c0-8.836,7.163-16,16-16s16,7.164,16,16v20c0,32.704-12.608,63.659-35.503,87.166
	C421.36,290.918,390.643,304,358,304z"/>
</svg>
