<?xml version="1.0" encoding="iso-8859-1"?>
<!-- Generator: Adobe Illustrator 24.3.0, SVG Export Plug-In . SVG Version: 6.00 Build 0)  -->
<svg version="1.1" id="Layer_1" xmlns="http://www.w3.org/2000/svg" xmlns:xlink="http://www.w3.org/1999/xlink" x="0px" y="0px"
	 viewBox="0 0 512 512" style="enable-background:new 0 0 512 512;" xml:space="preserve">
<path d="M400,304c-4.095,0-8.189-1.562-11.313-4.687c-6.249-6.248-6.249-16.379,0-22.627L441.373,224l-52.687-52.687
	c-6.249-6.248-6.249-16.379,0-22.627c6.248-6.249,16.379-6.249,22.627,0l64,64c6.249,6.248,6.249,16.379,0,22.627l-64,64.001
	C408.189,302.438,404.095,304,400,304z"/>
<path d="M48,368c-8.836,0-16-7.163-16-16v-20c0-32.703,12.609-63.659,35.503-87.165C90.639,221.081,121.358,208,154,208h294
	c8.837,0,16,7.164,16,16s-7.163,16-16,16H154c-23.935,0-46.513,9.646-63.573,27.163C73.385,284.66,64,307.686,64,332v20
	C64,360.837,56.836,368,48,368z"/>
</svg>
