<?xml version="1.0" encoding="iso-8859-1"?>
<!-- Generator: Adobe Illustrator 24.3.0, SVG Export Plug-In . SVG Version: 6.00 Build 0)  -->
<svg version="1.1" id="Layer_1" xmlns="http://www.w3.org/2000/svg" xmlns:xlink="http://www.w3.org/1999/xlink" x="0px" y="0px"
	 viewBox="0 0 512 512" style="enable-background:new 0 0 512 512;" xml:space="preserve">
<path d="M112,304c-4.095,0-8.189-1.562-11.314-4.687l-64-64.001c-6.248-6.248-6.248-16.379,0-22.627l64-64
	c6.248-6.249,16.379-6.249,22.627,0c6.249,6.248,6.249,16.379,0,22.627L70.627,224l52.687,52.687c6.248,6.248,6.248,16.379,0,22.627
	C120.19,302.438,116.094,304,112,304z"/>
<path d="M464,368c-8.837,0-16-7.163-16-16v-20c0-24.314-9.385-47.341-26.427-64.838C404.513,249.646,381.936,240,358,240H64
	c-8.836,0-16-7.164-16-16s7.164-16,16-16h294c32.643,0,63.36,13.082,86.497,36.835C467.392,268.341,480,299.297,480,332v20
	C480,360.837,472.837,368,464,368z"/>
</svg>
