<?xml version="1.0" encoding="iso-8859-1"?>
<!-- Generator: Adobe Illustrator 24.3.0, SVG Export Plug-In . SVG Version: 6.00 Build 0)  -->
<svg version="1.1" id="Layer_1" xmlns="http://www.w3.org/2000/svg" xmlns:xlink="http://www.w3.org/1999/xlink" x="0px" y="0px"
	 viewBox="0 0 512 512" style="enable-background:new 0 0 512 512;" xml:space="preserve">
<path d="M256,304C176.598,304,112,239.402,112,160c0-79.402,64.598-144,144-144c79.401,0,144,64.598,144,144
	C400,239.402,335.401,304,256,304z M256,48c-61.757,0-112,50.243-112,112C144,221.757,194.243,272,256,272S368,221.757,368,160
	C368,98.243,317.757,48,256,48z"/>
<path d="M191.997,496c-5.611,0-10.841-2.947-13.738-7.803l-43.32-72.62L48.077,416c-0.025,0-0.052,0-0.078,0
	c-5.653,0-10.889-2.983-13.77-7.853c-2.894-4.891-2.977-10.949-0.217-15.917l95.65-172.181c4.292-7.725,14.033-10.507,21.757-6.217
	c7.725,4.292,10.508,14.032,6.217,21.757L75.265,383.869l59.518-0.288c0.054,0,0.109,0,0.163,0c11.207,0,21.724,5.966,27.474,15.601
	l27.663,46.373l75.682-166.495c3.655-8.044,13.143-11.603,21.187-7.944c8.044,3.656,11.602,13.142,7.944,21.187l-88.33,194.32
	c-2.464,5.42-7.732,9.023-13.677,9.354C192.591,495.993,192.293,496,191.997,496z"/>
<path d="M320.003,496c-0.297,0-0.594-0.008-0.893-0.024c-5.944-0.331-11.213-3.936-13.676-9.354l-64-140.801
	c-3.657-8.045-0.1-17.53,7.945-21.187c8.046-3.659,17.532-0.1,21.186,7.944l51.353,112.976l27.661-46.371
	c5.75-9.636,16.269-15.603,27.479-15.603c0.056,0,0.108,0,0.164,0l59.555,0.288l-84.234-152.118
	c-4.281-7.73-1.484-17.467,6.246-21.748c7.733-4.282,17.468-1.483,21.748,6.246l97.46,176.001
	c2.751,4.968,2.663,11.022-0.232,15.908C474.883,413.021,469.649,416,464,416c-0.025,0-0.052,0-0.077,0l-86.86-0.42l-43.321,72.617
	C330.844,493.053,325.613,496,320.003,496z"/>
<path d="M256,240c-44.112,0-80-35.888-80-80s35.888-80,80-80s80,35.888,80,80S300.112,240,256,240z M256,112
	c-26.467,0-48,21.533-48,48s21.533,48,48,48c26.467,0,48-21.533,48-48S282.467,112,256,112z"/>
</svg>
