<?xml version="1.0" encoding="iso-8859-1"?>
<!-- Generator: Adobe Illustrator 24.3.0, SVG Export Plug-In . SVG Version: 6.00 Build 0)  -->
<svg version="1.1" id="Layer_1" xmlns="http://www.w3.org/2000/svg" xmlns:xlink="http://www.w3.org/1999/xlink" x="0px" y="0px"
	 viewBox="0 0 512 512" style="enable-background:new 0 0 512 512;" xml:space="preserve">
<path d="M256,336c-5.22,0-10.4-0.24-15.51-0.69c-53.412-4.773-101.74-33.621-131.29-78.37L20,416h115l58,96l82.53-177.09
	C269.045,335.632,262.525,335.996,256,336z"/>
<path d="M403,256.74c-21.125,31.993-52.071,56.257-88.18,69.14L273.7,415.5L319,512l58-96h115L403,256.74z"/>
<circle cx="256.02" cy="160" r="48"/>
<path d="M256,16c-79.4,0-144,64.6-144,144s64.6,144,144,144s144-64.6,144-144S335.4,16,256,16z M256,240c-44.183,0-80-35.817-80-80
	s35.817-80,80-80s80,35.817,80,80C335.95,204.162,300.162,239.95,256,240z"/>
</svg>
