<?xml version="1.0" encoding="iso-8859-1"?>
<!-- Generator: Adobe Illustrator 24.3.0, SVG Export Plug-In . SVG Version: 6.00 Build 0)  -->
<svg version="1.1" id="Layer_1" xmlns="http://www.w3.org/2000/svg" xmlns:xlink="http://www.w3.org/1999/xlink" x="0px" y="0px"
	 viewBox="0 0 512 512" style="enable-background:new 0 0 512 512;" xml:space="preserve">
<path d="M269,335.61c-4.22,0.313-8.48,0.47-12.78,0.47c-5.23,0-10.4-0.24-15.51-0.69c-51.156-4.535-97.784-31.174-127.67-72.94
	c-1.268-1.809-3.763-2.247-5.571-0.979c-0.495,0.347-0.905,0.801-1.199,1.329l-72,129.4c-2.74,5-3.17,11-0.28,15.88
	c3.058,4.919,8.438,7.913,14.23,7.92h78c5.533-0.205,10.743,2.6,13.62,7.33L178.5,488c2.877,4.88,8.086,7.91,13.75,8l0,0
	c5.94-0.33,12.09-4.19,14.56-9.6l66.11-145.15c0.911-2.013,0.018-4.383-1.995-5.294C270.322,335.683,269.661,335.564,269,335.61z"/>
<path d="M477.64,391.88l-71.53-129.17c-1.085-1.924-3.524-2.605-5.449-1.52c-0.51,0.288-0.951,0.684-1.291,1.16
	c-19.671,27.561-46.855,48.882-78.31,61.42c-3.862,1.522-6.986,4.478-8.72,8.25l-36.86,81.1c-0.96,2.095-0.96,4.505,0,6.6
	l30.27,66.59c2.45,5.41,8.59,9.36,14.52,9.69l0,0c5.668-0.14,10.856-3.215,13.7-8.12l38.53-64.58c2.89-4.85,8.13-7.33,13.78-7.3
	h78.77c6.67,0,11.72-3.48,14-10C480.672,401.314,480.156,396.153,477.64,391.88z"/>
<ellipse cx="256.26" cy="160" rx="48.01" ry="48"/>
<path d="M256.26,16c-79.42,0-144,64.59-144,144s64.61,144,144,144s144-64.6,144-144S335.67,16,256.26,16z M256.26,240
	c-44.183,0-80-35.817-80-80s35.817-80,80-80s80,35.817,80,80C336.205,204.16,300.42,239.945,256.26,240z"/>
</svg>
