<?xml version="1.0" encoding="iso-8859-1"?>
<!-- Generator: Adobe Illustrator 24.3.0, SVG Export Plug-In . SVG Version: 6.00 Build 0)  -->
<svg version="1.1" id="Layer_1" xmlns="http://www.w3.org/2000/svg" xmlns:xlink="http://www.w3.org/1999/xlink" x="0px" y="0px"
	 viewBox="0 0 512 512" style="enable-background:new 0 0 512 512;" xml:space="preserve">
<path d="M206.148,479.826c-0.842,0-1.684-0.042-2.523-0.128c-13.71-1.386-23.74-13.672-22.354-27.387
	c0.005-0.046,0.009-0.091,0.015-0.136l7.048-64.22c-0.714-0.071-1.426-0.146-2.137-0.226c-7.855-0.81-15.234-4.346-20.787-9.962
	l-31.324-31.324c-5.548-5.483-9.083-12.855-9.896-20.704c-0.083-0.749-0.162-1.5-0.237-2.252l-64.277,7.057
	c-0.036,0.004-0.072,0.008-0.108,0.012c-2.184,0.225-4.393,0.16-6.567-0.193c-13.612-2.217-22.878-15.088-20.663-28.694
	c4.413-26.786,20.897-91.76,78.632-117.145c16.578-7.232,36.242-10.379,58.593-9.407c9.012-11.979,18.924-23.348,29.549-33.887
	c33.142-33.118,82.197-64.15,134.543-85.097c51.951-20.789,98.833-28.536,128.627-21.262c7.568,1.826,13.485,7.875,15.147,15.474
	c7.053,30.936-0.747,78.064-21.41,129.33c-20.78,51.554-51.869,100.188-85.298,133.43c-10.521,10.589-21.926,20.502-33.953,29.516
	c0.888,22.277-2.282,41.858-9.451,58.312c-25.359,58.002-90.41,74.272-117.201,78.576
	C208.808,479.719,207.479,479.826,206.148,479.826z M139.001,289.74c3.895,0,7.68,1.423,10.623,4.036
	c3.381,3.002,5.334,7.295,5.376,11.817c0.051,5.549,0.388,11.16,1.002,16.677c0.006,0.056,0.012,0.112,0.018,0.168
	c0.05,0.496,0.273,0.962,0.628,1.313l31.456,31.455c0.417,0.42,0.883,0.643,1.38,0.692c0.06,0.007,0.12,0.013,0.18,0.02
	c5.48,0.611,11.056,0.948,16.573,1.003c4.52,0.044,8.81,1.998,11.811,5.379c3,3.381,4.43,7.873,3.937,12.366l-7.852,71.537
	c24.711-5.312,67.131-19.814,83.857-58.072c5.975-13.713,8.104-31.183,6.318-51.908c-0.488-5.671,2.073-11.174,6.726-14.452
	c13.203-9.304,25.671-19.831,37.057-31.289c63.439-63.086,105.497-172.694,99.359-225.784c-23.774-2.71-61.728,5.066-101.905,21.144
	c-48.477,19.399-93.62,47.853-123.855,78.066c-11.495,11.4-22.023,23.835-31.337,37.001c-3.295,4.659-8.821,7.209-14.504,6.695
	c-20.752-1.878-38.26,0.218-52.041,6.23c-38.083,16.745-52.722,59.143-58.133,83.858l71.58-7.858
	C137.837,289.771,138.42,289.74,139.001,289.74z M454.809,65.986c0.011,0.002,0.021,0.005,0.031,0.007
	C454.829,65.991,454.819,65.988,454.809,65.986z M446.146,57.078C446.146,57.078,446.146,57.078,446.146,57.078
	C446.146,57.078,446.146,57.078,446.146,57.078z M328.854,242.167c-14.999,0-29.999-5.7-41.432-17.108
	c-0.037-0.038-0.076-0.076-0.11-0.111c-11.065-11.082-17.16-25.807-17.162-41.469c-0.001-15.68,6.104-30.421,17.189-41.509
	c11.085-11.088,25.825-17.196,41.504-17.197c0.002,0,0.005,0,0.007,0c15.678,0,30.416,6.104,41.503,17.187
	c11.088,11.086,17.196,25.826,17.198,41.505c0.001,15.662-6.089,30.388-17.152,41.472c-0.023,0.024-0.048,0.048-0.071,0.072
	C358.9,236.448,343.879,242.167,328.854,242.167z M310.042,202.425c10.404,10.363,27.298,10.339,37.673-0.057
	c0.006-0.006,0.013-0.013,0.019-0.02c5.042-5.043,7.817-11.748,7.817-18.878c-0.001-7.132-2.779-13.836-7.823-18.879
	c-5.044-5.042-11.749-7.819-18.881-7.818c-7.132,0-13.836,2.779-18.878,7.822c-5.043,5.044-7.819,11.75-7.819,18.881
	c0.001,7.132,2.779,13.836,7.823,18.879c0,0,0.001,0.001,0.001,0.001C309.992,202.374,310.018,202.4,310.042,202.425z"/>
<path d="M64,464c-4.238,0-8.309-1.682-11.313-4.687c-3.101-3.101-4.792-7.338-4.681-11.722c0.018-0.706,0.472-17.509,3.189-36.776
	c5.985-42.442,17.108-53.603,20.763-57.271c9.609-9.597,22.291-15.775,35.734-17.426c8.773-1.071,16.754,5.161,17.83,13.932
	c1.077,8.771-5.161,16.754-13.932,17.83c-6.398,0.785-12.433,3.726-16.993,8.28c-6.262,6.283-11.402,30.658-13.57,54.813
	c24.156-2.168,48.527-7.312,54.807-13.596c4.584-4.564,7.516-10.58,8.281-16.964c1.052-8.774,9.014-15.046,17.791-13.981
	c8.774,1.052,15.033,9.017,13.981,17.791c-1.618,13.496-7.814,26.211-17.447,35.803c-3.633,3.636-14.774,14.783-57.24,20.775
	c-19.272,2.72-36.086,3.174-36.792,3.192C64.271,463.998,64.135,464,64,464z"/>
</svg>
