<?xml version="1.0" encoding="iso-8859-1"?>
<!-- Generator: Adobe Illustrator 24.3.0, SVG Export Plug-In . SVG Version: 6.00 Build 0)  -->
<svg version="1.1" id="Layer_1" xmlns="http://www.w3.org/2000/svg" xmlns:xlink="http://www.w3.org/1999/xlink" x="0px" y="0px"
	 viewBox="0 0 512 512" style="enable-background:new 0 0 512 512;" xml:space="preserve">
<path d="M477.64,38.26c-0.373-1.806-1.757-3.232-3.55-3.66c-58.57-14.32-193.9,36.71-267.22,110
	c-13.077,12.972-24.999,27.058-35.63,42.1c-22.61-2-45.22-0.33-64.49,8.07C52.38,218.7,36.55,281.14,32.14,308
	c-0.893,5.249,2.638,10.227,7.886,11.12c0.88,0.15,1.776,0.176,2.664,0.08l87.31-9.63c0.062,6.583,0.46,13.158,1.19,19.7
	c0.439,4.543,2.456,8.789,5.7,12L170.7,375c3.214,3.24,7.458,5.256,12,5.7c6.506,0.728,13.044,1.125,19.59,1.19l-9.58,87.2
	c-0.571,5.299,3.261,10.058,8.56,10.629c0.879,0.095,1.768,0.068,2.64-0.079c26.81-4.3,89.36-20.13,113.15-74.5
	c8.4-19.27,10.12-41.77,8.18-64.27c15.078-10.632,29.202-22.557,42.21-35.64C441,232.05,491.74,99.74,477.64,38.26z M294.07,217.93
	c-18.751-18.739-18.761-49.131-0.022-67.882c18.739-18.751,49.131-18.761,67.882-0.022s18.761,49.131,0.022,67.882
	c-0.007,0.007-0.015,0.015-0.022,0.022c-18.712,18.739-49.073,18.761-67.812,0.048C294.102,217.962,294.086,217.946,294.07,217.93z"
	/>
<path d="M168.4,399.43c-5.48,5.49-14.27,7.63-24.85,9.46c-23.77,4.05-44.76-16.49-40.49-40.52c1.63-9.11,6.45-21.88,9.45-24.88
	c1.723-1.69,1.75-4.457,0.06-6.18c-0.967-0.986-2.342-1.457-3.71-1.27c-13.292,1.626-25.659,7.653-35.13,17.12
	C50.22,376.69,48,464,48,464s87.36-2.22,110.87-25.75c9.497-9.464,15.531-21.849,17.13-35.16
	C176.37,398.91,171.28,396.42,168.4,399.43z"/>
</svg>
