<?xml version="1.0" encoding="iso-8859-1"?>
<!-- Generator: Adobe Illustrator 24.3.0, SVG Export Plug-In . SVG Version: 6.00 Build 0)  -->
<svg version="1.1" id="Layer_1" xmlns="http://www.w3.org/2000/svg" xmlns:xlink="http://www.w3.org/1999/xlink" x="0px" y="0px"
	 viewBox="0 0 512 512" style="enable-background:new 0 0 512 512;" xml:space="preserve">
<path d="M328.85,156.79c-14.74,0.008-26.683,11.964-26.675,26.705s11.964,26.683,26.705,26.675s26.683-11.964,26.675-26.705
	c-0.004-7.077-2.818-13.863-7.825-18.865C342.727,159.587,335.932,156.776,328.85,156.79z"/>
<path d="M477.44,50.06c-0.005-0.03-0.005-0.06,0-0.09c-1.725-7.561-7.588-13.491-15.13-15.3c-29.8-7.27-76.68,0.48-128.63,21.28
	c-52.36,21-101.42,52-134.58,85.22c-10.629,10.572-20.503,21.877-29.55,33.83c-22.33-1-42,2.18-58.57,9.41
	c-57.74,25.41-74.23,90.44-78.62,117.14c-2.28,13.618,6.911,26.505,20.528,28.785c2.201,0.369,4.442,0.441,6.662,0.215h0.13
	l64.32-7.02c0.08,0.82,0.17,1.57,0.24,2.26c0.826,7.838,4.321,15.153,9.9,20.72l31.39,31.41c5.559,5.586,12.873,9.086,20.71,9.91
	l2.15,0.23l-7,64.24c0,0,0,0.08,0,0.13c-1.42,13.734,8.562,26.019,22.296,27.439c0.769,0.079,1.541,0.123,2.314,0.131
	c1.39,0.001,2.778-0.113,4.15-0.34C237,475.34,302,459.05,327.34,401c7.17-16.46,10.34-36.05,9.45-58.34
	c12.007-9.027,23.353-18.903,33.95-29.55c33.43-33.26,64.53-81.92,85.31-133.52C476.74,128.23,484.53,81,477.44,50.06z
	 M370.38,224.94c-22.939,22.963-60.15,22.982-83.113,0.043s-22.982-60.15-0.043-83.113c22.939-22.963,60.15-22.982,83.113-0.043
	c0.014,0.014,0.029,0.029,0.043,0.043c22.939,22.595,23.218,59.507,0.624,82.446C370.797,224.526,370.589,224.734,370.38,224.94z"/>
<path d="M161.93,386.44c-3.87-0.48-7.781,0.469-11,2.67c-6.39,4.37-12.81,8.69-19.29,12.9c-13.11,8.52-28.79-6.44-21-20l12.15-21
	c4.987-7.295,3.116-17.251-4.179-22.238c-3.213-2.197-7.117-3.147-10.981-2.672c-13.485,1.705-26.02,7.848-35.63,17.46
	c-3.66,3.67-14.79,14.81-20.78,57.26c-1.705,12.193-2.78,24.466-3.22,36.77c-0.226,8.834,6.751,16.178,15.585,16.405
	C63.723,463.998,63.862,464,64,464h0.4c12.313-0.436,24.596-1.504,36.8-3.2c42.47-6,53.61-17.14,57.27-20.8
	c9.657-9.614,15.784-22.208,17.39-35.74C176.931,395.494,170.696,387.518,161.93,386.44z"/>
</svg>
