<?xml version="1.0" encoding="iso-8859-1"?>
<!-- Generator: Adobe Illustrator 24.3.0, SVG Export Plug-In . SVG Version: 6.00 Build 0)  -->
<svg version="1.1" id="Layer_1" xmlns="http://www.w3.org/2000/svg" xmlns:xlink="http://www.w3.org/1999/xlink" x="0px" y="0px"
	 viewBox="0 0 512 512" style="enable-background:new 0 0 512 512;" xml:space="preserve">
<path d="M448,112c0,0-17.62,0-30.51,1.39c-19,2-42.06,8-59.73,13.22C322.7,137,288.43,150.53,249.91,169.2
	c-18.62,9.05-26,13.35-48,26.13l-4.5,2.67c-32.95,19-57.09,40-73.79,64.3C105.29,288.89,96,320,96,354.64
	c0,40.74,15.71,77.1,44.24,102.37C169,482.52,209.06,496,256,496c46.76,0,86.89-14.32,116-41.43c28.35-26.35,44-63.39,44-104.29
	c0-25-6.19-47-12.17-68.22c-12.59-44.69-23.46-83.29,24.71-144.13C432.75,132.62,448,112,448,112z"/>
<path d="M219,119.55C168.47,92.08,104.72,80,80,80c0,0,23.23,28.19,29.15,55.4s6.54,48.61,2.91,88.6
	c17.94-20.48,40.59-37.15,69.32-53.73l4.48-2.6C208,154.8,216.23,150,236,140.41c2.88-1.4,5.74-2.76,8.58-4.11
	C236.571,129.963,228.01,124.357,219,119.55z"/>
<path d="M345.25,48c0,0-42.53,0.36-86.12,21.3c-11.148,5.371-21.928,11.475-32.27,18.27c2.487,1.26,4.953,2.553,7.4,3.88
	c3.44,1.87,7.09,4,10.9,6.29c11.302,6.932,21.846,15.029,31.46,24.16c24.57-10.41,73-26.1,90.77-31.28
	C359.39,71.47,345.25,48,345.25,48z"/>
<path d="M176,16c-16,10.83-33.24,41.1-33.24,41.1c16.559,4.234,32.888,9.324,48.92,15.25l17.65-11.56
	c8.18-5.35,16.55-10.29,25-14.77C234.31,46,202.59,24.17,176,16z"/>
</svg>
