<?xml version="1.0" encoding="iso-8859-1"?>
<!-- Generator: Adobe Illustrator 24.3.0, SVG Export Plug-In . SVG Version: 6.00 Build 0)  -->
<svg version="1.1" id="Layer_1" xmlns="http://www.w3.org/2000/svg" xmlns:xlink="http://www.w3.org/1999/xlink" x="0px" y="0px"
	 viewBox="0 0 512 512" style="enable-background:new 0 0 512 512;" xml:space="preserve">
<path d="M429.55,119.49c-3.607-5.743-10.443-8.588-17.06-7.1c-18.64,4.19-37.06,9-54.73,14.22C322.7,137,288.43,150.53,249.91,169.2
	c-18.62,9.05-26,13.35-48,26.13l-4.5,2.67c-32.95,19-57.09,40-73.79,64.29C105.29,288.89,96,320,96,354.64
	c0,40.74,15.71,77.1,44.24,102.37C169,482.52,209.06,496,256,496c46.76,0,86.89-14.33,116-41.43c28.35-26.35,44-63.39,44-104.29
	c0-25-6.19-47-12.17-68.22c-12.59-44.69-23.46-83.29,24.71-144.13C432.748,132.618,433.153,125.23,429.55,119.49z"/>
<path d="M219,119.55C168.46,92.08,101.46,80.69,98.63,80.22C91.034,78.974,83.626,83.314,81,90.55
	c-2.015,5.879-0.549,12.391,3.79,16.84c31.84,33.78,32.86,68.79,28.65,104.63c-0.225,1.893,0.78,3.718,2.5,4.54l0,0
	c1.712,0.815,3.753,0.454,5.08-0.9c16.39-16.51,36.37-31.52,60.4-45.39l4.48-2.6C208,154.8,216.23,150,236,140.41l2.69-1.3
	c1.992-0.955,2.833-3.344,1.878-5.336c-0.284-0.592-0.709-1.105-1.238-1.494C232.846,127.586,226.054,123.333,219,119.55z"/>
<path d="M234.26,91.45c3.44,1.87,7.09,4,10.9,6.29c10.566,6.477,20.47,13.977,29.57,22.39c1.153,1.074,2.828,1.372,4.28,0.76
	c22.74-9.606,45.992-17.952,69.65-25c4.667-1.38,9.36-2.713,14.08-4c2.13-0.586,3.382-2.787,2.796-4.917
	c-0.067-0.242-0.156-0.477-0.266-0.703c-8.27-16.83-14.67-28.9-15.15-29.79c-2.779-5.218-8.208-8.479-14.12-8.48
	c-1.91,0-33.28,0.36-76.87,21.3c-9.051,4.358-17.861,9.202-26.39,14.51c-1.882,1.157-2.469,3.621-1.311,5.503
	c0.373,0.607,0.902,1.103,1.531,1.437L234.26,91.45z"/>
<path d="M209.33,60.79c7.3-4.77,14.74-9.22,22.25-13.31c0.97-0.528,1.329-1.742,0.801-2.713c-0.138-0.254-0.329-0.475-0.561-0.647
	c-26-19.57-49.73-27-51.15-27.42c-6.495-1.983-13.535,0.35-17.56,5.82c-7.351,10.216-13.802,21.049-19.28,32.38
	c-0.484,0.993-0.071,2.19,0.923,2.674c0.118,0.057,0.241,0.103,0.367,0.136c13.61,3.57,29.4,8.29,45.61,14.29
	c0.595,0.221,1.259,0.147,1.79-0.2L209.33,60.79z"/>
</svg>
