<?xml version="1.0" encoding="iso-8859-1"?>
<!-- Generator: Adobe Illustrator 24.3.0, SVG Export Plug-In . SVG Version: 6.00 Build 0)  -->
<svg version="1.1" id="Layer_1" xmlns="http://www.w3.org/2000/svg" xmlns:xlink="http://www.w3.org/1999/xlink" x="0px" y="0px"
	 viewBox="0 0 512 512" style="enable-background:new 0 0 512 512;" xml:space="preserve">
<path d="M256,496c-46.938,0-86.966-13.481-115.759-38.987C111.711,431.742,96,395.385,96,354.64c0-34.67,9.293-65.749,27.621-92.373
	c16.698-24.255,40.833-45.287,73.784-64.296l4.455-2.593c21.999-12.806,29.41-17.12,48.053-26.171
	c38.494-18.667,72.758-32.202,107.842-42.597c17.716-5.252,36.133-10.037,54.735-14.22c6.613-1.489,13.448,1.356,17.057,7.096
	c3.607,5.74,3.206,13.131-1.003,18.447c-48.16,60.82-37.301,99.391-24.727,144.053C409.807,303.259,416,325.256,416,350.28
	c0,40.908-15.61,77.948-43.957,104.296C342.888,481.676,302.761,496,256,496z M379.856,153.557
	c-4.374,1.215-8.714,2.46-13.009,3.733c-33.37,9.887-66.088,22.822-102.966,40.706c-17.553,8.522-24.13,12.351-45.923,25.037
	l-4.513,2.626c-28.786,16.606-49.529,34.507-63.467,54.753C135.189,301.897,128,326.177,128,354.64C128,421.074,178.243,464,256,464
	c38.534,0,71.128-11.364,94.257-32.863C372.332,410.619,384,382.659,384,350.28c0-20.604-5.336-39.557-10.985-59.621
	C362.155,252.086,350.09,209.235,379.856,153.557z"/>
<path d="M129.896,298.414c-7.31,0-13.908-5.041-15.59-12.471c-6.314-27.886-2.367-62.359-2.195-63.813
	c0.012-0.102,0.025-0.204,0.039-0.305c5.407-39.408,7.354-77.842-27.75-114.807c-4.737-4.989-5.755-12.447-2.529-18.522
	c3.226-6.075,9.973-9.409,16.761-8.278c2.828,0.471,69.834,11.858,120.317,39.328c16.931,9.224,37.052,22.519,57.98,51.216
	c5.206,7.14,3.64,17.148-3.5,22.355c-7.139,5.206-17.147,3.641-22.355-3.5c-17.15-23.519-32.93-34.069-47.427-41.967
	c-22.43-12.206-49.187-21.033-70.727-26.877c19.845,40.009,14.516,79.289,10.958,105.215c-0.23,2.097-3.286,31.141,1.638,52.888
	c1.951,8.618-3.453,17.187-12.072,19.139C132.254,298.284,131.065,298.413,129.896,298.414z"/>
<path d="M372.007,155.154c-6.236,0-12.163-3.668-14.744-9.774c-10.492-24.821-23.549-50.923-30.499-64.464
	c-6.523,0.95-16.209,2.884-28.094,6.813c-20.888,6.906-53.068,21.577-87.76,52.257c-6.619,5.855-16.731,5.233-22.585-1.386
	c-5.854-6.62-5.233-16.731,1.386-22.585C265.745,48.773,333.167,48,336,48c5.913,0,11.345,3.261,14.123,8.481
	c0.853,1.602,21.064,39.654,36.614,76.439c3.44,8.139-0.368,17.526-8.508,20.967C376.196,154.747,374.084,155.154,372.007,155.154z"
	/>
<path d="M141.14,122.174c-1.377,0-2.775-0.179-4.168-0.554c-8.533-2.297-13.588-11.076-11.292-19.608
	c6.043-22.454,19.961-55.741,37.432-79.492c4.024-5.472,11.063-7.807,17.559-5.823c2.047,0.625,50.531,15.82,85.476,61.098
	c5.398,6.996,4.104,17.043-2.891,22.442c-6.995,5.398-17.043,4.104-22.442-2.891c-19.488-25.251-44.634-39.312-58.726-45.722
	c-11.8,19.167-21.21,42.737-25.508,58.704C154.658,117.468,148.197,122.173,141.14,122.174z"/>
</svg>
