<?xml version="1.0" encoding="iso-8859-1"?>
<!-- Generator: Adobe Illustrator 24.3.0, SVG Export Plug-In . SVG Version: 6.00 Build 0)  -->
<svg version="1.1" id="Layer_1" xmlns="http://www.w3.org/2000/svg" xmlns:xlink="http://www.w3.org/1999/xlink" x="0px" y="0px"
	 viewBox="0 0 512 512" style="enable-background:new 0 0 512 512;" xml:space="preserve">
<circle cx="184" cy="232" r="24"/>
<path d="M256,288c45.42,0,83.62,29.53,95.71,69.83c1.199,4.252-1.275,8.672-5.528,9.871c-0.762,0.215-1.551,0.315-2.342,0.299
	H168.15c-4.418,0.066-8.053-3.461-8.119-7.879c-0.012-0.774,0.089-1.546,0.299-2.291C172.32,317.53,210.53,288,256,288z"/>
<circle cx="328" cy="232" r="24"/>
<path d="M256,480c-59.833,0-116.084-23.3-158.392-65.608C55.3,372.084,32,315.832,32,256S55.3,139.916,97.608,97.608
	C139.917,55.3,196.167,32,256,32c59.832,0,116.084,23.3,158.392,65.608C456.7,139.916,480,196.167,480,256
	s-23.3,116.084-65.608,158.392C372.084,456.701,315.832,480,256,480z M256,64C150.131,64,64,150.131,64,256
	C64,361.87,150.131,448,256,448S448,361.87,448,256C448,150.131,361.869,64,256,64z"/>
</svg>
