<?xml version="1.0" encoding="iso-8859-1"?>
<!-- Generator: Adobe Illustrator 24.3.0, SVG Export Plug-In . SVG Version: 6.00 Build 0)  -->
<svg version="1.1" id="Layer_1" xmlns="http://www.w3.org/2000/svg" xmlns:xlink="http://www.w3.org/1999/xlink" x="0px" y="0px"
	 viewBox="0 0 512 512" style="enable-background:new 0 0 512 512;" xml:space="preserve">
<path d="M465.94,119.76l-73.7-73.7l0,0c-8.981-9.032-21.203-14.095-33.94-14.06H96c-35.346,0-64,28.654-64,64v320
	c0,35.346,28.654,64,64,64h320c35.346,0,64-28.654,64-64V153.7C480.035,140.963,474.972,128.741,465.94,119.76z M120,112h176
	c4.418,0,8,3.582,8,8v48c0,4.418-3.582,8-8,8H120c-4.418,0-8-3.582-8-8v-48C112,115.582,115.582,112,120,112z M259.75,431.91
	c-44.134,2.072-81.592-32.026-83.664-76.16c-2.072-44.134,32.026-81.592,76.16-83.664c44.134-2.072,81.592,32.026,83.664,76.16
	c0.117,2.5,0.117,5.004,0,7.504C333.946,396.971,300.971,429.947,259.75,431.91z"/>
<circle cx="256" cy="352" r="48"/>
</svg>
