<?xml version="1.0" encoding="iso-8859-1"?>
<!-- Generator: Adobe Illustrator 24.3.0, SVG Export Plug-In . SVG Version: 6.00 Build 0)  -->
<svg version="1.1" id="Layer_1" xmlns="http://www.w3.org/2000/svg" xmlns:xlink="http://www.w3.org/1999/xlink" x="0px" y="0px"
	 viewBox="0 0 512 512" style="enable-background:new 0 0 512 512;" xml:space="preserve">
<path d="M380.44,32H64c-17.673,0-32,14.327-32,32v384c0,17.673,14.327,32,32,32h384c17.653-0.049,31.951-14.347,32-32V131.56
	L380.44,32z M112,176v-64h192v64H112z M335.91,355.76c-2.075,44.134-39.536,78.229-83.67,76.154
	c-44.134-2.075-78.229-39.536-76.154-83.67c1.939-41.233,34.931-74.22,76.163-76.154c44.256-1.948,81.712,32.348,83.66,76.604
	C336.014,351.048,336.014,353.406,335.91,355.76z"/>
</svg>
