<?xml version="1.0" encoding="iso-8859-1"?>
<!-- Generator: Adobe Illustrator 24.3.0, SVG Export Plug-In . SVG Version: 6.00 Build 0)  -->
<svg version="1.1" id="Layer_1" xmlns="http://www.w3.org/2000/svg" xmlns:xlink="http://www.w3.org/1999/xlink" x="0px" y="0px"
	 viewBox="0 0 512 512" style="enable-background:new 0 0 512 512;" xml:space="preserve">
<path d="M94.22,480c-34.326-0.008-62.228-27.922-62.22-62.224V94.22C32.007,59.9,59.916,32,94.21,32c0.006,0,0.007,0,0.014,0H358.3
	c0.002,0,0.007,0,0.009,0c12.817,0,24.868,4.991,33.934,14.056c0.001,0,0.001,0,0.001,0.001l73.7,73.7
	c9.066,9.067,14.058,21.123,14.057,33.945V417.78c-0.104,34.227-27.993,62.117-62.171,62.221H94.22z M94.214,64
	C77.555,64,64.003,77.548,64,94.204V417.78C63.997,434.441,77.546,447.997,94.204,448H417.78c16.591-0.05,30.17-13.629,30.22-30.27
	V153.7c0.001-4.277-1.663-8.295-4.685-11.317l-73.699-73.7l0.001,0.001l-0.001-0.001c-3.021-3.021-7.04-4.684-11.313-4.684H94.22
	C94.218,64,94.216,64,94.214,64z M256.181,432H256c-44.112,0-80-35.888-80-80s35.888-80,80-80s80,35.888,80,80
	C336.055,396.047,300.248,431.945,256.181,432z M256,304c-26.467,0-48,21.533-48,48s21.533,48,48,48h0.16
	c26.402-0.033,47.873-21.558,47.84-47.98C304,325.534,282.468,304,256,304z M304,208H112c-17.645,0-32-14.355-32-32v-64
	c0-17.645,14.355-32,32-32h192c17.645,0,32,14.355,32,32v64C336,193.645,321.645,208,304,208z M112,112v64h192
	c0.014,0,0.021-0.001,0.021-0.001L304,112H112z"/>
</svg>
