<?xml version="1.0" encoding="iso-8859-1"?>
<!-- Generator: Adobe Illustrator 24.3.0, SVG Export Plug-In . SVG Version: 6.00 Build 0)  -->
<svg version="1.1" id="icons" xmlns="http://www.w3.org/2000/svg" xmlns:xlink="http://www.w3.org/1999/xlink" x="0px" y="0px"
	 viewBox="0 0 512 512" style="enable-background:new 0 0 512 512;" xml:space="preserve">
<path d="M368,480H144c-61.757,0-112-50.243-112-112V144C32,82.243,82.243,32,144,32h224c61.757,0,112,50.243,112,112V368
	C480,429.757,429.757,480,368,480z M144,64c-44.112,0-80,35.888-80,80V368c0,44.112,35.888,80,80,80h224c44.112,0,80-35.888,80-80
	V144c0-44.112-35.888-80-80-80H144z"/>
<path d="M173.085,264.075c-11.911,0-23.63-5.109-31.934-14.836l-33.343-39.237c-17.786-20.91-15.821-51.778,4.478-70.269
	C140.118,114.38,187.644,84.16,256,84.16s115.883,30.22,143.715,55.571c0,0,0,0,0,0c20.299,18.49,22.264,49.359,4.473,70.275
	l-33.27,39.197c-13.642,15.983-36.445,19.521-54.25,8.441c-14.179-8.755-36.256-19.225-60.648-19.225
	c-24.392,0-46.468,10.47-60.693,19.254C188.399,261.984,180.703,264.074,173.085,264.075z M256,116.16
	c-58.117,0-98.512,25.683-122.166,47.229c-7.477,6.811-8.2,18.181-1.647,25.885l33.325,39.216c3.236,3.791,8.694,4.637,12.956,1.985
	c17.797-10.989,45.653-24.055,77.552-24.055c31.899,0,59.756,13.065,77.507,24.026c4.307,2.681,9.766,1.833,13.023-1.984
	l33.252-39.176c6.564-7.717,5.841-19.087-1.636-25.898C354.513,141.843,314.117,116.16,256,116.16z"/>
</svg>
