<?xml version="1.0" encoding="iso-8859-1"?>
<!-- Generator: Adobe Illustrator 24.3.0, SVG Export Plug-In . SVG Version: 6.00 Build 0)  -->
<svg version="1.1" id="icons" xmlns="http://www.w3.org/2000/svg" xmlns:xlink="http://www.w3.org/1999/xlink" x="0px" y="0px"
	 viewBox="0 0 512 512" style="enable-background:new 0 0 512 512;" xml:space="preserve">
<path d="M432,32H80c-26.498,0.028-47.972,21.502-48,48v352c0.028,26.498,21.502,47.972,48,48h352c26.498-0.028,47.972-21.502,48-48
	V80C479.972,53.502,458.498,32.028,432,32z M415.29,197l-52.46,61.73c-9.395,11.179-25.831,13.196-37.65,4.62
	c-13-9.29-39.27-24.89-69.18-24.89s-56.18,15.6-69.18,24.89c-11.82,8.571-28.253,6.554-37.65-4.62L96.71,197
	c-10.301-12.165-10.122-30.044,0.42-42c18.93-21.31,72.3-70.87,158.87-70.87S395.94,133.72,414.87,155l0,0
	C425.412,166.956,425.591,184.835,415.29,197z"/>
</svg>
