<?xml version="1.0" encoding="iso-8859-1"?>
<!-- Generator: Adobe Illustrator 24.3.0, SVG Export Plug-In . SVG Version: 6.00 Build 0)  -->
<svg version="1.1" id="icons" xmlns="http://www.w3.org/2000/svg" xmlns:xlink="http://www.w3.org/1999/xlink" x="0px" y="0px"
	 viewBox="0 0 512 512" style="enable-background:new 0 0 512 512;" xml:space="preserve">
<path d="M368,32H144C82.172,32.066,32.066,82.172,32,144v224c0.066,61.828,50.172,111.934,112,112h224
	c61.828-0.066,111.934-50.172,112-112V144C479.934,82.172,429.828,32.066,368,32z M404.21,210l-33.32,39.21
	c-7.927,9.4-19.594,14.83-31.89,14.84c-7.879-0.01-15.599-2.22-22.29-6.38c-14.22-8.78-36.3-19.25-60.69-19.25
	s-46.47,10.47-60.69,19.25c-17.655,11.06-40.756,7.454-54.2-8.46L107.79,210c-17.783-20.773-15.792-51.929,4.49-70.27
	c27.84-25.35,75.37-55.57,143.72-55.57s115.88,30.22,143.72,55.57C420.002,158.071,421.993,189.227,404.21,210z"/>
</svg>
