<?xml version="1.0" encoding="iso-8859-1"?>
<!-- Generator: Adobe Illustrator 24.3.0, SVG Export Plug-In . SVG Version: 6.00 Build 0)  -->
<svg version="1.1" id="Layer_1" xmlns="http://www.w3.org/2000/svg" xmlns:xlink="http://www.w3.org/1999/xlink" x="0px" y="0px"
	 viewBox="0 0 512 512" style="enable-background:new 0 0 512 512;" xml:space="preserve">
<path d="M392,464h-56c-8.837,0-16-7.163-16-16s7.163-16,16-16h56c22.056,0,40-17.944,40-40v-56c0-8.837,7.163-16,16-16
	s16,7.163,16,16v56C464,431.702,431.701,464,392,464z"/>
<path d="M448,192c-8.837,0-16-7.164-16-16v-56c0-22.056-17.944-40-40-40h-56c-8.837,0-16-7.164-16-16s7.163-16,16-16h56
	c39.701,0,72,32.299,72,72v56C464,184.836,456.837,192,448,192z"/>
<path d="M176,464h-56c-39.701,0-72-32.299-72-72v-56c0-8.837,7.164-16,16-16s16,7.163,16,16v56c0,22.056,17.944,40,40,40h56
	c8.836,0,16,7.163,16,16S184.836,464,176,464z"/>
<path d="M64,192c-8.836,0-16-7.164-16-16v-56c0-39.701,32.299-72,72-72h56c8.836,0,16,7.164,16,16s-7.164,16-16,16h-56
	c-22.056,0-40,17.944-40,40v56C80,184.836,72.836,192,64,192z"/>
</svg>
