<?xml version="1.0" encoding="iso-8859-1"?>
<!-- Generator: Adobe Illustrator 24.3.0, SVG Export Plug-In . SVG Version: 6.00 Build 0)  -->
<svg version="1.1" id="Layer_1" xmlns="http://www.w3.org/2000/svg" xmlns:xlink="http://www.w3.org/1999/xlink" x="0px" y="0px"
	 viewBox="0 0 512 512" style="enable-background:new 0 0 512 512;" xml:space="preserve">
<path d="M388,466h-46c-12.15,0-22-9.85-22-22s9.85-22,22-22h46c18.748,0,34-15.252,34-34v-46c0-12.15,9.85-22,22-22s22,9.85,22,22
	v46C466,431.01,431.01,466,388,466z"/>
<path d="M444,192c-12.15,0-22-9.85-22-22v-46c0-18.748-15.252-34-34-34h-46c-12.15,0-22-9.85-22-22s9.85-22,22-22h46
	c43.01,0,78,34.991,78,78v46C466,182.15,456.15,192,444,192z"/>
<path d="M170,466h-46c-43.009,0-78-34.99-78-78v-46c0-12.15,9.85-22,22-22s22,9.85,22,22v46c0,18.748,15.252,34,34,34h46
	c12.15,0,22,9.85,22,22S182.15,466,170,466z"/>
<path d="M68,192c-12.15,0-22-9.85-22-22v-46c0-43.009,34.991-78,78-78h46c12.15,0,22,9.85,22,22s-9.85,22-22,22h-46
	c-18.748,0-34,15.252-34,34v46C90,182.15,80.15,192,68,192z"/>
</svg>
