<?xml version="1.0" encoding="iso-8859-1"?>
<!-- Generator: Adobe Illustrator 24.3.0, SVG Export Plug-In . SVG Version: 6.00 Build 0)  -->
<svg version="1.1" id="Layer_1" xmlns="http://www.w3.org/2000/svg" xmlns:xlink="http://www.w3.org/1999/xlink" x="0px" y="0px"
	 viewBox="0 0 512 512" style="enable-background:new 0 0 512 512;" xml:space="preserve">
<path d="M388,466h-68v-44h68c18.778,0,34-15.222,34-34v-68h44v68C465.95,431.058,431.058,465.95,388,466z"/>
<path d="M466,192h-44v-68c0-18.778-15.222-34-34-34h-68V46h68c43.058,0.05,77.95,34.942,78,78V192z"/>
<path d="M192,466h-68c-43.058-0.05-77.95-34.942-78-78v-68h44v68c0,18.778,15.222,34,34,34h68V466z"/>
<path d="M90,192H46v-68c0.05-43.058,34.942-77.95,78-78h68v44h-68c-18.778,0-34,15.222-34,34l0,0V192z"/>
</svg>
