<?xml version="1.0" encoding="iso-8859-1"?>
<!-- Generator: Adobe Illustrator 24.3.0, SVG Export Plug-In . SVG Version: 6.00 Build 0)  -->
<svg version="1.1" id="Layer_1" xmlns="http://www.w3.org/2000/svg" xmlns:xlink="http://www.w3.org/1999/xlink" x="0px" y="0px"
	 viewBox="0 0 512 512" style="enable-background:new 0 0 512 512;" xml:space="preserve">
<path d="M256,48C141.31,48,48,141.31,48,256s93.31,208,208,208s208-93.31,208-208S370.69,48,256,48z M232,368h-44
	c-24.289-0.028-43.972-19.711-44-44v-44h32v44c0,6.627,5.373,12,12,12h44V368z M232,176h-44c-6.627,0-12,5.373-12,12v44h-32v-44
	c0.028-24.289,19.711-43.972,44-44h44V176z M368,324c-0.028,24.289-19.711,43.972-44,44h-44v-32h44c6.627,0,12-5.373,12-12v-44h32
	V324z M368,232h-32v-44c0-6.627-5.373-12-12-12h-44v-32h44c24.289,0.028,43.972,19.711,44,44V232z"/>
</svg>
