<?xml version="1.0" encoding="iso-8859-1"?>
<!-- Generator: Adobe Illustrator 24.3.0, SVG Export Plug-In . SVG Version: 6.00 Build 0)  -->
<svg version="1.1" id="Layer_1" xmlns="http://www.w3.org/2000/svg" xmlns:xlink="http://www.w3.org/1999/xlink" x="0px" y="0px"
	 viewBox="0 0 512 512" style="enable-background:new 0 0 512 512;" xml:space="preserve">
<path d="M256,48C141.31,48,48,141.31,48,256s93.31,208,208,208s208-93.31,208-208S370.69,48,256,48z M216,368h-28
	c-24.289-0.028-43.972-19.711-44-44v-28c0-8.837,7.163-16,16-16s16,7.163,16,16v28c0,6.627,5.373,12,12,12h28
	c8.837,0,16,7.163,16,16S224.837,368,216,368z M216,176h-28c-6.627,0-12,5.373-12,12v28c0,8.837-7.163,16-16,16s-16-7.163-16-16v-28
	c0.028-24.289,19.711-43.972,44-44h28c8.837,0,16,7.163,16,16S224.837,176,216,176z M368,324c-0.028,24.289-19.711,43.972-44,44h-28
	c-8.837,0-16-7.163-16-16s7.163-16,16-16h28c6.627,0,12-5.373,12-12v-28c0-8.837,7.163-16,16-16s16,7.163,16,16V324z M368,216
	c0,8.837-7.163,16-16,16s-16-7.163-16-16v-28c0-6.627-5.373-12-12-12h-28c-8.837,0-16-7.163-16-16s7.163-16,16-16h28
	c24.289,0.028,43.972,19.711,44,44V216z"/>
</svg>
