<?xml version="1.0" encoding="iso-8859-1"?>
<!-- Generator: Adobe Illustrator 24.3.0, SVG Export Plug-In . SVG Version: 6.00 Build 0)  -->
<svg version="1.1" id="Layer_1" xmlns="http://www.w3.org/2000/svg" xmlns:xlink="http://www.w3.org/1999/xlink" x="0px" y="0px"
	 viewBox="0 0 512 512" style="enable-background:new 0 0 512 512;" xml:space="preserve">
<path d="M256,464C141.309,464,48,370.692,48,256c0-114.691,93.309-208,208-208s208,93.309,208,208C464,370.692,370.691,464,256,464z
	 M256,80c-97.047,0-176,78.953-176,176C80,353.047,158.953,432,256,432S432,353.047,432,256C432,158.953,353.047,80,256,80z"/>
<path d="M324,368h-28c-8.837,0-16-7.163-16-16s7.163-16,16-16h28c6.617,0,12-5.383,12-12v-28c0-8.837,7.163-16,16-16s16,7.163,16,16
	v28C368,348.262,348.262,368,324,368z"/>
<path d="M352,232c-8.837,0-16-7.164-16-16v-28c0-6.617-5.383-12-12-12h-28c-8.837,0-16-7.164-16-16s7.163-16,16-16h28
	c24.262,0,44,19.738,44,44v28C368,224.836,360.837,232,352,232z"/>
<path d="M216,368h-28c-24.262,0-44-19.738-44-44v-28c0-8.837,7.164-16,16-16s16,7.163,16,16v28c0,6.617,5.383,12,12,12h28
	c8.836,0,16,7.163,16,16S224.836,368,216,368z"/>
<path d="M160,232c-8.836,0-16-7.164-16-16v-28c0-24.262,19.738-44,44-44h28c8.836,0,16,7.164,16,16s-7.164,16-16,16h-28
	c-6.617,0-12,5.383-12,12v28C176,224.836,168.836,232,160,232z"/>
</svg>
