<?xml version="1.0" encoding="iso-8859-1"?>
<!-- Generator: Adobe Illustrator 24.3.0, SVG Export Plug-In . SVG Version: 6.00 Build 0)  -->
<svg version="1.1" id="Layer_1" xmlns="http://www.w3.org/2000/svg" xmlns:xlink="http://www.w3.org/1999/xlink" x="0px" y="0px"
	 viewBox="0 0 512 512" style="enable-background:new 0 0 512 512;" xml:space="preserve">
<path d="M256,336c-2.739,0-5.479-0.703-7.938-2.108l-224-128.001C19.077,203.043,16,197.742,16,192s3.077-11.043,8.062-13.892
	l224-128c4.919-2.811,10.957-2.811,15.876,0l224,128c4.985,2.849,8.062,8.15,8.062,13.892s-3.076,11.043-8.062,13.892l-224,128.001
	C261.479,335.297,258.739,336,256,336z M64.249,192L256,301.573L447.751,192L256,82.428L64.249,192z"/>
<path d="M256,464c-2.677,0-5.354-0.671-7.77-2.014l-144-80C99.15,379.165,96,373.811,96,368V240c0-8.836,7.164-16,16-16
	s16,7.164,16,16v118.586l128,71.11l128-71.11V240c0-8.836,7.163-16,16-16s16,7.164,16,16V368c0,5.811-3.15,11.165-8.229,13.986
	l-144,80C261.354,463.33,258.677,464,256,464z"/>
<path d="M480,384c-8.837,0-16-7.163-16-16V192c0-8.836,7.163-16,16-16s16,7.164,16,16V368C496,376.837,488.837,384,480,384z"/>
<path d="M256,464c-8.836,0-16-7.163-16-16V320c0-8.837,7.164-16,16-16c8.837,0,16,7.163,16,16v128C272,456.837,264.837,464,256,464z
	"/>
</svg>
