<?xml version="1.0" encoding="iso-8859-1"?>
<!-- Generator: Adobe Illustrator 24.3.0, SVG Export Plug-In . SVG Version: 6.00 Build 0)  -->
<svg version="1.1" id="Layer_1" xmlns="http://www.w3.org/2000/svg" xmlns:xlink="http://www.w3.org/1999/xlink" x="0px" y="0px"
	 viewBox="0 0 512 512" style="enable-background:new 0 0 512 512;" xml:space="preserve">
<path d="M256,368c-2.785,0-5.522-0.728-7.94-2.11L108,285.84c-3.826-2.209-8.719-0.898-10.928,2.928
	c-0.704,1.22-1.074,2.604-1.072,4.012V368c-0.005,5.816,3.146,11.176,8.23,14l144,80c4.832,2.684,10.708,2.684,15.54,0l144-80
	c5.084-2.824,8.235-8.184,8.23-14v-75.22c0.007-4.418-3.57-8.005-7.988-8.012c-1.408-0.002-2.792,0.368-4.012,1.072l-140.06,80.05
	C261.522,367.272,258.785,368,256,368z"/>
<path d="M495.92,190.5c0,0,0-0.08,0-0.11c-0.525-5.146-3.505-9.72-8-12.28l-224-128c-4.92-2.812-10.96-2.812-15.88,0l-224,128
	c-7.671,4.386-10.334,14.16-5.948,21.832c1.417,2.478,3.471,4.532,5.948,5.948l224,128c4.92,2.812,10.96,2.812,15.88,0L461,221.28
	c0.957-0.552,2.18-0.225,2.732,0.732c0.177,0.306,0.269,0.654,0.268,1.008v144.53c0,8.61,6.62,16,15.23,16.43
	c8.826,0.425,16.326-6.385,16.751-15.211c0.012-0.256,0.018-0.512,0.019-0.768V192C495.999,191.499,495.972,190.998,495.92,190.5z"
	/>
</svg>
