<?xml version="1.0" encoding="iso-8859-1"?>
<!-- Generator: Adobe Illustrator 24.3.0, SVG Export Plug-In . SVG Version: 6.00 Build 0)  -->
<svg version="1.1" id="Layer_1" xmlns="http://www.w3.org/2000/svg" xmlns:xlink="http://www.w3.org/1999/xlink" x="0px" y="0px"
	 viewBox="0 0 512 512" style="enable-background:new 0 0 512 512;" xml:space="preserve">
<path d="M464,428L339.92,303.9c19.996-27.479,30.753-60.596,30.72-94.58C370.64,120.37,298.27,48,209.32,48S48,120.37,48,209.32
	s72.37,161.32,161.32,161.32c33.984,0.033,67.101-10.724,94.58-30.72L428,464L464,428z M209.32,319.69
	c-60.961,0.006-110.384-49.409-110.39-110.37S148.339,98.936,209.3,98.93s110.384,49.409,110.39,110.37c0,0.007,0,0.013,0,0.02
	C319.618,270.246,270.246,319.618,209.32,319.69z"/>
</svg>
