<?xml version="1.0" encoding="iso-8859-1"?>
<!-- Generator: Adobe Illustrator 24.3.0, SVG Export Plug-In . SVG Version: 6.00 Build 0)  -->
<svg version="1.1" id="Layer_1" xmlns="http://www.w3.org/2000/svg" xmlns:xlink="http://www.w3.org/1999/xlink" x="0px" y="0px"
	 viewBox="0 0 512 512" style="enable-background:new 0 0 512 512;" xml:space="preserve">
<path d="M256,448C150.131,448,64,361.87,64,256c0-105.869,86.131-192,192-192s192,86.131,192,192C448,361.87,361.869,448,256,448z
	 M256,96c-88.224,0-160,71.776-160,160S167.776,416,256,416c88.225,0,160-71.776,160-160.001S344.225,96,256,96z"/>
<path d="M232,320c-48.523,0-88-39.477-88-88.001c0-48.523,39.477-88,88-88s88,39.477,88,88C320,280.524,280.523,320,232,320z
	 M232,176c-30.878,0-56,25.122-56,56S201.122,288,232,288c30.879,0,56-25.122,56-56.001S262.879,176,232,176z"/>
<path d="M336,352c-4.095,0-8.189-1.562-11.313-4.687l-52.36-52.36c-6.249-6.248-6.249-16.379,0-22.627
	c6.248-6.248,16.379-6.248,22.627,0l52.36,52.36c6.249,6.248,6.249,16.379,0,22.627C344.189,350.438,340.095,352,336,352z"/>
</svg>
