<?xml version="1.0" encoding="iso-8859-1"?>
<!-- Generator: Adobe Illustrator 24.3.0, SVG Export Plug-In . SVG Version: 6.00 Build 0)  -->
<svg version="1.1" id="Layer_1" xmlns="http://www.w3.org/2000/svg" xmlns:xlink="http://www.w3.org/1999/xlink" x="0px" y="0px"
	 viewBox="0 0 512 512" style="enable-background:new 0 0 512 512;" xml:space="preserve">
<path d="M456.69,421.39L362.6,327.3c22.653-30.156,34.881-66.863,34.84-104.58C397.44,126.38,319.06,48,222.72,48
	S48,126.38,48,222.72s78.38,174.72,174.72,174.72c37.717,0.041,74.423-12.187,104.58-34.84l94.09,94.09
	c10.294,9.202,26.098,8.316,35.3-1.978C465.172,445.224,465.172,430.878,456.69,421.39L456.69,421.39z M97.92,222.72
	c0-68.925,55.875-124.8,124.8-124.8s124.8,55.875,124.8,124.8s-55.875,124.8-124.8,124.8
	C153.829,347.437,98.003,291.611,97.92,222.72z"/>
</svg>
