<?xml version="1.0" encoding="iso-8859-1"?>
<!-- Generator: Adobe Illustrator 24.3.0, SVG Export Plug-In . SVG Version: 6.00 Build 0)  -->
<svg version="1.1" id="Layer_1" xmlns="http://www.w3.org/2000/svg" xmlns:xlink="http://www.w3.org/1999/xlink" x="0px" y="0px"
	 viewBox="0 0 512 512" style="enable-background:new 0 0 512 512;" xml:space="preserve">
<path d="M221.09,394.18C125.648,394.18,48,316.533,48,221.09S125.648,48,221.09,48h0.001
	c95.437,0.006,173.083,77.654,173.089,173.089C394.18,316.533,316.532,394.18,221.09,394.18z M221.09,80
	C143.292,80,80,143.293,80,221.09c0,77.797,63.292,141.09,141.09,141.09c77.797,0,141.09-63.293,141.09-141.09
	C362.176,143.298,298.882,80.005,221.09,80L221.09,80z"/>
<path d="M448,464c-4.095,0-8.189-1.562-11.313-4.687l-109.71-109.71c-6.249-6.248-6.249-16.379,0-22.627
	c6.248-6.248,16.379-6.248,22.627,0l109.71,109.71c6.249,6.248,6.249,16.379,0,22.627C456.189,462.438,452.095,464,448,464z"/>
</svg>
