<?xml version="1.0" encoding="iso-8859-1"?>
<!-- Generator: Adobe Illustrator 24.3.0, SVG Export Plug-In . SVG Version: 6.00 Build 0)  -->
<svg version="1.1" id="Layer_1" xmlns="http://www.w3.org/2000/svg" xmlns:xlink="http://www.w3.org/1999/xlink" x="0px" y="0px"
	 viewBox="0 0 512 512" style="enable-background:new 0 0 512 512;" xml:space="preserve">
<path d="M256,64C150.13,64,64,150.13,64,256s86.13,192,192,192s192-86.13,192-192S361.87,64,256,64z M347.31,347.31
	c-6.248,6.243-16.372,6.243-22.62,0l-42.84-42.83c-40.074,27.576-94.915,17.444-122.491-22.63s-17.444-94.915,22.63-122.491
	s94.915-17.444,122.491,22.63c20.693,30.071,20.693,69.79,0,99.861l42.83,42.84C353.553,330.938,353.553,341.063,347.31,347.31z"/>
<circle cx="232" cy="232" r="56"/>
</svg>
