<?xml version="1.0" encoding="iso-8859-1"?>
<!-- Generator: Adobe Illustrator 24.3.0, SVG Export Plug-In . SVG Version: 6.00 Build 0)  -->
<svg version="1.1" id="Layer_1" xmlns="http://www.w3.org/2000/svg" xmlns:xlink="http://www.w3.org/1999/xlink" x="0px" y="0px"
	 viewBox="0 0 512 512" style="enable-background:new 0 0 512 512;" xml:space="preserve">
<path d="M476.59,227.05l-0.16-0.07L49.35,49.84c-7.297-3.054-15.639-2.243-22.21,2.16C20.197,56.55,16.009,64.289,16,72.59v113.29
	c0.004,11.524,8.198,21.419,19.52,23.57l232.93,43.07c2.17,0.411,3.596,2.505,3.185,4.675c-0.306,1.615-1.57,2.879-3.185,3.185
	L35.53,303.45C24.212,305.596,16.014,315.48,16,327v113.31c-0.005,7.926,3.974,15.325,10.59,19.69c3.918,2.603,8.516,3.994,13.22,4
	c3.27-0.003,6.507-0.659,9.52-1.93L476.4,285.94l0.19-0.09c16.237-6.978,23.743-25.798,16.765-42.035
	C490.12,236.286,484.119,230.286,476.59,227.05z"/>
</svg>
