<?xml version="1.0" encoding="iso-8859-1"?>
<!-- Generator: Adobe Illustrator 24.3.0, SVG Export Plug-In . SVG Version: 6.00 Build 0)  -->
<svg version="1.1" id="Layer_1" xmlns="http://www.w3.org/2000/svg" xmlns:xlink="http://www.w3.org/1999/xlink" x="0px" y="0px"
	 viewBox="0 0 512 512" style="enable-background:new 0 0 512 512;" xml:space="preserve">
<path d="M39.844,464.067c-2.725,0-5.458-0.474-8.098-1.426c-5.988-2.159-10.777-6.521-13.484-12.282
	c-1.462-3.11-2.224-6.434-2.261-9.875c0-0.058-0.001-0.116-0.001-0.174V327c0-11.519,8.213-21.436,19.53-23.58l247.617-47
	c0.001,0,0.002,0,0.003,0L35.517,209.419C24.213,207.262,16.012,197.358,16,185.866V72.59c0-8.297,4.168-16.001,11.15-20.607
	c6.674-4.403,14.967-5.202,22.202-2.146L476.43,226.981c0.066,0.028,0.133,0.056,0.198,0.084
	c7.851,3.381,13.915,9.617,17.075,17.559c3.16,7.941,3.039,16.638-0.342,24.489c-3.247,7.541-9.189,13.483-16.732,16.732
	c-0.076,0.032-0.152,0.064-0.229,0.096L49.523,461.993C46.43,463.372,43.143,464.067,39.844,464.067z M48,333.624v94.382
	l415.966-171.551L48,83.919v95.298l241.113,45.763c15.328,2.905,26.037,15.833,26.037,31.439c0,15.605-10.709,28.534-26.041,31.439
	L48,333.624z M470.3,271.15h0.01H470.3z M283.479,256.51C283.479,256.51,283.479,256.51,283.479,256.51L283.479,256.51z
	 M36.864,79.299c0.005,0.002,0.009,0.004,0.014,0.006C36.874,79.303,36.869,79.301,36.864,79.299z"/>
</svg>
