<?xml version="1.0" encoding="iso-8859-1"?>
<!-- Generator: Adobe Illustrator 24.3.0, SVG Export Plug-In . SVG Version: 6.00 Build 0)  -->
<svg version="1.1" id="Layer_1" xmlns="http://www.w3.org/2000/svg" xmlns:xlink="http://www.w3.org/1999/xlink" x="0px" y="0px"
	 viewBox="0 0 512 512" style="enable-background:new 0 0 512 512;" xml:space="preserve">
<path d="M256,224c-53.349,0-103.75-8.759-141.918-24.662C71.468,181.582,48,156.247,48,128c0-28.247,23.468-53.582,66.082-71.338
	C152.25,40.759,202.651,32,256,32s103.75,8.759,141.919,24.662C440.532,74.418,464,99.753,464,128
	c0,28.248-23.468,53.583-66.082,71.338C359.75,215.241,309.349,224,256,224z M256,64c-49.222,0-95.251,7.884-129.611,22.201
	C97.342,98.304,80,113.93,80,128s17.342,29.696,46.389,41.799C160.749,184.116,206.778,192,256,192s95.252-7.884,129.61-22.201
	C414.658,157.696,432,142.07,432,128s-17.342-29.696-46.39-41.799C351.252,71.884,305.222,64,256,64z"/>
<path d="M256,310c-53.333,0-103.729-8.759-141.903-24.663C71.474,267.58,48,242.245,48,214c0-8.836,7.164-16,16-16s16,7.164,16,16
	c0,14.067,17.347,29.693,46.403,41.798C160.769,270.116,206.793,278,256,278c49.207,0,95.231-7.885,129.597-22.202
	C414.653,243.693,432,228.067,432,214c0-8.836,7.163-16,16-16s16,7.164,16,16c0,28.245-23.474,53.58-66.097,71.337
	C359.729,301.242,309.333,310,256,310z"/>
<path d="M256,396c-53.333,0-103.729-8.759-141.903-24.663C71.474,353.58,48,328.246,48,300c0-8.837,7.164-16,16-16s16,7.163,16,16
	c0,14.067,17.347,29.692,46.403,41.798C160.769,356.116,206.793,364,256,364c49.206,0,95.231-7.885,129.597-22.202
	C414.653,329.693,432,314.068,432,300c0-8.837,7.163-16,16-16s16,7.163,16,16c0,28.245-23.474,53.579-66.097,71.337
	C359.729,387.242,309.333,396,256,396z"/>
<path d="M256,480c-53.315,0-103.693-8.673-141.854-24.42C71.491,437.978,48,412.827,48,384.76V127.24c0-8.836,7.164-16,16-16
	s16,7.164,16,16v257.52c0,13.846,17.328,29.263,46.354,41.24c34.379,14.187,80.422,22,129.646,22s95.268-7.813,129.646-22
	C414.672,414.023,432,398.606,432,384.76V127.24c0-8.836,7.163-16,16-16s16,7.164,16,16v257.52c0,28.066-23.491,53.218-66.146,70.82
	C359.692,471.328,309.315,480,256,480z"/>
</svg>
