<?xml version="1.0" encoding="iso-8859-1"?>
<!-- Generator: Adobe Illustrator 24.3.0, SVG Export Plug-In . SVG Version: 6.00 Build 0)  -->
<svg version="1.1" id="Layer_1" xmlns="http://www.w3.org/2000/svg" xmlns:xlink="http://www.w3.org/1999/xlink" x="0px" y="0px"
	 viewBox="0 0 512 512" style="enable-background:new 0 0 512 512;" xml:space="preserve">
<path d="M256,428c-52.35,0-111.39-11.61-157.93-31c-17.07-7.19-31.69-18.82-43.64-28c-1.755-1.342-4.265-1.007-5.607,0.747
	c-0.534,0.698-0.823,1.553-0.823,2.433v12.58c0,28.07,23.49,53.22,66.14,70.82C152.29,471.33,202.67,480,256,480
	s103.7-8.67,141.86-24.42C440.51,438,464,412.83,464,384.76v-12.58c0.001-2.209-1.788-4.001-3.997-4.003
	c-0.879-0.001-1.734,0.289-2.433,0.823c-11.95,9.17-26.57,20.81-43.65,28C367.38,416.39,308.35,428,256,428z"/>
<path d="M464,126.51c-0.81-27.65-24.18-52.4-66-69.85C359.74,40.76,309.34,32,256,32s-103.74,8.76-141.91,24.66
	c-41.78,17.41-65.15,42.11-66,69.69L48,144c0,6.41,5.2,16.48,14.63,24.73c11.13,9.73,27.65,19.33,47.78,27.73
	C153.24,214.36,207.67,225,256,225s102.76-10.68,145.59-28.58c20.13-8.4,36.65-18,47.78-27.73C458.8,160.49,464,150.42,464,144
	V126.51z"/>
<path d="M413.92,226c-46.53,19.43-105.57,31-157.92,31s-111.39-11.57-157.93-31c-17.07-7.15-31.69-18.79-43.64-28
	c-1.755-1.342-4.265-1.008-5.607,0.747c-0.543,0.709-0.832,1.58-0.823,2.473V232c0,6.41,5.2,14.48,14.63,22.73
	c11.13,9.74,27.65,19.33,47.78,27.74C153.24,300.34,207.67,311,256,311s102.76-10.68,145.59-28.57c20.13-8.41,36.65-18,47.78-27.74
	C458.8,246.47,464,238.41,464,232v-30.78c0.001-2.209-1.788-4.001-3.997-4.003c-0.879-0.001-1.734,0.289-2.433,0.823
	C445.62,207.21,431,218.85,413.92,226z"/>
<path d="M413.92,312c-46.54,19.41-105.57,31-157.92,31s-111.39-11.59-157.93-31c-17.07-7.17-31.69-18.81-43.64-28
	c-1.755-1.342-4.265-1.008-5.607,0.747c-0.538,0.704-0.828,1.567-0.823,2.453V317c0,6.41,5.2,14.47,14.62,22.71
	c11.13,9.74,27.66,19.33,47.79,27.74C153.24,385.32,207.66,396,256,396s102.76-10.68,145.59-28.57c20.13-8.41,36.65-18,47.78-27.74
	C458.8,331.44,464,323.37,464,317v-29.8c0.001-2.209-1.788-4.001-3.997-4.003c-0.879-0.001-1.734,0.289-2.433,0.823
	C445.62,293.19,431,304.83,413.92,312z"/>
</svg>
