<?xml version="1.0" encoding="iso-8859-1"?>
<!-- Generator: Adobe Illustrator 24.3.0, SVG Export Plug-In . SVG Version: 6.00 Build 0)  -->
<svg version="1.1" id="Layer_1" xmlns="http://www.w3.org/2000/svg" xmlns:xlink="http://www.w3.org/1999/xlink" x="0px" y="0px"
	 viewBox="0 0 512 512" style="enable-background:new 0 0 512 512;" xml:space="preserve">
<path d="M298.77,486h-85.54c-0.092,0-0.184-0.001-0.276-0.002c-12.783-0.222-23.509-9.121-26.085-21.645
	c-0.068-0.33-0.125-0.663-0.172-0.997l-6.72-47.82c-0.027-0.013-0.084-0.024-0.111-0.037c-8.22-3.968-16.184-8.633-23.67-13.865
	l-44.86,18.089c-0.093,0.037-0.187,0.074-0.28,0.109c-12.209,4.648-25.916-0.128-32.589-11.359c-0.033-0.056-0.065-0.11-0.097-0.166
	l-42.77-74c-6.596-11.342-4.039-25.691,6.102-34.083c0.105-0.088,0.212-0.174,0.32-0.259l38.21-30
	c-0.004-0.043-0.056-0.076-0.06-0.119c-0.43-4.985-0.639-9.524-0.639-13.876c0-4.495,0.211-9.007,0.646-13.795l-38.209-29.913
	c-0.151-0.119-0.3-0.24-0.447-0.365c-9.938-8.403-12.41-22.672-5.877-33.928l42.756-73.976c0.03-0.052,0.061-0.104,0.091-0.156
	c6.668-11.24,20.374-16.026,32.587-11.383c0.097,0.037,0.194,0.075,0.291,0.114l44.9,18.08c-0.023-0.01,0.015-0.014,0.045-0.035
	c7.57-5.213,15.522-9.843,23.709-13.811l6.684-47.859c0.025-0.177,0.053-0.353,0.083-0.528c2.222-12.712,13.2-22.138,26.102-22.412
	c0.113-0.002,0.226-0.003,0.339-0.003h85.54c0.093,0,0.186,0.001,0.277,0.002c12.783,0.222,23.51,9.123,26.085,21.644
	c0.068,0.331,0.126,0.663,0.173,0.997l6.72,47.82c0.025,0.013,0.084,0.025,0.109,0.037c8.222,3.968,16.186,8.633,23.672,13.865
	l44.859-18.088c0.093-0.038,0.187-0.074,0.281-0.11c12.209-4.651,25.914,0.128,32.589,11.359c0.033,0.056,0.065,0.111,0.098,0.167
	l42.77,74c6.596,11.341,4.039,25.691-6.102,34.083c-0.105,0.088-0.213,0.174-0.32,0.258l-38.21,30
	c0.006,0.065,0.014,0.158,0.019,0.224c0.404,5.067,0.601,9.562,0.601,13.741c0,0.031,0,0.062,0,0.092
	c-0.026,4.529-0.236,9.084-0.627,13.621l38.182,29.947c0.113,0.089,0.225,0.179,0.336,0.271c10.122,8.389,12.678,22.73,6.077,34.102
	l-42.755,73.975c-0.03,0.052-0.061,0.104-0.092,0.156c-6.667,11.24-20.37,16.028-32.587,11.382c-0.097-0.037-0.193-0.074-0.29-0.113
	l-44.9-18.08c0.023,0.01-0.015,0.014-0.044,0.034c-7.57,5.213-15.522,9.843-23.71,13.812l-6.685,47.859
	c-0.025,0.177-0.053,0.354-0.084,0.529c-2.223,12.712-13.2,22.137-26.103,22.41C298.996,485.999,298.883,486,298.77,486z
	 M217.695,454h76.558l6.082-43.287c1.468-10.546,8.075-19.64,17.671-24.304c6.751-3.272,13.293-7.081,19.46-11.327
	c8.806-6.138,20.109-7.44,30.164-3.437l40.583,16.341l38.208-66.107l-41.435-32.499c-4.496-3.526-6.771-9.182-5.967-14.838
	c0.871-6.142,1.332-12.394,1.37-18.585c-0.001-3.29-0.163-6.913-0.492-11.073c-0.958-10.816,3.556-21.278,12.091-28.002
	l34.464-27.059l-38.205-66.102l-40.522,16.312c-10.041,4.041-21.338,2.762-30.224-3.419c-6.115-4.274-12.591-8.068-19.275-11.294
	c-9.635-4.585-16.349-13.702-17.883-24.349L294.305,58h-76.558l-6.083,43.287c-1.466,10.545-8.073,19.639-17.669,24.304
	c-6.751,3.272-13.293,7.081-19.46,11.328c-8.803,6.137-20.107,7.44-30.163,3.438l-40.584-16.342L65.58,190.119l34.344,26.979
	c8.504,6.669,13.042,17.091,12.129,27.873c-0.354,3.913-0.523,7.479-0.523,11c0,3.411,0.169,7.036,0.517,11.078
	c0.993,10.809-3.485,21.284-11.99,28.034l-34.509,27.095l38.206,66.103l40.522-16.312c10.042-4.039,21.339-2.762,30.223,3.419
	c6.116,4.274,12.593,8.068,19.277,11.295c9.634,4.584,16.349,13.701,17.882,24.35L217.695,454z M63.281,318.256l0.014,0.024
	C63.291,318.273,63.286,318.264,63.281,318.256z M448.667,317.994c-0.003,0.006-0.006,0.011-0.009,0.016L448.667,317.994z
	 M416.39,256h0.01H416.39z M63.341,193.992l-0.008,0.014C63.335,194.001,63.338,193.997,63.341,193.992z M448.704,193.719
	c0.005,0.008,0.01,0.016,0.015,0.024L448.704,193.719z M256.147,336.008c-2.658,0-5.33-0.131-8.01-0.396
	c-43.898-4.335-76.085-43.576-71.75-87.475c4.336-43.898,43.581-76.086,87.475-71.75c0.009,0,0.018,0.001,0.026,0.002
	c37.765,3.793,67.928,33.956,71.722,71.721c0.518,5.244,0.518,10.535,0.003,15.752c-2.101,21.266-12.356,40.44-28.879,53.992
	C292.295,329.699,274.579,336.008,256.147,336.008z M255.963,207.997c-24.364,0-45.287,18.541-47.731,43.285
	c-2.601,26.339,16.711,49.884,43.05,52.484c12.762,1.266,25.245-2.523,35.158-10.654s16.067-19.636,17.327-32.396
	c0.31-3.13,0.31-6.304,0-9.435c-2.275-22.651-20.384-40.765-43.059-43.05C259.117,208.075,257.53,207.997,255.963,207.997z"/>
</svg>
