<?xml version="1.0" encoding="iso-8859-1"?>
<!-- Generator: Adobe Illustrator 24.3.0, SVG Export Plug-In . SVG Version: 6.00 Build 0)  -->
<svg version="1.1" id="Layer_1" xmlns="http://www.w3.org/2000/svg" xmlns:xlink="http://www.w3.org/1999/xlink" x="0px" y="0px"
	 viewBox="0 0 512 512" style="enable-background:new 0 0 512 512;" xml:space="preserve">
<path d="M256,176c-44.183,0-80,35.817-80,80s35.817,80,80,80s80-35.817,80-80C335.868,211.872,300.128,176.132,256,176z M428.72,256
	c-0.042,7.475-0.59,14.939-1.64,22.34l48.69,38.12c4.38,3.617,5.494,9.874,2.63,14.78l-46.06,79.52
	c-2.89,4.859-8.855,6.939-14.14,4.93l-57.25-23c-11.921,9.18-24.967,16.798-38.82,22.67l-8.56,60.78
	c-0.988,5.615-5.81,9.746-11.51,9.86h-92.12c-5.588-0.109-10.361-4.061-11.51-9.53l-8.56-60.78
	c-13.891-5.804-26.946-13.434-38.82-22.69L93.8,416c-5.283,2.011-11.246-0.064-14.14-4.92L33.6,331.57
	c-2.864-4.906-1.75-11.163,2.63-14.78l48.69-38.12c-1.039-7.513-1.586-15.086-1.64-22.67c0.042-7.475,0.59-14.939,1.64-22.34
	l-48.69-38.12c-4.38-3.617-5.494-9.874-2.63-14.78l46.06-79.52c2.89-4.859,8.855-6.939,14.14-4.93l57.25,23
	c11.921-9.18,24.967-16.798,38.82-22.67l8.56-60.78c0.988-5.615,5.81-9.746,11.51-9.86h92.12c5.588,0.109,10.361,4.061,11.51,9.53
	l8.56,60.78c13.909,5.8,26.981,13.43,38.87,22.69l57.2-23c5.283-2.011,11.246,0.064,14.14,4.92l46.06,79.52
	c2.864,4.906,1.75,11.163-2.63,14.78l-48.69,38.12C428.118,240.85,428.666,248.419,428.72,256z"/>
</svg>
