<?xml version="1.0" encoding="iso-8859-1"?>
<!-- Generator: Adobe Illustrator 24.3.0, SVG Export Plug-In . SVG Version: 6.00 Build 0)  -->
<svg version="1.1" id="Layer_1" xmlns="http://www.w3.org/2000/svg" xmlns:xlink="http://www.w3.org/1999/xlink" x="0px" y="0px"
	 viewBox="0 0 512 512" style="enable-background:new 0 0 512 512;" xml:space="preserve">
<path d="M336,336H32c-8.837,0.02-16.016-7.128-16.036-15.964c-0.006-2.747,0.695-5.449,2.036-7.846l152-272
	c4.308-7.715,14.055-10.478,21.77-6.17c2.589,1.445,4.725,3.581,6.17,6.17l152,272c4.313,7.712,1.558,17.461-6.154,21.774
	C341.406,335.295,338.726,335.996,336,336z"/>
<path d="M336,160c-10.941-0.002-21.854,1.11-32.57,3.32l74.47,133.27c12.929,23.143,4.649,52.385-18.494,65.314
	c-7.154,3.996-15.211,6.095-23.406,6.096H183.33c26.51,84.295,116.335,131.14,200.63,104.63
	c84.295-26.51,131.14-116.335,104.63-200.63C467.633,205.358,405.86,160.017,336,160z"/>
</svg>
