<?xml version="1.0" encoding="iso-8859-1"?>
<!-- Generator: Adobe Illustrator 24.3.0, SVG Export Plug-In . SVG Version: 6.00 Build 0)  -->
<svg version="1.1" id="Layer_1" xmlns="http://www.w3.org/2000/svg" xmlns:xlink="http://www.w3.org/1999/xlink" x="0px" y="0px"
	 viewBox="0 0 512 512" style="enable-background:new 0 0 512 512;" xml:space="preserve">
<path d="M336,336H32c-5.676,0-10.928-3.008-13.8-7.903c-2.872-4.896-2.936-10.947-0.167-15.901l152-272.001
	C172.86,35.135,178.204,32,184,32s11.14,3.135,13.967,8.195l152,272.001c2.77,4.954,2.706,11.006-0.167,15.901
	C346.928,332.993,341.676,336,336,336z M59.27,304h249.46L184,80.799L59.27,304z"/>
<path d="M336.27,479.942c-55.936,0.002-110.314-29.329-139.67-81.438c-13.471-23.911-20.594-51.057-20.6-78.501l32-0.006
	c0.004,21.955,5.703,43.671,16.479,62.8c34.644,61.492,112.854,83.339,174.347,48.693c29.788-16.781,51.259-44.158,60.456-77.088
	c9.197-32.931,5.021-67.471-11.762-97.259c-34.643-61.493-112.855-83.335-174.347-48.694l-15.707-27.88
	c76.865-43.305,174.63-15.999,217.935,60.867c20.977,37.235,26.197,80.411,14.701,121.573s-38.334,75.384-75.569,96.361
	C389.775,473.318,362.845,479.941,336.27,479.942z"/>
</svg>
