<?xml version="1.0" encoding="iso-8859-1"?>
<!-- Generator: Adobe Illustrator 24.3.0, SVG Export Plug-In . SVG Version: 6.00 Build 0)  -->
<svg version="1.1" id="Layer_1" xmlns="http://www.w3.org/2000/svg" xmlns:xlink="http://www.w3.org/1999/xlink" x="0px" y="0px"
	 viewBox="0 0 512 512" style="enable-background:new 0 0 512 512;" xml:space="preserve">
<path d="M128,320C92.71,320,64,291.289,64,256s28.71-64,64-64s64,28.71,64,64S163.29,320,128,320z M128,224
	c-17.645,0-32,14.355-32,32S110.355,288,128,288s32-14.355,32-32.001S145.645,224,128,224z"/>
<path d="M384,176c-35.29,0-64-28.71-64-64s28.71-64,64-64s64,28.71,64,64S419.29,176,384,176z M384,80c-17.645,0-32,14.355-32,32
	s14.355,32,32,32s32-14.355,32-32S401.645,80,384,80z"/>
<path d="M384,464c-35.29,0-64-28.71-64-64s28.71-64,64-64s64,28.71,64,64S419.29,464,384,464z M384,368c-17.645,0-32,14.355-32,32
	s14.355,32,32,32s32-14.355,32-32S401.645,368,384,368z"/>
<path d="M342.155,392.473c-2.656,0-5.35-0.663-7.829-2.058l-172.34-96.94c-7.702-4.332-10.433-14.088-6.101-21.789
	c4.333-7.702,14.088-10.432,21.79-6.102l172.339,96.94c7.702,4.332,10.434,14.088,6.102,21.789
	C353.178,389.536,347.748,392.473,342.155,392.473z"/>
<path d="M169.845,248.473c-5.593,0-11.022-2.937-13.96-8.159c-4.332-7.702-1.601-17.458,6.101-21.79l172.34-96.94
	c7.701-4.331,17.457-1.601,21.789,6.101s1.601,17.458-6.102,21.79l-172.339,96.94C175.194,247.81,172.5,248.473,169.845,248.473z"/>
</svg>
