<?xml version="1.0" encoding="iso-8859-1"?>
<!-- Generator: Adobe Illustrator 24.3.0, SVG Export Plug-In . SVG Version: 6.00 Build 0)  -->
<svg version="1.1" id="Layer_1" xmlns="http://www.w3.org/2000/svg" xmlns:xlink="http://www.w3.org/1999/xlink" x="0px" y="0px"
	 viewBox="0 0 512 512" style="enable-background:new 0 0 512 512;" xml:space="preserve">
<path d="M384,336c-17.418-0.007-34.082,7.111-46.12,19.7l-148-83.27c2.867-10.766,2.867-22.094,0-32.86l148-83.27
	c24.462,25.361,64.851,26.09,90.212,1.629s26.09-64.851,1.629-90.212c-24.462-25.361-64.851-26.09-90.212-1.629
	c-16.678,16.087-23.323,39.951-17.359,62.342l-148,83.27c-24.466-25.51-64.98-26.356-90.49-1.89s-26.356,64.98-1.89,90.49
	s64.98,26.356,90.49,1.89c0.643-0.617,1.273-1.247,1.89-1.89l148,83.27c-9.074,34.162,11.263,69.211,45.425,78.285
	s69.211-11.263,78.285-45.425s-11.263-69.211-45.425-78.285C395.073,336.721,389.548,336,384,336z"/>
</svg>
