<?xml version="1.0" encoding="iso-8859-1"?>
<!-- Generator: Adobe Illustrator 24.3.0, SVG Export Plug-In . SVG Version: 6.00 Build 0)  -->
<svg version="1.1" id="Layer_1" xmlns="http://www.w3.org/2000/svg" xmlns:xlink="http://www.w3.org/1999/xlink" x="0px" y="0px"
	 viewBox="0 0 512 512" style="enable-background:new 0 0 512 512;" xml:space="preserve">
<path d="M378,324c-18.254-0.006-35.784,7.142-48.83,19.91L202,272.41c2.613-10.784,2.613-22.036,0-32.82l127.13-71.5
	c27.617,26.864,71.783,26.253,98.646-1.365c26.864-27.617,26.253-71.783-1.365-98.646c-27.617-26.864-71.783-26.253-98.646,1.365
	C312.432,85.208,305.429,107.279,308.87,129l-130.13,73.2c-29.702-24.746-73.841-20.729-98.587,8.973s-20.729,73.841,8.973,98.588
	c25.957,21.627,63.658,21.627,89.615,0L308.87,383c-6.075,38.18,19.951,74.055,58.13,80.13s74.055-19.951,80.13-58.13
	S427.18,330.945,389,324.87C385.362,324.291,381.684,324,378,324z"/>
</svg>
