<?xml version="1.0" encoding="iso-8859-1"?>
<!-- Generator: Adobe Illustrator 24.3.0, SVG Export Plug-In . SVG Version: 6.00 Build 0)  -->
<svg version="1.1" id="Layer_1" xmlns="http://www.w3.org/2000/svg" xmlns:xlink="http://www.w3.org/1999/xlink" x="0px" y="0px"
	 viewBox="0 0 512 512" style="enable-background:new 0 0 512 512;" xml:space="preserve">
<path d="M376,176H272v145c0,8.837-7.163,16-16,16c-8.837,0-16-7.163-16-16V176H136c-30.914,0.033-55.967,25.086-56,56v192
	c0.033,30.914,25.086,55.967,56,56h240c30.914-0.033,55.967-25.086,56-56V232C431.967,201.086,406.914,176.033,376,176z"/>
<path d="M272,86.63l52.69,52.68c6.406,6.086,16.534,5.827,22.62-0.579c5.867-6.176,5.867-15.865,0-22.041l-80-80
	c-6.248-6.243-16.372-6.243-22.62,0l-80,80c-6.086,6.406-5.827,16.534,0.579,22.62c6.176,5.867,15.865,5.867,22.041,0L240,86.63V176
	h32V86.63z"/>
</svg>
