<?xml version="1.0" encoding="iso-8859-1"?>
<!-- Generator: Adobe Illustrator 24.3.0, SVG Export Plug-In . SVG Version: 6.00 Build 0)  -->
<svg version="1.1" id="icons" xmlns="http://www.w3.org/2000/svg" xmlns:xlink="http://www.w3.org/1999/xlink" x="0px" y="0px"
	 viewBox="0 0 512 512" style="enable-background:new 0 0 512 512;" xml:space="preserve">
<path d="M256,32C174,69.06,121.38,86.46,32,96c0,77.59,5.27,133.36,25.29,184.51c16.37,41.709,40.622,79.875,71.43,112.41
	c49.6,52.66,104.17,80.4,127.28,87.08c23.11-6.68,77.68-34.42,127.28-87.08c30.808-32.535,55.06-70.701,71.43-112.41
	C474.73,229.36,480,173.59,480,96C390.62,86.46,338,69.06,256,32z M417.47,265.93c-14.517,36.943-36.012,70.745-63.31,99.56
	C316,406,276.65,428.31,256,437.36V75.8c38.75,17,68.73,28.3,97.93,36.89c28.055,8.206,56.662,14.395,85.6,18.52
	C437.81,191.43,431.17,230.9,417.47,265.93z"/>
</svg>
