<?xml version="1.0" encoding="iso-8859-1"?>
<!-- Generator: Adobe Illustrator 24.3.0, SVG Export Plug-In . SVG Version: 6.00 Build 0)  -->
<svg version="1.1" id="icons" xmlns="http://www.w3.org/2000/svg" xmlns:xlink="http://www.w3.org/1999/xlink" x="0px" y="0px"
	 viewBox="0 0 512 512" style="enable-background:new 0 0 512 512;" xml:space="preserve">
<path d="M256,480c-2.03,0-4.06-0.386-5.977-1.158c-10.84-4.366-67.623-29.016-121.074-85.727
	C97.73,359.993,73.644,322.137,57.36,280.6c-20.065-51.184-28.285-108.124-24.429-169.237c0.464-7.354,5.891-13.44,13.143-14.741
	c86.487-15.514,122.594-26.737,203.34-63.204c4.187-1.891,8.984-1.891,13.171,0c80.746,36.467,116.853,47.69,203.339,63.204
	c7.253,1.301,12.679,7.387,13.143,14.741c3.856,61.114-4.362,118.053-24.428,169.236c-16.284,41.538-40.37,79.394-71.589,112.517
	c-53.45,56.711-110.233,81.36-121.073,85.727C260.06,479.615,258.029,480,256,480z M64.259,125.835
	c-1.781,51.669,5.906,99.752,22.894,143.085c14.785,37.712,36.682,72.113,65.083,102.247
	c42.216,44.791,87.271,67.894,103.764,75.404c16.494-7.511,61.548-30.613,103.764-75.404
	c28.401-30.134,50.299-64.534,65.083-102.247c16.988-43.334,24.674-91.416,22.894-143.085
	C369.142,111.273,331.271,99.269,256,65.544C180.729,99.269,142.859,111.272,64.259,125.835z"/>
<path d="M256,48c80.71,36.45,117.68,48.33,207.1,64.37C479.3,369.13,271.42,457.79,256,464V48z"/>
</svg>
