<?xml version="1.0" encoding="iso-8859-1"?>
<!-- Generator: Adobe Illustrator 24.3.0, SVG Export Plug-In . SVG Version: 6.00 Build 0)  -->
<svg version="1.1" id="Layer_1" xmlns="http://www.w3.org/2000/svg" xmlns:xlink="http://www.w3.org/1999/xlink" x="0px" y="0px"
	 viewBox="0 0 512 512" style="enable-background:new 0 0 512 512;" xml:space="preserve">
<path d="M479.07,111.35c-0.461-7.359-5.891-13.451-13.15-14.75C379.89,81.18,343.69,69.12,266,34.16c-7.76-2.89-12.57-2.84-20,0
	c-77.69,35-113.89,47-199.92,62.44c-7.259,1.299-12.689,7.391-13.15,14.75c-3.85,61.1,4.34,118,24.36,169.15
	c16.37,41.709,40.622,79.875,71.43,112.41c44.67,47.43,94.2,75.12,119.74,85.6c4.843,1.976,10.267,1.976,15.11,0
	c27-10.92,74.69-37.82,119.71-85.62c30.806-32.529,55.058-70.688,71.43-112.39C474.73,229.36,482.92,172.45,479.07,111.35z"/>
</svg>
