<?xml version="1.0" encoding="iso-8859-1"?>
<!-- Generator: Adobe Illustrator 24.3.0, SVG Export Plug-In . SVG Version: 6.00 Build 0)  -->
<svg version="1.1" id="Layer_1" xmlns="http://www.w3.org/2000/svg" xmlns:xlink="http://www.w3.org/1999/xlink" x="0px" y="0px"
	 viewBox="0 0 512 512" style="enable-background:new 0 0 512 512;" xml:space="preserve">
<path d="M479.07,111.36c-0.465-7.356-5.895-13.442-13.15-14.74c-86.5-15.52-122.61-26.74-203.33-63.2
	c-4.189-1.894-8.991-1.894-13.18,0C168.69,69.88,132.58,81.1,46.08,96.62c-7.255,1.298-12.685,7.384-13.15,14.74
	c-3.85,61.11,4.36,118.05,24.43,169.24c16.435,41.755,40.758,79.954,71.64,112.51c53.47,56.73,110.24,81.37,121.07,85.73
	c3.849,1.557,8.151,1.557,12,0c10.83-4.36,67.6-29,121.07-85.73c30.832-32.568,55.107-70.766,71.5-112.51
	C474.71,229.41,482.92,172.47,479.07,111.36z M348.07,186.47l-110.8,128c-2.879,3.336-7.007,5.337-11.41,5.53h-0.66
	c-4.188,0.001-8.209-1.64-11.2-4.57l-49.2-48.2c-6.313-6.186-6.416-16.317-0.23-22.63c6.186-6.313,16.317-6.416,22.63-0.23l0,0
	l37,36.29l99.7-115.13c5.782-6.683,15.887-7.412,22.57-1.63s7.412,15.887,1.63,22.57H348.07z"/>
</svg>
