<?xml version="1.0" encoding="iso-8859-1"?>
<!-- Generator: Adobe Illustrator 24.3.0, SVG Export Plug-In . SVG Version: 6.00 Build 0)  -->
<svg version="1.1" id="Layer_1" xmlns="http://www.w3.org/2000/svg" xmlns:xlink="http://www.w3.org/1999/xlink" x="0px" y="0px"
	 viewBox="0 0 512 512" style="enable-background:new 0 0 512 512;" xml:space="preserve">
<path d="M479.07,111.36l-0.79-12.53l-12.36-2.21c-86.5-15.52-122.61-26.74-203.33-63.2l-6.59-3l-6.59,3
	C168.69,69.88,132.58,81.1,46.08,96.62l-12.36,2.21l-0.79,12.53c-3.85,61.11,4.36,118.05,24.43,169.24
	c16.435,41.755,40.758,79.954,71.64,112.51c53.47,56.73,110.24,81.37,121.07,85.73l6,2.41l6-2.41c10.83-4.36,67.6-29,121.07-85.73
	c30.832-32.568,55.107-70.766,71.5-112.51C474.71,229.41,482.92,172.47,479.07,111.36z M226.16,327.36L153.37,256l22.4-22.86
	l48.47,47.49l110.13-127.2l24.2,20.94L226.16,327.36z"/>
</svg>
