<?xml version="1.0" encoding="UTF-8"?>
<svg width="512px" height="493px" viewBox="0 0 512 493" version="1.1" xmlns="http://www.w3.org/2000/svg" xmlns:xlink="http://www.w3.org/1999/xlink">
    <title>Shift Scheduler</title>
    <g id="Page-1" stroke="none" stroke-width="1" fill-rule="evenodd">
        <g id="Shift-Scheduler">
            <path d="M398.009341,264.978515 C420.548314,264.970204 442.581728,271.646143 461.329009,284.162248 C480.07309,296.678034 494.683105,314.471472 503.312806,335.291224 C511.945706,356.111937 514.207923,379.02528 509.814679,401.132288 C505.424635,423.239296 494.574314,443.54805 478.639606,459.485958 C462.704897,475.427066 442.402543,486.283786 420.295535,490.68343 C398.191726,495.083073 375.278383,492.830456 354.454471,484.207154 C333.630559,475.583853 315.831362,460.977037 303.308856,442.239356 C290.786031,423.498475 284.102093,401.465061 284.102093,378.926088 C284.102093,348.714136 296.101441,319.736645 317.462269,298.368137 C338.823738,276.999629 367.79419,264.989722 398.009341,264.978515 Z M397.992093,290.850508 L397.071989,290.856258 C385.827019,290.976003 374.704851,293.249486 364.309672,297.556683 C353.625738,301.983524 343.920925,308.471638 335.745587,316.650815 C327.57025,324.831272 321.084376,334.539285 316.664254,345.226419 C312.242532,355.910353 309.969437,367.362225 309.974866,378.926088 C309.974866,396.351875 315.142457,413.384095 324.824873,427.869321 C334.507288,442.354547 348.266173,453.643232 364.364068,460.308291 C380.465163,466.970152 398.175727,468.71081 415.265542,465.306286 C432.352157,461.898563 448.046885,453.502443 460.359487,441.177042 C472.675289,428.851641 481.05541,413.150514 484.443935,396.060699 C487.83566,378.967684 486.079003,361.25712 479.397944,345.165624 C472.720085,329.070928 461.418601,315.322283 446.923776,305.654266 C432.428951,295.98657 415.390332,290.834987 397.967744,290.851268 L397.992093,290.850508 Z" id="Combined-Shape"></path>
            <path d="M298.267665,16.6653053 C298.267665,7.3744103 307.475239,0 318.849037,0 C330.222835,0 339.431689,7.58271341 339.431689,16.8736404 L339.431689,95.2006039 C339.431689,104.533287 330.222835,112.074116 318.849037,112.074116 C307.475239,112.074116 298.267665,104.533287 298.267665,95.2006039 L298.267665,16.6653053 Z" id="Path"></path>
            <path d="M113.865651,16.6653053 C113.865651,7.3744103 123.073225,0 134.447343,0 C145.821461,0 155.070631,7.58271341 155.070631,16.8736404 L155.070631,95.2006039 C155.070631,104.533287 145.821461,112.282419 134.447343,112.282419 C123.073225,112.282419 113.865651,104.741591 113.865651,95.408907 L113.865651,16.6653053 Z" id="Path"></path>
            <path d="M294.862373,457.962882 C297.11499,460.010716 295.711584,463.997592 292.666391,464.013591 L45.5604673,465.235892 C34.2593032,465.191096 20.5356796,461.533792 12.5442633,453.54404 C4.55284699,445.551088 0.0438895627,434.726365 0,423.424881 L0,85.3681208 C0.0547664411,74.0698366 4.56721382,63.2502335 12.5562623,55.261121 C20.5453428,47.2720085 31.3651058,42.7597343 42.6631021,42.7050187 L78.7936137,42.7050187 C80.5608305,42.7050187 81.9933543,44.1375426 81.9933543,45.9047594 L81.9933543,95.2006039 C82.0307913,102.218595 83.6453804,109.138674 86.7174515,115.448883 C89.7898424,121.758771 94.2410017,127.297842 99.7419958,131.655889 C109.568719,139.608205 121.826926,143.946733 134.468141,143.946733 C147.109677,143.946733 159.367883,139.608205 169.194607,131.655889 C174.695601,127.297842 179.14676,121.758771 182.218831,115.448883 C185.291222,109.138674 186.905491,102.218595 186.943248,95.2006039 L186.943248,45.9047594 C186.943248,44.1375426 188.375772,42.7050187 190.142989,42.7050187 L263.195308,42.7050187 C264.962524,42.7050187 266.395048,44.1375426 266.395048,45.9047594 L266.395048,95.2006039 C266.424806,102.216035 268.031396,109.134834 271.096427,115.445043 C274.161459,121.755252 278.606219,127.295603 284.102093,131.655889 C293.935216,139.611404 306.200782,143.951533 318.849037,143.951533 C331.496332,143.951533 343.764138,139.611404 353.596941,131.655889 C359.084496,127.289523 363.525736,121.747892 366.591087,115.438964 C369.653239,109.130035 371.265908,102.214435 371.304305,95.2006039 L371.304305,45.9047594 C371.304305,44.1375426 372.734589,42.7050187 374.504046,42.7050187 L412.465769,42.7050187 C423.767253,42.7488552 434.595176,47.2576097 442.584928,55.249282 C450.57788,63.2406343 455.086315,74.0666368 455.131111,85.3681208 L455.131111,256.89201 C455.131111,259.141108 452.868894,260.690742 450.750666,259.939123 C446.987771,258.605791 443.17688,257.413888 439.324392,256.365653 C437.916506,255.981684 436.921387,254.708827 436.921387,253.246866 L436.921387,169.39459 C436.921387,167.627374 435.491103,166.19485 433.721646,166.19485 L21.406585,166.19485 C19.6394322,166.19485 18.2068443,167.627374 18.2068443,169.39459 L18.2068443,414.340817 C18.2944212,423.1913 21.862644,431.648214 28.1394153,437.887709 C34.4160905,444.124003 42.8966832,447.640518 51.7458859,447.672516 L283.903261,447.672516 C285.123002,447.672516 286.223393,448.373259 286.908777,449.381177 C288.774226,452.129754 291.923731,455.287898 294.862373,457.962882 Z" id="Path"></path>
            <path d="M81.9933543,234.106145 L94.1293307,245.505541 C95.396748,246.695845 97.382507,246.656488 98.6016082,245.416909 L125.948192,217.607323 C128.989545,214.482776 130.947787,211.982819 134.739159,215.899301 L147.237986,228.398128 C151.404369,232.56451 151.029359,234.731055 147.237986,238.480831 L103.408259,281.352236 C95.408907,289.226478 96.7838356,289.685001 88.6177774,281.643732 L61.2865527,254.437618 C60.8888249,254.081486 60.5768502,253.640242 60.3736666,253.146522 C60.1704831,252.652802 60.0818503,252.119405 60.1138477,251.586649 C60.1458451,251.053572 60.2978328,250.534894 60.5589316,250.069012 C60.7691546,249.693362 61.0459322,249.359949 61.3748655,249.084451 C61.5322927,248.952302 61.6919598,248.822073 61.8346682,248.674245 L75.9106474,234.106145 C78.0352752,231.856088 79.7852133,231.981198 81.9933543,234.106145 Z" id="Path"></path>
            <path d="M199.983791,215.232475 L261.145554,215.232475 C263.204587,215.232475 265.180107,216.047769 266.639829,217.499811 C268.09987,218.951854 268.925403,220.922894 268.936602,222.981927 L268.936602,273.852684 C268.914844,275.912357 268.087071,277.881477 266.630549,279.337999 C265.174347,280.794201 263.205227,281.622294 261.145554,281.643732 L199.983791,281.643732 C197.920918,281.632853 195.945718,280.8086 194.486957,279.349838 C193.028195,277.891077 192.203622,275.915877 192.192743,273.852684 L192.192743,222.981927 C192.214501,220.926094 193.043874,218.961453 194.501355,217.51165 C195.958837,216.061848 197.927958,215.243354 199.983791,215.232475 Z" id="Path"></path>
            <path d="M196.983791,323.232475 L258.145554,323.232475 C260.204587,323.232475 262.180107,324.047769 263.639829,325.499811 C265.09987,326.951854 265.925403,328.922894 265.936602,330.981927 L265.936602,381.852684 C265.914844,383.912357 265.087071,385.881477 263.630549,387.337999 C262.174347,388.794201 260.205227,389.622294 258.145554,389.643732 L196.983791,389.643732 C194.920918,389.632853 192.945718,388.8086 191.486957,387.349838 C190.028195,385.891077 189.203622,383.915877 189.192743,381.852684 L189.192743,330.981927 C189.214501,328.926094 190.043874,326.961453 191.501355,325.51165 C192.958837,324.061848 194.927958,323.243354 196.983791,323.232475 Z" id="Path"></path>
            <path d="M76.7438598,323.349792 L137.905623,323.349792 C138.939139,323.333793 139.965616,323.522578 140.925538,323.906547 C141.88514,324.290516 142.758669,324.86007 143.49557,325.586411 C144.23247,326.312752 144.817382,327.176682 145.21671,328.130205 C145.616038,329.083727 145.821461,330.107644 145.821461,331.141161 L145.821461,381.969041 C145.799383,384.048872 144.954331,386.039111 143.471251,387.498193 C141.987852,388.957275 139.986734,389.770009 137.905623,389.760494 L76.7854565,389.760494 C74.7190639,389.760494 72.7374645,388.938076 71.276463,387.478994 C69.8151414,386.016713 68.9944079,384.036073 68.9944079,381.969041 L68.9944079,331.141161 C68.9944079,329.074128 69.8151414,327.090289 71.276463,325.631207 C72.7374645,324.168926 74.7190639,323.349792 76.7854565,323.349792 L76.7438598,323.349792 Z" id="Path"></path>
            <path d="M382.177024,321.557937 L396.092696,321.557937 C397.330996,321.557937 398.5181,322.047498 399.391629,322.924227 C400.268358,323.797756 400.757918,324.98486 400.757918,326.223159 L400.757918,376.686269 C400.757918,378.452526 402.191402,379.88601 403.957659,379.88601 L449.96353,379.88601 C451.19543,379.88601 452.376134,380.37237 453.249664,381.2363 C454.123193,382.10343 454.619153,383.280935 454.628752,384.509635 L454.628752,398.466904 C454.619153,399.698804 454.123193,400.873109 453.249664,401.740238 C452.376134,402.607368 451.19543,403.093729 449.96353,403.093729 L380.794736,403.093729 C379.028479,403.093729 377.594995,401.660245 377.594995,399.893988 L377.594995,326.223159 C377.594995,324.994459 378.081356,323.813755 378.945286,322.940225 C379.812416,322.063496 380.98992,321.567537 382.218621,321.557937 L382.177024,321.557937 Z" id="Path"></path>
        </g>
    </g>
</svg>