<?xml version="1.0" encoding="iso-8859-1"?>
<!-- Generator: Adobe Illustrator 24.3.0, SVG Export Plug-In . SVG Version: 6.00 Build 0)  -->
<svg version="1.1" id="Layer_1" xmlns="http://www.w3.org/2000/svg" xmlns:xlink="http://www.w3.org/1999/xlink" x="0px" y="0px"
	 viewBox="0 0 512 512" style="enable-background:new 0 0 512 512;" xml:space="preserve">
<path d="M400,480H112c-4.321,0-8.459-1.748-11.472-4.847c-3.012-3.098-4.644-7.283-4.522-11.603l6.8-241.901
	c0.127-4.168-2.99-7.767-7.096-8.232l-48.876-5.52c-6.976-0.788-12.623-6.03-13.926-12.928l-16.63-88
	c-1.47-7.776,2.967-15.459,10.437-18.073l154.87-54.2C186.686,32.909,192.024,32,197.44,32c1.806,0,3.598,0.306,5.301,0.904
	C202.897,32.957,223.775,40,256,40s53.103-7.043,53.31-7.114c1.703-0.599,3.444-0.886,5.25-0.886c5.416,0,10.755,0.909,15.866,2.702
	l154.859,54.196c7.47,2.614,11.906,10.297,10.437,18.073l-16.63,88c-1.304,6.897-6.951,12.14-13.926,12.928l-48.88,5.52
	c-4.103,0.464-7.22,4.063-7.094,8.193l6.802,241.939c0.121,4.319-1.51,8.505-4.522,11.603C408.459,478.252,404.321,480,400,480z
	 M128.456,448h255.088l-6.338-225.451c-0.628-20.61,14.958-38.605,35.484-40.928l37.15-4.195l11.882-62.872L319.845,64.902
	c-1.064-0.374-2.153-0.631-3.258-0.773C308.592,66.484,286.596,72,256,72c-30.597,0-52.594-5.517-60.588-7.871
	c-1.103,0.141-2.189,0.398-3.246,0.769L50.278,114.555l11.881,62.872l37.146,4.195c20.532,2.324,36.118,20.319,35.487,40.967
	L128.456,448z"/>
<path d="M256.158,128.13c-8.285,0-16.623-1.082-24.843-3.269c-33.171-8.826-59.26-34.915-68.087-68.086
	c-2.272-8.54,2.808-17.304,11.348-19.576c8.535-2.274,17.304,2.808,19.576,11.348c5.884,22.114,23.277,39.507,45.392,45.391
	c16.521,4.397,33.763,2.096,48.553-6.478c14.79-8.573,25.355-22.393,29.751-38.913c2.271-8.539,11.031-13.624,19.576-11.348
	c8.539,2.272,13.62,11.037,11.348,19.576c-6.593,24.781-22.442,45.51-44.627,58.37C289.319,123.738,272.849,128.13,256.158,128.13z"
	/>
</svg>
