<?xml version="1.0" encoding="iso-8859-1"?>
<!-- Generator: Adobe Illustrator 24.3.0, SVG Export Plug-In . SVG Version: 6.00 Build 0)  -->
<svg version="1.1" id="Layer_1" xmlns="http://www.w3.org/2000/svg" xmlns:xlink="http://www.w3.org/1999/xlink" x="0px" y="0px"
	 viewBox="0 0 512 512" style="enable-background:new 0 0 512 512;" xml:space="preserve">
<path d="M256,42c-33.88,0-64-10-64-10v2c0,35.346,28.654,64,64,64s64-28.654,64-64v-2C320,32,289.88,42,256,42z"/>
<path d="M352,44c-5.49,47.76-46.79,85-96,85s-90.51-37.24-96-85L16,94l18,114l61.71,7.42c7.08,0.9,7.1,0.9,7.1,8.19L96,480h320
	l-6.81-256.39c-0.21-7-0.21-7,7.1-8.19L478,208l18-114L352,44z"/>
</svg>
