<?xml version="1.0" encoding="iso-8859-1"?>
<!-- Generator: Adobe Illustrator 24.3.0, SVG Export Plug-In . SVG Version: 6.00 Build 0)  -->
<svg version="1.1" id="Layer_1" xmlns="http://www.w3.org/2000/svg" xmlns:xlink="http://www.w3.org/1999/xlink" x="0px" y="0px"
	 viewBox="0 0 512 512" style="enable-background:new 0 0 512 512;" xml:space="preserve">
<path d="M256,96c33.08,0,60.71-25.78,64-58c0.3-3-3-6-6-6l0,0c-1.622,0.002-3.23,0.307-4.74,0.9c-0.2,0.08-21.1,8.1-53.26,8.1
	s-53.1-8-53.26-8.1c-1.704-0.593-3.496-0.897-5.3-0.9h-0.06c-3.138,0.166-5.547,2.845-5.381,5.983c0,0.006,0.001,0.011,0.001,0.017
	C195.35,70.16,223,96,256,96z"/>
<path d="M485.29,89.9L356,44.64c-2.086-0.728-4.367,0.373-5.095,2.459c-0.08,0.228-0.138,0.463-0.175,0.701
	c-8.729,52.296-58.199,87.614-110.495,78.885c-40.443-6.751-72.134-38.442-78.885-78.885c-0.326-2.185-2.361-3.692-4.546-3.367
	c-0.275,0.041-0.544,0.11-0.804,0.207L26.71,89.9c-7.479,2.618-11.915,10.316-10.43,18.1l16.63,88
	c1.314,6.885,6.955,12.113,13.92,12.9l48.88,5.52c4.137,0.467,7.225,4.028,7.1,8.19l-7.33,240.9
	c-0.199,6.344,3.372,12.206,9.1,14.94c2.33,1.053,4.863,1.582,7.42,1.55h288c2.557,0.032,5.09-0.497,7.42-1.55
	c5.728-2.734,9.299-8.596,9.1-14.94l-7.33-240.9c-0.125-4.162,2.963-7.723,7.1-8.19l48.88-5.52c6.965-0.787,12.606-6.015,13.92-12.9
	l16.63-88C497.205,100.216,492.769,92.518,485.29,89.9z"/>
</svg>
