<?xml version="1.0" encoding="iso-8859-1"?>
<!-- Generator: Adobe Illustrator 24.3.0, SVG Export Plug-In . SVG Version: 6.00 Build 0)  -->
<svg version="1.1" id="Layer_1" xmlns="http://www.w3.org/2000/svg" xmlns:xlink="http://www.w3.org/1999/xlink" x="0px" y="0px"
	 viewBox="0 0 512 512" style="enable-background:new 0 0 512 512;" xml:space="preserve">
<polygon points="400,422.627 377.373,400 425.373,352 377.373,304 400,281.373 470.627,352 "/>
<polygon points="400,230.627 377.373,208 425.373,160 377.373,112 400,89.372 470.627,160 "/>
<polygon points="200.667,368 48,368 48,336 183.333,336 247.338,237.858 274.142,255.339 "/>
<polygon points="432,368 311.438,368 183.437,176 48,176 48,144 200.563,144 328.562,336 432,336 "/>
<polygon points="292.438,230.188 265.812,212.437 311.438,144 432,144 432,176 328.562,176 "/>
</svg>
