<?xml version="1.0" encoding="iso-8859-1"?>
<!-- Generator: Adobe Illustrator 24.3.0, SVG Export Plug-In . SVG Version: 6.00 Build 0)  -->
<svg version="1.1" id="Layer_1" xmlns="http://www.w3.org/2000/svg" xmlns:xlink="http://www.w3.org/1999/xlink" x="0px" y="0px"
	 viewBox="0 0 512 512" style="enable-background:new 0 0 512 512;" xml:space="preserve">
<path d="M400,416c-4.095,0-8.189-1.562-11.313-4.687c-6.249-6.248-6.249-16.379,0-22.627L425.372,352l-36.686-36.687
	c-6.249-6.248-6.249-16.379,0-22.627c6.248-6.248,16.379-6.248,22.627,0l48,48c6.249,6.248,6.249,16.379,0,22.627l-48,48
	C408.189,414.438,404.095,416,400,416z"/>
<path d="M400,224c-4.095,0-8.189-1.562-11.313-4.686c-6.249-6.249-6.249-16.379,0-22.628L425.372,160l-36.686-36.686
	c-6.249-6.249-6.249-16.379,0-22.628c6.248-6.248,16.379-6.248,22.627,0l48,48c6.249,6.249,6.249,16.379,0,22.628l-48,48
	C408.189,222.438,404.095,224,400,224z"/>
<path d="M149.19,368H64c-8.836,0-16-7.163-16-16s7.164-16,16-16h85.19c21.445-0.001,41.351-10.653,53.248-28.496l40.249-60.379
	c4.901-7.353,14.834-9.34,22.188-4.438c7.353,4.901,9.34,14.835,4.438,22.188l-40.25,60.381
	C211.217,352.02,181.358,367.999,149.19,368z"/>
<path d="M416,368h-53.19c-32.169-0.001-62.027-15.98-79.872-42.744l-80.5-120.762C190.541,186.653,170.635,176,149.189,176H64
	c-8.836,0-16-7.164-16-16s7.164-16,16-16h85.19c32.168,0,62.027,15.979,79.873,42.744l80.501,120.761
	c11.896,17.842,31.801,28.494,53.247,28.495H416c8.837,0,16,7.163,16,16S424.837,368,416,368z"/>
<path d="M287.985,224.001c-3.049,0-6.131-0.87-8.858-2.687c-7.354-4.9-9.342-14.834-4.441-22.187l8.25-12.38
	C300.782,159.98,330.641,144,362.81,144H416c8.837,0,16,7.164,16,16s-7.163,16-16,16h-53.19c-21.445,0-41.351,10.653-53.247,28.496
	l-8.248,12.376C298.231,221.498,293.156,224.001,287.985,224.001z"/>
</svg>
