<?xml version="1.0" encoding="iso-8859-1"?>
<!-- Generator: Adobe Illustrator 24.3.0, SVG Export Plug-In . SVG Version: 6.00 Build 0)  -->
<svg version="1.1" id="Layer_1" xmlns="http://www.w3.org/2000/svg" xmlns:xlink="http://www.w3.org/1999/xlink" x="0px" y="0px"
	 viewBox="0 0 512 512" style="enable-background:new 0 0 512 512;" xml:space="preserve">
<path d="M338.911,496c-0.021,0-0.041,0-0.062,0H173.12c-15.2,0-28.396-10.817-31.379-25.721l-10.03-50.141
	c-1.064-5.326-4.708-9.708-9.746-11.725l-23.676-9.468C67.74,386.726,48.001,357.571,48,324.671V224
	c0-55.492,21.591-107.681,60.797-146.953C147.998,37.78,200.141,16.1,255.621,16c0.124,0,0.25,0,0.374,0
	c54.804,0,106.643,21.625,146.006,60.918C441.981,116.827,464,169.644,464,225.64v99c-0.001,32.902-19.74,62.057-50.288,74.275
	l-23.681,9.471c-5.036,2.017-8.68,6.404-9.738,11.732l-10.002,50.151C367.306,485.191,354.114,496,338.911,496z M255.993,47.999
	c-0.107,0-0.207,0-0.314,0c-46.944,0.084-91.065,18.429-124.235,51.655C98.27,132.885,80,177.045,80,224v100.67
	c0,19.739,11.844,37.232,30.173,44.564l23.678,9.469c15.121,6.053,26.049,19.196,29.239,35.162l10.029,50.136L338.88,464
	l10.028-50.13c3.174-15.973,14.103-29.134,29.232-35.193l23.688-9.474c18.328-7.331,30.171-24.823,30.172-44.564V225.64
	c0-47.438-18.683-92.212-52.605-126.075C346.076,66.307,302.258,47.999,255.993,47.999z"/>
<path d="M168,336c-30.878,0-56-25.121-56-56S137.122,224,168,224s56,25.122,56,56.001S198.878,336,168,336z M168,256
	c-13.234,0-24,10.766-24,24.001c0,13.233,10.766,24,24,24s24-10.767,24-24C192,266.766,181.234,256,168,256z"/>
<path d="M344,336c-30.879,0-56-25.121-56-56S313.121,224,344,224s56,25.122,56,56.001S374.879,336,344,336z M344,256
	c-13.233,0-24,10.766-24,24.001c0,13.233,10.767,24,24,24s24-10.767,24-24C368,266.766,357.233,256,344,256z"/>
<path d="M272,400h-32c-5.143,0-9.973-2.473-12.98-6.645c-3.007-4.173-3.825-9.536-2.199-14.415l16-48
	C242.999,324.408,249.113,320,256,320s13.001,4.407,15.179,10.94l16,48c1.627,4.879,0.809,10.242-2.199,14.415
	C281.973,397.528,277.144,400,272,400z"/>
<path d="M256,496c-8.836,0-16-7.163-16-16v-32c0-8.837,7.164-16,16-16c8.837,0,16,7.163,16,16v32C272,488.837,264.837,496,256,496z"
	/>
<path d="M208,496c-8.836,0-16-7.163-16-16v-32c0-8.837,7.164-16,16-16s16,7.163,16,16v32C224,488.837,216.836,496,208,496z"/>
<path d="M304,496c-8.837,0-16-7.163-16-16v-32c0-8.837,7.163-16,16-16s16,7.163,16,16v32C320,488.837,312.837,496,304,496z"/>
</svg>
