<?xml version="1.0" encoding="iso-8859-1"?>
<!-- Generator: Adobe Illustrator 24.3.0, SVG Export Plug-In . SVG Version: 6.00 Build 0)  -->
<svg version="1.1" id="Layer_1" xmlns="http://www.w3.org/2000/svg" xmlns:xlink="http://www.w3.org/1999/xlink" x="0px" y="0px"
	 viewBox="0 0 512 512" style="enable-background:new 0 0 512 512;" xml:space="preserve">
<path d="M256,16C141.31,16,48,109.31,48,224v154.83l82,32.81L146.88,496H192v-64h32v64h16v-64h32v64h16v-64h32v64h45.12L382,411.64
	l82-32.81V224C464,109.31,370.69,16,256,16z M168,336c-30.928,0-56-25.072-56-56s25.072-56,56-56s56,25.072,56,56
	C223.967,310.914,198.914,335.967,168,336z M219.51,400L244,320h24l24.49,80H219.51z M344,336c-30.928,0-56-25.072-56-56
	s25.072-56,56-56s56,25.072,56,56C399.967,310.914,374.914,335.967,344,336z M448,368L448,368z"/>
</svg>
