<?xml version="1.0" encoding="iso-8859-1"?>
<!-- Generator: Adobe Illustrator 24.3.0, SVG Export Plug-In . SVG Version: 6.00 Build 0)  -->
<svg version="1.1" id="Layer_1" xmlns="http://www.w3.org/2000/svg" xmlns:xlink="http://www.w3.org/1999/xlink" x="0px" y="0px"
	 viewBox="0 0 512 512" style="enable-background:new 0 0 512 512;" xml:space="preserve">
<path d="M402,76.94C362.61,37.63,310.78,16,256,16h-0.37C140.899,16.204,48,109.269,48,224v100.67
	c-0.127,32.764,19.83,62.261,50.29,74.33l23.71,9.42c5.031,1.995,8.703,6.41,9.75,11.72l10,50.13
	c3.02,14.938,16.13,25.69,31.37,25.73H184c4.418,0,8-3.582,8-8v-39.55c0-8.61,6.62-16,15.23-16.43
	c8.826-0.425,16.326,6.385,16.751,15.211c0.012,0.256,0.019,0.512,0.019,0.769v40c0,4.418,3.582,8,8,8l0,0c4.418,0,8-3.582,8-8
	v-39.55c0-8.61,6.62-16,15.23-16.43c8.826-0.425,16.326,6.385,16.751,15.211c0.012,0.256,0.018,0.512,0.019,0.769v40
	c0,4.418,3.582,8,8,8l0,0c4.418,0,8-3.582,8-8v-39.55c0-8.61,6.62-16,15.23-16.43c8.826-0.425,16.326,6.385,16.751,15.211
	c0.012,0.256,0.018,0.512,0.019,0.768v40c0,4.418,3.582,8,8,8h10.88c15.24-0.034,28.355-10.783,31.38-25.72l10-50.14
	c1.058-5.301,4.722-9.71,9.74-11.72l23.71-9.42c30.46-12.069,50.417-41.566,50.29-74.33v-99C464,169.67,442,116.86,402,76.94z
	 M171.66,335.88c-30.862,2.022-57.519-21.358-59.541-52.22s21.358-57.519,52.22-59.541s57.519,21.358,59.54,52.22
	c0.16,2.438,0.16,4.883,0,7.32C222.043,311.704,199.704,334.043,171.66,335.88z M281,397.25c-2.751,1.835-5.993,2.794-9.3,2.75
	h-31.4c-3.3,0.04-6.535-0.919-9.28-2.75c-5.49-3.721-8.115-10.443-6.6-16.9l15.91-47.6C243,326,247.25,321,254,320.13
	c8.26-1,14,2.87,17.61,12.22l16,48C289.123,386.809,286.494,393.532,281,397.25z M347.68,335.88
	c-30.862,2.022-57.519-21.358-59.54-52.22c-2.022-30.862,21.358-57.519,52.22-59.541s57.519,21.358,59.54,52.22
	c0.16,2.438,0.16,4.883,0,7.32c-1.838,28.051-24.188,50.393-52.24,52.22H347.68z"/>
</svg>
