<?xml version="1.0" encoding="iso-8859-1"?>
<!-- Generator: Adobe Illustrator 24.3.0, SVG Export Plug-In . SVG Version: 6.00 Build 0)  -->
<svg version="1.1" id="Layer_1" xmlns="http://www.w3.org/2000/svg" xmlns:xlink="http://www.w3.org/1999/xlink" x="0px" y="0px"
	 viewBox="0 0 512 512" style="enable-background:new 0 0 512 512;" xml:space="preserve">
<path d="M447.88,313.27l19.25-10.64l-21.28-38.51l-19.25,10.64c-14.76,8.167-27.838,19.06-38.54,32.1L300,256l88.07-50.86
	c10.702,13.04,23.78,23.933,38.54,32.1l19.25,10.64l21.28-38.51l-19.25-10.64c-7.73-4.269-14.783-9.661-20.93-16L480,152.05L458,114
	l-53,30.58c-2.431-8.499-3.584-17.312-3.42-26.15l0.41-22l-44-0.82l-0.41,22c-0.31,16.851,2.57,33.609,8.49,49.39L278,217.89V116.18
	c16.64-2.752,32.609-8.633,47.06-17.33L343.9,87.5l-22.71-37.69l-18.84,11.35c-7.573,4.554-15.779,7.961-24.35,10.11V16h-44v55.27
	c-8.571-2.149-16.777-5.556-24.35-10.11l-18.84-11.35L168.1,87.5l18.84,11.35c14.451,8.697,30.42,14.578,47.06,17.33v101.71
	L145.93,167c5.938-15.79,8.833-32.563,8.53-49.43l-0.41-22l-44,0.82l0.41,22c0.164,8.838-0.989,17.651-3.42,26.15L54,114l-22,38.1
	l53.05,30.64c-6.147,6.339-13.2,11.731-20.93,16l-19.25,10.63l21.28,38.51l19.25-10.64c14.76-8.167,27.838-19.06,38.54-32.1L212,256
	l-88.07,50.86c-10.702-13.04-23.78-23.933-38.54-32.1l-19.24-10.64l-21.28,38.51l19.25,10.64c7.73,4.269,14.783,9.661,20.93,16
	L32,360l22,38.1l53.05-30.63c2.431,8.499,3.584,17.312,3.42,26.15l-0.41,22l44,0.82l0.41-22c0.301-16.871-2.597-33.647-8.54-49.44
	L234,294.11v101.71c-16.64,2.752-32.609,8.633-47.06,17.33L168.1,424.5l22.71,37.69l18.84-11.35
	c7.573-4.554,15.779-7.961,24.35-10.11V496h44v-55.27c8.571,2.149,16.777,5.556,24.35,10.11l18.84,11.35l22.71-37.69l-18.84-11.35
	c-14.451-8.697-30.42-14.578-47.06-17.33V294.11L366.07,345c-5.938,15.79-8.833,32.563-8.53,49.43l0.41,22l44-0.82l-0.41-22
	c-0.155-8.853,1.011-17.681,3.46-26.19l53,30.63L480,360l-53-30.69C433.129,322.961,440.165,317.555,447.88,313.27z"/>
</svg>
