<?xml version="1.0" encoding="iso-8859-1"?>
<!-- Generator: Adobe Illustrator 24.3.0, SVG Export Plug-In . SVG Version: 6.00 Build 0)  -->
<svg version="1.1" id="Layer_1" xmlns="http://www.w3.org/2000/svg" xmlns:xlink="http://www.w3.org/1999/xlink" x="0px" y="0px"
	 viewBox="0 0 512 512" style="enable-background:new 0 0 512 512;" xml:space="preserve">
<path d="M461,349l-34-19.64c6.153-6.337,13.209-11.729,20.94-16c10.584-5.967,14.327-19.384,8.36-29.968
	c-5.895-10.457-19.084-14.258-29.64-8.542c-14.761,8.17-27.842,19.062-38.55,32.1L300,256l88.09-50.86
	c10.705,13.041,23.786,23.933,38.55,32.1c10.584,5.967,24.001,2.225,29.969-8.359c5.967-10.584,2.225-24.001-8.359-29.969
	c-0.109-0.062-0.219-0.122-0.33-0.182c-7.729-4.274-14.785-9.665-20.94-16l34-19.64c10.715-5.729,14.757-19.059,9.029-29.774
	c-5.729-10.715-19.059-14.757-29.774-9.029c-0.419,0.224-0.831,0.462-1.235,0.713l-34,19.63c-2.422-8.501-3.574-17.312-3.42-26.15
	c0.267-12.147-9.363-22.211-21.511-22.479C380.046,96.001,380.023,96,380,96h-0.41c-11.992-0.002-21.777,9.6-22,21.59
	c-0.31,16.859,2.574,33.624,8.5,49.41L278,217.89V116.18c16.644-2.751,32.616-8.631,47.07-17.33
	c10.408-6.271,13.761-19.792,7.49-30.2c-6.271-10.408-19.792-13.761-30.2-7.49c-7.577,4.554-15.786,7.961-24.36,10.11V38
	c0-12.15-9.85-22-22-22s-22,9.85-22,22v33.27c-8.574-2.149-16.783-5.556-24.36-10.11c-10.408-6.271-23.929-2.918-30.2,7.49
	s-2.918,23.929,7.49,30.2c14.454,8.699,30.426,14.579,47.07,17.33v101.71L145.91,167c5.935-15.791,8.826-32.563,8.52-49.43
	c-0.223-11.99-10.008-21.592-22-21.59H132c-12.148,0.224-21.814,10.254-21.59,22.402c0,0.003,0,0.005,0,0.008
	c0.161,8.85-0.988,17.676-3.41,26.19L73,125c-10.435-6.224-23.94-2.811-30.164,7.624c-6.224,10.435-2.811,23.94,7.624,30.164
	c0.179,0.107,0.359,0.211,0.54,0.312l34,19.64c-6.155,6.335-13.211,11.726-20.94,16c-10.685,5.785-14.656,19.137-8.871,29.821
	c5.785,10.685,19.137,14.656,29.821,8.871c0.11-0.06,0.22-0.121,0.33-0.182c14.761-8.17,27.842-19.062,38.55-32.1L212,256
	l-88.09,50.86c-10.708-13.038-23.789-23.93-38.55-32.1c-10.584-5.967-24.001-2.224-29.968,8.36s-2.224,24.001,8.36,29.968
	c0.109,0.061,0.218,0.122,0.328,0.181c7.729,4.274,14.785,9.665,20.94,16L51,349c-10.607,5.926-14.402,19.329-8.476,29.936
	s19.329,14.402,29.936,8.476c0.182-0.101,0.362-0.206,0.54-0.312l34-19.63c2.422,8.501,3.574,17.312,3.42,26.15
	c-0.212,12.136,9.445,22.15,21.58,22.38h0.41c11.992,0.002,21.777-9.6,22-21.59c0.31-16.859-2.574-33.624-8.5-49.41L234,294.11
	v101.71c-16.644,2.751-32.616,8.631-47.07,17.33c-10.408,6.271-13.761,19.792-7.49,30.2c6.271,10.408,19.792,13.761,30.2,7.49
	c7.577-4.554,15.786-7.961,24.36-10.11V474c0,12.15,9.85,22,22,22s22-9.85,22-22v-33.27c8.574,2.149,16.783,5.556,24.36,10.11
	c10.408,6.271,23.929,2.918,30.2-7.49c6.271-10.408,2.918-23.929-7.49-30.2c-14.454-8.699-30.426-14.579-47.07-17.33V294.11
	L366.09,345c-5.935,15.791-8.826,32.563-8.52,49.43c0.223,11.99,10.008,21.592,22,21.59H380
	c12.148-0.224,21.814-10.254,21.59-22.402c0-0.003,0-0.005,0-0.008c-0.161-8.85,0.988-17.676,3.41-26.19l34,19.63
	c10.224,6.565,23.834,3.598,30.399-6.626c6.565-10.224,3.598-23.834-6.626-30.399C462.198,349.656,461.607,349.314,461,349z"/>
</svg>
