<?xml version="1.0" encoding="iso-8859-1"?>
<!-- Generator: Adobe Illustrator 24.3.0, SVG Export Plug-In . SVG Version: 6.00 Build 0)  -->
<svg version="1.1" id="icons" xmlns="http://www.w3.org/2000/svg" xmlns:xlink="http://www.w3.org/1999/xlink" x="0px" y="0px"
	 viewBox="0 0 512 512" style="enable-background:new 0 0 512 512;" xml:space="preserve">
<path d="M207.991,512.012c-3.452,0-6.895-0.724-10.144-2.167c-6.103-2.713-10.784-7.639-13.182-13.872l-42.403-110.236
	L32.026,343.333c-6.591-2.535-11.824-7.77-14.359-14.359c-2.397-6.23-2.224-13.024,0.488-19.127
	c2.712-6.103,7.639-10.783,13.872-13.181l110.236-42.403l42.404-110.238c2.534-6.589,7.767-11.822,14.356-14.357
	c12.869-4.95,27.362,1.492,32.31,14.358l42.404,110.237l110.237,42.403c6.591,2.536,11.823,7.77,14.357,14.359
	c2.397,6.23,2.225,13.024-0.487,19.127s-7.638,10.783-13.87,13.181l-110.238,42.403l-42.403,110.237
	c-2.534,6.59-7.768,11.824-14.359,14.358C214.06,511.454,211.022,512.012,207.991,512.012z M60.5,320l96.155,36.986
	c6.592,2.535,11.826,7.771,14.36,14.362L208,467.5l36.987-96.154c2.534-6.591,7.769-11.825,14.36-14.359L355.501,320l-96.155-36.986
	c-6.593-2.538-11.825-7.771-14.359-14.36L208,172.499l-36.987,96.155c-2.532,6.587-7.764,11.821-14.355,14.358L60.5,320z
	 M274.854,257.168h0.01H274.854z"/>
<path d="M88,176c-6.62,0-12.557-4.077-14.934-10.256l-17.447-45.363l-45.363-17.447C4.077,100.557,0,94.62,0,88
	s4.077-12.557,10.256-14.934l45.363-17.447l17.447-45.363C75.443,4.077,81.38,0,88,0s12.557,4.077,14.934,10.256l17.447,45.363
	l45.363,17.447C171.923,75.443,176,81.38,176,88s-4.077,12.557-10.256,14.934l-45.363,17.447l-17.447,45.363
	C100.557,171.923,94.62,176,88,176z M60.571,88l13.173,5.066c4.226,1.625,7.564,4.964,9.19,9.19L88,115.429l5.066-13.173
	c1.625-4.226,4.964-7.564,9.19-9.19L115.429,88l-13.173-5.066c-4.226-1.625-7.564-4.964-9.19-9.19L88,60.571l-5.066,13.173
	c-1.625,4.226-4.964,7.564-9.19,9.19L60.571,88z"/>
<path d="M400,256c-6.62,0-12.557-4.077-14.934-10.255l-24.117-62.694l-62.693-24.117C292.077,156.557,288,150.62,288,144
	s4.077-12.557,10.256-14.933l62.693-24.117l24.117-62.694C387.443,36.077,393.38,32,400,32s12.557,4.077,14.934,10.255
	l24.117,62.694l62.693,24.117C507.923,131.443,512,137.38,512,144s-4.077,12.557-10.256,14.933l-62.693,24.117l-24.117,62.694
	C412.557,251.923,406.62,256,400,256z M348.564,144l30.51,11.737c4.226,1.625,7.563,4.964,9.189,9.188L400,195.435l11.736-30.51
	c1.626-4.225,4.964-7.563,9.189-9.188L451.436,144l-30.51-11.737c-4.226-1.625-7.563-4.964-9.189-9.188L400,92.564l-11.736,30.51
	c-1.626,4.225-4.964,7.563-9.189,9.188L348.564,144z"/>
</svg>
