<?xml version="1.0" encoding="iso-8859-1"?>
<!-- Generator: Adobe Illustrator 24.3.0, SVG Export Plug-In . SVG Version: 6.00 Build 0)  -->
<svg version="1.1" id="icons" xmlns="http://www.w3.org/2000/svg" xmlns:xlink="http://www.w3.org/1999/xlink" x="0px" y="0px"
	 viewBox="0 0 512 512" style="enable-background:new 0 0 512 512;" xml:space="preserve">
<path d="M208,512c-10.354,0.053-19.655-6.323-23.34-16l-39.84-103.6c-1.632-4.221-4.969-7.558-9.19-9.19L32,343.34
	c-12.89-4.947-19.329-19.408-14.382-32.298c2.539-6.616,7.766-11.843,14.382-14.382l103.6-39.84c4.221-1.632,7.558-4.969,9.19-9.19
	L184.66,144c4.947-12.89,19.408-19.329,32.298-14.382c6.616,2.539,11.843,7.766,14.382,14.382l39.84,103.6
	c1.632,4.221,4.969,7.558,9.19,9.19l103,39.63c10.065,3.731,16.714,13.366,16.63,24.1c-0.156,10.166-6.496,19.208-16,22.82
	l-103.6,39.84c-4.221,1.632-7.558,4.969-9.19,9.19L231.34,496C227.655,505.677,218.354,512.053,208,512z M274.85,257.16
	L274.85,257.16z"/>
<path d="M88,176c-6.068,0-11.51-3.737-13.69-9.4l-16.86-43.84c-0.739-1.939-2.271-3.471-4.21-4.21L9.4,101.69
	C1.839,98.778-1.93,90.289,0.982,82.728C2.472,78.858,5.53,75.8,9.4,74.31l43.84-16.86c1.937-0.742,3.468-2.273,4.21-4.21
	L74.16,9.79c1.92-5.213,6.565-8.937,12.07-9.68c6.673-0.811,13.044,3.017,15.46,9.29l16.86,43.84c0.742,1.937,2.273,3.468,4.21,4.21
	l43.84,16.86c7.561,2.912,11.33,11.401,8.418,18.962c-1.49,3.87-4.548,6.928-8.418,8.418l-43.84,16.86
	c-1.939,0.739-3.471,2.271-4.21,4.21l-16.86,43.84C99.51,172.263,94.068,176,88,176z"/>
<path d="M400,256c-6.62-0.002-12.555-4.081-14.93-10.26l-22.84-59.37c-0.813-2.116-2.484-3.787-4.6-4.6l-59.37-22.84
	c-8.246-3.177-12.354-12.437-9.177-20.683c1.625-4.218,4.959-7.552,9.177-9.177l59.37-22.84c2.116-0.813,3.787-2.484,4.6-4.6
	l22.67-58.95c2.109-5.68,7.169-9.741,13.17-10.57c7.282-0.882,14.231,3.302,16.86,10.15l22.84,59.37
	c0.813,2.116,2.484,3.787,4.6,4.6l59.37,22.84c8.246,3.177,12.354,12.437,9.177,20.683c-1.625,4.218-4.959,7.552-9.177,9.177
	l-59.37,22.84c-2.116,0.813-3.787,2.484-4.6,4.6l-22.84,59.37C412.555,251.919,406.62,255.998,400,256z"/>
</svg>
