<?xml version="1.0" encoding="iso-8859-1"?>
<!-- Generator: Adobe Illustrator 24.3.0, SVG Export Plug-In . SVG Version: 6.00 Build 0)  -->
<svg version="1.1" id="Layer_1" xmlns="http://www.w3.org/2000/svg" xmlns:xlink="http://www.w3.org/1999/xlink" x="0px" y="0px"
	 viewBox="0 0 512 512" style="enable-background:new 0 0 512 512;" xml:space="preserve">
<path d="M425.7,118.25c-94.006-93.445-245.965-92.99-339.41,1.017C-2.77,208.861-7.129,352.157,76.32,447l0.18,0.2
	c0.33,0.35,0.64,0.71,1,1.05c0.74,0.84,1.58,1.79,2.57,2.78c15.58,16.56,41.636,17.355,58.196,1.774
	c0.748-0.704,1.47-1.436,2.164-2.194c58.759-63.861,158.163-67.996,222.023-9.237c3.206,2.95,6.287,6.031,9.237,9.237
	c15.37,16.763,41.419,17.893,58.183,2.522c0.857-0.786,1.68-1.607,2.467-2.462l3.21-3.5l0.18-0.2
	c84.122-94.991,79.74-239.057-10-328.76L425.7,118.25z M240,128c0-8.837,7.163-16,16-16c8.837,0,16,7.163,16,16v32
	c0,8.837-7.163,16-16,16c-8.837,0-16-7.163-16-16V128z M128,304H96c-8.837,0-16-7.163-16-16s7.163-16,16-16h32
	c8.837,0,16,7.163,16,16S136.837,304,128,304z M176.8,208.8c-6.248,6.243-16.372,6.243-22.62,0l-22.63-22.62
	c-6.249-6.249-6.249-16.381,0-22.63s16.381-6.249,22.63,0l22.62,22.63C183.043,192.428,183.043,202.553,176.8,208.8z M326.1,231.9
	l-47.5,75.5c-1.943,2.693-4.307,5.057-7,7c-13.638,9.514-32.408,6.171-41.922-7.467c-9.365-13.424-6.291-31.871,6.922-41.533
	l75.5-47.5c3.515-2.45,8.185-2.45,11.7,0C328.287,221.14,329.315,227.395,326.1,231.9L326.1,231.9z M357.82,208.8
	c-6.406,6.086-16.534,5.827-22.62-0.579c-5.867-6.176-5.867-15.865,0-22.04l22.62-22.63c6.249-6.249,16.381-6.249,22.63,0
	s6.249,16.381,0,22.63L357.82,208.8z M423.7,436.4L423.7,436.4z M416,304h-32c-8.837,0-16-7.163-16-16s7.163-16,16-16h32
	c8.837,0,16,7.163,16,16S424.837,304,416,304z"/>
</svg>
