<?xml version="1.0" encoding="iso-8859-1"?>
<!-- Generator: Adobe Illustrator 24.3.0, SVG Export Plug-In . SVG Version: 6.00 Build 0)  -->
<svg version="1.1" id="Layer_1" xmlns="http://www.w3.org/2000/svg" xmlns:xlink="http://www.w3.org/1999/xlink" x="0px" y="0px"
	 viewBox="0 0 512 512" style="enable-background:new 0 0 512 512;" xml:space="preserve">
<path d="M256,48C123.46,48,16,156.55,16,290.56c-0.125,59.174,21.319,116.366,60.32,160.87c1.18,1.3,2.25,2.6,3.43,3.79
	C89.2,464,92.07,464,99.57,464s12.43,0,19.93-8.88C152,416.64,202,400,256,400s104.07,16.71,136.5,55.12
	C400,464,404.82,464,412.43,464s11.3,0,19.82-8.78c1.22-1.25,2.25-2.49,3.43-3.79c39.001-44.504,60.445-101.696,60.32-160.87
	C496,156.55,388.54,48,256,48z M240,112h32v64h-32V112z M144,304H80v-32h64V304z M165.49,220.12l-45.25-45.26l22.62-22.62
	l45.26,45.25L165.49,220.12z M278.6,307.4c-1.943,2.693-4.307,5.057-7,7c-13.638,9.514-32.408,6.171-41.922-7.467
	c-9.365-13.424-6.291-31.871,6.922-41.533L320,224L278.6,307.4z M323.88,197.49l45.26-45.25l22.62,22.62l-45.25,45.26L323.88,197.49
	z M432,304h-64v-32h64V304z"/>
</svg>
