<?xml version="1.0" encoding="iso-8859-1"?>
<!-- Generator: Adobe Illustrator 24.3.0, SVG Export Plug-In . SVG Version: 6.00 Build 0)  -->
<svg version="1.1" id="Layer_1" xmlns="http://www.w3.org/2000/svg" xmlns:xlink="http://www.w3.org/1999/xlink" x="0px" y="0px"
	 viewBox="0 0 512 512" style="enable-background:new 0 0 512 512;" xml:space="preserve">
<path d="M326.1,231.9l-47.5,75.5c-1.943,2.693-4.307,5.057-7,7c-13.638,9.514-32.408,6.171-41.922-7.467
	c-9.365-13.424-6.291-31.871,6.922-41.533l75.5-47.5c3.515-2.45,8.185-2.45,11.7,0C328.287,221.14,329.315,227.395,326.1,231.9z"/>
<path d="M402.04,463.999c-0.631,0-1.264-0.015-1.898-0.043c-10.991-0.495-21.132-5.241-28.554-13.364
	c-2.901-3.152-6.007-6.258-9.189-9.187c-30.886-28.421-70.987-43.13-112.924-41.368c-41.935,1.742-80.68,19.712-109.1,50.597
	c-0.755,0.825-1.58,1.654-2.423,2.433c-8.081,7.463-18.6,11.341-29.579,10.898c-10.888-0.432-20.963-5.037-28.408-12.977
	c-0.959-0.974-1.783-1.9-2.515-2.726c-0.309-0.349-0.621-0.7-0.943-1.052c-0.057-0.062-0.113-0.125-0.169-0.188
	C37.347,403.117,15.919,346.597,16,287.877c0-64.074,24.967-124.325,70.302-169.632C131.628,72.947,191.895,48,256,48
	c64.104,0,124.371,24.947,169.698,70.246C471.033,163.553,496,223.804,496,287.9c0.082,58.697-21.346,115.217-60.336,159.124
	c-0.052,0.058-0.104,0.115-0.155,0.173l-3.2,3.5c-0.837,0.906-1.668,1.732-2.523,2.516
	C422.128,460.208,412.34,463.999,402.04,463.999z M423.7,436.4h0.01H423.7z M256.19,367.897c47.543,0,92.679,17.573,127.875,49.961
	c3.832,3.525,7.569,7.263,11.108,11.107c1.694,1.854,3.956,2.913,6.408,3.023c2.456,0.118,4.801-0.74,6.613-2.396
	c0.189-0.173,0.375-0.358,0.55-0.547l3.066-3.354c33.727-38.021,52.259-86.943,52.188-137.77c0-55.567-21.636-107.78-60.923-147.042
	C363.794,101.621,311.562,80,256,80c-55.561,0-107.794,21.621-147.077,60.88C69.636,180.142,48,232.355,48,287.9
	c-0.07,50.849,18.462,99.771,52.188,137.791c0.406,0.444,0.8,0.888,1.19,1.327c0.541,0.608,1.05,1.184,1.433,1.565
	c0.15,0.15,0.298,0.304,0.442,0.46c1.666,1.804,3.934,2.85,6.386,2.947c2.44,0.095,4.796-0.767,6.601-2.433
	c0.189-0.174,0.376-0.362,0.557-0.561c34.236-37.206,80.873-58.835,131.348-60.933C250.832,367.953,253.518,367.897,256.19,367.897z
	"/>
<path d="M256,176c-8.836,0-16-7.164-16-16v-32c0-8.836,7.164-16,16-16c8.837,0,16,7.164,16,16v32C272,168.836,264.837,176,256,176z"
	/>
<path d="M416,304h-32c-8.837,0-16-7.163-16-16s7.163-16,16-16h32c8.837,0,16,7.163,16,16S424.837,304,416,304z"/>
<path d="M128,304H96c-8.836,0-16-7.163-16-16s7.164-16,16-16h32c8.836,0,16,7.163,16,16S136.836,304,128,304z"/>
<path d="M165.49,213.49c-4.095,0-8.189-1.562-11.313-4.686l-22.63-22.63c-6.249-6.249-6.249-16.379,0-22.627
	c6.249-6.249,16.379-6.249,22.627,0l22.63,22.63c6.249,6.249,6.249,16.379,0,22.627C173.68,211.928,169.585,213.49,165.49,213.49z"
	/>
<path d="M346.51,213.49c-4.095,0-8.189-1.562-11.313-4.686c-6.249-6.249-6.249-16.379,0-22.627l22.63-22.63
	c6.248-6.248,16.379-6.248,22.627,0c6.249,6.249,6.249,16.379,0,22.627l-22.63,22.63C354.699,211.928,350.604,213.49,346.51,213.49z
	"/>
</svg>
