<?xml version="1.0" encoding="UTF-8"?>
<svg width="525px" height="441px" viewBox="0 0 525 441" version="1.1" xmlns="http://www.w3.org/2000/svg" xmlns:xlink="http://www.w3.org/1999/xlink">
    <title>Group 2</title>
    <g id="Page-1" stroke="none" stroke-width="1"  fill-rule="evenodd">
        <g id="Group-2" transform="translate(6.822581, 0.817544)"  fill-rule="nonzero">
            <g id="Group" transform="translate(300.332767, 101.750311)">
                <path d="M244.88575,184.719864 C240.594736,184.719864 236.305118,183.075134 233.03115,179.786726 L144.298724,90.6432141 L55.5662983,179.786726 C49.0190608,186.364244 38.405034,186.364244 31.8577965,179.786726 C25.3105591,173.209207 25.3105591,162.546091 31.8577965,155.968573 L132.444823,54.9156344 C135.588167,51.7570502 139.852638,49.9830221 144.298724,49.9830221 C148.74481,49.9830221 153.009281,51.7570502 156.153324,54.9156344 L256.74035,155.968573 C263.286889,162.546091 263.286889,173.209207 256.74035,179.786726 C253.467081,183.075134 249.176066,184.719864 244.88575,184.719864 Z" id="Path-Copy" stroke="#000000" stroke-width="12" transform="translate(144.298812, 117.351443) rotate(90.000000) translate(-144.298812, -117.351443) "></path>
                <path d="M76.3508772,194.600566 C60.4770807,194.600566 47.6070175,190.327899 47.6070175,185.056706 L47.6070175,51.4426712 C47.6070175,46.1720747 60.4770807,41.8988115 76.3508772,41.8988115 C92.2246737,41.8988115 105.094737,46.1720747 105.094737,51.4426712 L105.094737,185.056706 C105.094737,190.327899 92.2246737,194.600566 76.3508772,194.600566 Z" id="Path" transform="translate(76.350877, 118.249689) rotate(90.000000) translate(-76.350877, -118.249689) "></path>
            </g>
            <path d="M167.95536,284.673684 C163.664345,284.673684 159.374728,283.028954 156.10076,279.740546 L67.3683337,190.597034 L-21.3640922,279.740546 C-27.9113297,286.318064 -38.5253565,286.318064 -45.072594,279.740546 C-51.6198314,273.163027 -51.6198314,262.499911 -45.072594,255.922393 L55.5144321,154.869454 C58.6577767,151.71087 62.9222475,149.936842 67.3683337,149.936842 C71.81442,149.936842 76.0788908,151.71087 79.2229339,154.869454 L179.80996,255.922393 C186.356499,262.499911 186.356499,273.163027 179.80996,279.740546 C176.53669,283.028954 172.245676,284.673684 167.95536,284.673684 Z" id="Path-Copy" stroke="#000000" stroke-width="12" transform="translate(67.368421, 217.305263) scale(-1, 1) rotate(90.000000) translate(-67.368421, -217.305263) "></path>
            <path d="M126.971364,294.554386 C111.097567,294.554386 98.2275042,290.281719 98.2275042,285.010526 L98.2275042,151.396491 C98.2275042,146.125895 111.097567,141.852632 126.971364,141.852632 C142.84516,141.852632 155.715224,146.125895 155.715224,151.396491 L155.715224,285.010526 C155.715224,290.281719 142.84516,294.554386 126.971364,294.554386 Z" id="Path" transform="translate(126.971364, 218.203509) scale(-1, 1) rotate(90.000000) translate(-126.971364, -218.203509) "></path>
            <path d="M300.332767,440 C284.458971,440 271.588908,427.688594 271.588908,412.5 L271.588908,27.5 C271.588908,12.313125 284.458971,0 300.332767,0 C316.206564,0 329.076627,12.313125 329.076627,27.5 L329.076627,412.5 C329.076627,427.688594 316.206564,440 300.332767,440 Z" id="Path"></path>
            <path d="M203.322241,440 C187.448445,440 174.578381,427.688594 174.578381,412.5 L174.578381,27.5 C174.578381,12.313125 187.448445,0 203.322241,0 C219.196038,0 232.066101,12.313125 232.066101,27.5 L232.066101,412.5 C232.066101,427.688594 219.196038,440 203.322241,440 Z" id="Path-Copy-2"></path>
        </g>
    </g>
</svg>