<?xml version="1.0" encoding="iso-8859-1"?>
<!-- Generator: Adobe Illustrator 24.3.0, SVG Export Plug-In . SVG Version: 6.00 Build 0)  -->
<svg version="1.1" id="Layer_1" xmlns="http://www.w3.org/2000/svg" xmlns:xlink="http://www.w3.org/1999/xlink" x="0px" y="0px"
	 viewBox="0 0 512 512" style="enable-background:new 0 0 512 512;" xml:space="preserve">
<path d="M416,464H96c-26.414-0.074-47.926-21.587-48-47.955V96c0.074-26.414,21.586-47.926,47.955-48H416
	c26.413,0.074,47.926,21.586,48,47.955V416c-0.074,26.413-21.587,47.926-47.955,48C416.03,464,416.015,464,416,464z M415.955,80H96
	c-8.778,0.024-15.976,7.222-16,16.044V416c0.024,8.777,7.223,15.976,16.045,16h319.927c8.814-0.034,16.004-7.229,16.028-16.045V96
	C431.976,87.223,424.777,80.024,415.955,80z"/>
</svg>
