<?xml version="1.0" encoding="iso-8859-1"?>
<!-- Generator: Adobe Illustrator 24.3.0, SVG Export Plug-In . SVG Version: 6.00 Build 0)  -->
<svg version="1.1" id="Layer_1" xmlns="http://www.w3.org/2000/svg" xmlns:xlink="http://www.w3.org/1999/xlink" x="0px" y="0px"
	 viewBox="0 0 512 512" style="enable-background:new 0 0 512 512;" xml:space="preserve">
<path d="M394,480c-3.368,0.013-6.654-1.037-9.39-3L256,383.76L127.39,477c-7.153,5.188-17.158,3.595-22.346-3.558
	c-3.045-4.198-3.866-9.61-2.204-14.522L153,310.35L23,221.2c-7.29-4.994-9.152-14.952-4.158-22.242
	c2.975-4.342,7.895-6.944,13.158-6.958h160.38l48.4-148.95c2.725-8.406,11.749-13.011,20.155-10.285
	c4.879,1.582,8.703,5.407,10.285,10.285l48.4,149H480c8.837-0.004,16.004,7.156,16.008,15.992
	c0.003,5.281-2.601,10.223-6.958,13.208L359,310.35l50.13,148.53c2.828,8.372-1.667,17.451-10.039,20.279
	C397.451,479.713,395.731,479.997,394,480z"/>
</svg>
