<?xml version="1.0" encoding="iso-8859-1"?>
<!-- Generator: Adobe Illustrator 24.3.0, SVG Export Plug-In . SVG Version: 6.00 Build 0)  -->
<svg version="1.1" id="Layer_1" xmlns="http://www.w3.org/2000/svg" xmlns:xlink="http://www.w3.org/1999/xlink" x="0px" y="0px"
	 viewBox="0 0 512 512" style="enable-background:new 0 0 512 512;" xml:space="preserve">
<path d="M394,480c-3.294,0-6.587-1.014-9.389-3.044L256,383.759l-128.611,93.197c-5.639,4.085-13.269,4.055-18.875-0.071
	c-5.606-4.127-7.9-11.405-5.674-18.001l50.129-148.533L22.952,221.196c-5.783-3.966-8.311-11.234-6.234-17.932
	C18.793,196.566,24.988,192,32,192h160.376l48.407-148.945C242.926,36.463,249.069,32,256,32c6.932,0,13.074,4.463,15.217,11.055
	L319.624,192H480c7.012,0,13.207,4.566,15.283,11.264c2.075,6.698-0.452,13.966-6.234,17.932L359.03,310.351l50.13,148.533
	c2.226,6.596-0.068,13.874-5.674,18.001C400.666,478.961,397.333,480,394,480z M256,348c3.294,0,6.588,1.015,9.389,3.044
	l97.43,70.602L324.84,309.117c-2.289-6.783,0.207-14.263,6.111-18.312L428.375,224H308c-6.932,0-13.074-4.463-15.217-11.055
	L256,99.766l-36.783,113.18C217.074,219.537,210.931,224,204,224H83.625l97.423,66.805c5.905,4.049,8.401,11.528,6.111,18.312
	l-37.979,112.529l97.43-70.602C249.412,349.015,252.706,348,256,348z"/>
<polygon points="256,48 256,364 118,464 172,304 32,208 204,208 "/>
</svg>
