<?xml version="1.0" encoding="iso-8859-1"?>
<!-- Generator: Adobe Illustrator 24.3.0, SVG Export Plug-In . SVG Version: 6.00 Build 0)  -->
<svg version="1.1" id="Layer_1" xmlns="http://www.w3.org/2000/svg" xmlns:xlink="http://www.w3.org/1999/xlink" x="0px" y="0px"
	 viewBox="0 0 512 512" style="enable-background:new 0 0 512 512;" xml:space="preserve">
<path d="M104,496H72c-13.255,0-24-10.745-24-24V328c0-13.255,10.745-24,24-24h32c13.255,0,24,10.745,24,24v144
	C128,485.255,117.255,496,104,496z"/>
<path d="M328,496h-32c-13.255,0-24-10.745-24-24V232c0-13.255,10.745-24,24-24h32c13.255,0,24,10.745,24,24v240
	C352,485.255,341.255,496,328,496z"/>
<path d="M440,496h-32c-13.255,0-24-10.745-24-24V120c0-13.255,10.745-24,24-24h32c13.255,0,24,10.745,24,24v352
	C464,485.255,453.255,496,440,496z"/>
<path d="M216,496h-32c-13.255,0-24-10.745-24-24V40c0-13.255,10.745-24,24-24h32c13.255,0,24,10.745,24,24v432
	C240,485.255,229.255,496,216,496z"/>
</svg>
