<?xml version="1.0" encoding="iso-8859-1"?>
<!-- Generator: Adobe Illustrator 24.3.0, SVG Export Plug-In . SVG Version: 6.00 Build 0)  -->
<svg version="1.1" id="Layer_1" xmlns="http://www.w3.org/2000/svg" xmlns:xlink="http://www.w3.org/1999/xlink" x="0px" y="0px"
	 viewBox="0 0 512 512" style="enable-background:new 0 0 512 512;" xml:space="preserve">
<path d="M104,496H72c-13.234,0-24-10.767-24-24V328c0-13.233,10.766-24,24-24h32c13.234,0,24,10.767,24,24v144
	C128,485.234,117.234,496,104,496z M80,464h16V336H80V464z M104,336h0.01H104z"/>
<path d="M328,496h-32c-13.233,0-24-10.767-24-24V232c0-13.234,10.767-24,24-24h32c13.233,0,24,10.766,24,24V472
	C352,485.234,341.233,496,328,496z M304,464h16V240h-16V464z M328,240h0.01H328z"/>
<path d="M440,496h-32c-13.233,0-24-10.767-24-24V120c0-13.233,10.767-24,24-24h32c13.233,0,24,10.767,24,24v352
	C464,485.234,453.233,496,440,496z M416,464h16V128h-16V464z M440,128h0.01H440z"/>
<path d="M216,496h-32c-13.234,0-24-10.767-24-24V40c0-13.234,10.766-24,24-24h32c13.234,0,24,10.766,24,24v432
	C240,485.234,229.234,496,216,496z M192,464h16V48h-16V464z M216,48h0.01H216z"/>
</svg>
