<?xml version="1.0" encoding="iso-8859-1"?>
<!-- Generator: Adobe Illustrator 24.3.0, SVG Export Plug-In . SVG Version: 6.00 Build 0)  -->
<svg version="1.1" id="Layer_1" xmlns="http://www.w3.org/2000/svg" xmlns:xlink="http://www.w3.org/1999/xlink" x="0px" y="0px"
	 viewBox="0 0 512 512" style="enable-background:new 0 0 512 512;" xml:space="preserve">
<path d="M256,248c-8.836,0-16-7.164-16-16v-80c0-8.836,7.164-16,16-16c8.837,0,16,7.164,16,16v80C272,240.836,264.837,248,256,248z"
	/>
<path d="M256,112c-13.255,0-24-10.745-24-24V72c0-13.255,10.745-24,24-24s24,10.745,24,24v16C280,101.255,269.255,112,256,112z"/>
<path d="M132,156c-6.142,0-12.284-2.343-16.971-7.029l-12-12c-9.373-9.373-9.373-24.569,0-33.941c9.373-9.372,24.568-9.372,33.941,0
	l12,12c9.373,9.373,9.373,24.569,0,33.941C144.284,153.657,138.142,156,132,156z"/>
<path d="M256,320c-26.467,0-48-21.532-48-48S229.533,224,256,224c26.468,0,48,21.533,48,48.001S282.468,320,256,320z M256,256
	c-8.822,0-16,7.178-16,16.001s7.178,16,16,16s16-7.178,16-16S264.822,256,256,256z"/>
<path d="M256,464C150.131,464,64,377.87,64,272c0-105.87,86.131-192,192-192s192,86.131,192,192C448,377.87,361.869,464,256,464z
	 M256,112c-88.224,0-160,71.776-160,160s71.776,160,160,160c88.225,0,160-71.775,160-160S344.225,112,256,112z"/>
</svg>
