<?xml version="1.0" encoding="iso-8859-1"?>
<!-- Generator: Adobe Illustrator 24.3.0, SVG Export Plug-In . SVG Version: 6.00 Build 0)  -->
<svg version="1.1" id="Layer_1" xmlns="http://www.w3.org/2000/svg" xmlns:xlink="http://www.w3.org/1999/xlink" x="0px" y="0px"
	 viewBox="0 0 512 512" style="enable-background:new 0 0 512 512;" xml:space="preserve">
<circle cx="256" cy="272" r="16"/>
<path d="M280,81.5V72c0-13.255-10.745-24-24-24c-13.255,0-24,10.745-24,24v9.5c-30.308,3.805-59.261,14.823-84.43,32.13L137,103
	c-9.389-9.389-24.611-9.389-34,0s-9.389,24.611,0,34l8.6,8.6C80.882,180.538,63.958,225.478,64,272c0,105.87,86.13,192,192,192
	s192-86.13,192-192C448,174.26,374.58,93.34,280,81.5z M256,320c-26.51-0.008-47.994-21.504-47.986-48.014
	c0.006-20.331,12.82-38.453,31.986-45.236V152c0-8.837,7.163-16,16-16c8.837,0,16,7.163,16,16v74.75
	c24.991,8.844,38.08,36.273,29.236,61.264C294.453,307.18,276.331,319.994,256,320z"/>
</svg>
