<?xml version="1.0" encoding="iso-8859-1"?>
<!-- Generator: Adobe Illustrator 24.3.0, SVG Export Plug-In . SVG Version: 6.00 Build 0)  -->
<svg version="1.1" id="Layer_1" xmlns="http://www.w3.org/2000/svg" xmlns:xlink="http://www.w3.org/1999/xlink" x="0px" y="0px"
	 viewBox="0 0 512 512" style="enable-background:new 0 0 512 512;" xml:space="preserve">
<path d="M480,448h-12c-2.209,0-4-1.791-4-4V273.51c0.032-2.209-1.734-4.025-3.942-4.057c-0.44-0.006-0.879,0.06-1.298,0.197
	c-9.176,2.884-18.706,4.492-28.32,4.78c-1.18,0-2.3,0.05-3.4,0.05c-18.493,0.044-36.688-4.652-52.85-13.64
	c-2.487-1.383-5.513-1.383-8,0c-16.158,8.988-34.35,13.684-52.84,13.64c-18.386,0.026-36.463-4.726-52.46-13.79
	c-2.51-1.421-5.58-1.421-8.09,0c-16.237,9.098-34.548,13.851-53.16,13.8c-18.51,0.012-36.701-4.814-52.77-14
	c-2.53-1.439-5.63-1.439-8.16,0c-16.069,9.186-34.26,14.012-52.77,14c-1.09,0-2.19,0-3.37-0.05h-0.06
	c-9.952-0.299-19.811-2.013-29.28-5.09c-2.102-0.679-4.357,0.474-5.036,2.576c-0.128,0.395-0.193,0.808-0.194,1.224V444
	c0,2.209-1.791,4-4,4H32.5c-8.64,0-16.1,6.64-16.48,15.28c-0.398,8.828,6.436,16.306,15.264,16.704
	C31.522,479.995,31.761,480,32,480h447.5c8.64,0,16.1-6.64,16.48-15.28c0.398-8.828-6.436-16.306-15.264-16.704
	C480.478,448.006,480.239,448,480,448z M224,380c0,2.209-1.791,4-4,4h-88c-2.209,0-4-1.791-4-4v-64c0-6.627,5.373-12,12-12h72
	c6.627,0,12,5.373,12,12V380z M380,448h-72c-2.209,0-4-1.791-4-4V316c0-6.627,5.373-12,12-12h56c6.627,0,12,5.373,12,12v128
	C384,446.209,382.209,448,380,448z"/>
<path d="M492.57,170.28l-42.92-98.49C438.41,47.62,412.74,32,384.25,32H127.7c-28.49,0-54.16,15.62-65.4,39.79l-42.92,98.49
	c-9,19.41,2.89,39.34,2.9,39.35l0.28,0.45c0.49,0.78,1.36,2,1.89,2.78c0.05,0.06,0.09,0.13,0.14,0.2l5,6.05
	c0.187,0.228,0.387,0.445,0.6,0.65l5,4.83l0.42,0.36c2.936,2.517,6.077,4.785,9.39,6.78v0.05c10.883,6.593,23.282,10.268,36,10.67
	c0.82,0,1.64,0,2.47,0c19.243,0.036,37.784-7.221,51.89-20.31l0.33-0.31c3.058-2.881,7.832-2.881,10.89,0l0.33,0.31
	c29.552,27.086,74.908,27.086,104.46,0c3.067-2.84,7.803-2.84,10.87,0l0,0c29.458,26.994,74.633,27.094,104.21,0.23
	c3.021-2.799,7.689-2.799,10.71,0c14.286,13.041,32.967,20.212,52.31,20.08h2.49c12.399-0.463,24.462-4.151,35-10.7l0,0
	c0.95-0.57,1.86-1.17,2.78-1.77c7.107-4.791,13.293-10.824,18.26-17.81l1.74-2.63c0.173-0.267,0.333-0.547,0.48-0.84
	C491.88,205.32,500.78,187.94,492.57,170.28z"/>
</svg>
