<?xml version="1.0" encoding="iso-8859-1"?>
<!-- Generator: Adobe Illustrator 24.3.0, SVG Export Plug-In . SVG Version: 6.00 Build 0)  -->
<svg version="1.1" id="Layer_1" xmlns="http://www.w3.org/2000/svg" xmlns:xlink="http://www.w3.org/1999/xlink" x="0px" y="0px"
	 viewBox="0 0 512 512" style="enable-background:new 0 0 512 512;" xml:space="preserve">
<path d="M448,464c-8.837,0-16-7.163-16-16V240c0-8.836,7.163-16,16-16s16,7.164,16,16V448C464,456.837,456.837,464,448,464z"/>
<path d="M64,464c-8.836,0-16-7.163-16-16V240c0-8.836,7.164-16,16-16s16,7.164,16,16V448C80,456.837,72.836,464,64,464z"/>
<path d="M428.51,258h-1.95c-22.968,0-43.488-10.008-56.851-25.611C356.345,247.992,335.821,258,312.85,258
	c-19.06,0-37.23-7.224-51.166-20.339c-1.904-1.793-3.697-3.671-5.372-5.624C242.967,247.843,222.327,258,199.2,258
	c-19.06,0-37.232-7.223-51.17-20.338c-2.021-1.902-3.917-3.902-5.68-5.983c-1.768,2.089-3.669,4.095-5.698,6.004
	C122.723,250.785,104.554,258,85.49,258h-2c-0.163,0-0.327-0.003-0.49-0.008c-23.839-0.73-45.294-12.809-57.391-32.31
	c-11.351-18.298-12.755-39.93-3.855-59.349l43.298-94.536C76.133,47.62,101.441,32,129.53,32h252.94
	c28.089,0,53.397,15.62,64.476,39.794l43.302,94.543c8.895,19.394,7.495,41.014-3.843,59.308
	c-12.093,19.512-33.549,31.605-57.396,32.348C428.842,257.997,428.676,258,428.51,258z M369.71,173.77c8.837,0,16,7.164,16,16
	c0,19.977,18.325,36.23,40.85,36.23h1.682c13.009-0.476,24.571-6.898,30.964-17.212c5.59-9.021,6.302-19.633,1.952-29.118
	l-43.304-94.547C411.974,72.292,398.084,64,382.47,64H129.53c-15.614,0-29.503,8.292-35.384,21.126l-43.299,94.537
	c-4.355,9.503-3.642,20.127,1.956,29.152C59.195,219.12,70.754,225.533,83.755,226h1.735c19.283,0,40.85-15.494,40.85-36.23
	c0-8.836,7.164-16,16-16s16,7.164,16,16c0,20.736,21.572,36.23,40.86,36.23c22.497,0,40.8-16.253,40.8-36.23c0-8.836,7.164-16,16-16
	c8.837,0,16,7.164,16,16c0,20.736,21.566,36.23,40.85,36.23c22.53,0,40.86-16.253,40.86-36.23
	C353.71,180.934,360.873,173.77,369.71,173.77z"/>
<path d="M480,480H32c-8.836,0-16-7.163-16-16s7.164-16,16-16h448c8.837,0,16,7.163,16,16S488.837,480,480,480z"/>
<path d="M240,416H112c-8.836,0-16-7.163-16-16v-88c0-22.056,17.944-40,40-40h80c22.056,0,40,17.944,40,40v88
	C256,408.837,248.836,416,240,416z M128,384h96v-72c0-4.411-3.589-8-8-8h-80c-4.411,0-8,3.589-8,8V384z"/>
<path d="M400,480c-8.837,0-16-7.163-16-16V312c0-4.411-3.589-8-8-8h-64c-4.411,0-8,3.589-8,8v152c0,8.837-7.163,16-16,16
	s-16-7.163-16-16V312c0-22.056,17.944-40,40-40h64c22.056,0,40,17.944,40,40v152C416,472.837,408.837,480,400,480z"/>
</svg>
