<?xml version="1.0" encoding="iso-8859-1"?>
<!-- Generator: Adobe Illustrator 24.3.0, SVG Export Plug-In . SVG Version: 6.00 Build 0)  -->
<svg version="1.1" id="Layer_1" xmlns="http://www.w3.org/2000/svg" xmlns:xlink="http://www.w3.org/1999/xlink" x="0px" y="0px"
	 viewBox="0 0 512 512" style="enable-background:new 0 0 512 512;" xml:space="preserve">
<path d="M464,448V267.85c-10.751,4.017-22.088,6.24-33.56,6.58c-1.18,0-2.3,0.05-3.4,0.05c-20.072,0.054-39.762-5.487-56.86-16
	c-17.095,10.512-36.781,16.052-56.85,16c-19.986,0.027-39.574-5.588-56.51-16.2c-17.172,10.653-36.992,16.266-57.2,16.2
	c-20.123,0.027-39.84-5.668-56.85-16.42c-17.01,10.752-36.727,16.447-56.85,16.42c-1.09,0-2.19,0-3.37-0.05h-0.06
	c-11.806-0.351-23.467-2.697-34.49-6.94V448H16v32h480v-32H464z M224,384h-96v-76c0-2.209,1.791-4,4-4h88c2.209,0,4,1.791,4,4V384z
	 M384,448h-80V308c0-2.209,1.791-4,4-4h72c2.209,0,4,1.791,4,4V448z"/>
<path d="M492.57,170.28L445.89,64C432,32,432,32,400,32H112c-32,0-32,0-45.94,32L19.38,170.28c-9,19.41,2.89,39.34,2.9,39.35
	l0.41,0.66c0.42,0.66,1.13,1.75,1.62,2.37c0.1,0.13,0.19,0.27,0.28,0.4l5.24,6.39l5.31,5.14l0.42,0.36
	c2.952,2.519,6.11,4.787,9.44,6.78v0.05c10.883,6.593,23.282,10.268,36,10.67c0.82,0,1.64,0,2.47,0
	c19.243,0.036,37.784-7.221,51.89-20.31c2.037-1.888,3.963-3.891,5.77-6c1.813,2.107,3.742,4.11,5.78,6
	c14.106,13.089,32.647,20.346,51.89,20.31c23.28,0,44.07-10,57.63-25.56c0.042-0.039,0.108-0.039,0.15,0l5.66,5.26
	c14.109,13.09,32.654,20.347,51.9,20.31c23.29,0,44.11-10,57.66-25.61c13.56,15.61,34.37,25.61,57.67,25.61h2.49
	c12.399-0.463,24.462-4.151,35-10.7l0,0c0.95-0.57,1.86-1.17,2.78-1.77c7.108-4.794,13.294-10.831,18.26-17.82l2-3
	C490.9,207.13,501.21,188.87,492.57,170.28z"/>
</svg>
