<?xml version="1.0" encoding="iso-8859-1"?>
<!-- Generator: Adobe Illustrator 24.3.0, SVG Export Plug-In . SVG Version: 6.00 Build 0)  -->
<svg version="1.1" id="Layer_1" xmlns="http://www.w3.org/2000/svg" xmlns:xlink="http://www.w3.org/1999/xlink" x="0px" y="0px"
	 viewBox="0 0 512 512" style="enable-background:new 0 0 512 512;" xml:space="preserve">
<path d="M352,400H160c-35.29,0-64-28.71-64-64V80c0-35.29,28.71-64,64-64h192c35.29,0,64,28.71,64,64v256
	C416,371.29,387.29,400,352,400z M160,48c-17.645,0-32,14.355-32,32v256c0,17.645,14.355,32,32,32h192c17.645,0,32-14.355,32-32V80
	c0-17.645-14.355-32-32-32H160z"/>
<path d="M304,96h-96c-8.836,0-16-7.164-16-16s7.164-16,16-16h96c8.837,0,16,7.164,16,16S312.837,96,304,96z"/>
<path d="M368,240H144c-26.467,0-48-21.533-48-48v-32c0-26.467,21.533-48,48-48h224c26.468,0,48,21.533,48,48v32
	C416,218.467,394.468,240,368,240z M144,144c-8.822,0-16,7.178-16,16v32c0,8.822,7.178,16,16,16h224c8.822,0,16-7.178,16-16v-32
	c0-8.822-7.178-16-16-16H144z"/>
<path d="M176,352c-17.645,0-32-14.355-32-32s14.355-32,32-32s32,14.355,32,32S193.645,352,176,352z M176,320
	c-0.014,0-0.02,0.001-0.02,0.001L176,320z"/>
<path d="M336,352c-17.645,0-32-14.355-32-32s14.355-32,32-32s32,14.355,32,32S353.645,352,336,352z M336,320
	c-0.014,0-0.021,0.001-0.021,0.001L336,320z"/>
<path d="M368,480H144c-8.836,0-16-7.163-16-16s7.164-16,16-16h224c8.837,0,16,7.163,16,16S376.837,480,368,480z"/>
<path d="M384,496c-4.095,0-8.189-1.562-11.313-4.687l-48-48c-6.249-6.248-6.249-16.379,0-22.627c6.248-6.248,16.379-6.248,22.627,0
	l48,48c6.249,6.248,6.249,16.379,0,22.627C392.189,494.438,388.095,496,384,496z"/>
<path d="M128,496c-4.095,0-8.189-1.562-11.313-4.687c-6.249-6.248-6.249-16.379,0-22.627l48-48c6.248-6.248,16.379-6.248,22.627,0
	c6.249,6.248,6.249,16.379,0,22.627l-48,48C136.189,494.438,132.095,496,128,496z"/>
</svg>
