<?xml version="1.0" encoding="iso-8859-1"?>
<!-- Generator: Adobe Illustrator 24.3.0, SVG Export Plug-In . SVG Version: 6.00 Build 0)  -->
<svg version="1.1" id="Layer_1" xmlns="http://www.w3.org/2000/svg" xmlns:xlink="http://www.w3.org/1999/xlink" x="0px" y="0px"
	 viewBox="0 0 512 512" style="enable-background:new 0 0 512 512;" xml:space="preserve">
<path d="M392,16H120c-13.255,0-24,10.745-24,24v336c0,13.255,10.745,24,24,24h272c13.255,0,24-10.745,24-24V40
	C416,26.745,405.255,16,392,16z M208,64h95.55c8.61,0,16,6.62,16.43,15.23c0.425,8.826-6.385,16.326-15.211,16.751
	C304.513,95.994,304.256,96,304,96h-95.55c-8.61,0-16-6.62-16.43-15.23c-0.425-8.826,6.385-16.326,15.211-16.751
	C207.487,64.006,207.744,64,208,64z M179.47,351.82c-17.569,1.912-33.362-10.781-35.274-28.35s10.781-33.362,28.35-35.274
	c17.569-1.912,33.362,10.781,35.274,28.35c0.25,2.301,0.25,4.623,0,6.924C206.195,338.403,194.402,350.195,179.47,351.82z
	 M339.47,351.82c-17.569,1.912-33.362-10.781-35.274-28.35c-1.912-17.569,10.781-33.362,28.35-35.274
	c17.569-1.912,33.362,10.781,35.274,28.35c0.25,2.301,0.25,4.623,0,6.924C366.195,338.403,354.402,350.195,339.47,351.82z M384,144
	v64H128v-64H384z"/>
<polygon points="298,416 329.37,448 182.63,448 214,416 170,416 89.43,496 134.63,496 150.63,480 361.37,480 377.37,496 422.67,496 
	343,416 "/>
</svg>
