<?xml version="1.0" encoding="iso-8859-1"?>
<!-- Generator: Adobe Illustrator 24.3.0, SVG Export Plug-In . SVG Version: 6.00 Build 0)  -->
<svg version="1.1" id="Layer_1" xmlns="http://www.w3.org/2000/svg" xmlns:xlink="http://www.w3.org/1999/xlink" x="0px" y="0px"
	 viewBox="0 0 512 512" style="enable-background:new 0 0 512 512;" xml:space="preserve">
<path d="M352,16H160c-35.33,0.039-63.961,28.67-64,64v256c0.039,35.33,28.67,63.961,64,64h192c35.33-0.039,63.961-28.67,64-64V80
	C415.961,44.67,387.33,16.039,352,16z M208,64h96c8.837,0,16,7.163,16,16s-7.163,16-16,16h-96c-8.837,0-16-7.163-16-16
	S199.163,64,208,64z M176,352c-17.673,0-32-14.327-32-32s14.327-32,32-32s32,14.327,32,32S193.673,352,176,352z M336,352
	c-17.673,0-32-14.327-32-32s14.327-32,32-32s32,14.327,32,32S353.673,352,336,352z M384,192c0,8.837-7.163,16-16,16H144
	c-8.837,0-16-7.163-16-16v-32c0-8.837,7.163-16,16-16h224c8.837,0,16,7.163,16,16V192z"/>
<path d="M347.31,420.69c-6.406-6.086-16.534-5.827-22.62,0.579c-5.867,6.176-5.867,15.865,0,22.04l4.68,4.69H182.63l4.68-4.69
	c6.086-6.406,5.827-16.534-0.579-22.62c-6.176-5.867-15.865-5.867-22.04,0l-48,48c-6.406,6.086-6.666,16.214-0.579,22.62
	c6.086,6.406,16.214,6.666,22.62,0.579c0.198-0.188,0.391-0.381,0.579-0.579L150.63,480h210.74l11.32,11.31
	c6.406,6.086,16.534,5.827,22.62-0.579c5.867-6.176,5.867-15.865,0-22.04L347.31,420.69z"/>
</svg>
