<?xml version="1.0" encoding="iso-8859-1"?>
<!-- Generator: Adobe Illustrator 24.3.0, SVG Export Plug-In . SVG Version: 6.00 Build 0)  -->
<svg version="1.1" id="Layer_1" xmlns="http://www.w3.org/2000/svg" xmlns:xlink="http://www.w3.org/1999/xlink" x="0px" y="0px"
	 viewBox="0 0 512 512" style="enable-background:new 0 0 512 512;" xml:space="preserve">
<path d="M256,118c-12.15,0-22-9.85-22-22V48c0-12.15,9.85-22,22-22s22,9.85,22,22v48C278,108.15,268.15,118,256,118z"/>
<path d="M256,486c-12.15,0-22-9.85-22-22v-48c0-12.15,9.85-22,22-22s22,9.85,22,22v48C278,476.15,268.15,486,256,486z"/>
<path d="M369.14,164.86c-12.15-0.001-21.999-9.852-21.997-22.003c0.001-5.831,2.316-11.423,6.437-15.547l33.94-33.94
	c8.704-8.477,22.633-8.294,31.11,0.41c8.32,8.542,8.32,22.158,0,30.7l-33.94,33.94C380.57,162.549,374.974,164.867,369.14,164.86z"
	/>
<path d="M108.92,425.08c-12.15-0.001-21.999-9.852-21.997-22.003c0.001-5.836,2.32-11.432,6.447-15.557l33.94-33.94
	c8.478-8.704,22.406-8.887,31.11-0.409c8.704,8.478,8.887,22.406,0.409,31.11c-0.135,0.138-0.271,0.275-0.409,0.409l-33.94,33.94
	C120.358,422.765,114.758,425.086,108.92,425.08z"/>
<path d="M464,278h-48c-12.15,0-22-9.85-22-22c0-12.15,9.85-22,22-22h48c12.15,0,22,9.85,22,22C486,268.15,476.15,278,464,278z"/>
<path d="M96,278H48c-12.15,0-22-9.85-22-22c0-12.15,9.85-22,22-22h48c12.15,0,22,9.85,22,22C118,268.15,108.15,278,96,278z"/>
<path d="M403.08,425.08c-5.838,0.006-11.438-2.315-15.56-6.45l-33.94-33.94c-8.478-8.704-8.295-22.632,0.409-31.11
	c8.542-8.321,22.159-8.321,30.701,0l33.94,33.94c8.594,8.59,8.597,22.519,0.007,31.113
	C414.512,422.76,408.916,425.079,403.08,425.08L403.08,425.08z"/>
<path d="M142.86,164.86c-5.834,0.011-11.432-2.307-15.55-6.44l-33.94-33.94c-8.478-8.704-8.294-22.632,0.41-31.11
	c8.542-8.32,22.158-8.32,30.7,0l33.94,33.94c8.588,8.595,8.582,22.525-0.013,31.113C154.283,162.544,148.691,164.859,142.86,164.86z
	"/>
<path d="M256,358c-56.333,0-102-45.667-102-102s45.667-102,102-102s102,45.667,102,102C357.934,312.306,312.306,357.934,256,358z"/>
</svg>
