<?xml version="1.0" encoding="iso-8859-1"?>
<!-- Generator: Adobe Illustrator 24.3.0, SVG Export Plug-In . SVG Version: 6.00 Build 0)  -->
<svg version="1.1" id="Layer_1" xmlns="http://www.w3.org/2000/svg" xmlns:xlink="http://www.w3.org/1999/xlink" x="0px" y="0px"
	 viewBox="0 0 512 512" style="enable-background:new 0 0 512 512;" xml:space="preserve">
<path d="M256,112c-8.836,0-16-7.164-16-16V48c0-8.836,7.164-16,16-16c8.837,0,16,7.164,16,16v48C272,104.836,264.837,112,256,112z"
	/>
<path d="M256,480c-8.836,0-16-7.163-16-16v-48c0-8.837,7.164-16,16-16c8.837,0,16,7.163,16,16v48C272,472.837,264.837,480,256,480z"
	/>
<path d="M369.14,158.86c-4.095,0-8.189-1.562-11.313-4.687c-6.249-6.248-6.249-16.379,0-22.627l33.94-33.94
	c6.248-6.249,16.379-6.249,22.627,0c6.249,6.248,6.249,16.379,0,22.627l-33.94,33.94C377.329,157.298,373.234,158.86,369.14,158.86z
	"/>
<path d="M108.92,419.081c-4.095,0-8.189-1.562-11.313-4.687c-6.249-6.248-6.249-16.379,0-22.627l33.94-33.94
	c6.249-6.248,16.379-6.248,22.627,0c6.249,6.248,6.249,16.379,0,22.627l-33.94,33.94
	C117.109,417.518,113.015,419.081,108.92,419.081z"/>
<path d="M464,272h-48c-8.837,0-16-7.164-16-16.001c0-8.836,7.163-16,16-16h48c8.837,0,16,7.164,16,16
	C480,264.836,472.837,272,464,272z"/>
<path d="M96,272H48c-8.836,0-16-7.164-16-16.001c0-8.836,7.164-16,16-16h48c8.836,0,16,7.164,16,16C112,264.836,104.836,272,96,272z
	"/>
<path d="M403.08,419.081c-4.095,0-8.189-1.562-11.313-4.687l-33.94-33.94c-6.249-6.248-6.249-16.379,0-22.627
	c6.248-6.248,16.379-6.248,22.627,0l33.94,33.94c6.249,6.248,6.249,16.379,0,22.627C411.27,417.518,407.175,419.081,403.08,419.081z
	"/>
<path d="M142.86,158.86c-4.095,0-8.189-1.562-11.314-4.687l-33.94-33.94c-6.248-6.248-6.248-16.379,0-22.627
	c6.248-6.248,16.379-6.249,22.627,0l33.94,33.94c6.248,6.248,6.248,16.379,0,22.627C151.05,157.298,146.954,158.86,142.86,158.86z"
	/>
<path d="M256,352c-52.935,0-96-43.065-96-96.001c0-52.935,43.065-96,96-96s96,43.065,96,96C352,308.935,308.935,352,256,352z
	 M256,192c-35.29,0-64,28.71-64,64S220.71,320,256,320c35.29,0,64-28.711,64-64.001S291.29,192,256,192z"/>
</svg>
