<?xml version="1.0" encoding="iso-8859-1"?>
<!-- Generator: Adobe Illustrator 24.3.0, SVG Export Plug-In . SVG Version: 6.00 Build 0)  -->
<svg version="1.1" id="Layer_1" xmlns="http://www.w3.org/2000/svg" xmlns:xlink="http://www.w3.org/1999/xlink" x="0px" y="0px"
	 viewBox="0 0 512 512" style="enable-background:new 0 0 512 512;" xml:space="preserve">
<rect x="234" y="26" width="44" height="92"/>
<rect x="234" y="394" width="44" height="92"/>
<rect x="340.109" y="103.887" transform="matrix(0.7071 -0.7071 0.7071 0.7071 24.0732 309.8914)" width="92" height="44"/>
<rect x="79.899" y="364.103" transform="matrix(0.7071 -0.7071 0.7071 0.7071 -236.1414 202.1109)" width="92" height="44"/>
<rect x="394" y="234" width="92" height="44"/>
<rect x="26" y="234" width="92" height="44"/>
<rect x="364.112" y="340.11" transform="matrix(0.7071 -0.7071 0.7071 0.7071 -159.9314 386.1114)" width="44" height="92"/>
<rect x="103.885" y="79.89" transform="matrix(0.7071 -0.7071 0.7071 0.7071 -52.1467 125.8867)" width="44" height="92"/>
<path d="M256,358c-56.333,0-102-45.667-102-102s45.667-102,102-102s102,45.667,102,102C357.934,312.306,312.306,357.934,256,358z"/>
</svg>
