<svg width="150" height="150" viewBox="0 0 150 150"  xmlns="http://www.w3.org/2000/svg">
<circle cx="75" cy="75" r="75" fill="white"/>
<path d="M83.875 104.113C83.875 104.113 81.5312 104.969 74.5 104.969C67.4688 104.969 63.6602 102.625 60.4375 100.281H51.0625C48.5761 100.281 46.1915 99.2935 44.4334 97.5354C42.6752 95.7772 41.6875 93.3927 41.6875 90.9062V83.875C41.6875 81.3886 42.6752 79.004 44.4334 77.2459C46.1915 75.4877 48.5761 74.5 51.0625 74.5H55.457C56.2619 74.4956 57.0524 74.2861 57.7539 73.8914C58.4554 73.4967 59.0447 72.9298 59.4663 72.2441C59.4663 72.2441 60.7305 69.4917 64.5391 62.8955C68.3477 56.2993 75.6719 46.375 76.8438 44.0312C81.0918 44.0312 83.1426 47.2539 81.8242 51.02C80.3184 55.3252 78.3511 58.9858 77.8018 63.7773C77.7227 64.4775 78.2617 65.5352 78.9663 65.5352L97.9375 67.0293" stroke="black" stroke-width="4" stroke-linecap="round" stroke-linejoin="round"/>
<path d="M97.9375 76.6973L86.2188 76.4043C83.2891 76.1348 81.5312 74.5879 81.5312 72.0098C81.5312 69.4316 83.582 67.7852 86.2188 67.6152L97.9375 67.0293C100.516 67.0293 102.625 69.4316 102.625 72.0098V72.0347C102.618 73.2735 102.122 74.4594 101.243 75.3331C100.365 76.2068 99.1764 76.6973 97.9375 76.6973Z" stroke="black" stroke-width="4" stroke-miterlimit="10"/>
<path d="M102.625 86.2188L86.2188 85.9258C83.582 85.8027 81.5312 84.1079 81.5312 81.5312C81.5312 78.9517 83.582 77.3037 86.2188 77.1367L102.625 76.8438C103.867 76.8476 105.057 77.3427 105.935 78.221C106.814 79.0992 107.309 80.2892 107.312 81.5312V81.5312C107.309 82.7733 106.814 83.9633 105.935 84.8415C105.057 85.7198 103.867 86.2149 102.625 86.2188V86.2188Z" stroke="black" stroke-width="4" stroke-miterlimit="10"/>
<path d="M95.5938 104.969L86.2188 104.529C83.1426 104.26 81.5312 102.859 81.5312 100.281C81.5312 97.7031 83.6406 95.8867 86.2188 95.8867L95.5938 95.5938C96.8359 95.5972 98.0261 96.0922 98.9045 96.9705C99.7828 97.8489 100.278 99.0391 100.281 100.281V100.281C100.278 101.523 99.7828 102.714 98.9045 103.592C98.0261 104.47 96.8359 104.965 95.5938 104.969V104.969Z" stroke="black" stroke-width="4" stroke-miterlimit="10"/>
<path d="M100.281 95.5938L86.2188 95.3008C83.4355 95.1777 81.5312 93.4844 81.5312 90.9062C81.5312 88.3281 83.4355 86.6816 86.2188 86.5117L100.281 86.2188C101.523 86.2222 102.714 86.7172 103.592 87.5955C104.47 88.4739 104.965 89.6641 104.969 90.9062V90.9062C104.965 92.1484 104.47 93.3386 103.592 94.217C102.714 95.0953 101.523 95.5903 100.281 95.5938Z" stroke="black" stroke-width="4" stroke-miterlimit="10"/>
</svg>
