<?xml version="1.0" encoding="iso-8859-1"?>
<!-- Generator: Adobe Illustrator 24.3.0, SVG Export Plug-In . SVG Version: 6.00 Build 0)  -->
<svg version="1.1" id="Layer_1" xmlns="http://www.w3.org/2000/svg" xmlns:xlink="http://www.w3.org/1999/xlink" x="0px" y="0px"
	 viewBox="0 0 512 512" style="enable-background:new 0 0 512 512;" xml:space="preserve">
<path d="M304,288c-4.095,0-8.189-1.562-11.313-4.687c-6.249-6.248-6.249-16.379,0-22.627L393.373,160L292.687,59.313
	c-6.249-6.248-6.249-16.379,0-22.627c6.248-6.249,16.379-6.249,22.627,0l112,112c6.249,6.248,6.249,16.379,0,22.627l-112,112.001
	C312.189,286.438,308.095,288,304,288z"/>
<path d="M398.87,176H96c-8.836,0-16-7.164-16-16s7.164-16,16-16h302.87c8.837,0,16,7.164,16,16S407.707,176,398.87,176z"/>
<path d="M208,480c-4.095,0-8.189-1.562-11.314-4.687l-112-112c-6.248-6.248-6.248-16.379,0-22.627l112-112.001
	c6.249-6.249,16.379-6.249,22.627,0c6.249,6.249,6.249,16.379,0,22.627L118.627,352l100.687,100.687
	c6.248,6.248,6.248,16.379,0,22.627C216.189,478.438,212.095,480,208,480z"/>
<path d="M416,368H114c-8.836,0-16-7.163-16-16s7.164-16,16-16h302c8.837,0,16,7.163,16,16S424.837,368,416,368z"/>
</svg>
