<?xml version="1.0" encoding="iso-8859-1"?>
<!-- Generator: Adobe Illustrator 24.3.0, SVG Export Plug-In . SVG Version: 6.00 Build 0)  -->
<svg version="1.1" id="Layer_1" xmlns="http://www.w3.org/2000/svg" xmlns:xlink="http://www.w3.org/1999/xlink" x="0px" y="0px"
	 viewBox="0 0 512 512" style="enable-background:new 0 0 512 512;" xml:space="preserve">
<path d="M464,224c-4.095,0-8.189-1.562-11.313-4.686L352,118.627L251.314,219.314c-6.249,6.248-16.379,6.248-22.628,0
	c-6.248-6.249-6.248-16.379,0-22.628l112-112c6.248-6.248,16.379-6.248,22.627,0l112,112c6.249,6.249,6.249,16.379,0,22.628
	C472.189,222.438,468.095,224,464,224z"/>
<path d="M352,432c-8.837,0-16-7.163-16-16V113.13c0-8.836,7.163-16,16-16s16,7.164,16,16V416C368,424.837,360.837,432,352,432z"/>
<path d="M160,432c-4.095,0-8.189-1.562-11.314-4.687l-112-112c-6.248-6.248-6.248-16.379,0-22.627
	c6.249-6.248,16.379-6.248,22.628,0L160,393.372l100.687-100.686c6.248-6.248,16.379-6.248,22.627,0
	c6.249,6.248,6.249,16.379,0,22.627l-112,112C168.189,430.438,164.095,432,160,432z"/>
<path d="M160,414c-8.836,0-16-7.163-16-16V96c0-8.836,7.164-16,16-16s16,7.164,16,16v302C176,406.837,168.836,414,160,414z"/>
</svg>
