<?xml version="1.0" encoding="iso-8859-1"?>
<!-- Generator: Adobe Illustrator 24.3.0, SVG Export Plug-In . SVG Version: 6.00 Build 0)  -->
<svg version="1.1" id="Layer_1" xmlns="http://www.w3.org/2000/svg" xmlns:xlink="http://www.w3.org/1999/xlink" x="0px" y="0px"
	 viewBox="0 0 512 512" style="enable-background:new 0 0 512 512;" xml:space="preserve">
<path d="M256.023,451c-52.176,0-101.195-20.253-138.05-57.029C81.104,357.182,60.8,308.24,60.8,256.16v-29.8c0-8.836,7.164-16,16-16
	s16,7.164,16,16v29.8c0,43.519,16.967,84.417,47.776,115.16C171.391,402.067,212.382,419,256,419
	c49.748-0.072,96.251-22.301,127.563-60.986c5.56-6.869,15.634-7.931,22.503-2.37c6.868,5.56,7.93,15.635,2.37,22.503
	C371.031,424.36,315.479,450.914,256.023,451z M434.67,301.59c-8.837,0-16-7.163-16-16v-29.8c0-89.763-73.211-162.79-163.2-162.79
	c-0.067,0-0.138,0-0.205,0c-49.892,0-96.319,22.349-127.429,61.339c-5.511,6.907-15.579,8.04-22.486,2.528
	c-6.907-5.511-8.039-15.579-2.528-22.486c18.181-22.786,41.677-41.505,67.95-54.133C196.975,67.654,226.184,61,255.256,61
	c0.078,0,0.155,0,0.233,0c107.614,0,195.18,87.382,195.18,194.79v29.8C450.67,294.427,443.507,301.59,434.67,301.59z"/>
<path d="M121.998,272c-3.976,0-7.957-1.473-11.057-4.438l-34.692-33.183l-32.935,32.935c-6.248,6.248-16.379,6.248-22.627,0
	c-6.249-6.249-6.249-16.379,0-22.627l44-44c6.15-6.152,16.087-6.261,22.373-0.249l46,44c6.386,6.108,6.611,16.237,0.503,22.622
	C130.419,270.345,126.212,271.999,121.998,272z"/>
<path d="M435.999,316c-3.98,0-7.962-1.476-11.059-4.438l-46-44.001c-6.386-6.107-6.61-16.236-0.503-22.622
	c6.107-6.386,16.237-6.611,22.622-0.502l34.691,33.184l32.936-32.935c6.248-6.249,16.379-6.249,22.627,0
	c6.249,6.249,6.249,16.379,0,22.628l-44,44C444.193,314.434,440.098,316,435.999,316z"/>
</svg>
