<?xml version="1.0" encoding="iso-8859-1"?>
<!-- Generator: Adobe Illustrator 24.3.0, SVG Export Plug-In . SVG Version: 6.00 Build 0)  -->
<svg version="1.1" id="Layer_1" xmlns="http://www.w3.org/2000/svg" xmlns:xlink="http://www.w3.org/1999/xlink" x="0px" y="0px"
	 viewBox="0 0 512 512" style="enable-background:new 0 0 512 512;" xml:space="preserve">
<path d="M256.023,451c-52.176,0-101.195-20.253-138.05-57.029C81.104,357.182,60.8,308.24,60.8,256.16v-45.8h32v45.8
	c0,43.519,16.967,84.417,47.776,115.16C171.391,402.067,212.382,419,256,419c49.748-0.072,96.251-22.301,127.563-60.986
	l10.066-12.437l24.873,20.133l-10.066,12.437C371.031,424.36,315.479,450.914,256.023,451z M450.67,301.59h-32v-45.8
	c0-89.763-73.211-162.79-163.2-162.79c-0.067,0-0.138,0-0.205,0c-49.892,0-96.319,22.349-127.429,61.339l-9.979,12.507
	l-25.014-19.958l9.979-12.507c18.181-22.786,41.677-41.505,67.95-54.133C196.975,67.654,226.184,61,255.256,61
	c0.078,0,0.155,0,0.233,0c107.614,0,195.18,87.382,195.18,194.79V301.59z"/>
<polygon points="32,278.627 9.373,256 75.751,189.621 144.622,255.497 122.503,278.622 76.249,234.379 "/>
<polygon points="436.249,322.379 367.378,256.502 389.497,233.378 435.751,277.622 480,233.372 502.627,256 "/>
</svg>
