<?xml version="1.0" encoding="iso-8859-1"?>
<!-- Generator: Adobe Illustrator 24.3.0, SVG Export Plug-In . SVG Version: 6.00 Build 0)  -->
<svg version="1.1" id="Layer_1" xmlns="http://www.w3.org/2000/svg" xmlns:xlink="http://www.w3.org/1999/xlink" x="0px" y="0px"
	 viewBox="0 0 512 512" style="enable-background:new 0 0 512 512;" xml:space="preserve">
<path d="M256,48C141.13,48,48,141.13,48,256s93.13,208,208,208s208-93.13,208-208S370.87,48,256,48z M256,368
	c-56.545-0.024-104.234-42.125-111.27-98.23l-8.86,8.86L113.24,256l46-46l47.55,45.48l-22.12,23.12l-7.2-6.88
	c8.835,43.437,51.21,71.487,94.647,62.652c16.938-3.445,32.312-12.267,43.833-25.152l23.77,21.41
	C318.361,354.375,287.938,367.955,256,368z M352.79,302l-47.55-45.5l22.12-23.12l6.86,6.55
	c-8.989-43.372-51.435-71.244-94.807-62.255c-16.765,3.475-31.978,12.223-43.413,24.965l-23.82-21.37
	c41.385-46.106,112.311-49.932,158.416-8.547c20.161,18.097,33.092,42.878,36.404,69.767l9.11-9.12L398.76,256L352.79,302z"/>
</svg>
