<?xml version="1.0" encoding="iso-8859-1"?>
<!-- Generator: Adobe Illustrator 24.3.0, SVG Export Plug-In . SVG Version: 6.00 Build 0)  -->
<svg version="1.1" id="Layer_1" xmlns="http://www.w3.org/2000/svg" xmlns:xlink="http://www.w3.org/1999/xlink" x="0px" y="0px"
	 viewBox="0 0 512 512" style="enable-background:new 0 0 512 512;" xml:space="preserve">
<path d="M256,464C141.309,464,48,370.692,48,256c0-114.691,93.309-208,208-208s208,93.309,208,208C464,370.692,370.691,464,256,464z
	 M256,80c-97.047,0-176,78.953-176,176C80,353.047,158.953,432,256,432S432,353.047,432,256C432,158.953,353.047,80,256,80z"/>
<path d="M256.099,368.054c-29.826,0-57.888-11.564-79.063-32.592c-21.27-21.121-33.041-49.262-33.146-79.237V240.17
	c0-8.836,7.164-16,16-16s16,7.164,16,16v16c0.075,21.372,8.489,41.488,23.694,56.586c15.135,15.029,35.198,23.297,56.518,23.298
	c0.097,0,0.191-0.001,0.288-0.001c22.684-0.079,44.37-9.819,59.497-26.723c5.894-6.584,16.008-7.145,22.593-1.253
	c6.585,5.893,7.146,16.008,1.253,22.593c-21.161,23.646-51.498,37.271-83.23,37.383
	C256.368,368.053,256.232,368.054,256.099,368.054z M351.82,287.87c-8.837,0-16-7.163-16-16v-16
	c-0.072-21.354-8.478-41.454-23.667-56.541c-15.189-15.087-35.334-23.402-56.754-23.283c-22.636,0.077-44.286,9.786-59.398,26.637
	c-5.9,6.579-16.016,7.128-22.594,1.229c-6.579-5.9-7.129-16.016-1.229-22.594c21.146-23.579,51.44-37.164,83.113-37.271
	c0.13,0,0.261,0,0.39,0c29.811,0,57.861,11.561,79.023,32.58c21.254,21.11,33.015,49.234,33.116,79.19v16.054
	C367.82,280.706,360.657,287.87,351.82,287.87z"/>
<path d="M184.127,272c-3.976,0-7.958-1.473-11.058-4.438l-13.359-12.78l-12.524,12.529c-6.248,6.251-16.378,6.252-22.627,0.005
	c-6.25-6.247-6.252-16.377-0.005-22.627l23.59-23.6c6.149-6.152,16.09-6.264,22.376-0.25l24.67,23.6
	c6.385,6.108,6.61,16.237,0.501,22.622C192.549,270.345,188.341,271.999,184.127,272z"/>
<path d="M352.539,295.6c-3.98,0-7.963-1.476-11.06-4.438l-24.67-23.6c-6.385-6.108-6.609-16.237-0.501-22.622
	c6.108-6.387,16.235-6.61,22.622-0.501l13.359,12.78l12.523-12.529c6.249-6.25,16.379-6.252,22.628-0.005
	c6.249,6.247,6.252,16.377,0.005,22.627l-23.59,23.601C360.735,294.034,356.639,295.6,352.539,295.6z"/>
</svg>
