<?xml version="1.0" encoding="iso-8859-1"?>
<!-- Generator: Adobe Illustrator 24.3.0, SVG Export Plug-In . SVG Version: 6.00 Build 0)  -->
<svg version="1.1" id="Layer_1" xmlns="http://www.w3.org/2000/svg" xmlns:xlink="http://www.w3.org/1999/xlink" x="0px" y="0px"
	 viewBox="0 0 512 512" style="enable-background:new 0 0 512 512;" xml:space="preserve">
<path d="M256,48C141.13,48,48,141.13,48,256s93.13,208,208,208s208-93.13,208-208S370.87,48,256,48z M339.69,330.65
	c-41.369,46.165-112.329,50.053-158.494,8.684c-20.239-18.136-33.21-42.999-36.506-69.974c-7.369,4.876-17.296,2.855-22.173-4.514
	c-4.201-6.349-3.347-14.779,2.043-20.156l23.6-23.6c6.15-6.149,16.084-6.26,22.37-0.25l24.67,23.6
	c6.41,6.083,6.675,16.21,0.592,22.62c-4.799,5.057-12.32,6.424-18.592,3.38c8.098,43.575,49.987,72.334,93.562,64.236
	c17.448-3.243,33.328-12.177,45.158-25.406c6.071-6.421,16.198-6.704,22.619-0.633c6.202,5.864,6.709,15.565,1.151,22.043
	L339.69,330.65z M387.45,267.31l-23.6,23.6c-6.15,6.149-16.084,6.26-22.37,0.25l-24.67-23.6c-6.366-6.128-6.56-16.257-0.432-22.623
	c4.693-4.875,11.945-6.271,18.112-3.487c-8.128-43.524-50.001-72.218-93.525-64.09c-17.364,3.243-33.171,12.13-44.965,25.28
	c-5.901,6.578-16.017,7.126-22.595,1.225c-6.578-5.901-7.126-16.017-1.225-22.595c41.363-46.118,112.28-49.973,158.398-8.61
	c20.279,18.188,33.246,43.133,36.482,70.18c7.301-4.978,17.255-3.094,22.233,4.207C393.606,253.372,392.833,261.866,387.45,267.31z"
	/>
</svg>
