<?xml version="1.0" encoding="iso-8859-1"?>
<!-- Generator: Adobe Illustrator 24.3.0, SVG Export Plug-In . SVG Version: 6.00 Build 0)  -->
<svg version="1.1" id="Layer_1" xmlns="http://www.w3.org/2000/svg" xmlns:xlink="http://www.w3.org/1999/xlink" x="0px" y="0px"
	 viewBox="0 0 512 512" style="enable-background:new 0 0 512 512;" xml:space="preserve">
<path d="M384,512H128c-35.33-0.039-63.961-28.67-64-64V64c0.039-35.33,28.67-63.961,64-64h256c35.33,0.039,63.961,28.67,64,64v384
	C447.961,483.33,419.33,511.961,384,512z M128,32c-17.673,0-32,14.327-32,32v384c0,17.673,14.327,32,32,32h256
	c17.673,0,32-14.327,32-32V64c0-17.673-14.327-32-32-32H128z"/>
<path d="M384,0c35.33,0.039,63.961,28.67,64,64v384c-0.039,35.33-28.67,63.961-64,64H128c-35.33-0.039-63.961-28.67-64-64V64
	c0.039-35.33,28.67-63.961,64-64H384 M128,480h256c17.673,0,32-14.327,32-32V64c0-17.673-14.327-32-32-32H128
	c-17.673,0-32,14.327-32,32v384C96,465.673,110.327,480,128,480 M128,464c-8.837,0-16-7.163-16-16V64c0-8.837,7.163-16,16-16h256
	c8.837,0,16,7.163,16,16v384c0,8.837-7.163,16-16,16H128z"/>
</svg>
