<?xml version="1.0" encoding="iso-8859-1"?>
<!-- Generator: Adobe Illustrator 24.3.0, SVG Export Plug-In . SVG Version: 6.00 Build 0)  -->
<svg version="1.1" id="Layer_1" xmlns="http://www.w3.org/2000/svg" xmlns:xlink="http://www.w3.org/1999/xlink" x="0px" y="0px"
	 viewBox="0 0 512 512" style="enable-background:new 0 0 512 512;" xml:space="preserve">
<path d="M384,512H128c-35.29,0-64-28.71-64-64V64c0-35.29,28.71-64,64-64h256c35.29,0,64,28.71,64,64v384
	C448,483.29,419.29,512,384,512z M128,32c-17.645,0-32,14.355-32,32v384c0,17.645,14.355,32,32,32h256c17.645,0,32-14.355,32-32V64
	c0-17.645-14.355-32-32-32H128z"/>
</svg>
