<?xml version="1.0" encoding="iso-8859-1"?>
<!-- Generator: Adobe Illustrator 24.3.0, SVG Export Plug-In . SVG Version: 6.00 Build 0)  -->
<svg version="1.1" id="Layer_1" xmlns="http://www.w3.org/2000/svg" xmlns:xlink="http://www.w3.org/1999/xlink" x="0px" y="0px"
	 viewBox="0 0 512 512" style="enable-background:new 0 0 512 512;" xml:space="preserve">
<path d="M448,448H64c-35.29,0-64-28.71-64-64V128c0-35.29,28.71-64,64-64h384c35.29,0,64,28.71,64,64v256
	C512,419.29,483.29,448,448,448z M64,96c-17.645,0-32,14.355-32,32v256c0,17.645,14.355,32,32,32h384c17.645,0,32-14.355,32-32V128
	c0-17.645-14.355-32-32-32H64z"/>
</svg>
