<?xml version="1.0" encoding="iso-8859-1"?>
<!-- Generator: Adobe Illustrator 24.3.0, SVG Export Plug-In . SVG Version: 6.00 Build 0)  -->
<svg version="1.1" id="Layer_1" xmlns="http://www.w3.org/2000/svg" xmlns:xlink="http://www.w3.org/1999/xlink" x="0px" y="0px"
	 viewBox="0 0 512 512" style="enable-background:new 0 0 512 512;" xml:space="preserve">
<path d="M60.829,355.547c-13.843,0.001-27.328-7.166-34.743-19.967l-4.71-8.13c-11.033-19.097-4.494-43.584,14.563-54.632
	c0.023-0.014,0.047-0.027,0.071-0.041l86.87-50.07c7.36-4.267,15.983-5.417,24.243-3.219c8.26,2.198,15.17,7.481,19.456,14.876
	c0.017,0.028,0.056,0.098,0.073,0.126l12.672,21.935c8.817,15.288,3.559,34.892-11.714,43.71l-86.859,50.075
	C74.473,353.828,67.607,355.546,60.829,355.547z M52.035,300.476c-0.012,0.007-0.024,0.014-0.036,0.021
	c-3.819,2.206-5.131,7.109-2.925,10.929l4.7,8.113c0,0.001,0.001,0.001,0.001,0.002c2.223,3.837,7.156,5.157,10.997,2.944
	l86.846-50.067l-12.713-21.984c-0.002-0.003-0.004-0.006-0.006-0.011L52.035,300.476z"/>
<path d="M191.549,301.734c-13.808,0.001-27.268-7.147-34.681-19.938c-0.015-0.026-0.031-0.054-0.046-0.081l-23.55-40.703
	c-5.349-9.274-6.763-20.055-3.993-30.374c2.77-10.319,9.393-18.941,18.648-24.279l124.462-71.751
	c7.363-4.268,15.985-5.417,24.244-3.22c8.261,2.198,15.171,7.481,19.456,14.877c0.017,0.028,0.057,0.098,0.072,0.126l31.529,54.518
	c8.811,15.272,3.57,34.868-11.671,43.696l-124.521,71.758C205.218,300.003,198.34,301.734,191.549,301.734z M184.559,265.759
	c2.215,3.809,7.115,5.11,10.927,2.898l124.525-71.76l-31.593-54.557c-0.003-0.004-0.006-0.01-0.01-0.017l-124.498,71.758
	c-3.819,2.203-5.135,7.104-2.931,10.925l23.549,40.701C184.539,265.725,184.549,265.742,184.559,265.759z"/>
<path d="M362.75,230.204c-13.845,0-27.332-7.169-34.747-19.978c-0.002-0.002-0.003-0.004-0.004-0.007l-46.51-80.429
	c-11.027-19.123-4.448-43.631,14.656-54.65l93.293-53.782c19.093-11.002,43.618-4.447,54.672,14.615l46.521,80.447
	c11.007,19.07,4.491,43.513-14.511,54.575c-0.05,0.029-0.099,0.058-0.148,0.087l-93.29,53.78
	C376.4,228.482,369.532,230.204,362.75,230.204z M355.696,194.194c2.224,3.841,7.158,5.159,11.003,2.945l93.184-53.719
	c0.037-0.021,0.073-0.042,0.11-0.064c3.82-2.205,5.135-7.107,2.93-10.928L416.419,52.01c-2.217-3.822-7.156-5.141-11.001-2.926
	l-93.287,53.778c-3.818,2.202-5.134,7.104-2.931,10.926L355.696,194.194z"/>
<path d="M127.58,496.004c-2.247,0-4.529-0.476-6.703-1.48c-8.021-3.708-11.518-13.216-7.81-21.236l96.14-207.99
	c3.707-8.021,13.215-11.519,21.237-7.811c8.021,3.708,11.518,13.216,7.81,21.236l-96.14,207.99
	C139.411,492.561,133.625,496.004,127.58,496.004z"/>
<path d="M368.562,464.004c-5.852,0-11.488-3.222-14.301-8.804l-96.75-191.98c-3.977-7.891-0.804-17.512,7.088-21.488
	c7.89-3.977,17.512-0.803,21.488,7.087l96.75,191.981c3.977,7.891,0.804,17.512-7.088,21.488
	C373.441,463.453,370.983,464.004,368.562,464.004z"/>
</svg>
