<?xml version="1.0" encoding="iso-8859-1"?>
<!-- Generator: Adobe Illustrator 24.3.0, SVG Export Plug-In . SVG Version: 6.00 Build 0)  -->
<svg version="1.1" id="Layer_1" xmlns="http://www.w3.org/2000/svg" xmlns:xlink="http://www.w3.org/1999/xlink" x="0px" y="0px"
	 viewBox="0 0 512 512" style="enable-background:new 0 0 512 512;" xml:space="preserve">
<path d="M107.56,250c-4.417-7.65-14.198-10.273-21.85-5.86L36,272.81c-9.404,5.39-16.195,14.389-18.8,24.91
	c-2.48,10.324-0.849,21.207,4.55,30.35l4.36,7.54c11.052,19.111,35.498,25.655,54.62,14.62l49.67-28.63
	c7.656-4.412,10.287-14.195,5.875-21.851c-0.002-0.003-0.003-0.006-0.005-0.009L107.56,250z"/>
<path d="M382.84,440.8L288.72,254c-0.475-0.947-0.129-2.101,0.79-2.63l8.3-4.79c7.654-4.416,10.279-14.201,5.863-21.855
	c-0.001-0.002-0.002-0.004-0.003-0.005l-47.53-82.33c-4.412-7.656-14.195-10.287-21.851-5.875c-0.003,0.002-0.006,0.003-0.009,0.005
	l-86.38,49.8c-9.211,5.277-15.927,14.02-18.65,24.28c-0.917,3.172-1.378,6.458-1.37,9.76c0.06,7.6,9.2,22.7,18.12,38.28
	c9.59,16.75,19.24,33.88,26.34,38.15c4.52,2.72,12.5,4.9,19.21,4.9h0.84l-79.32,171.6c-3.714,8.018-0.224,17.529,7.794,21.243
	c8.018,3.714,17.529,0.224,21.243-7.794c0.004-0.01,0.009-0.019,0.013-0.029l93.68-202.65c0.689-1.5,1.829-2.748,3.26-3.57
	l19.21-11.08c0.959-0.548,2.181-0.215,2.729,0.744c0.018,0.031,0.035,0.063,0.051,0.096l93.21,185
	c3.976,7.892,13.598,11.066,21.49,7.09s11.066-13.598,7.09-21.49l0,0L382.84,440.8z"/>
<path d="M490.21,115.74L444.09,36c-11.082-19.08-35.5-25.615-54.63-14.62l-93.34,53.78c-9.214,5.273-15.931,14.018-18.65,24.28
	c-1.326,4.283-1.758,8.793-1.27,13.25c1.74,12.62,13,30.4,26.41,53.89c13.58,23.73,28.91,50.48,36.93,56.27
	c6.78,4.793,14.877,7.367,23.18,7.37c6.994,0.003,13.865-1.839,19.92-5.34L476,171.07c9.384-5.377,16.17-14.347,18.79-24.84
	C497.288,135.858,495.645,124.92,490.21,115.74z"/>
</svg>
