<?xml version="1.0" encoding="iso-8859-1"?>
<!-- Generator: Adobe Illustrator 24.3.0, SVG Export Plug-In . SVG Version: 6.00 Build 0)  -->
<svg version="1.1" id="Layer_1" xmlns="http://www.w3.org/2000/svg" xmlns:xlink="http://www.w3.org/1999/xlink" x="0px" y="0px"
	 viewBox="0 0 512 512" style="enable-background:new 0 0 512 512;" xml:space="preserve">
<path d="M246.4,480c1.559-7.544,2.634-15.179,3.22-22.86c0.35-4.61,0.53-9.31,0.53-14c0-100-81.34-181.32-181.32-181.32
	c-12.374,0.006-24.714,1.276-36.83,3.79C36.986,381.89,130.119,475.02,246.4,480z"/>
<path d="M284.63,227.37c-42.172-41.961-65.804-99.049-65.63-158.54c-0.001-11.523,0.875-23.03,2.62-34.42
	C125.144,49.43,49.451,125.107,34.41,221.58c11.391-1.732,22.898-2.594,34.42-2.58c59.497-0.164,116.586,23.484,158.54,65.67
	c42.162,41.951,65.794,99.023,65.63,158.5c0,5.74-0.22,11.54-0.65,17.23s-1.11,11.51-2,17.2
	c96.49-15.012,172.197-90.695,187.24-187.18c-11.391,1.732-22.898,2.594-34.42,2.58C383.679,293.174,326.591,269.542,284.63,227.37z
	"/>
<path d="M443.17,250.15c12.373,0.004,24.713-1.256,36.83-3.76C475.014,130.113,381.887,36.986,265.61,32
	c-2.504,12.117-3.764,24.457-3.76,36.83C261.85,168.81,343.19,250.15,443.17,250.15z"/>
</svg>
