<?xml version="1.0" encoding="iso-8859-1"?>
<!-- Generator: Adobe Illustrator 24.3.0, SVG Export Plug-In . SVG Version: 6.00 Build 0)  -->
<svg version="1.1" id="Layer_1" xmlns="http://www.w3.org/2000/svg" xmlns:xlink="http://www.w3.org/1999/xlink" x="0px" y="0px"
	 viewBox="0 0 512 512" style="enable-background:new 0 0 512 512;" xml:space="preserve">
<path d="M256,480c-59.833,0-116.084-23.3-158.392-65.608C55.3,372.084,32,315.832,32,256S55.3,139.916,97.608,97.608
	C139.917,55.3,196.167,32,256,32c59.832,0,116.084,23.3,158.392,65.608C456.7,139.916,480,196.167,480,256
	s-23.3,116.084-65.608,158.392C372.084,456.701,315.832,480,256,480z M256,64C150.131,64,64,150.131,64,256
	C64,361.87,150.131,448,256,448S448,361.87,448,256C448,150.131,361.869,64,256,64z"/>
<path d="M448,288c-59.835,0-116.087-23.3-158.394-65.606C247.299,180.087,224,123.835,224,64c0-5.676,0.199-9.276,0.646-15.202
	c0.664-8.812,8.343-15.427,17.156-14.753c8.812,0.664,15.417,8.345,14.753,17.156C256.178,56.21,256,59.105,256,64
	c0,105.87,86.131,192,192,192c4.654,0,7.312-0.158,12.27-0.519c8.805-0.642,16.477,5.983,17.118,14.798
	c0.641,8.813-5.984,16.478-14.798,17.118C457.584,287.762,453.863,288,448,288z"/>
<path d="M271.406,478c-0.38,0-0.761-0.014-1.146-0.04c-8.813-0.624-15.454-8.274-14.831-17.089c0.159-2.246,0.57-8.937,0.57-12.871
	C256,342.131,169.869,256,64,256c-3.833,0-10.956,0.383-13.377,0.53c-8.814,0.535-16.406-6.177-16.943-14.997
	c-0.538-8.82,6.177-16.406,14.997-16.943C49.072,224.565,58.417,224,64,224c59.835,0,116.087,23.299,158.394,65.606
	C264.7,331.914,288,388.165,288,448c0,5.878-0.624,14.755-0.65,15.13C286.753,471.56,279.728,477.999,271.406,478z"/>
</svg>
