<?xml version="1.0" encoding="iso-8859-1"?>
<!-- Generator: Adobe Illustrator 24.3.0, SVG Export Plug-In . SVG Version: 6.00 Build 0)  -->
<svg version="1.1" id="Layer_1" xmlns="http://www.w3.org/2000/svg" xmlns:xlink="http://www.w3.org/1999/xlink" x="0px" y="0px"
	 viewBox="0 0 512 512" style="enable-background:new 0 0 512 512;" xml:space="preserve">
<path d="M432,32H80c-35.33,0.039-63.961,28.67-64,64v320c0.039,35.33,28.67,63.961,64,64h352c35.33-0.039,63.961-28.67,64-64V96
	C495.961,60.67,467.33,32.039,432,32z M96,256c-8.837,0-16-7.163-16-16c0-4.858,2.207-9.454,6-12.49L150.39,176L86,124.49
	c-6.904-5.523-8.023-15.596-2.5-22.5s15.596-8.023,22.5-2.5l80,64c6.904,5.516,8.028,15.584,2.513,22.487
	c-0.742,0.928-1.584,1.771-2.513,2.513l-80,64C103.162,254.762,99.635,256,96,256z M256,256h-64c-8.837,0-16-7.163-16-16
	s7.163-16,16-16h64c8.837,0,16,7.163,16,16S264.837,256,256,256z"/>
</svg>
