<?xml version="1.0" encoding="iso-8859-1"?>
<!-- Generator: Adobe Illustrator 24.3.0, SVG Export Plug-In . SVG Version: 6.00 Build 0)  -->
<svg version="1.1" id="Layer_1" xmlns="http://www.w3.org/2000/svg" xmlns:xlink="http://www.w3.org/1999/xlink" x="0px" y="0px"
	 viewBox="0 0 512 512" style="enable-background:new 0 0 512 512;" xml:space="preserve">
<path d="M432,480H80c-35.29,0-64-28.71-64-64V96c0-35.29,28.71-64,64-64h352c35.29,0,64,28.71,64,64v320
	C496,451.29,467.29,480,432,480z M80,64c-17.645,0-32,14.355-32,32v320c0,17.645,14.355,32,32,32h352c17.645,0,32-14.355,32-32V96
	c0-17.645-14.355-32-32-32H80z"/>
<path d="M96.01,256c-4.694,0-9.344-2.055-12.504-6.005c-5.52-6.9-4.401-16.969,2.499-22.489L150.388,176l-64.383-51.506
	c-6.9-5.521-8.019-15.589-2.499-22.489c5.521-6.901,15.589-8.019,22.489-2.499l80,64C189.791,166.542,192,171.14,192,176
	s-2.209,9.458-6.005,12.494l-80,64C103.045,254.853,99.515,256,96.01,256z"/>
<path d="M256,256h-64c-8.836,0-16-7.164-16-16s7.164-16,16-16h64c8.837,0,16,7.164,16,16S264.837,256,256,256z"/>
</svg>
