<?xml version="1.0" encoding="iso-8859-1"?>
<!-- Generator: Adobe Illustrator 24.3.0, SVG Export Plug-In . SVG Version: 6.00 Build 0)  -->
<svg version="1.1" id="Layer_1" xmlns="http://www.w3.org/2000/svg" xmlns:xlink="http://www.w3.org/1999/xlink" x="0px" y="0px"
	 viewBox="0 0 512 512" style="enable-background:new 0 0 512 512;" xml:space="preserve">
<path d="M272.002,431.504c-6.479,0.001-12.574-3.962-14.983-10.386L152,141.068L46.981,421.119
	c-3.103,8.273-12.326,12.466-20.6,9.363s-12.466-12.325-9.363-20.6l120-320C139.36,83.637,145.331,79.5,152,79.5
	s12.64,4.137,14.981,10.382l120,320c3.103,8.274-1.09,17.497-9.363,20.6C275.768,431.175,273.868,431.504,272.002,431.504z"/>
<path d="M230,319.5H74c-8.836,0-16-7.163-16-16s7.164-16,16-16h156c8.836,0,16,7.163,16,16S238.836,319.5,230,319.5z"/>
<path d="M480,431.5c-8.837,0-16-7.163-16-16v-144c0-38.281-25.72-64.001-64-64.001c-26.133,0-49.399,15.017-59.274,38.257
	c-3.456,8.134-12.853,11.926-20.982,8.469c-8.133-3.456-11.925-12.85-8.469-20.982C326.179,198.165,361.006,175.5,400,175.5
	c26.698,0,51.013,9.442,68.463,26.587C486.221,219.533,496,244.184,496,271.5v144C496,424.337,488.837,431.5,480,431.5z"/>
<path d="M380,432.5c-44.037,0-76-31.121-76-74c0-22.941,9.842-42.041,28.462-55.233c17.26-12.229,38.711-16.896,53.667-18.657
	c32.023-3.767,69.488-5.109,93.871-5.109c8.837,0,16,7.163,16,16v15c0,41.533-11.768,73.312-34.976,94.453
	C441.242,422.975,413.224,432.5,380,432.5z M463.996,311.674c-22.127,0.456-49.812,1.856-74.127,4.717
	c-16.146,1.901-29.601,6.393-38.908,12.987C340.754,336.61,336,345.864,336,358.5c0,29.014,22.099,42,44,42
	C435.371,400.5,463.626,370.615,463.996,311.674z"/>
</svg>
