<?xml version="1.0" encoding="iso-8859-1"?>
<!-- Generator: Adobe Illustrator 24.3.0, SVG Export Plug-In . SVG Version: 6.00 Build 0)  -->
<svg version="1.1" id="Layer_1" xmlns="http://www.w3.org/2000/svg" xmlns:xlink="http://www.w3.org/1999/xlink" x="0px" y="0px"
	 viewBox="0 0 512 512" style="enable-background:new 0 0 512 512;" xml:space="preserve">
<path d="M292.6,407.78l-120-320c-4.265-11.377-16.946-17.142-28.323-12.877c-5.951,2.231-10.646,6.926-12.877,12.877l-120,320
	c-4.158,11.417,1.726,24.042,13.142,28.201c11.267,4.104,23.746-1.571,28.058-12.761l36.16-96.42c0.292-0.781,1.037-1.299,1.87-1.3
	h122.74c0.833,0.001,1.578,0.519,1.87,1.3l36.16,96.42c4.369,11.338,17.101,16.987,28.439,12.618
	C291.029,431.527,296.704,419.048,292.6,407.78L292.6,407.78z M106.76,278.78l43.37-115.65c0.392-1.033,1.547-1.552,2.579-1.161
	c0.535,0.203,0.958,0.626,1.161,1.161l43.37,115.67c0.387,1.035-0.139,2.187-1.173,2.574c-0.223,0.083-0.459,0.126-0.697,0.126
	h-86.74c-1.105-0.002-1.998-0.899-1.996-2.004c0-0.238,0.043-0.474,0.127-0.697L106.76,278.78z"/>
<path d="M400.77,169.5c-41.72-0.3-79.08,23.87-95,61.4c-4.75,11.184,0.466,24.1,11.65,28.85c11.184,4.75,24.1-0.466,28.85-11.65
	c8.88-20.89,29.77-34.44,53.32-34.6C431.91,213.28,458,240,458,272.35l0,0c0,0.809-0.641,1.473-1.45,1.5
	c-21.92,0.61-47.92,2.07-71.12,4.8C330.68,285.09,298,314.94,298,358.5c0,23.19,8.76,44,24.67,58.68
	C337.6,430.93,358,438.5,380,438.5c31,0,57.69-8,77.94-23.22H458l0,0c-0.052,12.15,9.755,22.043,21.905,22.095
	S501.948,427.62,502,415.47v-143C502,216.29,457,169.91,400.77,169.5z M380,394.5c-17.53,0-38-9.43-38-36
	c0-10.67,3.83-18.14,12.43-24.23c8.37-5.93,21.2-10.16,36.14-11.92c21.12-2.49,44.82-3.86,65.14-4.47
	c1.105-0.001,2.001,0.893,2.003,1.997c0,0.034-0.001,0.068-0.003,0.103C455,370.1,429.46,394.5,380,394.5z"/>
</svg>
