<?xml version="1.0" encoding="iso-8859-1"?>
<!-- Generator: Adobe Illustrator 24.3.0, SVG Export Plug-In . SVG Version: 6.00 Build 0)  -->
<svg version="1.1" id="Layer_1" xmlns="http://www.w3.org/2000/svg" xmlns:xlink="http://www.w3.org/1999/xlink" x="0px" y="0px"
	 viewBox="0 0 512 512" style="enable-background:new 0 0 512 512;" xml:space="preserve">
<path d="M404.42,170c-41.23,0-78.07,24.06-93.85,61.3L304,246.52l40.33,17.18l6.56-15.22c8.9-21,29.91-34.55,53.53-34.55
	c34.55,0,57.76,23.27,57.76,57.91v2.3c-22.12,0.59-48.65,2.05-72.27,4.84c-54.52,6.43-87.06,36.23-87.06,79.72
	c0,23.16,8.72,44,24.56,58.59C342.28,431,362.55,438,384.51,438c30.86,0,57.5-7.33,77.67-22.64V438H506V271.84
	C506,212.83,463.28,170,404.42,170z M384.51,395.07c-17.46,0-37.85-9.84-37.85-36.37c0-10.65,3.82-18.11,12.38-24.19
	c8.34-5.92,21.12-10.15,36-11.9c21.78-2.57,46.31-3.95,67-4.52C459.88,369.58,434.47,395.07,384.51,395.07z"/>
<path d="M93.25,325.87h125.5L260.94,438H308L155,48L4,438h47.06L93.25,325.87z M156,160.71L202.25,282h-92.5L156,160.71z"/>
</svg>
