<?xml version="1.0" encoding="iso-8859-1"?>
<!-- Generator: Adobe Illustrator 24.3.0, SVG Export Plug-In . SVG Version: 6.00 Build 0)  -->
<svg version="1.1" id="Layer_1" xmlns="http://www.w3.org/2000/svg" xmlns:xlink="http://www.w3.org/1999/xlink" x="0px" y="0px"
	 viewBox="0 0 512 512" style="enable-background:new 0 0 512 512;" xml:space="preserve">
<path d="M320,287.18V81c0-35.12-27.89-64.42-63-64.95c-35.387-0.508-64.485,27.767-64.993,63.153
	C192.003,79.486,192,79.768,192,80.05v207.13c-0.005,2.504-1.182,4.861-3.18,6.37C160.554,315.03,143.969,348.499,144,384
	c0,61.856,50.144,112,112,112s112-50.144,112-112c0.031-35.501-16.554-68.971-44.82-90.45
	C321.182,292.041,320.005,289.684,320,287.18z M254.07,432c-26.487-1.093-47.073-23.452-45.979-49.939
	c0.679-16.437,9.728-31.382,23.979-39.601c4.945-2.855,7.994-8.13,8-13.84V112.45c0-8.61,6.62-16,15.23-16.43
	c8.828-0.387,16.298,6.457,16.685,15.285c0.01,0.232,0.015,0.463,0.015,0.695v216.58c0.038,5.767,3.143,11.078,8.15,13.94
	c22.932,13.3,30.74,42.672,17.439,65.604C288.643,423.548,271.885,432.742,254.07,432z"/>
</svg>
