<?xml version="1.0" encoding="iso-8859-1"?>
<!-- Generator: Adobe Illustrator 24.3.0, SVG Export Plug-In . SVG Version: 6.00 Build 0)  -->
<svg version="1.1" id="Layer_1" xmlns="http://www.w3.org/2000/svg" xmlns:xlink="http://www.w3.org/1999/xlink" x="0px" y="0px"
	 viewBox="0 0 512 512" style="enable-background:new 0 0 512 512;" xml:space="preserve">
<path d="M255.938,495.952c-59.432,0-109.083-46.927-111.822-106.891c-1.728-38.545,16.53-75.612,47.883-97.792V80
	c0-35.29,28.71-64,64-64c35.29,0,64,28.71,64,64v211.269c30.152,21.278,48.016,55.63,48,92.738
	c-0.031,59.971-46.982,109.09-106.89,111.826C259.382,495.913,257.651,495.952,255.938,495.952z M212.963,315.706
	c-24.036,15.687-38.165,43.232-36.879,71.908c0.975,21.333,10.204,41.022,25.987,55.427s36.23,21.811,57.578,20.826
	c42.792-1.955,76.328-37.04,76.351-79.874c0.012-27.647-13.801-53.166-36.95-68.275c-6.913-4.429-11.041-11.963-11.05-20.18V80
	c0-17.645-14.355-32-32-32c-17.645,0-32,14.355-32,32v215.52C223.987,303.749,219.864,311.278,212.963,315.706z"/>
<path d="M256,400c-8.836,0-16-7.163-16-16V112c0-8.836,7.164-16,16-16c8.837,0,16,7.164,16,16v272C272,392.837,264.837,400,256,400z
	"/>
<circle cx="256" cy="384" r="48"/>
</svg>
