<?xml version="1.0" encoding="iso-8859-1"?>
<!-- Generator: Adobe Illustrator 24.3.0, SVG Export Plug-In . SVG Version: 6.00 Build 0)  -->
<svg version="1.1" id="Layer_1" xmlns="http://www.w3.org/2000/svg" xmlns:xlink="http://www.w3.org/1999/xlink" x="0px" y="0px"
	 viewBox="0 0 512 512" style="enable-background:new 0 0 512 512;" xml:space="preserve">
<path d="M320,291.24V80c0-35.346-28.654-64-64-64s-64,28.654-64,64v211.24c-30.135,21.272-48.04,55.873-48,92.76
	c0,61.856,50.144,112,112,112s112-50.144,112-112C368.04,347.113,350.135,312.512,320,291.24z M256,432
	c-26.51,0.008-48.007-21.476-48.015-47.985c-0.006-20.353,12.824-38.497,32.015-45.275V96h32v242.74
	c24.996,8.828,38.103,36.249,29.275,61.245C294.497,419.176,276.353,432.006,256,432z"/>
</svg>
