<svg width="54" height="18" viewBox="0 0 54 18"  xmlns="http://www.w3.org/2000/svg">
<path d="M21.2693 8.73375C21.2896 11.4951 23.5446 13.7172 26.3059 13.6969C29.0673 13.6766 31.2893 11.4216 31.2691 8.66029C31.2488 5.89894 28.9938 3.67687 26.2325 3.69715C23.4711 3.71744 21.249 5.9724 21.2693 8.73375Z" fill="#482084"/>
<path d="M6.19902 8.73765C6.2193 11.499 8.47426 13.7211 11.2356 13.7008C13.997 13.6805 16.219 11.4255 16.1987 8.6642C16.1785 5.90285 13.9235 3.68078 11.1622 3.70106C8.4008 3.72134 6.17873 5.9763 6.19902 8.73765Z" fill="#482084"/>
<path d="M36.3396 8.73765C36.3599 11.499 38.6149 13.7211 41.3762 13.7008C44.1376 13.6805 46.3597 11.4255 46.3394 8.6642C46.3191 5.90285 44.0641 3.68078 41.3028 3.70106C38.5414 3.72134 36.3194 5.9763 36.3396 8.73765Z" fill="#482084"/>
</svg>
