<?xml version="1.0" encoding="iso-8859-1"?>
<!-- Generator: Adobe Illustrator 24.3.0, SVG Export Plug-In . SVG Version: 6.00 Build 0)  -->
<svg version="1.1" id="Layer_1" xmlns="http://www.w3.org/2000/svg" xmlns:xlink="http://www.w3.org/1999/xlink" x="0px" y="0px"
	 viewBox="0 0 512 512" style="enable-background:new 0 0 512 512;" xml:space="preserve">
<path d="M256,480c-49.616,0-78.487-15.992-101.146-32H96c-44.112,0-80-35.888-80-80v-48C16,275.888,51.888,240,96,240h30
	c5.349-0.03,10.309-2.69,13.336-7.154c2.213-4.649,11.835-24.279,34.808-64.066c14.87-25.754,37.311-58.612,55.341-85.014
	c12.945-18.954,25.172-36.857,28.204-42.921C260.399,35.424,265.939,32,272,32c18.982,0,34.631,7.323,44.064,20.62
	c9.35,13.179,11.186,30.812,5.037,48.377c-2.959,8.458-6.15,16.518-9.237,24.313c-7.067,17.85-13.775,34.79-16.733,54.122
	l122.125,9.618c8.81,0.694,15.389,8.397,14.694,17.207s-8.42,15.386-17.206,14.694l-129.097-10.167
	c-5.922-0.237-11.493-2.97-15.769-7.755c-5.326-5.961-8.099-14.4-7.237-22.024c2.953-25.761,11.35-46.967,19.471-67.476
	c2.969-7.498,6.039-15.252,8.785-23.101c2.718-7.764,2.387-14.614-0.932-19.292c-2.03-2.862-5.267-4.924-9.425-6.074
	c-5.26,8.344-13.347,20.23-24.63,36.752c-17.727,25.957-39.789,58.261-54.055,82.968c-25.146,43.552-33.867,62.325-33.952,62.51
	c-0.266,0.577-0.572,1.149-0.905,1.69c-8.806,14.321-24.1,22.926-40.912,23.019L96,272c-26.467,0-48,21.532-48,48v48
	c0,26.467,21.533,48,48,48h64c3.381,0,6.676,1.071,9.411,3.061C190.38,434.311,212.782,448,256,448
	c43.133,0,58.621-4.912,58.772-4.962l-0.259,0.091l10.973,30.061C323.577,473.886,305.402,480,256,480z"/>
<path d="M416,287l-0.399-0.005l-80.535-2.014l-0.532-0.049C305.831,282.291,288,264.691,288,239
	c0-25.282,19.315-44.185,46.971-45.967l0.23-0.013l80.399-4.02H416c26.019,0,48,22.897,48,50v0.17
	C463.859,265.581,442.327,287,416,287z M336.97,253.019l79.196,1.98c8.7-0.089,15.788-7.194,15.834-15.915V239
	c0-9.134-7.579-17.777-15.686-17.996l-79.384,3.969C333.874,225.185,320,226.824,320,239
	C320,242.693,320.001,251.293,336.97,253.019z"/>
<path d="M447.883,352l-0.169-0.003l-112.46-2.015C307.873,348.704,288,329.366,288,304c0-25.313,19.322-44.217,46.989-45.968
	l0.725-0.029L447.882,256L448.05,256c26.358,0.082,47.868,21.592,47.95,47.95c-0.082,26.456-21.592,47.967-47.949,48.05H447.883z
	 M336.551,318.007l111.537,1.992c8.76-0.103,15.885-7.272,15.912-16.049c-0.027-8.678-7.152-15.848-15.911-15.949L336.7,289.991
	c-3.434,0.268-16.7,2.079-16.7,14.01C320,316.327,333.356,317.827,336.551,318.007z"/>
<path d="M399.647,480.001l-65.045-3.062C292.541,473.252,288,444.284,288,432c0-25.708,20.942-45.864,47.729-45.999l64.044-2.002
	l0.271,0.001c26.369,0.073,47.882,21.585,47.956,47.955c-0.074,26.458-21.587,47.971-47.955,48.045L399.647,480.001z
	 M337.091,445.034l63.193,2.963c8.672-0.201,15.691-7.329,15.716-16.041c-0.024-8.658-7.101-15.808-15.819-15.953L336,418
	c-7.951,0-16,4.809-16,14C320,437.11,320,443.461,337.091,445.034z"/>
<path d="M431.855,416l-96.562-2.016C307.447,412.752,288,393.843,288,368c0-25.78,18.898-44.254,47.025-45.971l0.642-0.025
	L432.044,320c26.369,0.073,47.882,21.585,47.956,47.955c-0.074,26.458-21.587,47.971-47.955,48.045H431.855z M336.538,382.008
	l95.573,1.991c8.751-0.109,15.864-7.274,15.889-16.044c-0.024-8.682-7.138-15.846-15.888-15.954l-95.433,1.988
	C322.903,354.928,320,362.115,320,368C320,379.449,330.28,381.7,336.538,382.008z"/>
</svg>
