<?xml version="1.0" encoding="iso-8859-1"?>
<!-- Generator: Adobe Illustrator 24.3.0, SVG Export Plug-In . SVG Version: 6.00 Build 0)  -->
<svg version="1.1" id="Layer_1" xmlns="http://www.w3.org/2000/svg" xmlns:xlink="http://www.w3.org/1999/xlink" x="0px" y="0px"
	 viewBox="0 0 512 512" style="enable-background:new 0 0 512 512;" xml:space="preserve">
<path d="M39.94,178l144.16,6.12c4.61,0.36,23.9,1.22,23.9,25.88c0,23.8-19.16,25.33-24.14,25.88L39.94,242
	C27.27,241.87,16,227.56,16,210S27.27,178.13,39.94,178z M181.39,309.66L74.65,318C62,318,48,301.31,48,284.12v-0.33
	c0-16.33,11.14-29.63,24.88-29.79l108.45,1.72C208,259,208,275.16,208,282.12C208,305,186.2,309.26,181.39,309.66z M90.15,32
	l89.37,8.93C204,41.86,208,58.18,208,68.4c0,18.39-13.41,24.6-26.67,24.6l-91,3C75.78,95.78,64,81.51,64,64S75.68,32.34,90.15,32z
	 M55.79,103.5l126.4,6.22c9.39,0.63,25.81,3,25.81,26.36c0,12-4.35,25.62-25,27.53L55.79,167.5C42.65,167.35,32,154,32,136.08
	S42.65,103.65,55.79,103.5z"/>
<path style="fill:none;" d="M378.45,273.93c2.317-1.262,4.912-1.925,7.55-1.93l0,0c-2.622,0.009-5.202,0.665-7.51,1.91
	L378.45,273.93z"/>
<path style="fill:none;" d="M337.86,343.22l-0.13,0.22C337.77,343.365,337.813,343.291,337.86,343.22c20.5-35.51,30.36-55,33.82-62
	l0,0C368.21,288.28,358.34,307.73,337.86,343.22z"/>
<path d="M372.66,279.16l-1,2c1.446-3.065,3.813-5.603,6.77-7.26C376.113,275.166,374.134,276.97,372.66,279.16z"/>
<path d="M195.94,459.38C205.37,472.67,221,480,240,480c6.061-0.001,11.601-3.428,14.31-8.85c3-6.06,15.25-24,28.19-42.9
	c18-26.33,40.35-59.08,55.23-84.81l0.13-0.22c20.48-35.49,30.35-54.94,33.82-62l0,0l1-2c1.484-2.182,3.469-3.975,5.79-5.23l0,0
	c2.307-1.276,4.894-1.96,7.53-1.99h25.32c46.771-0.011,84.68-37.929,84.68-84.7v-38.6c0-46.775-37.915-84.694-84.69-84.7h-48.79
	c-3.407-0.008-6.737-1.013-9.58-2.89C330,46.13,286.66,32,240,32c-7.45,0-14.19,0.14-20.27,0.38c-4.415,0.157-7.868,3.864-7.71,8.28
	c0.056,1.584,0.582,3.116,1.51,4.4l0.1,0.14C222.2,57.59,224,71,224,80c0.016,8.528-1.752,16.965-5.19,24.77
	c-1.98,4.477-1.98,9.583,0,14.06c6.913,16.085,6.913,34.305,0,50.39c-1.97,4.459-1.97,9.541,0,14c6.88,15.811,6.88,33.769,0,49.58
	c-2.07,4.674-2.07,10.006,0,14.68c3.565,8.028,5.336,16.737,5.19,25.52c0,8.2-2,21.3-8,31.18c-2.455,4.134-2.876,9.166-1.14,13.65
	c0.38,1,0.76,2.06,1.13,3.17c1.197,3.734,1.492,7.7,0.86,11.57c-3,19.35-9.67,36.3-16.74,54.16c-3.08,7.78-6.27,15.82-9.22,24.27
	C184.75,428.56,186.59,446.2,195.94,459.38z"/>
</svg>
