<?xml version="1.0" encoding="iso-8859-1"?>
<!-- Generator: Adobe Illustrator 24.3.0, SVG Export Plug-In . SVG Version: 6.00 Build 0)  -->
<svg version="1.1" id="Layer_1" xmlns="http://www.w3.org/2000/svg" xmlns:xlink="http://www.w3.org/1999/xlink" x="0px" y="0px"
	 viewBox="0 0 512 512" style="enable-background:new 0 0 512 512;" xml:space="preserve">
<path d="M240,480c-18.982,0-34.631-7.323-44.064-20.619c-9.35-13.18-11.186-30.812-5.037-48.377
	c2.959-8.459,6.151-16.521,9.238-24.317c7.067-17.848,13.774-34.785,16.732-54.114l-122.125-9.622
	c-8.809-0.693-15.388-8.397-14.694-17.207c0.694-8.81,8.398-15.395,17.208-14.693L226.3,301.216
	c5.947,0.236,11.539,2.977,15.827,7.777c5.321,5.956,8.092,14.387,7.231,22.003c-2.953,25.759-11.35,46.965-19.47,67.472
	c-2.969,7.499-6.04,15.254-8.786,23.104c-2.718,7.765-2.387,14.615,0.932,19.292c2.03,2.862,5.266,4.925,9.424,6.074
	c5.259-8.344,13.347-20.229,24.63-36.751c17.728-25.957,39.789-58.261,54.055-82.968c25.147-43.553,33.867-62.326,33.952-62.511
	c0.267-0.577,0.572-1.149,0.905-1.69c8.806-14.32,24.1-22.925,40.91-23.019H416c26.467,0,48-21.533,48-48v-48
	c0-26.467-21.533-48-48-48h-64c-3.382,0-6.676-1.071-9.411-3.06C321.619,77.689,299.218,64,256,64
	c-43.133,0-58.622,4.912-58.773,4.961l0.259-0.091l-10.973-30.06C188.423,38.113,206.597,32,256,32
	c49.616,0,78.487,15.992,101.146,32H416c44.112,0,80,35.888,80,80v48C496,236.112,460.112,272,416,272h-30
	c-5.349,0.029-10.31,2.689-13.336,7.154c-2.214,4.651-11.837,24.281-34.808,64.065c-14.871,25.755-37.311,58.613-55.342,85.015
	c-12.945,18.954-25.172,36.857-28.204,42.921C251.601,476.577,246.061,480,240,480z"/>
<path d="M96.4,323H96c-26.019,0-48-22.897-48-50v-0.17C48.141,246.418,69.673,225,96,225l0.4,0.005l80.534,2.014l0.532,0.049
	C206.169,229.708,224,247.309,224,273c0,25.282-19.315,44.185-46.971,45.967l-0.23,0.014L96.4,323z M95.834,257
	c-8.701,0.09-15.788,7.194-15.834,15.915V273c0,9.135,7.578,17.776,15.685,17.996l79.384-3.97C178.126,286.815,192,285.176,192,273
	c0-3.693,0-12.294-16.969-14.02L95.834,257z"/>
<path d="M64.118,256L63.95,256c-26.358-0.082-47.869-21.592-47.95-47.95c0.082-26.457,21.592-47.967,47.95-48.05l0.167,0
	l112.628,2.018C204.127,163.296,224,182.634,224,208c0,25.313-19.323,44.216-46.989,45.968l-0.726,0.03L64.118,256z M63.912,192.001
	c-8.759,0.102-15.884,7.273-15.912,16.049c0.027,8.677,7.152,15.847,15.912,15.949L175.3,222.01c3.434-0.268,16.7-2.079,16.7-14.01
	c0-12.326-13.355-13.826-16.55-14.007L63.912,192.001z"/>
<path d="M112.228,128l-0.272,0C85.586,127.926,64.074,106.414,64,80.045C64.074,53.586,85.586,32.074,111.955,32l0.397-0.001
	l65.044,3.062C219.459,38.747,224,67.716,224,80c0,25.708-20.942,45.864-47.729,46L112.228,128z M111.715,64.004
	c-8.672,0.2-15.691,7.328-15.715,16.041c0.024,8.658,7.1,15.807,15.819,15.953L176,94c7.951,0,16-4.809,16-14
	c0-5.109,0-11.461-17.089-13.034L111.715,64.004z"/>
<path d="M80.145,192l-0.189,0C53.586,191.926,32.074,170.413,32,144.045C32.074,117.586,53.586,96.074,79.955,96l0.189,0
	l96.562,2.016C204.552,99.247,224,118.157,224,144c0,25.779-18.898,44.253-47.025,45.97l-0.642,0.026L80.145,192z M79.888,128.001
	c-8.75,0.109-15.863,7.273-15.888,16.044c0.024,8.681,7.137,15.845,15.888,15.954l95.432-1.988C189.097,157.072,192,149.886,192,144
	c0-11.448-10.28-13.7-16.538-14.008L79.888,128.001z"/>
</svg>
