<?xml version="1.0" encoding="iso-8859-1"?>
<!-- Generator: Adobe Illustrator 24.3.0, SVG Export Plug-In . SVG Version: 6.00 Build 0)  -->
<svg version="1.1" id="Layer_1" xmlns="http://www.w3.org/2000/svg" xmlns:xlink="http://www.w3.org/1999/xlink" x="0px" y="0px"
	 viewBox="0 0 512 512" style="enable-background:new 0 0 512 512;" xml:space="preserve">
<path d="M456,192l-156-12l23-89.4c6-26.6-0.78-41.87-22.47-48.6l-34.69-9.85c-1.685-0.447-3.465,0.249-4.4,1.72l-129,202.34
	c-1.455,2.366-4.033,3.808-6.81,3.81H16V448h117.61c5.159-0.001,10.285,0.829,15.18,2.46l76.3,25.43
	c8.158,2.721,16.701,4.109,25.3,4.11h177.93c19,0,31.5-13.52,35.23-32.16L496,305.58V232C496,209.94,478,194,456,192z"/>
</svg>
