<?xml version="1.0" encoding="iso-8859-1"?>
<!-- Generator: Adobe Illustrator 24.3.0, SVG Export Plug-In . SVG Version: 6.00 Build 0)  -->
<svg version="1.1" id="Layer_1" xmlns="http://www.w3.org/2000/svg" xmlns:xlink="http://www.w3.org/1999/xlink" x="0px" y="0px"
	 viewBox="0 0 512 512" style="enable-background:new 0 0 512 512;" xml:space="preserve">
<path d="M472.06,334l-144.16-6.13c-4.61-0.36-23.9-1.21-23.9-25.87c0-23.81,19.16-25.33,24.14-25.88L472.06,270
	c12.67,0.13,23.94,14.43,23.94,32S484.73,333.87,472.06,334z M330.61,202.33L437.35,194C450,194,464,210.68,464,227.88v0.33
	c0,16.32-11.14,29.62-24.88,29.79l-108.45-1.73C304,253,304,236.83,304,229.88C304,207,325.8,202.73,330.61,202.33z M421.85,480
	l-89.37-8.93C308,470.14,304,453.82,304,443.59c0-18.38,13.41-24.6,26.67-24.6l91-3c14.54,0.23,26.32,14.5,26.32,32
	S436.32,479.66,421.85,480z M456.21,408.5l-126.4-6.21c-9.39-0.63-25.81-3-25.81-26.37c0-12,4.35-25.61,25-27.53l127.19-3.88
	C469.35,344.65,480,358,480,375.91s-10.65,32.43-23.79,32.58L456.21,408.5z"/>
<path style="fill:none;" d="M133.55,238.06c-2.316,1.265-4.911,1.932-7.55,1.94l0,0c2.624-0.007,5.205-0.667,7.51-1.92
	L133.55,238.06z"/>
<path style="fill:none;" d="M174.14,168.78l0.13-0.23L174.14,168.78c-20.5,35.51-30.36,54.95-33.82,62l0,0
	C143.79,223.71,153.66,204.27,174.14,168.78z"/>
<path d="M139.34,232.84l1-2c-1.447,3.062-3.814,5.597-6.77,7.25C135.889,236.831,137.868,235.03,139.34,232.84z"/>
<path d="M316.06,52.62C306.63,39.32,291,32,272,32c-6.059-0.001-11.599,3.422-14.31,8.84c-3,6.07-15.25,24-28.19,42.91
	c-18,26.33-40.35,59.07-55.23,84.8l-0.13,0.23c-20.48,35.49-30.35,54.93-33.82,62l0,0l-1,2c-1.481,2.181-3.467,3.972-5.79,5.22l0,0
	c-2.304,1.284-4.893,1.971-7.53,2h-25.31C53.917,240,16,277.917,16,324.69l0,0v38.61c-0.006,46.773,37.907,84.694,84.68,84.7
	c0.003,0,0.007,0,0.01,0h48.79c3.406,0.013,6.735,1.017,9.58,2.89C182,465.87,225.34,480,272,480c7.45,0,14.19-0.14,20.27-0.38
	c4.415-0.157,7.868-3.864,7.71-8.28c-0.056-1.584-0.582-3.116-1.51-4.4l-0.1-0.14C289.8,454.41,288,441,288,432
	c-0.015-8.528,1.753-16.965,5.19-24.77c1.98-4.474,1.98-9.576,0-14.05c-6.913-16.085-6.913-34.305,0-50.39
	c1.97-4.459,1.97-9.541,0-14c-6.88-15.814-6.88-33.776,0-49.59c2.07-4.674,2.07-10.006,0-14.68
	c-3.567-8.027-5.339-16.737-5.19-25.52c0-8.2,2-21.3,8-31.19c2.456-4.13,2.877-9.16,1.14-13.64c-0.38-1-0.76-2.07-1.13-3.17
	c-1.198-3.738-1.492-7.706-0.86-11.58c3-19.34,9.67-36.29,16.74-54.16c3.08-7.78,6.27-15.82,9.22-24.26
	C327.25,83.43,325.41,65.8,316.06,52.62z"/>
</svg>
