<?xml version="1.0" encoding="iso-8859-1"?>
<!-- Generator: Adobe Illustrator 24.3.0, SVG Export Plug-In . SVG Version: 6.00 Build 0)  -->
<svg version="1.1" id="Layer_1" xmlns="http://www.w3.org/2000/svg" xmlns:xlink="http://www.w3.org/1999/xlink" x="0px" y="0px"
	 viewBox="0 0 512 512" style="enable-background:new 0 0 512 512;" xml:space="preserve">
<path d="M56,320l156.05,12l-23,89.4c-6.08,26.6,0.7,41.87,22.39,48.62l34.69,9.85c1.685,0.447,3.465-0.249,4.4-1.72l129-202.34
	c1.455-2.366,4.033-3.808,6.81-3.81H496V64H378.39c-5.159,0.001-10.285-0.83-15.18-2.46l-76.3-25.43
	c-8.158-2.721-16.701-4.109-25.3-4.11H83.68c-19,0-31.5,13.52-35.23,32.16L16,206.42V280C16,302.06,34,318,56,320z"/>
<path style="fill:none;" d="M378.45,273.93c2.317-1.262,4.912-1.925,7.55-1.93l0,0c-2.622,0.009-5.202,0.665-7.51,1.91
	L378.45,273.93z"/>
<path style="fill:none;" d="M337.86,343.22l-0.13,0.22C337.77,343.365,337.813,343.291,337.86,343.22c20.5-35.51,30.36-55,33.82-62
	l0,0C368.21,288.28,358.34,307.73,337.86,343.22z"/>
<path d="M372.66,279.16l-1,2c1.446-3.065,3.813-5.603,6.77-7.26C376.113,275.166,374.134,276.97,372.66,279.16z"/>
</svg>
