<?xml version="1.0" encoding="iso-8859-1"?>
<!-- Generator: Adobe Illustrator 24.3.0, SVG Export Plug-In . SVG Version: 6.00 Build 0)  -->
<svg version="1.1" id="Layer_1" xmlns="http://www.w3.org/2000/svg" xmlns:xlink="http://www.w3.org/1999/xlink" x="0px" y="0px"
	 viewBox="0 0 512 512" style="enable-background:new 0 0 512 512;" xml:space="preserve">
<path d="M405.84,136.9c-6.688-31.693-23.373-60.401-47.6-81.9C295.263-1.339,198.538,4.042,142.199,67.02
	c-10.609,11.859-19.304,25.301-25.769,39.841C60.5,110.16,16,156.65,16,213.33C16,272.15,63.91,320,122.8,320h72.31L176,416h48v80
	l112-144h-43.51l8-32h103.84c50.567-0.203,91.395-41.36,91.192-91.927C495.322,178.381,455.522,137.919,405.84,136.9z"/>
<rect x="65.165" y="360.023" transform="matrix(0.4473 -0.8944 0.8944 0.4473 -276.6182 304.4251)" width="85.67" height="32"/>
<rect x="94.099" y="432.035" transform="matrix(0.4473 -0.8944 0.8944 0.4473 -329.9762 362.105)" width="67.78" height="32"/>
<rect x="345.176" y="360.034" transform="matrix(0.4473 -0.8944 0.8944 0.4473 -121.8633 554.8703)" width="85.67" height="32"/>
<rect x="374.121" y="432.046" transform="matrix(0.4473 -0.8944 0.8944 0.4473 -175.2158 612.5591)" width="67.78" height="32"/>
</svg>
