<?xml version="1.0" encoding="iso-8859-1"?>
<!-- Generator: Adobe Illustrator 24.3.0, SVG Export Plug-In . SVG Version: 6.00 Build 0)  -->
<svg version="1.1" id="Layer_1" xmlns="http://www.w3.org/2000/svg" xmlns:xlink="http://www.w3.org/1999/xlink" x="0px" y="0px"
	 viewBox="0 0 512 512" style="enable-background:new 0 0 512 512;" xml:space="preserve">
<path d="M95.988,416.004c-2.405,0-4.846-0.545-7.143-1.693c-7.904-3.951-11.107-13.562-7.156-21.466l24-48
	c3.952-7.904,13.564-11.107,21.466-7.155c7.904,3.951,11.107,13.562,7.156,21.466l-24,48
	C107.508,412.762,101.856,416.004,95.988,416.004z"/>
<path d="M119.988,480.004c-2.405,0-4.846-0.545-7.143-1.693c-7.904-3.951-11.107-13.562-7.156-21.466l16-32
	c3.952-7.904,13.563-11.107,21.466-7.155c7.904,3.951,11.107,13.562,7.156,21.466l-16,32
	C131.508,476.762,125.856,480.004,119.988,480.004z"/>
<path d="M375.987,416.004c-2.404,0-4.846-0.545-7.143-1.693c-7.903-3.951-11.107-13.562-7.155-21.466l24-48
	c3.95-7.903,13.562-11.107,21.466-7.155c7.903,3.951,11.107,13.562,7.155,21.466l-24,48
	C387.508,412.762,381.856,416.004,375.987,416.004z"/>
<path d="M399.987,480.004c-2.404,0-4.846-0.545-7.143-1.693c-7.903-3.951-11.107-13.562-7.155-21.466l16-32
	c3.951-7.903,13.562-11.107,21.466-7.155c7.903,3.951,11.107,13.562,7.155,21.466l-16,32
	C411.508,476.762,405.856,480.004,399.987,480.004z"/>
<path d="M239.998,496.001c-1.627,0-3.272-0.249-4.881-0.765C228.494,493.115,224,486.956,224,480v-64h-32
	c-4.703,0-9.168-2.069-12.208-5.658s-4.347-8.333-3.574-12.973l16-96c1.453-8.715,9.693-14.604,18.413-13.151
	c8.716,1.453,14.604,9.696,13.152,18.413L210.887,384H240c8.836,0,16,7.163,16,16v30.072L288.909,384H272
	c-4.927,0-9.579-2.27-12.611-6.153s-4.106-8.947-2.911-13.728l16-64c2.144-8.571,10.83-13.782,19.403-11.642
	c8.572,2.144,13.784,10.83,11.642,19.403L292.492,352H320c5.993,0,11.484,3.35,14.227,8.679s2.276,11.744-1.207,16.621l-80,112
	C249.959,493.585,245.068,496.001,239.998,496.001z"/>
<path d="M404.33,320H122.8C63.91,320,16,272.148,16,213.33c0-56.684,44.51-103.183,100.455-106.474
	C140.647,52.067,195.32,16,255.868,16c0.051,0,0.096,0,0.147,0c37.731,0,74.042,13.847,102.229,38.99
	c24.439,21.8,41.02,50.484,47.593,81.912C455.692,137.708,496,178.461,496,228.44C496,278.926,454.877,320,404.33,320z
	 M122.8,138.67c-41.245,0-74.8,33.492-74.8,74.66C48,254.503,81.555,288,122.8,288h281.53c32.902,0,59.67-26.719,59.67-59.561
	c0-32.836-26.768-59.55-59.67-59.55H392.2c-8.159,0-15.011-6.139-15.904-14.249c-3.201-29.08-17.177-55.989-39.353-75.771
	C314.627,58.963,285.881,48,256,48c-0.037,0-0.079,0-0.116,0c-50.833,0-96.402,32.149-113.439,80.033
	c-2.269,6.377-8.305,10.637-15.074,10.637H122.8z"/>
</svg>
