<?xml version="1.0" encoding="iso-8859-1"?>
<!-- Generator: Adobe Illustrator 24.3.0, SVG Export Plug-In . SVG Version: 6.00 Build 0)  -->
<svg version="1.1" id="Layer_1" xmlns="http://www.w3.org/2000/svg" xmlns:xlink="http://www.w3.org/1999/xlink" x="0px" y="0px"
	 viewBox="0 0 512 512" style="enable-background:new 0 0 512 512;" xml:space="preserve">
<path d="M96,416c-8.837-0.005-15.996-7.172-15.991-16.009c0.001-2.483,0.58-4.931,1.691-7.151l24-48
	c3.954-7.903,13.567-11.104,21.47-7.15c7.903,3.954,11.104,13.567,7.15,21.47l0,0l-24,48C107.607,412.582,102.063,416.004,96,416z"
	/>
<path d="M120,480c-8.837-0.005-15.996-7.172-15.991-16.009c0.001-2.483,0.58-4.931,1.691-7.151l16-32
	c3.954-7.903,13.567-11.104,21.47-7.15c7.903,3.954,11.104,13.567,7.15,21.47l0,0l-16,32C131.607,476.582,126.063,480.004,120,480z"
	/>
<path d="M376,416c-8.837-0.005-15.996-7.172-15.991-16.009c0.001-2.483,0.58-4.931,1.691-7.151l24-48
	c3.954-7.903,13.567-11.104,21.47-7.15c7.903,3.954,11.104,13.567,7.15,21.47l0,0l-24,48C387.607,412.582,382.063,416.004,376,416z"
	/>
<path d="M400,480c-8.837-0.005-15.996-7.172-15.991-16.009c0.001-2.483,0.58-4.931,1.691-7.151l16-32
	c3.954-7.903,13.567-11.104,21.47-7.15c7.903,3.954,11.104,13.567,7.15,21.47l0,0l-16,32C411.607,476.582,406.063,480.004,400,480z"
	/>
<path d="M405.84,136.9c-6.688-31.693-23.373-60.401-47.6-81.9C295.263-1.339,198.538,4.042,142.199,67.02
	c-10.609,11.859-19.304,25.301-25.769,39.841C60.5,110.16,16,156.65,16,213.33C16,272.15,63.91,320,122.8,320h66.31l-12.89,77.37
	c-1.453,8.716,4.436,16.96,13.152,18.412C190.241,415.927,191.12,416,192,416h32v64c0.015,8.837,7.191,15.988,16.027,15.973
	c5.146-0.009,9.973-2.492,12.973-6.673l80-112c5.136-7.191,3.471-17.183-3.72-22.32c-2.708-1.934-5.952-2.976-9.28-2.98h-27.51l8-32
	h103.84c50.567-0.203,91.395-41.36,91.192-91.927C495.322,178.381,455.522,137.919,405.84,136.9z"/>
</svg>
