<?xml version="1.0" encoding="iso-8859-1"?>
<!-- Generator: Adobe Illustrator 24.3.0, SVG Export Plug-In . SVG Version: 6.00 Build 0)  -->
<svg version="1.1" id="Layer_1" xmlns="http://www.w3.org/2000/svg" xmlns:xlink="http://www.w3.org/1999/xlink" x="0px" y="0px"
	 viewBox="0 0 512 512" style="enable-background:new 0 0 512 512;" xml:space="preserve">
<path d="M195.469,495.989c-5.093,0.001-10.186-1.938-14.062-5.815l-44.13-44.13c-7.292-7.229-7.788-19.092-1.08-26.957
	c9.985-11.627,9.985-28.445,0.035-40.03c-5.341-6.22-12.784-9.986-20.958-10.607c-8.173-0.624-16.1,1.979-22.32,7.319
	c-7.905,6.744-19.768,6.25-27.048-1.095l-44.08-44.08c-7.752-7.752-7.754-20.368-0.003-28.124l180.395-180.354
	c4.343-4.334,9.701-7.641,15.505-9.575c2.254-0.755,4.064-2.57,4.818-4.849c1.944-5.837,5.256-11.197,9.587-15.527l70.339-70.339
	c7.754-7.75,20.368-7.751,28.122-0.005l44.142,44.192c7.287,7.22,7.783,19.085,1.071,26.952
	c-10.402,12.128-9.709,30.429,1.547,41.707c11.294,11.245,29.602,11.917,41.687,1.52c7.917-6.753,19.778-6.257,27.058,1.083
	l44.081,44.082c7.75,7.755,7.751,20.369,0.006,28.122l-70.347,70.345c-4.326,4.328-9.685,7.64-15.494,9.576
	c-2.256,0.755-4.065,2.57-4.819,4.849c-1.944,5.833-5.251,11.19-9.573,15.522L209.534,490.174
	C205.656,494.05,200.562,495.989,195.469,495.989z M167.108,430.622l28.362,28.361l171.836-171.827
	c0.827-0.828,1.469-1.868,1.844-2.994c3.896-11.769,13.265-21.168,25.051-25.114c1.14-0.379,2.171-1.017,3.003-1.849l61.778-61.778
	l-28.346-28.346c-10.182,5.958-21.914,8.946-33.916,8.503c-15.836-0.579-30.739-7.058-41.964-18.243l-0.022-0.022
	c-11.204-11.208-17.707-26.102-18.312-41.937c-0.458-12.01,2.509-23.74,8.47-33.953l-28.367-28.399l-61.772,61.771
	c-0.834,0.834-1.471,1.865-1.843,2.982c-3.896,11.771-13.265,21.171-25.051,25.117c-1.147,0.382-2.187,1.024-3.027,1.863
	L53.019,316.531l28.344,28.345c10.888-6.379,23.461-9.312,36.335-8.335c16.697,1.269,31.901,8.963,42.811,21.667
	c9.757,11.361,15.131,25.866,15.131,40.844C175.64,410.204,172.66,421.095,167.108,430.622z M159.855,423.369l0.073,0.072
	C159.904,423.416,159.879,423.392,159.855,423.369z M88.509,352.022l0.074,0.074C88.559,352.071,88.534,352.046,88.509,352.022z
	 M423.417,159.853c0.023,0.024,0.047,0.048,0.071,0.072L423.417,159.853z M352.061,88.598c0.029,0.029,0.059,0.059,0.088,0.088
	L352.061,88.598z"/>
<path d="M250.5,156.44c-4.095,0-8.189-1.562-11.313-4.687l-16.51-16.51c-6.249-6.248-6.249-16.379,0-22.627
	c6.248-6.249,16.379-6.249,22.627,0l16.51,16.51c6.249,6.248,6.249,16.379,0,22.627C258.689,154.878,254.595,156.44,250.5,156.44z"
	/>
<path d="M294.52,200.46c-4.093,0-8.185-1.56-11.309-4.681l-11.01-11c-6.251-6.246-6.256-16.376-0.01-22.627
	c6.245-6.252,16.376-6.255,22.627-0.01l11.01,11c6.251,6.246,6.256,16.376,0.01,22.627
	C302.714,198.896,298.616,200.46,294.52,200.46z"/>
<path d="M338.54,244.49c-4.098,0-8.194-1.564-11.319-4.691l-11-11.01c-6.245-6.251-6.24-16.382,0.011-22.627
	c6.252-6.246,16.382-6.241,22.628,0.01l11,11.01c6.245,6.251,6.24,16.382-0.011,22.627C346.725,242.93,342.633,244.49,338.54,244.49
	z"/>
<path d="M388.07,294.01c-4.095,0-8.189-1.562-11.313-4.686l-16.511-16.51c-6.248-6.249-6.249-16.379-0.001-22.628
	c6.25-6.248,16.38-6.249,22.628,0l16.511,16.509c6.248,6.249,6.249,16.379,0.001,22.628
	C396.261,292.448,392.165,294.01,388.07,294.01z"/>
</svg>
