<?xml version="1.0" encoding="iso-8859-1"?>
<!-- Generator: Adobe Illustrator 24.3.0, SVG Export Plug-In . SVG Version: 6.00 Build 0)  -->
<svg version="1.1" id="Layer_1" xmlns="http://www.w3.org/2000/svg" xmlns:xlink="http://www.w3.org/1999/xlink" x="0px" y="0px"
	 viewBox="0 0 512 512" style="enable-background:new 0 0 512 512;" xml:space="preserve">
<path d="M490.18,181.4l-44.13-44.13c-7.38-7.281-19.101-7.715-27-1c-12.197,10.382-30.315,9.686-41.68-1.6l0,0
	c-11.28-11.364-11.976-29.474-1.6-41.67c6.715-7.899,6.281-19.62-1-27L330.6,21.82c-7.772-7.757-20.358-7.757-28.13,0l-70.35,70.34
	c-4.343,4.359-7.619,9.664-9.57,15.5c-0.77,2.274-2.556,4.06-4.83,4.83c-5.838,1.951-11.144,5.23-15.5,9.58l-180.4,180.4
	c-7.757,7.772-7.757,20.358,0,28.13L66,374.73c7.38,7.281,19.101,7.715,27,1c12.85-11.053,32.227-9.595,43.28,3.255
	c9.897,11.506,9.897,28.519,0,40.025c-6.715,7.899-6.281,19.62,1,27l44.13,44.13c7.772,7.757,20.358,7.757,28.13,0l180.4-180.4
	c4.347-4.354,7.626-9.656,9.58-15.49c0.767-2.282,2.558-4.073,4.84-4.84c5.833-1.952,11.135-5.227,15.49-9.57l70.34-70.35
	C497.918,201.72,497.914,189.165,490.18,181.4z M261.81,151.75c-6.248,6.249-16.378,6.25-22.627,0.003
	c-0.001-0.001-0.002-0.002-0.003-0.003l-11.51-11.51c-6.155-6.34-6.005-16.47,0.335-22.625c6.21-6.028,16.087-6.026,22.295,0.005
	l11.51,11.5c6.249,6.248,6.25,16.378,0.003,22.627C261.812,151.748,261.811,151.749,261.81,151.75z M305.81,195.75
	c-6.248,6.243-16.372,6.243-22.62,0l-11-11c-6.249-6.249-6.249-16.381,0-22.63s16.381-6.249,22.63,0l11,11
	c6.26,6.237,6.279,16.367,0.043,22.627c-0.011,0.011-0.022,0.022-0.033,0.033L305.81,195.75z M349.81,239.75
	c-6.248,6.249-16.378,6.25-22.627,0.003c-0.001-0.001-0.002-0.002-0.003-0.003l-11-11c-6.155-6.34-6.005-16.47,0.336-22.625
	c6.21-6.028,16.087-6.026,22.294,0.005l11,11c6.274,6.223,6.315,16.353,0.093,22.627c-0.014,0.014-0.028,0.029-0.043,0.043
	L349.81,239.75z M394.24,284.29c-6.248,6.249-16.378,6.25-22.627,0.003c-0.001-0.001-0.002-0.002-0.003-0.003l-11.44-11.5
	c-6.323-6.173-6.444-16.303-0.271-22.626c6.173-6.323,16.303-6.444,22.626-0.271c0.11,0.107,0.218,0.216,0.325,0.327l11.45,11.49
	c6.246,6.25,6.243,16.381-0.007,22.627c-0.001,0.001-0.002,0.002-0.003,0.003L394.24,284.29z"/>
</svg>
