<?xml version="1.0" encoding="iso-8859-1"?>
<!-- Generator: Adobe Illustrator 24.3.0, SVG Export Plug-In . SVG Version: 6.00 Build 0)  -->
<svg version="1.1" id="Layer_1" xmlns="http://www.w3.org/2000/svg" xmlns:xlink="http://www.w3.org/1999/xlink" x="0px" y="0px"
	 viewBox="0 0 512 512" style="enable-background:new 0 0 512 512;" xml:space="preserve">
<path d="M426.24,127.72l-10.94,10.94c-11.598,11.598-30.402,11.598-42,0s-11.598-30.402,0-42l0,0l10.94-10.94L314.52,16l-88,88
	l-4,12.09l-12.09,4L16,314.52l69.76,69.76l10.94-10.94c11.598-11.598,30.402-11.598,42,0s11.598,30.402,0,42l0,0l-10.94,10.94
	L197.48,496l194.4-194.4l4-12.09l12.09-4l88-88L426.24,127.72z M217.68,133.15l21.87-21.87l33,33l-21.88,21.87L217.68,133.15z
	 M260.68,176.15l21.88-21.88l32.52,32.52l-21.88,21.88L260.68,176.15z M303.24,218.71l21.88-21.88l32.52,32.52l-21.84,21.93
	L303.24,218.71z M378.81,294.27l-33-33l21.87-21.88l33,33L378.81,294.27z"/>
</svg>
