<?xml version="1.0" encoding="iso-8859-1"?>
<!-- Generator: Adobe Illustrator 24.3.0, SVG Export Plug-In . SVG Version: 6.00 Build 0)  -->
<svg version="1.1" id="Layer_1" xmlns="http://www.w3.org/2000/svg" xmlns:xlink="http://www.w3.org/1999/xlink" x="0px" y="0px"
	 viewBox="0 0 512 512" style="enable-background:new 0 0 512 512;" xml:space="preserve">
<path d="M256.371,464c-0.136,0-0.266,0-0.401,0c-55.901-0.105-108.437-22.196-147.929-62.205
	c-39.334-39.848-60.657-92.399-60.04-147.973c0.519-50.432,19.338-98.912,52.989-136.495c5.894-6.584,16.009-7.143,22.593-1.247
	c6.583,5.895,7.142,16.01,1.247,22.593c-28.47,31.797-44.392,72.813-44.831,115.492c-0.521,46.984,17.525,91.426,50.816,125.15
	c33.448,33.886,77.917,52.597,125.215,52.686c0.111,0,0.228,0,0.339,0c46.835,0.001,90.847-18.192,123.969-51.252
	C413.652,347.497,432,303.193,432,256c0-46.299-17.83-90.022-50.206-123.118C352.256,102.688,313.636,84.402,272,80.664V152
	c0,8.836-7.163,16-16,16c-8.836,0-16-7.164-16-16l0.005-84.09c0.001-0.068,0.003-0.137,0.005-0.205
	c0.174-5.437,2.456-10.479,6.424-14.2c3.943-3.697,9.101-5.642,14.48-5.5c54.511,1.266,105.564,23.461,143.755,62.5
	C442.929,149.615,464,201.286,464,256c0,55.751-21.684,108.098-61.056,147.397C363.781,442.486,311.738,463.999,256.371,464z"/>
<path d="M233.38,278.63l-79-113c-2.57-3.682-1.669-8.75,2.013-11.32c2.796-1.951,6.512-1.951,9.307,0l113,79
	c14.565,10.49,17.869,30.801,7.379,45.366c-10.285,14.281-30.069,17.78-44.629,7.894C238.325,284.405,235.596,281.719,233.38,278.63
	z"/>
</svg>
