<?xml version="1.0" encoding="iso-8859-1"?>
<!-- Generator: Adobe Illustrator 24.3.0, SVG Export Plug-In . SVG Version: 6.00 Build 0)  -->
<svg version="1.1" id="Layer_1" xmlns="http://www.w3.org/2000/svg" xmlns:xlink="http://www.w3.org/1999/xlink" x="0px" y="0px"
	 viewBox="0 0 512 512" style="enable-background:new 0 0 512 512;" xml:space="preserve">
<path d="M256,48C141.12,48,48,141.12,48,256s93.12,208,208,208s208-93.12,208-208S370.88,48,256,48z M256,432
	c-97,0-176-78.95-176-176c-0.167-47.837,19.307-93.646,53.87-126.72L279,233l-19,30l-125-91c-13,23-26.7,46-26.7,84
	c0,81.44,66.26,147.7,147.7,147.7S403.7,337.44,403.7,256c0-76.67-58.72-139.88-133.55-147v55h-28.3V79.89
	C246.09,79.96,250.79,80,256,80c97.05,0,176,79,176,176S353.05,432,256,432z"/>
</svg>
