<?xml version="1.0" encoding="iso-8859-1"?>
<!-- Generator: Adobe Illustrator 24.3.0, SVG Export Plug-In . SVG Version: 6.00 Build 0)  -->
<svg version="1.1" id="Layer_1" xmlns="http://www.w3.org/2000/svg" xmlns:xlink="http://www.w3.org/1999/xlink" x="0px" y="0px"
	 viewBox="0 0 512 512" style="enable-background:new 0 0 512 512;" xml:space="preserve">
<path d="M256,48C141.12,48,48,141.12,48,256s93.12,208,208,208s208-93.12,208-208S370.88,48,256,48z M173.67,162.34l105,71
	c14.565,10.49,17.869,30.801,7.379,45.366c-10.285,14.281-30.069,17.78-44.629,7.894c-3.105-2.189-5.811-4.895-8-8l-71-105
	c-2.57-3.682-1.669-8.75,2.013-11.32c2.796-1.951,6.512-1.951,9.307,0L173.67,162.34z M256,432c-97,0-176-78.95-176-176
	c-0.167-47.837,19.307-93.646,53.87-126.72c5.534-5.517,14.494-5.504,20.011,0.031c5.517,5.534,5.504,14.494-0.031,20.011
	c-0.112,0.111-0.225,0.221-0.34,0.328c-29.003,27.76-45.345,66.203-45.21,106.35c0,81.44,66.26,147.7,147.7,147.7
	S403.7,337.44,403.7,256c0-76.67-58.72-139.88-133.55-147v55c0,7.815-6.335,14.15-14.15,14.15c-7.815,0-14.15-6.335-14.15-14.15
	V94.15c0-7.815,6.335-14.15,14.15-14.15c97.05,0,176,79,176,176S353.05,432,256,432z"/>
</svg>
