<?xml version="1.0" encoding="iso-8859-1"?>
<!-- Generator: Adobe Illustrator 24.3.0, SVG Export Plug-In . SVG Version: 6.00 Build 0)  -->
<svg version="1.1" id="Layer_1" xmlns="http://www.w3.org/2000/svg" xmlns:xlink="http://www.w3.org/1999/xlink" x="0px" y="0px"
	 viewBox="0 0 512 512" style="enable-background:new 0 0 512 512;" xml:space="preserve">
<path d="M256,48C141.13,48,48,141.13,48,256c0,114.69,93.32,208,208,208c114.86,0,208-93.14,208-208C464,141.31,370.69,48,256,48z
	 M364,288H244c-2.209,0-4-1.791-4-4V116c0-2.209,1.791-4,4-4h24c2.209,0,4,1.791,4,4v140h92c2.209,0,4,1.791,4,4v24
	C368,286.209,366.209,288,364,288z"/>
</svg>
