<?xml version="1.0" encoding="iso-8859-1"?>
<!-- Generator: Adobe Illustrator 24.3.0, SVG Export Plug-In . SVG Version: 6.00 Build 0)  -->
<svg version="1.1" id="Layer_1" xmlns="http://www.w3.org/2000/svg" xmlns:xlink="http://www.w3.org/1999/xlink" x="0px" y="0px"
	 viewBox="0 0 512 512" style="enable-background:new 0 0 512 512;" xml:space="preserve">
<path d="M416,480H96c-35.29,0-64-28.71-64-64V128c0-35.29,28.71-64,64-64h320c35.29,0,64,28.71,64,64v288
	C480,451.29,451.29,480,416,480z M96,96c-17.645,0-32,14.355-32,32v288c0,17.645,14.355,32,32,32h320c17.645,0,32-14.355,32-32V128
	c0-17.645-14.355-32-32-32H96z"/>
<path d="M128,96c-8.836,0-16-7.164-16-16V48c0-8.836,7.164-16,16-16s16,7.164,16,16v32C144,88.836,136.836,96,128,96z"/>
<path d="M384,96c-8.837,0-16-7.164-16-16V48c0-8.836,7.163-16,16-16s16,7.164,16,16v32C400,88.836,392.837,96,384,96z"/>
<path d="M195,336h-70c-15.991,0-29-13.01-29-29V237c0-15.991,13.009-29,29-29h70c15.991,0,29,13.009,29,29V307
	C224,322.991,210.991,336,195,336z M128,304h64V240h-64V304z M195,240h0.01H195z"/>
<path d="M464,176H48c-8.836,0-16-7.164-16-16s7.164-16,16-16h416c8.837,0,16,7.164,16,16S472.837,176,464,176z"/>
</svg>
