<?xml version="1.0" encoding="iso-8859-1"?>
<!-- Generator: Adobe Illustrator 24.3.0, SVG Export Plug-In . SVG Version: 6.00 Build 0)  -->
<svg version="1.1" id="Layer_1" xmlns="http://www.w3.org/2000/svg" xmlns:xlink="http://www.w3.org/1999/xlink" x="0px" y="0px"
	 viewBox="0 0 512 512" style="enable-background:new 0 0 512 512;" xml:space="preserve">
<path d="M32,456c0,13.255,10.745,24,24,24h400c13.255,0,24-10.745,24-24V176H32V456z M112,217.14c0-5.048,4.092-9.14,9.14-9.14
	h109.72c5.048,0,9.14,4.092,9.14,9.14v109.72c0,5.048-4.092,9.14-9.14,9.14h0H121.14c-5.048,0-9.14-4.092-9.14-9.14l0,0V217.14z"/>
<path d="M456,64h-55.92V32h-48v32H159.92V32h-48v32H56c-13.144-0.11-23.889,10.455-23.999,23.599C32,87.656,32,87.713,32,87.77V144
	h448V87.77c-0.016-13.144-10.685-23.787-23.829-23.771C456.114,63.999,456.057,64,456,64z"/>
</svg>
