<?xml version="1.0" encoding="iso-8859-1"?>
<!-- Generator: Adobe Illustrator 24.3.0, SVG Export Plug-In . SVG Version: 6.00 Build 0)  -->
<svg version="1.1" id="Layer_1" xmlns="http://www.w3.org/2000/svg" xmlns:xlink="http://www.w3.org/1999/xlink" x="0px" y="0px"
	 viewBox="0 0 512 512" style="enable-background:new 0 0 512 512;" xml:space="preserve">
<path d="M416,64h-16V48.45c0-8.61-6.62-16-15.23-16.43c-8.826-0.425-16.326,6.385-16.751,15.211C368.006,47.488,368,47.744,368,48
	v16H144V48.45c0-8.61-6.62-16-15.23-16.43c-8.826-0.425-16.326,6.385-16.751,15.211C112.006,47.488,112,47.744,112,48v16H96
	c-35.346,0-64,28.654-64,64v12c0,2.209,1.791,4,4,4h440c2.209,0,4-1.791,4-4v-12C480,92.654,451.346,64,416,64z"/>
<path d="M477,176H35c-1.657,0-3,1.343-3,3v237c0,35.346,28.654,64,64,64h320c35.346,0,64-28.654,64-64V179
	C480,177.343,478.657,176,477,176z M224,307.43c0,15.779-12.791,28.57-28.57,28.57h0h-70.86C108.791,336,96,323.209,96,307.43l0,0
	v-70.86c0-15.779,12.791-28.57,28.57-28.57h0h70.86c15.779,0,28.57,12.791,28.57,28.57v0V307.43z"/>
</svg>
