<?xml version="1.0" encoding="iso-8859-1"?>
<!-- Generator: Adobe Illustrator 24.3.0, SVG Export Plug-In . SVG Version: 6.00 Build 0)  -->
<svg version="1.1" id="Layer_1" xmlns="http://www.w3.org/2000/svg" xmlns:xlink="http://www.w3.org/1999/xlink" x="0px" y="0px"
	 viewBox="0 0 512 512" style="enable-background:new 0 0 512 512;" xml:space="preserve">
<path d="M368,400C288.599,400,224,335.402,224,256s64.599-144,144-144s144,64.598,144,144S447.401,400,368,400z M368,144
	c-61.757,0-112,50.243-112,112C256,317.757,306.243,368,368,368S480,317.757,480,256C480,194.243,429.757,144,368,144z"/>
<path d="M368,400H144C64.598,400,0,335.402,0,256s64.598-144,144-144h224c79.401,0,144,64.598,144,144S447.401,400,368,400z
	 M144,144c-61.757,0-112,50.243-112,112C32,317.757,82.243,368,144,368h224c61.757,0,112-50.243,112-112.001
	c0-61.757-50.243-112-112-112H144z"/>
</svg>
