<?xml version="1.0" encoding="iso-8859-1"?>
<!-- Generator: Adobe Illustrator 24.3.0, SVG Export Plug-In . SVG Version: 6.00 Build 0)  -->
<svg version="1.1" id="Layer_1" xmlns="http://www.w3.org/2000/svg" xmlns:xlink="http://www.w3.org/1999/xlink" x="0px" y="0px"
	 viewBox="0 0 512 512" style="enable-background:new 0 0 512 512;" xml:space="preserve">
<path d="M256,480c-8.836,0-16-7.163-16-16v-64c0-8.837,7.164-16,16-16c8.837,0,16,7.163,16,16v64C272,472.837,264.837,480,256,480z"
	/>
<path d="M256,288c-8.836,0-16-7.163-16-16V208c0-8.836,7.164-16,16-16c8.837,0,16,7.164,16,16V272C272,280.837,264.837,288,256,288z
	"/>
<path d="M256,96c-8.836,0-16-7.164-16-16V48c0-8.836,7.164-16,16-16c8.837,0,16,7.164,16,16v32C272,88.836,264.837,96,256,96z"/>
<path d="M102.623,224c-8.547,0-16.584-3.331-22.63-9.38l-59.307-59.307c-6.248-6.248-6.248-16.379,0-22.627l59.31-59.31
	C86.038,67.331,94.076,64,102.628,64c0.001,0,0.002,0,0.004,0H416c17.645,0,32,14.355,32,32v96c0,17.645-14.355,32-32,32H102.63
	C102.628,224,102.625,224,102.623,224z M54.627,144l47.997,47.997L416,192c0.014,0,0.021-0.001,0.021-0.001L416,96H102.63
	L54.627,144z"/>
<path d="M409.37,416H96c-17.645,0-32-14.355-32-32v-96c0-17.645,14.355-32,32-32h313.37c0.002,0,0.005,0,0.008,0
	c8.546,0,16.582,3.33,22.628,9.378l59.308,59.309c6.249,6.248,6.249,16.379,0,22.627l-59.31,59.31
	C425.963,412.669,417.923,416,409.37,416z M96,288v96h313.37l48.002-48l-47.995-47.997L96,288z"/>
</svg>
