<?xml version="1.0" encoding="iso-8859-1"?>
<!-- Generator: Adobe Illustrator 24.3.0, SVG Export Plug-In . SVG Version: 6.00 Build 0)  -->
<svg version="1.1" id="Layer_1" xmlns="http://www.w3.org/2000/svg" xmlns:xlink="http://www.w3.org/1999/xlink" x="0px" y="0px"
	 viewBox="0 0 512 512" style="enable-background:new 0 0 512 512;" xml:space="preserve">
<path d="M256,432c-1.083,0-2.166-0.11-3.232-0.33c-1.506-0.311-37.315-7.747-73.766-19.733C121.599,393.062,96,374.268,96,351V104
	c0.113-39.609,32.391-71.887,71.955-72h12.34c5.541-9.558,15.885-16,27.706-16h96c11.82,0,22.165,6.442,27.705,16H344
	c39.701,0,72,32.299,72,72v247c0,23.268-25.599,42.062-83.002,60.937c-36.45,11.986-72.26,19.423-73.766,19.733
	C258.166,431.89,257.083,432,256,432z M128,350.535c0.819,1.625,8.857,14.384,65.294,32.396
	c27.101,8.649,53.679,14.728,62.706,16.706c9.026-1.978,35.604-8.057,62.705-16.706c56.438-18.012,64.477-30.771,65.295-32.396V104
	c0-22.056-17.944-40-40-40h-24c-8.837,0-16-7.164-16-16h-96c0,8.836-7.164,16-16,16h-24c-21.973,0.062-39.938,18.027-40,40.045
	V350.535z M384.079,350.36L384.079,350.36L384.079,350.36z M127.92,350.36L127.92,350.36L127.92,350.36z M256,368
	c-35.29,0-64-28.71-64-64S220.71,240,256,240c35.29,0,64,28.71,64,64.001S291.29,368,256,368z M256,271.999
	c-17.645,0-32,14.355-32,32.001c0,17.645,14.355,32,32,32c17.645,0,32-14.355,32-32C288,286.355,273.645,271.999,256,271.999z
	 M336,224H176c-17.645,0-32-14.355-32-32v-64c0-17.645,14.355-32,32-32h160c17.645,0,32,14.355,32,32v64
	C368,209.645,353.645,224,336,224z M176,128v64h160v-64H176z"/>
<path d="M368,480H144c-8.836,0-16-7.163-16-16s7.164-16,16-16h224c8.837,0,16,7.163,16,16S376.837,480,368,480z"/>
<path d="M384,496c-4.095,0-8.189-1.562-11.313-4.687l-48-48c-6.249-6.248-6.249-16.379,0-22.627c6.248-6.248,16.379-6.248,22.627,0
	l48,48c6.249,6.248,6.249,16.379,0,22.627C392.189,494.438,388.095,496,384,496z"/>
<path d="M128,496c-4.095,0-8.189-1.562-11.313-4.687c-6.249-6.248-6.249-16.379,0-22.627l48-48c6.248-6.248,16.379-6.248,22.627,0
	c6.249,6.248,6.249,16.379,0,22.627l-48,48C136.189,494.438,132.095,496,128,496z"/>
</svg>
