<?xml version="1.0" encoding="iso-8859-1"?>
<!-- Generator: Adobe Illustrator 24.3.0, SVG Export Plug-In . SVG Version: 6.00 Build 0)  -->
<svg version="1.1" id="Layer_1" xmlns="http://www.w3.org/2000/svg" xmlns:xlink="http://www.w3.org/1999/xlink" x="0px" y="0px"
	 viewBox="0 0 512 512" style="enable-background:new 0 0 512 512;" xml:space="preserve">
<path d="M491.31,324.69L432,265.37c-5.99-6.02-14.138-9.394-22.63-9.37H272v-32h144c17.673,0,32-14.327,32-32V96
	c0-17.673-14.327-32-32-32H272V48c0-8.837-7.163-16-16-16c-8.837,0-16,7.163-16,16v16H102.63c-8.492-0.024-16.64,3.35-22.63,9.37
	l-59.31,59.32c-6.243,6.248-6.243,16.372,0,22.62L80,214.63c5.99,6.02,14.138,9.394,22.63,9.37H240v32H96c-17.673,0-32,14.327-32,32
	v96c0,17.673,14.327,32,32,32h144v48c0,8.837,7.163,16,16,16c8.837,0,16-7.163,16-16v-48h137.37c8.492,0.023,16.64-3.35,22.63-9.37
	l59.31-59.32C497.553,341.063,497.553,330.938,491.31,324.69z"/>
</svg>
