<?xml version="1.0" encoding="iso-8859-1"?>
<!-- Generator: Adobe Illustrator 24.3.0, SVG Export Plug-In . SVG Version: 6.00 Build 0)  -->
<svg version="1.1" id="Layer_1" xmlns="http://www.w3.org/2000/svg" xmlns:xlink="http://www.w3.org/1999/xlink" x="0px" y="0px"
	 viewBox="0 0 512 512" style="enable-background:new 0 0 512 512;" xml:space="preserve">
<path d="M384,32h-64c0-8.837-7.163-16-16-16h-96c-8.837,0-16,7.163-16,16h-64c-16,0-32,16-32,32v288c0,23.92,160,80,160,80
	s160-56.74,160-80V64C416,48,400,32,384,32z M256,352c-26.51,0-48-21.49-48-48s21.49-48,48-48s48,21.49,48,48S282.51,352,256,352z
	 M368,200c0,4.418-3.582,8-8,8H152c-4.418,0-8-3.582-8-8v-80c0-4.418,3.582-8,8-8h208c4.418,0,8,3.582,8,8V200z"/>
<polygon points="314,432 329.32,448 182.58,448 198,432 166,419 89.38,496 134.58,496 150.58,480 361.32,480 377.32,496 422.62,496 
	346.26,418.25 "/>
</svg>
