<?xml version="1.0" encoding="iso-8859-1"?>
<!-- Generator: Adobe Illustrator 24.3.0, SVG Export Plug-In . SVG Version: 6.00 Build 0)  -->
<svg version="1.1" id="Layer_1" xmlns="http://www.w3.org/2000/svg" xmlns:xlink="http://www.w3.org/1999/xlink" x="0px" y="0px"
	 viewBox="0 0 512 512" style="enable-background:new 0 0 512 512;" xml:space="preserve">
<ellipse transform="matrix(0.7071 -0.7071 0.7071 0.7071 -139.9807 270.0591)" cx="256" cy="304.001" rx="32.05" ry="31.94"/>
<path d="M352,32h-15c-3.064,0.012-5.964-1.381-7.87-3.78C323.074,20.504,313.809,15.999,304,16h-96
	c-10.381,0.005-20.115,5.045-26.11,13.52c-1.135,1.567-2.956,2.49-4.89,2.48h-17c-36.81,0-64,28.84-64,64v255
	c0,23.27,25.6,42.06,83,60.94c24.24,7.82,48.862,14.405,73.77,19.73c2.131,0.439,4.329,0.439,6.46,0
	c24.908-5.325,49.53-11.91,73.77-19.73c57.4-18.88,83-37.67,83-60.94V96C416,60.654,387.346,32,352,32z M184,128h144
	c4.418,0,8,3.582,8,8v48c0,4.418-3.582,8-8,8H184c-4.418,0-8-3.582-8-8v-48C176,131.582,179.582,128,184,128z M260.18,367.87
	c-35.271,2.305-65.732-24.419-68.038-59.69c-2.305-35.271,24.419-65.732,59.69-68.038c35.271-2.305,65.732,24.419,68.038,59.69
	c0.182,2.78,0.182,5.568,0,8.348C317.745,340.224,292.224,365.745,260.18,367.87z"/>
<path d="M395.31,468.69L347.63,421c-6.09-6.1-16-6.66-22.38-0.86c-6.543,5.939-7.032,16.058-1.093,22.601
	c0.173,0.191,0.351,0.377,0.533,0.559l4.68,4.69H182.63l4.36-4.37c6.1-6.09,6.66-16,0.86-22.38
	c-5.939-6.543-16.058-7.032-22.601-1.093c-0.191,0.173-0.377,0.351-0.559,0.533l-48,48c-6.406,6.086-6.666,16.214-0.579,22.62
	c6.086,6.406,16.214,6.666,22.62,0.579c0.198-0.188,0.391-0.381,0.579-0.579l11.32-11.3h210.74l11.32,11.31
	c6.406,6.086,16.534,5.827,22.62-0.579C401.177,484.555,401.177,474.866,395.31,468.69z"/>
</svg>
