<?xml version="1.0" encoding="iso-8859-1"?>
<!-- Generator: Adobe Illustrator 24.3.0, SVG Export Plug-In . SVG Version: 6.00 Build 0)  -->
<svg version="1.1" id="Layer_1" xmlns="http://www.w3.org/2000/svg" xmlns:xlink="http://www.w3.org/1999/xlink" x="0px" y="0px"
	 viewBox="0 0 512 512" style="enable-background:new 0 0 512 512;" xml:space="preserve">
<path d="M480,448.94l-48.94-49.08L464,366.92l-31.1-31.11l-32.9,32.9l-23.55-23.61c39.318-52.998,39.277-125.496-0.1-178.45
	l59.55-59.56V144h44V32h-112v44h36.87l-59.55,59.55c-53.006-39.414-125.584-39.414-178.59,0l-7.55-7.55l33-33L161,63.88l-33,33
	L107.09,76H144V32H32v112h44v-36.91L96.87,128l-33,33L95,192.05l33-33l7.56,7.57c-19.23,25.805-29.599,57.138-29.56,89.32
	c0,82.69,67.27,150,150,150c32.237,0.038,63.617-10.372,89.44-29.67l23.51,23.58l-33.14,33.05l31.11,31.1l33-33l48.9,49L480,448.94z
	 M150,255.94c0-58.542,47.458-106,106-106s106,47.458,106,106s-47.458,106-106,106C197.478,361.89,150.05,314.462,150,255.94z"/>
</svg>
