<?xml version="1.0" encoding="iso-8859-1"?>
<!-- Generator: Adobe Illustrator 24.3.0, SVG Export Plug-In . SVG Version: 6.00 Build 0)  -->
<svg version="1.1" id="Layer_1" xmlns="http://www.w3.org/2000/svg" xmlns:xlink="http://www.w3.org/1999/xlink" x="0px" y="0px"
	 viewBox="0 0 512 512" style="enable-background:new 0 0 512 512;" xml:space="preserve">
<path d="M256,400C176.598,400,112,335.402,112,256s64.598-144,144-144c79.401,0,144,64.598,144,144S335.401,400,256,400z M256,144
	c-61.757,0-112,50.243-112,112C144,317.757,194.243,368,256,368S368,317.757,368,256C368,194.243,317.757,144,256,144z"/>
<path d="M352,464c-4.095,0-8.189-1.562-11.313-4.687c-6.249-6.248-6.249-16.379,0-22.627l96-96c6.248-6.248,16.379-6.248,22.627,0
	c6.249,6.248,6.249,16.379,0,22.627l-96,96C360.189,462.438,356.095,464,352,464z"/>
<path d="M80.02,191.98c-4.095,0-8.189-1.562-11.313-4.687c-6.249-6.248-6.249-16.379,0-22.627l95.98-95.98
	c6.248-6.249,16.379-6.249,22.627,0c6.249,6.248,6.249,16.379,0,22.627l-95.98,95.98C88.209,190.418,84.115,191.98,80.02,191.98z"/>
<path d="M464,144c-8.837,0-16-7.164-16-16V64h-64c-8.837,0-16-7.164-16-16s7.163-16,16-16h80c8.837,0,16,7.164,16,16v80
	C480,136.836,472.837,144,464,144z"/>
<path d="M48,144c-8.836,0-16-7.164-16-16V48c0-8.836,7.164-16,16-16h80c8.836,0,16,7.164,16,16s-7.164,16-16,16H64v64
	C64,136.836,56.836,144,48,144z"/>
<path d="M346.5,181.5c-4.095,0-8.189-1.562-11.313-4.687c-6.249-6.248-6.249-16.379,0-22.627l117.5-117.5
	c6.248-6.249,16.379-6.249,22.627,0c6.249,6.248,6.249,16.379,0,22.627l-117.5,117.5C354.689,179.938,350.595,181.5,346.5,181.5z"/>
<path d="M165.49,181.49c-4.095,0-8.189-1.562-11.313-4.687L36.687,59.313c-6.249-6.248-6.249-16.379,0-22.627
	c6.248-6.249,16.379-6.249,22.627,0l117.49,117.49c6.249,6.248,6.249,16.379,0,22.627C173.68,179.928,169.585,181.49,165.49,181.49z
	"/>
<path d="M464,480c-4.102,0-8.202-1.567-11.327-4.7l-117.35-117.631c-6.241-6.256-6.229-16.386,0.027-22.627
	c6.256-6.24,16.387-6.229,22.627,0.027l117.35,117.631c6.241,6.256,6.229,16.386-0.027,22.627C472.177,478.443,468.088,480,464,480z
	"/>
</svg>
