<?xml version="1.0" encoding="iso-8859-1"?>
<!-- Generator: Adobe Illustrator 24.3.0, SVG Export Plug-In . SVG Version: 6.00 Build 0)  -->
<svg version="1.1" id="Layer_1" xmlns="http://www.w3.org/2000/svg" xmlns:xlink="http://www.w3.org/1999/xlink" x="0px" y="0px"
	 viewBox="0 0 512 512" style="enable-background:new 0 0 512 512;" xml:space="preserve">
<path d="M458,32h-68c-12.15,0-22,9.85-22,22s9.85,22,22,22h14.89l-59.57,59.57c-53.021-39.425-125.619-39.425-178.64,0l-7.57-7.57
	l26.45-26.44c8.594-8.594,8.594-22.526,0-31.12s-22.526-8.594-31.12,0l0,0L128,96.89L107.11,76H122c12.15,0,22-9.85,22-22
	s-9.85-22-22-22H54c-12.15,0-22,9.85-22,22v68c0,12.15,9.85,22,22,22s22-9.85,22-22v-14.89L96.89,128l-26.42,26.42
	c-8.704,8.478-8.887,22.406-0.41,31.11s22.406,8.887,31.11,0.41c0.138-0.135,0.275-0.271,0.41-0.41L128,159.11l7.57,7.57
	C116.337,192.485,105.965,223.817,106,256c0,82.71,67.29,150,150,150c32.243,0.036,63.629-10.374,89.46-29.67L369,399.9
	l-26.54,26.54c-8.594,8.594-8.594,22.526,0,31.12s22.526,8.594,31.12,0l26.49-26.5l42.37,42.48c8.582,8.605,22.515,8.622,31.12,0.04
	s8.622-22.515,0.04-31.12L431.17,400l26.39-26.39c8.594-8.594,8.594-22.526,0-31.12s-22.526-8.594-31.12,0l-26.35,26.35
	l-23.55-23.62c39.322-53.013,39.277-125.525-0.11-178.49L436,107.11V122c0,12.15,9.85,22,22,22s22-9.85,22-22V54
	C480,41.85,470.15,32,458,32z M150,256c0-58.542,47.458-106,106-106s106,47.458,106,106s-47.458,106-106,106
	C197.485,361.934,150.066,314.515,150,256z"/>
</svg>
