<?xml version="1.0" encoding="iso-8859-1"?>
<!-- Generator: Adobe Illustrator 24.3.0, SVG Export Plug-In . SVG Version: 6.00 Build 0)  -->
<svg version="1.1" id="Layer_1" xmlns="http://www.w3.org/2000/svg" xmlns:xlink="http://www.w3.org/1999/xlink" x="0px" y="0px"
	 viewBox="0 0 512 512" style="enable-background:new 0 0 512 512;" xml:space="preserve">
<polygon style="fill:none;" points="337.46,240 312,214.54 256,270.54 200,214.54 174.54,240 230.54,296 174.54,352 200,377.46 
	256,321.46 312,377.46 337.46,352 281.46,296 "/>
<polygon style="fill:none;" points="337.46,240 312,214.54 256,270.54 200,214.54 174.54,240 230.54,296 174.54,352 200,377.46 
	256,321.46 312,377.46 337.46,352 281.46,296 "/>
<path d="M64,160l29.74,282.51c1.285,12.216,11.586,21.491,23.87,21.49h276.78c12.284,0.001,22.585-9.274,23.87-21.49L448,160H64z
	 M312,377.46l-56-56l-56,56L174.54,352l56-56l-56-56L200,214.54l56,56l56-56L337.46,240l-56,56l56,56L312,377.46z"/>
<path d="M44,48h424c6.627,0,12,5.373,12,12v56c0,6.627-5.373,12-12,12H44c-6.627,0-12-5.373-12-12V60C32,53.373,37.373,48,44,48z"/>
</svg>
