<?xml version="1.0" encoding="iso-8859-1"?>
<!-- Generator: Adobe Illustrator 24.3.0, SVG Export Plug-In . SVG Version: 6.00 Build 0)  -->
<svg version="1.1" id="Layer_1" xmlns="http://www.w3.org/2000/svg" xmlns:xlink="http://www.w3.org/1999/xlink" x="0px" y="0px"
	 viewBox="0 0 512 512" style="enable-background:new 0 0 512 512;" xml:space="preserve">
<path style="fill:none;" d="M296,64h-80c-4.368-0.05-7.95,3.451-8,7.819c-0.001,0.06-0.001,0.121,0,0.181v24h96V72
	c0.05-4.368-3.451-7.95-7.819-8C296.121,63.999,296.06,63.999,296,64z"/>
<path d="M432,96h-96V72c0-22.091-17.909-40-40-40h-80c-22.091,0-40,17.909-40,40v24H80c-8.837,0-16,7.163-16,16s7.163,16,16,16h17
	l19,304.92c1.42,26.85,22,47.08,48,47.08h184c26.13,0,46.3-19.78,48-47l19-305h17c8.837,0,16-7.163,16-16S440.837,96,432,96z
	 M192.57,416H192c-8.619,0.005-15.693-6.817-16-15.43l-8-224c-0.315-8.837,6.593-16.255,15.43-16.57
	c8.837-0.315,16.255,6.593,16.57,15.43l8,224c0.32,8.831-6.579,16.249-15.41,16.569C192.584,416,192.577,416,192.57,416z M272,400
	c0,8.837-7.163,16-16,16c-8.837,0-16-7.163-16-16V176c0-8.837,7.163-16,16-16c8.837,0,16,7.163,16,16V400z M304,96h-96V72
	c-0.05-4.368,3.451-7.95,7.819-8c0.06-0.001,0.121-0.001,0.181,0h80c4.368-0.05,7.95,3.451,8,7.819c0.001,0.06,0.001,0.121,0,0.181
	V96z M336,400.57c-0.307,8.613-7.381,15.435-16,15.43h-0.58c-8.831-0.315-15.735-7.728-15.42-16.559c0-0.004,0-0.007,0-0.011l8-224
	c0.315-8.837,7.733-15.745,16.57-15.43c8.837,0.315,15.745,7.733,15.43,16.57L336,400.57z"/>
</svg>
