<svg width="50" height="50" viewBox="0 0 50 50"  xmlns="http://www.w3.org/2000/svg" >
<path fill="red" d="M10.9375 10.9375L12.8906 42.1875C12.9834 43.9932 14.2969 45.3125 16.0156 45.3125H33.9844C35.71 45.3125 36.999 43.9932 37.1094 42.1875L39.0625 10.9375" stroke="white" stroke-width="3" stroke-linecap="round" stroke-linejoin="round"/>
<path fill="red" d="M7.8125 10.9375H42.1875" stroke="white" stroke-width="3" stroke-miterlimit="10" stroke-linecap="round"/>
<path fill="red" d="M18.75 10.9375V7.03126C18.7491 6.72322 18.8091 6.41804 18.9266 6.13328C19.044 5.84851 19.2166 5.58978 19.4345 5.37197C19.6523 5.15415 19.911 4.98154 20.1958 4.86408C20.4805 4.74661 20.7857 4.68661 21.0938 4.68751H28.9063C29.2143 4.68661 29.5195 4.74661 29.8042 4.86408C30.089 4.98154 30.3477 5.15415 30.5656 5.37197C30.7834 5.58978 30.956 5.84851 31.0734 6.13328C31.1909 6.41804 31.2509 6.72322 31.25 7.03126V10.9375" stroke="white" stroke-width="3" stroke-linecap="round" stroke-linejoin="round"/>
<path fill="red" d="M25 17.1875V39.0625" stroke="white" stroke-width="3" stroke-linecap="round" stroke-linejoin="round"/>
<path fill="red" d="M17.9688 17.1875L18.75 39.0625" stroke="white" stroke-width="3" stroke-linecap="round" stroke-linejoin="round"/>
<path fill="red" d="M32.0312 17.1875L31.25 39.0625" stroke="white" stroke-width="3" stroke-linecap="round" stroke-linejoin="round"/>
</svg>
