<?xml version="1.0" encoding="iso-8859-1"?>
<!-- Generator: Adobe Illustrator 24.3.0, SVG Export Plug-In . SVG Version: 6.00 Build 0)  -->
<svg version="1.1" id="Layer_1" xmlns="http://www.w3.org/2000/svg" xmlns:xlink="http://www.w3.org/1999/xlink" x="0px" y="0px"
	 viewBox="0 0 512 512" style="enable-background:new 0 0 512 512;" xml:space="preserve">
<path style="fill:none;" d="M296,64h-80c-4.368-0.05-7.95,3.451-8,7.819c-0.001,0.06-0.001,0.121,0,0.181v24h96V72
	c0.05-4.368-3.451-7.95-7.819-8C296.121,63.999,296.06,63.999,296,64z"/>
<path style="fill:none;" d="M292,64h-72c-2.209,0-4,1.791-4,4v28h80V68C296,65.791,294.209,64,292,64z"/>
<path d="M447.55,96H336V48c0-8.837-7.163-16-16-16H192c-8.837,0-16,7.163-16,16v48H64.45L64,136h33l20.09,314
	c1.055,16.853,15.024,29.986,31.91,30h214c16.876-0.002,30.849-13.109,31.93-29.95L415,136h33L447.55,96z M176,416l-9-256h33l9,256
	H176z M272,416h-32V160h32V416z M296,96h-80V68c0-2.209,1.791-4,4-4h72c2.209,0,4,1.791,4,4V96z M336,416h-33l9-256h33L336,416z"/>
</svg>
