<?xml version="1.0" encoding="iso-8859-1"?>
<!-- Generator: Adobe Illustrator 24.3.0, SVG Export Plug-In . SVG Version: 6.00 Build 0)  -->
<svg version="1.1" id="Layer_1" xmlns="http://www.w3.org/2000/svg" xmlns:xlink="http://www.w3.org/1999/xlink" x="0px" y="0px"
	 viewBox="0 0 512 512" style="enable-background:new 0 0 512 512;" xml:space="preserve">
<path d="M348,480H164c-25.94,0-46.549-20.237-47.974-47.087L96.031,112.998c-0.551-8.819,6.151-16.416,14.971-16.967
	c8.833-0.563,16.416,6.152,16.967,14.971l20,320c0.004,0.059,0.007,0.118,0.01,0.177C148.496,441.241,154.935,448,164,448h184
	c8.968,0,15.409-6.822,16.029-16.976l20.002-320.023c0.552-8.82,8.174-15.526,16.967-14.971c8.819,0.551,15.522,8.147,14.971,16.967
	l-20,320C394.305,460.224,374.131,480,348,480z"/>
<path d="M432,128H80c-8.836,0-16-7.164-16-16s7.164-16,16-16h352c8.837,0,16,7.164,16,16S440.837,128,432,128z"/>
<path d="M320,128c-8.837,0-16-7.164-16-16V71.86c-0.014-4.325-3.576-7.913-7.953-7.86H215.86c-4.326,0.013-7.873,3.581-7.86,7.953
	V112c0,8.836-7.164,16-16,16s-16-7.164-16-16V72c-0.064-21.97,17.795-39.935,39.812-40H296c0.039,0,0.079,0,0.118,0
	c21.917,0,39.816,17.834,39.882,39.812V112C336,120.836,328.837,128,320,128z"/>
<path d="M256,416c-8.836,0-16-7.163-16-16V176c0-8.836,7.164-16,16-16c8.837,0,16,7.164,16,16V400C272,408.837,264.837,416,256,416z
	"/>
<path d="M191.99,416c-8.573,0-15.671-6.792-15.979-15.429l-8-224.001c-0.315-8.831,6.588-16.246,15.418-16.561
	c8.864-0.293,16.246,6.588,16.561,15.418l8,224.001c0.315,8.831-6.588,16.246-15.418,16.562C192.377,415.997,192.182,416,191.99,416
	z"/>
<path d="M320.01,416c-0.192,0-0.387-0.003-0.581-0.01c-8.831-0.315-15.734-7.73-15.419-16.562l8-224.001
	c0.315-8.831,7.766-15.716,16.562-15.418c8.831,0.315,15.734,7.73,15.419,16.561l-8,224.001C335.682,409.207,328.583,416,320.01,416
	z"/>
</svg>
