<?xml version="1.0" encoding="iso-8859-1"?>
<!-- Generator: Adobe Illustrator 24.3.0, SVG Export Plug-In . SVG Version: 6.00 Build 0)  -->
<svg version="1.1" id="Layer_1" xmlns="http://www.w3.org/2000/svg" xmlns:xlink="http://www.w3.org/1999/xlink" x="0px" y="0px"
	 viewBox="0 0 512 512" style="enable-background:new 0 0 512 512;" xml:space="preserve">
<path d="M371.551,464H140.46c-24.333-0.002-44.826-18.226-47.67-42.391c-0.009-0.071-0.017-0.144-0.024-0.215l-28.68-275.74
	c-0.914-8.789,5.47-16.655,14.259-17.569c8.784-0.921,16.655,5.469,17.569,14.259l28.667,275.615
	C125.569,425.97,132.38,432,140.461,432H371.55c8.081,0,14.893-6.032,15.88-14.044l28.656-275.611
	c0.914-8.79,8.783-15.175,17.568-14.259c8.789,0.914,15.174,8.78,14.26,17.569l-28.67,275.739c-0.007,0.072-0.016,0.144-0.023,0.216
	C416.377,445.775,395.883,463.998,371.551,464z"/>
<path d="M464,160H48c-17.645,0-32-14.355-32-32V80c0-17.645,14.355-32,32-32h416c17.645,0,32,14.355,32,32v48
	C496,145.645,481.645,160,464,160z M48,80c-0.014,0-0.02,0.001-0.02,0.001L48,128h416V80H48z"/>
<path d="M200,368c-4.095,0-8.189-1.562-11.313-4.687c-6.249-6.248-6.249-16.379,0-22.627l112-112.001
	c6.248-6.249,16.379-6.249,22.627,0c6.249,6.249,6.249,16.379,0,22.627l-112,112.001C208.189,366.438,204.095,368,200,368z"/>
<path d="M312,368c-4.096,0-8.189-1.562-11.313-4.687l-112-112.001c-6.248-6.248-6.248-16.379,0-22.627
	c6.248-6.248,16.378-6.249,22.627,0l112,112.001c6.249,6.248,6.249,16.379,0,22.627C320.189,366.438,316.095,368,312,368z"/>
</svg>
