<?xml version="1.0" encoding="iso-8859-1"?>
<!-- Generator: Adobe Illustrator 24.3.0, SVG Export Plug-In . SVG Version: 6.00 Build 0)  -->
<svg version="1.1" id="Layer_1" xmlns="http://www.w3.org/2000/svg" xmlns:xlink="http://www.w3.org/1999/xlink" x="0px" y="0px"
	 viewBox="0 0 512 512" style="enable-background:new 0 0 512 512;" xml:space="preserve">
<path d="M64,48h384c17.673,0,32,14.327,32,32v16c0,17.673-14.327,32-32,32H64c-17.673,0-32-14.327-32-32V80
	C32,62.327,46.327,48,64,48z"/>
<path d="M74.45,160c-4.418-0.024-8.019,3.538-8.043,7.957c-0.002,0.292,0.013,0.583,0.043,0.873l26.31,252.56
	c-0.005,0.073-0.005,0.147,0,0.22c2.846,24.18,23.343,42.4,47.69,42.39h231.09c24.339-0.001,44.825-18.218,47.67-42.39v-0.21
	l26.27-252.57c0.458-4.394-2.732-8.328-7.127-8.787c-0.29-0.03-0.582-0.045-0.873-0.043L74.45,160z M323.31,340.69
	c6.338,6.158,6.483,16.287,0.326,22.625s-16.287,6.483-22.625,0.326c-0.112-0.109-0.222-0.219-0.331-0.331L256,318.63l-44.69,44.68
	c-6.338,6.158-16.467,6.012-22.625-0.326c-6.031-6.207-6.033-16.085-0.005-22.294L233.37,296l-44.69-44.69
	c-6.155-6.34-6.005-16.47,0.336-22.625c6.21-6.028,16.087-6.026,22.294,0.005L256,273.37l44.68-44.68
	c6.338-6.158,16.467-6.012,22.625,0.326c6.031,6.207,6.033,16.085,0.005,22.294L278.62,296L323.31,340.69z"/>
</svg>
