<?xml version="1.0" encoding="iso-8859-1"?>
<!-- Generator: Adobe Illustrator 24.3.0, SVG Export Plug-In . SVG Version: 6.00 Build 0)  -->
<svg version="1.1" id="Layer_1" xmlns="http://www.w3.org/2000/svg" xmlns:xlink="http://www.w3.org/1999/xlink" x="0px" y="0px"
	 viewBox="0 0 512 512" style="enable-background:new 0 0 512 512;" xml:space="preserve">
<path d="M464,384H352c-8.837,0-16-7.163-16-16s7.163-16,16-16h96V256c0-8.836,7.163-16,16-16s16,7.164,16,16V368
	C480,376.837,472.837,384,464,384z"/>
<path d="M448,368c-4.096,0-8.189-1.562-11.313-4.687L299.321,225.948c-0.004-0.003-0.007-0.006-0.011-0.01
	c-3.021-3.021-7.039-4.684-11.312-4.684s-8.291,1.665-11.312,4.688l-50.645,50.643c-0.034,0.035-0.069,0.07-0.104,0.105
	c-9.065,9.062-21.118,14.055-33.937,14.055c-0.002,0-0.004,0-0.006,0c-12.822-0.002-24.875-4.996-33.94-14.064L36.687,155.314
	c-6.249-6.249-6.249-16.379,0-22.627c6.249-6.249,16.379-6.249,22.627,0l121.37,121.369c3.023,3.025,7.041,4.689,11.314,4.69
	c0,0,0.001,0,0.002,0c4.238,0,8.226-1.638,11.239-4.613c0.025-0.026,0.051-0.051,0.077-0.077l50.74-50.74
	c9.063-9.065,21.116-14.06,33.938-14.061c0.001,0,0.003,0,0.005,0c12.819,0,24.872,4.991,33.938,14.055
	c0.008,0.008,0.016,0.016,0.023,0.024l137.353,137.353c6.249,6.248,6.249,16.379,0,22.627C456.189,366.438,452.095,368,448,368z"/>
</svg>
