<?xml version="1.0" encoding="iso-8859-1"?>
<!-- Generator: Adobe Illustrator 24.3.0, SVG Export Plug-In . SVG Version: 6.00 Build 0)  -->
<svg version="1.1" id="Layer_1" xmlns="http://www.w3.org/2000/svg" xmlns:xlink="http://www.w3.org/1999/xlink" x="0px" y="0px"
	 viewBox="0 0 512 512" style="enable-background:new 0 0 512 512;" xml:space="preserve">
<path d="M464,272c-8.837,0-16-7.164-16-16.001v-96h-96c-8.837,0-16-7.164-16-16s7.163-16,16-16h112c8.837,0,16,7.164,16,16v112
	C480,264.836,472.837,272,464,272z"/>
<path d="M48,384c-4.095,0-8.189-1.562-11.314-4.687c-6.248-6.248-6.248-16.379,0-22.627l121.371-121.37
	c9.063-9.066,21.116-14.061,33.938-14.062c0.001,0,0.004,0,0.006,0c12.819,0,24.871,4.991,33.937,14.055
	c0.026,0.026,0.052,0.052,0.078,0.079l50.668,50.667c3.023,3.024,7.041,4.688,11.314,4.689c0.001,0,0.002,0,0.002,0
	c4.24,0,8.229-1.639,11.242-4.615c0.024-0.024,0.049-0.05,0.074-0.074l137.37-137.37c6.248-6.249,16.379-6.249,22.627,0
	c6.249,6.248,6.249,16.379,0,22.627l-137.271,137.27c-0.034,0.035-0.069,0.07-0.104,0.105c-9.066,9.064-21.119,14.056-33.938,14.057
	c-0.002,0-0.003,0-0.006,0c-12.821-0.002-24.875-4.996-33.939-14.064l-50.738-50.737c-0.019-0.019-0.038-0.037-0.057-0.057
	c-3.015-2.987-7.012-4.633-11.262-4.632c-4.273,0-8.291,1.665-11.312,4.688L59.314,379.314C56.189,382.438,52.095,384,48,384z"/>
</svg>
