<?xml version="1.0" encoding="iso-8859-1"?>
<!-- Generator: Adobe Illustrator 24.3.0, SVG Export Plug-In . SVG Version: 6.00 Build 0)  -->
<svg version="1.1" id="Layer_1" xmlns="http://www.w3.org/2000/svg" xmlns:xlink="http://www.w3.org/1999/xlink" x="0px" y="0px"
	 viewBox="0 0 512 512" style="enable-background:new 0 0 512 512;" xml:space="preserve">
<path d="M447.86,384H64.14C37.596,384,16,362.405,16,335.86V128.14C16,101.596,37.596,80,64.14,80h383.72
	c26.544,0,48.14,21.596,48.14,48.14v207.72C496,362.405,474.404,384,447.86,384z M64.14,112c-8.9,0-16.14,7.24-16.14,16.14v207.72
	C48,344.76,55.24,352,64.14,352h383.72c8.899,0,16.14-7.24,16.14-16.141V128.14c0-8.9-7.24-16.14-16.14-16.14H64.14z"/>
<path d="M384,432H128c-8.836,0-16-7.163-16-16s7.164-16,16-16h256c8.837,0,16,7.163,16,16S392.837,432,384,432z"/>
</svg>
