<?xml version="1.0" encoding="iso-8859-1"?>
<!-- Generator: Adobe Illustrator 24.3.0, SVG Export Plug-In . SVG Version: 6.00 Build 0)  -->
<svg version="1.1" id="Layer_1" xmlns="http://www.w3.org/2000/svg" xmlns:xlink="http://www.w3.org/1999/xlink" x="0px" y="0px"
	 viewBox="0 0 512 512" style="enable-background:new 0 0 512 512;" xml:space="preserve">
<path d="M488,384H24c-4.418,0-8-3.582-8-8V88c0-4.418,3.582-8,8-8h464c4.418,0,8,3.582,8,8v288C496,380.418,492.418,384,488,384z"/>
<path d="M116,400h280c2.209,0,4,1.791,4,4v24c0,2.209-1.791,4-4,4H116c-2.209,0-4-1.791-4-4v-24C112,401.791,113.791,400,116,400z"
	/>
</svg>
