<?xml version="1.0" encoding="iso-8859-1"?>
<!-- Generator: Adobe Illustrator 24.3.0, SVG Export Plug-In . SVG Version: 6.00 Build 0)  -->
<svg version="1.1" id="Layer_1" xmlns="http://www.w3.org/2000/svg" xmlns:xlink="http://www.w3.org/1999/xlink" x="0px" y="0px"
	 viewBox="0 0 512 512" style="enable-background:new 0 0 512 512;" xml:space="preserve">
<path d="M224,480c-26.467,0-48-21.532-48-48c0-8.837,7.164-16,16-16s16,7.163,16,16c0,8.822,7.178,16,16,16s16-7.178,16-16V272
	c0-8.837,7.164-16,16-16c8.837,0,16,7.163,16,16v160C272,458.468,250.467,480,224,480z"/>
<path d="M464.004,288c-4.165,0-8.257-1.625-11.317-4.687c-0.031-0.03-0.062-0.062-0.093-0.093
	c-20.236-20.138-53.083-20.107-73.279,0.093c-6.248,6.248-16.379,6.249-22.627,0.001c-21.773-21.769-56.765-24.255-81.398-5.784
	l-9.687,7.268c-5.689,4.271-13.515,4.27-19.205,0l-9.69-7.271c-24.628-18.468-59.622-15.98-81.395,5.787
	c-3.307,3.308-7.903,4.999-12.558,4.637c-3.855-0.301-7.442-1.984-10.125-4.694c-9.793-9.765-22.799-15.141-36.631-15.141
	c-13.858,0.001-26.886,5.397-36.685,15.197c-4.576,4.576-11.458,5.946-17.437,3.469C35.898,284.306,32,278.472,32,272
	c0-59.835,23.299-116.087,65.606-158.394C139.913,71.299,196.165,48,256,48s116.087,23.299,158.394,65.606S480,212.165,480,272
	c0,6.472-3.898,12.306-9.877,14.782C468.144,287.602,466.064,288,464.004,288z M199.347,233.078c20.336,0,40.198,6.58,56.562,18.851
	l0.091,0.068l0.088-0.066c18.156-13.614,40.609-20.222,63.248-18.617c17.7,1.258,34.586,7.478,48.78,17.803
	c22.905-15.942,52.053-19.142,77.465-9.609C430.935,150.074,351.498,80,256,80c-95.479,0-174.902,70.047-189.573,161.455
	c9.326-3.507,19.308-5.338,29.57-5.338c17.377-0.001,33.946,5.246,47.899,14.992c14.191-10.319,31.073-16.536,48.768-17.794
	C194.894,233.157,197.125,233.078,199.347,233.078z"/>
<path d="M256,80c-8.836,0-16-7.164-16-16V48c0-8.836,7.164-16,16-16c8.837,0,16,7.164,16,16v16C272,72.836,264.837,80,256,80z"/>
</svg>
