<?xml version="1.0" encoding="iso-8859-1"?>
<!-- Generator: Adobe Illustrator 24.3.0, SVG Export Plug-In . SVG Version: 6.00 Build 0)  -->
<svg version="1.1" id="Layer_1" xmlns="http://www.w3.org/2000/svg" xmlns:xlink="http://www.w3.org/1999/xlink" x="0px" y="0px"
	 viewBox="0 0 512 512" style="enable-background:new 0 0 512 512;" xml:space="preserve">
<path d="M414.39,113.61c-36.531-36.747-84.753-59.576-136.33-64.54c-3.209-0.334-5.912-2.542-6.88-5.62
	c-2.4-8.384-11.143-13.234-19.526-10.834c-5.239,1.5-9.334,5.595-10.834,10.834c-0.968,3.078-3.671,5.286-6.88,5.62
	C119.507,60.394,32.237,156.528,32,271.52c-0.088,5.55,2.636,10.769,7.24,13.87c6.339,4.144,14.715,3.276,20.07-2.08
	c20.239-20.232,53.038-20.259,73.31-0.06c6.167,6.282,16.26,6.375,22.542,0.208c0.02-0.019,0.039-0.038,0.058-0.058
	c21.965-21.86,56.619-24.356,81.49-5.87l0,0c2.072,1.557,3.291,3.998,3.29,6.59v147.42c0,8.6-6.6,16-15.19,16.44
	c-8.825,0.447-16.342-6.344-16.789-15.169c-0.014-0.27-0.021-0.54-0.021-0.811c0.001-8.837-7.161-16.001-15.997-16.003
	c-0.098,0-0.195,0.001-0.293,0.003c-9,0.16-15.9,8.11-15.7,17.1c0.621,25.823,21.542,46.537,47.37,46.9
	c26.88,0.34,48.62-21.93,48.62-48.81V284.12c-0.001-2.592,1.218-5.033,3.29-6.59l0,0c24.832-18.458,59.425-16.001,81.4,5.78
	c6.248,6.243,16.372,6.243,22.62,0c20.268-20.251,53.112-20.251,73.38,0c5.19,5.19,13.245,6.183,19.54,2.41
	c4.911-3.038,7.863-8.436,7.77-14.21C480.03,212.24,456.415,155.406,414.39,113.61z"/>
</svg>
