<?xml version="1.0" encoding="iso-8859-1"?>
<!-- Generator: Adobe Illustrator 24.3.0, SVG Export Plug-In . SVG Version: 6.00 Build 0)  -->
<svg version="1.1" id="Layer_1" xmlns="http://www.w3.org/2000/svg" xmlns:xlink="http://www.w3.org/1999/xlink" x="0px" y="0px"
	 viewBox="0 0 512 512" style="enable-background:new 0 0 512 512;" xml:space="preserve">
<path d="M128.93,280l-0.26-0.3c-0.9-0.74-1.83-1.43-2.77-2.1L128.93,280z"/>
<path d="M383.08,280l2.62-2.12c-0.79,0.58-1.57,1.17-2.34,1.79L383.08,280z"/>
<path d="M463.14,186.44C430.601,108.055,356.648,54.712,272,48.57V32h-32v16.57C122.701,56.764,31.793,154.415,32,272v22.52
	l12.25-11.21c21.961-21.813,56.563-24.311,81.43-5.88l0.22,0.17c0.94,0.67,1.87,1.36,2.77,2.1c1.393,1.127,2.727,2.33,4,3.61
	L144,294.63l11.31-11.32c21.975-21.781,56.568-24.238,81.4-5.78L240,280v152c0,8.837-7.163,16-16,16s-16-7.163-16-16v-16h-32v16
	c0,26.51,21.49,48,48,48s48-21.49,48-48V280l3.29-2.47c24.832-18.458,59.425-16.001,81.4,5.78L368,294.63l11.31-11.32
	c1.3-1.293,2.65-2.507,4.05-3.64c0.77-0.62,1.55-1.21,2.34-1.79l0.26-0.21c24.63-18.47,60-16.13,81.81,5.64l12.23,11.2V272
	C480.049,242.65,474.32,213.577,463.14,186.44z"/>
</svg>
