<?xml version="1.0" encoding="UTF-8"?>
<svg width="368px" height="480px" viewBox="0 0 368 480" version="1.1" xmlns="http://www.w3.org/2000/svg" xmlns:xlink="http://www.w3.org/1999/xlink">
    <title>Group</title>
    <g id="Page-1" stroke="none" stroke-width="1"  fill-rule="evenodd">
        <g id="Group"  fill-rule="nonzero">
            <g id="pin-outline" transform="translate(104.000000, 0.000000)">
                <path d="M80,160 C35.888,160 0,124.112 0,80 C0,35.888 35.888,0 80,0 C124.112,0 160,35.888 160,80 C160,124.112 124.112,160 80,160 Z M80,32 C53.533,32 32,53.533 32,80 C32,106.467 53.533,128 80,128 C106.467,128 128,106.467 128,80 C128,53.533 106.467,32 80,32 Z" id="Shape"></path>
                <path d="M96,148 C96,143.029 91.971,139 87,139 L73,139 C68.029,139 64,143.029 64,148 L64,441.56 C64.002,445.811 64.848,450.019 66.49,453.94 L76.56,477.94 C77.598,479.84 79.98,480.538 81.88,479.5 C82.539,479.14 83.08,478.598 83.44,477.94 L93.51,453.94 C95.152,450.019 95.998,445.811 96,441.56 L96,148 Z" id="Path"></path>
                <circle id="Oval" cx="104" cy="56" r="24"></circle>
            </g>
            <g id="videocam-off-outline" transform="translate(0.000000, 85.000000)">
                <path d="M351.999,368.00075 C347.903,368.00075 343.81,366.43875 340.686,363.31375 L4.686,27.31375 C-1.562,21.06475 -1.562,10.93475 4.686,4.68675 C10.934,-1.56225 21.064,-1.56225 27.313,4.68675 L363.313,340.68675 C369.562,346.93475 369.562,357.06575 363.313,363.31375 C360.188,366.43875 356.094,368.00075 351.999,368.00075 Z" id="Path"></path>
            </g>
        </g>
    </g>
</svg>