<?xml version="1.0" encoding="iso-8859-1"?>
<!-- Generator: Adobe Illustrator 24.3.0, SVG Export Plug-In . SVG Version: 6.00 Build 0)  -->
<svg version="1.1" id="Layer_1" xmlns="http://www.w3.org/2000/svg" xmlns:xlink="http://www.w3.org/1999/xlink" x="0px" y="0px"
	 viewBox="0 0 512 512" style="enable-background:new 0 0 512 512;" xml:space="preserve">
<path d="M336,179.52c0-37.29-30.23-67.52-67.52-67.52l0,0h-79.2c-2.209,0.004-3.997,1.798-3.993,4.007
	c0.002,1.059,0.424,2.075,1.173,2.823l142.71,142.71c1.561,1.563,4.094,1.564,5.657,0.003c0.749-0.749,1.171-1.764,1.173-2.823
	V179.52z"/>
<path d="M16,180v152c0,37.555,30.445,68,68,68h184c15.611,0.014,30.746-5.37,42.84-15.24c1.737-1.365,2.038-3.88,0.673-5.617
	c-0.106-0.135-0.221-0.263-0.343-0.383L54.41,122c-1.291-1.296-3.296-1.551-4.87-0.62C28.761,133.595,16.001,155.897,16,180z"/>
<path d="M464,384.39c-4.479-0.003-8.908-0.947-13-2.77c-0.952-0.423-1.86-0.938-2.71-1.54l-82.71-58.22l0,0
	c-8.512-5.992-13.578-15.75-13.58-26.16v-79.4c0.002-10.41,5.068-20.168,13.58-26.16l82.71-58.22c0.85-0.602,1.758-1.117,2.71-1.54
	c16.149-7.18,35.061,0.091,42.24,16.24c1.819,4.092,2.76,8.521,2.76,13v192.76c0,17.673-14.327,32-32,32L464,384.39z"/>
<path d="M416,432c-4.096,0-8.189-1.562-11.313-4.687l-336-336c-6.248-6.249-6.248-16.379,0-22.627
	c6.248-6.249,16.378-6.249,22.627,0l336,336c6.249,6.248,6.249,16.379,0,22.627C424.189,430.438,420.095,432,416,432z"/>
</svg>
