<?xml version="1.0" encoding="iso-8859-1"?>
<!-- Generator: Adobe Illustrator 24.3.0, SVG Export Plug-In . SVG Version: 6.00 Build 0)  -->
<svg version="1.1" id="Layer_1" xmlns="http://www.w3.org/2000/svg" xmlns:xlink="http://www.w3.org/1999/xlink" x="0px" y="0px"
	 viewBox="0 0 512 512" style="enable-background:new 0 0 512 512;" xml:space="preserve">
<path d="M463.988,384.398c-4.419,0-8.829-0.928-12.988-2.777c-0.951-0.423-1.858-0.938-2.71-1.536l-82.71-58.221
	c0-0.001,0-0.001,0-0.001c-8.502-5.984-13.578-15.765-13.58-26.16V216.3c0.002-10.399,5.078-20.178,13.58-26.163l82.71-58.221
	c0.852-0.599,1.759-1.114,2.709-1.537c4.119-1.831,8.493-2.76,13.001-2.76c17.645,0,32,14.355,32,32v192.76
	c0,4.508-0.929,8.882-2.76,13.001c-3.473,7.81-9.778,13.8-17.757,16.867C471.754,383.683,467.867,384.398,463.988,384.398z
	 M384,295.696l80,56.313V159.991l-80,56.312V295.696L384,295.696z"/>
<path d="M268.051,400c-0.022,0-0.044,0-0.067,0H84c-37.409-0.108-67.893-30.592-68-67.954V180
	c0.019-19.883,8.691-38.682,23.793-51.592c6.717-5.741,16.816-4.952,22.559,1.766c5.742,6.717,4.951,16.817-1.766,22.559
	C52.598,159.561,48.01,169.506,48,180.016V332c0.057,19.772,16.227,35.942,36.046,36H268c0.012,0,0.024,0,0.036,0
	c5.216,0,10.451-1.169,15.159-3.381c7.998-3.76,17.527-0.322,21.285,7.676c3.759,7.997,0.322,17.527-7.676,21.285
	C287.867,397.781,277.925,400,268.051,400z"/>
<path d="M320,264c-8.837,0-16-7.164-16-16.001v-68.48c-0.061-19.503-16.017-35.459-35.569-35.52H208c-8.836,0-16-7.164-16-16
	s7.164-16,16-16h60.48c37.138,0.115,67.404,30.382,67.52,67.471V248C336,256.836,328.837,264,320,264z"/>
<path d="M416,432c-4.096,0-8.189-1.562-11.313-4.687l-336-336c-6.248-6.249-6.248-16.379,0-22.627
	c6.248-6.249,16.378-6.249,22.627,0l336,336c6.249,6.248,6.249,16.379,0,22.627C424.189,430.438,420.095,432,416,432z"/>
</svg>
