<?xml version="1.0" encoding="iso-8859-1"?>
<!-- Generator: Adobe Illustrator 24.3.0, SVG Export Plug-In . SVG Version: 6.00 Build 0)  -->
<svg version="1.1" id="Layer_1" xmlns="http://www.w3.org/2000/svg" xmlns:xlink="http://www.w3.org/1999/xlink" x="0px" y="0px"
	 viewBox="0 0 512 512" style="enable-background:new 0 0 512 512;" xml:space="preserve">
<path d="M464,384.39c-4.479-0.003-8.908-0.947-13-2.77c-0.952-0.423-1.86-0.938-2.71-1.54l-82.71-58.22l0,0
	c-8.512-5.992-13.578-15.75-13.58-26.16v-79.4c0.002-10.41,5.068-20.168,13.58-26.16l82.71-58.22c0.85-0.602,1.758-1.117,2.71-1.54
	c16.149-7.18,35.061,0.091,42.24,16.24c1.819,4.092,2.76,8.521,2.76,13v192.76c0,17.673-14.327,32-32,32L464,384.39z"/>
<path d="M268,400H84c-37.539-0.039-67.961-30.461-68-68V180c0.039-37.539,30.461-67.961,68-68h184.48
	c37.272,0.044,67.476,30.248,67.52,67.52V332C335.961,369.539,305.539,399.961,268,400z"/>
</svg>
