<?xml version="1.0" encoding="iso-8859-1"?>
<!-- Generator: Adobe Illustrator 24.3.0, SVG Export Plug-In . SVG Version: 6.00 Build 0)  -->
<svg version="1.1" id="Layer_1" xmlns="http://www.w3.org/2000/svg" xmlns:xlink="http://www.w3.org/1999/xlink" x="0px" y="0px"
	 viewBox="0 0 512 512" style="enable-background:new 0 0 512 512;" xml:space="preserve">
<path d="M463.988,384.398c-4.419,0-8.829-0.928-12.988-2.777c-0.951-0.423-1.858-0.938-2.71-1.536l-82.71-58.221
	c0-0.001,0-0.001,0-0.001c-8.502-5.984-13.578-15.765-13.58-26.16V216.3c0.002-10.399,5.078-20.178,13.58-26.163l82.71-58.221
	c0.852-0.599,1.759-1.114,2.709-1.537c4.119-1.831,8.493-2.76,13.001-2.76c17.645,0,32,14.355,32,32v192.76
	c0,4.508-0.929,8.882-2.76,13.001c-3.473,7.81-9.778,13.8-17.757,16.867C471.754,383.683,467.867,384.398,463.988,384.398z
	 M384,295.696l80,56.313V159.991l-80,56.312V295.696L384,295.696z"/>
<path d="M268.023,400H84c-37.409-0.108-67.893-30.592-68-67.954V180c0.107-37.408,30.591-67.893,67.954-68H268.48
	c37.138,0.115,67.404,30.382,67.52,67.471V332c-0.106,37.407-30.591,67.892-67.954,68H268.023z M268.431,144H84
	c-19.773,0.057-35.943,16.227-36,36.046V332c0.057,19.772,16.228,35.942,36.046,36h183.93c19.81-0.069,35.967-16.234,36.023-36.046
	V179.52C303.939,160.017,287.983,144.06,268.431,144z"/>
</svg>
