<?xml version="1.0" encoding="iso-8859-1"?>
<!-- Generator: Adobe Illustrator 24.3.0, SVG Export Plug-In . SVG Version: 6.00 Build 0)  -->
<svg version="1.1" id="Layer_1" xmlns="http://www.w3.org/2000/svg" xmlns:xlink="http://www.w3.org/1999/xlink" x="0px" y="0px"
	 viewBox="0 0 512 512" style="enable-background:new 0 0 512 512;" xml:space="preserve">
<path d="M416,448c-4.096,0-8.189-1.562-11.313-4.687l-352-352c-6.248-6.249-6.248-16.379,0-22.627
	c6.248-6.249,16.378-6.249,22.627,0l352,352c6.249,6.248,6.249,16.379,0,22.627C424.189,446.438,420.095,448,416,448z"/>
<path d="M224,136.92v33.8c0.002,1.058,0.422,2.072,1.17,2.82l24,24c1.561,1.563,4.094,1.564,5.657,0.003
	c0.749-0.749,1.171-1.764,1.173-2.823v-74.15c0.091-9.019-4.775-17.36-12.67-21.72c-8.153-4.388-18.106-3.675-25.55,1.83
	c-0.228,0.159-0.449,0.329-0.66,0.51l-31.94,26.15c-1.707,1.402-1.955,3.922-0.553,5.63c0.083,0.101,0.171,0.198,0.263,0.29
	l17.05,17.06c1.456,1.456,3.78,1.569,5.37,0.26L224,136.92z"/>
<path d="M224,375.08l-78.07-63.92c-5.732-4.655-12.896-7.184-20.28-7.16H64v-96h50.72c2.209-0.004,3.997-1.798,3.993-4.007
	c-0.002-1.059-0.424-2.075-1.173-2.823l-24-24c-0.748-0.748-1.762-1.168-2.82-1.17H56c-13.255,0-24,10.745-24,24v112
	c0,13.255,10.745,24,24,24h69.76l91.36,74.8c0.211,0.181,0.432,0.351,0.66,0.51c7.54,5.582,17.647,6.243,25.85,1.69
	c7.732-4.403,12.468-12.653,12.37-21.55v-50.17c-0.002-1.058-0.422-2.072-1.17-2.82l-24-24c-1.561-1.563-4.094-1.564-5.657-0.003
	c-0.749,0.749-1.171,1.764-1.173,2.823V375.08z"/>
<path d="M352,256c0-24.56-5.81-47.88-17.75-71.27c-4.158-7.797-13.85-10.747-21.647-6.589c-7.597,4.052-10.626,13.389-6.853,21.129
	C315.34,218.06,320,236.62,320,256c0,2.667-0.103,5.377-0.31,8.13c-0.173,2.322,0.674,4.603,2.32,6.25l19.66,19.67
	c1.558,1.566,4.091,1.572,5.657,0.014c0.553-0.55,0.933-1.25,1.093-2.014C350.786,277.531,351.987,266.782,352,256z"/>
<path d="M416,256c0-51.19-13.08-83.89-34.18-120.06c-4.551-7.574-14.381-10.025-21.955-5.474
	c-7.435,4.467-9.956,14.045-5.685,21.594C373.07,184.44,384,211.83,384,256c0,23.83-3.29,42.88-9.37,60.65
	c-0.997,2.89-0.26,6.096,1.9,8.26l16.77,16.76c1.559,1.565,4.092,1.57,5.657,0.011c0.368-0.367,0.661-0.802,0.863-1.281
	C410.09,315.88,416,289.91,416,256z"/>
<path d="M480,256c0-74.26-20.19-121.11-50.51-168.61c-4.755-7.456-14.654-9.645-22.11-4.89c-7.456,4.755-9.645,14.654-4.89,22.11
	C429.82,147.38,448,189.5,448,256c0,47.45-8.9,82.12-23.59,113c-0.732,1.527-0.424,3.349,0.77,4.55L443,391.39
	c1.557,1.567,4.09,1.575,5.657,0.018c0.3-0.298,0.551-0.642,0.743-1.018C470.88,348.22,480,307,480,256z"/>
</svg>
