<?xml version="1.0" encoding="iso-8859-1"?>
<!-- Generator: Adobe Illustrator 24.3.0, SVG Export Plug-In . SVG Version: 6.00 Build 0)  -->
<svg version="1.1" id="Layer_1" xmlns="http://www.w3.org/2000/svg" xmlns:xlink="http://www.w3.org/1999/xlink" x="0px" y="0px"
	 viewBox="0 0 512 512" style="enable-background:new 0 0 512 512;" xml:space="preserve">
<path d="M343.949,416.191c-5.075,0-10.002-1.606-14.167-4.67c-0.228-0.167-0.449-0.34-0.667-0.518l-91.47-75L168,336
	c-13.233,0-24-10.767-24-24V200c0-13.234,10.767-24,24-24l69.65,0.014l91.465-74.996c0.217-0.178,0.438-0.351,0.665-0.517
	c4.146-3.05,9.06-4.663,14.206-4.666c0.004,0,0.009,0,0.013,0c13.228,0,23.992,10.756,24.001,23.985V392.17
	c0.009,5.067-1.648,10.133-4.667,14.236c-3.796,5.162-9.378,8.539-15.717,9.505C346.392,416.098,345.165,416.191,343.949,416.191z
	 M336,392.172c0,0.009,0,0.017,0,0.025V392.172z M176,304h61.65c7.385,0.004,14.587,2.582,20.289,7.261L336,375.267V136.754
	l-78.065,64.009c-5.72,4.674-12.909,7.237-20.268,7.237c-0.005,0-0.011,0-0.017,0H176V304z"/>
</svg>
