<?xml version="1.0" encoding="iso-8859-1"?>
<!-- Generator: Adobe Illustrator 24.3.0, SVG Export Plug-In . SVG Version: 6.00 Build 0)  -->
<svg version="1.1" id="Layer_1" xmlns="http://www.w3.org/2000/svg" xmlns:xlink="http://www.w3.org/1999/xlink" x="0px" y="0px"
	 viewBox="0 0 512 512" style="enable-background:new 0 0 512 512;" xml:space="preserve">
<path d="M416,448c-4.096,0-8.189-1.562-11.313-4.687l-352-352c-6.248-6.249-6.248-16.379,0-22.627
	c6.248-6.249,16.378-6.249,22.627,0l352,352c6.249,6.248,6.249,16.379,0,22.627C424.189,446.438,420.095,448,416,448z"/>
<path d="M243.33,98.86c-8.15-4.396-18.106-3.687-25.55,1.82l-0.66,0.51l-28.52,23.35c-3.42,2.798-3.924,7.838-1.126,11.258
	c0.169,0.206,0.348,0.404,0.536,0.592l54.33,54.33c3.122,3.126,8.188,3.129,11.314,0.006c1.504-1.502,2.348-3.541,2.346-5.666
	v-64.49C256.092,111.554,251.225,103.215,243.33,98.86z"/>
<path d="M251.33,335.29L96.69,180.69c-2.999-3.001-7.067-4.688-11.31-4.69H56c-13.255,0-24,10.745-24,24v112
	c0,13.255,10.745,24,24,24h69.76l92,75.31c7.542,5.598,17.664,6.259,25.87,1.69c7.729-4.406,12.463-12.654,12.37-21.55v-44.86
	C256.001,342.354,254.321,338.29,251.33,335.29z"/>
<path d="M352,256c0-24.56-5.81-47.87-17.75-71.27c-3.964-7.897-13.58-11.086-21.478-7.121c-7.897,3.964-11.086,13.58-7.121,21.478
	c0.033,0.065,0.066,0.13,0.099,0.194C315.34,218.06,320,236.62,320,256c0,2.667-0.103,5.377-0.31,8.13
	c-0.173,2.322,0.674,4.603,2.32,6.25l14.36,14.36c3.121,3.128,8.186,3.133,11.314,0.013c1.176-1.174,1.958-2.684,2.236-4.323
	C351.297,272.359,351.993,264.187,352,256z"/>
<path d="M416,256c0-51.18-13.08-83.89-34.18-120.06c-4.551-7.574-14.381-10.025-21.955-5.474
	c-7.435,4.467-9.956,14.045-5.685,21.594C373.07,184.44,384,211.83,384,256c0,23.83-3.29,42.88-9.37,60.65
	c-0.997,2.89-0.26,6.096,1.9,8.26L389,337.4c3.122,3.126,8.188,3.129,11.314,0.006c0.795-0.794,1.414-1.747,1.816-2.796
	C411,311.76,416,287.26,416,256z"/>
<path d="M480,256c0-74.25-20.19-121.11-50.51-168.61c-4.755-7.456-14.654-9.645-22.11-4.89c-7.456,4.755-9.645,14.654-4.89,22.11
	C429.82,147.38,448,189.5,448,256c0,46.19-8.43,80.27-22.43,110.53c-1.404,3.037-0.77,6.628,1.59,9l11.92,11.92
	c3.099,3.149,8.164,3.19,11.313,0.092c0.662-0.652,1.206-1.414,1.607-2.252C471.6,344.9,480,305,480,256z"/>
</svg>
