<?xml version="1.0" encoding="iso-8859-1"?>
<!-- Generator: Adobe Illustrator 24.3.0, SVG Export Plug-In . SVG Version: 6.00 Build 0)  -->
<svg version="1.1" id="Layer_1" xmlns="http://www.w3.org/2000/svg" xmlns:xlink="http://www.w3.org/1999/xlink" x="0px" y="0px"
	 viewBox="0 0 512 512" style="enable-background:new 0 0 512 512;" xml:space="preserve">
<path d="M264,416.19c-5.116-0.003-10.097-1.647-14.21-4.69l-0.66-0.51l-91.46-75H88c-13.255,0-24-10.745-24-24V200
	c0-13.255,10.745-24,24-24h69.65l91.46-75l0.66-0.51c10.674-7.859,25.697-5.577,33.556,5.096c3.039,4.127,4.677,9.119,4.674,14.244
	v272.34c0,13.255-10.745,24-24,24V416.19z"/>
<path d="M352,336c-8.837-0.005-15.996-7.172-15.991-16.009c0.001-2.49,0.584-4.946,1.701-7.171c9.49-18.9,14.3-38,14.3-56.82
	c0-19.36-4.66-37.92-14.25-56.73c-3.872-7.943-0.572-17.521,7.371-21.393c7.74-3.773,17.077-0.744,21.129,6.853
	C378.2,208.16,384,231.47,384,256c0,23.83-6,47.78-17.7,71.18C363.585,332.588,358.051,336.001,352,336z"/>
<path d="M400,384c-8.837,0.008-16.006-7.15-16.014-15.986c-0.002-2.813,0.737-5.577,2.144-8.014C405,327.05,416,299.45,416,256
	c0-44.12-10.94-71.52-29.83-103.95c-4.157-7.798-1.206-17.489,6.591-21.646c7.404-3.947,16.6-1.505,21.069,5.596
	C434.92,172.16,448,204.88,448,256c0,50.36-13.06,83.24-34.12,120C411.018,380.958,405.725,384.009,400,384z"/>
</svg>
