<?xml version="1.0" encoding="iso-8859-1"?>
<!-- Generator: Adobe Illustrator 24.3.0, SVG Export Plug-In . SVG Version: 6.00 Build 0)  -->
<svg version="1.1" id="Layer_1" xmlns="http://www.w3.org/2000/svg" xmlns:xlink="http://www.w3.org/1999/xlink" x="0px" y="0px"
	 viewBox="0 0 512 512" style="enable-background:new 0 0 512 512;" xml:space="preserve">
<path d="M295.949,416.191c-5.075,0-10.002-1.606-14.167-4.67c-0.228-0.167-0.449-0.34-0.667-0.518l-91.47-75L120,336
	c-13.233,0-24-10.767-24-24V200c0-13.234,10.767-24,24-24l69.65,0.014l91.465-74.996c0.217-0.178,0.438-0.351,0.665-0.517
	c4.146-3.05,9.06-4.663,14.206-4.666c0.004,0,0.009,0,0.013,0c13.228,0,23.992,10.756,24.001,23.985V392.17
	c0.009,5.067-1.648,10.133-4.667,14.236c-3.796,5.162-9.378,8.539-15.717,9.505C298.392,416.098,297.165,416.191,295.949,416.191z
	 M288,392.172c0,0.009,0,0.017,0,0.025V392.172z M128,304h61.65c7.385,0.004,14.587,2.582,20.289,7.261L288,375.267V136.754
	l-78.065,64.009c-5.72,4.674-12.91,7.237-20.269,7.237c-0.005,0-0.011,0-0.017,0H128V304z"/>
<path d="M383.987,336.004c-2.412,0-4.86-0.548-7.163-1.703c-7.898-3.964-11.088-13.579-7.125-21.477
	C379.188,293.914,384,274.796,384,256c0-19.375-4.662-37.932-14.252-56.729c-4.017-7.871-0.891-17.508,6.98-21.524
	c7.87-4.016,17.509-0.89,21.523,6.981C410.194,208.136,416,231.449,416,256c0,23.825-5.955,47.772-17.699,71.176
	C395.493,332.772,389.849,336.004,383.987,336.004z"/>
</svg>
