<?xml version="1.0" encoding="iso-8859-1"?>
<!-- Generator: Adobe Illustrator 24.3.0, SVG Export Plug-In . SVG Version: 6.00 Build 0)  -->
<svg version="1.1" id="Layer_1" xmlns="http://www.w3.org/2000/svg" xmlns:xlink="http://www.w3.org/1999/xlink" x="0px" y="0px"
	 viewBox="0 0 512 512" style="enable-background:new 0 0 512 512;" xml:space="preserve">
<polygon points="157.65,176.1 64,176.1 64,335.9 157.65,335.9 288,440 288,72 "/>
<path d="M359.124,341.477l-28.601-14.353l7.176-14.3C347.188,293.914,352,274.796,352,256c0-19.375-4.662-37.932-14.252-56.729
	l-7.271-14.252l28.504-14.543l7.271,14.252C378.194,208.136,384,231.449,384,256c0,23.825-5.955,47.772-17.699,71.176
	L359.124,341.477z"/>
<path d="M405.929,389.837l-27.766-15.908l7.954-13.883C405.498,326.221,416,299.622,416,256c0-44.157-10.935-71.548-29.822-103.94
	l-8.059-13.822l27.644-16.119l8.06,13.822C434.923,172.128,448,204.835,448,256c0,50.303-13.055,83.193-34.117,119.955
	L405.929,389.837z"/>
</svg>
