<?xml version="1.0" encoding="iso-8859-1"?>
<!-- Generator: Adobe Illustrator 24.3.0, SVG Export Plug-In . SVG Version: 6.00 Build 0)  -->
<svg version="1.1" id="Layer_1" xmlns="http://www.w3.org/2000/svg" xmlns:xlink="http://www.w3.org/1999/xlink" x="0px" y="0px"
	 viewBox="0 0 512 512" style="enable-background:new 0 0 512 512;" xml:space="preserve">
<path d="M327.111,341.481l-28.592-14.369l7.185-14.296C315.19,293.94,320,274.825,320,256c0-19.395-4.661-37.949-14.249-56.723
	l-7.277-14.249l28.498-14.555l7.277,14.249C346.193,208.11,352,231.425,352,256c0,23.86-5.956,47.81-17.704,71.185L327.111,341.481z
	"/>
<path d="M373.906,389.843l-27.749-15.937l7.968-13.875C373.046,327.086,384,299.502,384,256c0-44.207-10.934-71.584-29.817-103.934
	l-8.066-13.818l27.636-16.133l8.065,13.818C402.921,172.083,416,204.778,416,256c0,50.419-13.058,83.285-34.125,119.969
	L373.906,389.843z"/>
<path d="M420.661,438.142l-26.803-17.48l8.74-13.401C429.85,365.474,448,323.76,448,256c0-66.502-18.184-108.617-45.486-151.392
	l-8.609-13.487l26.974-17.217l8.608,13.487C459.807,134.893,480,181.744,480,256c0,64.747-14.659,113.634-50.599,168.741
	L420.661,438.142z"/>
<polygon points="125.65,176.1 32,176.1 32,335.9 125.65,335.9 256,440 256,72 "/>
</svg>
