<?xml version="1.0" encoding="iso-8859-1"?>
<!-- Generator: Adobe Illustrator 24.3.0, SVG Export Plug-In . SVG Version: 6.00 Build 0)  -->
<svg version="1.1" id="Layer_1" xmlns="http://www.w3.org/2000/svg" xmlns:xlink="http://www.w3.org/1999/xlink" x="0px" y="0px"
	 viewBox="0 0 512 512" style="enable-background:new 0 0 512 512;" xml:space="preserve">
<path d="M344,416c-5.116-0.003-10.097-1.647-14.21-4.69c-0.23-0.16-0.44-0.33-0.66-0.51l-91.46-74.9H168c-13.255,0-24-10.745-24-24
	V200.07c0-13.255,10.745-24,24-24h69.65l91.46-74.9c0.22-0.18,0.43-0.35,0.66-0.51c10.674-7.859,25.697-5.577,33.556,5.096
	c3.039,4.127,4.677,9.119,4.674,14.244v272C368,405.255,357.255,416,344,416z"/>
</svg>
