<?xml version="1.0" encoding="iso-8859-1"?>
<!-- Generator: Adobe Illustrator 24.3.0, SVG Export Plug-In . SVG Version: 6.00 Build 0)  -->
<svg version="1.1" id="Layer_1" xmlns="http://www.w3.org/2000/svg" xmlns:xlink="http://www.w3.org/1999/xlink" x="0px" y="0px"
	 viewBox="0 0 512 512" style="enable-background:new 0 0 512 512;" xml:space="preserve">
<path d="M296,416.19c-5.116-0.003-10.097-1.647-14.21-4.69l-0.66-0.51l-91.46-75H120c-13.255,0-24-10.745-24-24V200
	c0-13.255,10.745-24,24-24h69.65l91.46-75l0.66-0.51c10.674-7.859,25.697-5.577,33.556,5.096c3.039,4.127,4.677,9.119,4.674,14.244
	v272.34c0,13.255-10.745,24-24,24V416.19z"/>
<path d="M384,336c-8.837-0.005-15.996-7.172-15.991-16.009c0.001-2.49,0.584-4.946,1.701-7.171c9.49-18.9,14.3-38,14.3-56.82
	c0-19.36-4.66-37.92-14.25-56.73c-3.872-7.943-0.572-17.521,7.371-21.393c7.74-3.773,17.077-0.744,21.129,6.853
	C410.2,208.16,416,231.47,416,256c0,23.83-6,47.78-17.7,71.18C395.585,332.588,390.051,336.001,384,336z"/>
</svg>
