<?xml version="1.0" encoding="iso-8859-1"?>
<!-- Generator: Adobe Illustrator 24.3.0, SVG Export Plug-In . SVG Version: 6.00 Build 0)  -->
<svg version="1.1" id="Layer_1" xmlns="http://www.w3.org/2000/svg" xmlns:xlink="http://www.w3.org/1999/xlink" x="0px" y="0px"
	 viewBox="0 0 512 512" style="enable-background:new 0 0 512 512;" xml:space="preserve">
<path d="M232,416c-5.112,0-10.09-1.64-14.2-4.68c-0.228-0.159-0.449-0.329-0.66-0.51L125.76,336H56c-13.255,0-24-10.745-24-24V200
	c0-13.255,10.745-24,24-24h69.75l91.37-74.81c0.211-0.181,0.432-0.351,0.66-0.51c10.678-7.853,25.7-5.564,33.554,5.114
	c3.029,4.118,4.663,9.095,4.666,14.206v272C256,405.255,245.255,416,232,416z"/>
<path d="M320,336c-8.837-0.002-15.998-7.167-15.997-16.003c0.001-2.496,0.585-4.957,1.707-7.187c9.49-18.87,14.3-38,14.3-56.81
	c0-19.38-4.66-37.94-14.25-56.73c-3.872-7.943-0.572-17.521,7.371-21.393c7.74-3.773,17.077-0.744,21.129,6.853
	C346.19,208.12,352,231.44,352,256c0,23.86-6,47.81-17.7,71.19C331.582,332.594,326.049,336.003,320,336z"/>
<path d="M368,384c-8.837,0.002-16.002-7.16-16.004-15.996c-0.001-2.81,0.739-5.57,2.144-8.004C373.05,327.09,384,299.51,384,256
	c0-44.17-10.93-71.56-29.82-103.94c-4.352-7.691-1.644-17.453,6.046-21.805c7.549-4.271,17.126-1.75,21.594,5.685
	C402.92,172.11,416,204.81,416,256c0,50.43-13.06,83.29-34.13,120C379.009,380.955,373.721,384.005,368,384z"/>
<path d="M416,432c-8.837-0.007-15.995-7.175-15.988-16.012c0.002-3.1,0.905-6.132,2.598-8.728C429.85,365.47,448,323.76,448,256
	c0-66.5-18.18-108.62-45.49-151.39c-4.755-7.456-2.566-17.355,4.89-22.11c7.456-4.755,17.355-2.566,22.11,4.89
	C459.81,134.89,480,181.74,480,256c0,64.75-14.66,113.63-50.6,168.74C426.447,429.269,421.406,431.999,416,432z"/>
</svg>
