<?xml version="1.0" encoding="iso-8859-1"?>
<!-- Generator: Adobe Illustrator 24.3.0, SVG Export Plug-In . SVG Version: 6.00 Build 0)  -->
<svg version="1.1" id="Layer_1" xmlns="http://www.w3.org/2000/svg" xmlns:xlink="http://www.w3.org/1999/xlink" x="0px" y="0px"
	 viewBox="0 0 512 512" style="enable-background:new 0 0 512 512;" xml:space="preserve">
<rect x="224" y="-8.902" transform="matrix(0.7071 -0.7071 0.7071 0.7071 -110.725 244.6862)" width="32" height="529.803"/>
<path d="M352,256c0-24.56-5.81-47.88-17.75-71.27L327,170.47L298.48,185l7.27,14.25C315.34,218.06,320,236.62,320,256
	c-0.006,3.922-0.216,7.84-0.63,11.74l27.32,27.32C350.184,282.333,351.97,269.198,352,256z"/>
<path d="M416,256c0-51.19-13.08-83.89-34.18-120.06l-8.06-13.82l-27.64,16.12l8.06,13.82C373.07,184.44,384,211.83,384,256
	c0,25.93-3.89,46.21-11,65.33l24.5,24.51C409.19,319.68,416,292.42,416,256z"/>
<path d="M480,256c0-74.26-20.19-121.11-50.51-168.61l-8.61-13.49l-27,17.22l8.61,13.49C429.82,147.38,448,189.5,448,256
	c0,48.76-9.4,84-24.82,115.55l23.7,23.7C470.16,351.39,480,309,480,256z"/>
<polygon points="256,72 182.4,130.78 256,204.37 "/>
<polygon points="32,176.1 32,335.9 125.65,335.9 256,440 256,339.63 92.47,176.1 "/>
</svg>
