<?xml version="1.0" encoding="iso-8859-1"?>
<!-- Generator: Adobe Illustrator 24.3.0, SVG Export Plug-In . SVG Version: 6.00 Build 0)  -->
<svg version="1.1" id="Layer_1" xmlns="http://www.w3.org/2000/svg" xmlns:xlink="http://www.w3.org/1999/xlink" x="0px" y="0px"
	 viewBox="0 0 512 513" style="enable-background:new 0 0 512 513;" xml:space="preserve">
<g id="Page-1">
	<path id="Path_17_" d="M303.127,0.432c-10.764,0.853-21.076,5.415-28.862,13.701l0.005-0.004c-1.991,2.049-3.072,4.808-3.014,7.665
		c0.063,2.853,1.264,5.563,3.34,7.526c2.072,1.96,4.844,3.005,7.696,2.902c2.848-0.102,5.54-1.344,7.469-3.446
		c8.121-8.643,21.602-9.96,32.715-2.205c11.112,7.755,15.433,22.21,10.853,33.621l-0.005-0.005
		c-1.053,2.634-1.018,5.576,0.094,8.183c1.116,2.603,3.214,4.661,5.844,5.714c2.627,1.058,5.567,1.022,8.17-0.094
		c2.603-1.116,4.655-3.218,5.709-5.853c8.508-21.201,0.457-45.777-18.557-59.049c-9.504-6.634-20.691-9.513-31.455-8.661
		L303.127,0.432z"/>
	<path id="Path_16_" d="M177.354,0.425c-10.768-0.852-21.951,2.098-31.455,8.741c-19.014,13.286-27.068,37.831-18.558,59.05
		c1.053,2.629,3.107,4.736,5.71,5.848c2.603,1.116,5.54,1.152,8.17,0.094c2.63-1.053,4.732-3.112,5.844-5.714
		c1.111-2.607,1.147-5.549,0.094-8.183c-4.58-11.428-0.183-25.852,10.928-33.62c11.112-7.764,24.514-6.527,32.634,2.125v0.005
		c1.866,2.299,4.603,3.723,7.558,3.924c2.951,0.201,5.857-0.839,8.013-2.866c2.156-2.031,3.375-4.866,3.361-7.83
		c-0.018-2.965-1.263-5.786-3.437-7.795C198.436,5.911,188.122,1.278,177.354,0.425z"/>
	<path id="Shape_5_" d="M240.257,12.615c-75.375,0-136.755,61.482-136.755,136.995c0,75.509,61.375,136.915,136.755,136.915
		S376.93,225.119,376.93,149.61C376.93,74.101,315.636,12.615,240.257,12.615z M240.257,33.95
		c63.853,0,115.362,51.666,115.362,115.658c0,63.991-51.51,115.578-115.362,115.578c-63.853,0-115.441-51.59-115.441-115.578
		C124.816,85.617,176.406,33.95,240.257,33.95z"/>
	<path id="Path_15_" d="M234.753,89.449c-2.839,0.032-5.549,1.197-7.531,3.237c-1.978,2.04-3.058,4.786-3.009,7.629v59.05
		c0,5.893,4.772,10.669,10.656,10.669c5.884,0,10.657-4.777,10.657-10.669v-59.05c0.053-2.884-1.062-5.665-3.09-7.714
		C240.405,90.552,237.633,89.418,234.753,89.449z"/>
	<path id="Path_14_" d="M234.32,151.297c-5.884,0.285-10.419,5.29-10.138,11.178c0.281,5.893,5.277,10.438,11.16,10.161h25.715
		c5.884,0,10.656-4.777,10.656-10.67c0-5.893-4.772-10.669-10.656-10.669h-25.634C235.057,151.279,234.686,151.279,234.32,151.297z"
		/>
	<path id="Shape_4_" d="M240.27,55.615c-51.705,0-93.893,42.215-93.893,94.005c0,51.794,42.188,94.005,93.893,94.005
		s93.817-42.215,93.817-94.005C334.088,97.826,291.976,55.615,240.27,55.615z M240.27,76.95c40.183,0,72.504,32.398,72.504,72.67
		s-32.321,72.67-72.504,72.67c-40.183,0-72.586-32.398-72.586-72.67S200.087,76.95,240.27,76.95z"/>
	<path id="Path_13_" d="M182.425,298.057c-23.616,0.736-49.96,5.746-80.527,18.974c-2.603,1.111-4.661,3.214-5.714,5.848
		c-1.053,2.63-1.018,5.576,0.103,8.178c1.116,2.607,3.223,4.656,5.857,5.705c2.63,1.044,5.571,1,8.17-0.13
		c56.728-24.557,93.518-18.74,131.795-10.866c38.281,7.875,78.464,18.357,132.425-0.473l-1.809,0.473
		c4.937-0.772,19.217,9.987,7.94,26.611c-22.631,33.364-51.428,36.129-80.365,36.137c-14.468,0.004-28.478-1.148-41.361,0.713
		c-6.442,0.93-12.778,2.722-18.483,6.456c-5.701,3.729-10.398,9.57-12.897,16.691c-0.969,2.679-0.826,5.636,0.393,8.213
		c1.219,2.577,3.416,4.553,6.103,5.5c2.683,0.947,5.634,0.777,8.197-0.469c2.563-1.246,4.518-3.46,5.437-6.157
		c1.138-3.238,2.353-4.638,4.402-5.982c2.054-1.344,5.339-2.411,9.906-3.072c9.143-1.314,22.876-0.542,38.3-0.55
		c30.848-0.013,70.662-5.231,97.982-45.511c19.358-28.54-1.83-63.848-28.86-59.598h0.004c-0.644,0.098-1.271,0.254-1.89,0.469
		c-48.678,16.986-82.031,7.723-121.097-0.322c-19.536-4.018-40.398-7.585-64.01-6.848L182.425,298.057z"/>
	<path id="Path_12_" d="M389.133,226.332c-17.506,5.045-30.136,20.813-41.831,37.871c-11.698,17.058-21.671,36.174-28.547,49.839
		c-1.29,2.527-1.522,5.469-0.643,8.169c0.879,2.701,2.799,4.937,5.335,6.214c2.531,1.277,5.469,1.495,8.161,0.598
		c2.692-0.897,4.915-2.835,6.179-5.375c6.747-13.402,16.389-31.843,27.052-47.398c10.663-15.553,23.13-27.411,30.2-29.447
		c3.891-1.12,6.861-0.611,9.438,0.942c1.715,1.04,2.97,4.009,4.322,6.612c-8.141,18.3-13.329,25.419-38.375,51.335h-0.004
		c-2.048,2.018-3.191,4.781-3.179,7.656c0.017,2.88,1.195,5.629,3.26,7.625c2.069,1.996,4.86,3.072,7.727,2.982
		c2.876-0.089,5.589-1.339,7.526-3.46c26.953-27.888,35.461-38.188,45.295-61.331v-0.004c0.909-2.17,1.075-4.576,0.469-6.849
		c-2.59-9.893-8.243-18.108-16.043-22.831c-7.8-4.723-17.408-5.723-26.343-3.148V226.332z"/>
	<path id="Path_11_" d="M466.13,243.886c-13.76-9.889-34.275-7.719-50.881,6.219h0.004c-2.189,1.812-3.563,4.424-3.827,7.25
		c-0.26,2.831,0.623,5.647,2.441,7.831c1.822,2.179,4.433,3.54,7.266,3.785c2.825,0.241,5.632-0.652,7.804-2.487
		c11.042-9.272,20.63-8.254,24.773-5.277c2.069,1.487,3.238,3.362,3.541,6.692c0.277,3.277-0.674,8.384-4.719,14.88
		c-23.992,36.085-46.349,57.857-61.654,63.063l-0.004,0.004c-2.688,0.897-4.911,2.835-6.174,5.379
		c-1.259,2.545-1.459,5.487-0.55,8.174c0.913,2.692,2.854,4.906,5.397,6.161c2.547,1.254,5.483,1.442,8.171,0.518
		c24.854-8.455,47.578-33.876,72.585-71.492l-0.004,0.004c0.043-0.053,0.081-0.107,0.119-0.16
		c6.118-9.647,8.913-19.366,8.098-28.424c-0.806-9.058-5.466-17.178-12.348-22.125L466.13,243.886z"/>
	<path id="Path_10_" d="M466.903,268.455c-2.812,0.848-5.15,2.817-6.464,5.442c-1.31,2.629-1.485,5.683-0.469,8.442
		c1.007,2.759,3.106,4.978,5.803,6.139c2.701,1.156,5.752,1.147,8.444-0.022c8.836-3.259,12.233-2.17,13.21-1.576
		c0.981,0.598,2.304,2.402,2.914,7.166c1.203,9.46-2.607,26.178-5.432,33.696c-43.414,96.689-139.428,139.143-234.651,150.927h0.004
		c-0.134,0.021-0.272,0.047-0.401,0.081c-56.045,9.118-97.621-2.513-141.475-14.174l-0.004,0.004
		c-2.746-0.768-5.683-0.397-8.156,1.024c-2.469,1.421-4.272,3.776-4.995,6.532c-0.728,2.761-0.317,5.696,1.134,8.154
		c1.451,2.453,3.826,4.228,6.594,4.915c43.63,11.597,89.635,24.367,150.126,14.567h0.161
		c99.738-12.429,204.183-58.275,251.326-163.682c0.085-0.183,0.166-0.366,0.243-0.553c3.874-10.206,8.789-27.607,6.682-44.169
		c-1.054-8.281-4.433-17.487-12.975-22.675s-19.486-4.705-31.608-0.241L466.903,268.455z"/>
	<path id="Shape_3_" d="M31.823,284.06C14.305,284.141-0.097,298.658,0,316.203l0.952,164.23c0.12,17.54,14.67,31.962,32.188,31.864
		l48.754-0.282c17.522-0.077,31.843-14.677,31.741-32.218l-0.951-164.228c-0.121-17.54-14.59-31.883-32.112-31.786L31.823,284.06z
		 M31.943,305.32l48.754-0.282c6.085-0.031,10.643,4.554,10.679,10.648l0.951,164.231c0,6.093-4.469,10.731-10.554,10.765
		l-48.754,0.282c-6.085,0.03-10.723-4.553-10.755-10.646l-0.951-164.23c0-6.094,4.549-10.732,10.634-10.768H31.943z"/>
	<path id="Path_9_" d="M72.876,461.788c0,4.237-1.683,8.312-4.687,11.311c-3,2.999-7.067,4.681-11.312,4.681
		c-8.835,0-16-7.16-16-15.992c0-8.836,7.165-16,16-16c4.245,0,8.312,1.685,11.312,4.685
		C71.193,453.472,72.876,457.539,72.876,461.788z"/>
</g>
</svg>
