<?xml version="1.0" encoding="iso-8859-1"?>
<!-- Generator: Adobe Illustrator 24.3.0, SVG Export Plug-In . SVG Version: 6.00 Build 0)  -->
<svg version="1.1" id="Layer_1" xmlns="http://www.w3.org/2000/svg" xmlns:xlink="http://www.w3.org/1999/xlink" x="0px" y="0px"
	 viewBox="0 0 512 512" style="enable-background:new 0 0 512 512;" xml:space="preserve">
<g>
	<path d="M315.09,481.38l-56.95-115.12l-45-57.56c-6.65-11.259-10.158-24.094-10.16-37.17V142h15.73
		c22.247,0.039,40.268,18.073,40.29,40.32v162.52"/>
	<path d="M307.844,502.816l-63.318-127.992l-43.99-56.27c-0.427-0.547-0.818-1.12-1.171-1.717
		c-8.099-13.712-12.381-29.378-12.384-45.306V142c0-8.836,7.164-16,16-16h15.73c31.02,0.054,56.259,25.312,56.29,56.304V360.84
		h-1.69l63.216,127.786L307.844,502.816z M226.427,299.717L243,320.916V182.32c-0.013-13.28-10.762-24.134-24.02-24.318V271.53
		C218.981,281.41,221.553,291.134,226.427,299.717z"/>
</g>
<path d="M144.18,307.5h-32V216.73c0-4.237,1.681-8.301,4.673-11.301l76.25-76.426l22.653,22.602l-71.577,71.742V307.5z"/>
<polygon points="376.35,295.73 292.4,239.35 292.4,194.67 397.08,267.62 "/>
<polygon points="175.13,498.58 153.7,471.67 234.03,390.13 249.56,422.2 "/>
<g>
	<circle cx="259.02" cy="67.21" r="37.38"/>
	<path d="M259.02,112.59c-25.022,0-45.379-20.357-45.379-45.38c0-25.022,20.357-45.38,45.379-45.38
		c25.023,0,45.381,20.357,45.381,45.38C304.4,92.233,284.043,112.59,259.02,112.59z M259.02,37.83
		c-16.2,0-29.379,13.18-29.379,29.38s13.18,29.38,29.379,29.38c16.2,0,29.381-13.18,29.381-29.38S275.22,37.83,259.02,37.83z"/>
</g>
</svg>
