<?xml version="1.0" encoding="iso-8859-1"?>
<!-- Generator: Adobe Illustrator 24.3.0, SVG Export Plug-In . SVG Version: 6.00 Build 0)  -->
<svg version="1.1" id="Layer_1" xmlns="http://www.w3.org/2000/svg" xmlns:xlink="http://www.w3.org/1999/xlink" x="0px" y="0px"
	 viewBox="0 0 512 512" style="enable-background:new 0 0 512 512;" xml:space="preserve">
<g>
	<path d="M312.55,479.9l-56.42-114l-44.62-57c-6.602-11.175-10.076-23.92-10.06-36.9V143.64H217c22.091,0,40,17.909,40,40v182.21"/>
	<path d="M312.562,495.904c-5.893,0-11.561-3.268-14.352-8.907l-55.691-112.527l-43.607-55.707c-0.43-0.549-0.823-1.124-1.177-1.725
		c-8.056-13.637-12.304-29.218-12.284-45.058V143.64c0-8.836,7.164-16,16-16H217c30.878,0,56,25.122,56,56v180.275l53.89,108.888
		c3.92,7.919,0.677,17.517-7.243,21.437C317.366,495.369,314.945,495.904,312.562,495.904z M224.794,299.913L241,320.616V183.64
		c0-13.083-10.523-23.755-23.55-23.996V272C217.438,281.797,219.974,291.419,224.794,299.913z"/>
</g>
<path d="M127.38,307.78c-8.836,0-16-7.163-16-16v-74.07c0-2.482,0.577-4.93,1.687-7.15c0.404-0.809,10.063-20.034,24.646-39.483
	c21.61-28.823,43.055-43.437,63.738-43.437c8.836,0,16,7.164,16,16s-7.164,16-16,16c-17.711,0-44.294,35.804-58.07,61.941v70.198
	C143.38,300.617,136.216,307.78,127.38,307.78z"/>
<path d="M368.09,291.78c-3.652-0.001-7.222-1.083-10.26-3.11L297.7,250c-6.044-3.898-9.697-10.598-9.7-17.79v-23.7
	c-0.004-3.12,2.522-5.653,5.642-5.658c1.08-0.001,2.137,0.307,3.048,0.888l81.65,54.11c8.511,5.673,10.811,17.172,5.138,25.682
	c-3.438,5.158-9.229,8.253-15.428,8.248H368.09z"/>
<path d="M171.91,493.47c-5.835,0.007-11.332-2.739-14.83-7.41c-6.14-8.18-4-17.18,3.7-25.92l59.95-74.66
	c3.276-2.453,7.92-1.786,10.373,1.49c0.138,0.184,0.267,0.374,0.387,0.57c1.56,2.54,3.38,5.65,5.19,9.09
	c5.24,9.95,6,16.11-1.68,25.7c-8,10-52,67.44-52,67.44C180.38,492.75,175.77,493.47,171.91,493.47z"/>
<g>
	<circle cx="257" cy="69.56" r="37.04"/>
	<path d="M257,114.6c-24.835,0-45.04-20.205-45.04-45.04S232.165,24.52,257,24.52s45.04,20.205,45.04,45.04S281.835,114.6,257,114.6
		z M257,40.52c-16.013,0-29.04,13.027-29.04,29.04S240.987,98.6,257,98.6s29.04-13.027,29.04-29.04S273.013,40.52,257,40.52z"/>
</g>
</svg>
