<?xml version="1.0" encoding="iso-8859-1"?>
<!-- Generator: Adobe Illustrator 24.3.0, SVG Export Plug-In . SVG Version: 6.00 Build 0)  -->
<svg version="1.1" id="Layer_1" xmlns="http://www.w3.org/2000/svg" xmlns:xlink="http://www.w3.org/1999/xlink" x="0px" y="0px"
	 viewBox="0 0 512 512" style="enable-background:new 0 0 512 512;" xml:space="preserve">
<path d="M314.222,498.324c-5.893,0-11.562-3.269-14.353-8.908l-56.042-113.27l-43.88-56.099c-0.427-0.546-0.819-1.12-1.172-1.717
	c-8.083-13.677-12.355-29.304-12.355-45.19V144c0-8.836,7.164-16,16-16h15.67c0.004,0,0.01,0,0.014,0
	c30.991,0,56.209,25.21,56.217,56.206v181.412l54.23,109.606c3.919,7.921,0.675,17.518-7.245,21.437
	C319.025,497.789,316.604,498.324,314.222,498.324z M225.834,301.204l16.486,21.077V184.22c-0.003-13.252-10.695-24.045-23.9-24.218
	V273.14C218.42,282.977,220.98,292.659,225.834,301.204z"/>
<path d="M127.9,309.05c-8.836,0-16-7.163-16-16v-74.52c0-2.483,0.578-4.933,1.689-7.155c0.407-0.813,10.128-20.148,24.798-39.709
	C160.115,142.691,181.659,128,202.42,128c8.836,0,16,7.164,16,16s-7.164,16-16,16c-17.842,0-44.638,36.079-58.52,62.404v70.646
	C143.9,301.887,136.736,309.05,127.9,309.05z"/>
<path d="M370.085,290.422c-3.015,0-6.062-0.851-8.77-2.629l-66.1-43.42c-7.386-4.852-9.44-14.772-4.589-22.158
	c4.852-7.386,14.774-9.439,22.157-4.588l66.1,43.42c7.386,4.852,9.44,14.771,4.589,22.157
	C380.399,287.882,375.292,290.422,370.085,290.422z"/>
<path d="M170.515,494.362c-3.106,0-6.244-0.902-9.004-2.786c-7.299-4.98-9.178-14.936-4.198-22.234l53.47-78.359
	c4.981-7.298,14.936-9.179,22.235-4.197c7.299,4.98,9.178,14.936,4.198,22.234l-53.47,78.359
	C180.648,491.917,175.625,494.362,170.515,494.362z"/>
<path d="M258.32,122.74c-29.368,0-53.26-23.893-53.26-53.26s23.893-53.26,53.26-53.26c29.367,0,53.26,23.892,53.26,53.26
	S287.688,122.74,258.32,122.74z M258.32,48.22c-11.723,0-21.26,9.537-21.26,21.26c0,11.723,9.537,21.26,21.26,21.26
	c11.723,0,21.26-9.537,21.26-21.26C279.58,57.757,270.043,48.22,258.32,48.22z"/>
</svg>
