<?xml version="1.0" encoding="iso-8859-1"?>
<!-- Generator: Adobe Illustrator 24.3.0, SVG Export Plug-In . SVG Version: 6.00 Build 0)  -->
<svg version="1.1" id="Layer_1" xmlns="http://www.w3.org/2000/svg" xmlns:xlink="http://www.w3.org/1999/xlink" x="0px" y="0px"
	 viewBox="0 0 512 512" style="enable-background:new 0 0 512 512;" xml:space="preserve">
<path d="M416,448H96c-35.29,0-64-28.71-64-64V192c0-35.29,28.71-64,64-64h320c35.29,0,64,28.71,64,64V384
	C480,419.29,451.29,448,416,448z M96,160c-17.645,0-32,14.355-32,32V384c0,17.645,14.355,32,32,32h320c17.645,0,32-14.355,32-32V192
	c0-17.645-14.355-32-32-32H96z"/>
<path d="M64,208H32v-49c-0.021-31.654,22.54-58.939,53.645-64.867c0.101-0.019,0.202-0.037,0.303-0.055l263.221-44.926
	c4.003-0.752,8.097-1.134,12.17-1.136c0.007,0,0.015,0,0.021,0c36.384,0,65.988,29.593,66,65.979V144h-32v-30
	c-0.003-9.077-3.542-17.613-9.966-24.033c-6.422-6.417-14.957-9.951-24.034-9.951c-0.004,0-0.008,0-0.012,0
	c-2.127,0-4.265,0.203-6.354,0.601c-0.101,0.019-0.202,0.038-0.303,0.055L91.497,125.594c-15.953,3.108-27.507,17.13-27.497,33.396
	V208z"/>
<circle cx="368" cy="288" r="32"/>
</svg>
