<?xml version="1.0" encoding="iso-8859-1"?>
<!-- Generator: Adobe Illustrator 24.3.0, SVG Export Plug-In . SVG Version: 6.00 Build 0)  -->
<svg version="1.1" id="Layer_1" xmlns="http://www.w3.org/2000/svg" xmlns:xlink="http://www.w3.org/1999/xlink" x="0px" y="0px"
	 viewBox="0 0 512 512" style="enable-background:new 0 0 512 512;" xml:space="preserve">
<path d="M95.5,104h320c3.738-0.002,7.472,0.235,11.18,0.71c-5.141-36.086-38.562-61.173-74.649-56.032
	c-0.957,0.136-1.911,0.294-2.861,0.472L86,94.08h-0.3c-16.519,3.159-31.209,12.505-41.07,26.13
	C59.486,109.643,77.269,103.977,95.5,104z"/>
<path d="M415.5,128h-320c-35.33,0.039-63.961,28.67-64,64v192c0.039,35.33,28.67,63.961,64,64h320c35.33-0.039,63.961-28.67,64-64
	V192C479.461,156.67,450.83,128.039,415.5,128z M368,320c-17.673,0-32-14.327-32-32s14.327-32,32-32s32,14.327,32,32
	S385.673,320,368,320z"/>
<path d="M32,259.5V160c0-21.67,12-58,53.65-65.87C121,87.5,156,87.5,156,87.5s23,16,4,16s-18.5,24.5,0,24.5s0,23.5,0,23.5L85.5,236
	L32,259.5z"/>
</svg>
