<?xml version="1.0" encoding="iso-8859-1"?>
<!-- Generator: Adobe Illustrator 24.3.0, SVG Export Plug-In . SVG Version: 6.00 Build 0)  -->
<svg version="1.1" id="Layer_1" xmlns="http://www.w3.org/2000/svg" xmlns:xlink="http://www.w3.org/1999/xlink" x="0px" y="0px"
	 viewBox="0 0 512 512" style="enable-background:new 0 0 512 512;" xml:space="preserve">
<path d="M47.5,104H432V51.52c0.001-8.837-7.162-16.001-15.999-16.001c-1.055,0-2.107,0.104-3.141,0.311l-368,60.48
	c-5.576,1.11-10.144,5.096-12,10.47C37.521,104.937,42.488,103.994,47.5,104z"/>
<path d="M463.5,128h-416c-8.837,0-16,7.163-16,16v288c0,8.837,7.163,16,16,16h416c8.837,0,16-7.163,16-16V144
	C479.5,135.163,472.337,128,463.5,128z M368,320c-17.673,0-32-14.327-32-32s14.327-32,32-32s32,14.327,32,32S385.673,320,368,320z"
	/>
<path d="M31.33,259.5V116c0-12.33,5.72-18.48,15.42-20c35.2-5.53,108.58-8.5,108.58-8.5s-8.33,16-27.33,16V128
	c18.5,0,31.33,23.5,31.33,23.5L84.83,236L31.33,259.5z"/>
</svg>
