<?xml version="1.0" encoding="iso-8859-1"?>
<!-- Generator: Adobe Illustrator 24.3.0, SVG Export Plug-In . SVG Version: 6.00 Build 0)  -->
<svg version="1.1" id="Layer_1" xmlns="http://www.w3.org/2000/svg" xmlns:xlink="http://www.w3.org/1999/xlink" x="0px" y="0px"
	 viewBox="0 0 512 512" style="enable-background:new 0 0 512 512;" xml:space="preserve">
<path d="M426.434,462.25H85.57c-0.001,0-0.002,0-0.003,0c-7.912-0.001-15.777-1.984-22.745-5.735
	c-23.305-12.549-32.057-41.716-19.51-65.02l170.42-316.501C222.122,59.423,238.319,49.75,256,49.75c0.001,0-0.001,0,0,0
	c17.683,0,33.877,9.672,42.266,25.241l170.422,316.503c3.753,6.969,5.736,14.836,5.736,22.75
	c0.003,12.817-4.987,24.873-14.052,33.94S439.255,462.247,426.434,462.25z M85.57,430.25h340.86
	c4.271-0.001,8.289-1.666,11.311-4.688s4.685-7.04,4.684-11.313c0-2.64-0.661-5.26-1.911-7.581L270.092,90.165
	C266,82.57,258.874,81.75,256,81.75s-10,0.82-14.095,8.419L71.487,406.666c-4.182,7.767-1.264,17.489,6.504,21.672
	c2.322,1.25,4.944,1.911,7.582,1.912H85.57z"/>
<path d="M256.001,333.39c-8.545,0-15.582-6.713-15.983-15.248l-5.74-122c-0.004-0.098-0.008-0.197-0.011-0.295l-0.009-0.46
	c-0.116-11.981,9.54-21.828,21.525-21.946c0.413-0.004,0.812,0.003,1.214,0.022c5.785,0.262,11.137,2.769,15.053,7.057
	c3.916,4.288,5.929,9.844,5.665,15.645l-5.731,121.977C271.581,326.676,264.545,333.39,256.001,333.39z"/>
<circle cx="256" cy="377.25" r="20"/>
</svg>
