<?xml version="1.0" encoding="iso-8859-1"?>
<!-- Generator: Adobe Illustrator 24.3.0, SVG Export Plug-In . SVG Version: 6.00 Build 0)  -->
<svg version="1.1" id="Layer_1" xmlns="http://www.w3.org/2000/svg" xmlns:xlink="http://www.w3.org/1999/xlink" x="0px" y="0px"
	 viewBox="0 0 512 512" style="enable-background:new 0 0 512 512;" xml:space="preserve">
<path d="M449.07,399.08L278.64,82.58c-12.08-22.44-44.26-22.44-56.35,0L51.87,399.08c-8.378,15.561-2.555,34.968,13.006,43.346
	c4.649,2.503,9.845,3.817,15.124,3.824h340.89c17.673,0.002,32.002-14.323,32.004-31.996
	C452.895,408.958,451.581,403.744,449.07,399.08z M250.47,397.25c-11.046,0-20-8.954-20-20s8.954-20,20-20c11.046,0,20,8.954,20,20
	S261.516,397.25,250.47,397.25z M272.19,196.1l-5.74,122c0,8.837-7.163,16-16,16c-8.837,0-16-7.163-16-16l-5.74-121.95l0,0
	c-0.531-11.989,8.758-22.139,20.748-22.67c0.251-0.011,0.501-0.018,0.752-0.02h0.21c12.007-0.006,21.745,9.722,21.751,21.729
	c0,0.324-0.007,0.648-0.021,0.971L272.19,196.1z"/>
</svg>
