<?xml version="1.0" encoding="iso-8859-1"?>
<!-- Generator: Adobe Illustrator 24.3.0, SVG Export Plug-In . SVG Version: 6.00 Build 0)  -->
<svg version="1.1" id="Layer_1" xmlns="http://www.w3.org/2000/svg" xmlns:xlink="http://www.w3.org/1999/xlink" x="0px" y="0px"
	 viewBox="0 0 512 512" style="enable-background:new 0 0 512 512;" xml:space="preserve">
<path d="M192,136h128c30.928,0,56,25.072,56,56v128c0,30.928-25.072,56-56,56H192c-30.928,0-56-25.072-56-56V192
	C136,161.072,161.072,136,192,136z"/>
<path d="M336,96V32c0-8.837-7.163-16-16-16H192c-8.837,0-16,7.163-16,16v64c-44.162,0.05-79.95,35.838-80,80v160
	c0.05,44.162,35.838,79.95,80,80v64c0,8.837,7.163,16,16,16h128c8.837,0,16-7.163,16-16v-64c44.162-0.05,79.95-35.838,80-80V176
	C415.95,131.838,380.162,96.05,336,96z M392,320c-0.044,39.746-32.254,71.956-72,72H192c-39.746-0.044-71.956-32.254-72-72V192
	c0.044-39.746,32.254-71.956,72-72h128c39.746,0.044,71.956,32.254,72,72V320z"/>
</svg>
