<?xml version="1.0" encoding="iso-8859-1"?>
<!-- Generator: Adobe Illustrator 24.3.0, SVG Export Plug-In . SVG Version: 6.00 Build 0)  -->
<svg version="1.1" id="Layer_1" xmlns="http://www.w3.org/2000/svg" xmlns:xlink="http://www.w3.org/1999/xlink" x="0px" y="0px"
	 viewBox="0 0 512 512" style="enable-background:new 0 0 512 512;" xml:space="preserve">
<path d="M144,136h224c4.418,0,8,3.582,8,8v224c0,4.418-3.582,8-8,8H144c-4.418,0-8-3.582-8-8V144C136,139.582,139.582,136,144,136z"
	/>
<path d="M384,96h-48V16H176v80h-48c-17.673,0-32,14.327-32,32v256c0,17.673,14.327,32,32,32h48v80h160v-80h48
	c17.673,0,32-14.327,32-32V128C416,110.327,401.673,96,384,96z M392,368c0,13.255-10.745,24-24,24H144c-13.255,0-24-10.745-24-24
	V144c0-13.255,10.745-24,24-24h224c13.255,0,24,10.745,24,24V368z"/>
</svg>
