<?xml version="1.0" encoding="iso-8859-1"?>
<!-- Generator: Adobe Illustrator 24.3.0, SVG Export Plug-In . SVG Version: 6.00 Build 0)  -->
<svg version="1.1" id="Layer_1" xmlns="http://www.w3.org/2000/svg" xmlns:xlink="http://www.w3.org/1999/xlink" x="0px" y="0px"
	 viewBox="0 0 512 512" style="enable-background:new 0 0 512 512;" xml:space="preserve">
<path d="M265.12,60.12c-4.311-5.034-11.886-5.621-16.92-1.31c-0.47,0.402-0.908,0.84-1.31,1.31C215.23,97.15,112,225.17,112,320
	c0,88.37,55.64,144,144,144s144-55.63,144-144C400,225.17,296.77,97.15,265.12,60.12z M272,412
	c-6.627,0.015-12.012-5.346-12.026-11.974c-0.003-1.371,0.229-2.733,0.686-4.026c1.678-4.85,6.279-8.075,11.41-8
	c33.069-0.072,59.858-26.861,59.93-59.93c-0.075-5.131,3.15-9.732,8-11.41c6.248-2.209,13.105,1.065,15.314,7.314
	c0.457,1.293,0.689,2.655,0.686,4.026C355.95,374.371,318.371,411.95,272,412z"/>
</svg>
