<?xml version="1.0" encoding="iso-8859-1"?>
<!-- Generator: Adobe Illustrator 24.3.0, SVG Export Plug-In . SVG Version: 6.00 Build 0)  -->
<svg version="1.1" id="Layer_1" xmlns="http://www.w3.org/2000/svg" xmlns:xlink="http://www.w3.org/1999/xlink" x="0px" y="0px"
	 viewBox="0 0 512 512" style="enable-background:new 0 0 512 512;" xml:space="preserve">
<path d="M256,480c-97.196,0-160-62.804-160-160c0-43.533,19.493-97.36,57.937-159.986c29.918-48.737,63.461-90.021,80.792-110.292
	c4.872-5.69,11.658-9.137,19.114-9.714c7.455-0.576,14.691,1.783,20.373,6.648c1.095,0.938,2.122,1.965,3.056,3.055
	c17.347,20.296,50.894,61.595,80.793,110.303C396.508,222.642,416,276.468,416,320C416,417.197,353.196,480,256,480z
	 M256.005,74.102c-17.388,20.58-47.679,58.478-74.796,102.653C146.399,233.46,128,282.994,128,320
	c0,39.023,11.817,71.467,34.175,93.825C184.532,436.183,216.977,448,256,448s71.468-11.817,93.825-34.175
	C372.183,391.467,384,359.024,384,320c0-37.006-18.398-86.54-53.207-143.245C303.695,132.611,273.404,94.704,256.005,74.102z"/>
<path d="M272,416c-8.837,0-16-7.163-16-16s7.163-16,16-16c30.879,0,56-25.121,56-56c0-8.837,7.163-16,16-16s16,7.163,16,16
	C360,376.524,320.523,416,272,416z"/>
</svg>
