<?xml version="1.0" encoding="iso-8859-1"?>
<!-- Generator: Adobe Illustrator 24.3.0, SVG Export Plug-In . SVG Version: 6.00 Build 0)  -->
<svg version="1.1" id="Layer_1" xmlns="http://www.w3.org/2000/svg" xmlns:xlink="http://www.w3.org/1999/xlink" x="0px" y="0px"
	 viewBox="0 0 512 512" style="enable-background:new 0 0 512 512;" xml:space="preserve">
<path d="M346.65,304.3c-51.529-45.805-129.181-45.805-180.71,0c-8.77,7.589-9.728,20.851-2.139,29.621s20.851,9.728,29.621,2.139
	c0.144-0.125,0.287-0.251,0.427-0.38c35.614-31.652,89.276-31.652,124.89,0c8.671,7.707,21.948,6.926,29.655-1.745
	s6.926-21.948-1.745-29.655V304.3z"/>
<path d="M256.28,183.7c-56.383-0.078-110.672,21.352-151.8,59.92c-8.639,7.739-9.369,21.015-1.63,29.654s21.015,9.369,29.654,1.63
	c0.223-0.2,0.442-0.405,0.656-0.614c69.296-64.786,176.944-64.786,246.24,0c8.3,8.101,21.595,7.94,29.696-0.359
	c8.101-8.3,7.94-21.595-0.359-29.696c-0.215-0.209-0.434-0.414-0.657-0.614C366.952,205.052,312.663,183.622,256.28,183.7z"/>
<path d="M462,175.86c-117.21-104.58-294.23-104.58-411.44,0c-8.819,7.533-9.861,20.788-2.328,29.607s20.788,9.861,29.607,2.328
	c0.245-0.21,0.486-0.425,0.721-0.645c101.265-90.314,254.165-90.314,355.43,0c8.646,7.732,21.923,6.991,29.655-1.655
	s6.991-21.923-1.655-29.655L462,175.86z"/>
<circle cx="256.28" cy="393.41" r="32"/>
</svg>
