<?xml version="1.0" encoding="iso-8859-1"?>
<!-- Generator: Adobe Illustrator 24.3.0, SVG Export Plug-In . SVG Version: 6.00 Build 0)  -->
<svg version="1.1" id="Layer_1" xmlns="http://www.w3.org/2000/svg" xmlns:xlink="http://www.w3.org/1999/xlink" x="0px" y="0px"
	 viewBox="0 0 512 512" style="enable-background:new 0 0 512 512;" xml:space="preserve">
<path d="M332.404,326.59c-3.781,0-7.575-1.332-10.624-4.041c-37.493-33.327-94.045-33.329-131.541,0
	c-6.605,5.869-16.718,5.274-22.588-1.329c-5.87-6.604-5.275-16.718,1.33-22.589c49.614-44.1,124.445-44.1,174.06,0
	c6.604,5.871,7.199,15.984,1.329,22.589C341.208,324.776,336.815,326.59,332.404,326.59z"/>
<path d="M393.457,265.54c-3.916,0-7.84-1.429-10.925-4.313C348.09,229.021,303.153,211.285,256,211.285
	c-47.154,0-92.09,17.736-126.532,49.942c-6.455,6.035-16.58,5.694-22.614-0.759c-6.036-6.455-5.696-16.58,0.759-22.615
	c40.391-37.769,93.089-58.569,148.388-58.569c55.299,0,107.997,20.8,148.388,58.569c6.455,6.035,6.794,16.16,0.759,22.615
	C401.996,263.837,397.731,265.54,393.457,265.54z"/>
<path d="M447.714,198.11c-3.79,0-7.594-1.338-10.646-4.061c-103.226-92.086-258.911-92.085-362.138,0
	c-6.592,5.883-16.708,5.306-22.59-1.289c-5.883-6.594-5.306-16.708,1.289-22.59c115.37-102.921,289.371-102.922,404.742,0
	c6.594,5.882,7.171,15.997,1.288,22.591C456.499,196.304,452.115,198.11,447.714,198.11z"/>
<circle cx="256" cy="384" r="32"/>
</svg>
