<?xml version="1.0" encoding="iso-8859-1"?>
<!-- Generator: Adobe Illustrator 24.3.0, SVG Export Plug-In . SVG Version: 6.00 Build 0)  -->
<svg version="1.1" id="Layer_1" xmlns="http://www.w3.org/2000/svg" xmlns:xlink="http://www.w3.org/1999/xlink" x="0px" y="0px"
	 viewBox="0 0 512 512" style="enable-background:new 0 0 512 512;" xml:space="preserve">
<path d="M334.435,349.648l-15.695-13.951c-35.601-31.646-89.296-31.646-124.898,0l-15.696,13.951l-27.903-31.392l15.696-13.952
	c51.509-45.782,129.196-45.782,180.703,0l15.696,13.952L334.435,349.648z"/>
<path d="M394.736,288.682l-15.339-14.343c-33.513-31.336-77.236-48.595-123.117-48.595c-45.881,0-89.605,17.258-123.118,48.595
	l-15.339,14.343l-28.686-30.678l15.339-14.343c41.32-38.638,95.232-59.917,151.803-59.917c56.57,0,110.481,21.279,151.803,59.917
	l15.339,14.343L394.736,288.682z"/>
<path d="M449.691,221.17l-15.671-13.979c-101.328-90.394-254.152-90.394-355.481,0l-15.67,13.979L34.91,189.829l15.671-13.98
	c117.267-104.611,294.131-104.613,411.399,0l15.671,13.98L449.691,221.17z"/>
<path d="M300.67,384L256,433l-44.34-49c19.46-24.555,55.142-28.684,79.696-9.224c3.419,2.71,6.514,5.805,9.224,9.224H300.67z"/>
</svg>
