<?xml version="1.0" encoding="iso-8859-1"?>
<!-- Generator: Adobe Illustrator 24.3.0, SVG Export Plug-In . SVG Version: 6.00 Build 0)  -->
<svg version="1.1" id="Layer_1" xmlns="http://www.w3.org/2000/svg" xmlns:xlink="http://www.w3.org/1999/xlink" x="0px" y="0px"
	 viewBox="0 0 512 512" style="enable-background:new 0 0 512 512;" xml:space="preserve">
<path d="M414.56,94.92V80c0-8.837-7.163-16-16-16H113.44c-8.837,0-16,7.163-16,16v14.92c-1.46,11.37-9.65,90.74,36.93,144.69
	c24.87,28.8,60.36,44.85,105.63,47.86V416h-80c-8.837,0-16,7.163-16,16s7.163,16,16,16h192c8.837,0,16-7.163,16-16s-7.163-16-16-16
	h-80V287.47c45.27-3,80.76-19.06,105.63-47.86C424.21,185.66,416,106.29,414.56,94.92z M129.26,98.33
	c0.12-0.771,0.18-1.55,0.18-2.33h253.12c0,0.78,0.06,1.559,0.18,2.33c1.727,15.174,1.727,30.496,0,45.67H129.32
	C127.593,128.827,127.573,113.508,129.26,98.33L129.26,98.33z"/>
</svg>
