<?xml version="1.0" encoding="iso-8859-1"?>
<!-- Generator: Adobe Illustrator 24.3.0, SVG Export Plug-In . SVG Version: 6.00 Build 0)  -->
<svg version="1.1" id="Layer_1" xmlns="http://www.w3.org/2000/svg" xmlns:xlink="http://www.w3.org/1999/xlink" x="0px" y="0px"
	 viewBox="0 0 512 512" style="enable-background:new 0 0 512 512;" xml:space="preserve">
<path d="M256,288c-52.981,0-93.903-16.281-121.63-48.391C87.784,185.661,95.975,106.289,97.43,94.924V80c0-8.836,7.164-16,16-16
	h285.14c8.837,0,16,7.164,16,16v14.924c1.455,11.365,9.646,90.737-36.939,144.686C349.903,271.719,308.98,288,256,288z M129.43,96
	c0,0.78-0.057,1.56-0.171,2.331c-0.103,0.716-10.212,74.729,29.439,120.491C180.075,243.492,212.812,256,256,256
	s75.926-12.509,97.302-37.179c39.651-45.761,29.542-119.775,29.436-120.517c-0.108-0.754-0.167-1.542-0.167-2.305H129.43z"/>
<rect x="240" y="272" width="32" height="160"/>
<path d="M352,448H160c-8.836,0-16-7.163-16-16s7.164-16,16-16h192c8.837,0,16,7.163,16,16S360.837,448,352,448z"/>
<rect x="112" y="144" width="288" height="32"/>
</svg>
