<?xml version="1.0" encoding="iso-8859-1"?>
<!-- Generator: Adobe Illustrator 24.3.0, SVG Export Plug-In . SVG Version: 6.00 Build 0)  -->
<svg version="1.1" id="Layer_1" xmlns="http://www.w3.org/2000/svg" xmlns:xlink="http://www.w3.org/1999/xlink" x="0px" y="0px"
	 viewBox="0 0 512 512" style="enable-background:new 0 0 512 512;" xml:space="preserve">
<path d="M232.278,512.002c-0.184-0.001-0.367-0.001-0.55,0c-0.148,0-0.296-0.001-0.444-0.003
	c-21.881-0.251-39.478-18.22-39.284-40.078V368c0-8.837,7.164-16,16-16s16,7.163,16,16l-0.001,104.183
	c-0.049,4.263,3.379,7.77,7.642,7.818h0.542c0.029,0,0.06,0.001,0.089,0.001c4.222,0,7.681-3.41,7.729-7.642v-0.188
	c-0.096-8.836,6.99-16.076,15.826-16.172c0.059-0.001,0.118-0.001,0.177-0.001c8.756,0,15.9,7.05,15.995,15.827
	c0.003,0.295,0.003,0.591,0,0.888C271.75,494.478,253.975,512.001,232.278,512.002z"/>
<path d="M280.277,512.002c-0.182,0-0.365,0-0.549,0c-0.148,0-0.297-0.001-0.444-0.003c-21.882-0.251-39.478-18.22-39.284-40.078V368
	c0-8.837,7.164-16,16-16c8.837,0,16,7.163,16,16l-0.001,104.183c-0.049,4.263,3.379,7.77,7.642,7.818h0.542
	c4.26,0.016,7.77-3.38,7.818-7.642L288,368c0-8.837,7.163-16,16-16s16,7.163,16,16v103.925c0.002,0.263,0.002,0.525-0.001,0.79
	C319.749,494.478,301.974,512.001,280.277,512.002z"/>
<path d="M351.897,307.246c-17.001,0-32.771-11.01-38.008-28.09l-0.21-0.709c-2.455-8.488,2.436-17.36,10.924-19.816
	c8.48-2.452,17.359,2.434,19.816,10.924l0.085,0.288c0.797,2.599,2.69,3.937,3.746,4.497c1.058,0.561,3.228,1.384,5.89,0.562
	l0.546-0.161c4.009-1.243,6.291-5.577,5.031-9.644l-0.058-0.188l-25-84.279c-3.607-12.145-14.979-20.63-27.653-20.63
	c-0.002,0-0.003,0-0.005,0H205c-0.004,0-0.01,0-0.014,0c-12.678,0-24.046,8.478-27.66,20.623l-25.104,84.624
	c-0.763,2.683,0.099,4.833,0.681,5.876c0.581,1.043,1.956,2.906,4.632,3.667l0.59,0.176c4.035,1.146,8.319-1.24,9.484-5.341
	c2.417-8.499,11.266-13.431,19.766-11.014c8.5,2.416,13.431,11.266,11.015,19.766c-5.992,21.071-28.009,33.345-49.081,27.35
	c-0.262-0.075-0.482-0.14-0.693-0.204c-10.129-2.927-18.53-9.605-23.666-18.822c-5.165-9.268-6.412-19.991-3.51-30.196
	c0.075-0.265,0.154-0.532,0.236-0.799l24.975-84.194c7.624-25.625,31.607-43.51,58.328-43.51c0.011,0,0.018,0,0.029,0H307
	c0.002,0,0.007,0,0.009,0c26.732,0,50.716,17.896,58.329,43.524l24.979,84.207c6.411,20.888-5.327,43.116-26.21,49.592
	c-0.275,0.084-0.516,0.156-0.749,0.224C359.545,306.698,355.69,307.246,351.897,307.246z"/>
<path d="M256,112c-30.878,0-56-25.122-56-56s25.122-56,56-56c30.879,0,56,25.122,56,56S286.879,112,256,112z M256,32
	c-13.234,0-24,10.766-24,24s10.766,24,24,24c13.233,0,24-10.766,24-24S269.233,32,256,32z"/>
<path d="M352,368H160c-5.058,0-9.817-2.392-12.836-6.449c-3.02-4.058-3.942-9.304-2.489-14.148l48-160.001
	c2.539-8.464,11.458-13.268,19.923-10.728c8.464,2.539,13.267,11.459,10.728,19.923L181.504,336h148.991l-41.82-139.403
	c-2.539-8.464,2.264-17.384,10.728-19.923c8.469-2.541,17.384,2.264,19.923,10.728l48,160.001c1.453,4.845,0.53,10.091-2.488,14.148
	C361.817,365.609,357.058,368,352,368z"/>
</svg>
