<?xml version="1.0" encoding="iso-8859-1"?>
<!-- Generator: Adobe Illustrator 24.3.0, SVG Export Plug-In . SVG Version: 6.00 Build 0)  -->
<svg version="1.1" id="Layer_1" xmlns="http://www.w3.org/2000/svg" xmlns:xlink="http://www.w3.org/1999/xlink" x="0px" y="0px"
	 viewBox="0 0 512 512" style="enable-background:new 0 0 512 512;" xml:space="preserve">
<circle cx="255.75" cy="56" r="56"/>
<path d="M394.63,277.9l-10.33-34.41c0,0,0-0.07,0-0.11l-22.46-74.86h-0.05l-2.51-8.45c-5.659-19.028-23.148-32.076-43-32.08h-120
	c-19.855-0.006-37.35,13.046-43,32.08l-2.51,8.45h-0.06l-22.46,74.86c0,0,0,0.07,0,0.11l-10.37,34.41
	c-3.12,10.39,2.3,21.66,12.57,25.14c10.456,3.56,21.819-2.031,25.378-12.488c0.078-0.229,0.152-0.46,0.222-0.692l25.58-85.25l0,0
	l2.17-7.23c1.491-4.159,6.072-6.321,10.231-4.83c3.151,1.13,5.265,4.102,5.299,7.45c-0.001,0.541-0.057,1.081-0.17,1.61l0,0
	L155.43,347.4c-2.541,8.463,2.261,17.384,10.724,19.924c1.491,0.448,3.039,0.675,4.596,0.676h29v114.69
	c0,16.46,10.53,29.31,24,29.31s24-12.85,24-29.31V368h16v114.69c0,16.46,10.53,29.31,24,29.31s24-12.85,24-29.31V368h30
	c8.837,0.003,16.002-7.158,16.005-15.995c0.001-1.56-0.227-3.111-0.676-4.605l-43.74-145.81c-0.11-0.523-0.163-1.056-0.16-1.59
	c0.024-4.418,3.625-7.98,8.043-7.957c3.372,0.018,6.37,2.149,7.497,5.327l2.17,7.23l0,0l25.57,85.25
	c3.194,10.574,14.355,16.556,24.929,13.362c0.222-0.067,0.442-0.138,0.661-0.212C392.32,299.56,397.74,288.29,394.63,277.9z"/>
</svg>
