<?xml version="1.0" encoding="iso-8859-1"?>
<!-- Generator: Adobe Illustrator 24.3.0, SVG Export Plug-In . SVG Version: 6.00 Build 0)  -->
<svg version="1.1" id="Layer_1" xmlns="http://www.w3.org/2000/svg" xmlns:xlink="http://www.w3.org/1999/xlink" x="0px" y="0px"
	 viewBox="0 0 512 512" style="enable-background:new 0 0 512 512;" xml:space="preserve">
<circle cx="255.75" cy="56" r="56"/>
<path d="M310.28,191.4h0.05l7.66-2.3l36.79,122.6l46-13.8l-16.21-54.16c0-0.12,0-0.24-0.07-0.36l-16.84-56.12l-4.71-15.74l0,0
	l-0.9-3H362l-2.51-8.45c-5.65-19.034-23.145-32.086-43-32.08H195.24c-19.855-0.006-37.35,13.046-43,32.08l-2.51,8.45h-0.06l-0.9,3
	l0,0l-4.71,15.74l-16.84,56.12c0,0.12,0,0.24-0.07,0.36l-16.21,54.16l46,13.8l36.76-122.6l7.54,2.26L148.25,368h51.5v144h52V368h8
	v144h52V368h51.51L310.28,191.4z"/>
</svg>
